<?xml version="1.0" encoding="utf-8"?>
<!-- Generator: Adobe Illustrator 21.0.0, SVG Export Plug-In . SVG Version: 6.00 Build 0)  -->
<svg version="1.1" id="Layer_1" xmlns="http://www.w3.org/2000/svg" xmlns:xlink="http://www.w3.org/1999/xlink" x="0px" y="0px"
	 viewBox="0 0 245 240" style="enable-background:new 0 0 245 240;" xml:space="preserve">
<style type="text/css">
	.st0{fill:#FFFFFF;}
</style>
<path class="st0" d="M101,100.8c-6.8,0-12.1,6-12.1,13.2s5.5,13.2,12.1,13.2c6.8,0,12.1-6,12.1-13.2
	C113.2,106.8,107.7,100.8,101,100.8z M144.4,100.8c-6.8,0-12.1,6-12.1,13.2s5.5,13.2,12.1,13.2c6.8,0,12.1-6,12.1-13.2
	S151.2,100.8,144.4,100.8z"/>
<path class="st0" d="M202.3,1H42.7c-13.5,0-24.4,11-24.4,24.5v161c0,13.6,11,24.5,24.4,24.5h135l-6.3-22l15.2,14.2l14.4,13.3
	l25.6,22.6V25.5C226.7,11.9,215.7,1,202.3,1z M156.3,156.4c0,0-4.3-5.1-7.9-9.6c15.6-4.4,21.5-14.2,21.5-14.2
	c-4.9,3.2-9.5,5.5-13.7,7c-6,2.5-11.7,4.2-17.3,5.1c-11.4,2.1-21.9,1.5-30.8-0.1c-6.8-1.3-12.6-3.2-17.5-5.1c-2.7-1.1-5.7-2.4-8.7-4
	c-0.4-0.2-0.7-0.4-1.1-0.6c-0.2-0.1-0.4-0.2-0.5-0.4c-2.1-1.2-3.3-2-3.3-2s5.7,9.5,20.8,14c-3.6,4.5-8,9.9-8,9.9
	c-26.3-0.8-36.3-18.1-36.3-18.1c0-38.3,17.1-69.4,17.1-69.4c17.1-12.9,33.5-12.5,33.5-12.5l1.2,1.4C84,64,74.2,73.5,74.2,73.5
	s2.6-1.4,7-3.5c12.7-5.6,22.9-7.1,27-7.5c0.7-0.1,1.3-0.2,2-0.2c7.3-1,15.5-1.2,24-0.2c11.3,1.3,23.5,4.6,35.8,11.4
	c0,0-9.4-8.9-29.6-15.1l1.7-1.9c0,0,16.3-0.4,33.5,12.5c0,0,17.1,31.1,17.1,69.4C192.7,138.3,182.6,155.6,156.3,156.4z"/>
</svg>
