<svg width="40" height="40" viewBox="0 0 40 40" fill="none" xmlns="http://www.w3.org/2000/svg">
<g clip-path="url(#clip0)">
<path d="M15.7527 17.4545H1.70182C0.762182 17.4545 0 16.6924 0 15.7527V1.70182C0 0.762182 0.762182 0 1.70182 0H15.7527C16.6924 0 17.4545 0.762182 17.4545 1.70182V15.7527C17.4545 16.6924 16.6924 17.4545 15.7527 17.4545Z" fill="#EFCE4A"/>
<path d="M37.5709 17.4545H23.52C22.5804 17.4545 21.8182 16.6924 21.8182 15.7527V1.70182C21.8182 0.762182 22.5804 0 23.52 0H37.5709C38.5105 0 39.2727 0.762182 39.2727 1.70182V15.7527C39.2727 16.6924 38.5105 17.4545 37.5709 17.4545Z" fill="#7FABDA"/>
<path d="M15.7527 39.2727H1.70182C0.762182 39.2727 0 38.5105 0 37.5709V23.52C0 22.5804 0.762182 21.8182 1.70182 21.8182H15.7527C16.6924 21.8182 17.4545 22.5804 17.4545 23.52V37.5709C17.4545 38.5105 16.6924 39.2727 15.7527 39.2727Z" fill="#D75A4A"/>
<path fill-rule="evenodd" clip-rule="evenodd" d="M30.5455 20.8182C31.0978 20.8182 31.5455 21.2659 31.5455 21.8182V39.2727C31.5455 39.825 31.0978 40.2727 30.5455 40.2727C29.9932 40.2727 29.5455 39.825 29.5455 39.2727V21.8182C29.5455 21.2659 29.9932 20.8182 30.5455 20.8182Z" fill="#23A24D"/>
<path fill-rule="evenodd" clip-rule="evenodd" d="M20.8182 30.5455C20.8182 29.9932 21.2659 29.5455 21.8182 29.5455H39.2727C39.825 29.5455 40.2727 29.9932 40.2727 30.5455C40.2727 31.0977 39.825 31.5455 39.2727 31.5455H21.8182C21.2659 31.5455 20.8182 31.0977 20.8182 30.5455Z" fill="#23A24D"/>
</g>
<defs>
<clipPath id="clip0">
<rect width="40" height="40" fill="white"/>
</clipPath>
</defs>
</svg>
