<svg width="50" height="50" viewBox="0 0 50 50" fill="none" xmlns="http://www.w3.org/2000/svg">
<path d="M47.5938 1H19.375C18.5984 1 17.9688 1.62962 17.9688 2.40625V25C17.9688 25.7766 18.5984 26.4062 19.375 26.4062H32.855L40.8807 34.4318C41.3362 34.8874 42.0438 34.9766 42.6018 34.6416C43.0325 34.3831 43.2813 33.9033 43.2813 33.4008V26.4062H47.5938C48.3705 26.4062 49.0001 25.7765 49.0001 24.9999V2.40625C49 1.62962 48.3705 1 47.5938 1V1Z" fill="url(#paint0_linear)"/>
<path d="M8.12472 49C7.94481 49 7.76341 48.9655 7.59044 48.8944C7.06309 48.6777 6.71875 48.1639 6.71875 47.5938V40.4688H2.40625C1.62962 40.4688 1 39.8391 1 39.0625V16.5625C1 15.7859 1.62962 15.1562 2.40625 15.1562H30.625C31.4016 15.1562 32.0312 15.7859 32.0312 16.5625V39.0625C32.0312 39.8391 31.4016 40.4688 30.625 40.4688H17.1496L9.12484 48.5826C8.85541 48.8551 8.49325 49 8.12472 49V49Z" fill="url(#paint1_linear)"/>
<defs>
<linearGradient id="paint0_linear" x1="33.4844" y1="34.8438" x2="33.4844" y2="1" gradientUnits="userSpaceOnUse">
<stop stop-color="#A93AFF"/>
<stop offset="1" stop-color="#FF81FF"/>
</linearGradient>
<linearGradient id="paint1_linear" x1="16.5156" y1="49.0001" x2="16.5156" y2="15.1562" gradientUnits="userSpaceOnUse">
<stop stop-color="#FFBEF9"/>
<stop offset="1" stop-color="#FFF1FF"/>
</linearGradient>
</defs>
</svg>
