<svg width="50" height="50" viewBox="0 0 50 50" fill="none" xmlns="http://www.w3.org/2000/svg">
<path d="M25 3.45334L3.8125 24.553V47.5937C3.8125 48.3704 4.44212 49 5.21875 49H44.7812C45.5579 49 46.1875 48.3704 46.1875 47.5937V24.553L25 3.45334Z" fill="url(#paint0_linear)"/>
<path d="M46.601 25.9029L24.9996 4.39106L3.39806 25.9029C2.84766 26.4509 1.95722 26.4491 1.40934 25.8988C0.86128 25.3485 0.863155 24.4582 1.41347 23.9101L24.0072 1.4101C24.5559 0.863627 25.4431 0.863627 25.9918 1.4101L48.5856 23.9101C49.1359 24.4582 49.1377 25.3485 48.5897 25.8988C48.0417 26.4491 47.1514 26.4509 46.601 25.9029V25.9029Z" fill="url(#paint1_linear)"/>
<path d="M30.625 31.9375H19.375C18.5984 31.9375 17.9688 32.5671 17.9688 33.3438V49H32.0312V33.3438C32.0312 32.5671 31.4016 31.9375 30.625 31.9375Z" fill="url(#paint2_linear)"/>
<path d="M25 29.125C21.123 29.125 17.9688 25.9708 17.9688 22.0938C17.9688 18.2167 21.123 15.0625 25 15.0625C28.877 15.0625 32.0312 18.2167 32.0312 22.0938C32.0312 25.9708 28.877 29.125 25 29.125Z" fill="url(#paint3_linear)"/>
<defs>
<linearGradient id="paint0_linear" x1="25" y1="49" x2="25" y2="3.45334" gradientUnits="userSpaceOnUse">
<stop stop-color="#23A24D"/>
<stop offset="1" stop-color="#E2FFEA"/>
</linearGradient>
<linearGradient id="paint1_linear" x1="24.9996" y1="26.3127" x2="24.9996" y2="1.00022" gradientUnits="userSpaceOnUse">
<stop stop-color="#3BB873"/>
<stop offset="1" stop-color="#9BFF9D"/>
</linearGradient>
<linearGradient id="paint2_linear" x1="25" y1="49" x2="25" y2="31.9375" gradientUnits="userSpaceOnUse">
<stop stop-color="#3BB873"/>
<stop offset="1" stop-color="#E2FFEA"/>
</linearGradient>
<linearGradient id="paint3_linear" x1="25" y1="29.125" x2="25" y2="15.0625" gradientUnits="userSpaceOnUse">
<stop stop-color="#3BB873"/>
<stop offset="1" stop-color="#E2FFEA"/>
</linearGradient>
</defs>
</svg>
