<svg width="50" height="50" viewBox="0 0 50 50" fill="none" xmlns="http://www.w3.org/2000/svg">
<path d="M30.625 49H19.375C18.5984 49 17.9688 48.3704 17.9688 47.5938V40.4688C17.9688 39.6921 18.5984 39.0625 19.375 39.0625H30.625C31.4016 39.0625 32.0312 39.6921 32.0312 40.4688V47.5938C32.0312 48.3704 31.4016 49 30.625 49Z" fill="url(#paint0_linear)"/>
<path d="M25 1C15.6951 1 8.125 8.57013 8.125 17.875C8.125 24.0251 10.9227 27.2491 13.391 30.0935C15.7451 32.8064 17.9688 35.3688 17.9688 40.4688V41.875H32.0312V40.4688C32.0312 35.3688 34.2549 32.8064 36.609 30.0935C39.0773 27.2491 41.875 24.0251 41.875 17.875C41.875 8.57013 34.3049 1 25 1V1Z" fill="url(#paint1_linear)"/>
<path d="M25 23.5C24.2234 23.5 23.5938 22.8704 23.5938 22.0938V13.6562C23.5938 12.8796 24.2234 12.25 25 12.25C25.7766 12.25 26.4062 12.8796 26.4062 13.6562V22.0938C26.4062 22.8704 25.7766 23.5 25 23.5Z" fill="url(#paint2_linear)"/>
<path d="M25 29.125C25.7767 29.125 26.4062 28.4954 26.4062 27.7188C26.4062 26.9421 25.7767 26.3125 25 26.3125C24.2233 26.3125 23.5938 26.9421 23.5938 27.7188C23.5938 28.4954 24.2233 29.125 25 29.125Z" fill="url(#paint3_linear)"/>
<defs>
<linearGradient id="paint0_linear" x1="25" y1="49" x2="25" y2="39.0625" gradientUnits="userSpaceOnUse">
<stop stop-color="#FFE59A"/>
<stop offset="1" stop-color="#FFFFD5"/>
</linearGradient>
<linearGradient id="paint1_linear" x1="25" y1="41.875" x2="25" y2="1" gradientUnits="userSpaceOnUse">
<stop stop-color="#FD5900"/>
<stop offset="1" stop-color="#FFDE00"/>
</linearGradient>
<linearGradient id="paint2_linear" x1="25" y1="23.5" x2="25" y2="12.25" gradientUnits="userSpaceOnUse">
<stop stop-color="#FFE59A"/>
<stop offset="1" stop-color="#FFFFD5"/>
</linearGradient>
<linearGradient id="paint3_linear" x1="25" y1="29.125" x2="25" y2="26.3125" gradientUnits="userSpaceOnUse">
<stop stop-color="#FFE59A"/>
<stop offset="1" stop-color="#FFFFD5"/>
</linearGradient>
</defs>
</svg>
