<svg width="50" height="50" viewBox="0 0 50 50" fill="none" xmlns="http://www.w3.org/2000/svg">
<path d="M47.5944 43.2812L25.0007 40.4687L2.40698 43.2812C1.63036 43.2812 1.00073 42.6516 1.00073 41.8749V8.125C1.00073 7.34837 1.63036 6.71875 2.40698 6.71875H47.5944C48.371 6.71875 49.0006 7.34837 49.0006 8.125V41.8749C49.0006 42.6516 48.3711 43.2812 47.5944 43.2812Z" fill="url(#paint0_linear)"/>
<path d="M12.3438 23.5938C9.24213 23.5938 6.71875 21.0704 6.71875 17.9688C6.71875 14.8671 9.24213 12.3438 12.3438 12.3438C15.4454 12.3438 17.9688 14.8671 17.9688 17.9688C17.9688 21.0704 15.4454 23.5938 12.3438 23.5938Z" fill="url(#paint1_linear)"/>
<path d="M47.5937 43.2812H2.40632C1.8367 43.2812 1.32332 42.9376 1.1062 42.4109C0.889072 41.8843 1.01113 41.2787 1.4152 40.8773L15.5714 26.8148C16.1211 26.2688 17.0089 26.2702 17.5569 26.8181L20.7813 30.0425L29.6307 21.1931C29.9072 20.9165 30.2876 20.7677 30.677 20.7822C31.0679 20.7966 31.4349 20.9731 31.6903 21.2694L48.659 40.9569C49.018 41.3734 49.1013 41.9609 48.8722 42.4608C48.6431 42.9608 48.1437 43.2812 47.5937 43.2812Z" fill="url(#paint2_linear)"/>
<defs>
<linearGradient id="paint0_linear" x1="25.0007" y1="43.2812" x2="25.0007" y2="6.71875" gradientUnits="userSpaceOnUse">
<stop stop-color="#00B59C"/>
<stop offset="1" stop-color="#9CFFAC"/>
</linearGradient>
<linearGradient id="paint1_linear" x1="12.3438" y1="23.5938" x2="12.3438" y2="12.3438" gradientUnits="userSpaceOnUse">
<stop stop-color="#9BFF9D"/>
<stop offset="0.9973" stop-color="#E2FFEA"/>
<stop offset="1" stop-color="#E2FFEA"/>
</linearGradient>
<linearGradient id="paint2_linear" x1="25" y1="43.2812" x2="25" y2="20.7812" gradientUnits="userSpaceOnUse">
<stop stop-color="#9BFF9D"/>
<stop offset="0.9973" stop-color="#E2FFEA"/>
<stop offset="1" stop-color="#E2FFEA"/>
</linearGradient>
</defs>
</svg>
