<svg width="50" height="50" viewBox="0 0 50 50" fill="none" xmlns="http://www.w3.org/2000/svg">
<path d="M27.8125 49H22.1875C21.4987 49 20.9114 48.5012 20.7998 47.8215L19.9351 42.5532C18.627 42.1761 17.3665 41.6528 16.1702 40.9901L11.8961 44.0429C11.3367 44.4423 10.5705 44.379 10.0844 43.8929L6.10703 39.9156C5.62094 39.4295 5.55756 38.6633 5.95703 38.1039L9.00981 33.8298C8.34709 32.6335 7.82378 31.373 7.44672 30.0649L2.17853 29.2003C1.49884 29.0886 1 28.5013 1 27.8125V22.1875C1 21.4987 1.49884 20.9114 2.17853 20.7998L7.44672 19.9352C7.82378 18.6271 8.34709 17.3666 9.00981 16.1702L5.95703 11.8962C5.55747 11.3368 5.62094 10.5706 6.10703 10.0845L10.0844 6.10703C10.5705 5.62094 11.3367 5.55756 11.8961 5.95703L16.1702 9.00981C17.3665 8.34709 18.627 7.82378 19.9351 7.44672L20.7998 2.17844C20.9114 1.49884 21.4987 1 22.1875 1H27.8125C28.5013 1 29.0886 1.49884 29.2002 2.17853L30.0649 7.44672C31.373 7.82378 32.6335 8.34709 33.8298 9.00981L38.1039 5.95703C38.6632 5.55747 39.4295 5.62084 39.9156 6.10703L43.893 10.0844C44.3791 10.5705 44.4424 11.3367 44.043 11.8961L40.9902 16.1702C41.6529 17.3666 42.1762 18.6271 42.5533 19.9351L47.8215 20.7997C48.5012 20.9114 49 21.4987 49 22.1875V27.8125C49 28.5013 48.5012 29.0886 47.8215 29.2002L42.5533 30.0648C42.1763 31.3729 41.6529 32.6334 40.9902 33.8297L44.043 38.1038C44.4425 38.6632 44.3791 39.4294 43.893 39.9155L39.9156 43.893C39.4294 44.3791 38.6633 44.4424 38.1039 44.043L33.8298 40.9902C32.6335 41.6529 31.3729 42.1762 30.0649 42.5533L29.2002 47.8215C29.0886 48.5012 28.5013 49 27.8125 49V49ZM47.5938 27.8125H47.5947H47.5938Z" fill="url(#paint0_linear)"/>
<path d="M25 34.8438C19.5722 34.8438 15.1562 30.4278 15.1562 25C15.1562 19.5722 19.5722 15.1562 25 15.1562C30.4278 15.1562 34.8438 19.5722 34.8438 25C34.8438 30.4278 30.4278 34.8438 25 34.8438Z" fill="url(#paint1_linear)"/>
<defs>
<linearGradient id="paint0_linear" x1="25" y1="49" x2="25" y2="1" gradientUnits="userSpaceOnUse">
<stop stop-color="#5558FF"/>
<stop offset="1" stop-color="#00C0FF"/>
</linearGradient>
<linearGradient id="paint1_linear" x1="25" y1="34.8438" x2="25" y2="15.1562" gradientUnits="userSpaceOnUse">
<stop stop-color="#ADDCFF"/>
<stop offset="0.5028" stop-color="#EAF6FF"/>
<stop offset="1" stop-color="#EAF6FF"/>
</linearGradient>
</defs>
</svg>
