<svg width="50" height="50" viewBox="0 0 50 50" fill="none" xmlns="http://www.w3.org/2000/svg">
<path d="M25 23.5C18.7968 23.5 13.75 18.4532 13.75 12.25C13.75 6.04675 18.7968 1 25 1C31.2032 1 36.25 6.04675 36.25 12.25C36.25 18.4532 31.2032 23.5 25 23.5Z" fill="url(#paint0_linear)"/>
<path d="M44.6875 49H5.3125C4.53587 49 3.90625 48.3704 3.90625 47.5938C3.90625 35.952 13.3244 26.3125 25 26.3125C36.6789 26.3125 46.0938 35.9555 46.0938 47.5938C46.0938 48.3704 45.4641 49 44.6875 49Z" fill="url(#paint1_linear)"/>
<defs>
<linearGradient id="paint0_linear" x1="25" y1="23.5" x2="25" y2="1" gradientUnits="userSpaceOnUse">
<stop stop-color="#FFE59A"/>
<stop offset="1" stop-color="#FFFFD5"/>
</linearGradient>
<linearGradient id="paint1_linear" x1="25" y1="49" x2="25" y2="26.3125" gradientUnits="userSpaceOnUse">
<stop stop-color="#FD5900"/>
<stop offset="1" stop-color="#FFDE00"/>
</linearGradient>
</defs>
</svg>
