<svg width="30" height="30" viewBox="0 0 30 30" fill="none" xmlns="http://www.w3.org/2000/svg">
<path d="M28 3H1V22.76H4V29L10 22.76H28V3Z" fill="#25AE88"/>
<path d="M5.56339 7.52107H13.1687C13.5885 7.52107 13.9293 7.18111 13.9293 6.76053C13.9293 6.33996 13.5885 6 13.1687 6H5.56339C5.14358 6 4.80286 6.33996 4.80286 6.76053C4.80286 7.18111 5.14358 7.52107 5.56339 7.52107Z" fill="#57D8AB"/>
<path d="M23.8162 9.80261H5.56339C5.14358 9.80261 4.80286 10.1426 4.80286 10.5631C4.80286 10.9837 5.14358 11.3237 5.56339 11.3237H23.8162C24.236 11.3237 24.5767 10.9837 24.5767 10.5631C24.5767 10.1426 24.236 9.80261 23.8162 9.80261Z" fill="#57D8AB"/>
<path d="M5.56339 14.8448H13.1687C13.5885 14.8448 13.9293 14.5048 13.9293 14.0843C13.9293 13.6637 13.5885 13.3237 13.1687 13.3237H5.56339C5.14358 13.3237 4.80286 13.6637 4.80286 14.0843C4.80286 14.5048 5.14358 14.8448 5.56339 14.8448Z" fill="#57D8AB"/>
<path d="M23.8162 17.1263H5.56339C5.14358 17.1263 4.80286 17.4663 4.80286 17.8869C4.80286 18.3075 5.14358 18.6474 5.56339 18.6474H23.8162C24.236 18.6474 24.5767 18.3075 24.5767 17.8869C24.5767 17.4663 24.236 17.1263 23.8162 17.1263Z" fill="#57D8AB"/>
</svg>
