<?xml version="1.0" encoding="iso-8859-1"?>
<!-- Generator: Adobe Illustrator 16.0.0, SVG Export Plug-In . SVG Version: 6.00 Build 0)  -->
<!DOCTYPE svg PUBLIC "-//W3C//DTD SVG 1.1//EN" "http://www.w3.org/Graphics/SVG/1.1/DTD/svg11.dtd">
<svg version="1.1" id="Capa_1" xmlns="http://www.w3.org/2000/svg" xmlns:xlink="http://www.w3.org/1999/xlink" x="0px" y="0px"
	 width="612px" height="612px" viewBox="0 0 612 612" style="enable-background:new 0 0 612 612;" xml:space="preserve">
<g>
	<g id="_x31__29_">
		<g>
			<path d="M174.857,349.714H87.429C39.146,349.714,0,388.86,0,437.143v87.429C0,572.854,39.146,612,87.429,612h87.428
				c48.283,0,87.429-39.146,87.429-87.429v-87.429C262.286,388.86,223.14,349.714,174.857,349.714z M218.571,524.571
				c0,24.131-19.562,43.715-43.714,43.715H87.429c-24.152,0-43.714-19.562-43.714-43.715v-87.429
				c0-24.152,19.562-43.714,43.714-43.714h87.428c24.152,0,43.714,19.562,43.714,43.714V524.571z M524.571,0h-87.429
				c-48.282,0-87.429,39.146-87.429,87.429v87.429c0,48.282,39.146,87.428,87.429,87.428h87.429
				c48.282,0,87.429-39.146,87.429-87.428V87.429C612,39.146,572.854,0,524.571,0z M568.286,174.857
				c0,24.13-19.584,43.714-43.715,43.714h-87.429c-24.152,0-43.714-19.584-43.714-43.714V87.429
				c0-24.152,19.562-43.714,43.714-43.714h87.429c24.152,0,43.715,19.562,43.715,43.714V174.857z M524.571,349.714h-87.429
				c-48.282,0-87.429,39.146-87.429,87.429v87.429c0,48.282,39.146,87.429,87.429,87.429h87.429
				C572.854,612,612,572.854,612,524.571v-87.429C612,388.86,572.854,349.714,524.571,349.714z M568.286,524.571
				c0,24.131-19.584,43.715-43.715,43.715h-87.429c-24.152,0-43.714-19.562-43.714-43.715v-87.429
				c0-24.152,19.562-43.714,43.714-43.714h87.429c24.152,0,43.715,19.562,43.715,43.714V524.571z M174.857,0H87.429
				C39.146,0,0,39.146,0,87.429v87.429c0,48.282,39.146,87.428,87.429,87.428h87.428c48.283,0,87.429-39.146,87.429-87.428V87.429
				C262.286,39.146,223.14,0,174.857,0z M218.571,174.857c0,24.13-19.562,43.714-43.714,43.714H87.429
				c-24.152,0-43.714-19.584-43.714-43.714V87.429c0-24.152,19.562-43.714,43.714-43.714h87.428
				c24.152,0,43.714,19.562,43.714,43.714V174.857z"/>
		</g>
	</g>
</g>
<g>
</g>
<g>
</g>
<g>
</g>
<g>
</g>
<g>
</g>
<g>
</g>
<g>
</g>
<g>
</g>
<g>
</g>
<g>
</g>
<g>
</g>
<g>
</g>
<g>
</g>
<g>
</g>
<g>
</g>
</svg>
