<svg id="Layer_1" data-name="Layer 1" xmlns="http://www.w3.org/2000/svg" viewBox="0 0 500 500"><defs><style>.cls-1{fill:#fff;}</style></defs><path class="cls-1" d="M172.37,318.29a122,122,0,1,1,96.18-46.74A121.45,121.45,0,0,1,172.37,318.29Zm.28-194a73,73,0,0,0-8.84.54,71.67,71.67,0,1,0,8.84-.54Z"/><path class="cls-1" d="M391.74,250.86a25,25,0,0,1-19.67-40.42A70.91,70.91,0,0,0,260.41,123,25,25,0,0,1,221,92.18a120.91,120.91,0,0,1,190.4,149.09A25,25,0,0,1,391.74,250.86Z"/><path class="cls-1" d="M212.42,457.2a44.14,44.14,0,0,1-18-4l-4.28-1.91L96.8,357a25,25,0,0,1,35.55-35.16L212.6,403c4.8-7.21,10.93-19.56,15.38-28.52,12.82-25.85,28.78-58,55.11-81.42,32.62-29,73.49-37.72,121.47-25.89a25,25,0,1,1-12,48.55c-41.92-10.34-63.61,3.44-76.28,14.7-19.08,17-32.07,43.16-43.54,66.28-8.29,16.71-15.45,31.14-24.55,42-6.73,8-13.93,13.28-22,16.18A40.69,40.69,0,0,1,212.42,457.2Z"/></svg>