<svg width="40" height="40" viewBox="0 0 40 40" fill="none" xmlns="http://www.w3.org/2000/svg">
<g clip-path="url(#clip0)">
<path d="M12.118 20.0003C11.2582 19.7039 10.4494 19.2212 9.76609 18.5379L5.86558 14.6374C5.62839 14.4002 5.42154 14.1451 5.23124 13.881L5.23055 13.8803C2.27742 14.352 0 16.9197 0 20.0003C0 23.4134 2.79248 26.2059 6.20551 26.2059H11.7215C15.1345 26.2059 17.927 23.4134 17.927 20.0003C17.927 19.7004 17.8981 19.4081 17.8567 19.1192C17.3403 19.5032 16.779 19.7969 16.1902 20.0003C14.8732 19.546 13.4349 19.546 12.118 20.0003Z" fill="#BF4D90"/>
<path d="M26.1238 5.22641C25.6481 2.27742 23.0824 0.00413513 20.0045 0.00413513C16.9266 0.00413513 14.3609 2.27742 13.8852 5.22641C14.1493 5.41672 14.4044 5.62357 14.6416 5.86075L18.5421 9.76126C19.2254 10.4446 19.7087 11.2533 20.0045 12.1131C20.4582 13.4301 20.4582 14.8684 20.0045 16.1853C19.8004 16.7769 19.5053 17.3416 19.1185 17.8601C19.4088 17.9022 19.7032 17.9318 20.0045 17.9318C20.3058 17.9318 20.6002 17.9029 20.8905 17.8601C21.5311 17.767 22.1392 17.5767 22.7018 17.3023C23.954 16.6921 24.971 15.6751 25.5812 14.423C25.9797 13.6052 26.21 12.6923 26.21 11.7256V6.20964C26.21 5.87454 26.1755 5.54772 26.1238 5.22641Z" fill="#ED8A19"/>
<path d="M25.3674 34.1392L21.4669 30.2387C20.7836 29.5554 20.3003 28.7467 20.0045 27.8869C19.5508 26.5699 19.5508 25.1316 20.0045 23.8147C20.2085 23.2231 20.5037 22.6584 20.8905 22.1399C20.6002 22.0978 20.3058 22.0682 20.0045 22.0682C19.7031 22.0682 19.4087 22.0971 19.1184 22.1399C18.4779 22.233 17.8698 22.4233 17.3071 22.6977C16.055 23.3079 15.038 24.3249 14.4278 25.577C14.0292 26.3948 13.799 27.3077 13.799 28.2744V33.7904C13.799 34.1255 13.8334 34.4523 13.8851 34.7736C14.3609 37.7226 16.9265 39.9959 20.0045 39.9959C23.0824 39.9959 25.648 37.7226 26.1238 34.7736C25.8597 34.5826 25.6046 34.3757 25.3674 34.1392Z" fill="#7FABDA"/>
<path d="M34.7777 13.881C34.5874 14.1451 34.3806 14.4002 34.1434 14.6374L30.2429 18.5379C29.5596 19.2212 28.7508 19.7039 27.891 20.0003C26.5741 20.454 25.1358 20.454 23.8188 20.0003C23.2272 19.7963 22.6625 19.5011 22.144 19.1143C22.102 19.4046 22.073 19.699 22.073 20.0003C22.073 20.3017 22.102 20.5961 22.144 20.8864C22.2371 21.5269 22.4274 22.135 22.7018 22.6977C23.312 23.9498 24.329 24.9668 25.5812 25.577C26.3989 25.9756 27.3118 26.2058 28.2785 26.2058H33.7945C34.1296 26.2058 34.4564 26.1714 34.7777 26.1197C37.7267 25.6439 40 23.0783 40 20.0003C40 16.9224 37.7267 14.3561 34.7777 13.881Z" fill="#A4E869"/>
<path d="M34.1434 5.86075C31.9673 3.68468 28.5453 3.47783 26.1238 5.22641C26.1755 5.54771 26.21 5.87454 26.21 6.20963V11.7256C26.21 12.6923 25.9797 13.6052 25.5812 14.423C24.971 15.6751 23.954 16.6921 22.7018 17.3023C22.1392 17.5767 21.531 17.767 20.8905 17.8601C21.0663 18.0952 21.2539 18.3242 21.4669 18.5372C21.68 18.7503 21.9089 18.9378 22.144 19.1136C22.6625 19.5005 23.2272 19.7962 23.8188 19.9996C25.1358 20.4533 26.5741 20.4533 27.891 19.9996C28.7508 19.7032 29.5596 19.2205 30.2429 18.5372L34.1434 14.6367C34.3806 14.3995 34.5874 14.1444 34.7777 13.8803C36.527 11.4588 36.3195 8.0375 34.1434 5.86075Z" fill="#EFCE4A"/>
<path d="M34.7777 26.1197C34.4564 26.1714 34.1296 26.2059 33.7945 26.2059H28.2785C27.3118 26.2059 26.3989 25.9756 25.5811 25.577C24.329 24.9668 23.312 23.9498 22.7018 22.6977C22.4274 22.135 22.2371 21.5269 22.144 20.8864C21.9089 21.0622 21.6799 21.2497 21.4669 21.4628C21.2538 21.6758 21.0663 21.9047 20.8905 22.1399C20.5037 22.6584 20.2079 23.2231 20.0045 23.8147C19.5508 25.1316 19.5508 26.5699 20.0045 27.8869C20.3009 28.7467 20.7836 29.5554 21.4669 30.2387L25.3674 34.1392C25.6046 34.3764 25.8597 34.5833 26.1238 34.7736C28.5453 36.5222 31.9673 36.3153 34.1433 34.1392C36.3194 31.9632 36.5269 28.5412 34.7777 26.1197Z" fill="#61B872"/>
<path d="M20.0045 12.1138C19.708 11.254 19.2253 10.4452 18.542 9.76194L14.6415 5.86075C14.4043 5.62356 14.1492 5.41671 13.8851 5.22641C11.4636 3.47783 8.04163 3.68468 5.86556 5.86075C3.6895 8.03681 3.48265 11.4574 5.23053 13.8789C5.54908 13.8286 5.87315 13.7948 6.20549 13.7948H11.7215C14.8346 13.7948 17.4244 16.1205 17.8567 19.1192C17.8594 19.1171 17.8622 19.1157 17.8649 19.1136C18.1001 18.9378 18.329 18.7503 18.542 18.5372C18.7551 18.3242 18.9426 18.0952 19.1185 17.8601C19.5053 17.3416 19.8011 16.7769 20.0045 16.1853C20.4582 14.8684 20.4582 13.4301 20.0045 12.1138Z" fill="#ED7161"/>
<path d="M11.7215 13.7948H6.20548C5.87314 13.7948 5.54908 13.8286 5.23053 13.8796C5.23053 13.8796 5.23122 13.8803 5.23122 13.881C5.42152 14.1451 5.62837 14.4002 5.86556 14.6374L9.76606 18.5379C10.4494 19.2212 11.2581 19.7038 12.118 20.0003C13.4349 19.5466 14.8732 19.5466 16.1901 20.0003C16.779 19.7976 17.3402 19.5032 17.8567 19.1192C17.4243 16.1205 14.8346 13.7948 11.7215 13.7948Z" fill="#BF4D90"/>
<path d="M18.542 21.4628C18.329 21.2497 18.1001 21.0622 17.8649 20.8863C17.3464 20.4995 16.7817 20.2037 16.1902 20.0003C14.8732 19.5466 13.4349 19.5466 12.118 20.0003C11.2582 20.2968 10.4494 20.7795 9.76607 21.4628L5.86557 25.3633C5.62838 25.6005 5.42153 25.8556 5.23123 26.1197C3.48265 28.5412 3.6895 31.9632 5.86557 34.1392C8.04163 36.3153 11.4636 36.5222 13.8851 34.7736C13.8334 34.4523 13.799 34.1254 13.799 33.7904V28.2743C13.799 27.3077 14.0293 26.3948 14.4278 25.577C15.038 24.3249 16.055 23.3079 17.3071 22.6977C17.8698 22.4232 18.4779 22.2329 19.1185 22.1399C18.9426 21.9047 18.7551 21.6758 18.542 21.4628Z" fill="#9777A8"/>
</g>
<defs>
<clipPath id="clip0">
<rect width="40" height="40" fill="white"/>
</clipPath>
</defs>
</svg>
