<?xml version="1.0" encoding="iso-8859-1"?>
<!-- Generator: Adobe Illustrator 16.0.0, SVG Export Plug-In . SVG Version: 6.00 Build 0)  -->
<!DOCTYPE svg PUBLIC "-//W3C//DTD SVG 1.1//EN" "http://www.w3.org/Graphics/SVG/1.1/DTD/svg11.dtd">
<svg version="1.1" id="Capa_1" xmlns="http://www.w3.org/2000/svg" xmlns:xlink="http://www.w3.org/1999/xlink" x="0px" y="0px"
	 width="612px" height="612px" viewBox="0 0 612 612" style="enable-background:new 0 0 612 612;" xml:space="preserve">
<g>
	<g id="_x38__7_">
		<g>
			<path d="M87.429,284.143h393.429C553.292,284.143,612,225.435,612,153S553.292,21.857,480.857,21.857v43.714
				c61.681,11.606,87.429,39.146,87.429,87.429s-50.556,87.429-112.937,87.429H87.429c-12.065,0-21.857,9.792-21.857,21.857
				C65.571,274.351,75.363,284.143,87.429,284.143z M196.714,196.714H459c12.065,0,21.857-9.792,21.857-21.857
				c0-12.065-9.792-21.857-21.857-21.857H196.714c-12.065,0-21.857,9.792-21.857,21.857
				C174.857,186.922,184.649,196.714,196.714,196.714z M306.044,415.286c-0.022,0-0.022,0-0.044,0H131.143
				c-12.065,0-21.857,9.792-21.857,21.856c0,12.065,9.792,21.857,21.857,21.857H306c24.152,0,43.714,19.562,43.714,43.714
				c0,24.152-19.562,43.715-43.714,43.715v43.714c48.282,0,87.429-39.146,87.429-87.429
				C393.429,454.454,354.305,415.308,306.044,415.286z M480.857,327.857h-459C9.792,327.857,0,337.649,0,349.714
				c0,12.065,9.792,21.857,21.857,21.857H455.35c62.381,0,112.937,39.146,112.937,87.429s-37.354,87.429-131.144,87.429
				c0,0,0,18.819,0,43.714h43.715C553.292,590.143,612,531.435,612,459S553.292,327.857,480.857,327.857z"/>
		</g>
	</g>
</g>
<g>
</g>
<g>
</g>
<g>
</g>
<g>
</g>
<g>
</g>
<g>
</g>
<g>
</g>
<g>
</g>
<g>
</g>
<g>
</g>
<g>
</g>
<g>
</g>
<g>
</g>
<g>
</g>
<g>
</g>
</svg>
