<?xml version="1.0" encoding="iso-8859-1"?>
<!-- Generator: Adobe Illustrator 16.0.0, SVG Export Plug-In . SVG Version: 6.00 Build 0)  -->
<!DOCTYPE svg PUBLIC "-//W3C//DTD SVG 1.1//EN" "http://www.w3.org/Graphics/SVG/1.1/DTD/svg11.dtd">
<svg version="1.1" id="Capa_1" xmlns="http://www.w3.org/2000/svg" xmlns:xlink="http://www.w3.org/1999/xlink" x="0px" y="0px"
	 width="612px" height="612px" viewBox="0 0 612 612" style="enable-background:new 0 0 612 612;" xml:space="preserve">
<g>
	<g id="_x37__35_">
		<g>
			<path d="M535.5,0c0,0-110.715,30.485-211.331,57.375c-12.604,0.497-25.322,0-37.944,0C190.389,31.671,76.5,0,76.5,0
				C34.253,0,0,34.253,0,76.5v401.625c0,42.247,36.051,63.342,76.5,76.5c0,0,103.141,28.688,209.744,57.375h38.728
				C432.454,583.312,535.5,554.625,535.5,554.625c39.264-10.155,76.5-34.253,76.5-76.5V76.5C612,34.253,577.747,0,535.5,0z
				 M286.875,573.712C182.414,545.637,76.5,516.375,76.5,516.375c-21.726-5.967-38.25-17.117-38.25-38.25V76.5
				c0-21.114,17.117-38.25,38.25-38.25l210.375,57.375V573.712z M573.75,478.125c0,21.133-17.729,31.671-38.25,38.25
				c0,0-104.098,28.975-210.375,56.916V95.625L535.5,38.25c21.133,0,38.25,17.117,38.25,38.25V478.125z"/>
		</g>
	</g>
</g>
<g>
</g>
<g>
</g>
<g>
</g>
<g>
</g>
<g>
</g>
<g>
</g>
<g>
</g>
<g>
</g>
<g>
</g>
<g>
</g>
<g>
</g>
<g>
</g>
<g>
</g>
<g>
</g>
<g>
</g>
</svg>
