<svg width="40" height="40" viewBox="0 0 40 40" fill="none" xmlns="http://www.w3.org/2000/svg">
<g clip-path="url(#clip0)">
<path d="M40 13.7931H9.65515V35.8621H40V13.7931Z" fill="#EBBA16"/>
<path d="M4.82759 8.96551V26.2069H0V4.13792H30.3448V8.96551H4.82759Z" fill="#DC691D"/>
<path d="M9.65516 13.7931V31.0345H4.82758V8.96552H35.1724V13.7931H9.65516Z" fill="#ED8A19"/>
<path d="M22.7587 11.0345C23.1396 11.0345 23.4483 10.7257 23.4483 10.3448C23.4483 9.96394 23.1396 9.65517 22.7587 9.65517C22.3778 9.65517 22.069 9.96394 22.069 10.3448C22.069 10.7257 22.3778 11.0345 22.7587 11.0345Z" fill="#EFCE4A"/>
<path d="M24.8276 13.1034C25.2085 13.1034 25.5173 12.7947 25.5173 12.4138C25.5173 12.0329 25.2085 11.7241 24.8276 11.7241C24.4467 11.7241 24.1379 12.0329 24.1379 12.4138C24.1379 12.7947 24.4467 13.1034 24.8276 13.1034Z" fill="#EFCE4A"/>
<path d="M26.8966 11.0345C27.2775 11.0345 27.5862 10.7257 27.5862 10.3448C27.5862 9.96394 27.2775 9.65517 26.8966 9.65517C26.5157 9.65517 26.2069 9.96394 26.2069 10.3448C26.2069 10.7257 26.5157 11.0345 26.8966 11.0345Z" fill="#EFCE4A"/>
<path d="M31.0345 11.0345C31.4154 11.0345 31.7242 10.7257 31.7242 10.3448C31.7242 9.96394 31.4154 9.65517 31.0345 9.65517C30.6536 9.65517 30.3448 9.96394 30.3448 10.3448C30.3448 10.7257 30.6536 11.0345 31.0345 11.0345Z" fill="#EFCE4A"/>
<path d="M28.9655 13.1034C29.3464 13.1034 29.6552 12.7947 29.6552 12.4138C29.6552 12.0329 29.3464 11.7241 28.9655 11.7241C28.5846 11.7241 28.2759 12.0329 28.2759 12.4138C28.2759 12.7947 28.5846 13.1034 28.9655 13.1034Z" fill="#EFCE4A"/>
<path d="M33.1035 13.1034C33.4844 13.1034 33.7931 12.7947 33.7931 12.4138C33.7931 12.0329 33.4844 11.7241 33.1035 11.7241C32.7226 11.7241 32.4138 12.0329 32.4138 12.4138C32.4138 12.7947 32.7226 13.1034 33.1035 13.1034Z" fill="#EFCE4A"/>
<path d="M18.6207 11.0345C19.0016 11.0345 19.3104 10.7257 19.3104 10.3448C19.3104 9.96394 19.0016 9.65517 18.6207 9.65517C18.2399 9.65517 17.9311 9.96394 17.9311 10.3448C17.9311 10.7257 18.2399 11.0345 18.6207 11.0345Z" fill="#EFCE4A"/>
<path d="M20.6897 13.1034C21.0705 13.1034 21.3793 12.7947 21.3793 12.4138C21.3793 12.0329 21.0705 11.7241 20.6897 11.7241C20.3088 11.7241 20 12.0329 20 12.4138C20 12.7947 20.3088 13.1034 20.6897 13.1034Z" fill="#EFCE4A"/>
<path d="M6.20693 11.0345C6.58781 11.0345 6.89658 10.7257 6.89658 10.3448C6.89658 9.96394 6.58781 9.65517 6.20693 9.65517C5.82604 9.65517 5.51727 9.96394 5.51727 10.3448C5.51727 10.7257 5.82604 11.0345 6.20693 11.0345Z" fill="#EFCE4A"/>
<path d="M6.20693 15.1724C6.58781 15.1724 6.89658 14.8636 6.89658 14.4827C6.89658 14.1019 6.58781 13.7931 6.20693 13.7931C5.82604 13.7931 5.51727 14.1019 5.51727 14.4827C5.51727 14.8636 5.82604 15.1724 6.20693 15.1724Z" fill="#EFCE4A"/>
<path d="M8.2759 13.1034C8.65678 13.1034 8.96555 12.7947 8.96555 12.4138C8.96555 12.0329 8.65678 11.7241 8.2759 11.7241C7.89501 11.7241 7.58624 12.0329 7.58624 12.4138C7.58624 12.7947 7.89501 13.1034 8.2759 13.1034Z" fill="#EFCE4A"/>
<path d="M8.2759 17.2414C8.65678 17.2414 8.96555 16.9326 8.96555 16.5517C8.96555 16.1708 8.65678 15.8621 8.2759 15.8621C7.89501 15.8621 7.58624 16.1708 7.58624 16.5517C7.58624 16.9326 7.89501 17.2414 8.2759 17.2414Z" fill="#EFCE4A"/>
<path d="M10.3449 11.0345C10.7258 11.0345 11.0345 10.7257 11.0345 10.3448C11.0345 9.96394 10.7258 9.65517 10.3449 9.65517C9.96398 9.65517 9.65521 9.96394 9.65521 10.3448C9.65521 10.7257 9.96398 11.0345 10.3449 11.0345Z" fill="#EFCE4A"/>
<path d="M14.4828 11.0345C14.8637 11.0345 15.1725 10.7257 15.1725 10.3448C15.1725 9.96394 14.8637 9.65517 14.4828 9.65517C14.1019 9.65517 13.7932 9.96394 13.7932 10.3448C13.7932 10.7257 14.1019 11.0345 14.4828 11.0345Z" fill="#EFCE4A"/>
<path d="M12.4138 13.1034C12.7947 13.1034 13.1035 12.7947 13.1035 12.4138C13.1035 12.0329 12.7947 11.7241 12.4138 11.7241C12.033 11.7241 11.7242 12.0329 11.7242 12.4138C11.7242 12.7947 12.033 13.1034 12.4138 13.1034Z" fill="#EFCE4A"/>
<path d="M16.5518 13.1034C16.9327 13.1034 17.2414 12.7947 17.2414 12.4138C17.2414 12.0329 16.9327 11.7241 16.5518 11.7241C16.1709 11.7241 15.8621 12.0329 15.8621 12.4138C15.8621 12.7947 16.1709 13.1034 16.5518 13.1034Z" fill="#EFCE4A"/>
<path d="M6.20693 19.3103C6.58781 19.3103 6.89658 19.0016 6.89658 18.6207C6.89658 18.2398 6.58781 17.931 6.20693 17.931C5.82604 17.931 5.51727 18.2398 5.51727 18.6207C5.51727 19.0016 5.82604 19.3103 6.20693 19.3103Z" fill="#EFCE4A"/>
<path d="M6.20693 23.4483C6.58781 23.4483 6.89658 23.1395 6.89658 22.7586C6.89658 22.3777 6.58781 22.069 6.20693 22.069C5.82604 22.069 5.51727 22.3777 5.51727 22.7586C5.51727 23.1395 5.82604 23.4483 6.20693 23.4483Z" fill="#EFCE4A"/>
<path d="M8.2759 21.3793C8.65678 21.3793 8.96555 21.0705 8.96555 20.6897C8.96555 20.3088 8.65678 20 8.2759 20C7.89501 20 7.58624 20.3088 7.58624 20.6897C7.58624 21.0705 7.89501 21.3793 8.2759 21.3793Z" fill="#EFCE4A"/>
<path d="M8.2759 25.5172C8.65678 25.5172 8.96555 25.2085 8.96555 24.8276C8.96555 24.4467 8.65678 24.1379 8.2759 24.1379C7.89501 24.1379 7.58624 24.4467 7.58624 24.8276C7.58624 25.2085 7.89501 25.5172 8.2759 25.5172Z" fill="#EFCE4A"/>
<path d="M6.20693 27.5862C6.58781 27.5862 6.89658 27.2774 6.89658 26.8966C6.89658 26.5157 6.58781 26.2069 6.20693 26.2069C5.82604 26.2069 5.51727 26.5157 5.51727 26.8966C5.51727 27.2774 5.82604 27.5862 6.20693 27.5862Z" fill="#EFCE4A"/>
<path d="M8.2759 29.6552C8.65678 29.6552 8.96555 29.3464 8.96555 28.9655C8.96555 28.5846 8.65678 28.2758 8.2759 28.2758C7.89501 28.2758 7.58624 28.5846 7.58624 28.9655C7.58624 29.3464 7.89501 29.6552 8.2759 29.6552Z" fill="#EFCE4A"/>
</g>
<defs>
<clipPath id="clip0">
<rect width="40" height="40" fill="white"/>
</clipPath>
</defs>
</svg>
