<svg width="80" height="80" viewBox="0 0 80 80" fill="none" xmlns="http://www.w3.org/2000/svg">
<g clip-path="url(#clip0)">
<path d="M22.001 72.496L34.7757 78.8467C34.831 78.8752 34.8872 78.8996 34.9458 78.9249C36.6143 79.6419 38.4081 80 40.1994 80C41.9916 80 43.7838 79.6419 45.4539 78.9249C45.51 78.8996 45.567 78.8752 45.6232 78.8467L58.3979 72.496C63.4701 70.2887 67.104 65.7302 68.1393 60.2079L75.0899 17.5449C75.435 15.7047 74.9849 13.7896 73.8544 12.2961C72.7247 10.801 71.0058 9.84635 69.1746 9.68113L59.7815 8.73295C57.4082 8.51564 55.1497 7.82058 53.1777 6.72754L43.442 0.836634C41.4129 -0.289783 38.9916 -0.288155 36.8576 0.898489L27.3352 6.66568C24.9635 7.98418 23.7866 8.54087 21.6746 8.73295L11.265 9.67787C9.39956 9.84797 7.68145 10.801 6.54934 12.2961C5.42943 13.7782 4.9761 15.6713 5.30572 17.5001L12.2783 60.2877C13.2956 65.7318 16.9288 70.2887 22.001 72.496V72.496ZM11.8616 16.3184L22.2728 15.3734C25.7318 15.0585 27.8935 13.9801 30.6753 12.4296L40.1978 6.66568L49.8277 12.4915C52.7227 14.1013 55.8684 15.0699 59.1402 15.3702L68.5194 16.3965L61.5688 59.0579C60.9519 62.3452 58.7495 65.0921 55.6779 66.4073C55.6193 66.4334 55.5632 66.4586 55.5062 66.4871L42.7436 72.8313C41.1183 73.5011 39.2732 73.5011 37.6479 72.8313L24.8846 66.4871C24.8284 66.4586 24.7714 66.4334 24.7128 66.4073C21.6412 65.0921 19.4388 62.3428 18.8374 59.1377L11.877 16.3965C11.8721 16.3705 11.8665 16.3452 11.8616 16.3184V16.3184Z" fill="#B3EBCA"/>
<path d="M22.001 72.496L34.7757 78.8467C34.831 78.8752 34.8872 78.8996 34.9458 78.9249C36.6143 79.6419 38.4081 80 40.1994 80C41.9916 80 43.7838 79.6419 45.4539 78.9249C45.51 78.8996 45.567 78.8752 45.6232 78.8467L58.3979 72.496C63.4701 70.2887 67.104 65.7302 68.1393 60.2079L75.0899 17.5449C75.435 15.7047 74.9849 13.7896 73.8544 12.2961C72.7247 10.801 71.0058 9.84635 69.1746 9.68113L59.7815 8.73295C57.4082 8.51564 55.1497 7.82058 53.1777 6.72754L43.442 0.836634C41.4129 -0.289783 38.9916 -0.288155 36.8576 0.898489L27.3352 6.66568C24.9635 7.98418 23.7866 8.54087 21.6746 8.73295L11.265 9.67787C9.39956 9.84797 7.68145 10.801 6.54934 12.2961C5.42943 13.7782 4.9761 15.6713 5.30572 17.5001L12.2783 60.2877C13.2956 65.7318 16.9288 70.2887 22.001 72.496V72.496ZM11.8616 16.3184L22.2728 15.3734C25.7318 15.0585 27.8935 13.9801 30.6753 12.4296L40.1978 6.66568L49.8277 12.4915C52.7227 14.1013 55.8684 15.0699 59.1402 15.3702L68.5194 16.3965L61.5688 59.0579C60.9519 62.3452 58.7495 65.0921 55.6779 66.4073C55.6193 66.4334 55.5632 66.4586 55.5062 66.4871L42.7436 72.8313C41.1183 73.5011 39.2732 73.5011 37.6479 72.8313L24.8846 66.4871C24.8284 66.4586 24.7714 66.4334 24.7128 66.4073C21.6412 65.0921 19.4388 62.3428 18.8374 59.1377L11.877 16.3965C11.8721 16.3705 11.8665 16.3452 11.8616 16.3184V16.3184Z" fill="url(#paint0_linear)"/>
<path d="M26.7402 47.3649C27.1715 47.3649 27.6118 47.2786 28.0351 47.102C29.732 46.3833 30.5256 44.4284 29.8085 42.733C28.2133 38.9542 29.0516 34.6438 31.949 31.748C33.8674 29.8297 36.4075 28.8132 39.0046 28.8115L37.3329 31.63C36.3929 33.2122 36.9146 35.2591 38.4976 36.1975C40.0798 37.1392 42.1267 36.6159 43.0651 35.0321L47.0955 28.2394C47.587 27.4117 47.6969 26.4114 47.3958 25.4958C47.0938 24.581 46.4134 23.8428 45.5255 23.466C39.2325 20.807 32.054 22.2061 27.2318 27.0332C22.4079 31.8571 21.0096 39.0356 23.6645 45.3261C24.2049 46.5998 25.4396 47.3649 26.7402 47.3649Z" fill="#66CD91"/>
<path d="M26.7402 47.3649C27.1715 47.3649 27.6118 47.2786 28.0351 47.102C29.732 46.3833 30.5256 44.4284 29.8085 42.733C28.2133 38.9542 29.0516 34.6438 31.949 31.748C33.8674 29.8297 36.4075 28.8132 39.0046 28.8115L37.3329 31.63C36.3929 33.2122 36.9146 35.2591 38.4976 36.1975C40.0798 37.1392 42.1267 36.6159 43.0651 35.0321L47.0955 28.2394C47.587 27.4117 47.6969 26.4114 47.3958 25.4958C47.0938 24.581 46.4134 23.8428 45.5255 23.466C39.2325 20.807 32.054 22.2061 27.2318 27.0332C22.4079 31.8571 21.0096 39.0356 23.6645 45.3261C24.2049 46.5998 25.4396 47.3649 26.7402 47.3649Z" fill="url(#paint1_linear)"/>
<path d="M43.0651 48.3684C44.0051 46.787 43.4834 44.7401 41.8996 43.8017C40.3182 42.8633 38.2729 43.3825 37.3329 44.9663L33.3025 51.759C32.8109 52.5876 32.7002 53.587 33.0022 54.5026C33.3041 55.4174 33.9837 56.1556 34.8725 56.5325C36.9894 57.4261 39.2048 57.8607 41.3982 57.8607C45.7265 57.8607 49.966 56.1678 53.1662 52.9652C57.9901 48.1421 59.3883 40.9628 56.7326 34.6723C56.018 32.9754 54.059 32.1851 52.3645 32.8989C50.6676 33.6167 49.874 35.5725 50.5911 37.267C52.1855 41.0458 51.3472 45.3562 48.4505 48.252C46.5322 50.1703 43.9921 51.1869 41.395 51.1885L43.0651 48.3684Z" fill="#45BC76"/>
<path d="M43.0651 48.3684C44.0051 46.787 43.4834 44.7401 41.8996 43.8017C40.3182 42.8633 38.2729 43.3825 37.3329 44.9663L33.3025 51.759C32.8109 52.5876 32.7002 53.587 33.0022 54.5026C33.3041 55.4174 33.9837 56.1556 34.8725 56.5325C36.9894 57.4261 39.2048 57.8607 41.3982 57.8607C45.7265 57.8607 49.966 56.1678 53.1662 52.9652C57.9901 48.1421 59.3883 40.9628 56.7326 34.6723C56.018 32.9754 54.059 32.1851 52.3645 32.8989C50.6676 33.6167 49.874 35.5725 50.5911 37.267C52.1855 41.0458 51.3472 45.3562 48.4505 48.252C46.5322 50.1703 43.9921 51.1869 41.395 51.1885L43.0651 48.3684Z" fill="url(#paint2_linear)"/>
</g>
<defs>
<linearGradient id="paint0_linear" x1="62" y1="1.5" x2="15" y2="75" gradientUnits="userSpaceOnUse">
<stop stop-color="#62CA8D"/>
<stop offset="1" stop-color="#B4F4CE"/>
</linearGradient>
<linearGradient id="paint1_linear" x1="34.95" y1="22.1362" x2="34.95" y2="47.3649" gradientUnits="userSpaceOnUse">
<stop stop-color="#2FB164"/>
<stop offset="1" stop-color="#6CD999"/>
</linearGradient>
<linearGradient id="paint2_linear" x1="58" y1="31" x2="35.5" y2="59" gradientUnits="userSpaceOnUse">
<stop stop-color="#7DE6A8"/>
<stop offset="1" stop-color="#45BC76"/>
</linearGradient>
<clipPath id="clip0">
<rect width="80" height="80" fill="white"/>
</clipPath>
</defs>
</svg>
