<svg width="153" height="34" viewBox="0 0 153 34" fill="none" xmlns="http://www.w3.org/2000/svg">
<path d="M10.2712 22.5176C8.0642 22.5147 5.92335 21.7639 4.19798 20.3877C2.47262 19.0115 1.26461 17.0912 0.771088 14.9401C0.277567 12.789 0.527673 10.5342 1.48059 8.5435C2.43351 6.55284 4.03298 4.94392 6.01798 3.97928C8.00299 3.01464 10.2563 2.75124 12.4103 3.23206C14.5643 3.71289 16.4917 4.90955 17.878 6.62677C19.2644 8.34398 20.0278 10.4804 20.0437 12.6873C20.0596 14.8942 19.327 17.0414 17.9656 18.7784C17.0536 19.9477 15.886 20.8926 14.5522 21.5408C13.2185 22.1889 11.7541 22.5231 10.2712 22.5176ZM10.2928 6.99761C10.0564 6.99745 9.82024 7.01161 9.58558 7.04001C8.10134 7.22122 6.74594 7.97314 5.80653 9.13646C4.86712 10.2998 4.41749 11.7831 4.55291 13.2723C4.68832 14.7614 5.39814 16.1393 6.53198 17.1141C7.66582 18.0889 9.13462 18.584 10.6272 18.4945C12.1198 18.405 13.5189 17.738 14.5282 16.6347C15.5374 15.5314 16.0775 14.0785 16.034 12.5839C15.9906 11.0893 15.3669 9.67027 14.2952 8.62752C13.2236 7.58477 11.788 7.00018 10.2928 6.99761Z" fill="white"/>
<path d="M27.8198 17.12C27.4449 17.1197 27.0777 17.0141 26.7599 16.8151C26.4422 16.6162 26.1867 16.3319 26.0227 15.9948C25.8588 15.6577 25.7928 15.2812 25.8325 14.9084C25.8722 14.5356 26.0158 14.1815 26.247 13.8864C27.1542 12.7 27.5571 11.2038 27.3682 9.72236C27.1793 8.24088 26.4139 6.89364 25.238 5.9729C24.0621 5.05216 22.5706 4.6322 21.0871 4.80411C19.6035 4.97602 18.2476 5.72595 17.3134 6.89119C17.1536 7.10363 16.953 7.28205 16.7233 7.41604C16.4937 7.55002 16.2396 7.63687 15.976 7.67152C15.7124 7.70616 15.4446 7.6879 15.1881 7.6178C14.9316 7.5477 14.6917 7.42717 14.4824 7.26326C14.2731 7.09935 14.0985 6.89534 13.969 6.66318C13.8394 6.43101 13.7574 6.17534 13.7278 5.91113C13.6983 5.64691 13.7216 5.37944 13.7966 5.12437C13.8716 4.8693 13.9968 4.63174 14.1646 4.42559C15.7467 2.40581 18.0663 1.09723 20.6132 0.787716C23.1601 0.478206 25.7257 1.19312 27.7454 2.77519C29.7652 4.35726 31.0738 6.67689 31.3833 9.22379C31.6928 11.7707 30.9779 14.3362 29.3958 16.356C29.2083 16.5946 28.969 16.7873 28.6959 16.9197C28.4229 17.052 28.1233 17.1205 27.8198 17.12Z" fill="white"/>
<path d="M13.4743 33.6304C12.9771 33.6262 12.4864 33.5172 12.0343 33.3104L11.6919 33.1576L4.2287 25.6104C3.88306 25.2285 3.69807 24.728 3.71228 24.2132C3.72648 23.6983 3.93877 23.2087 4.30493 22.8465C4.67109 22.4843 5.16289 22.2773 5.67789 22.2686C6.19288 22.2599 6.69136 22.4503 7.0695 22.8L13.4887 29.2912C13.8735 28.7144 14.3631 27.7264 14.7191 27.0096C15.7455 24.9416 17.0215 22.3696 19.1279 20.496C21.7375 18.176 25.0071 17.4784 28.8463 18.4248C29.3614 18.5521 29.8047 18.8788 30.0789 19.333C30.3531 19.7872 30.4356 20.3318 30.3083 20.8468C30.181 21.3619 29.8543 21.8052 29.4001 22.0794C28.9459 22.3536 28.4014 22.4361 27.8863 22.3088C24.5319 21.4816 22.7967 22.584 21.7839 23.4848C20.2575 24.8448 19.2175 26.9376 18.2999 28.7872C17.6367 30.124 17.0639 31.2784 16.3359 32.1472C15.7983 32.7872 15.2215 33.2096 14.5759 33.4416C14.2223 33.5676 13.8496 33.6315 13.4743 33.6304Z" fill="white"/>
<path d="M53.7617 22.0684C53.332 22.6087 52.7363 23.0156 51.9746 23.2891C51.2194 23.556 50.3503 23.6895 49.3672 23.6895C47.8177 23.6895 46.5742 23.2044 45.6367 22.2344C44.6992 21.2643 44.224 19.959 44.2109 18.3184V17.4395C44.2109 15.7337 44.6439 14.4023 45.5098 13.4453C46.3822 12.4818 47.6061 12 49.1816 12C50.4837 12 51.5286 12.306 52.3164 12.918C53.1042 13.5299 53.5859 14.4251 53.7617 15.6035H51.9648C51.7174 14.1908 50.7962 13.4844 49.2012 13.4844C48.166 13.4844 47.3783 13.8197 46.8379 14.4902C46.2975 15.1608 46.0273 16.1439 46.0273 17.4395V18.2598C46.0273 19.4967 46.3268 20.4668 46.9258 21.1699C47.5312 21.8665 48.3548 22.2148 49.3965 22.2148C50.5814 22.2148 51.4375 21.974 51.9648 21.4922V19.168H49.2207V17.7617H53.7617V22.0684Z" fill="white"/>
<path d="M60.8027 19.1484H58.0781V23.5332H56.2715V12.1562H60.4316C61.8184 12.1562 62.8861 12.459 63.6348 13.0645C64.39 13.6699 64.7676 14.526 64.7676 15.6328C64.7676 17.1172 64.0026 18.1491 62.4727 18.7285L65.2852 23.4355V23.5332H63.3516L60.8027 19.1484ZM58.0781 17.6738H60.4805C61.2422 17.6738 61.8444 17.498 62.2871 17.1465C62.7363 16.7884 62.9609 16.3066 62.9609 15.7012C62.9609 15.0501 62.7428 14.5456 62.3066 14.1875C61.8704 13.8294 61.2422 13.6504 60.4219 13.6504H58.0781V17.6738Z" fill="white"/>
<path d="M73.9961 18.3965H68.8008V22.0586H74.8457V23.5332H66.9941V12.1562H74.7871V13.6504H68.8008V16.9121H73.9961V18.3965Z" fill="white"/>
<path d="M83.7422 18.3965H78.5469V22.0586H84.5918V23.5332H76.7402V12.1562H84.5332V13.6504H78.5469V16.9121H83.7422V18.3965Z" fill="white"/>
<path d="M95.998 23.5332H94.2012L88.293 14.9785V23.5332H86.4863V12.1562H88.293L94.2012 20.7207V12.1562H95.998V23.5332Z" fill="white"/>
<path d="M107.834 19.8516C107.704 21.069 107.229 22.013 106.408 22.6836C105.588 23.3542 104.497 23.6895 103.137 23.6895C101.678 23.6895 100.507 23.2109 99.6211 22.2539C98.7422 21.2904 98.3027 19.9655 98.3027 18.2793V17.3613C98.3027 16.2936 98.5013 15.3561 98.8984 14.5488C99.3021 13.735 99.8783 13.1068 100.627 12.6641C101.382 12.2214 102.255 12 103.244 12C104.572 12 105.637 12.3451 106.438 13.0352C107.245 13.7188 107.71 14.6693 107.834 15.8867H106.027C105.91 15.0404 105.62 14.4284 105.158 14.0508C104.702 13.6732 104.064 13.4844 103.244 13.4844C102.248 13.4844 101.477 13.8164 100.93 14.4805C100.389 15.138 100.116 16.082 100.109 17.3125V18.3477C100.109 19.5781 100.367 20.5319 100.881 21.209C101.402 21.8796 102.154 22.2148 103.137 22.2148C104.016 22.2148 104.683 22.0358 105.139 21.6777C105.601 21.3132 105.897 20.7044 106.027 19.8516H107.834Z" fill="white"/>
<path d="M119.436 23.5332H117.629V18.6699H111.73V23.5332H109.924V12.1562H111.73V17.1855H117.629V12.1562H119.436V23.5332Z" fill="white"/>
<path d="M129.152 18.3965H123.957V22.0586H130.002V23.5332H122.15V12.1562H129.943V13.6504H123.957V16.9121H129.152V18.3965Z" fill="white"/>
<path d="M138.732 20.8086H133.654L132.58 23.5332H130.734L135.412 12.1562H137.033L141.643 23.5332H139.807L138.732 20.8086ZM134.24 19.334H138.156L136.213 14.3633L134.24 19.334Z" fill="white"/>
<path d="M145.012 19.2559V23.5332H143.205V12.1562H147.766C149.094 12.1562 150.152 12.4818 150.939 13.1328C151.727 13.7773 152.121 14.6465 152.121 15.7402C152.121 16.847 151.74 17.7096 150.979 18.3281C150.217 18.9466 149.139 19.2559 147.746 19.2559H145.012ZM145.012 17.7715H147.766C148.573 17.7715 149.198 17.599 149.641 17.2539C150.083 16.9089 150.305 16.4108 150.305 15.7598C150.305 15.1348 150.083 14.6302 149.641 14.2461C149.198 13.8555 148.589 13.6569 147.814 13.6504H145.012V17.7715Z" fill="white"/>
</svg>
