<svg id="Layer_1" data-name="Layer 1" xmlns="http://www.w3.org/2000/svg" viewBox="0 0 2750 586"><defs><style>.cls-1{fill:#fff;}</style></defs><path class="cls-1" d="M267.76,354A122,122,0,1,1,343.22,136h0a122,122,0,0,1-60.48,217.16A123.91,123.91,0,0,1,267.76,354Zm.32-194a72,72,0,1,0,44.32,15.28A71.91,71.91,0,0,0,268.08,160Z"/><path class="cls-1" d="M487.24,286.53a25,25,0,0,1-19.67-40.42,70.91,70.91,0,0,0-111.66-87.44,25,25,0,1,1-39.36-30.83,120.91,120.91,0,1,1,190.39,149.1A25,25,0,0,1,487.24,286.53Z"/><path class="cls-1" d="M307.92,492.87a44,44,0,0,1-18-4L285.6,487l-93.29-94.33a25,25,0,1,1,35.55-35.16l80.24,81.14c4.81-7.21,10.93-19.56,15.38-28.53,12.82-25.84,28.78-58,55.11-81.42,32.62-29,73.49-37.71,121.48-25.88a25,25,0,0,1-12,48.54C446.17,341,424.48,354.77,411.81,366c-19.07,17-32.07,43.16-43.54,66.28C360,449,352.82,463.46,343.72,474.27c-6.72,8-13.93,13.29-22,16.19A40.65,40.65,0,0,1,307.92,492.87Z"/><path class="cls-1" d="M788.8,388.32l-1.91-16.52c-10.16,14.62-32.72,23.83-59.72,23.83-58.14,0-96.26-49.56-96.26-113.1,0-62.27,34-112.14,105.15-112.14,52.74,0,89.91,29.86,93.09,72.11H780.22c-2.22-17.79-19.38-31.45-44.16-31.45-32.4,0-55,24.78-55,73.71,0,38.44,19.38,69.57,55,69.57,24.47,0,47.34-18.11,47.34-41.3H740.51V273.64h89V388.32Z"/><path class="cls-1" d="M979.41,388.32V332.73c0-20-6.67-26.37-26.36-26.37H907.3v82H859.65V177.38H968c40.34,0,64.81,24.78,64.81,59.4,0,26.69-12.39,43.85-32.41,50.52,18.43,5.72,27.32,15.88,27.32,41v60ZM907.3,218v51.47h52.1c20,0,28.27-9.85,28.27-26,0-15.57-8.26-25.42-27.64-25.42Z"/><path class="cls-1" d="M1060.42,388.32V177.38h156.94v41H1108.08v39.07h100.07v41.3H1108.08v48h114.36v41.62Z"/><path class="cls-1" d="M1246.27,388.32V177.38h156.94v41H1293.92v39.07H1394v41.3H1293.92v48h114.37v41.62Z"/><path class="cls-1" d="M1560.78,388.32l-83.23-133.43V388.32h-45.43V177.38h51.78l75.93,126.75V177.38h46.06V388.32Z"/><path class="cls-1" d="M1815.89,315.89c-8.58,48-40,79.74-86.42,79.74-52.41,0-92.76-37.81-92.76-110.24,0-71.48,36.22-115,93.4-115,50.19,0,81.65,33.67,85.78,76.24h-23.83c-5.08-33-29.23-55.59-61.63-55.59-44.48,0-69.58,35.26-69.58,93.08,0,58.45,27,90.86,68,90.86,33.36,0,55.91-22.56,63.22-59.09Z"/><path class="cls-1" d="M1983,388.32V285.07H1868.31V388.32h-23.83V177.38h23.83v87.68H1983V177.38h23.83V388.32Z"/><path class="cls-1" d="M2042.08,388.32V177.38h147.41v20H2065.27V267.6h115.64v20H2065.27V368h129v20.33Z"/><path class="cls-1" d="M2381.38,388.32,2362,336.86H2261.61l-20,51.46H2216.5l82.59-210.94h26.37l81.65,210.94Zm-69.26-183.94-43.84,112.78H2355Z"/><path class="cls-1" d="M2436.65,388.32V177.38h89.27c38.76,0,63.54,29.86,63.54,67.35,0,37.8-24.78,64.81-63.54,64.81h-65.44v78.78Zm85.78-98.16c29.86,0,46.06-19.38,46.06-46.07,0-26.37-16.2-46.7-46.06-46.7h-61.95v92.77Z"/></svg>