<svg width="32" height="34" viewBox="0 0 32 34" fill="none" xmlns="http://www.w3.org/2000/svg">
<path d="M10.2712 22.5176C8.0642 22.5147 5.92335 21.7639 4.19798 20.3877C2.47262 19.0115 1.26461 17.0912 0.771088 14.9401C0.277567 12.789 0.527673 10.5342 1.48059 8.5435C2.43351 6.55284 4.03298 4.94392 6.01798 3.97928C8.00299 3.01464 10.2563 2.75124 12.4103 3.23206C14.5643 3.71289 16.4917 4.90955 17.878 6.62677C19.2644 8.34398 20.0278 10.4804 20.0437 12.6873C20.0596 14.8942 19.327 17.0414 17.9656 18.7784C17.0536 19.9477 15.886 20.8926 14.5522 21.5408C13.2185 22.1889 11.7541 22.5231 10.2712 22.5176ZM10.2928 6.99761C10.0564 6.99745 9.82024 7.01161 9.58558 7.04001C8.10134 7.22122 6.74594 7.97314 5.80653 9.13646C4.86712 10.2998 4.41749 11.7831 4.55291 13.2723C4.68832 14.7614 5.39814 16.1393 6.53198 17.1141C7.66582 18.0889 9.13462 18.584 10.6272 18.4945C12.1198 18.405 13.5189 17.738 14.5282 16.6347C15.5374 15.5314 16.0775 14.0785 16.034 12.5839C15.9906 11.0893 15.3669 9.67027 14.2952 8.62752C13.2236 7.58477 11.788 7.00018 10.2928 6.99761Z" fill="#3BB873"/>
<path d="M27.8198 17.12C27.4449 17.1197 27.0777 17.0141 26.7599 16.8151C26.4422 16.6162 26.1867 16.3319 26.0227 15.9948C25.8588 15.6577 25.7928 15.2812 25.8325 14.9084C25.8722 14.5356 26.0158 14.1815 26.247 13.8864C27.1542 12.7 27.5571 11.2038 27.3682 9.72236C27.1793 8.24088 26.4139 6.89364 25.238 5.9729C24.0621 5.05216 22.5706 4.6322 21.0871 4.80411C19.6035 4.97602 18.2476 5.72595 17.3134 6.89119C17.1536 7.10363 16.953 7.28205 16.7233 7.41604C16.4937 7.55002 16.2396 7.63687 15.976 7.67152C15.7124 7.70616 15.4446 7.6879 15.1881 7.6178C14.9316 7.5477 14.6917 7.42717 14.4824 7.26326C14.2731 7.09935 14.0985 6.89534 13.969 6.66318C13.8394 6.43101 13.7574 6.17534 13.7278 5.91113C13.6983 5.64691 13.7216 5.37944 13.7966 5.12437C13.8716 4.8693 13.9968 4.63174 14.1646 4.42559C15.7467 2.40581 18.0663 1.09723 20.6132 0.787716C23.1601 0.478206 25.7257 1.19312 27.7454 2.77519C29.7652 4.35726 31.0738 6.67689 31.3833 9.22379C31.6928 11.7707 30.9779 14.3362 29.3958 16.356C29.2083 16.5946 28.969 16.7873 28.6959 16.9197C28.4229 17.052 28.1233 17.1205 27.8198 17.12Z" fill="#3BB873"/>
<path d="M13.4743 33.6304C12.9771 33.6262 12.4864 33.5172 12.0343 33.3104L11.6919 33.1576L4.2287 25.6104C3.88306 25.2285 3.69807 24.728 3.71228 24.2132C3.72648 23.6983 3.93877 23.2087 4.30493 22.8465C4.67109 22.4843 5.16289 22.2773 5.67789 22.2686C6.19288 22.2599 6.69136 22.4503 7.0695 22.8L13.4887 29.2912C13.8735 28.7144 14.3631 27.7264 14.7191 27.0096C15.7455 24.9416 17.0215 22.3696 19.1279 20.496C21.7375 18.176 25.0071 17.4784 28.8463 18.4248C29.3614 18.5521 29.8047 18.8788 30.0789 19.333C30.3531 19.7872 30.4356 20.3318 30.3083 20.8468C30.181 21.3619 29.8543 21.8052 29.4001 22.0794C28.9459 22.3536 28.4014 22.4361 27.8863 22.3088C24.5319 21.4816 22.7967 22.584 21.7839 23.4848C20.2575 24.8448 19.2175 26.9376 18.2999 28.7872C17.6367 30.124 17.0639 31.2784 16.3359 32.1472C15.7983 32.7872 15.2215 33.2096 14.5759 33.4416C14.2223 33.5676 13.8496 33.6315 13.4743 33.6304Z" fill="#3BB873"/>
</svg>
