<svg id="Layer_1" data-name="Layer 1" xmlns="http://www.w3.org/2000/svg" viewBox="0 0 500 500"><defs><style>.cls-1{fill:#2add61;}</style></defs><path class="cls-1" d="M178.39,306.47a122,122,0,1,1,96.18-46.74A121.41,121.41,0,0,1,178.39,306.47Zm.27-194a73.18,73.18,0,0,0-8.84.53,71.92,71.92,0,1,0,8.84-.53Z"/><path class="cls-1" d="M397.75,239a25,25,0,0,1-19.66-40.42,70.92,70.92,0,0,0-111.67-87.44,25,25,0,1,1-39.36-30.82A120.91,120.91,0,0,1,417.45,229.45,25,25,0,0,1,397.75,239Z"/><path class="cls-1" d="M218.43,445.38a44.18,44.18,0,0,1-18-4l-4.28-1.91-93.29-94.34A25,25,0,0,1,138.37,310l80.24,81.14c4.81-7.21,10.93-19.56,15.38-28.52,12.83-25.85,28.78-58,55.11-81.42,32.62-29,73.49-37.72,121.48-25.89a25,25,0,0,1-12,48.55c-41.93-10.34-63.62,3.44-76.28,14.7-19.08,17-32.08,43.16-43.55,66.28-8.29,16.71-15.45,31.14-24.55,42-6.72,8-13.93,13.28-22,16.18A40.65,40.65,0,0,1,218.43,445.38Z"/></svg>