<?xml version="1.0" encoding="iso-8859-1"?>
<!-- Generator: Adobe Illustrator 16.0.0, SVG Export Plug-In . SVG Version: 6.00 Build 0)  -->
<!DOCTYPE svg PUBLIC "-//W3C//DTD SVG 1.1//EN" "http://www.w3.org/Graphics/SVG/1.1/DTD/svg11.dtd">
<svg version="1.1" id="Capa_1" xmlns="http://www.w3.org/2000/svg" xmlns:xlink="http://www.w3.org/1999/xlink" x="0px" y="0px"
	 width="612px" height="612px" viewBox="0 0 612 612" style="enable-background:new 0 0 612 612;" xml:space="preserve">
<g>
	<g id="_x36__19_">
		<g>
			<path d="M21.857,65.571h568.286c12.065,0,21.857-9.792,21.857-21.857s-9.792-21.857-21.857-21.857H21.857
				C9.792,21.857,0,31.649,0,43.714S9.792,65.571,21.857,65.571z M109.286,196.714c-12.065,0-21.857,9.792-21.857,21.857
				c0,12.065,9.792,21.857,21.857,21.857h393.428c12.065,0,21.857-9.792,21.857-21.857c0-12.065-9.792-21.857-21.857-21.857H109.286
				z M459,546.429H153c-12.065,0-21.857,9.792-21.857,21.857c0,12.064,9.792,21.856,21.857,21.856h306
				c12.065,0,21.857-9.792,21.857-21.856C480.857,556.221,471.065,546.429,459,546.429z M590.143,371.571H21.857
				C9.792,371.571,0,381.363,0,393.429s9.792,21.857,21.857,21.857h568.286c12.065,0,21.857-9.792,21.857-21.857
				S602.208,371.571,590.143,371.571z"/>
		</g>
	</g>
</g>
<g>
</g>
<g>
</g>
<g>
</g>
<g>
</g>
<g>
</g>
<g>
</g>
<g>
</g>
<g>
</g>
<g>
</g>
<g>
</g>
<g>
</g>
<g>
</g>
<g>
</g>
<g>
</g>
<g>
</g>
</svg>
