<?xml version="1.0" encoding="iso-8859-1"?>
<!-- Generator: Adobe Illustrator 16.0.0, SVG Export Plug-In . SVG Version: 6.00 Build 0)  -->
<!DOCTYPE svg PUBLIC "-//W3C//DTD SVG 1.1//EN" "http://www.w3.org/Graphics/SVG/1.1/DTD/svg11.dtd">
<svg version="1.1" id="Capa_1" xmlns="http://www.w3.org/2000/svg" xmlns:xlink="http://www.w3.org/1999/xlink" x="0px" y="0px"
	 width="634.444px" height="634.444px" viewBox="0 0 634.444 634.444"
	 xml:space="preserve">
<g>
	<g id="_x39__26_">
		<g>
			<path d="M615.35,39.776c4.712-4.169,7.884-10.128,7.884-17.061c0-9.766-6.026-17.898-14.364-21.094
				c-3.263-1.382-6.752-1.79-10.24-1.563H35.362c-6.298-0.407-12.688,1.586-17.49,6.412c-8.882,8.904-8.882,23.359,0,32.263
				l288.146,346.488v203.909h-90.627c-12.506,0-22.656,10.15-22.656,22.656c0,12.507,10.15,22.657,22.656,22.657h226.566
				c12.507,0,22.657-10.15,22.657-22.657c0-12.506-10.15-22.656-22.657-22.656h-90.626V385.222L615.35,39.776z M328.675,339.908
				L81.537,45.372h473.319L328.675,339.908z"/>
		</g>
	</g>
</g>
<g>
</g>
<g>
</g>
<g>
</g>
<g>
</g>
<g>
</g>
<g>
</g>
<g>
</g>
<g>
</g>
<g>
</g>
<g>
</g>
<g>
</g>
<g>
</g>
<g>
</g>
<g>
</g>
<g>
</g>
</svg>
