<?xml version="1.0" encoding="iso-8859-1"?>
<!-- Generator: Adobe Illustrator 16.0.0, SVG Export Plug-In . SVG Version: 6.00 Build 0)  -->
<!DOCTYPE svg PUBLIC "-//W3C//DTD SVG 1.1//EN" "http://www.w3.org/Graphics/SVG/1.1/DTD/svg11.dtd">
<svg version="1.1" id="Capa_1" xmlns="http://www.w3.org/2000/svg" xmlns:xlink="http://www.w3.org/1999/xlink" x="0px" y="0px"
	 width="612px" height="612px" viewBox="0 0 612 612" style="enable-background:new 0 0 612 612;" xml:space="preserve">
<g>
	<g id="_x36__24_">
		<g>
			<path d="M401.625,573.75h-191.25c-10.557,0-19.125,8.568-19.125,19.125S199.818,612,210.375,612h95.548c0.019,0,0.058,0,0.077,0
				c0.02,0,0.058,0,0.076,0h95.549c10.557,0,19.125-8.568,19.125-19.125S412.182,573.75,401.625,573.75z M49.496,382.5
				C42.266,358.25,38.25,332.603,38.25,306C38.25,158.125,158.125,38.25,306,38.25c147.875,0,267.75,119.875,267.75,267.75
				c0,26.603-4.017,52.25-11.227,76.5h39.455C608.29,358.001,612,332.469,612,306C612,137.012,475.008,0,306,0S0,137.012,0,306
				c0,26.469,3.71,52.001,10.021,76.5H49.496z M535.5,497.25h-459c-10.557,0-19.125,8.568-19.125,19.125S65.943,535.5,76.5,535.5
				h459c10.557,0,19.125-8.568,19.125-19.125S546.057,497.25,535.5,497.25z M592.875,420.75H19.125
				C8.568,420.75,0,429.318,0,439.875S8.568,459,19.125,459h573.75c10.557,0,19.125-8.568,19.125-19.125
				S603.432,420.75,592.875,420.75z"/>
		</g>
	</g>
</g>
<g>
</g>
<g>
</g>
<g>
</g>
<g>
</g>
<g>
</g>
<g>
</g>
<g>
</g>
<g>
</g>
<g>
</g>
<g>
</g>
<g>
</g>
<g>
</g>
<g>
</g>
<g>
</g>
<g>
</g>
</svg>
