<svg width="47" height="47" viewBox="0 0 47 47" fill="none" xmlns="http://www.w3.org/2000/svg">
<path d="M16.7686 28.8082C14.1754 28.8048 11.6599 27.9226 9.63263 26.3056C7.60532 24.6886 6.18592 22.4322 5.60603 19.9046C5.02614 17.3771 5.32002 14.7276 6.43969 12.3886C7.55937 10.0496 9.43875 8.15909 11.7711 7.02564C14.1035 5.89219 16.7512 5.58269 19.2821 6.14766C21.813 6.71263 24.0777 8.11871 25.7067 10.1364C27.3356 12.1542 28.2326 14.6644 28.2513 17.2576C28.27 19.8507 27.4093 22.3736 25.8096 24.4146C24.738 25.7885 23.366 26.8988 21.7989 27.6604C20.2317 28.422 18.511 28.8146 16.7686 28.8082V28.8082ZM16.794 10.5722C16.5163 10.572 16.2388 10.5886 15.9631 10.622C14.2191 10.8349 12.6265 11.7184 11.5227 13.0853C10.4189 14.4522 9.89055 16.1952 10.0497 17.9449C10.2088 19.6946 11.0428 21.3137 12.3751 22.459C13.7073 23.6044 15.4332 24.1862 17.187 24.081C18.9408 23.9759 20.5847 23.1921 21.7706 21.8957C22.9565 20.5994 23.5911 18.8923 23.54 17.1361C23.4889 15.3799 22.7561 13.7126 21.4969 12.4873C20.2377 11.2621 18.551 10.5752 16.794 10.5722V10.5722Z" fill="#3BB873"/>
<path d="M37.3885 22.466C36.948 22.4657 36.5164 22.3416 36.1431 22.1078C35.7697 21.874 35.4696 21.54 35.2769 21.1439C35.0842 20.7478 35.0068 20.3054 35.0534 19.8674C35.1 19.4294 35.2688 19.0133 35.5405 18.6665C36.6064 17.2726 37.0798 15.5145 36.8578 13.7738C36.6358 12.033 35.7365 10.45 34.3548 9.36817C32.9732 8.2863 31.2206 7.79284 29.4775 7.99484C27.7343 8.19683 26.1411 9.078 25.0435 10.4472C24.8556 10.6968 24.6199 10.9064 24.3501 11.0639C24.0802 11.2213 23.7817 11.3233 23.472 11.364C23.1623 11.4047 22.8475 11.3833 22.5462 11.3009C22.2448 11.2186 21.963 11.0769 21.717 10.8843C21.471 10.6917 21.2659 10.452 21.1137 10.1792C20.9615 9.90645 20.8652 9.60604 20.8304 9.29558C20.7956 8.98513 20.8231 8.67085 20.9112 8.37115C20.9994 8.07144 21.1464 7.79231 21.3436 7.55008C23.2026 5.17684 25.9281 3.63925 28.9207 3.27558C31.9133 2.9119 34.9278 3.75193 37.3011 5.61086C39.6743 7.46979 41.2119 10.1954 41.5756 13.188C41.9393 16.1806 41.0992 19.1951 39.2403 21.5683C39.02 21.8486 38.7387 22.0751 38.4179 22.2306C38.0971 22.3862 37.745 22.4666 37.3885 22.466Z" fill="#3BB873"/>
<path d="M20.5324 41.8657C19.9483 41.8608 19.3717 41.7327 18.8404 41.4897L18.4381 41.3102L9.66885 32.4422C9.26272 31.9935 9.04537 31.4054 9.06205 30.8005C9.07874 30.1955 9.32818 29.6203 9.75842 29.1946C10.1887 28.769 10.7665 28.5258 11.3716 28.5156C11.9768 28.5054 12.5625 28.7291 13.0068 29.14L20.5493 36.7672C21.0015 36.0894 21.5768 34.9285 21.9951 34.0863C23.2011 31.6564 24.7004 28.6343 27.1754 26.4328C30.2417 23.7068 34.0835 22.8871 38.5945 23.9991C39.1997 24.1487 39.7207 24.5326 40.0428 25.0663C40.365 25.6 40.462 26.2398 40.3124 26.845C40.1628 27.4502 39.7789 27.9712 39.2452 28.2933C38.7115 28.6155 38.0717 28.7124 37.4665 28.5628C33.5251 27.5909 31.4862 28.8862 30.2962 29.9446C28.5027 31.5426 27.2807 34.0017 26.2025 36.175C25.4232 37.7457 24.7502 39.1021 23.8948 40.123C23.2631 40.875 22.5854 41.3713 21.8268 41.6439C21.4114 41.792 20.9735 41.867 20.5324 41.8657V41.8657Z" fill="#3BB873"/>
</svg>
