<svg width="406" height="333" viewBox="0 0 406 333" fill="none" xmlns="http://www.w3.org/2000/svg">
<path d="M170.456 179.585C179.933 149.205 196.621 110.046 240.738 62.2489C214.64 160.183 183.29 195.242 162.834 208.578C162.834 208.578 168.752 185.042 170.456 179.585Z" fill="#71C639"/>
<path d="M238.906 64.2486C234.181 73.0284 228.846 81.4642 224.895 90.8046C218.558 105.796 211.246 120.455 204.846 135.697C198.838 149.994 190.524 163.225 183.115 176.52C179.743 182.571 176.389 187.755 172.427 193.332C169.219 197.847 167.447 203.595 164.015 207.789C163.619 208.058 163.223 208.324 162.834 208.578C162.834 208.578 168.752 185.042 170.456 179.585C179.799 149.631 196.158 111.137 238.906 64.2486Z" fill="#A2E576"/>
<path d="M161.443 173.937C164.707 142.283 173.294 100.594 207.052 45C200.902 146.163 177.133 186.742 159.727 203.868C159.727 203.868 160.856 179.626 161.443 173.937Z" fill="#71C639"/>
<path d="M205.653 47.321C202.763 56.8632 199.208 66.1886 197.19 76.1307C193.952 92.0755 189.694 107.897 186.442 124.103C183.395 139.308 177.87 153.926 173.245 168.424C171.141 175.025 168.879 180.77 166.105 187.019C163.855 192.084 163.26 198.071 160.726 202.863C160.389 203.203 160.056 203.539 159.727 203.868C159.727 203.868 160.856 179.626 161.443 173.937C164.662 142.728 173.055 101.756 205.653 47.321Z" fill="#A2E576"/>
<path d="M153.021 180.699C149.989 151.497 149.959 111.889 170.501 53.1144C184.132 145.3 169.941 187.969 157.144 207.946C157.144 207.946 153.563 185.947 153.021 180.699Z" fill="#71C639"/>
<path d="M169.653 55.5625C168.808 64.8767 167.305 74.1759 167.342 83.6098C167.399 98.7472 166.486 114.045 166.58 129.418C166.666 143.842 164.359 158.4 162.856 172.611C162.176 179.08 161.185 184.829 159.817 191.164C158.707 196.296 159.301 201.813 157.877 206.776C157.634 207.173 157.387 207.565 157.144 207.946C157.144 207.946 153.563 185.947 153.021 180.699C150.03 151.904 149.959 112.991 169.653 55.5625Z" fill="#A2E576"/>
<path d="M137.122 218.229C113.731 225.323 81.532 231.621 31.3406 224.175C104.706 198.464 141.058 203.282 158.793 210.551C158.793 210.551 141.327 216.954 137.122 218.229Z" fill="#71C639"/>
<path d="M33.434 224.478C41.1052 223.693 48.8398 223.443 56.5072 221.921C68.8102 219.481 81.3525 217.802 93.8425 215.291C105.562 212.936 117.667 212.514 129.398 211.49C134.737 211.022 139.525 210.918 144.838 211.03C149.141 211.123 153.556 209.763 157.757 210.14C158.109 210.279 158.456 210.413 158.793 210.551C158.793 210.551 141.327 216.954 137.122 218.229C114.06 225.225 82.4292 231.445 33.434 224.478Z" fill="#A2E576"/>
<path d="M129.26 208.858C103.319 209.15 68.541 205.984 19 183.304C101.3 178.826 137.338 194.663 153.593 207.449C153.593 207.449 133.922 208.806 129.26 208.858Z" fill="#71C639"/>
<path d="M21.0673 184.242C29.1609 185.73 37.1723 187.789 45.4565 188.522C58.7539 189.692 72.0925 191.721 85.5992 192.88C98.2686 193.968 110.818 197.156 123.147 199.611C128.755 200.729 133.705 202.056 139.129 203.764C143.522 205.147 148.426 205.072 152.643 206.717C152.965 206.963 153.283 207.206 153.593 207.449C153.593 207.449 133.921 208.806 129.26 208.858C103.682 209.146 69.513 206.074 21.0673 184.242Z" fill="#A2E576"/>
<path d="M132.299 198.206C108.583 187.696 78.2646 170.368 42.6304 129.153C119.349 159.271 145.544 188.649 155.017 207.034C155.017 207.034 136.561 200.093 132.299 198.206Z" fill="#71C639"/>
<path d="M44.1219 130.865C50.8622 135.582 57.2922 140.784 64.5259 144.892C76.1335 151.482 87.4235 158.867 99.2255 165.531C110.302 171.784 120.388 179.903 130.583 187.255C135.218 190.603 139.166 193.866 143.391 197.671C146.815 200.755 151.305 202.725 154.456 205.973C154.647 206.332 154.837 206.687 155.017 207.034C155.017 207.034 136.561 200.093 132.299 198.206C108.915 187.841 79.113 170.846 44.1219 130.865Z" fill="#A2E576"/>
<path d="M137.839 189.748C117.936 170.899 93.8722 142.93 72.9597 89.2946C138.707 146.402 154.408 184.915 157.339 206.567C157.339 206.567 141.413 193.134 137.839 189.748Z" fill="#71C639"/>
<path d="M73.8383 91.5261C78.8851 98.6052 83.4497 106.062 89.1993 112.707C98.4293 123.371 107.057 134.715 116.456 145.524C125.275 155.664 132.452 167.31 140 178.239C143.432 183.21 146.213 187.853 149.073 193.138C151.391 197.417 155.167 200.964 157.155 205.315C157.223 205.737 157.283 206.156 157.339 206.567C157.339 206.567 141.413 193.134 137.839 189.748C118.216 171.16 94.5452 143.707 73.8383 91.5261Z" fill="#A2E576"/>
<path d="M145.144 181.062C132.908 155.619 119.988 119.674 119.364 59.0871C161.649 137.978 162.752 181.704 157.727 204.343C157.727 204.343 147.342 185.633 145.144 181.062Z" fill="#71C639"/>
<path d="M119.398 61.6138C121.671 70.3636 123.342 79.334 126.445 87.8857C131.42 101.607 135.581 115.813 140.669 129.74C145.439 142.803 148.097 156.83 151.372 170.26C152.864 176.371 153.843 181.936 154.673 188.167C155.342 193.22 157.675 198.016 158.004 203.024C157.914 203.473 157.821 203.914 157.727 204.343C157.727 204.343 147.342 185.633 145.144 181.062C133.08 155.974 120.351 120.672 119.398 61.6138Z" fill="#A2E576"/>
<path d="M140.011 223.589C125.813 234.958 105.308 248.212 68.5708 256.947C112.145 218.894 138.594 212.17 152.86 212.29C152.86 212.29 142.561 221.544 140.011 223.589Z" fill="#71C639"/>
<path d="M70.0997 256.581C75.1839 253.916 80.4587 251.606 85.3336 248.432C93.158 243.346 101.36 238.715 109.296 233.527C116.74 228.657 124.986 225.02 132.807 221.065C136.366 219.268 139.648 217.87 143.349 216.479C146.347 215.354 149.024 213.194 152.03 212.289C152.31 212.289 152.587 212.286 152.86 212.289C152.86 212.289 142.561 221.544 140.011 223.588C126.011 234.798 105.876 247.842 70.0997 256.581Z" fill="#A2E576"/>
<path d="M168.954 217.825C166.026 223.259 159.249 225.292 153.813 222.37C148.374 219.443 146.34 212.667 149.267 207.232C152.194 201.798 158.972 199.761 164.408 202.688C169.843 205.614 171.877 212.39 168.954 217.825Z" fill="#71C639"/>
<path d="M181.62 185.595C201.766 160.957 225.269 125.464 240.876 62.3239C173.485 138.034 161.481 183.506 161.615 207.92C161.615 207.92 178.001 190.02 181.62 185.595Z" fill="#71C639"/>
<path d="M240.218 64.9514C235.489 73.7348 231.384 82.8323 225.758 91.2719C216.734 104.813 208.52 118.99 199.324 132.726C190.692 145.613 184.225 159.839 177.208 173.339C174.015 179.484 171.533 185.143 169.058 191.515C167.054 196.681 163.23 201.327 161.619 206.5C161.615 206.982 161.611 207.457 161.615 207.92C161.615 207.92 178 190.02 181.619 185.595C201.481 161.3 224.61 126.451 240.218 64.9514Z" fill="#A2E576"/>
<path d="M191.298 190.005C215.926 169.848 246.005 139.723 273.83 80.9374C192.756 141.779 171.971 183.962 167.256 207.92C167.256 207.92 186.872 193.627 191.298 190.005Z" fill="#71C639"/>
<path d="M272.66 83.3818C266.286 91.0477 260.458 99.1509 253.269 106.308C241.74 117.794 230.876 130.061 219.134 141.696C208.121 152.618 198.962 165.277 189.403 177.122C185.051 182.512 181.5 187.561 177.81 193.321C174.819 197.985 170.15 201.779 167.544 206.53C167.443 207.001 167.346 207.464 167.256 207.92C167.256 207.92 186.872 193.627 191.298 190.005C215.582 170.132 245.164 140.564 272.66 83.3818Z" fill="#A2E576"/>
<path d="M190.292 200.759C216.341 187.206 249.426 165.419 287.183 115.907C202.711 155.298 174.905 190.641 165.275 212.319C165.275 212.319 185.612 203.196 190.292 200.759Z" fill="#71C639"/>
<path d="M285.602 117.966C278.294 123.801 271.359 130.173 263.463 135.339C250.794 143.629 238.525 152.812 225.639 161.203C213.549 169.071 202.666 179.017 191.627 188.095C186.602 192.226 182.348 196.217 177.813 200.848C174.139 204.601 169.208 207.143 165.847 211.067C165.649 211.489 165.458 211.908 165.275 212.319C165.275 212.319 185.612 203.196 190.292 200.759C215.979 187.393 248.502 166.025 285.602 117.966Z" fill="#A2E576"/>
<path d="M167.712 234.693C174.673 258.121 187.148 288.463 221.003 326.243C202.068 250.862 178.027 223.177 162.191 212.379C162.191 212.379 166.464 230.484 167.712 234.693Z" fill="#71C639"/>
<path d="M219.601 324.665C216.031 317.829 211.978 311.24 209.025 304.004C204.289 292.391 198.782 280.999 194.001 269.191C189.515 258.117 183.2 247.782 177.597 237.425C175.047 232.716 172.498 228.66 169.477 224.291C167.028 220.752 165.731 216.319 163.103 213.018C162.796 212.798 162.49 212.585 162.191 212.379C162.191 212.379 166.464 230.484 167.712 234.693C174.576 257.795 186.804 287.614 219.601 324.665Z" fill="#A2E576"/>
<path d="M179.866 236.094C193.911 257.904 215.702 285.185 261.923 314.035C220.338 242.889 187.272 221.536 167.641 215.01C167.641 215.01 177.346 232.174 179.866 236.094Z" fill="#71C639"/>
<path d="M260.002 312.828C254.301 306.897 248.17 301.342 242.996 294.832C234.697 284.381 225.657 274.368 217.253 263.731C209.365 253.755 199.791 245.039 190.954 236.106C186.931 232.039 183.1 228.642 178.688 225.053C175.111 222.146 172.475 218.015 168.778 215.403C168.397 215.268 168.015 215.137 167.641 215.01C167.641 215.01 177.346 232.174 179.866 236.094C193.713 257.597 215.096 284.422 260.002 312.828Z" fill="#A2E576"/>
<path d="M187.088 227.692C208.924 241.694 240.084 257.451 294.118 264.493C226.723 217.059 187.769 211.374 167.204 213.594C167.204 213.594 183.163 225.173 187.088 227.692Z" fill="#71C639"/>
<path d="M291.867 264.194C284.219 261.167 276.334 258.662 268.921 254.887C257.026 248.832 244.644 243.48 232.577 237.298C221.261 231.501 208.928 227.55 197.174 223.095C191.825 221.069 186.928 219.571 181.425 218.139C176.965 216.98 172.849 214.319 168.4 213.478C167.996 213.516 167.596 213.553 167.204 213.594C167.204 213.594 183.163 225.173 187.088 227.692C208.618 241.499 239.216 257.014 291.867 264.194Z" fill="#A2E576"/>
<path d="M191.84 218.539C218.535 224.769 255.138 229.449 311.43 217.365C227.549 193.945 186.748 202.052 167.058 211.527C167.058 211.527 187.04 217.421 191.84 218.539Z" fill="#71C639"/>
<path d="M309.086 217.859C300.395 217.548 291.658 217.844 282.944 216.704C268.959 214.876 254.734 213.919 240.536 212.028C227.212 210.256 213.537 210.682 200.258 210.398C194.217 210.271 188.808 210.507 182.823 211.03C177.974 211.452 172.931 210.256 168.206 210.989C167.817 211.168 167.432 211.348 167.058 211.527C167.058 211.527 187.04 217.421 191.84 218.539C218.162 224.68 254.117 229.314 309.086 217.859Z" fill="#A2E576"/>
<path d="M194.33 207.531C222.308 203.73 259.434 194.719 310.354 161.872C221.205 170.028 184.094 193.19 167.959 209.849C167.959 209.849 189.302 208.215 194.33 207.531Z" fill="#71C639"/>
<path d="M308.227 163.233C299.67 166.16 291.262 169.703 282.414 171.822C268.219 175.227 254.066 179.581 239.639 183.001C226.106 186.212 212.928 191.721 199.915 196.382C193.993 198.505 188.808 200.751 183.148 203.491C178.561 205.715 173.272 206.41 168.909 208.892C168.584 209.213 168.27 209.535 167.959 209.849C167.959 209.849 189.302 208.215 194.33 207.531C221.915 203.783 258.398 194.965 308.227 163.233Z" fill="#A2E576"/>
<path d="M161.649 235.231C159.978 253.344 160.202 277.758 173.141 313.225C180.913 255.904 171.963 230.129 164.008 218.288C164.008 218.288 161.951 231.979 161.649 235.231Z" fill="#71C639"/>
<path d="M172.606 311.744C172.03 306.037 171.054 300.359 171.017 294.544C170.957 285.215 170.307 275.818 170.269 266.339C170.232 257.448 168.729 248.559 167.723 239.854C167.264 235.893 166.624 232.387 165.746 228.533C165.035 225.408 165.364 221.989 164.464 218.98C164.31 218.744 164.157 218.512 164.007 218.288C164.007 218.288 161.951 231.979 161.648 235.231C160 253.089 160.198 277.078 172.606 311.744Z" fill="#A2E576"/>
<path d="M150.09 205.117C146.699 211.422 149.634 220.12 155.069 223.046C160.505 225.969 167.66 223.233 171.055 216.931C174.446 210.63 172.647 203.398 167.354 200.224C159.69 195.627 153.484 198.815 150.09 205.117Z" fill="#71C639"/>
<path d="M145.417 231.239C141.667 239.843 118.026 289.472 108.377 302.995C103.596 309.693 100.227 315.602 105.405 318.913C107.558 320.293 110.934 320.498 112.736 316.79C113.73 314.742 114.295 310.339 115.248 307.839C120.101 295.101 126.003 280.831 133.23 268.455C138.243 259.877 143.514 251.77 148.546 243.207C152.677 236.173 161.081 224.571 167.503 221.357L148.445 213.269C148.243 219.854 148.845 223.364 145.417 231.239Z" fill="#71C639"/>
<path d="M162.355 222.56C162.15 222.643 161.944 222.732 161.739 222.83L162.075 223.073C162.243 222.833 162.863 222.848 162.355 222.56Z" fill="#71C639"/>
<path d="M20.5824 288.758C27.1476 263.38 32.5804 228.945 23.155 177.776C-1.01327 257.879 5.21535 295.021 13.3578 312.43C13.3578 312.43 19.4059 293.32 20.5824 288.758Z" fill="#A2E576"/>
<path d="M23.5977 178.337C23.0462 186.434 23.0525 194.523 21.7336 202.727C19.6196 215.888 18.3034 229.188 16.1243 242.555C14.0793 255.094 14.0554 267.759 13.3882 280.118C13.0879 285.744 13.1401 290.742 13.4379 296.259C13.6791 300.724 12.4221 305.52 12.9532 309.838C13.1067 310.184 13.2632 310.526 13.4166 310.853C13.4166 310.853 19.4646 291.742 20.6411 287.18C27.1101 262.157 32.4862 228.325 23.5977 178.337Z" fill="#43825C"/>
<path d="M42.8114 274.685C51.1185 248.882 58.7993 213.633 52.0839 160.053C22.2868 241.256 26.5277 280.109 33.9254 298.678C33.9254 298.678 41.3205 279.32 42.8114 274.685Z" fill="#A2E576"/>
<path d="M52.3541 162.288C51.2999 170.628 50.825 178.993 48.9726 187.39C45.9982 200.861 43.8431 214.53 40.7913 228.206C37.9321 241.039 37.1494 254.14 35.7233 266.88C35.0745 272.675 34.8337 277.855 34.8136 283.577C34.7987 288.212 33.2088 293.087 33.5053 297.596C33.6433 297.963 33.7813 298.324 33.9255 298.678C33.9255 298.678 41.3206 279.32 42.8115 274.685C51.0039 249.243 58.5849 214.616 52.3541 162.288Z" fill="#43825C"/>
<path d="M66.0576 260.288C75.3181 235.46 84.4265 201.372 80.5264 148.714C47.8505 226.684 50.0714 264.837 56.3168 283.324C56.3168 283.324 64.3945 264.75 66.0576 260.288Z" fill="#A2E576"/>
<path d="M80.6815 150.91C79.2613 159.011 78.3989 167.166 76.205 175.282C72.686 188.305 69.9494 201.563 66.3438 214.783C62.9615 227.19 61.5786 239.954 59.5862 252.335C58.6819 257.973 58.201 263.017 57.9039 268.609C57.6673 273.139 55.8989 277.829 55.9676 282.245C56.0841 282.609 56.1974 282.969 56.3169 283.324C56.3169 283.324 64.3946 264.75 66.0578 260.287C75.1882 235.805 84.1722 202.321 80.6815 150.91Z" fill="#43825C"/>
<path d="M87.6733 252.83C97.686 229.455 108.039 197.203 107.073 146.561C72.2324 219.792 72.3636 256.459 77.2971 274.457C77.2971 274.457 85.875 257.027 87.6733 252.83Z" fill="#A2E576"/>
<path d="M107.107 148.674C105.35 156.373 104.117 164.147 101.628 171.825C97.6387 184.147 94.3732 196.727 90.2913 209.234C86.4604 220.968 84.4962 233.137 81.9811 244.913C80.8339 250.27 80.1191 255.085 79.5575 260.431C79.0963 264.759 77.1867 269.172 77.0216 273.409C77.1134 273.766 77.2021 274.115 77.297 274.457C77.297 274.457 85.8748 257.027 87.6731 252.83C97.5496 229.781 107.747 198.102 107.107 148.674Z" fill="#43825C"/>
<path d="M110.684 242.703C121.473 221.033 133.099 190.926 135.131 142.63C98.0579 210.322 96.0477 245.254 99.6542 262.692C99.6542 262.692 108.744 246.597 110.684 242.703Z" fill="#A2E576"/>
<path d="M135.038 144.642C132.936 151.873 131.325 159.206 128.535 166.372C124.059 177.869 120.252 189.659 115.68 201.333C111.394 212.283 108.836 223.758 105.78 234.824C104.39 239.863 103.439 244.404 102.594 249.465C101.912 253.559 99.8579 257.648 99.4559 261.672C99.5199 262.02 99.5871 262.359 99.6543 262.692C99.6543 262.692 108.744 246.598 110.684 242.703C121.324 221.335 132.772 191.763 135.038 144.642Z" fill="#43825C"/>
<path d="M134.542 235.169C146.143 213.859 158.907 184.12 162.845 135.758C123.26 202.188 119.877 237.153 122.774 254.781C122.774 254.781 132.458 238.998 134.542 235.169Z" fill="#A2E576"/>
<path d="M162.674 137.773C160.295 144.942 158.399 152.232 155.338 159.311C150.429 170.668 146.171 182.342 141.158 193.87C136.454 204.684 133.455 216.093 129.978 227.075C128.391 232.07 127.264 236.589 126.226 241.629C125.38 245.713 123.172 249.734 122.616 253.758C122.664 254.103 122.719 254.448 122.774 254.781C122.774 254.781 132.458 238.998 134.542 235.168C145.983 214.16 158.55 184.949 162.674 137.773Z" fill="#43825C"/>
<path d="M157.133 230.682C169.481 210.744 183.439 182.719 190.049 136.148C148.287 198.104 142.992 231.738 144.726 248.969C144.726 248.969 154.918 234.268 157.133 230.682Z" fill="#A2E576"/>
<path d="M189.768 138.089C187.07 144.886 184.826 151.827 181.484 158.498C176.121 169.2 171.362 180.247 165.89 191.107C160.757 201.296 157.216 212.158 153.244 222.581C151.435 227.323 150.092 231.633 148.798 236.447C147.752 240.349 145.406 244.108 144.638 247.968C144.662 248.307 144.692 248.646 144.725 248.969C144.725 248.969 154.917 234.268 157.133 230.682C169.31 211.025 183.046 183.497 189.768 138.089Z" fill="#43825C"/>
<path d="M177.734 226.905C190.933 209.183 206.335 183.969 216.575 140.615C172.415 195.383 164.54 226.649 164.624 243.063C164.624 243.063 175.361 230.088 177.734 226.905Z" fill="#A2E576"/>
<path d="M216.144 142.422C213.045 148.598 210.352 154.948 206.666 160.946C200.754 170.571 195.37 180.574 189.343 190.338C183.684 199.495 179.446 209.433 174.844 218.915C172.753 223.232 171.124 227.174 169.504 231.606C168.188 235.193 165.684 238.537 164.627 242.107C164.623 242.43 164.622 242.751 164.624 243.063C164.624 243.063 175.361 230.088 177.734 226.905C190.747 209.429 205.906 184.673 216.144 142.422Z" fill="#43825C"/>
<path d="M203.13 220.823C215.741 203.895 230.456 179.809 240.238 138.394C198.053 190.714 190.531 220.582 190.607 236.26C190.607 236.26 200.866 223.866 203.13 220.823Z" fill="#A2E576"/>
<path d="M239.823 140.117C236.865 146.018 234.293 152.087 230.772 157.816C225.121 167.008 219.98 176.566 214.221 185.892C208.817 194.641 204.767 204.133 200.373 213.193C198.373 217.314 196.819 221.083 195.27 225.315C194.015 228.743 191.62 231.935 190.614 235.349C190.608 235.656 190.605 235.961 190.607 236.26C190.607 236.26 200.866 223.866 203.13 220.823C215.565 204.132 230.046 180.482 239.823 140.117Z" fill="#43825C"/>
<path d="M226.605 217.288C238.844 202.743 253.381 181.86 264.539 145.036C223.849 189.8 215.383 216.327 214.529 230.49C214.529 230.49 224.407 219.903 226.605 217.288Z" fill="#A2E576"/>
<path d="M264.069 146.568C261.082 151.722 258.432 157.05 254.955 162.016C249.377 169.985 244.23 178.313 238.549 186.398C233.216 193.981 229.046 202.313 224.596 210.236C222.57 213.841 220.963 217.153 219.332 220.882C218.01 223.903 215.689 226.646 214.589 229.668C214.568 229.947 214.546 230.221 214.529 230.49C214.529 230.49 224.407 219.903 226.605 217.288C238.672 202.945 252.973 182.439 264.069 146.568Z" fill="#43825C"/>
<path d="M247.689 213.823C258.659 200.924 271.709 182.39 281.836 149.632C245.38 189.311 237.705 212.908 236.872 225.525C236.872 225.525 245.72 216.143 247.689 213.823Z" fill="#A2E576"/>
<path d="M281.41 150.997C278.722 155.571 276.338 160.308 273.217 164.716C268.211 171.789 263.583 179.181 258.482 186.356C253.696 193.086 249.943 200.493 245.938 207.528C244.115 210.729 242.667 213.673 241.197 216.989C240.004 219.673 237.922 222.104 236.928 224.792C236.907 225.041 236.889 225.287 236.871 225.525C236.871 225.525 245.72 216.143 247.689 213.823C258.507 201.106 271.346 182.906 281.41 150.997Z" fill="#43825C"/>
<path d="M264.161 212.451C275.042 200.661 288.119 183.601 299.046 152.905C263.025 189.062 254.796 211.159 253.475 223.111C253.475 223.111 262.207 214.57 264.161 212.451Z" fill="#A2E576"/>
<path d="M298.586 154.182C295.862 158.417 293.415 162.816 290.289 166.873C285.272 173.379 280.602 180.21 275.491 186.809C270.697 193.001 266.846 199.877 262.776 206.393C260.924 209.358 259.437 212.095 257.912 215.184C256.674 217.684 254.611 219.906 253.56 222.417C253.529 222.651 253.503 222.886 253.475 223.111C253.475 223.111 262.207 214.57 264.161 212.451C274.89 200.825 287.754 184.076 298.586 154.182Z" fill="#43825C"/>
<path d="M284.811 208.305C294.831 197.158 306.833 181.065 316.64 152.279C283.431 186.502 276.032 207.228 274.959 218.398C274.959 218.398 283.013 210.312 284.811 208.305Z" fill="#A2E576"/>
<path d="M316.227 153.477C313.734 157.463 311.503 161.599 308.635 165.428C304.03 171.567 299.752 178.001 295.063 184.23C290.663 190.072 287.153 196.541 283.435 202.675C281.741 205.465 280.387 208.038 279 210.939C277.88 213.292 275.977 215.391 275.029 217.75C275.002 217.968 274.98 218.186 274.959 218.398C274.959 218.398 283.013 210.312 284.81 208.305C294.692 197.315 306.499 181.514 316.227 153.477Z" fill="#43825C"/>
<path d="M301.4 209.079C311.708 199.657 324.331 185.805 336.227 159.852C302.339 188.532 293.466 207.185 291.355 217.532C291.355 217.532 299.55 210.774 301.4 209.079Z" fill="#A2E576"/>
<path d="M335.726 160.93C333.041 164.411 330.579 168.058 327.564 171.351C322.725 176.634 318.153 182.223 313.228 187.58C308.606 192.604 304.737 198.304 300.709 203.671C298.876 206.112 297.375 208.383 295.81 210.958C294.544 213.044 292.59 214.819 291.483 216.931C291.439 217.134 291.393 217.333 291.355 217.532C291.355 217.532 299.55 210.774 301.4 209.079C311.564 199.788 323.98 186.191 335.726 160.93Z" fill="#43825C"/>
<path d="M317.156 207.257C326.927 199.563 339.063 188.073 351.43 165.686C319.473 188.918 310.296 204.982 307.685 214.098C307.685 214.098 315.4 208.638 317.156 207.257Z" fill="#A2E576"/>
<path d="M350.914 166.619C348.291 169.54 345.857 172.629 342.958 175.358C338.309 179.739 333.874 184.416 329.141 188.855C324.702 193.02 320.878 197.845 316.939 202.361C315.144 204.414 313.656 206.339 312.091 208.533C310.824 210.312 308.971 211.758 307.841 213.568C307.789 213.749 307.735 213.925 307.685 214.098C307.685 214.098 315.399 208.638 317.156 207.257C326.789 199.669 338.724 188.392 350.914 166.619Z" fill="#43825C"/>
<path d="M330.951 209.738C341.994 204.271 356.141 195.55 372.961 176.022C337.289 191.987 324.931 205.932 320.389 214.425C320.389 214.425 328.97 210.722 330.951 209.738Z" fill="#A2E576"/>
<path d="M372.258 176.834C369.105 179.158 366.09 181.688 362.716 183.758C357.3 187.076 352.024 190.74 346.516 194.1C341.347 197.251 336.619 201.199 331.847 204.81C329.678 206.455 327.824 208.037 325.841 209.873C324.232 211.358 322.141 212.384 320.659 213.935C320.567 214.1 320.477 214.264 320.389 214.425C320.389 214.425 328.97 210.722 330.951 209.738C341.838 204.346 355.745 195.791 372.258 176.834Z" fill="#43825C"/>
<path d="M44.058 318.01C66.4228 329.903 94.3639 348.997 123.776 392.283C50.7997 357.693 29.0253 326.789 22.4356 307.857C22.4356 307.857 40.0406 315.874 44.058 318.01Z" fill="#A2E576"/>
<path d="M122.543 390.485C116.47 385.378 110.795 379.8 104.123 375.271C93.419 368.005 83.1696 359.96 72.2748 352.608C62.0541 345.71 53.1402 337.005 43.9969 329.058C39.8406 325.442 36.3651 321.948 32.7026 317.896C29.7321 314.612 25.493 312.383 22.8278 308.949C22.6898 308.582 22.558 308.215 22.4354 307.857C22.4354 307.857 40.0404 315.874 44.0578 318.01C66.1086 329.736 93.5882 348.465 122.543 390.485Z" fill="#43825C"/>
<path d="M71.9867 301.057C92.8858 314.028 118.748 334.364 144.608 378.39C76.1687 340.177 56.9561 308.701 51.7037 289.827C51.7037 289.827 68.2347 298.724 71.9867 301.057Z" fill="#A2E576"/>
<path d="M143.524 376.561C137.963 371.202 132.806 365.415 126.63 360.588C116.719 352.846 107.29 344.372 97.204 336.534C87.7391 329.178 79.6455 320.141 71.2825 311.829C67.4778 308.047 64.3291 304.424 61.0244 300.249C58.3529 296.864 54.3916 294.426 52.0162 290.919C51.909 290.552 51.8019 290.185 51.7039 289.827C51.7039 289.827 68.2349 298.724 71.9869 301.057C92.5937 313.846 118.025 333.798 143.524 376.561Z" fill="#43825C"/>
<path d="M95.6093 286.641C115.279 299.484 139.561 319.457 163.433 361.975C98.9319 323.973 81.1749 293.556 76.488 275.466C76.488 275.466 92.073 284.333 95.6093 286.641Z" fill="#A2E576"/>
<path d="M162.435 360.208C157.228 354.976 152.419 349.347 146.622 344.604C137.315 336.999 128.487 328.707 119.016 321.006C110.131 313.78 102.576 304.988 94.758 296.877C91.1996 293.182 88.2603 289.664 85.1926 285.61C82.6997 282.324 78.9725 279.911 76.7695 276.515C76.6715 276.163 76.5797 275.812 76.4879 275.466C76.4879 275.466 92.0729 284.334 95.6092 286.641C115.008 299.305 138.881 318.904 162.435 360.208Z" fill="#43825C"/>
<path d="M118.107 273.962C135.778 287.449 157.326 308.017 177.048 350.058C118.828 309.764 104.084 279.648 100.842 262.106C100.842 262.106 114.928 271.537 118.107 273.962Z" fill="#A2E576"/>
<path d="M176.217 348.309C171.66 342.995 167.498 337.324 162.352 332.437C154.09 324.602 146.319 316.143 137.906 308.2C130.016 300.751 123.478 291.893 116.646 283.666C113.538 279.923 111.002 276.384 108.372 272.324C106.24 269.036 102.889 266.5 101.04 263.126C100.967 262.781 100.903 262.438 100.842 262.106C100.842 262.106 114.928 271.537 118.107 273.962C135.532 287.257 156.726 307.446 176.217 348.309Z" fill="#43825C"/>
<path d="M142.803 266.891C159.906 281.061 180.608 302.485 198.699 345.37C142.208 302.824 128.634 272.078 126.048 254.368C126.048 254.368 139.729 264.344 142.803 266.891Z" fill="#A2E576"/>
<path d="M197.938 343.588C193.594 338.092 189.661 332.249 184.712 327.159C176.774 318.995 169.346 310.225 161.263 301.953C153.679 294.193 147.493 285.071 140.991 276.57C138.034 272.701 135.64 269.058 133.171 264.888C131.171 261.516 127.928 258.848 126.209 255.394C126.151 255.046 126.099 254.704 126.048 254.368C126.048 254.368 139.729 264.344 142.803 266.891C159.666 280.864 180.026 301.889 197.938 343.588Z" fill="#43825C"/>
<path d="M162.475 258.879C180.094 271.12 201.737 290 222.456 329.547C164.586 293.192 149.145 264.884 145.316 248.191C145.316 248.191 159.308 256.682 162.475 258.879Z" fill="#A2E576"/>
<path d="M221.587 327.903C216.971 322.986 212.722 317.71 207.554 313.226C199.26 306.033 191.413 298.226 182.968 290.943C175.046 284.11 168.375 275.871 161.446 268.245C158.294 264.779 155.7 261.483 153.001 257.695C150.813 254.622 147.471 252.324 145.551 249.156C145.468 248.832 145.392 248.508 145.316 248.191C145.316 248.191 159.308 256.682 162.475 258.879C179.847 270.947 201.13 289.479 221.587 327.903Z" fill="#43825C"/>
<path d="M182.951 251.117C200.674 260.868 222.789 276.41 245.892 311.171C188.025 282.699 170.914 257.876 165.801 242.756C165.801 242.756 179.765 249.364 182.951 251.117Z" fill="#A2E576"/>
<path d="M244.926 309.728C240.125 305.586 235.649 301.083 230.368 297.396C221.895 291.481 213.79 284.954 205.167 278.966C197.079 273.351 190.044 266.317 182.821 259.882C179.536 256.955 176.796 254.137 173.907 250.87C171.565 248.221 168.208 246.393 166.109 243.631C166.003 243.337 165.9 243.046 165.801 242.756C165.801 242.756 179.765 249.364 182.951 251.117C200.427 260.732 222.173 275.979 244.926 309.728Z" fill="#43825C"/>
<path d="M209.668 242.808C225.693 253.482 245.441 270.042 264.692 305.116C212.116 273.495 197.786 248.397 194.081 233.512C194.081 233.512 206.789 240.891 209.668 242.808Z" fill="#A2E576"/>
<path d="M263.884 303.658C259.658 299.33 255.761 294.675 251.044 290.745C243.476 284.439 236.299 277.571 228.595 271.185C221.366 265.194 215.241 257.923 208.895 251.212C206.005 248.156 203.626 245.248 201.137 241.897C199.12 239.182 196.083 237.177 194.305 234.372C194.229 234.084 194.15 233.794 194.081 233.512C194.081 233.512 206.789 240.891 209.668 242.808C225.471 253.334 244.89 269.583 263.884 303.658Z" fill="#43825C"/>
<path d="M230.11 234.741C244.305 244.631 261.738 259.887 278.406 291.813C231.773 262.42 219.351 239.569 216.283 226.097C216.283 226.097 227.56 232.964 230.11 234.741Z" fill="#A2E576"/>
<path d="M277.707 290.486C273.989 286.514 270.573 282.253 266.409 278.633C259.724 272.819 253.405 266.511 246.601 260.625C240.22 255.105 234.848 248.45 229.27 242.296C226.73 239.494 224.646 236.833 222.471 233.772C220.71 231.294 218.016 229.433 216.47 226.877C216.406 226.615 216.342 226.352 216.284 226.097C216.284 226.097 227.56 232.964 230.11 234.741C244.108 244.495 261.254 259.466 277.707 290.486Z" fill="#43825C"/>
<path d="M250.72 234.622C263.786 242.843 279.95 255.692 296.07 283.341C253.27 259.085 241.29 239.312 238.033 227.493C238.033 227.493 248.37 233.143 250.72 234.622Z" fill="#A2E576"/>
<path d="M295.395 282.193C291.92 278.816 288.702 275.17 284.841 272.121C278.646 267.227 272.757 261.881 266.451 256.926C260.535 252.277 255.483 246.589 250.26 241.348C247.882 238.963 245.916 236.684 243.856 234.055C242.184 231.925 239.709 230.381 238.23 228.176C238.16 227.945 238.093 227.715 238.033 227.493C238.033 227.493 248.371 233.143 250.72 234.621C263.602 242.725 279.499 255.335 295.395 282.193Z" fill="#43825C"/>
<path d="M268.37 230.335C279.851 239.311 293.817 252.965 306.434 280.698C268.589 253.836 259.145 233.965 257.146 222.43C257.146 222.43 266.305 228.719 268.37 230.335Z" fill="#A2E576"/>
<path d="M305.906 279.545C302.957 276.024 300.272 272.271 296.934 269.028C291.58 263.825 286.547 258.216 281.095 252.946C275.981 248.002 271.762 242.142 267.345 236.695C265.334 234.214 263.698 231.871 262.006 229.189C260.636 227.017 258.458 225.33 257.27 223.1C257.226 222.874 257.184 222.65 257.146 222.43C257.146 222.43 266.305 228.719 268.37 230.335C279.689 239.183 293.427 252.585 305.906 279.545Z" fill="#43825C"/>
<path d="M284.331 224.131C296.081 231.123 310.671 242.138 325.522 266.217C287.086 245.672 276.065 228.461 272.937 218.094C272.937 218.094 282.217 222.873 284.331 224.131Z" fill="#A2E576"/>
<path d="M324.899 265.215C321.75 262.305 318.825 259.154 315.339 256.538C309.749 252.346 304.42 247.746 298.729 243.5C293.391 239.518 288.793 234.596 284.057 230.076C281.903 228.02 280.112 226.047 278.231 223.768C276.711 221.925 274.484 220.613 273.125 218.694C273.061 218.493 272.998 218.292 272.937 218.094C272.937 218.094 282.217 222.872 284.328 224.128C295.915 231.024 310.263 241.831 324.899 265.215Z" fill="#43825C"/>
<path d="M302.322 222.346C312.979 229.289 326.131 240.088 339.069 263.103C304.131 242.571 294.508 226.108 291.967 216.313C291.967 216.313 300.41 221.101 302.322 222.346Z" fill="#A2E576"/>
<path d="M338.524 262.144C335.706 259.317 333.102 256.271 329.959 253.707C324.919 249.594 320.135 245.109 315.005 240.945C310.191 237.037 306.099 232.281 301.865 227.894C299.936 225.897 298.346 223.994 296.679 221.798C295.332 220.021 293.313 218.718 292.121 216.879C292.066 216.688 292.015 216.499 291.967 216.313C291.967 216.313 300.41 221.101 302.322 222.346C312.83 229.191 325.764 239.789 338.524 262.144Z" fill="#43825C"/>
<path d="M318.636 219.746C327.9 226.257 339.271 236.29 350.099 257.235C319.658 237.877 311.583 222.88 309.609 214.051C309.609 214.051 316.97 218.576 318.636 219.746Z" fill="#A2E576"/>
<path d="M349.646 256.365C347.222 253.754 344.998 250.957 342.279 248.573C337.921 244.752 333.802 240.607 329.365 236.737C325.201 233.104 321.703 228.734 318.065 224.688C316.411 222.848 315.053 221.101 313.638 219.092C312.492 217.465 310.734 216.24 309.727 214.561C309.688 214.391 309.645 214.218 309.609 214.051C309.609 214.051 316.971 218.576 318.636 219.746C327.77 226.165 338.953 236.01 349.646 256.365Z" fill="#43825C"/>
<path d="M331.911 214.416C342.821 218.069 356.746 224.463 373.04 241.247C337.744 231.162 325.766 219.236 321.462 211.473C321.462 211.473 329.952 213.761 331.911 214.416Z" fill="#A2E576"/>
<path d="M372.358 240.55C369.263 238.743 366.316 236.709 362.991 235.193C357.661 232.766 352.479 229.969 347.054 227.514C341.967 225.213 337.341 222.04 332.664 219.209C330.536 217.921 328.727 216.642 326.791 215.132C325.222 213.909 323.158 213.228 321.717 211.921C321.628 211.769 321.543 211.62 321.462 211.473C321.462 211.473 329.952 213.761 331.911 214.416C342.668 218.018 356.356 224.285 372.358 240.55Z" fill="#43825C"/>
<path d="M335.452 216.437C350.675 218.043 371.265 218.589 401.549 211.167C353.449 204.477 331.454 209.576 321.237 214.422C321.237 214.422 332.717 216.148 335.452 216.437Z" fill="#A2E576"/>
<path d="M400.285 211.473C395.455 211.685 390.642 212.162 385.736 212.019C377.867 211.795 369.926 211.951 361.934 211.708C354.435 211.479 346.896 212.206 339.529 212.614C336.176 212.8 333.202 213.118 329.924 213.579C327.271 213.953 324.396 213.643 321.832 214.144C321.632 214.238 321.43 214.329 321.237 214.422C321.237 214.422 332.717 216.148 335.452 216.437C350.462 218.021 370.69 218.572 400.285 211.473Z" fill="#43825C"/>
<path d="M-27.2024 344.369C4.70986 309.969 41.8018 287.188 92.5003 265.201C170.631 231.313 303.37 213.015 303.37 213.015L330.807 213.063L304.111 216.589C304.111 216.589 183.545 232.366 100.137 267.944C17.7453 303.088 -15.7431 351.405 -15.7431 351.405C-15.7431 351.405 -19.551 355.87 -26.304 353.329C-33.0601 350.791 -28.8296 346.126 -27.2024 344.369Z" fill="#A2E576"/>
<path d="M63.0947 373.116C44.4464 354.695 17.396 332.703 -31.5859 315.157C25.5466 376.284 60.7939 389.551 79.9374 391.252C79.9374 391.252 66.4487 376.425 63.0947 373.116Z" fill="#A2E576"/>
<path d="M-30.8784 315.056C-24.1531 319.6 -17.155 323.656 -10.723 328.917C-0.403817 337.354 10.4371 345.172 20.902 353.769C30.7176 361.834 41.6578 368.215 52.01 374.999C56.7247 378.084 61.0733 380.549 65.9932 383.061C69.9759 385.095 73.4918 388.591 77.4927 390.3C77.8684 390.341 78.243 390.377 78.6028 390.409C78.6028 390.409 65.114 375.582 61.76 372.273C43.3696 354.113 16.8128 332.473 -30.8784 315.056Z" fill="#43825C"/>
<path d="M62.0884 346.827C43.947 326.685 17.3226 302.341 -32.3837 281.241C22.8732 347.788 58.6011 363.632 78.3741 366.56C78.3741 366.56 65.348 350.444 62.0884 346.827Z" fill="#A2E576"/>
<path d="M-30.3156 282.129C-23.6331 287.229 -16.6375 291.841 -10.3063 297.66C-0.151375 306.997 10.5867 315.725 20.8812 325.232C30.5426 334.149 41.4789 341.405 51.7794 349.036C56.4651 352.508 60.8232 355.317 65.7616 358.208C69.7619 360.549 73.1794 364.372 77.2273 366.38C77.6139 366.445 77.9952 366.506 78.3742 366.56C78.3742 366.56 65.3481 350.443 62.0886 346.826C44.2011 326.965 18.0648 303.02 -30.3156 282.129Z" fill="#43825C"/>
<path d="M61.3122 319.494C44.4929 299.018 19.5894 274.022 -27.9055 250.951C23.1095 318.363 57.2178 335.603 76.3412 339.486C76.3412 339.486 64.3357 323.173 61.3122 319.494Z" fill="#A2E576"/>
<path d="M-25.9291 251.919C-19.6363 257.216 -13.0173 262.057 -7.10061 268.03C2.39367 277.613 12.4845 286.638 22.1056 296.394C31.1358 305.55 41.4794 313.156 51.1856 321.097C55.6067 324.71 59.7267 327.659 64.4136 330.724C68.2116 333.203 71.3794 337.088 75.2326 339.246C75.6057 339.328 75.9746 339.411 76.3412 339.486C76.3412 339.486 64.3357 323.173 61.3121 319.494C44.7258 299.303 20.2821 274.719 -25.9291 251.919Z" fill="#43825C"/>
<path d="M65.7183 297.056C50.533 276.659 27.842 251.509 -16.436 226.913C29.3939 293.817 61.168 312.118 79.2096 316.89C79.2096 316.89 68.4447 300.719 65.7183 297.056Z" fill="#A2E576"/>
<path d="M-14.5919 227.944C-8.81621 233.331 -2.713 238.301 2.67659 244.309C11.3293 253.947 20.5675 263.088 29.3332 272.899C37.5565 282.104 47.093 289.914 56.0136 298.003C60.0699 301.685 63.8749 304.721 68.2154 307.892C71.7271 310.464 74.584 314.332 78.1648 316.602C78.5202 316.702 78.866 316.801 79.2095 316.89C79.2095 316.89 68.4446 300.719 65.7182 297.057C50.7468 276.941 28.4733 252.213 -14.5919 227.944Z" fill="#43825C"/>
<path d="M68.5163 272.072C55.1957 251.86 34.9992 226.686 -5.74463 200.675C34.1747 266.729 63.3727 286.01 80.2636 291.649C80.2636 291.649 70.9104 275.705 68.5163 272.072Z" fill="#A2E576"/>
<path d="M-4.05151 201.766C1.14589 207.215 6.67778 212.291 11.4735 218.303C19.1681 227.947 27.4519 237.16 35.2502 246.976C42.5677 256.181 51.2058 264.155 59.241 272.356C62.9005 276.088 66.3491 279.191 70.3019 282.464C73.4996 285.11 76.004 288.939 79.2817 291.308C79.6151 291.427 79.942 291.54 80.2637 291.649C80.2637 291.649 70.9105 275.705 68.5164 272.072C55.3821 252.14 35.5584 227.39 -4.05151 201.766Z" fill="#43825C"/>
<path d="M73.9829 247.657C61.3813 226.924 42.0739 200.951 2.23016 173.258C39.7968 240.85 68.334 261.335 85.0329 267.683C85.0329 267.683 76.2481 251.382 73.9829 247.657Z" fill="#A2E576"/>
<path d="M3.88696 174.418C8.89157 180.076 14.2438 185.377 18.8282 191.578C26.1839 201.527 34.1406 211.072 41.5919 221.196C48.581 230.694 56.9415 239.017 64.6918 247.539C68.2147 251.42 71.5563 254.664 75.3927 258.093C78.5001 260.876 80.8683 264.804 84.0685 267.306C84.3914 267.437 84.7175 267.563 85.0329 267.683C85.0329 267.683 76.2481 251.382 73.9828 247.657C61.5609 227.213 42.6115 201.676 3.88696 174.418Z" fill="#43825C"/>
<path d="M81.4481 225.868C70.4077 205.177 53.1819 179.033 16.229 149.929C48.8333 217.157 75.2595 238.627 91.0311 245.781C91.0311 245.781 83.4361 229.585 81.4481 225.868Z" fill="#A2E576"/>
<path d="M17.7661 151.147C22.2893 156.894 27.1654 162.32 31.2554 168.561C37.8166 178.572 44.9797 188.235 51.6228 198.422C57.8564 207.977 65.4705 216.494 72.4891 225.163C75.6819 229.108 78.7341 232.434 82.2474 235.971C85.0969 238.835 87.169 242.751 90.121 245.354C90.4262 245.504 90.7345 245.648 91.0311 245.781C91.0311 245.781 83.4361 229.585 81.4481 225.868C70.5648 205.466 53.6581 179.764 17.7661 151.147Z" fill="#43825C"/>
<path d="M88.5278 206.157C79.8307 185.843 65.7615 159.862 33.4134 129.234C58.5972 194.926 81.6797 217.438 95.9165 225.608C95.9165 225.608 90.0883 209.807 88.5278 206.157Z" fill="#A2E576"/>
<path d="M34.7598 130.515C38.5441 136.296 42.6828 141.814 46.0186 148.014C51.3727 157.959 57.3191 167.639 62.736 177.755C67.8128 187.246 74.2782 195.902 80.1667 204.643C82.8495 208.619 85.4407 212.008 88.4594 215.635C90.9005 218.573 92.5346 222.418 95.0906 225.125C95.3685 225.291 95.6455 225.453 95.9162 225.608C95.9162 225.608 90.088 209.807 88.5275 206.157C79.9503 186.127 66.1546 160.586 34.7598 130.515Z" fill="#43825C"/>
<path d="M96.0214 181.141C87.7165 161.734 74.2774 136.914 43.376 107.656C67.4349 170.41 89.4862 191.915 103.082 199.722C103.082 199.722 97.5162 184.627 96.0214 181.141Z" fill="#A2E576"/>
<path d="M44.6582 108.88C48.2752 114.402 52.2317 119.673 55.4178 125.596C60.5291 135.098 66.2126 144.344 71.3844 154.008C76.2367 163.075 82.411 171.344 88.0387 179.693C90.5983 183.493 93.0773 186.73 95.9588 190.194C98.2931 193.001 99.8507 196.675 102.298 199.259C102.56 199.419 102.822 199.574 103.082 199.722C103.082 199.722 97.5163 184.627 96.0216 181.141C87.833 162.005 74.6535 137.606 44.6582 108.88Z" fill="#43825C"/>
<path d="M104.754 159.065C98.3222 141.177 87.5641 118.119 61.3232 89.9772C79.5995 147.644 98.2874 168.287 110.106 176.138C110.106 176.138 105.911 162.279 104.754 159.065Z" fill="#A2E576"/>
<path d="M62.4124 91.1537C65.369 96.3243 68.6462 101.291 71.1941 106.792C75.2845 115.618 79.9009 124.251 84.0393 133.224C87.9189 141.643 93.0301 149.434 97.6461 157.262C99.7465 160.823 101.803 163.876 104.209 167.16C106.157 169.82 107.364 173.204 109.425 175.673C109.656 175.832 109.881 175.988 110.106 176.138C110.106 176.138 105.911 162.279 104.754 159.065C98.4107 141.428 87.8599 118.763 62.4124 91.1537Z" fill="#43825C"/>
<path d="M112.346 139.093C106.7 123.129 97.2268 102.536 73.9842 77.3281C89.9886 128.78 106.541 147.267 117.033 154.324C117.033 154.324 113.363 141.961 112.346 139.093Z" fill="#A2E576"/>
<path d="M74.951 78.3816C77.5559 83.0034 80.4554 87.4436 82.6999 92.3564C86.3028 100.238 90.3707 107.951 94.0132 115.966C97.4304 123.484 101.95 130.449 106.023 137.446C107.875 140.63 109.694 143.36 111.823 146.297C113.545 148.677 114.602 151.697 116.427 153.907C116.632 154.05 116.835 154.189 117.033 154.324C117.033 154.324 113.363 141.961 112.346 139.093C106.781 123.351 97.4905 103.11 74.951 78.3816Z" fill="#43825C"/>
<path d="M119.431 124.159C114.7 108.829 106.515 88.9539 85.4579 64.0888C98.6355 113.396 113.611 131.609 123.283 138.754C123.283 138.754 120.282 126.914 119.431 124.159Z" fill="#A2E576"/>
<path d="M86.3311 65.1281C88.6244 69.6107 91.2007 73.9358 93.1384 78.6761C96.2454 86.2828 99.807 93.7507 102.948 101.485C105.894 108.74 109.907 115.523 113.497 122.315C115.131 125.406 116.751 128.066 118.656 130.936C120.197 133.262 121.082 136.162 122.726 138.332C122.913 138.476 123.103 138.617 123.283 138.754C123.283 138.754 120.282 126.914 119.431 124.159C114.766 109.044 106.742 89.508 86.3311 65.1281Z" fill="#43825C"/>
<path d="M126.216 104.221C121.609 89.9577 113.719 71.4967 93.7515 48.5604C106.668 94.4647 120.877 111.271 129.997 117.808C129.997 117.808 127.048 106.783 126.216 104.221Z" fill="#A2E576"/>
<path d="M94.5806 49.519C96.7749 53.6766 99.2313 57.6831 101.103 62.0858C104.099 69.1511 107.514 76.0815 110.546 83.2646C113.388 90.0034 117.219 96.2868 120.657 102.583C122.218 105.449 123.764 107.913 125.576 110.568C127.048 112.719 127.907 115.418 129.472 117.423C129.646 117.555 129.824 117.684 129.997 117.808C129.997 117.808 127.048 106.783 126.216 104.221C121.675 90.1569 113.94 72.0115 94.5806 49.519Z" fill="#43825C"/>
<path d="M135.216 90.2635C132.245 76.618 126.606 58.7453 110.137 35.4252C117.92 79.1331 129.594 96.1737 137.481 103.195C137.481 103.195 135.753 92.7144 135.216 90.2635Z" fill="#A2E576"/>
<path d="M110.817 36.4003C112.479 40.47 114.396 44.4306 115.73 48.6917C117.869 55.529 120.406 62.2892 122.565 69.2387C124.588 75.7587 127.575 81.967 130.193 88.1448C131.384 90.9563 132.594 93.395 134.034 96.0408C135.202 98.1841 135.755 100.765 137.026 102.783C137.18 102.923 137.329 103.062 137.481 103.195C137.481 103.195 135.753 92.7144 135.216 90.2635C132.286 76.8086 126.764 59.2431 110.817 36.4003Z" fill="#43825C"/>
<path d="M141.553 75.7232C139.807 63.4104 135.965 47.1456 122.817 25.2083C126.858 64.51 136.141 80.5132 142.713 87.3485C142.713 87.3485 141.865 77.9359 141.553 75.7232Z" fill="#A2E576"/>
<path d="M123.364 26.1234C124.573 29.8582 126.022 33.5143 126.926 37.392C128.38 43.6124 130.197 49.7954 131.659 56.1176C133.032 62.0483 135.284 67.7784 137.211 73.4527C138.085 76.0354 139.002 78.2892 140.113 80.7446C141.015 82.733 141.336 85.0616 142.332 86.948C142.463 87.084 142.588 87.2186 142.713 87.3486C142.713 87.3486 141.865 77.9359 141.553 75.7233C139.83 63.583 136.071 47.5991 123.364 26.1234Z" fill="#43825C"/>
<path d="M150.627 65.0399C151.445 52.7455 151.008 36.1317 142.568 11.7796C138.46 50.6448 144.312 68.3347 149.376 76.5272C149.376 76.5272 150.483 67.2479 150.627 65.0399Z" fill="#A2E576"/>
<path d="M142.917 12.7951C143.343 16.6891 144.017 20.5664 144.113 24.524C144.262 30.8746 144.781 37.277 144.92 43.7271C145.049 49.7788 146.089 55.8507 146.815 61.7907C147.148 64.4928 147.586 66.8897 148.177 69.5271C148.654 71.6639 148.49 73.987 149.087 76.0477C149.184 76.2106 149.28 76.3709 149.376 76.527C149.376 76.527 150.483 67.2477 150.627 65.0397C151.432 52.9178 151.018 36.5951 142.917 12.7951Z" fill="#43825C"/>
<path d="M100.18 367.506C121.696 354.138 152.239 339.565 204.442 335.869C137.882 381.605 100.222 384.914 80.5416 381.105C80.5416 381.105 96.3155 369.907 100.18 367.506Z" fill="#A2E576"/>
<path d="M202.267 336.032C194.801 338.719 187.128 340.825 179.861 344.321C168.202 349.928 156.098 354.751 144.269 360.48C133.171 365.854 121.167 369.191 109.703 373.107C104.489 374.885 99.7219 376.136 94.3785 377.268C90.0471 378.188 85.9908 380.734 81.6825 381.314C81.2959 381.249 80.9125 381.179 80.5416 381.106C80.5416 381.106 96.3155 369.908 100.18 367.506C121.394 354.326 151.39 339.969 202.267 336.032Z" fill="#43825C"/>
<path d="M99.5451 334.841C121.258 323.282 151.83 311.13 202.889 310.877C135.475 350.87 98.6075 351.677 79.6485 346.741C79.6485 346.741 95.6435 336.914 99.5451 334.841Z" fill="#A2E576"/>
<path d="M200.763 310.896C193.336 313.014 185.742 314.567 178.467 317.483C166.795 322.166 154.731 326.064 142.888 330.85C131.773 335.341 119.895 337.802 108.506 340.859C103.326 342.25 98.6116 343.154 93.3417 343.915C89.073 344.525 84.9753 346.726 80.7491 347.019C80.378 346.927 80.007 346.836 79.6485 346.741C79.6485 346.741 95.6436 336.913 99.5452 334.84C120.953 323.443 150.979 311.472 200.763 310.896Z" fill="#43825C"/>
<path d="M98.9423 307.174C119.926 296.614 149.392 285.646 198.149 286.354C132.894 323.048 97.6734 323.129 79.6761 318.097C79.6761 318.097 95.1707 309.073 98.9423 307.174Z" fill="#A2E576"/>
<path d="M196.119 286.33C188.98 288.206 181.697 289.537 174.685 292.168C163.434 296.397 151.83 299.868 140.414 304.19C129.703 308.245 118.306 310.363 107.366 313.05C102.384 314.272 97.8658 315.047 92.8193 315.664C88.7258 316.169 84.7674 318.18 80.7239 318.38C80.3708 318.288 80.0208 318.191 79.6761 318.097C79.6761 318.097 95.1707 309.073 98.9424 307.174C119.636 296.758 148.572 285.956 196.119 286.33Z" fill="#43825C"/>
<path d="M99.2756 281.351C119.813 272.843 148.421 264.539 194.68 268.596C130.598 298.707 97.151 296.333 80.3527 290.327C80.3527 290.327 95.5828 282.883 99.2756 281.351Z" fill="#A2E576"/>
<path d="M192.75 268.437C185.866 269.709 178.872 270.46 172.062 272.456C161.138 275.666 149.92 278.138 138.826 281.424C128.422 284.506 117.479 285.711 106.934 287.488C102.136 288.296 97.8025 288.711 92.971 288.947C89.0564 289.139 85.1809 290.764 81.3345 290.668C80.9991 290.558 80.6711 290.442 80.3526 290.327C80.3526 290.327 95.5827 282.882 99.2755 281.351C119.524 272.959 147.625 264.771 192.75 268.437Z" fill="#43825C"/>
<path d="M105.564 256.444C126.407 248.77 155.329 241.627 201.499 247.519C136.338 275.003 102.933 271.302 86.3194 264.644C86.3194 264.644 101.817 257.823 105.564 256.444Z" fill="#A2E576"/>
<path d="M199.576 247.282C192.642 248.279 185.614 248.746 178.727 250.469C167.681 253.234 156.367 255.253 145.154 258.089C134.635 260.75 123.64 261.519 113.024 262.872C108.193 263.486 103.84 263.726 98.9938 263.767C95.074 263.804 91.1384 265.268 87.288 265.02C86.9577 264.895 86.6359 264.768 86.3194 264.644C86.3194 264.644 101.817 257.823 105.564 256.444C126.115 248.878 154.522 241.831 199.576 247.282Z" fill="#43825C"/>
<path d="M108.514 235.409C127.948 226.321 155.143 217.086 199.747 219.029C139.246 250.815 107.013 249.951 90.6541 244.88C90.6541 244.88 105.024 237.044 108.514 235.409Z" fill="#A2E576"/>
<path d="M197.889 218.955C191.319 220.477 184.622 221.502 178.15 223.72C167.763 227.28 157.072 230.144 146.533 233.789C136.646 237.209 126.171 238.84 116.097 241.002C111.517 241.987 107.364 242.576 102.733 243.007C98.9764 243.356 95.3105 245.092 91.6068 245.161C91.2854 245.07 90.9671 244.974 90.6541 244.88C90.6541 244.88 105.024 237.044 108.514 235.409C127.675 226.447 154.388 217.348 197.889 218.955Z" fill="#43825C"/>
<path d="M112.085 213.804C129.417 203.375 153.964 192.056 195.625 189.534C141.943 225.276 111.885 227.608 96.2426 224.436C96.2426 224.436 108.969 215.679 112.085 213.804Z" fill="#A2E576"/>
<path d="M193.893 189.645C187.9 191.716 181.758 193.326 175.917 196.041C166.547 200.397 156.832 204.129 147.325 208.578C138.407 212.752 128.791 215.304 119.6 218.318C115.419 219.689 111.605 220.643 107.33 221.501C103.863 222.196 100.596 224.181 97.1534 224.609C96.8458 224.553 96.5423 224.496 96.2426 224.436C96.2426 224.436 108.969 215.679 112.085 213.804C129.176 203.521 153.281 192.373 193.893 189.645Z" fill="#43825C"/>
<path d="M118.317 186.528C135.595 178.031 159.833 169.269 199.831 170.237C146.082 199.822 117.183 199.609 102.45 195.338C102.45 195.338 115.213 188.055 118.317 186.528Z" fill="#A2E576"/>
<path d="M198.164 170.203C192.299 171.684 186.317 172.716 180.549 174.821C171.295 178.199 161.752 180.956 152.361 184.411C143.549 187.653 134.187 189.299 125.196 191.417C121.102 192.381 117.393 192.978 113.245 193.448C109.884 193.828 106.625 195.448 103.306 195.577C103.02 195.498 102.729 195.42 102.45 195.338C102.45 195.338 115.213 188.055 118.317 186.528C135.356 178.149 159.158 169.515 198.164 170.203Z" fill="#43825C"/>
<path d="M121.607 164.799C137.288 157.491 159.235 150.077 195.214 151.696C146.378 177.261 120.379 176.528 107.188 172.415C107.188 172.415 118.789 166.112 121.607 164.799Z" fill="#A2E576"/>
<path d="M193.715 151.634C188.413 152.854 183.013 153.669 177.791 155.452C169.407 158.313 160.779 160.61 152.272 163.538C144.294 166.284 135.841 167.586 127.718 169.319C124.019 170.109 120.672 170.575 116.932 170.919C113.905 171.197 110.943 172.592 107.956 172.645C107.697 172.569 107.438 172.493 107.188 172.415C107.188 172.415 118.789 166.112 121.607 164.799C137.071 157.592 158.627 150.284 193.715 151.634Z" fill="#43825C"/>
<path d="M131.853 146.917C145.525 139.746 164.753 132.221 196.759 132.167C154.289 156.997 131.174 157.426 119.317 154.308C119.317 154.308 129.395 148.206 131.853 146.917Z" fill="#A2E576"/>
<path d="M195.427 132.174C190.761 133.483 185.992 134.435 181.416 136.242C174.073 139.142 166.493 141.549 159.041 144.514C152.05 147.296 144.594 148.808 137.439 150.693C134.182 151.551 131.224 152.107 127.916 152.568C125.235 152.944 122.657 154.309 120.007 154.481C119.772 154.425 119.54 154.367 119.317 154.308C119.317 154.308 129.395 148.206 131.853 146.917C145.33 139.847 164.218 132.432 195.427 132.174Z" fill="#43825C"/>
<path d="M137.01 129.501C150.538 124.081 169.359 118.86 199.677 121.877C157.443 141.114 135.517 139.301 124.538 135.238C124.538 135.238 134.576 130.476 137.01 129.501Z" fill="#A2E576"/>
<path d="M198.415 121.755C193.889 122.537 189.296 122.974 184.815 124.232C177.627 126.249 170.249 127.784 162.953 129.852C156.11 131.792 148.924 132.498 141.995 133.581C138.84 134.075 135.992 134.313 132.824 134.429C130.257 134.523 127.705 135.559 125.179 135.466C124.961 135.391 124.748 135.315 124.538 135.238C124.538 135.238 134.576 130.476 137.01 129.501C150.346 124.157 168.834 119.006 198.415 121.755Z" fill="#43825C"/>
<path d="M139.661 112.584C151.608 105.933 168.46 98.848 196.741 98.0978C159.672 121.019 139.254 121.905 128.718 119.404C128.718 119.404 137.511 113.779 139.661 112.584Z" fill="#A2E576"/>
<path d="M195.561 98.1341C191.463 99.3951 187.27 100.342 183.257 102.044C176.824 104.772 170.17 107.071 163.641 109.86C157.517 112.475 150.951 113.98 144.664 115.805C141.805 116.636 139.198 117.194 136.284 117.676C133.926 118.065 131.673 119.332 129.331 119.543C129.126 119.497 128.92 119.451 128.718 119.404C128.718 119.404 137.511 113.779 139.657 112.585C151.439 106.027 167.99 99.0467 195.561 98.1341Z" fill="#43825C"/>
<path d="M147.152 96.1289C158.508 90.3997 174.452 84.4504 200.851 84.8199C165.55 104.721 146.482 104.775 136.735 102.053C136.735 102.053 145.115 97.1573 147.152 96.1289Z" fill="#A2E576"/>
<path d="M199.748 84.8096C195.889 85.8264 191.947 86.5485 188.151 87.9785C182.063 90.2715 175.782 92.1566 169.605 94.5017C163.808 96.7023 157.64 97.8519 151.72 99.3107C149.025 99.9754 146.581 100.395 143.844 100.733C141.632 101.006 139.491 102.098 137.302 102.205C137.109 102.156 136.92 102.105 136.735 102.053C136.735 102.053 145.115 97.1574 147.152 96.129C158.348 90.4796 174.009 84.6167 199.748 84.8096Z" fill="#43825C"/>
<path d="M153.097 80.716C163.379 75.9744 177.766 71.1796 201.317 72.3343C169.289 88.9369 152.265 88.3891 143.639 85.6624C143.639 85.6624 151.248 81.5683 153.097 80.716Z" fill="#A2E576"/>
<path d="M200.336 72.2895C196.861 73.0746 193.325 73.5933 189.898 74.7473C184.406 76.5965 178.753 78.0769 173.177 79.9705C167.945 81.7472 162.409 82.5771 157.084 83.6914C154.662 84.1975 152.469 84.4942 150.021 84.7095C148.039 84.883 146.096 85.788 144.139 85.8158C143.972 85.7646 143.801 85.7145 143.639 85.6621C143.639 85.6621 151.248 81.5681 153.097 80.7158C163.234 76.0408 177.364 71.3141 200.336 72.2895Z" fill="#43825C"/>
<path d="M155.154 66.5593C163.792 58.9599 176.314 50.129 199.012 44.4672C172.564 69.9246 156.236 74.2941 147.362 74.1169C147.362 74.1169 153.603 67.9246 155.154 66.5593Z" fill="#A2E576"/>
<path d="M198.065 44.7069C194.949 46.4758 191.71 48.0024 188.729 50.1164C183.954 53.5071 178.933 56.5841 174.085 60.0421C169.541 63.2853 164.474 65.6921 159.677 68.3151C157.495 69.5085 155.48 70.4307 153.202 71.3469C151.356 72.0885 149.731 73.5314 147.877 74.1215C147.701 74.1218 147.53 74.1206 147.362 74.117C147.362 74.117 153.603 67.9246 155.154 66.5593C163.671 59.0661 175.964 50.376 198.065 44.7069Z" fill="#43825C"/>
<path d="M158.68 64.512C167.714 52.1548 178.526 34.6237 187.316 4.70814C157.375 42.9428 150.739 64.524 149.799 75.7926C149.799 75.7926 157.056 66.7323 158.68 64.512Z" fill="#A2E576"/>
<path d="M186.946 5.95434C184.704 10.2383 182.699 14.6389 180.112 18.8104C175.966 25.5018 172.113 32.4475 167.89 39.237C163.926 45.6067 160.768 52.4905 157.422 59.0667C155.898 62.0597 154.68 64.7913 153.432 67.8569C152.423 70.3395 150.712 72.6692 149.857 75.1383C149.838 75.359 149.815 75.5788 149.799 75.7925C149.799 75.7925 157.056 66.7322 158.68 64.5119C167.588 52.3275 178.222 35.1123 186.946 5.95434Z" fill="#43825C"/>
<path d="M87.1879 442.366C73.4659 397.494 72.3935 353.978 78.8402 299.095C88.7723 214.513 139.61 90.5366 139.61 90.5366L153.429 66.8346L143.072 91.6912C143.072 91.6912 96.168 203.874 85.0476 293.868C74.0622 382.766 99.0271 435.99 99.0271 435.99C99.0271 435.99 100.976 441.525 95.3869 446.089C89.799 450.656 87.8899 444.656 87.1879 442.366Z" fill="#A2E576"/>
<path d="M-28.2045 191.73C-36.8036 185.323 -43.1793 174.808 -41.6246 164.195C-40.2531 154.832 -33.288 147.462 -28.0207 139.599C-18.1967 124.938 -13.7541 107.229 -4.18872 92.3965C-0.623827 86.8691 3.63917 81.765 6.5741 75.8788C9.38001 70.2442 10.8945 64.0491 13.5807 58.3567C17.9557 49.0851 25.2305 41.5512 32.3766 34.1985C39.0582 27.3266 47.523 19.8581 56.9099 21.7992C60.7359 22.5902 64.2625 24.941 68.1694 24.8204C70.1678 24.7574 72.1008 24.0424 74.0997 23.9666C81.006 23.7025 85.7085 30.6445 88.9962 36.7243C93.6573 45.3531 98.3206 53.9842 102.982 62.613C107.227 70.4699 111.553 78.582 112.529 87.4593C113.793 98.9867 109.282 110.269 107.427 121.717C105.59 133.066 106.368 144.708 104.68 156.079C101.226 179.389 87.7893 199.832 74.6919 219.425C71.9968 223.456 69.1996 227.591 65.1876 230.31C56.8612 235.953 45.3111 234.021 36.6372 228.937C24.8469 222.024 16.664 207.862 3.47481 203.571C-7.71462 199.928 -18.2182 199.168 -28.2045 191.73Z" fill="#43825C"/>
<path d="M104.68 156.079C106.368 144.708 105.59 133.066 107.427 121.717C109.282 110.269 113.793 98.9867 112.529 87.4593C111.553 78.582 107.227 70.4699 102.982 62.613C98.3206 53.9842 93.6573 45.3531 88.9962 36.7243C85.7085 30.6445 81.006 23.7025 74.0997 23.9666C72.1008 24.0424 70.1678 24.7574 68.1694 24.8204C64.2625 24.941 60.7359 22.5902 56.9099 21.7992C47.523 19.8581 39.0582 27.3266 32.3766 34.1985C25.2305 41.5512 17.9557 49.0851 13.5807 58.3567C10.8945 64.0491 9.38001 70.2442 6.5741 75.8788C3.63917 81.765 -0.623827 86.8691 -4.18872 92.3965C-13.7541 107.229 -18.1967 124.938 -28.0207 139.599C-33.288 147.462 -40.2531 154.832 -41.6246 164.195C-43.1793 174.808 -36.8036 185.323 -28.2045 191.73C-18.2182 199.168 -7.71462 199.928 3.47481 203.571C4.60875 203.94 5.70366 204.382 6.76629 204.887C6.46983 202.282 4.19527 200.227 -0.878079 197.862C-8.95121 194.095 -15.3285 187.538 -21.5124 181.123C-23.7308 178.822 -26.1244 175.947 -25.4421 172.824C-24.634 169.135 -20.1136 167.629 -18.1016 164.438C-15.2382 159.904 -18.271 154.099 -18.6238 148.751C-19.4376 136.369 -5.99606 127.938 -1.96748 116.198C-0.807375 112.813 -0.392031 109.052 1.77395 106.205C3.60504 103.8 6.46858 102.369 8.41791 100.06C13.6283 93.9032 10.9486 83.5952 16.2666 77.532C17.8042 75.7787 19.8994 74.5503 21.2939 72.6784C22.9655 70.4256 23.4255 67.534 24.074 64.8053C27.4804 50.4821 37.753 37.9555 51.1311 31.8097C52.2161 31.3091 53.3812 30.8414 54.5717 30.9516C57.3168 31.2133 58.7804 34.2145 60.8476 36.0412C65.2446 39.9286 73.5012 37.0879 74.5789 31.319C72.9003 38.2475 80.4449 43.5271 83.9523 49.7326C88.5647 57.8916 86.5575 69.4113 93.4358 75.7712C97.2086 79.2616 103.324 80.7955 104.808 85.7144C106.249 90.4843 102.296 95.0527 101.097 99.8918C99.2975 107.143 103.836 114.872 101.979 122.11C100.193 129.073 92.8557 133.969 92.3181 141.137C91.8326 147.65 97.2093 153.298 97.6468 159.815C98.3563 170.461 86.3698 177.462 82.932 187.565C80.7342 194.032 81.6827 202.387 76.1363 206.371C72.7001 208.836 67.8671 208.572 64.4025 210.998C60.8085 213.511 59.5211 218.308 56.2311 221.211C50.7251 226.064 41.8967 223.814 35.9394 219.529C29.982 215.244 25.2158 209.215 18.5512 206.135C17.3074 205.559 15.9507 205.088 14.5878 205.244C13.1733 205.408 11.9805 206.223 11.0652 207.333C20.1879 213.393 27.2751 223.449 36.6372 228.937C45.3111 234.021 56.8612 235.953 65.1876 230.31C69.1996 227.591 71.9968 223.456 74.6919 219.425C87.7893 199.832 101.226 179.389 104.68 156.079Z" fill="#A2E576"/>
<path d="M-9.15362 174.337C-3.11039 178.266 2.93061 182.197 8.97589 186.128C6.44521 179.807 3.35267 173.711 -0.249775 167.936C4.67279 171.541 9.59519 175.151 14.5178 178.757C13.6753 173.761 11.6929 168.963 8.76693 164.826C12.3976 167.826 16.0306 170.824 19.6592 173.822C13.8611 161.336 7.8978 148.926 1.77339 136.595C10.5867 144.541 18.638 153.328 25.7898 162.796C22.442 154.481 19.0922 146.164 15.7423 137.846C20.3056 142.206 24.8711 146.563 29.4366 150.921C26.7228 144.411 24.0068 137.899 21.2887 131.39C25.0402 134.99 29.2987 138.063 33.8995 140.492C30.066 130.637 25.3695 121.118 19.8751 112.08C25.0751 115.811 30.2773 119.54 35.4773 123.271C31.0529 115.115 26.2425 107.165 21.0662 99.4591C27.719 103.259 33.83 108.011 39.1519 113.525C35.4457 105.134 31.7417 96.7419 28.0377 88.3493C34.225 92.0251 39.8723 96.6021 44.7471 101.896C40.9709 93.1463 36.8428 84.55 32.3746 76.1335C39.1719 81.6248 45.5235 87.6661 51.3425 94.1813C48.4729 86.1102 45.599 78.039 42.7272 69.9699C47.1232 74.1715 51.5193 78.3731 55.9154 82.5747C52.9776 74.5545 50.7742 66.2687 49.3301 57.8506C52.5474 61.7415 55.7625 65.6302 58.9797 69.5211C57.7275 63.0143 57.0265 56.3996 56.8899 49.7759C58.8768 55.5469 60.8617 61.3157 62.8508 67.0846C63.6856 60.4904 64.5204 53.8961 65.3551 47.3019C65.9698 55.0931 66.0058 62.9269 65.4577 70.7222C68.2138 69.3622 71.1228 68.3178 74.1152 67.6162C69.7721 70.9649 65.8288 74.8285 62.3918 79.0997C68.1431 78.6304 73.8924 78.159 79.6418 77.6875C70.1209 82.2298 62.1511 89.9517 57.3107 99.3258C65.3538 95.385 74.6308 94.0117 83.4678 95.4538C72.2776 98.7354 60.7762 102.17 51.6399 109.421C62.874 108.695 74.0851 107.611 85.2499 106.163C71.6371 111.434 55.3893 111.986 45.0455 122.287C56.076 120.6 67.3069 120.248 78.4217 121.24C70.0531 130.894 52.6052 128.08 44.782 138.184C55.4489 135.298 66.9755 135.672 77.4302 139.247C65.5073 140.505 53.6268 142.12 41.8015 144.092C48.3403 146.992 55.708 147.136 62.8061 148.042C69.8998 148.947 77.399 150.959 82.0065 156.432C66.1423 154.538 50.0573 154.506 34.183 156.334C46.2566 159.419 58.3323 162.503 70.4058 165.588C56.7996 165.447 43.1914 165.303 29.5852 165.161C39.8277 168.175 50.0702 171.188 60.3107 174.2C50.3808 173.76 40.451 173.316 30.5212 172.873C43.0751 174.362 55.3605 178.071 66.6398 183.781C52.2408 181.738 37.7224 180.552 23.1825 180.231C33.401 183.489 43.6195 186.748 53.8359 190.004C41.173 188.978 28.4389 188.83 15.7554 189.567C25.5862 191.64 35.417 193.713 45.25 195.784C34.3351 196.144 23.4224 196.501 12.5096 196.863C21.0215 198.137 29.5334 199.411 38.0454 200.685C29.6907 199.434 16.4006 205.226 9.25234 200.609C5.81285 198.387 3.88728 192.403 1.82423 189.085C-1.41451 183.874 -5.08627 178.93 -9.15362 174.337Z" fill="#51A874"/>
<path d="M3.17967 213.588C-9.16003 230.902 -24.1438 246.154 -39.4736 260.888C-39.8416 261.242 -40.2324 261.638 -40.2876 262.146C-40.3392 262.615 -40.0885 263.058 -39.8339 263.452C-38.6168 265.322 -37.034 266.956 -35.2028 268.231C-17.7064 249.771 -2.13211 229.495 11.1918 207.833C12.6361 205.487 11.8539 200.25 8.56894 203.246C7.4739 204.247 7.20821 206.624 6.62314 207.934C5.72323 209.952 4.46023 211.793 3.17967 213.588Z" fill="#43825C"/>
<path d="M171.1 104.737C154.359 105.094 136.734 103.983 121.818 111.592C105.892 119.714 95.8426 136.467 80.1797 145.081C72.6524 149.217 64.1986 151.268 56.0498 153.978C31.3564 162.183 8.47509 177.229 -6.32871 198.632C-21.1294 220.033 -27.1022 248.066 -19.3637 272.916C-15.8023 284.355 -9.56448 294.774 -2.74451 304.624C10.6351 323.954 26.7988 341.842 47.0505 353.777C67.3011 365.716 92.0529 371.221 114.778 365.212C131.306 360.842 145.726 350.823 159.125 340.204C169.533 331.959 180.076 322.458 183.583 309.652C185.344 303.219 185.199 296.29 187.729 290.121C191.511 280.903 200.443 275.071 207.29 267.836C216.765 257.832 222.541 244.4 223.283 230.639C224.022 216.915 220.001 202.65 224.518 189.674C226.969 182.635 231.767 176.6 234.261 169.573C237.573 160.239 236.558 149.998 235.497 140.151C233.154 118.379 230.813 96.6096 228.472 74.8405C228.748 77.2858 219.176 87.2339 217.329 89.1185C213.902 92.6185 209.603 95.7009 205.236 97.9233C194.81 103.235 182.638 104.494 171.1 104.737Z" fill="#51A874"/>
<path d="M216.872 107.004C216.872 107.004 190.439 156.295 142.876 206.796C94.9084 257.723 3.45953 341.77 -16.9399 357.817C-37.3394 373.864 -66.904 390.753 -66.904 390.753C-66.904 390.753 -64.1561 399.241 -61.9579 402.672C-59.7628 406.106 -43.2325 392.631 -21.4642 374.641C0.30612 356.654 120.593 239.044 147.527 208.38C196.802 152.282 222.324 102.307 222.324 102.307L216.872 107.004Z" fill="#A2E576"/>
<path d="M195.271 153.527C195.337 153.198 195.584 152.938 195.839 152.717C197.21 151.531 199.048 151.072 200.817 150.683C206.172 149.51 211.601 148.677 217.061 148.181C220.572 147.863 224.149 147.688 227.586 148.475C228.509 148.689 229.622 149.247 229.527 150.19C229.492 150.561 229.262 150.881 229.009 151.153C227.182 153.144 224.188 153.416 221.491 153.555C218.779 153.698 194.905 155.385 195.271 153.527Z" fill="#A2E576"/>
<path d="M184.057 178.648C196.146 180.432 208.501 180.418 220.587 178.606C221.887 178.413 223.587 177.589 223.171 176.34C222.88 175.482 221.78 175.286 220.876 175.232C211.209 174.669 201.541 174.105 191.875 173.545C189.814 173.424 184.653 172.507 182.859 173.885C180.391 175.785 180.899 178.179 184.057 178.648Z" fill="#A2E576"/>
<path d="M130.989 237.799C130.655 238.123 130.314 238.511 130.321 238.974C130.33 239.365 130.588 239.705 130.852 239.999C133.757 243.227 138.239 244.418 142.453 245.46C152.617 247.966 162.806 250.478 173.194 251.75C174.496 251.91 175.866 252.038 177.067 251.521C178.271 251.008 179.202 249.611 178.743 248.384C178.348 247.316 177.145 246.824 176.067 246.451C171.611 244.895 167.156 243.342 162.701 241.789C159.377 240.629 156.05 239.466 152.67 238.475C146.104 236.551 136.486 232.46 130.989 237.799Z" fill="#A2E576"/>
<path d="M187.776 252.478C187.179 252.425 186.534 252.39 186.023 252.706C185.099 253.269 185.139 254.73 185.828 255.569C186.513 256.407 187.604 256.781 188.64 257.103C192.472 258.298 196.417 259.354 200.427 259.262C205.41 259.148 204.737 255.744 201.195 254.204C197.492 252.6 191.772 252.809 187.776 252.478Z" fill="#A2E576"/>
<path d="M147.833 223.756C150.497 226.068 154.047 227.03 157.472 227.873C167.398 230.325 177.415 232.392 187.497 234.065C188.949 234.308 190.818 234.341 191.456 233.017C192.176 231.532 190.605 229.994 189.2 229.125C181.741 224.505 172.755 220.341 163.971 219.17C160.879 218.756 142.916 219.489 147.833 223.756Z" fill="#A2E576"/>
<path d="M209.587 234.073C206.216 231.889 201.662 231.683 198.11 233.548C201.382 237.449 206.428 239.799 211.521 239.795C212.592 239.794 213.972 239.404 214.033 238.333C214.056 237.869 213.797 237.44 213.519 237.068C212.481 235.708 210.985 234.699 209.331 234.25L209.587 234.073Z" fill="#A2E576"/>
<path d="M182.589 211.183C180.972 210.992 178.751 211.301 178.592 212.92C178.527 213.579 178.886 214.212 179.345 214.693C180.285 215.689 181.615 216.2 182.903 216.668C190.606 219.474 198.476 221.815 206.46 223.673C207.382 223.886 208.348 224.094 209.258 223.843C210.172 223.591 210.99 222.725 210.839 221.791C210.769 221.36 210.515 220.985 210.247 220.637C204.757 213.459 190.897 212.162 182.589 211.183Z" fill="#A2E576"/>
<path d="M171.892 209.486C172.659 208.561 172.163 207.055 171.187 206.347C170.216 205.639 168.95 205.515 167.752 205.413C167.752 205.413 157.338 204.032 155.588 206.595C153.723 210.22 164.359 210.315 169.202 210.3C170.171 210.298 171.276 210.235 171.892 209.486Z" fill="#A2E576"/>
<path d="M164.585 199.632C166.389 200.284 168.29 200.609 170.18 200.936C180.883 202.787 191.592 204.77 201.966 207.988C205.402 209.054 208.842 210.263 212.43 210.543C213.1 210.598 213.797 210.612 214.412 210.349C215.03 210.083 215.544 209.471 215.489 208.801C215.415 207.94 214.515 207.425 213.723 207.071C202.066 201.865 189.579 198.803 177.092 196.152C173.732 195.438 170.273 194.788 166.843 195.384C165.764 195.571 163.65 195.696 162.896 196.622C161.832 197.928 163.441 199.217 164.585 199.632Z" fill="#A2E576"/>
<path d="M175.23 185.396C174.928 185.591 174.636 185.822 174.488 186.147C174.223 186.723 174.509 187.434 174.988 187.849C175.469 188.262 176.1 188.448 176.709 188.62C181.98 190.085 187.36 191.144 192.79 191.787C193.771 191.901 194.785 192.003 195.726 191.706C196.014 191.618 196.298 191.484 196.481 191.247C196.809 190.812 196.676 190.152 196.317 189.739C195.959 189.326 195.437 189.097 194.929 188.89C191.336 187.422 187.632 186.666 183.953 185.504C181.016 184.576 178.163 183.527 175.23 185.396Z" fill="#A2E576"/>
<path d="M211.627 190.603C209.244 190.504 206.857 190.514 204.476 190.629C203.668 190.669 202.813 190.738 202.15 191.2C201.954 191.334 201.776 191.51 201.686 191.727C201.521 192.129 201.677 192.597 201.934 192.948C202.53 193.751 203.56 194.071 204.523 194.342C206.964 195.039 209.408 195.734 211.851 196.428C212.887 196.723 213.942 197.019 215.02 196.983C217.064 196.912 219.36 194.765 217.932 192.689C216.75 190.967 213.477 190.683 211.627 190.603Z" fill="#A2E576"/>
<path d="M192.364 161.481C191.46 161.639 190.523 161.854 189.821 162.442C189.116 163.032 188.734 164.102 189.197 164.898C189.7 165.769 190.877 165.907 191.882 165.948C199.201 166.245 206.521 166.537 213.843 166.832C215.184 166.887 216.529 166.944 217.87 166.849C218.308 166.818 218.768 166.765 219.135 166.52C219.716 166.128 219.912 165.337 219.799 164.647C219.61 163.481 218.708 162.531 217.659 161.998C216.609 161.461 215.421 161.272 214.252 161.12C210.514 160.627 206.239 159.964 202.485 160.522C199.129 161.019 195.727 160.892 192.364 161.481Z" fill="#A2E576"/>
<path d="M227.633 160.481C226.343 160.764 225.187 161.468 224.119 162.247C223.851 162.441 223.577 162.653 223.457 162.959C223.154 163.714 223.935 164.464 224.689 164.773C225.716 165.197 226.848 165.311 227.96 165.328C229.041 165.342 230.195 165.239 231.057 164.584C234.206 162.188 229.945 159.977 227.633 160.481Z" fill="#A2E576"/>
<path d="M208.512 137.137C208.039 137.437 207.536 137.963 207.756 138.478C207.95 138.944 208.573 139.007 209.077 138.996C213.772 138.894 218.459 138.491 223.104 137.791C225.063 137.492 227.06 137.129 228.785 136.157C229.454 135.779 230.153 135.083 229.894 134.359C229.636 133.643 228.682 133.543 227.921 133.573C224.335 133.728 220.733 134.083 217.201 134.732C214.452 135.235 210.875 135.644 208.512 137.137Z" fill="#A2E576"/>
<path d="M214.429 126.749C214.828 126.938 215.289 126.928 215.73 126.9C218.275 126.745 220.877 126.13 223.175 125.009C225.708 123.772 225.031 121.924 222.404 121.356C220.906 121.027 219.677 121.783 218.385 122.441C217.502 122.89 211.9 125.571 214.429 126.749Z" fill="#A2E576"/>
<path d="M146.904 287.172C148 287.834 149.373 288.503 150.482 287.869C151.53 287.27 151.705 285.747 151.179 284.661C150.654 283.578 149.63 282.835 148.646 282.141C143.896 278.807 112.575 255.611 109.13 260.507C105.772 265.273 120.629 271.347 123.642 273.161C131.393 277.832 139.15 282.503 146.904 287.172Z" fill="#A2E576"/>
<path d="M156.643 288.915C156.151 289.664 156.282 290.691 156.73 291.47C157.181 292.246 157.9 292.829 158.596 293.391C163.202 297.091 167.822 300.807 172.903 303.814C174.397 304.696 176.496 305.445 177.68 304.181C178.466 303.34 178.361 301.944 177.75 300.966C177.142 299.986 176.145 299.326 175.178 298.7C172.915 297.224 158.475 285.841 156.643 288.915Z" fill="#A2E576"/>
<path d="M113.353 307.074C109.986 305.828 105.979 304.78 103.005 306.79C102.571 307.082 102.158 307.454 101.966 307.943C101.344 309.498 103.103 310.898 104.594 311.659C113.871 316.393 123.151 321.13 132.429 325.858C135.934 327.647 139.666 329.488 143.59 329.196C144.945 329.096 146.511 328.521 146.83 327.2C147.069 326.209 146.492 325.209 145.861 324.406C142.514 320.14 136.204 317.91 131.526 315.351C125.681 312.157 119.601 309.387 113.353 307.074Z" fill="#A2E576"/>
<path d="M69.304 310.304C80.1895 315.071 90.6219 320.874 100.415 327.608C101.844 328.59 103.774 329.597 105.163 328.562C106.088 327.875 106.271 326.501 105.889 325.415C105.509 324.323 104.683 323.457 103.866 322.638C97.0014 315.796 88.94 310.157 80.1773 306.018C76.8063 304.43 71.1769 301.132 67.276 302.195C61.3925 303.801 65.783 308.763 69.304 310.304Z" fill="#A2E576"/>
<path d="M51.6742 319.438C51.8409 321.253 53.1724 322.72 54.4867 323.982C59.0542 328.377 64.2526 332.114 69.8694 335.049C71.0646 335.674 72.6643 336.214 73.632 335.279C74.2872 334.646 74.3114 333.607 74.1398 332.717C73.3913 328.873 70.0044 326.184 66.7962 323.944C65.0259 322.706 50.9278 311.135 51.6742 319.438Z" fill="#A2E576"/>
<path d="M122.684 249.608C121.994 249.549 121.273 249.519 120.639 249.794C120.005 250.07 119.489 250.741 119.618 251.421C119.687 251.782 119.916 252.089 120.157 252.362C121.386 253.758 123.047 254.683 124.674 255.581C132.432 259.872 140.229 264.182 148.576 267.174C149.223 267.405 149.993 267.616 150.559 267.221C150.973 266.932 151.138 266.394 151.18 265.891C151.302 264.38 150.55 262.902 149.491 261.81C148.437 260.72 147.098 259.954 145.782 259.204C141.994 257.042 137.94 253.918 133.788 252.589C130.059 251.398 126.509 250.45 122.684 249.608Z" fill="#A2E576"/>
<path d="M154.888 265.926C154.244 266.623 154.165 267.714 154.498 268.602C154.831 269.49 155.51 270.209 156.236 270.818C157.584 271.948 159.144 272.797 160.727 273.564C161.626 274.004 162.566 274.423 163.564 274.473C164.563 274.519 165.643 274.115 166.128 273.238C167.418 270.905 164.4 267.591 162.43 266.693C160.639 265.883 156.443 264.252 154.888 265.926Z" fill="#A2E576"/>
<path d="M169.683 276.874C170.13 277.583 170.814 278.104 171.479 278.611C173.52 280.16 175.559 281.705 177.596 283.256C178.769 284.147 179.96 285.047 181.331 285.594C182.699 286.138 184.288 286.293 185.624 285.677C186.965 285.061 187.932 283.549 187.622 282.108C187.352 280.858 186.265 279.97 185.214 279.234C181.967 276.954 178.414 275.103 174.684 273.745C173.545 273.331 171.975 272.569 170.76 273.112C169.33 273.754 168.881 275.599 169.683 276.874Z" fill="#A2E576"/>
<path d="M93.7195 276.128C93.7353 276.92 94.4488 277.502 95.0943 277.964C104.801 284.887 114.511 291.807 124.217 298.73C125.593 299.71 127.373 300.73 128.866 299.933C129.763 299.457 130.254 298.397 130.24 297.382C130.227 296.368 129.778 295.396 129.184 294.574C128.188 293.204 126.797 292.186 125.422 291.2C120.144 287.4 114.787 283.711 109.356 280.132C106.713 278.388 104.02 276.655 101.074 275.459C99.671 274.888 93.6445 272.667 93.7195 276.128Z" fill="#A2E576"/>
<path d="M134.089 301.132C134.263 304.186 136.897 306.438 139.329 308.286C146.61 313.828 154.03 319.259 162.128 323.516C163.255 324.11 164.644 324.68 165.75 324.035C166.68 323.494 166.994 322.234 166.733 321.19C166.469 320.142 165.75 319.278 165 318.503C161.035 314.414 155.749 311.945 150.859 309.023C147.205 306.845 143.732 304.379 140.324 301.835C138.727 300.64 133.789 295.889 134.089 301.132Z" fill="#A2E576"/>
<path d="M154.309 336.41C155.531 336.775 157.082 336.787 157.834 335.757C159.765 333.126 154.941 328.504 152.217 328.956C146.529 329.893 151.123 335.452 154.309 336.41Z" fill="#A2E576"/>
<path d="M88.4776 292.673C87.1438 291.846 85.8023 290.994 84.2955 290.557C82.7919 290.117 81.0739 290.146 79.7649 291.01C79.5194 291.177 79.2678 291.409 79.2669 291.71C79.2641 291.884 79.3519 292.047 79.4431 292.196C80.2624 293.539 81.5661 294.503 82.8449 295.422C86.9554 298.387 91.1239 301.27 95.3471 304.074C96.0299 304.525 96.7299 304.983 97.5248 305.177C98.3197 305.372 99.2391 305.252 99.8184 304.672C101.773 302.701 99.7087 298.936 97.7676 297.83C94.6915 296.07 91.5045 294.548 88.4776 292.673Z" fill="#A2E576"/>
<path d="M111.34 335.638C116.406 339.8 121.467 343.961 126.531 348.12C127.64 349.034 128.763 349.952 130.059 350.569C131.462 351.236 133.124 351.517 134.57 350.961C136.021 350.407 137.141 348.867 136.88 347.337C136.646 345.945 135.444 344.959 134.315 344.115C129.385 340.439 124.254 337.032 118.95 333.919C116.83 332.672 113.943 330.349 111.348 330.461C107.804 330.611 109.717 334.306 111.34 335.638Z" fill="#A2E576"/>
<path d="M77.3107 341.06C77.8619 341.945 78.6933 342.614 79.4959 343.279C83.3161 346.457 86.826 349.989 90.238 353.601C92.0466 355.515 93.8554 357.478 96.0753 358.894C98.2952 360.31 101.024 361.139 103.588 360.548C103.871 360.48 104.158 360.392 104.372 360.198C104.847 359.764 104.759 358.996 104.568 358.383C104.017 356.643 102.92 355.136 101.753 353.739C98.2544 349.561 93.9745 346.127 89.509 343.043C87.4537 341.622 85.1842 340.41 83.2518 338.831C82.2471 338.009 81.3899 336.718 79.9982 336.603C77.4531 336.388 76.0051 338.955 77.3107 341.06Z" fill="#A2E576"/>
<path d="M71.2903 351.802C69.8286 350.057 68.1319 348.529 66.413 347.042C60.7825 342.181 54.8313 337.684 48.5676 333.675C47.1732 332.781 45.6852 331.887 44.0322 331.777C42.3792 331.667 40.534 332.616 40.2081 334.241C39.8297 336.12 41.5045 337.723 43.0155 338.908C49.9396 344.348 56.8649 349.784 63.7921 355.222C66.2495 357.151 68.9911 359.18 72.113 359.086C72.7562 359.064 73.4216 358.941 73.9361 358.548C76.1046 356.889 72.3727 353.094 71.2903 351.802Z" fill="#A2E576"/>
<path d="M206.245 115.162C207.654 112.677 207.472 109.373 205.794 107.057C205.349 106.448 204.777 105.881 204.051 105.678C203.324 105.471 202.423 105.737 202.101 106.421C201.883 106.878 201.957 107.417 202.038 107.921C202.686 111.979 203.459 116.019 204.354 120.028C204.447 120.44 204.615 120.928 205.026 121.011C205.309 121.068 205.588 120.897 205.814 120.721C207.625 119.274 208.196 116.482 207.096 114.442L206.245 115.162Z" fill="#A2E576"/>
<path d="M192.828 126.59C191.657 123.247 190.491 119.905 189.322 116.566C188.602 114.507 187.719 112.257 185.773 111.274C185.468 111.122 185.132 111.003 184.793 111.031C184.125 111.09 183.623 111.722 183.489 112.377C183.352 113.034 183.5 113.71 183.651 114.362C185.126 120.865 186.604 127.37 188.079 133.872C188.542 135.916 189.048 138.046 190.412 139.638C191.018 140.341 191.96 140.948 192.831 140.631C193.376 140.43 193.739 139.918 193.997 139.4C195.742 135.884 194.031 130.036 192.828 126.59Z" fill="#A2E576"/>
<path d="M169.293 110.378C169.282 111.095 169.54 111.784 169.793 112.451C171.398 116.709 173.003 120.972 174.608 125.23C174.997 126.259 175.615 127.467 176.719 127.511C177.65 127.547 178.364 126.677 178.733 125.818C180.024 122.814 178.981 119.376 177.933 116.28C177.132 113.925 176.717 110.339 174.756 108.646C172.877 107.02 169.331 107.325 169.293 110.378Z" fill="#A2E576"/>
<path d="M177.293 135.025C178.099 137.293 178.905 139.561 179.71 141.825C180.345 143.608 181.021 145.462 182.38 146.779C182.993 147.376 183.95 147.85 184.673 147.398C185.151 147.099 185.343 146.5 185.408 145.942C185.619 144.167 184.947 142.416 184.229 140.779C183.167 138.345 181.924 134.357 180.006 132.486C177.757 130.291 176.29 132.204 177.293 135.025Z" fill="#A2E576"/>
<path d="M148.805 111.325C148.572 112.409 149.314 113.44 150.005 114.309C158.123 124.511 165.101 135.622 170.77 147.363C171.362 148.592 171.994 149.891 173.135 150.644C174.279 151.394 176.095 151.297 176.733 150.089C177.315 148.987 176.673 147.659 176.039 146.585C171.362 138.619 166.681 130.656 162 122.692C159.924 119.155 157.903 115.389 155.299 112.205C154.067 110.7 149.642 107.445 148.805 111.325Z" fill="#A2E576"/>
<path d="M166.031 163.594C166.962 164.829 168.263 166.201 169.771 165.858C170.993 165.579 171.7 164.19 171.628 162.94C171.557 161.685 170.908 160.546 170.255 159.475C162.936 147.451 153.227 136.94 146.679 124.477C144.562 120.451 142.545 115.073 137.976 113.281C132.355 111.08 133.855 115.216 135.91 118.534C142.06 128.466 148.302 138.344 154.886 147.998C158.485 153.28 162.189 158.49 166.031 163.594Z" fill="#A2E576"/>
<path d="M129.862 134.353C130.649 135.439 131.758 136.608 133.082 136.392C134.158 136.215 134.892 135.108 134.987 134.015C135.084 132.926 134.685 131.86 134.255 130.854C133.131 128.243 127.249 115.753 123.061 117.102C118.601 118.537 128.344 132.252 129.862 134.353Z" fill="#A2E576"/>
<path d="M155.894 172.212C156.958 173.565 158.456 175.071 160.112 174.609C161.466 174.228 162.142 172.598 161.94 171.207C161.732 169.815 160.882 168.616 160.058 167.48C157.565 164.035 141.958 137.513 136.644 141.91C132.908 145.004 153.068 168.928 155.894 172.212Z" fill="#A2E576"/>
<path d="M129.793 142.532C129.2 140.912 128.396 139.264 126.967 138.296C125.538 137.328 123.337 137.32 122.286 138.688C121.279 140.001 121.699 141.9 122.422 143.388C123.584 145.785 125.374 147.808 127.143 149.796C128.068 150.837 129.198 151.971 130.591 151.882C132.3 151.77 133.341 149.742 133.056 148.052C132.771 146.361 131.59 144.983 130.454 143.703L129.793 142.532Z" fill="#A2E576"/>
<path d="M115.287 124.522C113.54 123.984 111.739 125.742 111.613 127.568C111.486 129.392 112.533 131.09 113.726 132.479C114.392 133.254 115.14 133.999 116.074 134.416C117.009 134.834 118.164 134.876 119.009 134.297C119.939 133.659 120.289 132.402 120.125 131.282C119.957 130.165 119.364 129.161 118.731 128.224C117.87 126.961 116.914 125.769 115.864 124.658L115.287 124.522Z" fill="#A2E576"/>
<path d="M134.812 161.173C139.083 168.39 143.714 175.398 148.675 182.158C149.267 182.963 149.962 183.831 150.947 183.999C152.728 184.3 153.982 182.118 153.866 180.319C153.69 177.619 151.844 175.359 150.085 173.302C146.712 169.36 143.34 165.419 139.967 161.477C139.154 160.528 137.065 157.012 135.589 157.089C133.285 157.208 134.028 159.878 134.812 161.173Z" fill="#A2E576"/>
<path d="M103.308 139.973C108.705 149.544 114.096 159.113 119.494 168.684C120.061 169.69 120.654 170.728 121.577 171.422C122.502 172.115 123.853 172.379 124.809 171.733C126.382 170.669 125.853 168.257 125.114 166.511C121.723 158.476 117.614 150.744 112.859 143.433C111.206 140.89 108.799 135.577 105.722 134.522C101.705 133.142 101.909 137.49 103.308 139.973Z" fill="#A2E576"/>
<path d="M136.235 193.625C137.046 195.126 138.066 196.869 139.763 197.021C141.621 197.188 143.062 195.138 142.989 193.271C142.914 191.406 141.807 189.759 140.742 188.226C138.63 185.184 133.367 173.168 128.373 177.068C125.875 179.018 127.361 181.273 128.945 183.283C131.59 186.643 134.189 189.834 136.235 193.625Z" fill="#A2E576"/>
<path d="M120.951 185.399C119.088 182.427 117.219 179.445 115.007 176.718C113.01 174.251 110.679 171.963 107.806 170.614C107.233 170.347 106.416 170.181 106.077 170.716C105.935 170.94 105.935 171.222 105.958 171.49C106.1 173.109 106.977 174.555 107.833 175.94C111.203 181.4 114.576 186.863 117.946 192.323C119.691 195.147 121.439 197.973 123.181 200.799C124.216 202.47 125.879 206.92 127.765 207.775C133.172 210.219 131.337 202.321 130.177 200.183C127.424 195.107 124.02 190.294 120.951 185.399Z" fill="#A2E576"/>
<path d="M89.1356 151.803C89.6628 152.835 90.4664 153.694 91.2453 154.555C94.1273 157.741 96.7965 161.117 99.2327 164.651C100.111 165.921 101.323 167.381 102.839 167.107C103.926 166.911 104.67 165.806 104.781 164.711C104.891 163.614 104.501 162.528 104.049 161.523C103.213 159.675 102.143 157.943 101.063 156.222C99.1139 153.123 96.4885 148.459 92.8183 147.111C89.6134 145.932 87.57 148.745 89.1356 151.803Z" fill="#A2E576"/>
<path d="M82.5989 171.804C88.6109 177.924 92.4474 185.822 97.6946 192.61C98.7833 194.022 100.556 195.531 102.131 194.69C103.919 193.734 103.249 191.026 102.231 189.273C99.8839 185.219 96.9721 181.528 94.0714 177.847C90.5157 173.339 86.962 168.835 83.4063 164.327C81.8688 162.376 74.3495 151.397 70.8119 157.274C68.3772 161.309 80.2205 169.388 82.5989 171.804Z" fill="#A2E576"/>
<path d="M116.423 217.468C116.961 218.167 117.554 218.91 118.401 219.158C120.036 219.637 121.629 217.872 121.645 216.169C121.663 214.464 120.638 212.945 119.621 211.575C116.991 208.029 114.137 204.653 111.287 201.284C110.094 199.868 108.468 196.633 106.295 197.647C104.802 198.342 104.628 200.902 104.983 202.208C105.662 204.703 108.845 207.563 110.419 209.619C112.422 212.233 114.424 214.852 116.423 217.468Z" fill="#A2E576"/>
<path d="M86.1805 194.892C85.1242 194.271 83.89 193.702 82.719 194.054C81.0425 194.559 80.4365 196.77 80.9872 198.435C81.536 200.097 82.8667 201.357 84.0478 202.652C86.9961 205.879 89.2367 209.672 91.5985 213.351C92.4399 214.666 93.5004 216.096 95.0495 216.277C99.832 216.838 99.2076 209.692 97.8044 207.133C95.1413 202.259 90.9508 197.71 86.1805 194.892Z" fill="#A2E576"/>
<path d="M105.411 218.81C104.018 218.083 102.168 218.894 101.434 220.282C100.699 221.668 100.917 223.406 101.628 224.805C102.604 226.721 104.482 228.154 106.588 228.59C107.586 228.799 108.741 228.744 109.467 228.03C110.494 227.022 110.145 225.293 109.568 223.971C108.852 222.337 107.899 220.807 106.749 219.444L105.411 218.81Z" fill="#A2E576"/>
<path d="M59.7844 174.11C64.6866 179.546 69.5856 184.984 74.4858 190.416C75.5192 191.564 77.1919 192.794 78.4238 191.865C79.107 191.351 79.2524 190.384 79.1965 189.53C79.0081 186.653 77.2472 184.148 75.5066 181.846C71.195 176.149 66.3796 168.114 59.6945 164.971C58.0881 164.214 55.3863 163.015 54.2991 165.033C52.8237 167.763 58.2753 172.435 59.7844 174.11Z" fill="#A2E576"/>
<path d="M41.5338 171.25C40.0545 170.327 37.8869 169.548 36.7737 170.894C36.2721 171.499 36.2015 172.356 36.2915 173.14C36.6531 176.368 39.1846 178.858 41.5181 181.123C58.2956 197.395 72.2499 216.302 87.6358 233.892C88.7382 235.154 89.8917 236.441 91.3988 237.173C92.9038 237.903 94.8747 237.944 96.1231 236.829C99.9893 233.368 76.6449 206.995 73.4167 202.77C64.3194 190.866 54.3803 179.244 41.5338 171.25Z" fill="#A2E576"/>
<path d="M57.6219 217.492C56.4636 216.562 55.1996 215.624 53.7199 215.482C52.2422 215.344 50.5603 216.368 50.5525 217.85C50.549 218.941 51.3871 219.826 52.1592 220.595C56.3974 224.814 60.2821 229.387 63.7661 234.249C68.2556 240.51 72.1831 247.371 78.178 252.21C81.9317 255.236 84.2086 252.484 83.1167 248.443C82.1792 244.963 79.4388 241.668 77.4223 238.759C71.8852 230.773 65.1966 223.581 57.6219 217.492Z" fill="#A2E576"/>
<path d="M25.7886 187.2C23.142 185.463 19.8578 183.784 16.9543 185.047C15.5797 185.644 14.4527 187.079 14.6897 188.558C14.8428 189.509 15.5066 190.294 16.2023 190.958C18.8931 193.517 22.3848 195.019 25.6213 196.844C31.1141 199.942 36.0074 204.097 39.9606 209.01C40.9031 210.18 41.84 211.438 43.1951 212.092C46.4726 213.679 47.4444 210.92 47.1772 208.394C46.8724 205.534 44.5756 203.409 42.745 201.399C37.763 195.935 31.96 191.251 25.7886 187.2Z" fill="#A2E576"/>
<path d="M20.882 211.497C16.4227 208.223 10.4081 205.019 5.71151 207.943C5.08496 208.333 4.50164 208.845 4.19953 209.519C3.24288 211.665 5.45298 213.806 7.38416 215.143C28.2218 229.606 47.0687 246.937 63.2309 266.488C67.1177 271.188 73.435 270.538 70.7628 263.456C68.1911 256.64 61.0937 249.6 56.4091 244.126C45.9258 231.883 33.8637 221.031 20.882 211.497Z" fill="#A2E576"/>
<path d="M-9.29917 226.913C-8.93814 228.167 -8.10802 229.224 -7.28324 230.233C-2.52465 236.083 2.70459 241.643 8.92704 245.904C10.3194 246.856 11.8103 247.762 13.4772 248.03C15.1441 248.298 17.0375 247.795 17.9922 246.4C18.9045 245.077 18.769 243.242 18.0604 241.798C17.3549 240.351 16.164 239.212 14.9859 238.114C10.1629 233.624 5.16619 228.808 -0.195105 224.969C-2.79543 223.105 -11.1099 220.609 -9.29917 226.913Z" fill="#A2E576"/>
<path d="M32.0164 263.909C38.5906 268.922 43.0271 276.17 48.5532 282.316C49.4199 283.279 50.3482 284.243 51.5349 284.758C52.7247 285.272 54.2391 285.241 55.1783 284.351C56.9103 282.712 55.6143 279.833 54.206 277.904C48.7365 270.435 42.4697 263.548 35.5438 257.399C33.414 255.506 27.6969 250.03 24.8602 253.927C22.092 257.731 29.6944 262.136 32.0164 263.909Z" fill="#A2E576"/>
<path d="M26.1449 284.444C28.2973 286.529 30.5689 288.684 33.4365 289.551C34.1192 289.756 35.0058 289.812 35.3879 289.213C35.6465 288.813 35.5492 288.285 35.4292 287.824C33.2945 279.515 27.4061 272.69 21.054 266.925C16.0173 262.357 10.832 257.186 4.61329 254.268C3.04964 253.537 -4.92574 249.676 -6.35109 251.991C-7.81451 254.369 22.9062 281.307 26.1449 284.444Z" fill="#A2E576"/>
<path d="M2.92169 271.885C-1.35723 267.768 -5.84906 263.779 -11.0546 260.915C-11.7059 260.553 -12.4427 260.202 -13.1713 260.358C-14.2829 260.597 -14.837 261.963 -14.5981 263.074C-14.3592 264.186 -13.5728 265.087 -12.8111 265.929C-3.08984 276.726 6.62937 287.52 16.3537 298.315C18.3426 300.524 20.3315 302.732 22.3768 304.891C23.5162 306.094 24.7242 307.314 26.2662 307.923C29.6129 309.24 32.1975 306.727 30.9211 303.523C29.6992 300.451 25.0873 296.446 22.9475 293.784C16.7488 286.065 10.058 278.746 2.92169 271.885Z" fill="#A2E576"/>
<path d="M8.28468 299.423C6.61719 297.81 4.3814 296.17 2.1817 296.911C1.72763 298.261 2.66347 299.647 3.54398 300.77C6.40834 304.408 9.26956 308.048 12.1339 311.686C13.8154 313.828 15.825 316.15 18.5441 316.355C19.2857 316.411 20.1068 316.262 20.5943 315.698C23.8576 311.937 10.4059 301.466 8.28468 299.423Z" fill="#A2E576"/>
<path d="M255.662 386.246C252.373 369.637 245.941 348 226.423 320.394C234.832 373.716 248.65 393.914 258.1 402.027C258.1 402.027 256.253 389.231 255.662 386.246Z" fill="#A2E576"/>
<path d="M227.232 321.547C229.159 326.449 231.401 331.198 232.919 336.357C235.355 344.636 238.287 352.79 240.745 361.207C243.053 369.101 246.542 376.547 249.58 383.98C250.964 387.364 252.378 390.284 254.074 393.447C255.446 396.006 256.056 399.147 257.554 401.547C257.738 401.712 257.92 401.871 258.1 402.027C258.1 402.027 256.253 389.231 255.662 386.246C252.42 369.868 246.118 348.603 227.232 321.547Z" fill="#43825C"/>
<path d="M265.65 371.877C262.965 355.121 257.32 333.201 238.829 304.744C245.308 358.44 258.379 379.244 267.518 387.765C267.518 387.765 266.133 374.888 265.65 371.877Z" fill="#A2E576"/>
<path d="M239.596 305.932C241.343 310.918 243.409 315.765 244.74 320.992C246.877 329.378 249.509 337.661 251.661 346.185C253.679 354.183 256.895 361.781 259.664 369.347C260.921 372.791 262.228 375.774 263.807 379.008C265.085 381.631 265.581 384.801 266.993 387.266C267.167 387.436 267.345 387.604 267.518 387.765C267.518 387.765 266.133 374.888 265.65 371.877C263.005 355.356 257.477 333.813 239.596 305.932Z" fill="#43825C"/>
<path d="M276.239 359.737C274.554 343.422 270.302 321.94 254.057 293.332C257.417 345.482 268.862 366.366 277.187 375.165C277.187 375.165 276.545 362.669 276.239 359.737Z" fill="#A2E576"/>
<path d="M254.73 294.527C256.142 299.443 257.867 304.245 258.868 309.367C260.473 317.584 262.56 325.733 264.172 334.085C265.686 341.92 268.367 349.447 270.623 356.915C271.649 360.313 272.748 363.273 274.089 366.491C275.178 369.099 275.486 372.182 276.71 374.648C276.868 374.825 277.03 375 277.187 375.165C277.187 375.165 276.545 362.669 276.239 359.737C274.579 343.65 270.418 322.539 254.73 294.527Z" fill="#43825C"/>
<path d="M286.03 348.841C285.763 333.388 283.513 312.846 270.651 284.467C269.612 333.663 278.616 354.339 285.678 363.39C285.678 363.39 286.077 351.617 286.03 348.841Z" fill="#A2E576"/>
<path d="M271.185 285.652C272.109 290.396 273.332 295.063 273.855 299.959C274.696 307.814 275.991 315.653 276.828 323.635C277.609 331.123 279.51 338.436 281.015 345.653C281.703 348.937 282.486 351.816 283.483 354.961C284.288 357.509 284.331 360.431 285.271 362.859C285.407 363.04 285.544 363.218 285.678 363.39C285.678 363.39 286.077 351.617 286.03 348.841C285.765 333.604 283.576 313.419 271.185 285.652Z" fill="#43825C"/>
<path d="M297.49 334.619C297.237 319.857 295.088 300.233 282.802 273.124C281.81 320.12 290.412 339.871 297.155 348.518C297.155 348.518 297.538 337.271 297.49 334.619Z" fill="#A2E576"/>
<path d="M283.31 274.255C284.194 278.787 285.364 283.245 285.863 287.922C286.664 295.427 287.903 302.915 288.7 310.54C289.448 317.694 291.263 324.68 292.703 331.573C293.357 334.71 294.108 337.461 295.059 340.466C295.829 342.9 295.868 345.691 296.77 348.011C296.898 348.184 297.026 348.353 297.156 348.518C297.156 348.518 297.538 337.271 297.49 334.619C297.241 320.063 295.149 300.781 283.31 274.255Z" fill="#43825C"/>
<path d="M308.976 322.628C309.535 309.345 308.657 291.57 299.095 266.414C295.701 308.588 302.352 326.893 307.933 335.099C307.933 335.099 308.876 325.015 308.976 322.628Z" fill="#A2E576"/>
<path d="M299.489 267.464C300.039 271.593 300.849 275.676 301.047 279.911C301.365 286.707 302.075 293.517 302.385 300.422C302.674 306.899 303.927 313.295 304.849 319.583C305.269 322.444 305.794 324.965 306.485 327.727C307.045 329.964 306.932 332.475 307.615 334.618C307.722 334.782 307.827 334.942 307.933 335.098C307.933 335.098 308.877 325.015 308.976 322.628C309.526 309.53 308.679 292.065 299.489 267.464Z" fill="#43825C"/>
<path d="M319.168 311.698C319.727 299.868 319.031 284.03 310.635 261.566C307.412 299.115 313.249 315.459 318.18 322.801C318.18 322.801 319.069 313.824 319.168 311.698Z" fill="#A2E576"/>
<path d="M310.983 262.503C311.449 266.185 312.155 269.826 312.311 273.601C312.563 279.656 313.16 285.726 313.402 291.879C313.63 297.65 314.718 303.355 315.507 308.962C315.866 311.513 316.323 313.762 316.926 316.226C317.413 318.222 317.3 320.457 317.898 322.371C317.993 322.517 318.088 322.661 318.18 322.801C318.18 322.801 319.069 313.824 319.168 311.699C319.721 300.034 319.05 284.471 310.983 262.503Z" fill="#43825C"/>
<path d="M327.7 303.898C328.685 292.72 328.633 277.687 321.562 256.022C317.075 291.435 321.963 307.186 326.34 314.367C326.34 314.367 327.524 305.907 327.7 303.898Z" fill="#A2E576"/>
<path d="M321.854 256.925C322.155 260.434 322.681 263.916 322.684 267.498C322.687 273.244 323.022 279.022 323.013 284.86C323.006 290.337 323.812 295.79 324.344 301.136C324.586 303.57 324.933 305.72 325.408 308.082C325.792 309.995 325.599 312.108 326.091 313.947C326.174 314.09 326.26 314.231 326.34 314.367C326.34 314.367 327.524 305.907 327.7 303.898C328.671 292.876 328.634 278.105 321.854 256.925Z" fill="#43825C"/>
<path d="M337.36 292.777C338.143 282.323 337.909 268.283 331.035 248.155C327.277 281.296 332.04 295.933 336.22 302.575C336.22 302.575 337.223 294.656 337.36 292.777Z" fill="#A2E576"/>
<path d="M331.319 248.995C331.642 252.267 332.174 255.511 332.224 258.856C332.298 264.223 332.68 269.614 332.746 275.066C332.807 280.181 333.629 285.263 334.192 290.248C334.447 292.517 334.797 294.52 335.269 296.719C335.655 298.5 335.498 300.476 335.982 302.187C336.06 302.319 336.141 302.449 336.22 302.575C336.22 302.575 337.223 294.656 337.36 292.777C338.133 282.469 337.916 268.675 331.319 248.995Z" fill="#43825C"/>
<path d="M346.875 286.115C348.555 276.493 349.623 263.428 345.116 243.976C338.613 274.338 341.673 288.458 344.927 295.088C344.927 295.088 346.576 287.844 346.875 286.115Z" fill="#A2E576"/>
<path d="M345.299 244.787C345.3 247.862 345.496 250.933 345.234 254.045C344.814 259.038 344.671 264.086 344.234 269.157C343.823 273.914 344.117 278.724 344.181 283.416C344.21 285.551 344.35 287.45 344.584 289.544C344.774 291.241 344.451 293.058 344.741 294.701C344.803 294.832 344.863 294.962 344.927 295.088C344.927 295.088 346.576 287.844 346.875 286.115C348.531 276.627 349.594 263.792 345.299 244.787Z" fill="#43825C"/>
<path d="M354.819 278.371C356.94 269.936 358.748 258.388 356.026 240.708C348.263 267.228 350.049 280.044 352.5 286.207C352.5 286.207 354.437 279.887 354.819 278.371Z" fill="#A2E576"/>
<path d="M356.139 241.445C355.935 244.183 355.908 246.934 355.47 249.684C354.768 254.096 354.312 258.581 353.589 263.061C352.912 267.265 352.857 271.57 352.607 275.754C352.49 277.658 352.49 279.36 352.561 281.243C352.62 282.769 352.212 284.362 352.359 285.847C352.408 285.969 352.454 286.09 352.5 286.207C352.5 286.207 354.437 279.887 354.819 278.372C356.909 270.054 358.697 258.71 356.139 241.445Z" fill="#43825C"/>
<path d="M363.517 273.849C367.294 266.103 371.399 255.228 372.364 237.227C359.439 261.313 358.557 274.315 359.673 280.958C359.673 280.958 362.841 275.241 363.517 273.849Z" fill="#A2E576"/>
<path d="M372.322 237.977C371.569 240.611 370.982 243.3 369.999 245.889C368.418 250.041 367.063 254.325 365.45 258.539C363.935 262.492 363.005 266.699 361.907 270.738C361.409 272.576 361.059 274.244 360.745 276.108C360.49 277.618 359.771 279.079 359.613 280.571C359.633 280.702 359.653 280.832 359.673 280.958C359.673 280.958 362.841 275.241 363.517 273.849C367.24 266.211 371.283 255.53 372.322 237.977Z" fill="#43825C"/>
<path d="M318.376 330.793C330.462 330.201 346.634 331.196 369.508 341.747C331.128 345.406 314.483 338.064 307.027 331.917C307.027 331.917 316.205 330.899 318.376 330.793Z" fill="#A2E576"/>
<path d="M368.553 341.31C364.797 340.7 361.085 339.802 357.232 339.577C351.046 339.216 344.852 338.425 338.569 338.074C332.677 337.746 326.859 336.357 321.14 335.334C318.536 334.869 316.245 334.287 313.733 333.522C311.699 332.902 309.412 333.023 307.463 332.269C307.316 332.151 307.168 332.034 307.027 331.917C307.027 331.917 316.205 330.899 318.376 330.793C330.295 330.209 346.186 331.169 368.553 341.31Z" fill="#43825C"/>
<path d="M329.735 321.917C340.483 320.884 354.923 321.089 375.666 329.506C341.603 334.371 326.519 328.544 319.664 323.393C319.664 323.393 327.802 322.103 329.735 321.917Z" fill="#A2E576"/>
<path d="M374.801 329.159C371.434 328.775 368.094 328.132 364.653 328.094C359.132 328.032 353.586 327.59 347.977 327.542C342.715 327.497 337.487 326.507 332.356 325.838C330.019 325.534 327.957 325.112 325.693 324.538C323.857 324.073 321.826 324.276 320.065 323.688C319.928 323.589 319.793 323.491 319.664 323.393C319.664 323.393 327.802 322.103 329.735 321.917C340.33 320.898 354.521 321.084 374.801 329.159Z" fill="#43825C"/>
<path d="M337.674 312C347.867 312.063 361.435 313.652 380.273 323.613C347.84 324.918 334.119 317.953 328.082 312.422C328.082 312.422 335.841 311.989 337.674 312Z" fill="#A2E576"/>
<path d="M379.488 323.201C376.351 322.512 373.26 321.582 370.026 321.213C364.838 320.621 359.655 319.667 354.383 319.079C349.439 318.528 344.599 317.088 339.825 315.959C337.652 315.446 335.744 314.848 333.661 314.086C331.974 313.47 330.048 313.466 328.437 312.739C328.315 312.633 328.197 312.527 328.082 312.422C328.082 312.422 335.841 311.989 337.674 312C347.723 312.061 361.057 313.608 379.488 323.201Z" fill="#43825C"/>
<path d="M343.859 301.744C353.353 300.592 366.138 300.454 384.652 307.437C354.591 312.492 341.134 307.674 334.971 303.272C334.971 303.272 342.151 301.951 343.859 301.744Z" fill="#A2E576"/>
<path d="M383.878 307.149C380.891 306.884 377.925 306.39 374.877 306.432C369.99 306.5 365.074 306.231 360.109 306.313C355.452 306.39 350.802 305.63 346.248 305.152C344.177 304.935 342.342 304.608 340.327 304.15C338.697 303.779 336.904 304.005 335.331 303.523C335.21 303.439 335.089 303.355 334.971 303.272C334.971 303.272 342.151 301.951 343.856 301.744C353.218 300.608 365.781 300.459 383.878 307.149Z" fill="#43825C"/>
<path d="M353.056 293.066C361.924 292.354 373.821 292.712 390.82 299.923C362.702 303.49 350.338 298.488 344.745 294.151C344.745 294.151 351.466 293.194 353.056 293.066Z" fill="#A2E576"/>
<path d="M390.109 299.626C387.341 299.265 384.597 298.691 381.761 298.615C377.213 298.492 372.647 298.054 368.027 297.942C363.692 297.836 359.394 296.952 355.175 296.333C353.253 296.052 351.56 295.677 349.698 295.174C348.193 294.766 346.518 294.908 345.072 294.4C344.96 294.317 344.851 294.234 344.745 294.151C344.745 294.151 351.466 293.194 353.056 293.066C361.799 292.364 373.49 292.703 390.109 299.626Z" fill="#43825C"/>
<path d="M360.977 284.654C368.888 284.298 379.472 284.993 394.419 291.96C369.292 294.254 358.412 289.403 353.545 285.359C353.545 285.359 359.555 284.717 360.977 284.654Z" fill="#A2E576"/>
<path d="M393.796 291.672C391.338 291.263 388.911 290.665 386.387 290.507C382.342 290.254 378.29 289.72 374.179 289.474C370.321 289.243 366.517 288.318 362.773 287.634C361.071 287.322 359.573 286.935 357.93 286.428C356.6 286.017 355.103 286.09 353.828 285.591C353.734 285.513 353.636 285.436 353.545 285.359C353.545 285.359 359.555 284.717 360.977 284.654C368.777 284.303 379.176 284.974 393.796 291.672Z" fill="#43825C"/>
<path d="M366.048 276.029C373.649 273.388 384.091 270.976 400.286 273.304C376.435 282.806 364.706 281.324 359.005 278.865C359.005 278.865 364.683 276.503 366.048 276.029Z" fill="#A2E576"/>
<path d="M399.61 273.209C397.125 273.532 394.624 273.665 392.135 274.247C388.147 275.181 384.083 275.848 380.029 276.807C376.23 277.708 372.313 277.928 368.513 278.36C366.785 278.557 365.237 278.622 363.519 278.614C362.128 278.607 360.694 279.112 359.338 279.004C359.224 278.958 359.113 278.912 359.005 278.865C359.005 278.865 364.683 276.503 366.048 276.029C373.543 273.425 383.8 271.044 399.61 273.209Z" fill="#43825C"/>
<path d="M368.872 275.634C377.986 270.017 389.619 261.518 403.212 244.465C373.724 261.32 363.726 273.544 360.141 280.594C360.141 280.594 367.234 276.643 368.872 275.634Z" fill="#A2E576"/>
<path d="M402.644 245.175C400.06 247.357 397.599 249.678 394.822 251.696C390.37 254.935 386.04 258.415 381.512 261.697C377.262 264.775 373.399 268.4 369.495 271.775C367.718 273.311 366.208 274.758 364.59 276.414C363.281 277.756 361.557 278.812 360.351 280.186C360.281 280.324 360.208 280.46 360.141 280.594C360.141 280.594 367.234 276.643 368.872 275.634C377.859 270.095 389.293 261.755 402.644 245.175Z" fill="#43825C"/>
<path d="M222.779 501.466C225.743 468.781 236.541 440.315 255.211 406.473C283.982 354.318 349.648 287.452 349.648 287.452L364.858 275.751L351.586 289.114C351.586 289.114 291.581 349.381 260.612 404.728C230.019 459.4 232.131 500.463 232.131 500.463C232.131 500.463 231.931 504.563 227.106 506.042C222.281 507.525 222.629 503.134 222.779 501.466Z" fill="#A2E576"/>
<path d="M269.696 325.632C266.11 334.156 262.506 342.722 257.678 350.61C246.459 368.942 229.095 382.815 210.43 393.481C202.223 398.172 193.596 402.358 184.351 404.339C170.277 407.358 155.112 404.97 142.648 397.768C130.182 390.57 120.536 378.629 116.122 364.928C115.235 362.183 114.535 359.329 113.043 356.859C111.914 354.989 110.373 353.409 108.926 351.771C98.1579 339.597 92.1203 322.333 96.5698 306.705C98.8361 298.743 103.612 291.703 109.127 285.53C119.309 274.135 132.534 265.132 147.401 261.594C156.61 259.403 166.2 259.333 175.643 259.964C192.575 261.093 209.305 264.427 225.666 268.935C232.949 270.941 240.181 273.186 247.117 276.18C260.99 282.167 273.602 291.121 288.078 295.449C287.352 295.232 281.968 298.903 281.264 299.602C279.433 301.422 278.727 304.146 277.732 306.514C275.054 312.887 272.374 319.259 269.696 325.632Z" fill="#51A874"/>
<path d="M265.041 320.955C262.647 313.464 259.512 306.213 255.707 299.332C252.626 299.997 249.419 300.724 246.108 301.516C252.419 307.994 258.729 314.476 265.041 320.955Z" fill="#A2E576"/>
<path d="M230.344 305.572C224.895 307.075 219.289 308.726 213.615 310.524C229.336 321.691 243.446 335.121 255.368 350.274C250.29 333.84 241.682 318.51 230.344 305.572Z" fill="#A2E576"/>
<path d="M192.316 317.911C185.702 320.418 179.139 323.123 172.762 326.024C170.636 326.992 168.577 327.94 166.581 328.872C184.545 341.509 200.078 357.599 212.047 376.015C209.46 355.587 202.698 335.696 192.316 317.911Z" fill="#A2E576"/>
<path d="M150.04 336.865C140.735 341.535 133.354 345.576 127.589 348.931C147.154 359.442 164.339 374.37 177.441 392.305C176.886 387.13 174.893 382.222 172.775 377.467C166.457 363.276 158.832 349.669 150.04 336.865Z" fill="#A2E576"/>
<path d="M221.526 308.793C227.43 307.088 233.193 305.548 238.707 304.177C234.886 293.658 231.064 283.14 227.243 272.622C227.369 282.849 226.097 293.093 223.476 302.978C222.955 304.946 222.356 306.935 221.526 308.793Z" fill="#A2E576"/>
<path d="M250.663 301.377C253.804 300.685 256.825 300.057 259.696 299.492C258.773 293.773 256.682 288.239 253.557 283.358C252.888 287.775 252.218 292.195 251.545 296.614C251.304 298.206 251.054 299.817 250.663 301.377Z" fill="#A2E576"/>
<path d="M159.802 332.162C152.766 312.996 142.058 295.191 131.456 277.64C135.296 283.999 135.955 295.409 137.101 302.661C138.458 311.261 139.246 319.948 139.454 328.65C139.547 332.581 138.226 338.134 138.051 342.986C144.197 339.747 151.403 336.132 159.802 332.162Z" fill="#A2E576"/>
<path d="M185.375 320.973C191.738 318.481 198.17 316.177 204.552 314.054C197.42 298.354 189.781 282.884 181.646 267.676C185.668 283.267 187.121 299.517 185.925 315.57C185.794 317.367 185.619 319.176 185.375 320.973Z" fill="#A2E576"/>
<path d="M54.8953 403.901C54.0652 404.945 53.2172 406.045 52.9419 407.352C52.2569 410.602 55.2174 413.363 57.8684 415.36C72.7397 389.977 95.1196 369.054 121.45 355.925C123.745 354.779 126.421 353.163 126.406 350.596C126.356 342.323 113.126 352.275 111.089 353.56C103.926 358.084 97.0185 363.012 90.4079 368.309C77.3048 378.81 65.3613 390.763 54.8953 403.901Z" fill="#51A874"/>
</svg>
