<svg width="30" height="30" viewBox="0 0 30 30" fill="none" xmlns="http://www.w3.org/2000/svg">
<path d="M15 17.0588L5.70588 11.7488L0.0258799 14.9741L15 23.5294L29.9741 14.9741L24.2941 11.7488L15 17.0588Z" fill="#694F87"/>
<path d="M15 23.5294L5.70588 18.2194L0.0258799 21.4447L15 30L29.9741 21.4447L24.2941 18.2194L15 23.5294Z" fill="#556080"/>
<path d="M23.5553 12.9412C23.8802 12.9412 24.1435 12.6778 24.1435 12.3529C24.1435 12.0281 23.8802 11.7647 23.5553 11.7647C23.2304 11.7647 22.9671 12.0281 22.9671 12.3529C22.9671 12.6778 23.2304 12.9412 23.5553 12.9412Z" fill="#BF4D90"/>
<path d="M25.32 14.7059C25.6449 14.7059 25.9082 14.4425 25.9082 14.1176C25.9082 13.7928 25.6449 13.5294 25.32 13.5294C24.9951 13.5294 24.7318 13.7928 24.7318 14.1176C24.7318 14.4425 24.9951 14.7059 25.32 14.7059Z" fill="#BF4D90"/>
<path d="M5.90823 12.9412C6.23311 12.9412 6.49647 12.6778 6.49647 12.3529C6.49647 12.0281 6.23311 11.7647 5.90823 11.7647C5.58336 11.7647 5.32 12.0281 5.32 12.3529C5.32 12.6778 5.58336 12.9412 5.90823 12.9412Z" fill="#BF4D90"/>
<path d="M21.7906 14.7059C22.1155 14.7059 22.3788 14.4425 22.3788 14.1176C22.3788 13.7928 22.1155 13.5294 21.7906 13.5294C21.4657 13.5294 21.2023 13.7928 21.2023 14.1176C21.2023 14.4425 21.4657 14.7059 21.7906 14.7059Z" fill="#BF4D90"/>
<path d="M4.14353 14.7059C4.4684 14.7059 4.73176 14.4425 4.73176 14.1176C4.73176 13.7928 4.4684 13.5294 4.14353 13.5294C3.81865 13.5294 3.55529 13.7928 3.55529 14.1176C3.55529 14.4425 3.81865 14.7059 4.14353 14.7059Z" fill="#BF4D90"/>
<path d="M7.67294 14.7059C7.99781 14.7059 8.26117 14.4425 8.26117 14.1176C8.26117 13.7928 7.99781 13.5294 7.67294 13.5294C7.34807 13.5294 7.0847 13.7928 7.0847 14.1176C7.0847 14.4425 7.34807 14.7059 7.67294 14.7059Z" fill="#BF4D90"/>
<path d="M5.90823 16.4706C6.23311 16.4706 6.49647 16.2072 6.49647 15.8824C6.49647 15.5575 6.23311 15.2941 5.90823 15.2941C5.58336 15.2941 5.32 15.5575 5.32 15.8824C5.32 16.2072 5.58336 16.4706 5.90823 16.4706Z" fill="#BF4D90"/>
<path d="M9.43765 16.4706C9.76252 16.4706 10.0259 16.2072 10.0259 15.8824C10.0259 15.5575 9.76252 15.2941 9.43765 15.2941C9.11277 15.2941 8.84941 15.5575 8.84941 15.8824C8.84941 16.2072 9.11277 16.4706 9.43765 16.4706Z" fill="#BF4D90"/>
<path d="M9.43765 20C9.76252 20 10.0259 19.7366 10.0259 19.4118C10.0259 19.0869 9.76252 18.8235 9.43765 18.8235C9.11277 18.8235 8.84941 19.0869 8.84941 19.4118C8.84941 19.7366 9.11277 20 9.43765 20Z" fill="#BF4D90"/>
<path d="M7.67294 18.2353C7.99781 18.2353 8.26117 17.9719 8.26117 17.6471C8.26117 17.3222 7.99781 17.0588 7.67294 17.0588C7.34807 17.0588 7.0847 17.3222 7.0847 17.6471C7.0847 17.9719 7.34807 18.2353 7.67294 18.2353Z" fill="#BF4D90"/>
<path d="M11.2024 18.2353C11.5272 18.2353 11.7906 17.9719 11.7906 17.6471C11.7906 17.3222 11.5272 17.0588 11.2024 17.0588C10.8775 17.0588 10.6141 17.3222 10.6141 17.6471C10.6141 17.9719 10.8775 18.2353 11.2024 18.2353Z" fill="#BF4D90"/>
<path d="M12.9671 20C13.2919 20 13.5553 19.7366 13.5553 19.4118C13.5553 19.0869 13.2919 18.8235 12.9671 18.8235C12.6422 18.8235 12.3788 19.0869 12.3788 19.4118C12.3788 19.7366 12.6422 20 12.9671 20Z" fill="#BF4D90"/>
<path d="M16.4965 20C16.8213 20 17.0847 19.7366 17.0847 19.4118C17.0847 19.0869 16.8213 18.8235 16.4965 18.8235C16.1716 18.8235 15.9082 19.0869 15.9082 19.4118C15.9082 19.7366 16.1716 20 16.4965 20Z" fill="#BF4D90"/>
<path d="M14.7318 18.2353C15.0566 18.2353 15.32 17.9719 15.32 17.6471C15.32 17.3222 15.0566 17.0588 14.7318 17.0588C14.4069 17.0588 14.1435 17.3222 14.1435 17.6471C14.1435 17.9719 14.4069 18.2353 14.7318 18.2353Z" fill="#BF4D90"/>
<path d="M18.2612 18.2353C18.586 18.2353 18.8494 17.9719 18.8494 17.6471C18.8494 17.3222 18.586 17.0588 18.2612 17.0588C17.9363 17.0588 17.6729 17.3222 17.6729 17.6471C17.6729 17.9719 17.9363 18.2353 18.2612 18.2353Z" fill="#BF4D90"/>
<path d="M14.7318 21.7647C15.0566 21.7647 15.32 21.5013 15.32 21.1765C15.32 20.8516 15.0566 20.5882 14.7318 20.5882C14.4069 20.5882 14.1435 20.8516 14.1435 21.1765C14.1435 21.5013 14.4069 21.7647 14.7318 21.7647Z" fill="#BF4D90"/>
<path d="M20.0259 16.4706C20.3508 16.4706 20.6141 16.2072 20.6141 15.8824C20.6141 15.5575 20.3508 15.2941 20.0259 15.2941C19.701 15.2941 19.4376 15.5575 19.4376 15.8824C19.4376 16.2072 19.701 16.4706 20.0259 16.4706Z" fill="#BF4D90"/>
<path d="M23.5553 16.4706C23.8802 16.4706 24.1435 16.2072 24.1435 15.8824C24.1435 15.5575 23.8802 15.2941 23.5553 15.2941C23.2304 15.2941 22.9671 15.5575 22.9671 15.8824C22.9671 16.2072 23.2304 16.4706 23.5553 16.4706Z" fill="#BF4D90"/>
<path d="M20.0259 20C20.3508 20 20.6141 19.7366 20.6141 19.4118C20.6141 19.0869 20.3508 18.8235 20.0259 18.8235C19.701 18.8235 19.4376 19.0869 19.4376 19.4118C19.4376 19.7366 19.701 20 20.0259 20Z" fill="#BF4D90"/>
<path d="M21.7906 18.2353C22.1155 18.2353 22.3788 17.9719 22.3788 17.6471C22.3788 17.3222 22.1155 17.0588 21.7906 17.0588C21.4657 17.0588 21.2023 17.3222 21.2023 17.6471C21.2023 17.9719 21.4657 18.2353 21.7906 18.2353Z" fill="#BF4D90"/>
<path d="M27.0847 16.4706C27.4096 16.4706 27.6729 16.2072 27.6729 15.8824C27.6729 15.5575 27.4096 15.2941 27.0847 15.2941C26.7598 15.2941 26.4965 15.5575 26.4965 15.8824C26.4965 16.2072 26.7598 16.4706 27.0847 16.4706Z" fill="#BF4D90"/>
<path d="M29.9741 8.50353L15 17.0588L0.0258799 8.50353L15 0L29.9741 8.50353Z" fill="#BF4D90"/>
</svg>
