<svg width="30" height="30" viewBox="0 0 30 30" fill="none" xmlns="http://www.w3.org/2000/svg">
<g clip-path="url(#clip0)">
<path d="M29.4827 3.6207H0.517212V26.3793H29.4827V3.6207Z" fill="#C3E1ED" stroke="#E7ECED" stroke-width="2" stroke-miterlimit="10"/>
<path d="M8.27587 12.4852C10.1524 12.4852 11.6736 10.964 11.6736 9.08743C11.6736 7.2109 10.1524 5.68967 8.27587 5.68967C6.39934 5.68967 4.87811 7.2109 4.87811 9.08743C4.87811 10.964 6.39934 12.4852 8.27587 12.4852Z" fill="#ED8A19"/>
<path d="M28.9655 18.6781L28.4483 18.1034L22.2414 12.4138L16.8104 18.3621L19.6464 21.1981L21.7242 23.2759H28.9655V18.6781Z" fill="#1A9172"/>
<path d="M1.03448 25.3448H13.4483L11.3705 23.2671L5.69845 17.595L1.03448 21.7014V25.3448Z" fill="#1A9172"/>
<path d="M28.9655 23.2759H1.03448V25.8621H28.9655V23.2759Z" fill="#6B5B4B"/>
<path d="M19.6464 21.1981L13.9743 15.526L5.17242 23.2759H21.7241L19.6464 21.1981Z" fill="#25AE88"/>
</g>
<defs>
<clipPath id="clip0">
<rect width="30" height="30" fill="white"/>
</clipPath>
</defs>
</svg>
