<svg width="30" height="30" viewBox="0 0 30 30" fill="none" xmlns="http://www.w3.org/2000/svg">
<path d="M22.6271 0H0.254242V29.4915H22.6271V0Z" fill="#BFA380"/>
<path d="M4.32204 0H0.254242V29.4915H4.32204V0Z" fill="#6B5B4B"/>
<path d="M19.0678 5.08475H7.88136V11.1864H19.0678V5.08475Z" fill="#EDEADA"/>
<path d="M17.0339 6.61017H9.91525V7.62712H17.0339V6.61017Z" fill="#CEC9AE"/>
<path d="M17.0339 8.64407H9.91525V9.66102H17.0339V8.64407Z" fill="#CEC9AE"/>
<path d="M27.7119 3.55932H25.678V5.59322H27.7119V3.55932Z" fill="#E0E1E2"/>
<path d="M27.7119 0H26.6873C26.548 0 26.4153 0.0284746 26.2942 0.079322C26.2337 0.104746 26.1763 0.135763 26.1229 0.172373C25.8544 0.353898 25.678 0.661017 25.678 1.00932V3.55932H27.7119V0Z" fill="#D75A4A"/>
<path d="M28.7364 0C28.8758 0 29.0085 0.0284746 29.1295 0.079322C29.0085 0.0284746 28.8758 0 28.7364 0Z" fill="#D75A4A"/>
<path d="M29.7458 5.59322H27.7119V24.9153H29.7458V5.59322Z" fill="#DB7B1B"/>
<path d="M29.7458 3.55932H27.7119V5.59322H29.7458V3.55932Z" fill="#C4C4C4"/>
<path d="M29.7458 1.00933C29.7458 0.661023 29.5693 0.353904 29.3008 0.172379C29.5693 0.353904 29.7458 0.661023 29.7458 1.00933Z" fill="#D75A4A"/>
<path d="M29.7458 3.55932V1.00932C29.7458 0.661017 29.5693 0.353898 29.3009 0.172373C29.2475 0.136271 29.1895 0.104746 29.1295 0.079322C29.0085 0.0284746 28.8758 0 28.7364 0H27.7119V3.55932H29.7458Z" fill="#B74C44"/>
<path d="M29.7458 24.9153H25.678L27.7119 28.4746L29.7458 24.9153Z" fill="#EBD6BD"/>
<path d="M27.2034 29.4915C27.2034 29.7727 27.4307 30 27.7119 30C27.9931 30 28.2203 29.7727 28.2203 29.4915V27.4576H27.2034V29.4915Z" fill="#4C4C4C"/>
<path d="M27.7119 5.59322H25.678V24.9153H27.7119V5.59322Z" fill="#ED8A19"/>
</svg>
