<svg width="30" height="26" viewBox="0 0 30 26" fill="none" xmlns="http://www.w3.org/2000/svg">
<path d="M18.1034 5.24138V7.66569C18.1034 8.04069 17.7993 8.34483 17.4243 8.34483H12.5752C12.2007 8.34483 11.8966 8.04069 11.8966 7.66569V5.24138H1.90241C0.851897 5.24138 0 6.09328 0 7.14379V24.0286C0 25.0791 0.851897 25.931 1.90241 25.931H28.0976C29.1481 25.931 30 25.0791 30 24.0286V7.14379C30 6.09328 29.1481 5.24138 28.0976 5.24138H18.1034Z" fill="#E7ECED"/>
<path d="M17.4243 0.0689659H12.5752C12.2007 0.0689659 11.8966 0.373104 11.8966 0.748104V7.66621C11.8966 8.04069 12.2007 8.34483 12.5757 8.34483H17.4248C17.7993 8.34483 18.1035 8.04069 18.1035 7.66569V0.748104C18.1035 0.373104 17.7993 0.0689659 17.4243 0.0689659ZM15 4.72414C14.1429 4.72414 13.4483 4.02948 13.4483 3.17241C13.4483 2.31535 14.1429 1.62069 15 1.62069C15.8571 1.62069 16.5517 2.31535 16.5517 3.17241C16.5517 4.02948 15.8571 4.72414 15 4.72414Z" fill="#424A60"/>
<path d="M11.4755 19.8048L9.52707 18.8097C9.39414 18.7414 9.31034 18.6048 9.31034 18.4553V17.859C10.3102 17.4281 10.8848 16.5912 11.1647 15.5443C11.5862 15.4134 11.8966 15.0234 11.8966 14.5605V14.0433C11.8966 13.6471 11.6684 13.3052 11.339 13.1314C11.1109 11.186 9.825 10.3988 7.75862 10.3988C7.66086 10.3988 7.56465 10.4024 7.47052 10.4102C6.7681 10.466 6.05741 10.3341 5.47293 9.94C5.22983 9.77655 5.02552 9.60224 4.88172 9.41965C4.81603 9.33637 4.68517 9.38965 4.69707 9.49465C4.71776 9.67569 4.74879 9.88672 4.79431 10.1174C4.965 10.976 4.8631 10.8509 4.53103 11.6609C4.34741 12.1088 4.22896 12.6059 4.17414 13.1324C3.84724 13.3078 3.62069 13.6486 3.62069 14.0433V14.5605C3.62069 15.0234 3.93103 15.4134 4.35258 15.5443C4.63241 16.5907 5.20655 17.4281 6.2069 17.859V18.4512C6.2069 18.6028 6.12103 18.7409 5.985 18.8081L3.98793 19.7914C3.44276 20.0888 3.10345 20.6603 3.10345 21.281V21.7548C3.10345 21.7548 3.10345 21.894 3.10345 21.9664C3.10345 22.5509 5.18741 22.8364 7.75862 22.8364C10.3298 22.8364 12.4138 22.5509 12.4138 21.9664C12.4138 21.894 12.4138 21.7548 12.4138 21.7548V21.3224C12.4138 20.68 12.0507 20.0924 11.4755 19.8048Z" fill="#26B99A"/>
<path d="M26.5293 20.3914C26.4357 20.4891 26.3793 20.6241 26.3793 20.7586C26.3793 20.8931 26.431 21.0276 26.5293 21.1259C26.6271 21.219 26.7621 21.2759 26.8966 21.2759C27.031 21.2759 27.1655 21.219 27.2638 21.1259C27.3569 21.0276 27.4138 20.8931 27.4138 20.7586C27.4138 20.6241 27.3569 20.4891 27.2638 20.3914C27.0724 20.2052 26.7259 20.2 26.5293 20.3914Z" fill="#AFB6BB"/>
<path d="M15.5172 12.4921H20.6897C20.9757 12.4921 21.2069 12.2609 21.2069 11.9748C21.2069 11.6888 20.9757 11.4576 20.6897 11.4576H15.5172C15.2312 11.4576 15 11.6888 15 11.9748C15 12.2609 15.2312 12.4921 15.5172 12.4921Z" fill="#AFB6BB"/>
<path d="M16.0345 20.2507H15.5172C15.2312 20.2507 15 20.4819 15 20.7679C15 21.054 15.2312 21.2852 15.5172 21.2852H16.0345C16.3205 21.2852 16.5517 21.054 16.5517 20.7679C16.5517 20.4819 16.3205 20.2507 16.0345 20.2507Z" fill="#AFB6BB"/>
<path d="M19.1379 20.2507H18.1035C17.8174 20.2507 17.5862 20.4819 17.5862 20.7679C17.5862 21.054 17.8174 21.2852 18.1035 21.2852H19.1379C19.424 21.2852 19.6552 21.054 19.6552 20.7679C19.6552 20.4819 19.424 20.2507 19.1379 20.2507Z" fill="#AFB6BB"/>
<path d="M21.7241 20.2507H21.2069C20.9209 20.2507 20.6897 20.4819 20.6897 20.7679C20.6897 21.054 20.9209 21.2852 21.2069 21.2852H21.7241C22.0102 21.2852 22.2414 21.054 22.2414 20.7679C22.2414 20.4819 22.0102 20.2507 21.7241 20.2507Z" fill="#AFB6BB"/>
<path d="M24.8276 20.2507H23.7931C23.5071 20.2507 23.2759 20.4819 23.2759 20.7679C23.2759 21.054 23.5071 21.2852 23.7931 21.2852H24.8276C25.1136 21.2852 25.3448 21.054 25.3448 20.7679C25.3448 20.4819 25.1136 20.2507 24.8276 20.2507Z" fill="#AFB6BB"/>
<path d="M15.5172 15.5955H26.8965C27.1826 15.5955 27.4138 15.3643 27.4138 15.0783C27.4138 14.7922 27.1826 14.561 26.8965 14.561H15.5172C15.2312 14.561 15 14.7922 15 15.0783C15 15.3643 15.2312 15.5955 15.5172 15.5955Z" fill="#AFB6BB"/>
<path d="M26.8965 17.6645H15.5172C15.2312 17.6645 15 17.8957 15 18.1817C15 18.4678 15.2312 18.699 15.5172 18.699H26.8965C27.1826 18.699 27.4138 18.4678 27.4138 18.1817C27.4138 17.8957 27.1826 17.6645 26.8965 17.6645Z" fill="#AFB6BB"/>
</svg>
