<svg width="600" height="333" viewBox="0 0 600 333" fill="none" xmlns="http://www.w3.org/2000/svg">
<path d="M300.5 247C344.959 247 381 210.959 381 166.5C381 122.041 344.959 86 300.5 86C256.041 86 220 122.041 220 166.5C220 210.959 256.041 247 300.5 247Z" fill="#3BB873"/>
<path d="M342.138 166.5L281.069 208.138V167.258V124.862L342.138 166.5Z" fill="white"/>
<path d="M281.069 210.914C280.625 210.914 280.178 210.808 279.773 210.592C278.863 210.112 278.293 209.168 278.293 208.138V124.862C278.293 123.832 278.863 122.888 279.773 122.408C280.683 121.925 281.783 121.992 282.635 122.569L343.704 164.207C344.459 164.723 344.914 165.581 344.914 166.5C344.914 167.419 344.459 168.277 343.701 168.793L282.632 210.431C282.163 210.75 281.616 210.914 281.069 210.914ZM283.845 130.117V202.886L337.211 166.5L283.845 130.117Z" fill="white"/>
</svg>
