<svg width="50" height="50" viewBox="0 0 50 50" fill="none" xmlns="http://www.w3.org/2000/svg">
<path d="M10.8438 13.75H2.40625C1.62962 13.75 1 13.1204 1 12.3438V3.90625C1 3.12962 1.62962 2.5 2.40625 2.5H10.8438C11.6204 2.5 12.25 3.12962 12.25 3.90625V12.3438C12.25 13.1204 11.6204 13.75 10.8438 13.75Z" fill="url(#paint0_linear)"/>
<path d="M10.8438 30.625H2.40625C1.62962 30.625 1 29.9954 1 29.2188V20.7812C1 20.0046 1.62962 19.375 2.40625 19.375H10.8438C11.6204 19.375 12.25 20.0046 12.25 20.7812V29.2188C12.25 29.9954 11.6204 30.625 10.8438 30.625Z" fill="url(#paint1_linear)"/>
<path d="M10.8438 47.5H2.40625C1.62962 47.5 1 46.8704 1 46.0938V37.6562C1 36.8796 1.62962 36.25 2.40625 36.25H10.8438C11.6204 36.25 12.25 36.8796 12.25 37.6562V46.0938C12.25 46.8704 11.6204 47.5 10.8438 47.5Z" fill="url(#paint2_linear)"/>
<path d="M47.5938 13.75H16.4688C15.6921 13.75 15.0625 13.1204 15.0625 12.3438V3.90625C15.0625 3.12962 15.6921 2.5 16.4688 2.5H47.5938C48.3704 2.5 49 3.12962 49 3.90625V12.3438C49 13.1204 48.3704 13.75 47.5938 13.75Z" fill="url(#paint3_linear)"/>
<path d="M47.5938 30.625H16.4688C15.6921 30.625 15.0625 29.9954 15.0625 29.2188V20.7812C15.0625 20.0046 15.6921 19.375 16.4688 19.375H47.5938C48.3704 19.375 49 20.0046 49 20.7812V29.2188C49 29.9954 48.3704 30.625 47.5938 30.625Z" fill="url(#paint4_linear)"/>
<path d="M47.5938 47.5H16.4688C15.6921 47.5 15.0625 46.8704 15.0625 46.0938V37.6562C15.0625 36.8796 15.6921 36.25 16.4688 36.25H47.5938C48.3704 36.25 49 36.8796 49 37.6562V46.0938C49 46.8704 48.3704 47.5 47.5938 47.5Z" fill="url(#paint5_linear)"/>
<defs>
<linearGradient id="paint0_linear" x1="6.625" y1="13.75" x2="6.625" y2="2.5" gradientUnits="userSpaceOnUse">
<stop stop-color="#A93AFF"/>
<stop offset="1" stop-color="#FF81FF"/>
</linearGradient>
<linearGradient id="paint1_linear" x1="6.625" y1="30.625" x2="6.625" y2="19.375" gradientUnits="userSpaceOnUse">
<stop stop-color="#A93AFF"/>
<stop offset="1" stop-color="#FF81FF"/>
</linearGradient>
<linearGradient id="paint2_linear" x1="6.625" y1="47.5" x2="6.625" y2="36.25" gradientUnits="userSpaceOnUse">
<stop stop-color="#A93AFF"/>
<stop offset="1" stop-color="#FF81FF"/>
</linearGradient>
<linearGradient id="paint3_linear" x1="32.0312" y1="13.75" x2="32.0312" y2="2.5" gradientUnits="userSpaceOnUse">
<stop stop-color="#A93AFF"/>
<stop offset="1" stop-color="#FF81FF"/>
</linearGradient>
<linearGradient id="paint4_linear" x1="32.0312" y1="30.625" x2="32.0312" y2="19.375" gradientUnits="userSpaceOnUse">
<stop stop-color="#A93AFF"/>
<stop offset="1" stop-color="#FF81FF"/>
</linearGradient>
<linearGradient id="paint5_linear" x1="32.0312" y1="47.5" x2="32.0312" y2="36.25" gradientUnits="userSpaceOnUse">
<stop stop-color="#A93AFF"/>
<stop offset="1" stop-color="#FF81FF"/>
</linearGradient>
</defs>
</svg>
