<svg width="40" height="40" viewBox="0 0 40 40" fill="none" xmlns="http://www.w3.org/2000/svg">
<path d="M38.63 16.1538H36.4785C36.0538 14.3269 35.3354 12.6138 34.3715 11.0669L35.8931 9.54539C36.4277 9.01077 36.4277 8.14308 35.8931 7.60846L32.3908 4.10615C31.8562 3.57154 30.9885 3.57154 30.4538 4.10615L28.9323 5.62769C27.3862 4.66462 25.6731 3.94615 23.8462 3.52154V1.37C23.8462 0.613077 23.2331 0 22.4762 0H17.5231C16.7669 0 16.1538 0.613077 16.1538 1.37V3.52154C14.3269 3.94615 12.6138 4.66462 11.0669 5.62846L9.54615 4.10692C9.01154 3.57231 8.14385 3.57231 7.60923 4.10692L4.10692 7.60923C3.57231 8.14385 3.57231 9.01154 4.10692 9.54615L5.62846 11.0677C4.66462 12.6138 3.94615 14.3269 3.52154 16.1538H1.37C0.613077 16.1538 0 16.7669 0 17.5238V22.4769C0 23.2331 0.613077 23.8462 1.37 23.8462H3.52154C3.94615 25.6731 4.66462 27.3862 5.62846 28.9331L4.10692 30.4538C3.57231 30.9892 3.57231 31.8562 4.10692 32.3908L7.60923 35.8931C8.14385 36.4277 9.01154 36.4277 9.54615 35.8931L11.0677 34.3715C12.6146 35.3346 14.3277 36.0538 16.1546 36.4785V38.63C16.1538 39.3869 16.7669 40 17.5238 40H22.4769C23.2331 40 23.8462 39.3869 23.8462 38.63V36.4785C25.6731 36.0538 27.3862 35.3354 28.9331 34.3715L30.4546 35.8931C30.9892 36.4277 31.8569 36.4277 32.3915 35.8931L35.8938 32.3908C36.4285 31.8562 36.4285 30.9885 35.8938 30.4538L34.3723 28.9323C35.3354 27.3862 36.0538 25.6723 36.4792 23.8454H38.6308C39.3869 23.8462 40 23.2331 40 22.4762V17.5231C40 16.7669 39.3869 16.1538 38.63 16.1538ZM20 26.9231C16.1762 26.9231 13.0769 23.8231 13.0769 20C13.0769 16.1762 16.1762 13.0769 20 13.0769C23.8238 13.0769 26.9231 16.1762 26.9231 20C26.9231 23.8231 23.8238 26.9231 20 26.9231Z" fill="#E7ECED"/>
<path d="M20 10C14.4769 10 10 14.4769 10 20C10 25.5231 14.4769 30 20 30C25.5231 30 30 25.5231 30 20C30 14.4769 25.5231 10 20 10ZM20 26.9231C16.1762 26.9231 13.0769 23.8231 13.0769 20C13.0769 16.1762 16.1762 13.0769 20 13.0769C23.8238 13.0769 26.9231 16.1762 26.9231 20C26.9231 23.8231 23.8238 26.9231 20 26.9231Z" fill="#C7CAC7"/>
</svg>
