<?xml version="1.0" encoding="iso-8859-1"?>
<!-- Generator: Adobe Illustrator 16.0.0, SVG Export Plug-In . SVG Version: 6.00 Build 0)  -->
<!DOCTYPE svg PUBLIC "-//W3C//DTD SVG 1.1//EN" "http://www.w3.org/Graphics/SVG/1.1/DTD/svg11.dtd">
<svg version="1.1" id="Capa_1" xmlns="http://www.w3.org/2000/svg" xmlns:xlink="http://www.w3.org/1999/xlink" x="0px" y="0px"
	 width="612.02px" height="612.02px" viewBox="0 0 612.02 612.02" style="enable-background:new 0 0 612.02 612.02;"
	 xml:space="preserve">
<g>
	<g id="_x31__13_">
		<g>
			<path d="M591.772,378.146l-47.37-27.582c2.651-14.484,4.406-29.273,4.406-44.555c0-15.259-1.734-30.07-4.406-44.555l47.37-27.582
				c19.36-11.261,25.99-36.211,14.811-55.735l-40.454-70.668c-11.18-19.523-35.926-26.194-55.286-14.933l-47.86,27.867
				c-22.358-19.197-47.778-34.885-76.033-44.963V40.801C386.949,18.259,368.834,0,346.495,0h-80.93
				c-22.339,0-40.455,18.279-40.455,40.801v34.62c-28.275,10.098-53.694,25.787-76.074,44.983l-47.86-27.867
				c-19.36-11.261-44.106-4.59-55.266,14.933L5.437,178.139c-11.18,19.503-4.549,44.474,14.811,55.735l47.371,27.582
				c-2.652,14.485-4.407,29.295-4.407,44.555c0,15.26,1.734,30.07,4.407,44.555l-47.371,27.582
				c-19.36,11.262-25.99,36.232-14.811,55.734l40.475,70.668c11.18,19.504,35.926,26.195,55.266,14.934l47.86-27.867
				c22.359,19.197,47.778,34.885,76.034,44.963v34.641c0,22.523,18.116,40.801,40.454,40.801h80.93
				c22.339,0,40.454-18.277,40.454-40.801V536.6c28.256-10.078,53.675-25.766,76.034-44.963l47.859,27.867
				c19.36,11.26,44.106,4.568,55.286-14.934l40.454-70.668C617.763,414.357,611.133,389.408,591.772,378.146z M561.437,431.148
				l-20.237,35.334c-5.59,9.752-17.953,13.098-27.644,7.467l-56.203-32.723c-28.541,32.457-67.099,55.734-110.878,64.689v44.902
				c0,11.262-9.058,20.4-20.237,20.4h-40.475c-11.18,0-20.238-9.139-20.238-20.4v-44.902c-43.78-8.955-82.337-32.232-110.877-64.689
				l-56.204,32.723c-9.67,5.631-22.053,2.285-27.643-7.467l-20.197-35.334c-5.59-9.752-2.265-22.236,7.405-27.867l56.428-32.865
				c-6.711-20.279-10.751-41.822-10.751-64.406c0-22.583,4.019-44.126,10.751-64.425l-56.449-32.866
				c-9.67-5.61-12.975-18.095-7.385-27.847l20.237-35.334c5.59-9.751,17.953-13.097,27.643-7.467l56.204,32.723
				c28.521-32.458,67.078-55.734,110.857-64.69V61.202c0-11.261,9.058-20.401,20.238-20.401h40.475
				c11.18,0,20.237,9.14,20.237,20.401v44.902c43.779,8.956,82.337,32.253,110.878,64.69l56.203-32.723
				c9.67-5.63,22.054-2.285,27.644,7.467l20.237,35.334c5.59,9.751,2.265,22.237-7.405,27.867l-56.449,32.866
				c6.732,20.298,10.751,41.842,10.751,64.404c0,22.584-4.019,44.107-10.751,64.406l56.449,32.865
				C563.701,408.912,567.026,421.396,561.437,431.148z M306.02,204.007c-55.877,0-101.167,45.677-101.167,102.003
				c0,56.326,45.29,102.004,101.167,102.004s101.167-45.678,101.167-102.004C407.167,249.684,361.877,204.007,306.02,204.007z
				 M306.02,367.213c-33.519,0-60.692-27.398-60.692-61.203c0-33.803,27.173-61.202,60.692-61.202
				c33.518,0,60.692,27.398,60.692,61.202C366.712,339.814,339.538,367.213,306.02,367.213z"/>
		</g>
	</g>
</g>
<g>
</g>
<g>
</g>
<g>
</g>
<g>
</g>
<g>
</g>
<g>
</g>
<g>
</g>
<g>
</g>
<g>
</g>
<g>
</g>
<g>
</g>
<g>
</g>
<g>
</g>
<g>
</g>
<g>
</g>
</svg>
