<svg width="15" height="15" viewBox="0 0 15 15" fill="none" xmlns="http://www.w3.org/2000/svg">
<path fill-rule="evenodd" clip-rule="evenodd" d="M0 7.5C0 3.35786 3.35786 0 7.5 0C9.56272 0 11.4314 0.833248 12.7868 2.18022C12.9988 2.0654 13.2419 2 13.5 2C14.3284 2 15 2.67157 15 3.5C15 3.97045 14.7836 4.38972 14.4453 4.66454C14.803 5.5398 15 6.49741 15 7.5C15 11.6421 11.6421 15 7.5 15C3.35786 15 0 11.6421 0 7.5ZM13.502 5C13.5013 5 13.5007 5 13.5 5C12.6716 5 12 4.32843 12 3.5C12 3.29573 12.041 3.10065 12.1152 2.92288C10.9369 1.73482 9.30455 1 7.5 1C3.91015 1 1 3.91015 1 7.5C1 11.0899 3.91015 14 7.5 14C11.0899 14 14 11.0899 14 7.5C14 6.61329 13.8227 5.76907 13.502 5ZM13.5 3C13.347 3 13.2105 3.06807 13.118 3.17736C13.0441 3.26468 13 3.37655 13 3.5C13 3.77614 13.2239 4 13.5 4C13.5538 4 13.6047 3.99167 13.6521 3.97659C13.8544 3.91214 14 3.72242 14 3.5C14 3.22386 13.7761 3 13.5 3ZM3.5 6H2V5H4.5C4.68939 5 4.86252 5.107 4.94721 5.27639C5.03191 5.44579 5.01363 5.64849 4.9 5.8L3.94878 7.06829C4.55798 7.25905 5 7.82791 5 8.5C5 9.32843 4.32843 10 3.5 10H2V9H3.5C3.77614 9 4 8.77614 4 8.5C4 8.22386 3.77614 8 3.5 8H3C2.81061 8 2.63748 7.893 2.55279 7.72361C2.46809 7.55421 2.48637 7.35151 2.6 7.2L3.5 6ZM6 6.5C6 5.67157 6.67157 5 7.5 5H8V6H7.5C7.22386 6 7 6.22386 7 6.5V7H7.5C8.32843 7 9 7.67157 9 8.5C9 9.32843 8.32843 10 7.5 10C6.67157 10 6 9.32843 6 8.5V6.5ZM7 8V8.5C7 8.77614 7.22386 9 7.5 9C7.77614 9 8 8.77614 8 8.5C8 8.22386 7.77614 8 7.5 8H7ZM10 6.5C10 5.67157 10.6716 5 11.5 5C12.3284 5 13 5.67157 13 6.5V8.5C13 9.32843 12.3284 10 11.5 10C10.6716 10 10 9.32843 10 8.5V6.5ZM11.5 6C11.2239 6 11 6.22386 11 6.5V8.5C11 8.77614 11.2239 9 11.5 9C11.7761 9 12 8.77614 12 8.5V6.5C12 6.22386 11.7761 6 11.5 6Z" fill="black"/>
</svg>
