<svg width="20" height="20" viewBox="0 0 20 20" fill="none" xmlns="http://www.w3.org/2000/svg">
<path d="M9.624 11.866C9.483 11.998 10.103 12.524 10.286 12.284C10.337 12.238 10.893 11.674 10.948 11.62C10.948 11.62 11.686 12.339 11.762 12.339C11.862 12.339 11.969 12.284 12.084 12.169C12.354 11.9 12.219 11.753 12.15 11.674L11.519 11.058L12.177 10.39C12.323 10.234 12.198 10.076 12.077 9.94101C11.895 9.76101 11.718 9.71501 11.606 9.81601L10.95 10.47L10.296 9.81601C10.263 9.78201 10.216 9.77101 10.172 9.77101C10.093 9.77101 9.981 9.83901 9.865 9.95201C9.663 10.154 9.618 10.303 9.732 10.414L10.397 11.079L9.624 11.866Z" fill="black"/>
<path d="M11.066 2.88403C10.005 2.88403 8.88101 3.13203 8.05501 3.48803C7.96801 3.52203 7.91401 3.59403 7.90501 3.69303C7.89301 3.78403 7.91901 3.90903 7.98201 4.06603C8.03201 4.20203 8.16901 4.54003 8.43401 4.43803C9.27801 4.11203 10.213 3.93103 11.067 3.93103C12.03 3.93103 12.967 4.12203 13.848 4.49503C14.543 4.78703 15.205 5.21403 15.926 5.83503C15.977 5.87903 16.031 5.90303 16.09 5.90303C16.233 5.90303 16.363 5.76603 16.479 5.63203C16.67 5.41803 16.803 5.23703 16.614 5.05703C15.928 4.40303 15.178 3.91903 14.251 3.52403C13.24 3.09703 12.168 2.88403 11.066 2.88403Z" fill="black"/>
<path d="M16.43 15.7471C16.338 15.7191 16.188 15.7971 16.121 15.8661C15.469 16.5181 14.701 17.0351 13.853 17.3871C12.976 17.7581 12.039 17.9381 11.074 17.9381C10.113 17.9381 9.178 17.7491 8.299 17.3741C7.451 17.0141 6.687 16.4951 6.031 15.8441C5.349 15.1561 4.835 14.3891 4.502 13.5761C4.177 12.7771 4.031 11.9331 4.031 11.9331C3.986 11.6931 3.773 11.6841 3.464 11.7301C3.336 11.7511 2.945 11.8091 2.981 12.0901V12.1001C3.086 12.7441 3.27 13.3841 3.526 13.9951C3.943 14.9641 4.528 15.8441 5.282 16.5991C6.039 17.3531 6.918 17.9391 7.886 18.3561C8.901 18.7851 9.97 19.0001 11.088 19.0001C12.192 19.0001 13.274 18.7851 14.276 18.3551C16.114 17.4591 16.88 16.5981 16.88 16.5981C17.062 16.3941 17.107 16.2811 16.78 15.9551C16.779 15.9561 16.525 15.7741 16.43 15.7471Z" fill="black"/>
<path d="M5.633 13.287C5.926 13.997 6.356 14.628 6.895 15.169C7.435 15.709 8.067 16.14 8.777 16.433C9.508 16.736 10.286 16.894 11.075 16.894C11.876 16.894 12.653 16.736 13.372 16.433C14.083 16.14 14.716 15.709 15.255 15.169C15.798 14.628 16.226 13.997 16.519 13.287C16.833 12.566 16.982 11.787 16.982 10.989C16.982 10.199 16.834 9.42 16.519 8.7C16.226 8.001 15.798 7.371 15.255 6.819C14.716 6.278 14.083 5.86 13.388 5.556C12.667 5.253 11.888 5.095 11.089 5.095C10.287 5.095 9.476 5.254 8.767 5.556C8.19 5.806 7.223 6.423 6.648 7.01V7.022V2.108H14.808C15.1 2.104 15.1 1.69 15.1 1.552C15.1 1.417 15.1 1 14.809 1H5.915C5.676 1 5.527 1.192 5.527 1.384V8.224C5.527 8.438 5.8 8.596 6.056 8.652C6.556 8.757 6.67 8.596 6.793 8.428C6.973 8.155 7.569 7.544 7.58 7.534C8.481 6.629 9.697 6.126 10.996 6.126C12.281 6.126 13.496 6.627 14.408 7.534C15.322 8.448 15.816 9.656 15.816 10.939C15.816 12.227 15.308 13.435 14.408 14.344C13.508 15.24 12.256 15.75 10.97 15.75C10.093 15.75 9.259 15.521 8.537 15.079V10.921C8.537 10.368 8.774 9.77 9.18 9.307C9.642 8.788 10.274 8.508 10.962 8.508C11.626 8.508 12.255 8.761 12.72 9.223C13.179 9.682 13.429 10.294 13.429 10.946C13.429 12.331 12.335 13.414 10.941 13.414C10.668 13.414 10.172 13.293 10.16 13.289C9.879 13.202 9.755 13.595 9.722 13.725C9.563 14.221 9.801 14.31 9.845 14.332C10.297 14.469 10.588 14.489 10.974 14.489C12.947 14.489 14.546 12.889 14.546 10.919C14.546 8.955 12.946 7.367 10.974 7.367C10.004 7.367 9.102 7.727 8.428 8.405C7.772 9.036 7.401 9.892 7.401 10.727V14.165V14.154C7.029 13.734 6.669 13.113 6.42 12.472C6.318 12.224 6.105 12.27 5.813 12.359C5.678 12.394 5.294 12.516 5.373 12.798C5.372 12.799 5.577 13.164 5.633 13.287Z" fill="black"/>
</svg>
