<svg width="15" height="13" viewBox="0 0 15 13" fill="none" xmlns="http://www.w3.org/2000/svg">
<path fill-rule="evenodd" clip-rule="evenodd" d="M4.5 1C3.67157 1 3 1.67157 3 2.5C3 3.32843 3.67157 4 4.5 4C5.32843 4 6 3.32843 6 2.5C6 1.67157 5.32843 1 4.5 1ZM2.05001 2C2.28164 0.85888 3.29052 0 4.5 0C5.70948 5.96046e-08 6.71836 0.85888 6.94999 2L15 2V3L6.94999 3C6.71836 4.14112 5.70948 5 4.5 5C3.29052 5 2.28164 4.14112 2.05001 3H0V2L2.05001 2ZM10.5 9C9.67157 9 9 9.67157 9 10.5C9 11.3284 9.67157 12 10.5 12C11.3284 12 12 11.3284 12 10.5C12 9.67157 11.3284 9 10.5 9ZM8.05001 10C8.28164 8.85888 9.29052 8 10.5 8C11.7095 8 12.7184 8.85888 12.95 10L15 10L15 11L12.95 11C12.7184 12.1411 11.7095 13 10.5 13C9.29052 13 8.28164 12.1411 8.05001 11H0V10H8.05001Z" fill="black"/>
</svg>
