<svg width="13" height="15" viewBox="0 0 13 15" fill="none" xmlns="http://www.w3.org/2000/svg">
<path fill-rule="evenodd" clip-rule="evenodd" d="M2 8.05001L2 0H3L3 8.05001C4.14112 8.28164 5 9.29052 5 10.5C5 11.7095 4.14112 12.7184 3 12.95V15H2V12.95C0.85888 12.7184 0 11.7095 0 10.5C0 9.29052 0.85888 8.28164 2 8.05001ZM10 2.05001L10 0H11L11 2.05001C12.1411 2.28164 13 3.29052 13 4.5C13 5.70948 12.1411 6.71836 11 6.94999V15H10V6.94999C8.85888 6.71836 8 5.70948 8 4.5C8 3.29052 8.85888 2.28164 10 2.05001ZM10.5 3C9.67157 3 9 3.67157 9 4.5C9 5.32843 9.67157 6 10.5 6C11.3284 6 12 5.32843 12 4.5C12 3.67157 11.3284 3 10.5 3ZM2.5 9C1.67157 9 1 9.67157 1 10.5C1 11.3284 1.67157 12 2.5 12C3.32843 12 4 11.3284 4 10.5C4 9.67157 3.32843 9 2.5 9Z" fill="black"/>
</svg>
