<svg width="15" height="15" viewBox="0 0 15 15" fill="none" xmlns="http://www.w3.org/2000/svg">
<path fill-rule="evenodd" clip-rule="evenodd" d="M3.46115 0.375972C5.34025 0.141084 7 1.60628 7 3.50001V15H4V6.64559C3.82332 6.6536 3.64326 6.64681 3.46115 6.62404L3.14071 6.58399C2.59386 6.51563 2.07432 6.30575 1.63344 5.97509L0 4.75001V2.25001L1.63344 1.02492C2.07432 0.694263 2.59386 0.484383 3.14071 0.416027L3.46115 0.375972ZM5 6.43264V14H6V5.80148C5.71105 6.07107 5.37204 6.28648 5 6.43264ZM6 3.50001C6 2.20778 4.86743 1.20797 3.58518 1.36825L3.26474 1.4083C2.89058 1.45508 2.5351 1.59868 2.23344 1.82492L1 2.75001V4.25001L2.23344 5.17509C2.5351 5.40133 2.89058 5.54494 3.26474 5.59171L3.58518 5.63176C4.86743 5.79204 6 4.79223 6 3.50001ZM11.4148 1.36825C10.1326 1.20797 9 2.20778 9 3.50001C9 4.79223 10.1326 5.79204 11.4148 5.63176L11.7353 5.59171C12.1094 5.54494 12.4649 5.40133 12.7666 5.17509L14 4.25001V2.75001L12.7666 1.82492C12.4649 1.59868 12.1094 1.45508 11.7353 1.40831L11.4148 1.36825ZM8 3.50001C8 1.60628 9.65975 0.141084 11.5389 0.375972L11.8593 0.416027C12.4061 0.484383 12.9257 0.694263 13.3666 1.02492L15 2.25001V4.75001L13.3666 5.97509C12.9257 6.30575 12.4061 6.51563 11.8593 6.58399L11.5389 6.62404C11.3567 6.64681 11.1767 6.6536 11 6.64559V15H8V3.50001ZM10 6.43264C9.62796 6.28648 9.28895 6.07107 9 5.80148V14H10V6.43264ZM4 4.00001H2V3.00001H4V4.00001ZM13 4.00001H11V3.00001H13V4.00001Z" fill="black"/>
</svg>
