<svg width="20" height="20" viewBox="0 0 20 20" fill="none" xmlns="http://www.w3.org/2000/svg">
<path fill-rule="evenodd" clip-rule="evenodd" d="M3 3.5C3 2.67157 3.67157 2 4.5 2H16.5C17.3284 2 18 2.67157 18 3.5V15.5C18 16.3284 17.3284 17 16.5 17H4.5C3.67157 17 3 16.3284 3 15.5V3.5ZM4.5 3C4.22386 3 4 3.22386 4 3.5V8.29289L7.14645 5.14645C7.34171 4.95118 7.65829 4.95118 7.85355 5.14645L14.7071 12H17V3.5C17 3.22386 16.7761 3 16.5 3H4.5ZM17 13H4V15.5C4 15.7761 4.22386 16 4.5 16H16.5C16.7761 16 17 15.7761 17 15.5V13ZM4 12H13.2929L7.5 6.20711L4 9.70711V12ZM12 6.5C12 5.67157 12.6716 5 13.5 5C14.3284 5 15 5.67157 15 6.5C15 7.32843 14.3284 8 13.5 8C12.6716 8 12 7.32843 12 6.5ZM13.5 6C13.2239 6 13 6.22386 13 6.5C13 6.77614 13.2239 7 13.5 7C13.7761 7 14 6.77614 14 6.5C14 6.22386 13.7761 6 13.5 6Z" fill="black"/>
</svg>
