<svg width="13" height="15" viewBox="0 0 13 15" fill="none" xmlns="http://www.w3.org/2000/svg">
<path fill-rule="evenodd" clip-rule="evenodd" d="M2.03895 1.4032C3.12742 0.513857 4.62921 0 6.50143 0C8.3736 0 9.8754 0.513637 10.9639 1.40289C12.0528 2.29247 12.691 3.52818 12.885 4.90135C13.2542 7.35354 12.7336 9.67721 11.3312 11.717C10.6626 12.7066 9.77338 13.6863 8.73107 14.3436L8.72397 14.3481C7.29273 15.2174 5.71016 15.2173 4.27893 14.348L4.27175 14.3437C3.22961 13.6865 2.34058 12.7069 1.67199 11.7175C0.263769 9.6799 -0.257388 7.3535 0.117939 4.90075C0.312085 3.52819 0.950249 2.29273 2.03895 1.4032ZM2.67167 2.17758C1.79577 2.89324 1.26981 3.8934 1.10772 5.04335L1.10688 5.04934C0.768538 7.25624 1.23402 9.32596 2.49606 11.151L2.49919 11.1555C3.1161 12.069 3.91168 12.9333 4.80164 13.4955C5.91166 14.1682 7.0912 14.1682 8.20122 13.4955C9.09118 12.9333 9.88677 12.069 10.5037 11.1555L10.5061 11.152C11.7634 9.324 12.2287 7.25558 11.8958 5.04811L11.8951 5.04333C11.733 3.89299 11.2071 2.89285 10.3312 2.17731C9.45429 1.4609 8.18955 1 6.50143 1C4.81336 1 3.54861 1.46107 2.67167 2.17758ZM3.56154 5.75766L5.73631 7.96046L5.02469 8.66303L2.84992 6.46022L3.56154 5.75766ZM10.1529 6.46022L7.97816 8.66303L7.26654 7.96046L9.44131 5.75766L10.1529 6.46022ZM5.26481 10.7759L5.72211 10.9781C5.81865 11.0207 5.92118 11.083 6.00241 11.1336C6.04103 11.1577 6.07597 11.1798 6.10983 11.2013C6.16017 11.2333 6.20813 11.2637 6.26229 11.2966C6.34788 11.3487 6.41868 11.388 6.4754 11.4134C6.48558 11.4179 6.49422 11.4215 6.50142 11.4244C6.50863 11.4215 6.51727 11.4179 6.52745 11.4134C6.58417 11.388 6.65497 11.3487 6.74056 11.2966C6.79472 11.2637 6.84269 11.2333 6.89304 11.2013C6.92689 11.1798 6.96182 11.1577 7.00044 11.1336C7.08167 11.083 7.1842 11.0207 7.28074 10.9781L7.73804 10.7759L8.14236 11.6905L7.68505 11.8927C7.6612 11.9032 7.61369 11.9297 7.52937 11.9823C7.50467 11.9977 7.47512 12.0164 7.44317 12.0366C7.38524 12.0733 7.31941 12.115 7.26021 12.151C7.16336 12.2099 7.05037 12.2749 6.93605 12.3261C6.83197 12.3727 6.67455 12.4324 6.50142 12.4324C6.3283 12.4324 6.17088 12.3727 6.0668 12.3261C5.95248 12.2749 5.83949 12.2099 5.74264 12.151C5.68344 12.115 5.6176 12.0733 5.55968 12.0366C5.52772 12.0164 5.49818 11.9977 5.47348 11.9823C5.38916 11.9297 5.34165 11.9032 5.3178 11.8927L4.86049 11.6905L5.26481 10.7759Z" fill="black"/>
</svg>
