<svg width="13" height="11" viewBox="0 0 13 11" fill="none" xmlns="http://www.w3.org/2000/svg">
<path fill-rule="evenodd" clip-rule="evenodd" d="M2.71104 3.21795L1.08397 0.777356L1.91603 0.222656L3.56634 2.69813C4.44766 2.25161 5.44445 2.00001 6.5 2.00001C7.55555 2.00001 8.55234 2.25161 9.43366 2.69813L11.084 0.222656L11.916 0.777356L10.289 3.21795C11.9307 4.39772 13 6.32399 13 8.50001V11H0V8.50001C0 6.32399 1.06927 4.39772 2.71104 3.21795ZM6.5 3.00001C3.46243 3.00001 1 5.46244 1 8.50001V10H12V8.50001C12 5.46244 9.53757 3.00001 6.5 3.00001ZM4 8.00001H3V7.00001H4V8.00001ZM10 8.00001H9V7.00001H10V8.00001Z" fill="black"/>
</svg>
