<svg width="15" height="15" viewBox="0 0 15 15" fill="none" xmlns="http://www.w3.org/2000/svg">
<path fill-rule="evenodd" clip-rule="evenodd" d="M7.36264 0.019238C7.45241 -0.00641268 7.54758 -0.00641268 7.63736 0.019238L14.6374 2.01924C14.8719 2.08626 15.0239 2.31276 14.9969 2.55522L13.9969 11.5552C13.9782 11.7238 13.8753 11.8714 13.7236 11.9472L7.7236 14.9472C7.58284 15.0176 7.41715 15.0176 7.27639 14.9472L1.27639 11.9472C1.12469 11.8714 1.02178 11.7238 1.00305 11.5552L0.00305443 2.55522C-0.0238851 2.31276 0.128074 2.08626 0.362636 2.01924L7.36264 0.019238ZM1.04359 2.86469L1.9669 11.1744L7.5 13.941L13.0331 11.1744L13.9564 2.86469L7.5 1.02001L1.04359 2.86469ZM7.5 1.75255L11.4581 10.7996L10.5419 11.2004L9.57924 9H5.42075L4.45808 11.2004L3.54192 10.7996L7.5 1.75255ZM5.85825 8H9.14174L7.5 4.24745L5.85825 8Z" fill="black"/>
</svg>
