<svg width="15" height="15" viewBox="0 0 15 15" fill="none" xmlns="http://www.w3.org/2000/svg">
<path fill-rule="evenodd" clip-rule="evenodd" d="M7.50003 1C3.91018 1 1.00003 3.91015 1.00003 7.5C1.00003 11.0899 3.91018 14 7.50003 14C11.0899 14 14 11.0899 14 7.5C14 3.91015 11.0899 1 7.50003 1ZM3.05176e-05 7.5C3.08752e-05 3.35786 3.3579 -3.57628e-07 7.50003 0C11.6422 3.57628e-07 15 3.35786 15 7.5C15 11.6421 11.6422 15 7.50003 15C3.35789 15 3.016e-05 11.6421 3.05176e-05 7.5ZM7.20714 5.5L5.70714 7L11 7V8L5.70714 8L7.20714 9.5L6.50003 10.2071L3.79292 7.5L6.50003 4.79289L7.20714 5.5Z" fill="black"/>
</svg>
