<svg width="15" height="11" viewBox="0 0 15 11" fill="none" xmlns="http://www.w3.org/2000/svg">
<path fill-rule="evenodd" clip-rule="evenodd" d="M4.10957 0.187652C4.20445 0.0690449 4.34811 0 4.5 0H13.5C14.3284 0 15 0.671573 15 1.5V9.5C15 10.3284 14.3284 11 13.5 11H4.5C4.34811 11 4.20445 10.931 4.10957 10.8123L0.109566 5.81235C-0.0365219 5.62974 -0.0365219 5.37026 0.109566 5.18765L4.10957 0.187652ZM4.74031 1L1.14031 5.5L4.74031 10H13.5C13.7761 10 14 9.77614 14 9.5V1.5C14 1.22386 13.7761 1 13.5 1H4.74031ZM7.79289 5.5L6.14645 3.85355L6.85355 3.14645L8.5 4.79289L10.1464 3.14645L10.8536 3.85355L9.20711 5.5L10.8536 7.14645L10.1464 7.85355L8.5 6.20711L6.85355 7.85355L6.14645 7.14645L7.79289 5.5Z" fill="black"/>
</svg>
