<svg width="13" height="15" viewBox="0 0 13 15" fill="none" xmlns="http://www.w3.org/2000/svg">
<path fill-rule="evenodd" clip-rule="evenodd" d="M1.5 1C1.22386 1 1 1.22386 1 1.5V13.5C1 13.7761 1.22386 14 1.5 14H11.5C11.7761 14 12 13.7761 12 13.5V1.5C12 1.22386 11.7761 1 11.5 1H1.5ZM0 1.5C0 0.671573 0.671573 0 1.5 0H11.5C12.3284 0 13 0.671573 13 1.5V13.5C13 14.3284 12.3284 15 11.5 15H1.5C0.671573 15 0 14.3284 0 13.5V1.5ZM4 2L4 4.5C4 5.88071 5.11929 7 6.5 7C7.88071 7 9 5.88071 9 4.5L9 2L10 2L10 4.5C10 6.433 8.433 8 6.5 8C4.567 8 3 6.433 3 4.5L3 2H4Z" fill="black"/>
</svg>
