<svg width="13" height="15" viewBox="0 0 13 15" fill="none" xmlns="http://www.w3.org/2000/svg">
<path fill-rule="evenodd" clip-rule="evenodd" d="M6.49999 1C5.11928 1 3.99999 2.11929 3.99999 3.5V4H2.99999V3.5C2.99999 1.567 4.567 0 6.49999 0C8.43299 0 9.99999 1.567 9.99999 3.5V4H8.99999V3.5C8.99999 2.11929 7.8807 1 6.49999 1ZM2.39504 6C2.14026 6 1.92623 6.19157 1.89809 6.44478L1.12032 13.4448C1.08741 13.741 1.31925 14 1.61726 14H11.3827C11.6807 14 11.9126 13.741 11.8797 13.4448L11.1019 6.44478C11.0738 6.19157 10.8597 6 10.605 6H2.39504ZM0.904211 6.33435C0.988616 5.5747 1.63071 5 2.39504 5H10.605C11.3693 5 12.0114 5.5747 12.0958 6.33435L12.8736 13.3344C12.9723 14.2229 12.2767 15 11.3827 15H1.61726C0.723241 15 0.0277053 14.2229 0.126433 13.3344L0.904211 6.33435ZM8.99999 9V10H3.99999V9H8.99999Z" fill="black"/>
</svg>
