<svg width="20" height="20" viewBox="0 0 20 20" fill="none" xmlns="http://www.w3.org/2000/svg">
<path fill-rule="evenodd" clip-rule="evenodd" d="M3 9.5C3 5.35786 6.35786 2 10.5 2C14.6421 2 18 5.35786 18 9.5C18 13.6421 14.6421 17 10.5 17C6.35786 17 3 13.6421 3 9.5ZM5.56379 5.27089C4.58895 6.40766 4 7.88505 4 9.5C4 13.0899 6.91015 16 10.5 16C12.1149 16 13.5923 15.411 14.7291 14.4362L5.56379 5.27089ZM6.27089 4.56379L15.4362 13.7291C16.411 12.5923 17 11.1149 17 9.5C17 5.91015 14.0899 3 10.5 3C8.88505 3 7.40766 3.58895 6.27089 4.56379Z" fill="black"/>
</svg>
