<svg width="15" height="15" viewBox="0 0 15 15" fill="none" xmlns="http://www.w3.org/2000/svg">
<path fill-rule="evenodd" clip-rule="evenodd" d="M3.2169 5.00005H0.703196C0.314831 5.00005 0 5.31488 0 5.70324V6.142C0 9.0856 0.685346 11.9888 2.00176 14.6216C2.11773 14.8535 2.35478 15 2.61409 15H12.3859C12.6452 15 12.8823 14.8535 12.9982 14.6216C14.3147 11.9888 15 9.0856 15 6.142V5.70324C15 5.31488 14.6852 5.00005 14.2968 5.00005H11.7831L8.92875 0.242798L8.07125 0.757294L10.6169 5.00005H4.3831L6.92875 0.757294L6.07125 0.242798L3.2169 5.00005ZM1 6.00005V6.142C1 8.86553 1.61937 11.5525 2.81019 14H12.1898C13.3806 11.5525 14 8.86553 14 6.142V6.00005H1Z" fill="black"/>
</svg>
