<svg width="15" height="11" viewBox="0 0 15 11" fill="none" xmlns="http://www.w3.org/2000/svg">
<path fill-rule="evenodd" clip-rule="evenodd" d="M11.5 1L1.5 1C1.22386 1 1 1.22386 1 1.5L1 9.5C1 9.77614 1.22386 10 1.5 10H11.5C11.7761 10 12 9.77614 12 9.5V1.5C12 1.22386 11.7761 1 11.5 1ZM1.5 4.47035e-07L11.5 0C12.3284 -5.96046e-08 13 0.671573 13 1.5V9.5C13 10.3284 12.3284 11 11.5 11H1.5C0.671573 11 3.8743e-07 10.3284 3.57628e-07 9.5L0 1.5C-5.96046e-08 0.671574 0.671573 4.76837e-07 1.5 4.47035e-07ZM6.23713 3.07467C6.38454 2.98357 6.56861 2.97529 6.72361 3.05279L10.7236 5.05279L10.2764 5.94721L7 4.30902V7.5C7 7.67329 6.91027 7.83422 6.76287 7.92533C6.61546 8.01643 6.43139 8.02471 6.27639 7.94721L2.27639 5.94721L2.72361 5.05279L6 6.69098V3.5C6 3.32671 6.08973 3.16578 6.23713 3.07467ZM15 3L15 8H14L14 3H15Z" fill="black"/>
</svg>
