<svg width="15" height="11" viewBox="0 0 15 11" fill="none" xmlns="http://www.w3.org/2000/svg">
<path fill-rule="evenodd" clip-rule="evenodd" d="M0 0H3C4.65685 0 6 1.34315 6 3C6 3.86358 5.63511 4.64193 5.05111 5.1893C6.18952 5.61522 7 6.71296 7 8C7 9.65685 5.65685 11 4 11H0V0ZM1 6V10H4C5.10457 10 6 9.10457 6 8C6 6.89543 5.10457 6 4 6H1ZM1 5H3C4.10457 5 5 4.10457 5 3C5 1.89543 4.10457 1 3 1H1V5ZM14 2H9V1H14V2ZM8 7.5C8 5.567 9.567 4 11.5 4C13.433 4 15 5.567 15 7.5V8H9.05001C9.28164 9.14112 10.2905 10 11.5 10C12.3334 10 13.0717 9.59266 13.5268 8.964L14.3368 9.55036C13.7018 10.4276 12.6677 11 11.5 11C9.567 11 8 9.433 8 7.5ZM9.05001 7H13.95C13.7184 5.85888 12.7095 5 11.5 5C10.2905 5 9.28164 5.85888 9.05001 7Z" fill="black"/>
</svg>
