<svg width="20" height="20" viewBox="0 0 20 20" fill="none" xmlns="http://www.w3.org/2000/svg">
<path fill-rule="evenodd" clip-rule="evenodd" d="M3 4H6C7.65685 4 9 5.34315 9 7C9 7.86358 8.63511 8.64193 8.05111 9.1893C9.18952 9.61522 10 10.713 10 12C10 13.6569 8.65685 15 7 15H3V4ZM4 10V14H7C8.10457 14 9 13.1046 9 12C9 10.8954 8.10457 10 7 10H4ZM4 9H6C7.10457 9 8 8.10457 8 7C8 5.89543 7.10457 5 6 5H4V9ZM17 6H12V5H17V6ZM11 11.5C11 9.567 12.567 8 14.5 8C16.433 8 18 9.567 18 11.5V12H12.05C12.2816 13.1411 13.2905 14 14.5 14C15.3334 14 16.0717 13.5927 16.5268 12.964L17.3368 13.5504C16.7018 14.4276 15.6677 15 14.5 15C12.567 15 11 13.433 11 11.5ZM12.05 11H16.95C16.7184 9.85888 15.7095 9 14.5 9C13.2905 9 12.2816 9.85888 12.05 11Z" fill="black"/>
</svg>
