<svg width="15" height="15" viewBox="0 0 15 15" fill="none" xmlns="http://www.w3.org/2000/svg">
<path fill-rule="evenodd" clip-rule="evenodd" d="M5.5 1C5.22386 1 5 1.22386 5 1.5V3H10V1.5C10 1.22386 9.77614 1 9.5 1H5.5ZM4 1.5C4 0.671573 4.67157 0 5.5 0H9.5C10.3284 0 11 0.671573 11 1.5V3H15V4H14V13.5C14 14.3284 13.3284 15 12.5 15H2.5C1.67157 15 1 14.3284 1 13.5V4H0V3H4V1.5ZM2 4V13.5C2 13.7761 2.22386 14 2.5 14H12.5C12.7761 14 13 13.7761 13 13.5V4H2ZM7 12V7H8V12H7ZM4 12V9H5V12H4ZM10 12V9H11V12H10Z" fill="black"/>
</svg>
