<svg width="12" height="15" viewBox="0 0 12 15" fill="none" xmlns="http://www.w3.org/2000/svg">
<path fill-rule="evenodd" clip-rule="evenodd" d="M6.26909 0.0565121C6.43445 -0.0295868 6.63399 -0.0165295 6.78672 0.0903855L11.7867 3.59039C11.9213 3.68457 12.001 3.83884 12 4.00308C11.999 4.16732 11.9174 4.32059 11.7817 4.41312L7.25423 7.5L11.7817 10.5869C11.9174 10.6794 11.999 10.8327 12 10.9969C12.001 11.1612 11.9213 11.3154 11.7867 11.4096L6.78672 14.9096C6.63399 15.0165 6.43445 15.0296 6.26909 14.9435C6.10372 14.8574 5.99999 14.6864 5.99999 14.5V8.35516L0.78166 11.9131L0.218323 11.0869L5.47909 7.5L0.218323 3.91312L0.78166 3.08689L5.99999 6.64484V0.500001C5.99999 0.313564 6.10372 0.142611 6.26909 0.0565121ZM6.99999 8.53698L10.6204 11.0054L6.99999 13.5397V8.53698ZM6.99999 6.46302V1.46033L10.6204 3.99459L6.99999 6.46302Z" fill="black"/>
</svg>
