<svg width="20" height="20" viewBox="0 0 20 20" fill="none" xmlns="http://www.w3.org/2000/svg">
<path fill-rule="evenodd" clip-rule="evenodd" d="M5 3.57921C5 3.25932 5.25932 3 5.57921 3H10.5C12.433 3 14 4.567 14 6.5C14 7.59515 13.497 8.57282 12.7095 9.2146C14.0465 9.70695 15 10.9921 15 12.5C15 14.433 13.433 16 11.5 16H5.58911C5.26374 16 5 15.7362 5 15.4109V3.57921ZM6 10V15H11.5C12.8807 15 14 13.8807 14 12.5C14 11.1193 12.8807 10 11.5 10H6ZM6 9H10.5C11.8807 9 13 7.88071 13 6.5C13 5.11929 11.8807 4 10.5 4H6V9Z" fill="black"/>
</svg>
