<svg width="15" height="15" viewBox="0 0 15 15" fill="none" xmlns="http://www.w3.org/2000/svg">
<path fill-rule="evenodd" clip-rule="evenodd" d="M7.30315 0.0403811C7.42886 -0.0134604 7.57114 -0.0134604 7.69685 0.0403811L14.6969 3.03843C14.8808 3.11719 15 3.29799 15 3.49805V11.5C15 11.7 14.8808 11.8808 14.697 11.9596L7.69696 14.9596C7.57119 15.0135 7.42881 15.0135 7.30304 14.9596L0.30304 11.9596C0.119198 11.8808 0 11.7 0 11.5V3.49805C0 3.29799 0.119249 3.11719 0.303149 3.03843L7.30315 0.0403811ZM7 6.82596L1 4.25788V11.1703L7 13.7417V6.82596ZM8 13.7417L14 11.1703V4.25651L8 6.82961V13.7417ZM13.23 3.49805L7.5 1.04393L1.76999 3.49805L7.5 5.95216L13.23 3.49805Z" fill="black"/>
</svg>
