<svg width="15" height="15" viewBox="0 0 15 15" fill="none" xmlns="http://www.w3.org/2000/svg">
<path fill-rule="evenodd" clip-rule="evenodd" d="M7.5 1C6.67157 1 6 1.67157 6 2.5V3H9V2.5C9 1.67157 8.32843 1 7.5 1ZM5 2.5C5 1.11929 6.11929 0 7.5 0C8.88071 0 10 1.11929 10 2.5V3H13.5C14.3284 3 15 3.67157 15 4.5V13.5C15 14.3284 14.3284 15 13.5 15H1.5C0.671573 15 0 14.3284 0 13.5V4.5C0 3.67157 0.671573 3 1.5 3H5V2.5ZM1.5 4C1.22386 4 1 4.22386 1 4.5V6.30924C4.48621 10.1321 10.5138 10.1321 14 6.30924V4.5C14 4.22386 13.7761 4 13.5 4H1.5ZM14 7.71302C10.306 10.9975 4.69404 10.9975 1 7.71302V13.5C1 13.7761 1.22386 14 1.5 14H13.5C13.7761 14 14 13.7761 14 13.5V7.71302Z" fill="black"/>
</svg>
