<svg width="13" height="15" viewBox="0 0 13 15" fill="none" xmlns="http://www.w3.org/2000/svg">
<path fill-rule="evenodd" clip-rule="evenodd" d="M0 2.5C0 1.11929 1.11929 0 2.5 0H10.5C11.8807 0 13 1.11929 13 2.5V9.5C13 10.8807 11.8807 12 10.5 12H8V13.5C8 14.3284 7.32843 15 6.5 15C5.67157 15 5 14.3284 5 13.5V12H2.5C1.11929 12 0 10.8807 0 9.5V2.5ZM2.5 1C1.67157 1 1 1.67157 1 2.5V7H12V2.5C12 1.67157 11.3284 1 10.5 1H7V3H6V1H5V5H4V1H2.5ZM12 8H1V9.5C1 10.3284 1.67157 11 2.5 11H6V13.5C6 13.7761 6.22386 14 6.5 14C6.77614 14 7 13.7761 7 13.5V11H10.5C11.3284 11 12 10.3284 12 9.5V8Z" fill="black"/>
</svg>
