<svg width="15" height="15" viewBox="0 0 15 15" fill="none" xmlns="http://www.w3.org/2000/svg">
<path fill-rule="evenodd" clip-rule="evenodd" d="M7.5 1C6.11929 1 5 2.11929 5 3.5V4H10V3.5C10 2.11929 8.88071 1 7.5 1ZM10.191 5H4.80902L4.58065 5.45673C4.1988 6.22044 4 7.06256 4 7.91641V10.5C4 12.433 5.567 14 7.5 14C9.433 14 11 12.433 11 10.5V7.91641C11 7.06256 10.8012 6.22044 10.4194 5.45673L10.191 5ZM4 3.94098V3.5C4 1.567 5.567 0 7.5 0C9.433 0 11 1.567 11 3.5V3.94098L13.7764 2.55279L14.2236 3.44721L11.2708 4.92361L11.3138 5.00952C11.7651 5.91208 12 6.90731 12 7.91641V8H15V9H12V10.5C12 11.1253 11.8725 11.7208 11.642 12.262L14.2236 13.5528L13.7764 14.4472L11.1492 13.1336C10.3318 14.2643 9.00182 15 7.5 15C5.99818 15 4.66818 14.2643 3.85076 13.1336L1.22361 14.4472L0.776393 13.5528L3.35803 12.262C3.12754 11.7208 3 11.1253 3 10.5V9H0V8H3V7.91641C3 6.90731 3.23494 5.91208 3.68622 5.00952L3.72918 4.92361L0.776393 3.44721L1.22361 2.55279L4 3.94098Z" fill="black"/>
</svg>
