<svg width="9" height="12" viewBox="0 0 9 12" fill="none" xmlns="http://www.w3.org/2000/svg">
<path fill-rule="evenodd" clip-rule="evenodd" d="M0.580741 3.39913C0.859371 1.44872 2.52977 0 4.49998 0C6.47019 0 8.14059 1.44873 8.41922 3.39914L8.42927 3.46949C8.58848 4.58397 8.26955 5.64541 7.63989 6.45893C7.25653 6.95423 6.99999 7.42699 6.99999 7.9013V9.5C6.99999 9.77614 6.77614 10 6.49999 10H2.49999C2.22385 10 1.99999 9.77614 1.99999 9.5V7.90133C1.99999 7.42702 1.74345 6.95426 1.36008 6.45895C0.730412 5.64543 0.411477 4.58398 0.57069 3.46949L0.580741 3.39913ZM4.49998 1C3.02742 1 1.77894 2.08279 1.57069 3.54056L1.56064 3.61091C1.44142 4.44544 1.67907 5.2373 2.15088 5.84687C2.56208 6.37814 2.99999 7.07749 2.99999 7.90133V9H5.99999V7.9013C5.99999 7.07747 6.4379 6.37813 6.84909 5.84686C7.3209 5.23729 7.55854 4.44543 7.43932 3.61092L7.42927 3.54056C7.22102 2.0828 5.97254 1 4.49998 1ZM5.99999 12H2.99999V11H5.99999V12Z" fill="black"/>
</svg>
