<svg width="13" height="15" viewBox="0 0 13 15" fill="none" xmlns="http://www.w3.org/2000/svg">
<path fill-rule="evenodd" clip-rule="evenodd" d="M6.5 0.421143L13 4.21281V10.7872L6.5 14.5788L0 10.7872V4.21281L6.5 0.421143ZM1 4.78718V10.2128L6.5 13.4211L12 10.2128V4.78718L6.5 1.57885L1 4.78718ZM3 7.49999C3 5.567 4.567 3.99999 6.5 3.99999H6.68198C7.6585 3.99999 8.59503 4.38792 9.28553 5.07842L9.35355 5.14644L8.64645 5.85355L8.57843 5.78553C8.07546 5.28256 7.39329 4.99999 6.68198 4.99999H6.5C5.11929 4.99999 4 6.11928 4 7.49999C4 8.88071 5.11929 9.99999 6.5 9.99999H6.68198C7.39329 9.99999 8.07546 9.71743 8.57843 9.21446L8.64645 9.14644L9.35355 9.85355L9.28553 9.92157C8.59503 10.6121 7.6585 11 6.68198 11H6.5C4.567 11 3 9.43299 3 7.49999Z" fill="black"/>
</svg>
