<svg width="15" height="15" viewBox="0 0 15 15" fill="none" xmlns="http://www.w3.org/2000/svg">
<path fill-rule="evenodd" clip-rule="evenodd" d="M3 2V0H4V2H11V0H12V2H13.5C14.3284 2 15 2.67157 15 3.5V13.5C15 14.3284 14.3284 15 13.5 15H1.5C0.671573 15 0 14.3284 0 13.5V3.5C0 2.67157 0.671573 2 1.5 2H3ZM3 3H1.5C1.22386 3 1 3.22386 1 3.5V13.5C1 13.7761 1.22386 14 1.5 14H13.5C13.7761 14 14 13.7761 14 13.5V3.5C14 3.22386 13.7761 3 13.5 3H12V5H11V3H4V5H3V3ZM6.79289 8.5L5.14645 6.85355L5.85355 6.14645L7.5 7.79289L9.14645 6.14645L9.85355 6.85355L8.20711 8.5L9.85355 10.1464L9.14645 10.8536L7.5 9.20711L5.85355 10.8536L5.14645 10.1464L6.79289 8.5Z" fill="black"/>
</svg>
