<svg width="15" height="13" viewBox="0 0 15 13" fill="none" xmlns="http://www.w3.org/2000/svg">
<path fill-rule="evenodd" clip-rule="evenodd" d="M2 0L7 4.47035e-07V1L2 1V0ZM1.5 3C1.22386 3 1 3.22386 1 3.5L1 11.5C1 11.7761 1.22386 12 1.5 12L13.5 12C13.7761 12 14 11.7761 14 11.5L14 3.5C14 3.22386 13.7761 3 13.5 3L1.5 3ZM1.16229e-06 3.5C1.2815e-06 2.67157 0.671574 2 1.5 2L13.5 2C14.3284 2 15 2.67157 15 3.5L15 11.5C15 12.3284 14.3284 13 13.5 13L1.5 13C0.671574 13 -1.19209e-07 12.3284 0 11.5L1.16229e-06 3.5ZM7 7.5C7 6.11929 8.11929 5 9.5 5C10.8807 5 12 6.11929 12 7.5C12 8.88071 10.8807 10 9.5 10C8.11929 10 7 8.88071 7 7.5ZM9.5 6C8.67157 6 8 6.67157 8 7.5C8 8.32843 8.67157 9 9.5 9C10.3284 9 11 8.32843 11 7.5C11 6.67157 10.3284 6 9.5 6Z" fill="black"/>
</svg>
