<svg width="20" height="20" viewBox="0 0 20 20" fill="none" xmlns="http://www.w3.org/2000/svg">
<path fill-rule="evenodd" clip-rule="evenodd" d="M4 3L9 3V4L4 4V3ZM3.5 6C3.22386 6 3 6.22386 3 6.5L3 14.5C3 14.7761 3.22386 15 3.5 15L15.5 15C15.7761 15 16 14.7761 16 14.5L16 6.5C16 6.22386 15.7761 6 15.5 6L3.5 6ZM2 6.5C2 5.67157 2.67157 5 3.5 5L15.5 5C16.3284 5 17 5.67157 17 6.5L17 14.5C17 15.3284 16.3284 16 15.5 16L3.5 16C2.67157 16 2 15.3284 2 14.5L2 6.5ZM9 10.5C9 9.11929 10.1193 8 11.5 8C12.8807 8 14 9.11929 14 10.5C14 11.8807 12.8807 13 11.5 13C10.1193 13 9 11.8807 9 10.5ZM11.5 9C10.6716 9 10 9.67157 10 10.5C10 11.3284 10.6716 12 11.5 12C12.3284 12 13 11.3284 13 10.5C13 9.67157 12.3284 9 11.5 9Z" fill="black"/>
</svg>
