<svg width="15" height="13" viewBox="0 0 15 13" fill="none" xmlns="http://www.w3.org/2000/svg">
<path fill-rule="evenodd" clip-rule="evenodd" d="M5.19799 1C4.3201 1 3.50653 1.46048 3.05464 2.21314L1 5.63527V11.5C1 11.7761 1.22386 12 1.5 12H2.5C2.77614 12 3 11.7761 3 11.5V10H12V11.5C12 11.7761 12.2239 12 12.5 12H13.5C13.7761 12 14 11.7761 14 11.5V5.63527L11.9454 2.21314C11.4935 1.46048 10.6799 1 9.80201 1H5.19799ZM2.19729 1.69839C2.82994 0.644668 3.96894 0 5.19799 0H9.80201C11.0311 0 12.1701 0.644668 12.8027 1.69839L15 5.35813V11.5C15 12.3284 14.3284 13 13.5 13H12.5C11.6716 13 11 12.3284 11 11.5V11H4V11.5C4 12.3284 3.32843 13 2.5 13H1.5C0.671573 13 0 12.3284 0 11.5V5.35813L2.19729 1.69839ZM12 6H3V5H12V6ZM5 9H2V8H5V9ZM10 8H13V9H10V8Z" fill="black"/>
</svg>
