<svg width="20" height="20" viewBox="0 0 20 20" fill="none" xmlns="http://www.w3.org/2000/svg">
<path fill-rule="evenodd" clip-rule="evenodd" d="M3 3.28735L3.95783 3L4.45093 4.64367H15.4789C16.8596 4.64367 17.9789 5.76296 17.9789 7.14367V13.6437H6.1069L3 3.28735ZM4.75093 5.64367L6.85093 12.6437H16.9789V7.14367C16.9789 6.31525 16.3073 5.64367 15.4789 5.64367H4.75093ZM8.47891 15.6437C8.20277 15.6437 7.97891 15.8675 7.97891 16.1437C7.97891 16.4198 8.20277 16.6437 8.47891 16.6437C8.75506 16.6437 8.97891 16.4198 8.97891 16.1437C8.97891 15.8675 8.75506 15.6437 8.47891 15.6437ZM6.97891 16.1437C6.97891 15.3152 7.65049 14.6437 8.47891 14.6437C9.30734 14.6437 9.97891 15.3152 9.97891 16.1437C9.97891 16.9721 9.30734 17.6437 8.47891 17.6437C7.65049 17.6437 6.97891 16.9721 6.97891 16.1437ZM13.9789 16.1437C13.9789 15.3152 14.6505 14.6437 15.4789 14.6437C16.3073 14.6437 16.9789 15.3152 16.9789 16.1437C16.9789 16.9721 16.3073 17.6437 15.4789 17.6437C14.6505 17.6437 13.9789 16.9721 13.9789 16.1437ZM15.4789 15.6437C15.2028 15.6437 14.9789 15.8675 14.9789 16.1437C14.9789 16.4198 15.2028 16.6437 15.4789 16.6437C15.7551 16.6437 15.9789 16.4198 15.9789 16.1437C15.9789 15.8675 15.7551 15.6437 15.4789 15.6437Z" fill="black"/>
</svg>
