<svg width="15" height="15" viewBox="0 0 15 15" fill="none" xmlns="http://www.w3.org/2000/svg">
<path fill-rule="evenodd" clip-rule="evenodd" d="M0.0210876 0.643671L0.978914 0.356323L1.47202 2H12.5C13.8807 2 15 3.11929 15 4.5V11H3.12799L0.0210876 0.643671ZM1.77202 3L3.87202 10H14V4.5C14 3.67157 13.3284 3 12.5 3H1.77202ZM8 6V4H9V6H11V7H9V9H8V7H6V6H8ZM5.5 13C5.22386 13 5 13.2239 5 13.5C5 13.7761 5.22386 14 5.5 14C5.77614 14 6 13.7761 6 13.5C6 13.2239 5.77614 13 5.5 13ZM4 13.5C4 12.6716 4.67157 12 5.5 12C6.32843 12 7 12.6716 7 13.5C7 14.3284 6.32843 15 5.5 15C4.67157 15 4 14.3284 4 13.5ZM11 13.5C11 12.6716 11.6716 12 12.5 12C13.3284 12 14 12.6716 14 13.5C14 14.3284 13.3284 15 12.5 15C11.6716 15 11 14.3284 11 13.5ZM12.5 13C12.2239 13 12 13.2239 12 13.5C12 13.7761 12.2239 14 12.5 14C12.7761 14 13 13.7761 13 13.5C13 13.2239 12.7761 13 12.5 13Z" fill="black"/>
</svg>
