<svg width="15" height="15" viewBox="0 0 15 15" fill="none" xmlns="http://www.w3.org/2000/svg">
<path fill-rule="evenodd" clip-rule="evenodd" d="M2.23584 3.68589C1.45841 4.75711 1 6.07494 1 7.5C1 10.5372 3.08222 13.0873 5.89723 13.801L8.01127 10.9629C7.84438 10.9874 7.67367 11 7.5 11C5.79758 11 4.37904 9.78453 4.06485 8.17406L4.03576 8.1857L2.23584 3.68589ZM2.97274 2.83556L4.28461 6.11525C4.82119 4.87098 6.05888 4 7.5 4H12.9784C11.8235 2.19575 9.80157 1 7.5 1C5.73975 1 4.14309 1.69942 2.97274 2.83556ZM13.502 5C13.5013 5 13.5007 5 13.5 5H9.94949C10.5978 5.63526 11 6.52066 11 7.5C11 8.42785 10.639 9.27137 10.0497 9.89774L10.051 9.89869L7.00948 13.9818C7.17141 13.9939 7.33498 14 7.5 14C11.0903 14 14 11.0903 14 7.5C14 6.61406 13.8228 5.76956 13.502 5ZM7.5 5C6.11929 5 5 6.11929 5 7.5C5 8.88071 6.11929 10 7.5 10C8.88071 10 10 8.88071 10 7.5C10 6.11929 8.88071 5 7.5 5ZM0 7.5C0 3.35742 3.35742 0 7.5 0C11.6426 0 15 3.35742 15 7.5C15 11.6426 11.6426 15 7.5 15C3.35742 15 0 11.6426 0 7.5Z" fill="black"/>
</svg>
