<svg width="13" height="15" viewBox="0 0 13 15" fill="none" xmlns="http://www.w3.org/2000/svg">
<path fill-rule="evenodd" clip-rule="evenodd" d="M3 0H10V1H13V13.5C13 14.3284 12.3284 15 11.5 15H1.5C0.671573 15 0 14.3284 0 13.5V1H3V0ZM4 1V2.5C4 2.77614 4.22386 3 4.5 3H8.5C8.77614 3 9 2.77614 9 2.5V1H4ZM3 2.5V2H1V13.5C1 13.7761 1.22386 14 1.5 14H11.5C11.7761 14 12 13.7761 12 13.5V2H10V2.5C10 3.32843 9.32843 4 8.5 4H4.5C3.67157 4 3 3.32843 3 2.5ZM5.79289 8.5L4.14645 6.85355L4.85355 6.14645L6.5 7.79289L8.14645 6.14645L8.85355 6.85355L7.20711 8.5L8.85355 10.1464L8.14645 10.8536L6.5 9.20711L4.85355 10.8536L4.14645 10.1464L5.79289 8.5Z" fill="black"/>
</svg>
