<svg width="20" height="20" viewBox="0 0 20 20" fill="none" xmlns="http://www.w3.org/2000/svg">
<path fill-rule="evenodd" clip-rule="evenodd" d="M7.81699 2.43028C7.86622 2.18026 8.08545 2 8.34027 2H11.6587C11.9131 2 12.132 2.17966 12.1817 2.42914L12.2739 2.89191L12.2745 2.89496L12.5667 4.31855C12.9835 4.50233 13.37 4.72987 13.7274 4.98741L15.1882 4.49898L15.649 4.35626C15.8861 4.28277 16.1425 4.38255 16.2676 4.59696L16.5062 5.00596L17.6874 6.9826L17.9274 7.39413C18.0563 7.61519 18.01 7.89667 17.8171 8.06483L17.4613 8.37499L16.3657 9.307C16.4001 9.51621 16.432 9.75238 16.432 9.99509C16.432 10.2378 16.4001 10.474 16.3657 10.6832L17.4662 11.6195L17.8171 11.9254C18.01 12.0936 18.0563 12.3751 17.9273 12.5962L17.6845 13.0125L16.5063 14.9841L16.2679 15.3938C16.1428 15.6089 15.8855 15.7089 15.648 15.6347L15.177 15.4876L13.7274 15.0028C13.3699 15.2604 12.9835 15.4879 12.5667 15.6716L12.2745 17.0952L12.2739 17.0983L12.1817 17.5611C12.132 17.8106 11.9131 17.9903 11.6587 17.9903H8.34027C8.08544 17.9903 7.86622 17.81 7.81699 17.56L7.7257 17.0963L7.4324 15.6717C7.0156 15.4879 6.62906 15.2604 6.27155 15.0028L4.81181 15.4909L4.35099 15.6347C4.11308 15.709 3.85544 15.6086 3.73052 15.3929L3.49347 14.9837L2.31104 13.0067L2.07215 12.5953C1.94397 12.3745 1.99015 12.094 2.18229 11.926L2.53761 11.6153L3.63365 10.6829C3.59937 10.4743 3.56696 10.2372 3.56696 9.99509C3.56696 9.75301 3.59936 9.51596 3.63364 9.30733L2.53213 8.37026L2.18229 8.0643C1.99016 7.8963 1.94398 7.61573 2.07213 7.39502L2.31454 6.97749L3.49362 5.00633L3.73082 4.59786C3.85566 4.38287 4.11248 4.28266 4.34994 4.35626L4.82198 4.50259L6.27155 4.98741C6.62904 4.72983 7.01558 4.50226 7.4324 4.31846L7.72571 2.89383L7.81699 2.43028ZM8.77882 3.06666L8.77093 3.1067L8.41999 4.81119C8.38326 4.98958 8.25803 5.1369 8.08788 5.20188C7.58372 5.3944 7.12101 5.66949 6.697 6.0018C6.55595 6.11233 6.36883 6.14465 6.19889 6.08783L4.48927 5.51619L4.4399 5.50089L4.41084 5.55093L3.23178 7.52206L3.21523 7.55057L3.23155 7.56484L4.55574 8.69135C4.69794 8.81232 4.76654 8.99886 4.73658 9.18315C4.72616 9.24725 4.71588 9.30758 4.70609 9.36506C4.66573 9.60202 4.63363 9.79054 4.63363 9.99509C4.63363 10.1997 4.66575 10.3883 4.70611 10.6253C4.7159 10.6828 4.72616 10.743 4.73658 10.8071C4.76654 10.9914 4.69794 11.1779 4.55574 11.2989L3.23157 12.4254L3.21525 12.4397L3.23177 12.4681L4.41464 14.4458L4.4399 14.4895L4.48879 14.4742L6.19889 13.9024C6.36883 13.8456 6.55595 13.8779 6.697 13.9885C7.12098 14.3207 7.58369 14.5958 8.08788 14.7883C8.25803 14.8533 8.38326 15.0006 8.41999 15.179L8.77184 16.888L8.77883 16.9236H11.2211L11.229 16.8838L11.5789 15.1793C11.6155 15.0008 11.7408 14.8533 11.9111 14.7883C12.4153 14.5958 12.878 14.3207 13.3019 13.9885C13.443 13.8779 13.6301 13.8456 13.8001 13.9024L15.5102 14.4742L15.5599 14.4897L15.5891 14.4395L16.7674 12.4677L16.7838 12.4397L16.7677 12.4256L15.4432 11.2989C15.3005 11.1775 15.232 10.9901 15.2627 10.8053C15.2718 10.7504 15.2808 10.6982 15.2894 10.648C15.3316 10.4019 15.3653 10.2058 15.3653 9.99509C15.3653 9.7844 15.3317 9.58842 15.2894 9.34232C15.2808 9.29215 15.2718 9.23989 15.2627 9.185C15.232 9.00016 15.3005 8.81276 15.4432 8.69135L16.7677 7.5646L16.7838 7.55056L16.7674 7.52245L15.5862 5.54588L15.5599 5.50063L15.5097 5.51619L13.8001 6.08783C13.6301 6.14465 13.443 6.11233 13.3019 6.0018C12.8779 5.66949 12.4152 5.3944 11.9111 5.20188C11.7408 5.13686 11.6155 4.9894 11.5789 4.81088L11.2284 3.10334L11.2211 3.06666H8.77882ZM9.99961 8.39653C9.11622 8.39653 8.39961 9.11316 8.39961 9.99509C8.39961 10.8771 9.11624 11.5937 9.99961 11.5937C10.883 11.5937 11.5996 10.8771 11.5996 9.99509C11.5996 9.11316 10.883 8.39653 9.99961 8.39653ZM7.33295 9.99509C7.33295 8.52337 8.5278 7.32987 9.99961 7.32987C11.4714 7.32987 12.6663 8.52337 12.6663 9.99509C12.6663 11.4668 11.4714 12.6604 9.99961 12.6604C8.52778 12.6604 7.33295 11.4668 7.33295 9.99509Z" fill="black"/>
</svg>
