<svg width="15" height="15" viewBox="0 0 15 15" fill="none" xmlns="http://www.w3.org/2000/svg">
<path fill-rule="evenodd" clip-rule="evenodd" d="M5.45344 0.403393C5.4996 0.168998 5.70512 0 5.94402 0H9.05503C9.29352 0 9.49881 0.16843 9.5454 0.402321L9.63181 0.836171L9.63239 0.839027L9.90634 2.17365C10.297 2.34594 10.6594 2.55926 10.9945 2.80071L12.364 2.3428L12.796 2.209C13.0182 2.1401 13.2587 2.23365 13.3759 2.43466L13.5996 2.81809L14.707 4.6712L14.9319 5.05701C15.0528 5.26426 15.0094 5.52814 14.8286 5.68579L14.495 5.97657L13.4679 6.85034C13.5001 7.04647 13.53 7.26787 13.53 7.49542C13.53 7.72298 13.5001 7.94441 13.4679 8.14057L14.4996 9.01828L14.8286 9.30511C15.0094 9.46277 15.0528 9.72667 14.9319 9.93392L14.7043 10.3242L13.5997 12.1726L13.3762 12.5567C13.2589 12.7584 13.0177 12.8521 12.795 12.7826L12.3534 12.6447L10.9945 12.1902C10.6593 12.4316 10.297 12.6449 9.90634 12.8172L9.63239 14.1518L9.63181 14.1547L9.5454 14.5886C9.49881 14.8225 9.29352 14.9909 9.05503 14.9909H5.94402C5.70512 14.9909 5.49959 14.8219 5.45344 14.5875L5.36786 14.1528L5.09289 12.8173C4.70214 12.645 4.33976 12.4317 4.00459 12.1902L2.63608 12.6478L2.20406 12.7826C1.98102 12.8522 1.73948 12.7581 1.62237 12.5559L1.40013 12.1722L0.2916 10.3189L0.0676368 9.93309C-0.0525237 9.72617 -0.00923467 9.46311 0.170898 9.30561L0.504013 9.01433L1.53155 8.14026C1.49941 7.94465 1.46903 7.72239 1.46903 7.49542C1.46903 7.26847 1.49941 7.04623 1.53154 6.85065L0.498871 5.97214L0.170898 5.6853C-0.00922489 5.5278 -0.0525203 5.26477 0.0676195 5.05784L0.294885 4.66641L1.40027 2.81845L1.62264 2.4355C1.73968 2.23395 1.98045 2.14 2.20307 2.209L2.64561 2.34619L4.00459 2.80071C4.33974 2.55922 4.70212 2.34588 5.09289 2.17357L5.36787 0.837966L5.45344 0.403393ZM6.35516 1L6.34777 1.03754L6.01876 2.6355C5.98432 2.80274 5.86692 2.94085 5.7074 3.00177C5.23475 3.18226 4.80096 3.44016 4.40345 3.7517C4.27122 3.85532 4.09579 3.88562 3.93647 3.83235L2.3337 3.29644L2.28741 3.28209L2.26017 3.32901L1.1548 5.17695L1.13928 5.20368L1.15458 5.21705L2.39601 6.27316C2.52933 6.38657 2.59364 6.56145 2.56555 6.73422C2.55578 6.79431 2.54615 6.85087 2.53697 6.90476C2.49913 7.12691 2.46903 7.30365 2.46903 7.49542C2.46903 7.68722 2.49914 7.86404 2.53699 8.08624C2.54616 8.1401 2.55579 8.19663 2.56555 8.25669C2.59364 8.42946 2.52933 8.60433 2.39601 8.71775L1.1546 9.77383L1.1393 9.78721L1.15479 9.81388L2.26373 11.6679L2.28742 11.7089L2.33325 11.6946L3.93647 11.1586C4.09579 11.1053 4.27122 11.1356 4.40345 11.2392C4.80093 11.5507 5.23472 11.8086 5.7074 11.9891C5.86692 12.05 5.98432 12.1881 6.01876 12.3553L6.34862 13.9575L6.35517 13.9909H8.64479L8.65222 13.9536L8.98024 12.3556C9.01459 12.1883 9.13203 12.05 9.29165 11.9891C9.76433 11.8086 10.1981 11.5507 10.5956 11.2392C10.7278 11.1356 10.9033 11.1053 11.0626 11.1586L12.6658 11.6946L12.7124 11.7092L12.7398 11.6621L13.8445 9.81352L13.8598 9.78722L13.8447 9.77406L12.603 8.71775C12.4692 8.60393 12.405 8.42824 12.4338 8.25495C12.4423 8.20353 12.4507 8.15456 12.4588 8.10755C12.4985 7.87678 12.53 7.69298 12.53 7.49542C12.53 7.2979 12.4985 7.11417 12.4588 6.88345C12.4508 6.83641 12.4423 6.78742 12.4338 6.73595C12.405 6.56267 12.4692 6.38698 12.603 6.27316L13.8447 5.21683L13.8598 5.20367L13.8445 5.17731L12.7371 3.32427L12.7124 3.28185L12.6654 3.29644L11.0626 3.83235C10.9033 3.88562 10.7278 3.85532 10.5956 3.7517C10.1981 3.44016 9.7643 3.18226 9.29165 3.00177C9.13203 2.94081 9.01459 2.80257 8.98024 2.6352L8.65165 1.03439L8.6448 1H6.35516ZM7.49966 5.99677C6.67148 5.99677 5.99966 6.6686 5.99966 7.49542C5.99966 8.32226 6.6715 8.99414 7.49966 8.99414C8.32781 8.99414 8.99966 8.32226 8.99966 7.49542C8.99966 6.6686 8.32783 5.99677 7.49966 5.99677ZM4.99966 7.49542C4.99966 6.11568 6.11983 4.99677 7.49966 4.99677C8.87948 4.99677 9.99966 6.11568 9.99966 7.49542C9.99966 8.87514 8.8795 9.99414 7.49966 9.99414C6.11981 9.99414 4.99966 8.87514 4.99966 7.49542Z" fill="black"/>
</svg>
