<svg width="20" height="20" viewBox="0 0 20 20" fill="none" xmlns="http://www.w3.org/2000/svg">
<path fill-rule="evenodd" clip-rule="evenodd" d="M1 4.70718C1 3.82885 1.71065 3.11878 2.58824 3.11878H15.2941C16.1717 3.11878 16.8824 3.82885 16.8824 4.70718V14.2355C16.8824 15.1138 16.1717 15.8239 15.2941 15.8239H11.3421L9.3816 18.7643C9.28339 18.9115 9.11814 19 8.94119 19C8.76423 19 8.59898 18.9115 8.50078 18.7643L6.54031 15.8239H2.58824C1.71065 15.8239 1 15.1138 1 14.2355V4.70718ZM2.58824 4.17818C2.29477 4.17818 2.05882 4.41459 2.05882 4.70718V14.2355C2.05882 14.5281 2.29477 14.7645 2.58824 14.7645H6.82354C7.00049 14.7645 7.16575 14.853 7.26395 15.0002L8.94119 17.5158L10.6184 15.0002C10.7166 14.853 10.8819 14.7645 11.0588 14.7645H15.2941C15.5876 14.7645 15.8235 14.5281 15.8235 14.2355V4.70718C15.8235 4.41459 15.5876 4.17818 15.2941 4.17818H2.58824Z" fill="black"/>
<path d="M3.20764 2.05939H17.4118C17.7052 2.05939 17.9412 2.2958 17.9412 2.5884V13.6149C18.5582 13.3971 19 12.8092 19 12.1167V2.5884C19 1.71007 18.2894 1 17.4118 1H4.70586C4.01366 1 3.42532 1.44175 3.20764 2.05939Z" fill="black"/>
</svg>
