<svg width="20" height="20" viewBox="0 0 20 20" fill="none" xmlns="http://www.w3.org/2000/svg">
<path fill-rule="evenodd" clip-rule="evenodd" d="M2 3.5993C2 2.71494 2.71591 2 3.6 2H16.4C17.2841 2 18 2.71494 18 3.5993V13.193C18 14.0774 17.2841 14.7924 16.4 14.7924H12.4187L10.4437 17.7529C10.3447 17.9012 10.1783 17.9903 10 17.9903C9.82174 17.9903 9.65526 17.9012 9.55633 17.7529L7.58134 14.7924H3.6C2.71591 14.7924 2 14.0774 2 13.193V3.5993ZM3.6 3.06667C3.30436 3.06667 3.06667 3.3047 3.06667 3.5993V13.193C3.06667 13.4876 3.30436 13.7257 3.6 13.7257H7.86667C8.04493 13.7257 8.21141 13.8147 8.31034 13.963L10 16.4959L11.6897 13.963C11.7886 13.8147 11.9551 13.7257 12.1333 13.7257H16.4C16.6956 13.7257 16.9333 13.4876 16.9333 13.193V3.5993C16.9333 3.3047 16.6956 3.06667 16.4 3.06667H3.6Z" fill="black"/>
</svg>
