<svg width="15" height="15" viewBox="0 0 15 15" fill="none" xmlns="http://www.w3.org/2000/svg">
<path fill-rule="evenodd" clip-rule="evenodd" d="M0 7.5C0 3.35786 3.35786 0 7.5 0C11.6421 0 15 3.35786 15 7.5C15 11.6421 11.6421 15 7.5 15C3.35786 15 0 11.6421 0 7.5ZM7.5 1C3.91015 1 1 3.91015 1 7.5C1 11.0899 3.91015 14 7.5 14C11.0899 14 14 11.0899 14 7.5C14 3.91015 11.0899 1 7.5 1ZM10.8536 4.14645C11.0057 4.29863 11.0435 4.53111 10.9472 4.72361L8.94721 8.72361C8.89883 8.82037 8.82037 8.89883 8.72361 8.94721L4.72361 10.9472C4.53111 11.0435 4.29863 11.0057 4.14645 10.8536C3.99427 10.7014 3.95654 10.4689 4.05279 10.2764L6.05279 6.27639C6.10117 6.17963 6.17963 6.10117 6.27639 6.05279L10.2764 4.05279C10.4689 3.95654 10.7014 3.99427 10.8536 4.14645ZM6.87268 6.87268L5.61803 9.38197L8.12732 8.12732L9.38197 5.61803L6.87268 6.87268Z" fill="black"/>
</svg>
