<svg width="13" height="15" viewBox="0 0 13 15" fill="none" xmlns="http://www.w3.org/2000/svg">
<path fill-rule="evenodd" clip-rule="evenodd" d="M1.5 1C1.22386 1 1 1.22386 1 1.5V13.5C1 13.7761 1.22386 14 1.5 14H11.5C11.7761 14 12 13.7761 12 13.5V3.70711L9.29289 1H1.5ZM0 1.5C0 0.671574 0.671573 0 1.5 0H9.70711L13 3.29289V13.5C13 14.3284 12.3284 15 11.5 15H1.5C0.671572 15 0 14.3284 0 13.5V1.5ZM3 4H6V5H3V4ZM3 7H10V8H3V7ZM5.30473 10.9079C4.90087 11.0164 4.58548 11.3247 4.47434 11.6581L3.52566 11.3419C3.74785 10.6753 4.33246 10.1336 5.04527 9.94212C5.75236 9.75216 6.55853 9.91127 7.25656 10.5534C8.15929 10.2869 8.95203 10.5446 9.57437 10.841C9.74835 10.9238 9.91323 11.0117 10.0638 11.0932C10.0934 11.1093 10.1223 11.1249 10.1505 11.1403C10.2692 11.2048 10.3765 11.263 10.4804 11.3156C10.7523 11.4532 10.9065 11.5 11 11.5V12.5C10.6465 12.5 10.3038 12.347 10.0288 12.2078C9.91064 12.148 9.78745 12.0811 9.66783 12.0161C9.64091 12.0015 9.61416 11.9869 9.5877 11.9726C9.43983 11.8926 9.29382 11.815 9.14442 11.7438C8.69459 11.5296 8.25321 11.3923 7.78343 11.4596C7.78993 11.528 7.78943 11.5977 7.78111 11.6684C7.74593 11.9674 7.58139 12.1955 7.40702 12.3541C7.07231 12.6585 6.58043 12.8222 6.20002 12.8798C6.00664 12.909 5.79402 12.9186 5.60653 12.8815C5.51467 12.8634 5.39042 12.8268 5.27681 12.7433C5.14944 12.6496 5.03219 12.4908 5.02256 12.2747C5.01405 12.0838 5.09446 11.932 5.16185 11.8368C5.23256 11.737 5.32456 11.6487 5.42161 11.5702C5.60969 11.4181 5.8793 11.2535 6.23687 11.0727C6.24583 11.0661 6.2548 11.0596 6.26376 11.0531C5.91547 10.8496 5.581 10.8337 5.30473 10.9079Z" fill="black"/>
</svg>
