<svg width="20" height="20" viewBox="0 0 20 20" fill="none" xmlns="http://www.w3.org/2000/svg">
<path fill-rule="evenodd" clip-rule="evenodd" d="M6.76923 3.07692C6.47185 3.07692 6.23077 3.318 6.23077 3.61538V14.3846C6.23077 14.682 6.47185 14.9231 6.76923 14.9231H15.3846C15.682 14.9231 15.9231 14.682 15.9231 14.3846V4.98048L13.0677 3.07692H6.76923ZM5.15385 3.61538C5.15385 2.72323 5.87708 2 6.76923 2H13.3938L17 4.40413V14.3846C17 15.2768 16.2768 16 15.3846 16H14.8462V16.5385C14.8462 17.4306 14.1229 18.1538 13.2308 18.1538H4.61538C3.72323 18.1538 3 17.4306 3 16.5385V5.76923C3 4.87708 3.72323 4.15385 4.61538 4.15385H5.15385V3.61538ZM5.15385 5.23077H4.61538C4.318 5.23077 4.07692 5.47185 4.07692 5.76923V16.5385C4.07692 16.8358 4.318 17.0769 4.61538 17.0769H13.2308C13.5282 17.0769 13.7692 16.8358 13.7692 16.5385V16H6.76923C5.87708 16 5.15385 15.2768 5.15385 14.3846V5.23077Z" fill="black"/>
</svg>
