<svg width="13" height="15" viewBox="0 0 13 15" fill="none" xmlns="http://www.w3.org/2000/svg">
<path fill-rule="evenodd" clip-rule="evenodd" d="M6.5 0.421143L13 4.21281V10.7872L6.5 14.5788L0 10.7872V4.21281L6.5 0.421143ZM1 4.78718V10.2128L6.5 13.4211L12 10.2128V4.78718L6.5 1.57885L1 4.78718ZM2 7.49999C2 5.567 3.567 3.99999 5.5 3.99999H6.08579C7.1239 3.99999 8.1195 4.41238 8.85355 5.14644L8.14645 5.85355C7.59993 5.30703 6.85868 4.99999 6.08579 4.99999H5.5C4.11929 4.99999 3 6.11928 3 7.49999C3 8.88071 4.11929 9.99999 5.5 9.99999H6.08579C6.85868 9.99999 7.59993 9.69296 8.14645 9.14644L8.85355 9.85355C8.1195 10.5876 7.1239 11 6.08579 11H5.5C3.567 11 2 9.43299 2 7.49999ZM6 6.99999V5.99999H7V6.99999H9V5.99999H10V6.99999H11V7.99999H10V8.99999H9V7.99999H7V8.99999H6V7.99999H5V6.99999H6Z" fill="black"/>
</svg>
