<svg width="20" height="20" viewBox="0 0 20 20" fill="none" xmlns="http://www.w3.org/2000/svg">
<path fill-rule="evenodd" clip-rule="evenodd" d="M3.6 5.06667C3.30545 5.06667 3.06667 5.30545 3.06667 5.6V7.2H16.9333V5.6C16.9333 5.30545 16.6946 5.06667 16.4 5.06667L3.6 5.06667ZM16.9333 8.26667H3.06667L3.06667 14.1333C3.06667 14.4279 3.30545 14.6667 3.6 14.6667L16.4 14.6667C16.6946 14.6667 16.9333 14.4279 16.9333 14.1333V8.26667ZM2 5.6C2 4.71634 2.71634 4 3.6 4L16.4 4C17.2837 4 18 4.71635 18 5.6V14.1333C18 15.017 17.2837 15.7333 16.4 15.7333L3.6 15.7333C2.71635 15.7333 2 15.017 2 14.1333L2 5.6ZM10.5333 12.5333H4.13333V11.4667H10.5333V12.5333ZM15.8667 12.5333H12.6667V11.4667H15.8667V12.5333Z" fill="black"/>
</svg>
