<svg width="15" height="11" viewBox="0 0 15 11" fill="none" xmlns="http://www.w3.org/2000/svg">
<path fill-rule="evenodd" clip-rule="evenodd" d="M1.5 1C1.22386 1 1 1.22386 1 1.5V3H14V1.5C14 1.22386 13.7761 1 13.5 1L1.5 1ZM14 4H1L1 9.5C1 9.77614 1.22386 10 1.5 10L13.5 10C13.7761 10 14 9.77614 14 9.5V4ZM3.57628e-07 1.5C3.8743e-07 0.671573 0.671573 -5.96046e-08 1.5 0L13.5 5.36442e-07C14.3284 5.66244e-07 15 0.671574 15 1.5V9.5C15 10.3284 14.3284 11 13.5 11L1.5 11C0.671574 11 -5.96046e-08 10.3284 0 9.5L3.57628e-07 1.5ZM8 8H2V7H8V8ZM13 8H10V7H13V8Z" fill="black"/>
</svg>
