<svg width="15" height="15" viewBox="0 0 15 15" fill="none" xmlns="http://www.w3.org/2000/svg">
<path fill-rule="evenodd" clip-rule="evenodd" d="M7 0H8V4H7V0ZM5 2V4H4V2H5ZM0 6.5C0 5.67157 0.671573 5 1.5 5H10.5C11.1531 5 11.7087 5.4174 11.9146 6H13.5C14.3284 6 15 6.67157 15 7.5V9.5C15 10.3284 14.3284 11 13.5 11H12V11.5C12 13.433 10.433 15 8.5 15H3.5C1.567 15 0 13.433 0 11.5V6.5ZM12 10H13.5C13.7761 10 14 9.77614 14 9.5V7.5C14 7.22386 13.7761 7 13.5 7H12V10ZM1.5 6C1.22386 6 1 6.22386 1 6.5V11.5C1 12.8807 2.11929 14 3.5 14H8.5C9.88071 14 11 12.8807 11 11.5V6.5C11 6.22386 10.7761 6 10.5 6H1.5Z" fill="black"/>
</svg>
