<svg width="20" height="20" viewBox="0 0 20 20" fill="none" xmlns="http://www.w3.org/2000/svg">
<path fill-rule="evenodd" clip-rule="evenodd" d="M3.41848 4.27771C3.08758 4.50106 3.06667 4.64194 3.06667 4.66523C3.06667 4.68853 3.08758 4.82941 3.41848 5.05276C3.73063 5.26346 4.21737 5.47423 4.86672 5.65967C6.15815 6.02847 7.97322 6.2638 10 6.2638C12.0268 6.2638 13.8418 6.02847 15.1333 5.65967C15.7826 5.47423 16.2694 5.26346 16.5815 5.05276C16.9124 4.82941 16.9333 4.68853 16.9333 4.66523C16.9333 4.64194 16.9124 4.50106 16.5815 4.27771C16.2694 4.06701 15.7826 3.85624 15.1333 3.6708C13.8418 3.302 12.0268 3.06667 10 3.06667C7.97322 3.06667 6.15815 3.302 4.86672 3.6708C4.21737 3.85624 3.73063 4.06701 3.41848 4.27771ZM16.9333 6.08797C16.5216 6.32098 16.0064 6.51963 15.4262 6.68533C14.0152 7.08827 12.097 7.33047 10 7.33047C7.90305 7.33047 5.98478 7.08827 4.57381 6.68533C3.9936 6.51963 3.47839 6.32098 3.06667 6.08797V9.99505C3.06667 10.0184 3.08759 10.1592 3.41849 10.3826C3.73064 10.5933 4.21738 10.8041 4.86673 10.9896C6.15816 11.3584 7.97323 11.5938 10 11.5938C12.0268 11.5938 13.8418 11.3584 15.1333 10.9896C15.7826 10.8041 16.2694 10.5933 16.5815 10.3826C16.9124 10.1592 16.9333 10.0184 16.9333 9.99505V6.08797ZM18 4.66523C18 4.10011 17.603 3.6803 17.1783 3.39359C16.7348 3.09423 16.128 2.84557 15.4262 2.64514C14.0152 2.2422 12.097 2 10 2C7.90305 2 5.98478 2.2422 4.57381 2.64514C3.87196 2.84557 3.26523 3.09423 2.82172 3.39359C2.39695 3.6803 2 4.10011 2 4.66523V15.3251C2 15.8903 2.39696 16.3101 2.82173 16.5968C3.26525 16.8961 3.87197 17.1447 4.57383 17.3452C5.98479 17.7481 7.90305 17.9902 10 17.9902C12.097 17.9902 14.0152 17.748 15.4262 17.3451C16.128 17.1447 16.7348 16.896 17.1783 16.5966C17.603 16.3099 18 15.8901 18 15.325V4.66523ZM16.9333 11.4178C16.5216 11.6508 16.0064 11.8495 15.4262 12.0152C14.0152 12.4182 12.097 12.6604 10 12.6604C7.90304 12.6604 5.98477 12.4182 4.5738 12.0152C3.99359 11.8495 3.47839 11.6508 3.06667 11.4178V15.3251C3.06667 15.3484 3.08757 15.4893 3.41847 15.7126C3.73062 15.9233 4.21736 16.1341 4.86671 16.3195C6.15814 16.6883 7.97321 16.9236 10 16.9236C12.0268 16.9236 13.8418 16.6882 15.1333 16.3194C15.7826 16.134 16.2694 15.9232 16.5815 15.7125C16.9124 15.4892 16.9333 15.3483 16.9333 15.325V11.4178Z" fill="black"/>
</svg>
