<svg width="15" height="15" viewBox="0 0 15 15" fill="none" xmlns="http://www.w3.org/2000/svg">
<path fill-rule="evenodd" clip-rule="evenodd" d="M0 7.5C0 3.35786 3.35786 0 7.5 0C11.6421 0 15 3.35786 15 7.5C15 11.6421 11.6421 15 7.5 15C3.35786 15 0 11.6421 0 7.5ZM7.5 1C3.91015 1 1 3.91015 1 7.5C1 10.9216 3.64378 13.7257 7 13.9811V10H6C4.34315 10 3 8.65685 3 7C3 5.34315 4.34315 4 6 4H7.69388C9.8141 4 11.565 5.65633 11.6826 7.7733L11.9316 12.2551C13.2042 11.0686 14 9.37722 14 7.5C14 3.91015 11.0899 1 7.5 1ZM10.9713 12.9965L10.6842 7.82877C10.596 6.24172 9.28337 5 7.69388 5H6C5.25972 5 4.61337 5.4022 4.26756 6H5V7H4C4 8.10457 4.89543 9 6 9H7.38197C7.87778 9 8.33105 8.71987 8.55279 8.27639L9.44721 8.72361C9.1509 9.31624 8.62018 9.74351 8 9.91583V13.9811C9.08703 13.8984 10.0993 13.5483 10.9713 12.9965ZM7 7H6V6H7V7Z" fill="black"/>
</svg>
