<svg width="20" height="20" viewBox="0 0 20 20" fill="none" xmlns="http://www.w3.org/2000/svg">
<path fill-rule="evenodd" clip-rule="evenodd" d="M10.0667 2.7C10.0667 1.76112 10.8278 1 11.7667 1H16.3C17.2389 1 18 1.76112 18 2.7V16.3C18 17.2389 17.2389 18 16.3 18H5.53333V16.8667H7.8V14.6H2.7C1.76112 14.6 1 13.8389 1 12.9V6.1C1 5.16112 1.76112 4.4 2.7 4.4H10.0667V2.7ZM11.2 6.66667H16.8667V2.7C16.8667 2.38704 16.613 2.13333 16.3 2.13333H11.7667C11.4537 2.13333 11.2 2.38704 11.2 2.7V6.66667ZM16.8667 7.8H11.2V16.3C11.2 16.613 11.4537 16.8667 11.7667 16.8667H16.3C16.613 16.8667 16.8667 16.613 16.8667 16.3V7.8ZM10.1634 16.8667C10.1008 16.6894 10.0667 16.4987 10.0667 16.3V14.6H8.93333V16.8667H10.1634ZM10.0667 13.4667V5.53333H2.7C2.38704 5.53333 2.13333 5.78704 2.13333 6.1V12.9C2.13333 13.213 2.38704 13.4667 2.7 13.4667H10.0667ZM15.7333 14.6H12.3333V13.4667H15.7333V14.6Z" fill="black"/>
</svg>
