<svg width="13" height="15" viewBox="0 0 13 15" fill="none" xmlns="http://www.w3.org/2000/svg">
<path fill-rule="evenodd" clip-rule="evenodd" d="M5.14645 1.85358C4.78943 1.49656 4.21058 1.49656 3.85356 1.85358C3.49654 2.2106 3.49654 2.78945 3.85356 3.14648L5.5 4.79292L6.0092 4.28372C6.0095 4.28343 6.00979 4.28313 6.01009 4.28284L6.7929 3.50003L5.14645 1.85358ZM7.73823 3.03115L5.85356 1.14648C5.10601 0.398929 3.894 0.398929 3.14645 1.14648C2.3989 1.89402 2.39891 3.10604 3.14645 3.85358L3.33434 4.04147L0.105328 8.19306C-0.0494841 8.3921 -0.0318543 8.67528 0.146451 8.85358L5.2929 14H1V15H12V14H6.70711L1.16567 8.45859L4.04695 4.75408L5.03113 5.73826C4.33771 7.39151 4.66403 9.37116 6.01009 10.7172C6.28066 10.9878 6.71935 10.9878 6.98992 10.7172L12.7172 4.98995C12.9878 4.71937 12.9878 4.28069 12.7172 4.01011C11.3711 2.66405 9.39149 2.33773 7.73823 3.03115ZM6.71641 4.99073C5.40406 6.30388 5.33501 8.38924 6.50927 9.78366L11.7836 4.50929C10.3889 3.3348 8.30303 3.40411 6.98992 4.71722L6.71719 4.98995C6.71693 4.99021 6.71667 4.99047 6.71641 4.99073Z" fill="black"/>
</svg>
