<svg width="15" height="15" viewBox="0 0 15 15" fill="none" xmlns="http://www.w3.org/2000/svg">
<path fill-rule="evenodd" clip-rule="evenodd" d="M0.146461 0.146461C0.291031 0.00189163 0.509053 -0.0400956 0.696974 0.0404421L14.697 6.04044C14.8878 6.12222 15.0082 6.31338 14.9996 6.52079C14.991 6.7282 14.8551 6.90871 14.6581 6.97436L8.8953 8.8953L6.97436 14.6581C6.90871 14.8551 6.7282 14.991 6.52079 14.9996C6.31338 15.0082 6.12222 14.8878 6.04044 14.697L0.0404421 0.696974C-0.0400956 0.509053 0.00189163 0.291031 0.146461 0.146461ZM1.45199 1.45199L6.44154 13.0943L8.02567 8.3419C8.07544 8.1926 8.1926 8.07544 8.3419 8.02567L13.0943 6.44154L1.45199 1.45199Z" fill="black"/>
</svg>
