<svg width="15" height="13" viewBox="0 0 15 13" fill="none" xmlns="http://www.w3.org/2000/svg">
<path fill-rule="evenodd" clip-rule="evenodd" d="M2.64439 2.07197C2.63798 2.09 2.631 2.10971 2.62349 2.13106C2.5774 2.26201 2.51117 2.45441 2.4315 2.69773C2.2721 3.18461 2.0593 3.87418 1.84654 4.68261C1.42285 6.29248 1.00744 8.34372 1.0001 10.197C1.00163 10.2036 1.00343 10.2112 1.00552 10.2196C1.01659 10.2642 1.03573 10.3324 1.06623 10.4164C1.12759 10.5855 1.23257 10.8122 1.40514 11.04C1.7187 11.4539 2.28085 11.908 3.3207 11.9897C3.32771 11.9834 3.33491 11.9769 3.34231 11.9702C3.44941 11.8735 3.59569 11.7401 3.75273 11.5929C3.98368 11.3765 4.22069 11.1462 4.39317 10.9618C4.27256 10.919 4.15683 10.8757 4.04599 10.8324C3.75654 10.7191 3.43414 10.5777 3.10839 10.3953C3.10013 10.3907 3.092 10.3858 3.08401 10.3808C3.08202 10.3797 3.0791 10.3783 3.07506 10.3762C3.07414 10.3758 3.0731 10.3753 3.07195 10.3747C3.05787 10.3677 3.02698 10.3523 2.99178 10.3307C2.95782 10.3115 2.92954 10.2917 2.90668 10.2737C2.8122 10.2201 2.73638 10.174 2.68118 10.1391C2.64909 10.1188 2.62392 10.1024 2.60603 10.0904L2.5847 10.076L2.57822 10.0716L2.57603 10.0701L2.57521 10.0695L3.14792 9.24974L3.14899 9.25046L3.16072 9.25837C3.17205 9.26592 3.19033 9.27791 3.21518 9.29361C3.26491 9.32502 3.34075 9.37113 3.43974 9.42613C3.46719 9.44138 3.4931 9.45917 3.51717 9.47924C3.51867 9.48 3.52043 9.48088 3.52248 9.48191C3.52339 9.48236 3.52442 9.48288 3.52555 9.48344C3.54013 9.4907 3.57259 9.50686 3.60924 9.52966C3.87895 9.6797 4.15192 9.80001 4.40998 9.90101C4.87997 10.0844 5.43703 10.2659 6.08294 10.3908C6.93311 10.5493 7.92391 10.6047 9.00204 10.4025L9.01021 10.401C9.5333 10.3119 10.0719 10.1556 10.6385 9.91753C10.645 9.91479 10.6516 9.91219 10.6582 9.90973C11.0422 9.76722 11.4758 9.5566 11.9356 9.2538L12.4856 10.089C11.9663 10.4309 11.4685 10.6748 11.0161 10.8435C10.8834 10.8991 10.7516 10.9509 10.6206 10.9989C10.7905 11.1773 11.0193 11.3956 11.2436 11.6015C11.4004 11.7454 11.5464 11.8757 11.6534 11.9701C11.6611 11.9769 11.6686 11.9835 11.6759 11.9899C12.7179 11.909 13.2809 11.4543 13.5948 11.04C13.7674 10.8122 13.8724 10.5855 13.9338 10.4164C13.9643 10.3324 13.9834 10.2642 13.9945 10.2196C13.9966 10.2112 13.9984 10.2036 13.9999 10.197C13.9926 8.34372 13.5771 6.2925 13.1534 4.68265C12.9406 3.87424 12.7278 3.18468 12.5684 2.69781C12.4888 2.45449 12.4225 2.2621 12.3764 2.13114C12.3689 2.1098 12.3619 2.09008 12.3555 2.07205C11.5981 1.53082 10.8689 1.26266 10.3241 1.12971C10.1395 1.08468 9.97642 1.05525 9.84106 1.03603L9.75935 1.67218C10.3957 1.88485 11.0495 2.18298 11.7403 2.56162L11.2597 3.43855C9.82016 2.64957 8.64671 2.2837 7.50235 2.28427C6.35769 2.28483 5.18247 2.65204 3.7394 3.43905L3.2606 2.56112C3.93833 2.19151 4.58027 1.89835 5.20488 1.68664L5.14313 1.03823C5.01093 1.05748 4.85332 1.08636 4.67586 1.12966C4.131 1.26262 3.40181 1.53078 2.64439 2.07197ZM5.59413 0.500083L5.60508 0.000203371C5.85861 0.00575697 6.06784 0.200228 6.09188 0.452677L6.18399 1.41984C6.6249 1.3303 7.06188 1.28449 7.50185 1.28427C7.93027 1.28406 8.35571 1.32708 8.78459 1.41172L8.90986 0.436469C8.94137 0.191138 9.14752 0.00571504 9.39481 0.000285923L9.40578 0.500165C9.39481 0.000285923 9.3946 0.000290424 9.39481 0.000285923L9.3967 0.000247598L9.3992 0.000204861L9.406 0.00012219L9.42673 8.10325e-05C9.44367 0.000151783 9.46678 0.00047636 9.49568 0.00140005C9.55347 0.0032469 9.63452 0.00749236 9.73569 0.0169149C9.93791 0.0357473 10.2215 0.0753456 10.5611 0.158217C11.2405 0.323986 12.1474 0.663763 13.0739 1.35874C13.1505 1.41616 13.2089 1.49435 13.2424 1.58401L12.7739 1.75873C13.2424 1.58401 13.2423 1.58392 13.2424 1.58401L13.244 1.58839L13.2481 1.59945L13.2633 1.6411C13.2765 1.67739 13.2956 1.73051 13.3197 1.79914C13.368 1.93638 13.4366 2.13574 13.5188 2.38664C13.683 2.88821 13.9017 3.59698 14.1205 4.42813C14.556 6.08297 15 8.2534 15 10.2467C15 10.2735 14.9979 10.3002 14.9936 10.3266L14.5 10.2467C14.9936 10.3266 14.9936 10.3263 14.9936 10.3266L14.9934 10.3279L14.9931 10.3293L14.9925 10.3328L14.9909 10.3422C14.9896 10.3495 14.9878 10.3589 14.9855 10.3702C14.9809 10.3929 14.9743 10.4234 14.965 10.4606C14.9465 10.535 14.9176 10.637 14.8738 10.7576C14.7865 10.998 14.6382 11.3188 14.3919 11.6439C13.8868 12.3106 12.9992 12.9529 11.5158 12.9999C11.3907 13.0038 11.2686 12.9607 11.1737 12.879L11.1701 12.8758L11.1603 12.8674L11.1238 12.8356C11.0923 12.8082 11.0471 12.7687 10.9918 12.72C10.8814 12.6226 10.7302 12.4877 10.5672 12.338C10.2524 12.0489 9.85733 11.6719 9.64861 11.4076C9.62334 11.3756 9.60261 11.3414 9.58632 11.3059C9.45113 11.3365 9.31649 11.3632 9.18227 11.3862C7.96113 11.6145 6.84431 11.5502 5.89798 11.3735L5.89494 11.3729C5.73105 11.3413 5.5725 11.3064 5.41929 11.269C5.40225 11.3091 5.37966 11.3476 5.35136 11.3835C5.14444 11.6457 4.75149 12.0274 4.43649 12.3226C4.27376 12.4751 4.12273 12.6128 4.01247 12.7124C3.95728 12.7622 3.91217 12.8026 3.88074 12.8307L3.84427 12.8631L3.83197 12.874L3.83107 12.8748C3.7356 12.9591 3.61147 13.0039 3.48417 12.9999C2.0008 12.9529 1.11319 12.3106 0.608079 11.6439C0.361783 11.3188 0.213456 10.998 0.126228 10.7576C0.0824359 10.637 0.0534559 10.535 0.0349903 10.4606C0.0257432 10.4234 0.0190892 10.3929 0.0145077 10.3702C0.0122158 10.3589 0.0104389 10.3495 0.00911263 10.3422L0.00745201 10.3328L0.00685936 10.3293L0.00661978 10.3278C0.00657061 10.3275 0.00641701 10.3266 0.5 10.2467L0.00641701 10.3266C0.00214589 10.3002 0 10.2735 0 10.2467C0 8.25341 0.443946 6.08295 0.879472 4.42809C1.09821 3.59694 1.31692 2.88816 1.48114 2.38658C1.56329 2.13567 1.6319 1.93631 1.68021 1.79907C1.70436 1.73044 1.72344 1.67732 1.73661 1.64103L1.75182 1.59938L1.7559 1.58832L1.75746 1.58412C1.7575 1.58402 1.75753 1.58394 2.22601 1.75864L1.75746 1.58412C1.7909 1.49444 1.84944 1.41607 1.92601 1.35865C2.85256 0.663719 3.75943 0.323946 4.4388 0.158167C4.77843 0.0752914 5.06199 0.0356852 5.2642 0.0168459C5.36538 0.00742 5.44642 0.00317135 5.50421 0.00132206C5.53311 0.000397146 5.55622 7.15554e-05 5.57316 0L5.59389 4.02033e-05L5.6007 0.000122517L5.60319 0.000165135L5.60508 0.000203371C5.60529 0.000207841 5.60508 0.000203371 5.59413 0.500083ZM3.53601 7.80148C3.53601 6.83802 4.25732 5.97106 5.25852 5.97106C6.25125 5.97106 6.99506 6.82948 6.9811 7.8056C6.97905 8.76749 6.25837 9.63198 5.25852 9.63198C4.2723 9.63198 3.53601 8.76831 3.53601 7.80148ZM5.25852 6.97106C4.89333 6.97106 4.53601 7.30269 4.53601 7.80148C4.53601 8.29706 4.90227 8.63198 5.25852 8.63198C5.62379 8.63198 5.98111 8.30035 5.98111 7.80148V7.79324C5.98909 7.30881 5.63078 6.97106 5.25852 6.97106ZM7.9109 7.80148C7.9109 6.83795 8.63235 5.97106 9.63357 5.97106C10.6348 5.97106 11.3561 6.83802 11.3561 7.80148C11.3561 8.765 10.6348 9.63198 9.63357 9.63198C8.64743 9.63198 7.9109 8.7684 7.9109 7.80148ZM9.63357 6.97106C9.26823 6.97106 8.9109 7.30275 8.9109 7.80148C8.9109 8.29697 9.27724 8.63198 9.63357 8.63198C9.99874 8.63198 10.3561 8.30038 10.3561 7.80148C10.3561 7.30269 9.99876 6.97106 9.63357 6.97106Z" fill="black"/>
</svg>
