<svg width="13" height="15" viewBox="0 0 13 15" fill="none" xmlns="http://www.w3.org/2000/svg">
<path fill-rule="evenodd" clip-rule="evenodd" d="M1.5 1C1.22386 1 1 1.22386 1 1.5V5H0V1.5C0 0.671573 0.671573 0 1.5 0H9.70711L13 3.29289V5H12V3.70711L9.29289 1H1.5ZM1 6H2.5C3.32843 6 4 6.67157 4 7.5V9.5C4 10.3284 3.32843 11 2.5 11H1V6ZM2 7V10H2.5C2.77614 10 3 9.77614 3 9.5V7.5C3 7.22386 2.77614 7 2.5 7H2ZM6.5 7C6.22386 7 6 7.22386 6 7.5V9.5C6 9.77614 6.22386 10 6.5 10C6.77614 10 7 9.77614 7 9.5V7.5C7 7.22386 6.77614 7 6.5 7ZM5 7.5C5 6.67157 5.67157 6 6.5 6C7.32843 6 8 6.67157 8 7.5V9.5C8 10.3284 7.32843 11 6.5 11C5.67157 11 5 10.3284 5 9.5V7.5ZM9 11V6H12V8H11V7H10V10H11V9H12V11H9ZM0 13.5V12H1V13.5C1 13.7761 1.22386 14 1.5 14H11.5C11.7761 14 12 13.7761 12 13.5V12H13V13.5C13 14.3284 12.3284 15 11.5 15H1.5C0.671573 15 0 14.3284 0 13.5Z" fill="black"/>
</svg>
