<svg width="20" height="20" viewBox="0 0 20 20" fill="none" xmlns="http://www.w3.org/2000/svg">
<path fill-rule="evenodd" clip-rule="evenodd" d="M8 1H12V6.53846H15.3333C16.4379 6.53846 17.3333 7.46833 17.3333 8.61539V9.30769H18C19.1046 9.30769 20 10.2376 20 11.3846V13.4615H18.3148C17.5744 13.4615 16.8564 13.9158 16.3447 14.638C14.4219 17.3517 11.3502 19 8.03715 19H7.33333C3.28325 19 0 15.5905 0 11.3846V6.53846H2.66667V3.76923H8V1ZM8 5.15385H6.66667V6.53846H8V5.15385ZM9.33333 6.53846V5.15385H10.6667V6.53846H9.33333ZM8 7.92308H6.66667V9.30769H8V7.92308ZM9.33333 9.30769V7.92308H10.6667V9.30769H9.33333ZM12 9.18951C12.5683 8.98093 13.0187 8.51321 13.2195 7.92308H12V9.18951ZM14.6 7.92308C14.2911 9.50309 12.946 10.6923 11.3333 10.6923H1.33333V11.3846C1.33333 14.8258 4.01963 17.6154 7.33333 17.6154H8.03715C10.9217 17.6154 13.5965 16.1803 15.2708 13.8174C15.9564 12.8498 17.035 12.0769 18.3148 12.0769H18.6667V11.3846C18.6667 11.0023 18.3682 10.6923 18 10.6923H16V8.61539C16 8.23303 15.7015 7.92308 15.3333 7.92308H14.6ZM1.33333 9.30769H2.66667V7.92308H1.33333V9.30769ZM4 7.92308V9.30769H5.33333V7.92308H4ZM5.33333 6.53846V5.15385H4V6.53846H5.33333ZM10.6667 3.76923H9.33333V2.38462H10.6667V3.76923ZM5.33333 13.4615H4V12.0769H5.33333V13.4615Z" fill="black"/>
</svg>
