<svg width="15" height="13" viewBox="0 0 15 13" fill="none" xmlns="http://www.w3.org/2000/svg">
<path fill-rule="evenodd" clip-rule="evenodd" d="M6 0H9V4H11.5C12.3284 4 13 4.67157 13 5.5V6H13.5C14.3284 6 15 6.67157 15 7.5V9H13.7361C13.1808 9 12.6423 9.3281 12.2585 9.84963C10.8164 11.8096 8.51265 13 6.02786 13H5.5C2.46243 13 0 10.5376 0 7.5V4H2V2H6V0ZM6 3H5V4H6V3ZM7 4V3H8V4H7ZM6 5H5V6H6V5ZM7 6V5H8V6H7ZM9 5.91465C9.42621 5.764 9.764 5.42621 9.91465 5H9V5.91465ZM10.95 5C10.7184 6.14112 9.70948 7 8.5 7H1V7.5C1 9.98528 3.01472 12 5.5 12H6.02786C8.19127 12 10.1974 10.9636 11.4531 9.25698C11.9673 8.55817 12.7762 8 13.7361 8H14V7.5C14 7.22386 13.7761 7 13.5 7H12V5.5C12 5.22386 11.7761 5 11.5 5H10.95ZM1 6H2V5H1V6ZM3 5V6H4V5H3ZM4 4V3H3V4H4ZM8 2H7V1H8V2ZM4 9H3V8H4V9Z" fill="black"/>
</svg>
