<svg width="13" height="15" viewBox="0 0 13 15" fill="none" xmlns="http://www.w3.org/2000/svg">
<path fill-rule="evenodd" clip-rule="evenodd" d="M3.5 1C3.22386 1 3 1.22386 3 1.5V11.5C3 11.7761 3.22386 12 3.5 12H11.5C11.7761 12 12 11.7761 12 11.5V2.76759L9.34861 1H3.5ZM2 1.5C2 0.671573 2.67157 0 3.5 0H9.65139L13 2.23241V11.5C13 12.3284 12.3284 13 11.5 13H11V13.5C11 14.3284 10.3284 15 9.5 15H1.5C0.671573 15 0 14.3284 0 13.5V3.5C0 2.67157 0.671573 2 1.5 2H2V1.5ZM2 3H1.5C1.22386 3 1 3.22386 1 3.5V13.5C1 13.7761 1.22386 14 1.5 14H9.5C9.77614 14 10 13.7761 10 13.5V13H3.5C2.67157 13 2 12.3284 2 11.5V3Z" fill="black"/>
</svg>
