<svg width="11" height="15" viewBox="0 0 11 15" fill="none" xmlns="http://www.w3.org/2000/svg">
<path fill-rule="evenodd" clip-rule="evenodd" d="M5 1V0H6V1H7.5C9.433 1 11 2.567 11 4.5H10C10 3.11929 8.88071 2 7.5 2H3.5C2.11929 2 1 3.11929 1 4.5C1 5.88071 2.11929 7 3.5 7H7.5C9.433 7 11 8.567 11 10.5C11 12.433 9.433 14 7.5 14H6V15H5V14H3.5C1.567 14 0 12.433 0 10.5H1C1 11.8807 2.11929 13 3.5 13H7.5C8.88071 13 10 11.8807 10 10.5C10 9.11929 8.88071 8 7.5 8H3.5C1.567 8 0 6.433 0 4.5C0 2.567 1.567 1 3.5 1H5Z" fill="black"/>
</svg>
