<svg width="15" height="15" viewBox="0 0 15 15" fill="none" xmlns="http://www.w3.org/2000/svg">
<path fill-rule="evenodd" clip-rule="evenodd" d="M7.50002 1C3.91017 1 1.00002 3.91015 1.00002 7.5C1.00002 11.0899 3.91016 14 7.50001 14C11.0899 14 14 11.0899 14 7.5C14 3.91015 11.0899 1 7.50002 1ZM1.52588e-05 7.5C1.54376e-05 3.35786 3.35788 -1.78814e-07 7.50002 0C11.6422 1.78814e-07 15 3.35786 15 7.5C15 11.6421 11.6422 15 7.50001 15C3.35788 15 1.508e-05 11.6421 1.52588e-05 7.5ZM5.50002 4.79289L7.50002 6.79289L9.50002 4.79289L10.2071 5.5L7.50002 8.20711L4.79291 5.5L5.50002 4.79289ZM5.50002 7.79289L7.50002 9.79289L9.50002 7.79289L10.2071 8.5L7.50002 11.2071L4.79291 8.5L5.50002 7.79289Z" fill="black"/>
</svg>
