<svg width="15" height="15" viewBox="0 0 15 15" fill="none" xmlns="http://www.w3.org/2000/svg">
<path fill-rule="evenodd" clip-rule="evenodd" d="M0 7.5C5.96046e-08 3.35786 3.35786 -5.96046e-08 7.5 0C11.6421 5.96046e-08 15 3.35786 15 7.5C15 11.6421 11.6421 15 7.5 15C3.35786 15 -5.96046e-08 11.6421 0 7.5ZM7.5 1C3.91015 1 1 3.91015 1 7.5C1 11.0899 3.91015 14 7.5 14C11.0899 14 14 11.0899 14 7.5C14 3.91015 11.0899 1 7.5 1ZM7.5 3.79289L10.2071 6.5L9.5 7.20711L7.5 5.20711L5.5 7.20711L4.79289 6.5L7.5 3.79289ZM7.5 6.79289L10.2071 9.5L9.5 10.2071L7.5 8.20711L5.5 10.2071L4.79289 9.5L7.5 6.79289Z" fill="black"/>
</svg>
