<svg width="20" height="20" viewBox="0 0 20 20" fill="none" xmlns="http://www.w3.org/2000/svg">
<path fill-rule="evenodd" clip-rule="evenodd" d="M2 10C2 5.5819 5.5819 2 10 2C12.2369 2 14.2594 2.91819 15.7113 4.39821C15.7162 4.40305 15.721 4.40797 15.7257 4.41296C17.1329 5.85485 18 7.82621 18 10C18 13.1656 16.1611 15.9019 13.4934 17.1989C13.4837 17.204 13.4738 17.2088 13.4637 17.2133C12.4156 17.7175 11.2408 18 10 18C5.5819 18 2 14.4181 2 10ZM13.6683 15.8844C15.2945 14.8685 16.4692 13.1972 16.8227 11.2404C15.2424 10.8152 13.7621 10.65 12.3753 10.8065C12.9713 12.4127 13.3959 14.0887 13.6683 15.8844ZM11.307 10.9962C11.955 12.6976 12.3984 14.4767 12.6656 16.4023C11.845 16.7444 10.9446 16.9333 10 16.9333C8.32206 16.9333 6.78327 16.3372 5.58391 15.3451C7.18161 13.0451 8.9164 11.743 10.7672 11.1489C10.9455 11.0917 11.1254 11.0408 11.307 10.9962ZM11.9683 9.78313C13.5559 9.55625 15.2154 9.72137 16.9314 10.1659C16.9327 10.1108 16.9333 10.0555 16.9333 10C16.9333 8.32253 16.3375 6.78415 15.346 5.58494C14.1938 6.85988 12.888 7.77126 11.3355 8.41391C11.5617 8.86612 11.7725 9.32211 11.9683 9.78313ZM10.3272 8.78308C10.531 9.18528 10.7218 9.5903 10.9 9.99914C10.7463 10.0397 10.5934 10.0844 10.4412 10.1333C8.36034 10.8012 6.48231 12.2327 4.80759 14.5945C3.72432 13.3712 3.06667 11.7624 3.06667 10C3.06667 9.93123 3.06767 9.86269 3.06966 9.7944C5.97559 9.7052 8.34175 9.42219 10.3272 8.78308ZM10.8355 7.46578C12.3284 6.86258 13.5406 6.00676 14.6034 4.81544C13.379 3.7275 11.7666 3.06667 10 3.06667C9.32388 3.06667 8.67035 3.16346 8.05252 3.34395C9.14203 4.71478 10.0649 6.07628 10.8355 7.46578ZM7.00638 3.74454C8.11119 5.10847 9.04173 6.45531 9.81491 7.826C8.03499 8.37112 5.88249 8.63379 3.18394 8.72353C3.5938 6.52144 5.04458 4.68514 7.00638 3.74454Z" fill="black"/>
</svg>
