<svg width="15" height="15" viewBox="0 0 15 15" fill="none" xmlns="http://www.w3.org/2000/svg">
<path fill-rule="evenodd" clip-rule="evenodd" d="M7.74807 1.21761C7.59435 1.12977 7.40565 1.12977 7.25193 1.21761L1.25193 4.64618C1.20241 4.67448 1.15892 4.71052 1.12263 4.75228L7.5 7.94097L13.8774 4.75228C13.8411 4.71052 13.7976 4.67448 13.7481 4.64618L7.74807 1.21761ZM14 5.809L7.5 9.059L1 5.809V13.5C1 13.7761 1.22386 14 1.5 14H13.5C13.7761 14 14 13.7761 14 13.5V5.809ZM6.75579 0.349369C7.21694 0.0858548 7.78306 0.0858551 8.24421 0.349369L14.2442 3.77794C14.7116 4.045 15 4.54202 15 5.08031V13.5C15 14.3284 14.3284 15 13.5 15H1.5C0.671574 15 0 14.3284 0 13.5V5.0803C0 4.54202 0.288429 4.045 0.755792 3.77794L6.75579 0.349369Z" fill="black"/>
</svg>
