<svg width="11" height="15" viewBox="0 0 11 15" fill="none" xmlns="http://www.w3.org/2000/svg">
<path fill-rule="evenodd" clip-rule="evenodd" d="M5.5 0C5.64839 0 5.78912 0.0659115 5.88411 0.179908L10.8841 6.17991C11.0224 6.34585 11.0385 6.58183 10.924 6.765L5.924 14.765C5.83263 14.9112 5.6724 15 5.5 15C5.32761 15 5.16737 14.9112 5.076 14.765L0.0760037 6.765C-0.0384789 6.58183 -0.0223911 6.34585 0.115892 6.17991L5.11589 0.179908C5.21089 0.0659115 5.35161 0 5.5 0ZM1.24096 6.74213L5.5 5.03852L9.75905 6.74213L5.5 13.5566L1.24096 6.74213ZM8.85058 5.30171L5.5 3.96148L2.14943 5.30171L5.5 1.28102L8.85058 5.30171Z" fill="black"/>
</svg>
