<svg width="20" height="20" viewBox="0 0 20 20" fill="none" xmlns="http://www.w3.org/2000/svg">
<path d="M8 4.25991C8 4.06991 8 3.99991 8.31 3.99991H12.77C13.56 3.99991 13.99 4.66991 14.3 5.90991L14.55 6.90991H15.31C15.45 4.08991 15.57 2.90991 15.57 2.90991C15.57 2.90991 13.65 2.99991 12.52 2.99991H6.81L3.75 2.91991V3.75991L4.75 3.95991C5.48 4.06991 5.65 4.22991 5.75 4.95991C5.75 4.95991 5.81 6.95991 5.81 10.1299C5.81 13.2999 5.75 15.2699 5.75 15.2699C5.75 15.8599 5.52 16.0799 4.75 16.2099L3.75 16.4099V17.2499L6.81 17.1499H11.92C13.07 17.1499 15.74 17.2499 15.74 17.2499C15.74 16.5499 16.19 13.3699 16.25 13.0299H15.52L14.76 14.7199C14.585 15.2107 14.2451 15.6256 13.7983 15.8937C13.3514 16.1618 12.8254 16.2665 12.31 16.1899H9.4C8.4 16.1899 7.96 15.7899 7.96 14.9499V10.4399C7.96 10.4399 10.12 10.4399 10.82 10.4999C11.37 10.4999 11.67 10.6899 11.88 11.4999L12.11 12.4999H13L12.9 9.93991L13 7.40991H12.15L11.87 8.53991C11.71 9.27991 11.59 9.37991 10.87 9.53991C9.87 9.63991 7.98 9.62991 7.98 9.62991L8 4.25991Z" fill="black"/>
</svg>
