<svg width="14" height="15" viewBox="0 0 14 15" fill="none" xmlns="http://www.w3.org/2000/svg">
<path fill-rule="evenodd" clip-rule="evenodd" d="M2.17405 5C2.85142 2.13323 5.42614 0 8.5 0C10.6752 0 12.6008 1.06896 13.7798 2.70802L12.9681 3.29198C11.9688 1.9029 10.3398 1 8.5 1C5.98272 1 3.85968 2.69156 3.2069 5H7V6H3.02239C3.00758 6.16458 3 6.33135 3 6.5V8.5C3 8.66865 3.00758 8.83542 3.02239 9H7V10H3.2069C3.85968 12.3084 5.98272 14 8.5 14C10.3398 14 11.9688 13.0971 12.9681 11.708L13.7798 12.292C12.6008 13.931 10.6752 15 8.5 15C5.42614 15 2.85142 12.8668 2.17405 10H0V9H2.01897C2.0064 8.83491 2 8.66816 2 8.5V6.5C2 6.33184 2.0064 6.16509 2.01897 6H0V5H2.17405Z" fill="black"/>
</svg>
