<svg width="15" height="11" viewBox="0 0 15 11" fill="none" xmlns="http://www.w3.org/2000/svg">
<path fill-rule="evenodd" clip-rule="evenodd" d="M1.0472 5.5C1.04745 5.50054 1.04771 5.50109 1.04797 5.50164C1.10772 5.62838 1.19968 5.81247 1.32563 6.03474C1.57811 6.48029 1.96405 7.07375 2.49664 7.66552C3.56111 8.84827 5.18597 10 7.49998 10C9.814 10 11.4389 8.84827 12.5033 7.66552C13.0359 7.07375 13.4219 6.48029 13.6744 6.03474C13.8003 5.81246 13.8923 5.62838 13.952 5.50163C13.9523 5.50109 13.9525 5.50054 13.9528 5.5C13.9525 5.49946 13.9523 5.49891 13.952 5.49837C13.8923 5.37162 13.8003 5.18754 13.6744 4.96526C13.4219 4.51971 13.0359 3.92625 12.5033 3.33448C11.4389 2.15173 9.814 1 7.49998 1C5.18597 1 3.56111 2.15173 2.49664 3.33448C1.96405 3.92625 1.57811 4.51971 1.32563 4.96526C1.19968 5.18753 1.10772 5.37162 1.04797 5.49836C1.04771 5.49891 1.04745 5.49946 1.0472 5.5ZM14.5 5.5C14.9642 5.3143 14.9642 5.31409 14.9641 5.31385L14.9638 5.31329L14.9632 5.31182L14.9615 5.30752L14.9557 5.29356C14.9509 5.28192 14.944 5.26564 14.9351 5.24504C14.9172 5.20385 14.8912 5.14533 14.8566 5.07195C14.7874 4.92526 14.6841 4.71871 14.5444 4.47224C14.2656 3.98029 13.8391 3.32375 13.2466 2.66552C12.0611 1.34827 10.186 0 7.49998 0C4.814 0 2.93886 1.34827 1.75334 2.66552C1.16093 3.32375 0.734381 3.98029 0.455611 4.47224C0.315944 4.71872 0.212592 4.92526 0.143439 5.07195C0.108844 5.14533 0.0827516 5.20386 0.0649031 5.24505C0.0559773 5.26564 0.0491078 5.28192 0.0442628 5.29356L0.0385076 5.30752L0.0367599 5.31182L0.0361671 5.31329L0.0359408 5.31386C0.0358471 5.31409 0.0357612 5.31431 0.5 5.5L0.0357612 5.31431C-0.0119204 5.43351 -0.0119204 5.56649 0.0357612 5.68569L0.5 5.5C0.0357612 5.68569 0.0358471 5.68591 0.0359408 5.68614L0.0361671 5.68671L0.0367599 5.68818L0.0385076 5.69248L0.0442628 5.70644C0.0491078 5.71808 0.0559773 5.73436 0.0649031 5.75495C0.0827516 5.79614 0.108844 5.85467 0.143439 5.92805C0.212592 6.07474 0.315944 6.28128 0.455611 6.52776C0.734381 7.01971 1.16093 7.67625 1.75334 8.33448C2.93886 9.65173 4.814 11 7.49998 11C10.186 11 12.0611 9.65173 13.2466 8.33448C13.8391 7.67625 14.2656 7.01971 14.5444 6.52776C14.6841 6.28129 14.7874 6.07474 14.8566 5.92805C14.8912 5.85467 14.9172 5.79615 14.9351 5.75496C14.944 5.73436 14.9509 5.71808 14.9557 5.70644L14.9615 5.69248L14.9632 5.68818L14.9638 5.68671L14.9641 5.68615C14.9642 5.68591 14.9642 5.6857 14.5 5.5ZM14.5 5.5L14.9642 5.6857C15.0119 5.56649 15.0119 5.43351 14.9642 5.3143L14.5 5.5ZM5 5.5C5 4.11929 6.11929 3 7.5 3C8.88071 3 10 4.11929 10 5.5C10 6.88071 8.88071 8 7.5 8C6.11929 8 5 6.88071 5 5.5ZM7.5 4C6.67157 4 6 4.67157 6 5.5C6 6.32843 6.67157 7 7.5 7C8.32843 7 9 6.32843 9 5.5C9 4.67157 8.32843 4 7.5 4Z" fill="black"/>
</svg>
