<svg width="20" height="20" viewBox="0 0 20 20" fill="none" xmlns="http://www.w3.org/2000/svg">
<path fill-rule="evenodd" clip-rule="evenodd" d="M1 9.5C1 4.80558 4.80558 1 9.5 1C14.1944 1 18 4.80558 18 9.5C18 14.1944 14.1944 18 9.5 18C4.80558 18 1 14.1944 1 9.5ZM9.5 2.13333C5.4315 2.13333 2.13333 5.4315 2.13333 9.5C2.13333 13.3778 5.12961 16.5558 8.93333 16.8452V11.2H6.66667V10.0667H8.93333V8.36667C8.93333 6.80186 10.2019 5.53333 11.7667 5.53333H12.3333V6.66667H11.7667C10.8278 6.66667 10.0667 7.42778 10.0667 8.36667V10.0667H12.3333V11.2H10.0667V16.8452C13.8704 16.5558 16.8667 13.3778 16.8667 9.5C16.8667 5.4315 13.5685 2.13333 9.5 2.13333Z" fill="black"/>
</svg>
