<svg width="20" height="20" viewBox="0 0 20 20" fill="none" xmlns="http://www.w3.org/2000/svg">
<path fill-rule="evenodd" clip-rule="evenodd" d="M4.5 3C3.67157 3 3 3.67157 3 4.5V7H2V4.5C2 3.11929 3.11929 2 4.5 2H7V3H4.5ZM14.5 3H12V2H14.5C15.8807 2 17 3.11929 17 4.5V7H16V4.5C16 3.67157 15.3284 3 14.5 3ZM7 8H6V7H7V8ZM13 8H12V7H13V8ZM6.9 10.7C8.2 12.4333 10.8 12.4333 12.1 10.7L12.9 11.3C11.2 13.5667 7.8 13.5667 6.1 11.3L6.9 10.7ZM2 14.5V12H3V14.5C3 15.3284 3.67157 16 4.5 16H7V17H4.5C3.11929 17 2 15.8807 2 14.5ZM17 12V14.5C17 15.8807 15.8807 17 14.5 17H12V16H14.5C15.3284 16 16 15.3284 16 14.5V12H17Z" fill="black"/>
</svg>
