<svg width="9" height="13" viewBox="0 0 9 13" fill="none" xmlns="http://www.w3.org/2000/svg">
<path fill-rule="evenodd" clip-rule="evenodd" d="M0 2.5C0 1.11929 1.11929 0 2.5 0H6.5C7.88071 0 9 1.11929 9 2.5C9 3.3178 8.60733 4.04389 8.00024 4.5C8.60733 4.95612 9 5.6822 9 6.5C9 7.88071 7.88071 9 6.5 9C5.9372 9 5.41783 8.81403 5 8.50018V10.5C5 11.8807 3.88071 13 2.5 13C1.11929 13 0 11.8807 0 10.5C0 9.6822 0.392672 8.95612 0.999758 8.5C0.392672 8.04389 0 7.3178 0 6.5C0 5.6822 0.392672 4.95612 0.999758 4.5C0.392672 4.04389 0 3.3178 0 2.5ZM2.5 5C1.67157 5 1 5.67157 1 6.5C1 7.32843 1.67157 8 2.5 8H4V5H2.5ZM5 4H6.5C7.32843 4 8 3.32843 8 2.5C8 1.67157 7.32843 1 6.5 1H5V4ZM4 1V4H2.5C1.67157 4 1 3.32843 1 2.5C1 1.67157 1.67157 1 2.5 1H4ZM4 9H2.5C1.67157 9 1 9.67157 1 10.5C1 11.3284 1.67157 12 2.5 12C3.32843 12 4 11.3284 4 10.5V9ZM5 6.5C5 7.32843 5.67157 8 6.5 8C7.32843 8 8 7.32843 8 6.5C8 5.67157 7.32843 5 6.5 5C5.67157 5 5 5.67157 5 6.5Z" fill="black"/>
</svg>
