<svg width="20" height="20" viewBox="0 0 20 20" fill="none" xmlns="http://www.w3.org/2000/svg">
<path d="M18.6241 2.35C18.3682 2.12 18.0472 2 17.7283 2C17.3966 2 17.0873 2.12 16.8431 2.35L8.24727 10.43L7.26611 13L9.98564 12.08L18.6252 4.01C19.1254 3.54 19.1254 2.82 18.6241 2.35Z" stroke="black"/>
<path fill-rule="evenodd" clip-rule="evenodd" d="M13.0651 4H4.59972C3.71622 4 3 4.67157 3 5.5V17.5C3 18.3284 3.71622 19 4.59972 19H15.2645C16.148 19 16.8642 18.3284 16.8642 17.5V7.29289L16.8016 7.23416L15.7978 8.17005V17.5C15.7978 17.7761 15.559 18 15.2645 18H4.59972C4.30522 18 4.06648 17.7761 4.06648 17.5V5.5C4.06648 5.22386 4.30522 5 4.59972 5H11.9925L13.0651 4Z" fill="black"/>
</svg>
