<svg width="20" height="20" viewBox="0 0 20 20" fill="none" xmlns="http://www.w3.org/2000/svg">
<path fill-rule="evenodd" clip-rule="evenodd" d="M4.61538 3.07692C4.318 3.07692 4.07692 3.318 4.07692 3.61538V7.38462H3V3.61538C3 2.72323 3.72323 2 4.61538 2H13.4538L17 5.54619V7.38462H15.9231V5.99227L13.0077 3.07692H4.61538ZM4.07692 8.46154H5.69231C6.58446 8.46154 7.30769 9.18477 7.30769 10.0769C7.30769 10.9691 6.58446 11.6923 5.69231 11.6923H5.15385V13.8462H4.07692V8.46154ZM5.15385 10.6154H5.69231C5.98969 10.6154 6.23077 10.3743 6.23077 10.0769C6.23077 9.77954 5.98969 9.53846 5.69231 9.53846H5.15385V10.6154ZM8.38462 8.46154H10C10.8922 8.46154 11.6154 9.18477 11.6154 10.0769V12.2308C11.6154 13.1229 10.8922 13.8462 10 13.8462H8.38462V8.46154ZM9.46154 9.53846V12.7692H10C10.2974 12.7692 10.5385 12.5282 10.5385 12.2308V10.0769C10.5385 9.77954 10.2974 9.53846 10 9.53846H9.46154ZM12.6923 8.46154H15.9231V9.53846H13.7692V10.6154H14.8462V11.6923H13.7692V13.8462H12.6923V8.46154ZM3 16.5385V14.9231H4.07692V16.5385C4.07692 16.8358 4.318 17.0769 4.61538 17.0769H15.3846C15.682 17.0769 15.9231 16.8358 15.9231 16.5385V14.9231H17V16.5385C17 17.4306 16.2768 18.1538 15.3846 18.1538H4.61538C3.72323 18.1538 3 17.4306 3 16.5385Z" fill="black"/>
</svg>
