<svg width="13" height="15" viewBox="0 0 13 15" fill="none" xmlns="http://www.w3.org/2000/svg">
<path fill-rule="evenodd" clip-rule="evenodd" d="M1.5 1C1.22386 1 1 1.22386 1 1.5V13.5C1 13.7761 1.22386 14 1.5 14H11.5C11.7761 14 12 13.7761 12 13.5V3.70711L9.29289 1H1.5ZM0 1.5C0 0.671574 0.671573 0 1.5 0H9.70711L13 3.29289V13.5C13 14.3284 12.3284 15 11.5 15H1.5C0.671573 15 0 14.3284 0 13.5V1.5ZM3 7.5C3 5.567 4.567 4 6.5 4C8.433 4 10 5.567 10 7.5C10 9.433 8.433 11 6.5 11C4.567 11 3 9.433 3 7.5ZM6.5 5C5.11929 5 4 6.11929 4 7.5C4 8.00954 4.15244 8.48348 4.4142 8.87869L7.8787 5.4142C7.48348 5.15244 7.00954 5 6.5 5ZM8.5858 6.12131L5.12131 9.5858C5.51652 9.84756 5.99046 10 6.5 10C7.88071 10 9 8.88071 9 7.5C9 6.99046 8.84756 6.51652 8.5858 6.12131Z" fill="black"/>
</svg>
