<svg width="20" height="20" viewBox="0 0 20 20" fill="none" xmlns="http://www.w3.org/2000/svg">
<path fill-rule="evenodd" clip-rule="evenodd" d="M4.61538 3.07692C4.318 3.07692 4.07692 3.318 4.07692 3.61539V16.5385C4.07692 16.8358 4.318 17.0769 4.61538 17.0769H15.3846C15.682 17.0769 15.9231 16.8358 15.9231 16.5385V5.99227L13.0077 3.07692H4.61538ZM3 3.61539C3 2.72323 3.72323 2 4.61538 2H13.4538L17 5.54619V16.5385C17 17.4306 16.2768 18.1538 15.3846 18.1538H4.61538C3.72323 18.1538 3 17.4306 3 16.5385V3.61539ZM6.23077 6.30487H13.7692V7.38179H6.23077V6.30487ZM6.23077 9.53353H13.7692V10.6105H6.23077V9.53353ZM6.23077 12.7692H13.7692V13.8462H6.23077V12.7692Z" fill="black"/>
</svg>
