<svg width="20" height="20" viewBox="0 0 20 20" fill="none" xmlns="http://www.w3.org/2000/svg">
<path fill-rule="evenodd" clip-rule="evenodd" d="M12.1797 3.73509C11.3506 3.2528 10.4103 2.99935 9.45339 3.00001C8.49652 3.00066 7.55651 3.25539 6.72803 3.73882C5.89953 4.22226 5.21168 4.91745 4.73415 5.75471C4.25662 6.59198 4.00641 7.54157 4.00903 8.50773L4.00903 8.50909L4.00903 9.25818L4.00876 9.27467C3.95203 10.9941 4.17119 12.7114 4.65775 14.3603L4.79925 14.8399L3.84013 15.1229L3.69863 14.6433C3.1826 12.8945 2.94976 11.0734 3.00903 9.25V8.50976M14.7598 4.82697L15.0165 5.2561C15.7402 6.46632 16.0519 7.88075 15.9052 9.28475V10.0073C15.9044 10.7089 16.0869 11.3988 16.4341 12.0065L16.6822 12.4406L15.8139 12.9367L15.5659 12.5026C15.132 11.7432 14.9042 10.8824 14.9052 10.0067V9.25818C14.9052 9.24012 14.9062 9.22207 14.9081 9.20411C15.0383 8.00704 14.7747 6.80026 14.1582 5.76933L13.9016 5.34021L14.7598 4.82697ZM9.45711 6.01272C8.80216 6.01272 8.17328 6.27481 7.70902 6.74256C7.24463 7.21044 6.98307 7.8458 6.98307 8.50908V9.00908H5.98307V8.50908C5.98307 7.58299 5.84891 6.15599 6.5 5.50001C7.15122 4.8439 8.53452 4.32343 9.45711 4.32343C10.3797 4.32343 11.2637 5.382 11.9149 6.0381C12.566 6.69408 12.9311 7.58299 12.9311 8.50908V9.25818C12.9311 10.7717 13.4184 12.2441 14.3192 13.4542L14.6178 13.8552L13.8157 14.4524L13.5171 14.0513C12.4874 12.6681 11.9311 10.9862 11.9311 9.25818V8.50908C11.9311 7.8458 11.6696 7.21044 11.2052 6.74256C10.7409 6.27481 10.1121 6.01272 9.45711 6.01272ZM9.9571 8.00908V10.0073C9.95484 12.048 10.5729 14.0406 11.7276 15.7163L12.0113 16.128L11.1879 16.6954L10.9042 16.2837C9.63402 14.4406 8.95471 12.2502 8.9571 10.0072M6.922 10.9511L6.97973 11.4477C7.15497 12.9556 7.59125 14.4207 8.26867 15.7765L8.49214 16.2238L7.59758 16.6708L7.37411 16.2235C6.64469 14.7636 6.17505 13.1863 5.98641 11.5632L5.92869 11.0665L6.922 10.9511Z" fill="black"/>
</svg>
