<svg width="14" height="14" viewBox="0 0 14 14" fill="none" xmlns="http://www.w3.org/2000/svg">
<path fill-rule="evenodd" clip-rule="evenodd" d="M9.17974 0.735086C8.35062 0.252794 7.41027 -0.000652809 6.45339 1.26277e-06C5.49652 0.000655364 4.55651 0.255387 3.72803 0.738814C2.89953 1.22226 2.21168 1.91745 1.73415 2.7547C1.25662 3.59198 1.00641 4.54156 1.00903 5.50773L1.00903 5.50908L1.00903 6.25817L1.00876 6.27466C0.952032 7.99406 1.17119 9.71138 1.65775 11.3603L1.79925 11.8399L0.840133 12.1229L0.698629 11.6433C0.182597 9.89449 -0.0502398 8.07336 0.00902853 6.24999V5.50975M11.7598 1.82697L12.0165 2.25609C12.7402 3.46631 13.0519 4.88075 12.9052 6.28474V7.00726C12.9044 7.70894 13.0869 8.39881 13.4341 9.00649L13.6822 9.44063L12.8139 9.93672L12.5659 9.50258C12.132 8.74319 11.9042 7.88243 11.9052 7.00671V6.25817C11.9052 6.24011 11.9062 6.22206 11.9081 6.2041C12.0383 5.00704 11.7747 3.80025 11.1582 2.76933L10.9016 2.3402L11.7598 1.82697ZM6.45711 3.01271C5.80216 3.01271 5.17328 3.2748 4.70902 3.74255C4.24463 4.21043 3.98307 4.8458 3.98307 5.50908V6.00908H2.98307V5.50908C2.98307 4.58298 3.34818 3.69407 3.99927 3.03809C4.65049 2.38199 5.53452 2.01271 6.45711 2.01271C7.37969 2.01271 8.26373 2.38199 8.91495 3.03809C9.56604 3.69407 9.93115 4.58298 9.93115 5.50908V6.25817C9.93115 7.77172 10.4184 9.24405 11.3192 10.4542L11.6178 10.8552L10.8157 11.4524L10.5171 11.0513C9.48744 9.6681 8.93115 7.98624 8.93115 6.25817V5.50908C8.93115 4.8458 8.66959 4.21043 8.2052 3.74255C7.74093 3.2748 7.11205 3.01271 6.45711 3.01271ZM6.9571 5.00908V7.00726C6.95484 9.04795 7.57287 11.0406 8.72759 12.7163L9.01131 13.128L8.18789 13.6954L7.90417 13.2837C6.63402 11.4406 5.95471 9.25021 5.9571 7.00715M3.922 7.95107L3.97973 8.44773C4.15497 9.95559 4.59125 11.4207 5.26867 12.7765L5.49214 13.2238L4.59758 13.6708L4.37411 13.2235C3.64469 11.7636 3.17505 10.1863 2.98641 8.56317L2.92869 8.06651L3.922 7.95107Z" fill="black"/>
</svg>
