<svg width="11" height="15" viewBox="0 0 11 15" fill="none" xmlns="http://www.w3.org/2000/svg">
<path fill-rule="evenodd" clip-rule="evenodd" d="M1.32979 0.0298784C1.51222 -0.0361671 1.71638 0.00927578 1.85356 0.146461L4.67056 2.96346L5.06293 2.25719C5.14761 2.10477 5.30557 2.00747 5.47979 2.00042C5.65401 1.99337 5.81931 2.07759 5.91603 2.22266L7.50427 4.60502L9.16783 3.12631C9.30752 3.00213 9.50482 2.96624 9.6793 3.03326C9.85378 3.10029 9.97631 3.25903 9.99695 3.4448L10.9969 12.4448C11.0218 12.6682 10.8944 12.8808 10.6857 12.9643L5.6857 14.9643C5.54062 15.0223 5.37675 15.0092 5.24276 14.9288L0.242759 11.9288C0.0782151 11.83 -0.0153122 11.6458 0.00206073 11.4547L1.00206 0.454746C1.01963 0.261534 1.14737 0.0959239 1.32979 0.0298784ZM6.74962 5.27582L5.53885 3.45966L2.36426 9.17392L6.74962 5.27582ZM1.21221 9.18849L4.21305 3.78697L4.14645 3.85357L1.90131 1.60842L1.21221 9.18849ZM1.34095 11.4215L5.54459 13.9437L9.96105 12.1771L9.1098 4.51584L1.34095 11.4215Z" fill="black"/>
</svg>
