<svg width="15" height="15" viewBox="0 0 15 15" fill="none" xmlns="http://www.w3.org/2000/svg">
<path fill-rule="evenodd" clip-rule="evenodd" d="M3.23713 0.0746751C3.38454 -0.0164282 3.56861 -0.0247102 3.72361 0.0527869L11.7236 4.05279C11.931 4.15649 12.0399 4.38919 11.9866 4.61488C11.9333 4.84056 11.7319 5 11.5 5H3.5C3.22386 5 3 4.77614 3 4.5V0.500001C3 0.326712 3.08973 0.165778 3.23713 0.0746751ZM4 1.30902V4H9.38197L4 1.30902ZM15 8H0V7H15V8ZM3 10.5C3 10.2239 3.22386 10 3.5 10H11.5C11.7319 10 11.9333 10.1594 11.9866 10.3851C12.0399 10.6108 11.931 10.8435 11.7236 10.9472L3.72361 14.9472C3.56861 15.0247 3.38454 15.0164 3.23713 14.9253C3.08973 14.8342 3 14.6733 3 14.5V10.5ZM4 11V13.691L9.38197 11H4Z" fill="black"/>
</svg>
