<svg width="15" height="14" viewBox="0 0 15 14" fill="none" xmlns="http://www.w3.org/2000/svg">
<path fill-rule="evenodd" clip-rule="evenodd" d="M4 1.5C4 0.671573 4.67157 0 5.5 0H9.5C10.3284 0 11 0.671573 11 1.5V5.5C11 6.32843 10.3284 7 9.5 7H5.5C4.67157 7 4 6.32843 4 5.5V1.5ZM5.5 1C5.22386 1 5 1.22386 5 1.5V5.5C5 5.77614 5.22386 6 5.5 6H9.5C9.77614 6 10 5.77614 10 5.5V1.5C10 1.22386 9.77614 1 9.5 1H5.5ZM2 2H0V1H2V2ZM15 2H13V1H15V2ZM2 6H0V5H2V6ZM15 6H13V5H15V6ZM15 10H0V9H15V10ZM15 14H0V13H15V14Z" fill="black"/>
</svg>
