<svg width="20" height="20" viewBox="0 0 20 20" fill="none" xmlns="http://www.w3.org/2000/svg">
<path fill-rule="evenodd" clip-rule="evenodd" d="M3.6 4.07692C3.30545 4.07692 3.06667 4.318 3.06667 4.61538V15.3846C3.06667 15.682 3.30545 15.9231 3.6 15.9231H16.4C16.6946 15.9231 16.9333 15.682 16.9333 15.3846V6.76923C16.9333 6.47185 16.6946 6.23077 16.4 6.23077H9.77909L7.64575 4.07692H3.6ZM2 4.61538C2 3.72323 2.71634 3 3.6 3H8.08758L10.2209 5.15385H16.4C17.2837 5.15385 18 5.87708 18 6.76923V15.3846C18 16.2768 17.2837 17 16.4 17H3.6C2.71634 17 2 16.2768 2 15.3846V4.61538Z" fill="black"/>
</svg>
