<svg width="15" height="13" viewBox="0 0 15 13" fill="none" xmlns="http://www.w3.org/2000/svg">
<path fill-rule="evenodd" clip-rule="evenodd" d="M1.5 1C1.22386 1 1 1.22386 1 1.5V11.5C1 11.7761 1.22386 12 1.5 12H13.5C13.7761 12 14 11.7761 14 11.5V3.5C14 3.22386 13.7761 3 13.5 3H7.29289L5.29289 1H1.5ZM0 1.5C0 0.671573 0.671573 0 1.5 0H5.70711L7.70711 2H13.5C14.3284 2 15 2.67157 15 3.5V11.5C15 12.3284 14.3284 13 13.5 13H1.5C0.671573 13 0 12.3284 0 11.5V1.5ZM4 7.5C4 5.567 5.567 4 7.5 4C9.433 4 11 5.567 11 7.5C11 9.433 9.433 11 7.5 11C5.567 11 4 9.433 4 7.5ZM7.5 5C6.11929 5 5 6.11929 5 7.5C5 8.00954 5.15244 8.48348 5.4142 8.87869L8.87869 5.4142C8.48348 5.15244 8.00954 5 7.5 5ZM9.5858 6.12131L6.12131 9.5858C6.51652 9.84756 6.99046 10 7.5 10C8.88071 10 10 8.88071 10 7.5C10 6.99046 9.84756 6.51652 9.5858 6.12131Z" fill="black"/>
</svg>
