<svg width="20" height="20" viewBox="0 0 20 20" fill="none" xmlns="http://www.w3.org/2000/svg">
<path fill-rule="evenodd" clip-rule="evenodd" d="M17.8438 2.14646C17.998 2.29103 18.0428 2.50905 17.9569 2.69697L11.5569 16.697C11.478 16.8695 11.3026 16.9861 11.1028 16.9988C10.9029 17.0116 10.7124 16.9183 10.6093 16.7572L7.47793 11.8644L2.25894 8.92875C2.0872 8.83215 1.98767 8.65348 2.00123 8.46615C2.01479 8.27882 2.13916 8.1144 2.32325 8.04043L17.2566 2.04044C17.457 1.9599 17.6896 2.00189 17.8438 2.14646ZM8.53824 11.5775L10.9873 15.4042L15.8855 4.68942L8.53824 11.5775ZM15.1313 3.98231L3.70216 8.57437L7.78399 10.8704L15.1313 3.98231Z" fill="black"/>
</svg>
