<svg width="9" height="5" viewBox="0 0 9 5" fill="none" xmlns="http://www.w3.org/2000/svg">
<path fill-rule="evenodd" clip-rule="evenodd" d="M0.249037 0.067545C0.403194 -0.021916 0.593318 -0.022551 0.748069 0.0658784L4 1.92412V0.5C4 0.321765 4.09488 0.157006 4.24904 0.067545C4.40319 -0.021916 4.59332 -0.022551 4.74807 0.0658784L8.24807 2.06588C8.40386 2.1549 8.5 2.32057 8.5 2.5C8.5 2.67943 8.40386 2.8451 8.24807 2.93412L4.74807 4.93412C4.59332 5.02255 4.40319 5.02192 4.24904 4.93246C4.09488 4.84299 4 4.67824 4 4.5V3.07588L0.748069 4.93412C0.593318 5.02255 0.403194 5.02192 0.249037 4.93246C0.0948792 4.84299 0 4.67824 0 4.5V0.5C0 0.321765 0.0948792 0.157006 0.249037 0.067545ZM2.99222 2.5L1 1.36159V3.63841L2.99222 2.5ZM5 1.36159V3.63841L6.99222 2.5L5 1.36159Z" fill="black"/>
</svg>
