<svg width="20" height="20" viewBox="0 0 20 20" fill="none" xmlns="http://www.w3.org/2000/svg">
<path fill-rule="evenodd" clip-rule="evenodd" d="M4.03807 2.30866C4.11547 2.12182 4.29778 2 4.50001 2H14.5C14.7762 2 15 2.22386 15 2.5V7.5C15 7.77614 14.7762 8 14.5 8H10.7071L14.8536 12.1464C14.9966 12.2894 15.0393 12.5045 14.962 12.6913C14.8846 12.8782 14.7022 13 14.5 13H10V16.5C10 16.7022 9.87819 16.8845 9.69136 16.9619C9.50452 17.0393 9.28946 16.9966 9.14646 16.8536L4.14646 11.8536C4.05269 11.7598 4.00001 11.6326 4.00001 11.5V7.5C4.00001 7.22386 4.22387 7 4.50001 7H8.29291L4.14646 2.85355C4.00346 2.71055 3.96068 2.4955 4.03807 2.30866ZM9.70712 7H14V3H5.70712L9.70712 7ZM9.29291 8H5.00001V11.2929L9.00001 15.2929V12.5C9.00001 12.2239 9.22387 12 9.50001 12H13.2929L9.29291 8Z" fill="black"/>
</svg>
