<svg width="11" height="15" viewBox="0 0 11 15" fill="none" xmlns="http://www.w3.org/2000/svg">
<path fill-rule="evenodd" clip-rule="evenodd" d="M0.0380596 0.308658C0.11545 0.121821 0.297768 0 0.499999 0H10.5C10.7761 0 11 0.223858 11 0.5V5.5C11 5.77614 10.7761 6 10.5 6H6.70711L10.8536 10.1464C10.9966 10.2894 11.0393 10.5045 10.9619 10.6913C10.8845 10.8782 10.7022 11 10.5 11H6V14.5C6 14.7022 5.87818 14.8845 5.69134 14.9619C5.5045 15.0393 5.28944 14.9966 5.14645 14.8536L0.146446 9.85355C0.0526778 9.75979 -6.60491e-07 9.63261 -6.60491e-07 9.5V5.5C-6.60491e-07 5.22386 0.223857 5 0.499999 5H4.29289L0.146446 0.853553C0.00344697 0.710554 -0.0393309 0.495495 0.0380596 0.308658ZM5.70711 5H10V1H1.70711L5.70711 5ZM5.29289 6H0.999999V9.29289L5 13.2929V10.5C5 10.2239 5.22386 10 5.5 10H9.29289L5.29289 6Z" fill="black"/>
</svg>
