<svg width="20" height="20" viewBox="0 0 20 20" fill="none" xmlns="http://www.w3.org/2000/svg">
<path fill-rule="evenodd" clip-rule="evenodd" d="M9.73733 1.05579C9.90507 0.981402 10.0949 0.981402 10.2627 1.05579L19.596 5.19563C19.8411 5.30435 20 5.55381 20 5.82981C20 6.10581 19.8411 6.35526 19.596 6.46399L10.2627 10.6038C10.0949 10.6782 9.90507 10.6782 9.73733 10.6038L0.404053 6.46399C0.158933 6.35526 0 6.10581 0 5.82981C0 5.55381 0.158933 5.30435 0.404053 5.19563L9.73733 1.05579ZM2.35907 5.82981L10 9.21898L17.6409 5.82981L10 2.44064L2.35907 5.82981ZM0.404053 10.6038L0.92928 9.33546L10 13.3588L19.0707 9.33546L19.596 10.6038L10 14.8602L0.404053 10.6038ZM0.404053 14.7437L0.92928 13.4753L10 17.4986L19.0707 13.4753L19.596 14.7437L10 19L0.404053 14.7437Z" fill="black"/>
</svg>
