<svg width="20" height="20" viewBox="0 0 20 20" fill="none" xmlns="http://www.w3.org/2000/svg">
<path fill-rule="evenodd" clip-rule="evenodd" d="M10.303 3.04043C10.4288 2.98652 10.5712 2.98652 10.697 3.04043L17.697 6.04043C17.8808 6.11922 18 6.29999 18 6.5C18 6.70001 17.8808 6.88078 17.697 6.95957L10.697 9.95957C10.5712 10.0135 10.4288 10.0135 10.303 9.95957L3.30304 6.95957C3.1192 6.88078 3 6.70001 3 6.5C3 6.29999 3.1192 6.11922 3.30304 6.04043L10.303 3.04043ZM4.7693 6.5L10.5 8.95602L16.2307 6.5L10.5 4.04398L4.7693 6.5ZM3.30304 9.95957L3.69696 9.04043L10.5 11.956L17.303 9.04043L17.697 9.95957L10.5 13.044L3.30304 9.95957ZM3.30304 12.9596L3.69696 12.0404L10.5 14.956L17.303 12.0404L17.697 12.9596L10.5 16.044L3.30304 12.9596Z" fill="black"/>
</svg>
