<svg width="15" height="11" viewBox="0 0 15 11" fill="none" xmlns="http://www.w3.org/2000/svg">
<path fill-rule="evenodd" clip-rule="evenodd" d="M3.5 1C2.11929 1 1 2.11929 1 3.5V8.02786C1 9.11704 1.88296 10 2.97214 10C3.71913 10 4.402 9.57796 4.73607 8.90983L5.05279 8.27639C5.13748 8.107 5.31061 8 5.5 8H9.5C9.68939 8 9.86252 8.107 9.94721 8.27639L10.2639 8.90983C10.598 9.57796 11.2809 10 12.0279 10C13.117 10 14 9.11704 14 8.02786V3.5C14 2.11929 12.8807 1 11.5 1H3.5ZM0 3.5C0 1.567 1.567 0 3.5 0H11.5C13.433 0 15 1.567 15 3.5V8.02786C15 9.66933 13.6693 11 12.0279 11C10.9021 11 9.87296 10.364 9.3695 9.35704L9.19098 9H5.80902L5.6305 9.35704C5.12704 10.364 4.0979 11 2.97214 11C1.33067 11 0 9.66933 0 8.02786V3.5ZM4 4H3V5H4V6H5V5H6V4H5V3H4V4ZM10 6H9V5H10V6ZM12 4H11V3H12V4Z" fill="black"/>
</svg>
