<svg width="15" height="12" viewBox="0 0 15 12" fill="none" xmlns="http://www.w3.org/2000/svg">
<path fill-rule="evenodd" clip-rule="evenodd" d="M3.71881 0.419874C4.12948 0.146095 4.612 0 5.10556 0H9.89446C10.388 0 10.8705 0.146095 11.2812 0.419874L12.1515 1.00004C13.4569 1.00706 14.5383 2.01817 14.6314 3.32188L14.9511 7.79764C14.9944 8.40298 14.6686 8.97474 14.1257 9.24615L12.0357 10.2912C11.7956 10.4112 11.5432 10.5046 11.2828 10.5697C8.79916 11.1906 6.20086 11.1906 3.71721 10.5697C3.45685 10.5046 3.20439 10.4112 2.96435 10.2912L0.874273 9.24615C0.331455 8.97474 0.00566626 8.40298 0.0489053 7.79764L0.368602 3.32188C0.461724 2.01817 1.54309 1.00706 2.84857 1.00004L3.71881 0.419874ZM5.10556 1C4.80942 1 4.51991 1.08766 4.27351 1.25192L3.1514 2H2.86225C2.07529 2 1.42213 2.60817 1.36606 3.39313L1.04636 7.86888C1.03195 8.07067 1.14055 8.26125 1.32149 8.35172L3.41156 9.39676C3.58635 9.48415 3.77017 9.55215 3.95975 9.59955C6.28415 10.1806 8.71587 10.1806 11.0403 9.59955C11.2299 9.55215 11.4137 9.48415 11.5885 9.39676L13.6785 8.35172C13.8595 8.26125 13.9681 8.07067 13.9537 7.86888L13.634 3.39313C13.5779 2.60817 12.9247 2 12.1378 2H11.8486L10.7265 1.25192C10.4801 1.08766 10.1906 1 9.89446 1H5.10556ZM3.00001 4V3H4.00001V4H5.00001V5H4.00001V6H3.00001V5H2.00001V4H3.00001ZM13 5H12V4H13V5ZM12 7H11V6H12V7Z" fill="black"/>
</svg>
