<svg width="11" height="15" viewBox="0 0 11 15" fill="none" xmlns="http://www.w3.org/2000/svg">
<path fill-rule="evenodd" clip-rule="evenodd" d="M0 1.5C0 0.671574 0.671573 0 1.5 0H9.5C10.3284 0 11 0.671573 11 1.5V11.5C11 13.433 9.433 15 7.5 15H1.5C0.671573 15 0 14.3284 0 13.5V1.5ZM1.5 1C1.22386 1 1 1.22386 1 1.5V13.5C1 13.7761 1.22386 14 1.5 14H7.5C8.88071 14 10 12.8807 10 11.5V1.5C10 1.22386 9.77614 1 9.5 1H1.5ZM2 2.5C2 2.22386 2.22386 2 2.5 2H8.5C8.77614 2 9 2.22386 9 2.5V5.5C9 6.32843 8.32843 7 7.5 7H2.5C2.22386 7 2 6.77614 2 6.5V2.5ZM3 3V6H7.5C7.77614 6 8 5.77614 8 5.5V3H3ZM3 9V8H4V9H5V10H4V11H3V10H2V9H3ZM9 8V9H8V8H9ZM8 10V11H7V10H8Z" fill="black"/>
</svg>
