<svg width="13" height="15" viewBox="0 0 13 15" fill="none" xmlns="http://www.w3.org/2000/svg">
<path fill-rule="evenodd" clip-rule="evenodd" d="M6.5 1C3.46243 1 1 3.46243 1 6.5V13.0858C1 13.5907 1.40931 14 1.91421 14C2.15668 14 2.38921 13.9037 2.56066 13.7322L2.64645 13.6464L3 14L2.64645 13.6464C3.06036 13.2325 3.62175 13 4.20711 13H4.29289C4.87825 13 5.43964 13.2325 5.85355 13.6464L6 13.7929C6.13261 13.9255 6.31246 14 6.5 14C6.68754 14 6.86739 13.9255 7 13.7929L7.14645 13.6464C7.56036 13.2325 8.12175 13 8.70711 13H8.79289C9.37825 13 9.93964 13.2325 10.3536 13.6464L10.4393 13.7322C10.6108 13.9037 10.8433 14 11.0858 14C11.5907 14 12 13.5907 12 13.0858V6.5C12 3.46243 9.53757 1 6.5 1ZM0 6.5C0 2.91015 2.91015 0 6.5 0C10.0899 0 13 2.91015 13 6.5V13.0858C13 14.143 12.143 15 11.0858 15C10.5781 15 10.0912 14.7983 9.73223 14.4393L9.64645 14.3536C9.42007 14.1272 9.11304 14 8.79289 14H8.70711C8.38696 14 8.07993 14.1272 7.85355 14.3536L7.70711 14.5C7.38696 14.8201 6.95275 15 6.5 15C6.04725 15 5.61304 14.8201 5.29289 14.5L5.14645 14.3536C4.92007 14.1272 4.61304 14 4.29289 14H4.20711C3.88696 14 3.57993 14.1272 3.35355 14.3536L3.26777 14.4393L2.91421 14.0858L3.26777 14.4393C2.90878 14.7983 2.42189 15 1.91421 15C0.857023 15 0 14.143 0 13.0858V6.5ZM5 6H4V5H5V6ZM9 6H8V5H9V6ZM3.1 8.3L3.9 7.7C5.2 9.43333 7.8 9.43333 9.1 7.7L9.9 8.3C8.2 10.5667 4.8 10.5667 3.1 8.3Z" fill="black"/>
</svg>
