<svg width="20" height="20" viewBox="0 0 20 20" fill="none" xmlns="http://www.w3.org/2000/svg">
<path fill-rule="evenodd" clip-rule="evenodd" d="M2 5.5C2 4.11929 3.11929 3 4.5 3C5.88071 3 7 4.11929 7 5.5C7 6.70948 6.14112 7.71836 5 7.94999V13.05C5.97957 13.2488 6.75115 14.0204 6.94999 15H11.5C12.8807 15 14 13.8807 14 12.5V10.95C12.8589 10.7184 12 9.70948 12 8.5C12 7.11929 13.1193 6 14.5 6C15.8807 6 17 7.11929 17 8.5C17 9.70948 16.1411 10.7184 15 10.95V12.5C15 14.433 13.433 16 11.5 16H6.94999C6.71836 17.1411 5.70948 18 4.5 18C3.11929 18 2 16.8807 2 15.5C2 14.2905 2.85888 13.2816 4 13.05V7.94999C2.85888 7.71836 2 6.70948 2 5.5ZM4.5 4C3.67157 4 3 4.67157 3 5.5C3 6.32843 3.67157 7 4.5 7C5.32843 7 6 6.32843 6 5.5C6 4.67157 5.32843 4 4.5 4ZM14.5 7C13.6716 7 13 7.67157 13 8.5C13 9.32843 13.6716 10 14.5 10C15.3284 10 16 9.32843 16 8.5C16 7.67157 15.3284 7 14.5 7ZM4.5 14C3.67157 14 3 14.6716 3 15.5C3 16.3284 3.67157 17 4.5 17C5.32843 17 6 16.3284 6 15.5C6 14.6716 5.32843 14 4.5 14Z" fill="black"/>
</svg>
