<svg width="15" height="15" viewBox="0 0 15 15" fill="none" xmlns="http://www.w3.org/2000/svg">
<path fill-rule="evenodd" clip-rule="evenodd" d="M0 2.5C0 1.11929 1.11929 0 2.5 0C3.88071 0 5 1.11929 5 2.5C5 3.70948 4.14112 4.71836 3 4.94999V9.5C3 10.8807 4.11929 12 5.5 12H7.29289L6.14645 10.8536L6.85355 10.1464L9.20711 12.5L6.85355 14.8536L6.14645 14.1464L7.29289 13H5.5C3.567 13 2 11.433 2 9.5V4.94999C0.85888 4.71836 0 3.70948 0 2.5ZM2.5 1C1.67157 1 1 1.67157 1 2.5C1 3.32843 1.67157 4 2.5 4C3.32843 4 4 3.32843 4 2.5C4 1.67157 3.32843 1 2.5 1ZM8.14645 0.146447L8.85355 0.853553L7.70711 2H9.5C11.433 2 13 3.567 13 5.5V10.05C14.1411 10.2816 15 11.2905 15 12.5C15 13.8807 13.8807 15 12.5 15C11.1193 15 10 13.8807 10 12.5C10 11.2905 10.8589 10.2816 12 10.05V5.5C12 4.11929 10.8807 3 9.5 3H7.70711L8.85355 4.14645L8.14645 4.85355L5.79289 2.5L8.14645 0.146447ZM12.5 11C11.6716 11 11 11.6716 11 12.5C11 13.3284 11.6716 14 12.5 14C13.3284 14 14 13.3284 14 12.5C14 11.6716 13.3284 11 12.5 11Z" fill="black"/>
</svg>
