<svg width="15" height="15" viewBox="0 0 15 15" fill="none" xmlns="http://www.w3.org/2000/svg">
<path fill-rule="evenodd" clip-rule="evenodd" d="M0 2.5C0 1.11929 1.11929 0 2.5 0C3.88071 0 5 1.11929 5 2.5C5 3.70948 4.14112 4.71836 3 4.94999V8H9.5C10.8807 8 12 6.88071 12 5.5V4.94999C10.8589 4.71836 10 3.70948 10 2.5C10 1.11929 11.1193 0 12.5 0C13.8807 0 15 1.11929 15 2.5C15 3.70948 14.1411 4.71836 13 4.94999V5.5C13 7.433 11.433 9 9.5 9H3V10.05C4.14112 10.2816 5 11.2905 5 12.5C5 13.8807 3.88071 15 2.5 15C1.11929 15 0 13.8807 0 12.5C0 11.2905 0.85888 10.2816 2 10.05V4.94999C0.85888 4.71836 0 3.70948 0 2.5ZM2.5 1C1.67157 1 1 1.67157 1 2.5C1 3.32843 1.67157 4 2.5 4C3.32843 4 4 3.32843 4 2.5C4 1.67157 3.32843 1 2.5 1ZM12.5 1C11.6716 1 11 1.67157 11 2.5C11 3.32843 11.6716 4 12.5 4C13.3284 4 14 3.32843 14 2.5C14 1.67157 13.3284 1 12.5 1ZM2.5 11C1.67157 11 1 11.6716 1 12.5C1 13.3284 1.67157 14 2.5 14C3.32843 14 4 13.3284 4 12.5C4 11.6716 3.32843 11 2.5 11Z" fill="black"/>
</svg>
