<svg width="15" height="15" viewBox="0 0 15 15" fill="none" xmlns="http://www.w3.org/2000/svg">
<path fill-rule="evenodd" clip-rule="evenodd" d="M7.85355 1.56075C7.65829 1.36549 7.34171 1.36549 7.14645 1.56075L6.7929 1.2072L7.14645 1.56075L6.20711 2.50009L6.85329 3.14628C7.04911 3.05257 7.26843 3.00009 7.5 3.00009C8.32843 3.00009 9 3.67167 9 4.50009C9 4.73167 8.94753 4.95098 8.85382 5.1468L9.85329 6.14628C10.0491 6.05257 10.2684 6.00009 10.5 6.00009C11.3284 6.00009 12 6.67167 12 7.50009C12 8.32852 11.3284 9.00009 10.5 9.00009C9.67157 9.00009 9 8.32852 9 7.50009C9 7.26852 9.05248 7.0492 9.14619 6.85339L8.14671 5.85391C8.09914 5.87667 8.05018 5.897 8 5.91474V9.08545C8.5826 9.29136 9 9.84698 9 10.5001C9 11.3285 8.32843 12.0001 7.5 12.0001C6.67157 12.0001 6 11.3285 6 10.5001C6 9.84698 6.41741 9.29136 7 9.08545V5.91474C6.41741 5.70882 6 5.1532 6 4.50009C6 4.26852 6.05248 4.0492 6.14619 3.85339L5.5 3.2072L1.56066 7.14654C1.3654 7.3418 1.3654 7.65838 1.56066 7.85365L1.20811 8.2062L1.56066 7.85365L7.14645 13.4394C7.34171 13.6347 7.65829 13.6347 7.85356 13.4394L13.4393 7.85365C13.6346 7.65838 13.6346 7.3418 13.4393 7.14654L7.85355 1.56075ZM6.43934 0.853647C7.02513 0.267861 7.97487 0.267859 8.56066 0.853646L14.1464 6.43943C14.7322 7.02522 14.7322 7.97497 14.1465 8.56075L8.56066 14.1465C7.97488 14.7323 7.02513 14.7323 6.43934 14.1465L0.853555 8.56075C0.267769 7.97497 0.267768 7.02522 0.853555 6.43943L6.43934 0.853647ZM10.5 7.00009C10.2239 7.00009 10 7.22395 10 7.50009C10 7.77624 10.2239 8.00009 10.5 8.00009C10.7761 8.00009 11 7.77624 11 7.50009C11 7.22395 10.7761 7.00009 10.5 7.00009ZM7.5 4.00009C7.22386 4.00009 7 4.22395 7 4.50009C7 4.77624 7.22386 5.00009 7.5 5.00009C7.77614 5.00009 8 4.77624 8 4.50009C8 4.22395 7.77614 4.00009 7.5 4.00009ZM7.5 10.0001C7.22386 10.0001 7 10.224 7 10.5001C7 10.7762 7.22386 11.0001 7.5 11.0001C7.77614 11.0001 8 10.7762 8 10.5001C8 10.224 7.77614 10.0001 7.5 10.0001Z" fill="black"/>
</svg>
