<svg width="20" height="20" viewBox="0 0 20 20" fill="none" xmlns="http://www.w3.org/2000/svg">
<path fill-rule="evenodd" clip-rule="evenodd" d="M8.22262 2.90419C9.68057 2.57074 11.1969 2.57074 12.6548 2.90417C13.4966 2.39536 14.1401 2.16188 14.6078 2.06351C14.8621 2.01002 15.0637 1.99667 15.2153 2.00066C15.291 2.00264 15.3536 2.00894 15.4035 2.01648C15.4284 2.02025 15.45 2.02432 15.4684 2.02829C15.4776 2.03028 15.486 2.03224 15.4936 2.03412L15.5043 2.03687L15.5092 2.03819L15.5116 2.03884C15.5122 2.039 15.5139 2.03947 15.35 2.60404L15.5139 2.03947C15.6834 2.08714 15.8227 2.20617 15.8946 2.36461C16.0952 2.80678 16.2048 3.28371 16.217 3.76783C16.226 4.12759 16.1812 4.48602 16.0845 4.83168C16.671 5.53112 16.997 6.41203 17 7.32655L17 7.32844C17 9.16266 16.4547 10.3995 15.5239 11.1927C14.8757 11.7451 14.0888 12.039 13.2987 12.2032C13.4047 12.5195 13.4211 12.8585 13.4211 13.2294V18H12.2282V13.2294C12.2282 12.8681 12.2071 12.6931 12.1653 12.5695C12.1304 12.4664 12.0673 12.3588 11.8824 12.178C11.7192 12.0185 11.6637 11.7807 11.7399 11.5671C11.8161 11.3534 12.0103 11.2019 12.239 11.1777C13.2428 11.0715 14.1179 10.8376 14.7431 10.3049C15.3423 9.79431 15.8069 8.925 15.807 7.32933C15.8044 6.6009 15.5098 5.90291 14.9873 5.38706C14.8205 5.22248 14.7681 4.97657 14.8536 4.75991C14.9746 4.45318 15.0327 4.12588 15.0244 3.79693C15.0193 3.59364 14.9889 3.39222 14.9342 3.19708C14.9101 3.20125 14.8844 3.20616 14.8571 3.2119C14.5212 3.28255 13.9401 3.48154 13.0819 4.02716C12.9416 4.11642 12.7696 4.14361 12.6079 4.10212C11.1855 3.73717 9.69196 3.73717 8.26965 4.10212C8.10797 4.1436 7.93603 4.11643 7.79567 4.02722C6.93711 3.48155 6.35597 3.28255 6.02012 3.2119C5.99291 3.20617 5.96729 3.20129 5.94325 3.19712C5.88861 3.39225 5.85823 3.59366 5.85311 3.79693C5.84482 4.12588 5.90287 4.45318 6.02388 4.75991C6.10937 4.97659 6.05696 5.22251 5.89021 5.3871C5.62941 5.64451 5.42277 5.95004 5.2821 6.28618C5.14144 6.62232 5.06952 6.98248 5.07046 7.34602L5.07047 7.34752C5.07046 8.92943 5.53393 9.78777 6.13276 10.2943C6.75952 10.8245 7.63676 11.0596 8.64564 11.1785C8.87258 11.2052 9.06405 11.3572 9.13861 11.5699C9.21317 11.7826 9.15771 12.0185 8.99582 12.1774C8.71047 12.4573 8.61195 12.7803 8.64772 13.2597C8.64879 13.2741 8.64932 13.2884 8.64932 13.3028V14.4637C8.64954 14.4727 8.64954 14.4818 8.64932 14.4908V18H7.45637V15.2191C6.91482 15.301 6.44098 15.2683 6.02177 15.1321C5.41163 14.9339 5.00032 14.5432 4.69823 14.1555C4.5486 13.9635 4.42018 13.7649 4.30822 13.5865C4.28018 13.5418 4.25356 13.4991 4.22793 13.4579C4.14641 13.327 4.07501 13.2123 4.00016 13.1036C3.79646 12.8079 3.6717 12.7208 3.57692 12.6963L3 12.5472L3.30294 11.4114L3.87986 11.5605C4.42406 11.7012 4.75989 12.1141 4.98752 12.4446C5.07938 12.5779 5.17041 12.7242 5.25477 12.8598C5.27811 12.8973 5.30095 12.934 5.32314 12.9694C5.43085 13.141 5.53343 13.2979 5.64476 13.4408C5.86458 13.7229 6.09504 13.9193 6.39564 14.017C6.63486 14.0947 6.97042 14.1265 7.45637 14.0259V13.3234C7.42982 12.9367 7.46385 12.5573 7.59499 12.1986C6.80084 12.0305 6.00771 11.7368 5.35527 11.185C4.42409 10.3973 3.87766 9.17146 3.87751 7.34827C3.87627 6.83053 3.97874 6.31763 4.17907 5.83891C4.33169 5.47419 4.53883 5.13477 4.79303 4.83165C4.69631 4.486 4.65146 4.12758 4.66052 3.76783C4.67271 3.28371 4.78228 2.80678 4.98288 2.36461C5.05474 2.20622 5.19407 2.08721 5.36351 2.03951L5.52751 2.60404C5.36351 2.03951 5.36294 2.03967 5.36351 2.03951L5.36578 2.03888L5.36812 2.03823L5.37304 2.03691L5.3838 2.03415C5.39138 2.03226 5.39977 2.0303 5.40898 2.02832C5.4274 2.02434 5.44904 2.02027 5.47395 2.01649C5.52382 2.00894 5.58642 2.00265 5.66207 2.00066C5.81365 1.99667 6.01517 2.01003 6.26943 2.06351C6.73709 2.16189 7.38054 2.39537 8.22262 2.90419Z" fill="black"/>
</svg>
