<svg width="12" height="14" viewBox="0 0 12 14" fill="none" xmlns="http://www.w3.org/2000/svg">
<path fill-rule="evenodd" clip-rule="evenodd" d="M4.64233 1.14497C5.86447 0.861021 7.13551 0.861017 8.35765 1.14496C9.06328 0.711677 9.60267 0.512855 9.99476 0.429082C10.2079 0.383536 10.3769 0.372165 10.504 0.375558C10.5674 0.377252 10.6199 0.382611 10.6617 0.389037C10.6826 0.392247 10.7007 0.395711 10.7162 0.399093C10.7239 0.400783 10.7309 0.402451 10.7373 0.404052L10.7463 0.406399L10.7504 0.407524L10.7523 0.408073C10.7528 0.408208 10.7542 0.408612 10.6169 0.889374L10.7542 0.408612C10.8963 0.449207 11.0132 0.550567 11.0734 0.685488C11.2416 1.06202 11.3334 1.46816 11.3437 1.88041C11.3512 2.18678 11.3137 2.492 11.2326 2.78635C11.7243 3.38197 11.9975 4.13212 12 4.91089L12 4.9125C12 6.47445 11.543 7.52773 10.7626 8.20319C10.2193 8.67353 9.55973 8.92381 8.89738 9.06364C8.98626 9.33299 9.00001 9.62169 9.00001 9.9375V14H8.00001V9.9375C8.00001 9.62989 7.98234 9.48085 7.94727 9.37557C7.91803 9.28778 7.86511 9.19617 7.71015 9.04224C7.57334 8.90634 7.52687 8.70389 7.59072 8.52194C7.65457 8.33999 7.81735 8.21097 8.00908 8.19036C8.85051 8.09992 9.5841 7.90076 10.1082 7.44712C10.6104 7.01235 10.9999 6.27207 11 4.91326C10.9978 4.29295 10.7508 3.69857 10.3128 3.2593C10.1731 3.11914 10.1292 2.90974 10.2008 2.72524C10.3022 2.46404 10.3509 2.18532 10.344 1.9052C10.3397 1.73209 10.3142 1.56056 10.2684 1.39439C10.2482 1.39794 10.2266 1.40212 10.2037 1.40701C9.92212 1.46717 9.435 1.63663 8.71568 2.10125C8.598 2.17726 8.45383 2.20042 8.31827 2.16508C7.12602 1.85431 5.87401 1.85431 4.68175 2.16508C4.54622 2.20041 4.40209 2.17727 4.28443 2.1013C3.56474 1.63664 3.0776 1.46717 2.79607 1.40701C2.77326 1.40213 2.75178 1.39797 2.73163 1.39443C2.68583 1.56059 2.66036 1.7321 2.65607 1.9052C2.64912 2.18532 2.69778 2.46404 2.79922 2.72524C2.87088 2.90975 2.82695 3.11917 2.68717 3.25933C2.46855 3.47853 2.29533 3.7387 2.17742 4.02495C2.05951 4.31119 1.99922 4.61789 2.00001 4.92747L2.00002 4.92875C2.00001 6.27584 2.38851 7.00677 2.89049 7.43812C3.41587 7.88958 4.15123 8.08984 4.99692 8.19104C5.18716 8.21381 5.34766 8.34328 5.41016 8.52439C5.47266 8.7055 5.42617 8.9064 5.29047 9.04165C5.05127 9.28004 4.96869 9.5551 4.99867 9.96338C4.99957 9.97557 5.00001 9.98778 5.00001 10V10.9886C5.00019 10.9963 5.00019 11.004 5.00001 11.0117V14H4.00001V11.6319C3.54606 11.7016 3.14886 11.6738 2.79746 11.5578C2.286 11.389 1.94122 11.0563 1.68799 10.7262C1.56256 10.5627 1.45491 10.3936 1.36106 10.2417C1.33755 10.2036 1.31523 10.1672 1.29376 10.1321C1.22542 10.0206 1.16557 9.92295 1.10283 9.83042C0.932072 9.57861 0.827489 9.50447 0.748045 9.48361L0.264435 9.35664L0.518373 8.38942L1.00198 8.51639C1.45816 8.63616 1.73968 8.9878 1.93048 9.26919C2.00749 9.38275 2.0838 9.50734 2.15451 9.62279C2.17408 9.65474 2.19322 9.68599 2.21182 9.71611C2.30211 9.86227 2.38809 9.99589 2.48142 10.1175C2.66569 10.3578 2.85887 10.525 3.11085 10.6082C3.31138 10.6744 3.59266 10.7015 4.00001 10.6158V10.0176C3.97776 9.68831 4.00629 9.36521 4.11622 9.05975C3.45052 8.91658 2.78567 8.66653 2.23876 8.19657C1.45818 7.52582 1.00014 6.48194 1.00001 4.92939C0.998969 4.4885 1.08487 4.05173 1.25279 3.64407C1.38073 3.33349 1.55436 3.04445 1.76746 2.78633C1.68637 2.49199 1.64878 2.18677 1.65638 1.88041C1.6666 1.46816 1.75844 1.06202 1.9266 0.685488C1.98683 0.550607 2.10363 0.449265 2.24566 0.408647L2.38314 0.889374C2.24566 0.408647 2.24518 0.408782 2.24566 0.408647L2.24756 0.408107L2.24953 0.407557L2.25365 0.406429L2.26267 0.404078C2.26903 0.402474 2.27606 0.400804 2.28378 0.399112C2.29922 0.395726 2.31736 0.392258 2.33824 0.389046C2.38004 0.382614 2.43252 0.377253 2.49593 0.375559C2.62299 0.372164 2.79192 0.383541 3.00505 0.429087C3.39707 0.512862 3.93645 0.711686 4.64233 1.14497Z" fill="black"/>
</svg>
