<svg width="15" height="15" viewBox="0 0 15 15" fill="none" xmlns="http://www.w3.org/2000/svg">
<path fill-rule="evenodd" clip-rule="evenodd" d="M2.4808 0.000371457C2.70294 -0.00815973 2.90403 0.130995 2.97433 0.341889L4.86037 6H10.1396L12.0256 0.341889C12.0959 0.130995 12.297 -0.00815973 12.5192 0.000371457C12.7413 0.00890261 12.9311 0.163071 12.9851 0.378735L14.9851 8.37874C15.031 8.56247 14.9692 8.75638 14.8254 8.87963L7.82538 14.8796C7.63814 15.0401 7.36184 15.0401 7.17459 14.8796L0.17459 8.87963C0.0307978 8.75638 -0.031018 8.56247 0.0149149 8.37874L2.01491 0.378735C2.06883 0.163071 2.25866 0.00890261 2.4808 0.000371457ZM2.56862 2.28703L1.06001 8.32148L7.49999 13.8415L13.94 8.32148L12.4314 2.28703L10.9743 6.65812C10.9063 6.86229 10.7152 7 10.5 7H4.49999C4.28477 7 4.0937 6.86229 4.02564 6.65812L2.56862 2.28703Z" fill="black"/>
</svg>
