<svg width="15" height="15" viewBox="0 0 15 15" fill="none" xmlns="http://www.w3.org/2000/svg">
<path fill-rule="evenodd" clip-rule="evenodd" d="M0 7.5C0 3.35786 3.35786 0 7.5 0C11.6421 0 15 3.35786 15 7.5C15 11.6421 11.6421 15 7.5 15C3.35786 15 0 11.6421 0 7.5ZM6.52672 1.07238C3.39856 1.54207 1 4.24093 1 7.5C1 11.0899 3.91015 14 7.5 14C11.0899 14 14 11.0899 14 7.5C14 6.98373 13.9398 6.48152 13.8261 6H13V6.5C13 6.77614 12.7761 7 12.5 7H11.809L11.9472 7.27639C12.0319 7.44579 12.0136 7.64849 11.9 7.8L10.5 9.66667V10.5C10.5 10.5776 10.4819 10.6542 10.4472 10.7236L9.94721 11.7236C9.93794 11.7422 9.92753 11.7601 9.91603 11.7774L8.91603 13.2774C8.82329 13.4164 8.66718 13.5 8.5 13.5H7.5C7.31061 13.5 7.13748 13.393 7.05279 13.2236L6.55279 12.2236C6.51807 12.1542 6.5 12.0776 6.5 12V11.2071L6.14645 10.8536C6.05268 10.7598 6 10.6326 6 10.5V9.30902L5.27639 8.94721C5.22833 8.92318 5.18445 8.89155 5.14645 8.85355L3.64645 7.35355C3.52226 7.22936 3.47233 7.04912 3.51493 6.87873L4.01493 4.87873C4.07057 4.65615 4.27057 4.5 4.5 4.5H5.88197L6.77639 4.05279C6.91716 3.9824 7.08284 3.9824 7.22361 4.05279L9.11803 5H9.79289L10 4.79289V4.20711L9.64645 3.85355C9.55268 3.75979 9.5 3.63261 9.5 3.5V3H9V3.5C9 3.77614 8.77614 4 8.5 4H8C7.90129 4 7.80478 3.97078 7.72265 3.91603L6.22265 2.91603C6.07435 2.81716 5.98989 2.64682 6.00097 2.46893C6.01204 2.29104 6.11697 2.1325 6.27639 2.05279L7 1.69098V1.30902L6.52672 1.07238ZM8 1.01894C10.4873 1.20815 12.5832 2.7972 13.5018 5H12.5C12.2239 5 12 5.22386 12 5.5V6H11C10.8267 6 10.6658 6.08973 10.5747 6.23713C10.4836 6.38454 10.4753 6.56861 10.5528 6.72361L10.9146 7.44721L9.6 9.2C9.53509 9.28655 9.5 9.39182 9.5 9.5V10.382L9.06671 11.2485L8.23241 12.5H7.80902L7.5 11.882V11C7.5 10.8674 7.44732 10.7402 7.35355 10.6464L7 10.2929V9C7 8.81061 6.893 8.63748 6.72361 8.55279L5.79618 8.08907L4.55373 6.84663L4.89039 5.5H6C6.07762 5.5 6.15418 5.48193 6.22361 5.44721L7 5.05902L8.77639 5.94721C8.84582 5.98193 8.92238 6 9 6H10C10.1326 6 10.2598 5.94732 10.3536 5.85355L10.8536 5.35355C10.9473 5.25979 11 5.13261 11 5V4C11 3.86739 10.9473 3.74021 10.8536 3.64645L10.5 3.29289V2.5C10.5 2.22386 10.2761 2 10 2H8.5C8.22386 2 8 2.22386 8 2.5V2.89907L7.49424 2.5619L7.72361 2.44721C7.893 2.36252 8 2.18939 8 2V1.01894Z" fill="black"/>
</svg>
