<svg width="15" height="15" viewBox="0 0 15 15" fill="none" xmlns="http://www.w3.org/2000/svg">
<path fill-rule="evenodd" clip-rule="evenodd" d="M0 7.5C0 3.35786 3.35786 0 7.5 0C11.6421 0 15 3.35786 15 7.5C15 11.6421 11.6421 15 7.5 15C3.35786 15 0 11.6421 0 7.5ZM1.19729 5.90439C1.06844 6.41491 1 6.94946 1 7.5C1 10.5736 3.1333 13.1489 6 13.8261V13.2071L5 12.2071V10.7071L4 9.70711V8.5C4 8.22386 4.22386 8 4.5 8H8.5C9.32843 8 10 8.67157 10 9.5V10.0118C10.5109 10.0849 10.9151 10.4891 10.9882 11H12.9782C13.625 9.9897 14 8.78864 14 7.5C14 4.79605 12.349 2.47772 10 1.49816V2.5C10 3.32843 9.32843 4 8.5 4H7.5C7.22386 4 7 4.22386 7 4.5C7 5.32843 6.32843 6 5.5 6H5V6.70711L4.56066 7.14645C3.97487 7.73223 3.02513 7.73223 2.43934 7.14645L1.19729 5.90439ZM1.56115 4.85404L3.14645 6.43934C3.34171 6.6346 3.65829 6.6346 3.85355 6.43934L4 6.29289V5.5C4 5.22386 4.22386 5 4.5 5H5.5C5.77614 5 6 4.77614 6 4.5C6 3.67157 6.67157 3 7.5 3H8.5C8.77614 3 9 2.77614 9 2.5V1.17393C8.51848 1.06019 8.01627 1 7.5 1C4.85241 1 2.57453 2.58294 1.56115 4.85404ZM12.1904 12H10.8333C10.3731 12 10 11.6269 10 11.1667C10 11.0746 9.92538 11 9.83333 11C9.3731 11 9 10.6269 9 10.1667V9.5C9 9.22386 8.77614 9 8.5 9H5V9.29289L6 10.2929V11.7929L7 12.7929V13.9811C7.16502 13.9936 7.33176 14 7.5 14C9.34336 14 11.0075 13.2327 12.1904 12Z" fill="black"/>
</svg>
