<svg width="11" height="15" viewBox="0 0 11 15" fill="none" xmlns="http://www.w3.org/2000/svg">
<path fill-rule="evenodd" clip-rule="evenodd" d="M8.79961 0.625122C10.1482 1.81543 11 3.55855 11 5.49999C11 9.08984 8.08986 12 4.50001 12C2.83556 12 1.31619 11.3737 0.16655 10.3448L0.833463 9.59964C1.80685 10.4708 3.09104 11 4.50001 11C7.53757 11 10 8.53756 10 5.49999C10 3.85736 9.28053 2.38339 8.13788 1.37486L8.79961 0.625122ZM5.00001 14V12H4.50001H4.00001V14H1.00001V15H8.00001V14H5.00001ZM1.00001 5.49999C1.00001 3.56699 2.56701 1.99999 4.50001 1.99999C6.433 1.99999 8.00001 3.56699 8.00001 5.49999C8.00001 7.43299 6.433 8.99999 4.50001 8.99999C2.56701 8.99999 1.00001 7.43299 1.00001 5.49999ZM4.50001 2.99999C3.11929 2.99999 2.00001 4.11928 2.00001 5.49999C2.00001 6.8807 3.11929 7.99999 4.50001 7.99999C5.88072 7.99999 7.00001 6.8807 7.00001 5.49999C7.00001 4.11928 5.88072 2.99999 4.50001 2.99999Z" fill="black"/>
</svg>
