<svg width="15" height="15" viewBox="0 0 15 15" fill="none" xmlns="http://www.w3.org/2000/svg">
<path fill-rule="evenodd" clip-rule="evenodd" d="M5 2.5C5 1.11929 6.11929 0 7.5 0C8.88071 0 10 1.11929 10 2.5C10 3.88071 8.88071 5 7.5 5C6.11929 5 5 3.88071 5 2.5ZM7.5 1C6.67157 1 6 1.67157 6 2.5C6 3.32843 6.67157 4 7.5 4C8.32843 4 9 3.32843 9 2.5C9 1.67157 8.32843 1 7.5 1ZM4 9.5C4 7.567 5.567 6 7.5 6C9.433 6 11 7.567 11 9.5V11.5C11 11.7761 10.7761 12 10.5 12H4.5C4.22386 12 4 11.7761 4 11.5V9.5ZM7.5 7C6.11929 7 5 8.11929 5 9.5V11H10V9.5C10 8.11929 8.88071 7 7.5 7ZM1.39448 10.6952C1.1108 10.9868 1 11.258 1 11.5C1 11.7451 1.1138 12.0204 1.40597 12.3165C1.70026 12.6147 2.15089 12.9061 2.74721 13.1617C3.93808 13.6721 5.6181 14 7.5 14C9.3819 14 11.0619 13.6721 12.2528 13.1617C12.8491 12.9061 13.2997 12.6147 13.594 12.3165C13.8862 12.0204 14 11.7451 14 11.5C14 11.258 13.8892 10.9868 13.6055 10.6952C13.3196 10.4012 12.8812 10.1128 12.2996 9.85849L12.7004 8.94229C13.356 9.22903 13.9176 9.58178 14.3224 9.99794C14.7294 10.4164 15 10.9245 15 11.5C15 12.0833 14.722 12.5971 14.3058 13.0189C13.8916 13.4385 13.3171 13.7935 12.6467 14.0808C11.3041 14.6563 9.48409 15 7.5 15C5.51591 15 3.69593 14.6563 2.35329 14.0808C1.68286 13.7935 1.10837 13.4385 0.694221 13.0189C0.277951 12.5971 0 12.0833 0 11.5C0 10.9245 0.270611 10.4164 0.677626 9.99794C1.08238 9.58178 1.644 9.22903 2.29965 8.94229L2.70035 9.85849C2.11881 10.1128 1.68043 10.4012 1.39448 10.6952Z" fill="black"/>
</svg>
