<svg width="13" height="15" viewBox="0 0 13 15" fill="none" xmlns="http://www.w3.org/2000/svg">
<path fill-rule="evenodd" clip-rule="evenodd" d="M0.25097 0.0664289C0.406216 -0.0227402 0.597291 -0.0220988 0.751935 0.0681106L12.7519 7.06811C12.9055 7.15772 13 7.32217 13 7.5C13 7.67783 12.9055 7.84228 12.7519 7.93189L0.751935 14.9319C0.597291 15.0221 0.406216 15.0227 0.25097 14.9336C0.0957229 14.8444 0 14.679 0 14.5V0.5C0 0.320967 0.0957229 0.155598 0.25097 0.0664289ZM1 1.37052V2.27312L6.21429 6.83562L7.87607 5.38156L1 1.37052ZM8.78722 5.91306L6.97358 7.5L8.78722 9.08694L11.5077 7.5L8.78722 5.91306ZM7.87607 9.61844L6.21429 8.16438L1 12.7269V13.6295L7.87607 9.61844ZM1 11.3981L5.45499 7.5L1 3.60188V11.3981Z" fill="black"/>
</svg>
