<svg width="15" height="11" viewBox="0 0 15 11" fill="none" xmlns="http://www.w3.org/2000/svg">
<path fill-rule="evenodd" clip-rule="evenodd" d="M0 2.5C0 1.11929 1.11929 0 2.5 0H12.5C13.8807 0 15 1.11929 15 2.5V8.5C15 9.88071 13.8807 11 12.5 11H2.5C1.11929 11 0 9.88071 0 8.5V2.5ZM2.5 1C1.67157 1 1 1.67157 1 2.5V8.5C1 9.32843 1.67157 10 2.5 10H12.5C13.3284 10 14 9.32843 14 8.5V2.5C14 1.67157 13.3284 1 12.5 1H2.5ZM5 4C4.44772 4 4 4.44772 4 5V6H6V5C6 4.44772 5.55228 4 5 4ZM6 7V8H7V5C7 3.89543 6.10457 3 5 3C3.89543 3 3 3.89543 3 5V8H4V7H6ZM11 5H9.5C8.67157 5 8 5.67157 8 6.5C8 7.32843 8.67157 8 9.5 8H12V3H11V5ZM11 6H9.5C9.22386 6 9 6.22386 9 6.5C9 6.77614 9.22386 7 9.5 7H11V6Z" fill="black"/>
</svg>
