<svg width="15" height="13" viewBox="0 0 15 13" fill="none" xmlns="http://www.w3.org/2000/svg">
<path fill-rule="evenodd" clip-rule="evenodd" d="M4.56421 0.254869C4.65277 0.0974309 4.81936 0 5 0H10C10.1806 0 10.3472 0.0974309 10.4358 0.254869L14.9358 8.25487C15.0172 8.39953 15.0214 8.57515 14.9472 8.72361L12.9472 12.7236C12.8625 12.893 12.6894 13 12.5 13H2.5C2.31061 13 2.13748 12.893 2.05279 12.7236L0.0527865 8.72361C-0.021442 8.57515 -0.0171613 8.39953 0.0642124 8.25487L4.56421 0.254869ZM5.90212 1L7.924 4.235C7.92407 4.23512 7.92392 4.23488 7.924 4.235L10.2771 8H13.6451L9.70758 1H5.90212ZM13.691 9H5.27712L3.40212 12H12.191L13.691 9ZM2.54851 11.479L4.576 8.235C4.57604 8.23494 4.57596 8.23506 4.576 8.235L6.91038 4.5L5.02264 1.47962L1.06591 8.51379L2.54851 11.479ZM7.5 5.4434L5.90212 8H9.09788L7.5 5.4434Z" fill="black"/>
</svg>
