<svg width="20" height="20" viewBox="0 0 20 20" fill="none" xmlns="http://www.w3.org/2000/svg">
<path fill-rule="evenodd" clip-rule="evenodd" d="M9.1123 4.33759C9.38566 3.55857 10.1276 3 11 3C12.1046 3 13 3.89543 13 5V7.26756C13.2942 7.09739 13.6357 7 14 7C15.1046 7 16 7.89543 16 9C16 9.41166 15.8756 9.79427 15.6624 10.1123C16.4414 10.3857 17 11.1276 17 12C17 13.1046 16.1046 14 15 14H12.7324C12.9026 14.2942 13 14.6357 13 15C13 16.1046 12.1046 17 11 17C10.5883 17 10.2057 16.8756 9.88769 16.6624C9.61434 17.4414 8.8724 18 8 18C6.89543 18 6 17.1046 6 16V13.7324C5.70583 13.9026 5.36429 14 5 14C3.89543 14 3 13.1046 3 12C3 11.5883 3.12437 11.2057 3.33759 10.8877C2.55857 10.6143 2 9.8724 2 9C2 7.89543 2.89543 7 4 7H6.26756C6.09739 6.70583 6 6.36429 6 6C6 4.89543 6.89543 4 8 4C8.41166 4 8.79427 4.12437 9.1123 4.33759ZM10 10H12V5C12 4.44772 11.5523 4 11 4C10.4477 4 10 4.44772 10 5V10ZM13 10H14C14.5523 10 15 9.55228 15 9C15 8.44772 14.5523 8 14 8C13.4477 8 13 8.44772 13 9V10ZM10 11H15C15.5523 11 16 11.4477 16 12C16 12.5523 15.5523 13 15 13H10V11ZM10 14V15C10 15.5523 10.4477 16 11 16C11.5523 16 12 15.5523 12 15C12 14.4477 11.5523 14 11 14H10ZM9 10V8H4C3.44772 8 3 8.44772 3 9C3 9.55228 3.44772 10 4 10H9ZM9 7V6C9 5.44772 8.55228 5 8 5C7.44772 5 7 5.44772 7 6C7 6.55228 7.44772 7 8 7H9ZM5 11C4.44772 11 4 11.4477 4 12C4 12.5523 4.44772 13 5 13C5.55228 13 6 12.5523 6 12V11H5ZM7 11V16C7 16.5523 7.44772 17 8 17C8.55228 17 9 16.5523 9 16V11H7Z" fill="black"/>
</svg>
