<svg width="20" height="20" viewBox="0 0 20 20" fill="none" xmlns="http://www.w3.org/2000/svg">
<path d="M7.35733 12.9225C6.14431 12.9209 4.96765 12.5103 4.01934 11.7576C3.07104 11.0051 2.4071 9.95487 2.13585 8.77845C1.8646 7.60204 2.00206 6.36888 2.52581 5.28021C3.04955 4.19154 3.92865 3.31164 5.01967 2.78409C6.11067 2.25654 7.34916 2.11248 8.53304 2.37544C9.71691 2.6384 10.7763 3.29284 11.5383 4.23197C12.3002 5.1711 12.7197 6.33946 12.7285 7.54641C12.7372 8.75335 12.3347 9.92761 11.5863 10.8776C11.0851 11.517 10.4433 12.0338 9.71029 12.3883C8.97724 12.7427 8.17235 12.9255 7.35733 12.9225ZM7.3692 4.43477C7.23928 4.43469 7.10948 4.44243 6.98051 4.45796C6.16472 4.55707 5.41976 4.96829 4.90345 5.60449C4.38712 6.2407 4.14 7.05194 4.21443 7.86632C4.28886 8.6807 4.67898 9.43426 5.30216 9.96737C5.92536 10.5005 6.73264 10.7713 7.55301 10.7223C8.37337 10.6734 9.14236 10.3086 9.69706 9.70519C10.2518 9.10181 10.5486 8.30727 10.5248 7.48986C10.5008 6.67247 10.1581 5.89643 9.56905 5.32616C8.98003 4.75589 8.19103 4.43618 7.3692 4.43477Z" fill="black"/>
<path d="M17.0025 9.97061C16.7965 9.97045 16.5947 9.91269 16.42 9.80388C16.2454 9.69507 16.105 9.53963 16.0149 9.35525C15.9247 9.17087 15.8884 8.965 15.9103 8.76112C15.9321 8.55725 16.011 8.36356 16.1381 8.20219C16.6367 7.55338 16.8582 6.73512 16.7543 5.92492C16.6505 5.11471 16.2298 4.37792 15.5835 3.87438C14.9373 3.37083 14.1174 3.14116 13.3021 3.23518C12.4867 3.32919 11.7414 3.73933 11.228 4.37658C11.1401 4.49277 11.0299 4.59034 10.9037 4.66361C10.7775 4.73689 10.6378 4.78439 10.4929 4.80333C10.348 4.82228 10.2008 4.81229 10.0599 4.77395C9.9189 4.73562 9.78704 4.66971 9.67198 4.58006C9.55694 4.49043 9.46099 4.37885 9.38978 4.25188C9.31858 4.12492 9.27353 3.98509 9.25726 3.8406C9.241 3.6961 9.25386 3.54982 9.29508 3.41033C9.33631 3.27083 9.40506 3.14092 9.49735 3.02817C10.3669 1.92358 11.6418 1.20793 13.0416 1.03866C14.4415 0.869394 15.8515 1.26036 16.9616 2.12559C18.0718 2.9908 18.791 4.25939 18.9612 5.65226C19.1312 7.04512 18.7384 8.44819 17.8687 9.55278C17.7657 9.68325 17.6342 9.78867 17.4841 9.86105C17.3341 9.93345 17.1694 9.97091 17.0025 9.97061Z" fill="black"/>
<path d="M9.11787 19C8.84462 18.9977 8.57493 18.9381 8.32642 18.825L8.13822 18.7414L4.03627 14.6139C3.8463 14.405 3.74463 14.1314 3.75243 13.8498C3.76024 13.5682 3.87692 13.3004 4.07817 13.1023C4.27942 12.9043 4.54973 12.791 4.83279 12.7863C5.11583 12.7815 5.38982 12.8857 5.59764 13.077L9.12579 16.6269C9.33728 16.3115 9.60638 15.7712 9.80205 15.3791C10.3662 14.2482 11.0675 12.8416 12.2252 11.8169C13.6595 10.5481 15.4565 10.1666 17.5667 10.6842C17.8498 10.7538 18.0934 10.9325 18.2441 11.1809C18.3948 11.4293 18.4402 11.7271 18.3702 12.0088C18.3003 12.2904 18.1207 12.5329 17.871 12.6829C17.6214 12.8328 17.3222 12.8779 17.039 12.8083C15.1954 12.3559 14.2417 12.9588 13.685 13.4515C12.8461 14.1952 12.2744 15.3398 11.7701 16.3513C11.4056 17.0824 11.0908 17.7137 10.6906 18.1888C10.3952 18.5389 10.0782 18.7699 9.72334 18.8967C9.52903 18.9656 9.32417 19.0005 9.11787 19Z" fill="black"/>
</svg>
