<svg width="20" height="20" viewBox="0 0 20 20" fill="none" xmlns="http://www.w3.org/2000/svg">
<path d="M7.13584 12.2587C6.03234 12.2572 4.96192 11.8818 4.09923 11.1937C3.23655 10.5057 2.63255 9.54549 2.38579 8.46994C2.13903 7.39439 2.26408 6.26696 2.74054 5.27163C3.217 4.2763 4.01673 3.47184 5.00924 2.98952C6.00174 2.5072 7.12841 2.3755 8.2054 2.61591C9.28238 2.85632 10.2461 3.45465 10.9393 4.31326C11.6324 5.17187 12.0141 6.24006 12.0221 7.34353C12.03 8.44699 11.6638 9.52057 10.983 10.3891C10.527 10.9737 9.94323 11.4462 9.27636 11.7703C8.60949 12.0943 7.87727 12.2614 7.13584 12.2587ZM7.14664 4.49868C7.02845 4.4986 6.91037 4.50568 6.79304 4.51988C6.05091 4.61049 5.37321 4.98645 4.90351 5.56811C4.4338 6.14977 4.20899 6.89145 4.2767 7.63601C4.34441 8.38057 4.69931 9.06952 5.26623 9.55692C5.83316 10.0443 6.56755 10.2919 7.31385 10.2471C8.06014 10.2024 8.7597 9.86886 9.26432 9.31722C9.76895 8.76557 10.039 8.03915 10.0173 7.29183C9.99552 6.54452 9.68371 5.83502 9.14787 5.31364C8.61203 4.79226 7.89427 4.49997 7.14664 4.49868Z" fill="black"/>
<path d="M15.9102 9.55988C15.7228 9.55974 15.5392 9.50693 15.3803 9.40745C15.2214 9.30797 15.0937 9.16585 15.0117 8.99728C14.9297 8.82871 14.8967 8.64049 14.9166 8.45409C14.9364 8.2677 15.0082 8.09062 15.1238 7.94308C15.5774 7.3499 15.7789 6.6018 15.6844 5.86106C15.59 5.12032 15.2072 4.4467 14.6193 3.98633C14.0314 3.52596 13.2856 3.31598 12.5439 3.40194C11.8021 3.48789 11.1241 3.86286 10.657 4.44548C10.5771 4.5517 10.4768 4.64091 10.362 4.7079C10.2472 4.77489 10.1201 4.81832 9.98833 4.83564C9.85653 4.85296 9.72259 4.84383 9.59436 4.80878C9.46613 4.77373 9.34618 4.71347 9.24151 4.63151C9.13685 4.54956 9.04957 4.44755 8.98479 4.33147C8.92001 4.21539 8.87903 4.08755 8.86423 3.95545C8.84944 3.82334 8.86114 3.6896 8.89864 3.56207C8.93614 3.43453 8.99869 3.31576 9.08264 3.21268C9.87367 2.20279 11.0335 1.5485 12.3069 1.39374C13.5804 1.23899 14.8631 1.59644 15.873 2.38748C16.8829 3.17851 17.5372 4.33833 17.692 5.61178C17.8467 6.88522 17.4893 8.16799 16.6982 9.17788C16.6045 9.29716 16.4848 9.39354 16.3483 9.45972C16.2118 9.52591 16.062 9.56016 15.9102 9.55988Z" fill="black"/>
<path d="M8.73743 17.8151C8.48885 17.813 8.24351 17.7585 8.01743 17.6551L7.84623 17.5787L4.11463 13.8051C3.94181 13.6141 3.84932 13.3639 3.85642 13.1065C3.86352 12.849 3.96967 12.6042 4.15275 12.4231C4.33583 12.242 4.58173 12.1385 4.83923 12.1342C5.09672 12.1298 5.34597 12.225 5.53503 12.3999L8.74463 15.6455C8.93703 15.3571 9.18183 14.8631 9.35983 14.5047C9.87303 13.4707 10.511 12.1847 11.5642 11.2479C12.869 10.0879 14.5038 9.73908 16.4234 10.2123C16.681 10.2759 16.9026 10.4393 17.0397 10.6664C17.1768 10.8935 17.2181 11.1658 17.1544 11.4233C17.0908 11.6808 16.9274 11.9025 16.7003 12.0396C16.4732 12.1767 16.201 12.2179 15.9434 12.1543C14.2662 11.7407 13.3986 12.2919 12.8922 12.7423C12.129 13.4223 11.609 14.4687 11.1502 15.3935C10.8186 16.0619 10.5322 16.6391 10.1682 17.0735C9.89943 17.3935 9.61103 17.6047 9.28823 17.7207C9.11146 17.7837 8.9251 17.8156 8.73743 17.8151Z" fill="black"/>
</svg>
