<svg width="20" height="20" viewBox="0 0 20 20" fill="none" xmlns="http://www.w3.org/2000/svg">
<path fill-rule="evenodd" clip-rule="evenodd" d="M4 5H3V4H4V5ZM7 5H6V4H7V5ZM10 5H9V4H10V5ZM13 5H12V4H13V5ZM16 5H15V4H16V5ZM4 8H3V7H4V8ZM10 8H9V7H10V8ZM16 8H15V7H16V8ZM4 11H3V10H4V11ZM7 11H6V10H7V11ZM10 11H9V10H10V11ZM13 11H12V10H13V11ZM16 11H15V10H16V11ZM4 14H3V13H4V14ZM10 14H9V13H10V14ZM16 14H15V13H16V14ZM4 17H3V16H4V17ZM7 17H6V16H7V17ZM10 17H9V16H10V17ZM13 17H12V16H13V17ZM16 17H15V16H16V17Z" fill="black"/>
</svg>
