<svg width="20" height="20" viewBox="0 0 20 20" fill="none" xmlns="http://www.w3.org/2000/svg">
<path fill-rule="evenodd" clip-rule="evenodd" d="M3.93333 3.93333V3H4.86666L4.86666 3.93333H7.66666V3H8.6V3.93333H11.4V3H12.3333V3.93333H15.1333V3H16.0667V3.93333H17V4.86666H16.0667V7.66666H17V8.59999H16.0667L16.0667 11.4H17V12.3333H16.0667V15.1333H17V16.0667H16.0667V17H15.1333V16.0667H12.3333V17H11.4V16.0667H8.6V17H7.66666V16.0667H4.86666L4.86666 17H3.93333L3.93333 16.0667H3V15.1333H3.93333L3.93333 12.3333H3V11.4H3.93333L3.93333 8.59999H3V7.66666H3.93333L3.93333 4.86666H3V3.93333H3.93333ZM4.86666 4.86666L4.86666 7.66666H7.66666V4.86666H4.86666ZM8.6 4.86666V7.66666H11.4V4.86666H8.6ZM12.3333 4.86666V7.66666H15.1333V4.86666H12.3333ZM15.1333 8.59999H12.3333L12.3333 11.4H15.1333V8.59999ZM15.1333 12.3333H12.3333V15.1333H15.1333V12.3333ZM11.4 15.1333V12.3333H8.6V15.1333H11.4ZM7.66666 15.1333V12.3333H4.86666L4.86666 15.1333H7.66666ZM4.86666 11.4H7.66666L7.66666 8.59999H4.86666L4.86666 11.4ZM8.6 8.59999L8.6 11.4H11.4L11.4 8.59999H8.6Z" fill="black"/>
</svg>
