<svg width="20" height="20" viewBox="0 0 20 20" fill="none" xmlns="http://www.w3.org/2000/svg">
<path fill-rule="evenodd" clip-rule="evenodd" d="M2 10.5C2 6.35786 5.35786 3 9.5 3C13.6421 3 17 6.35786 17 10.5C17 14.6421 13.6421 18 9.5 18C5.35786 18 2 14.6421 2 10.5ZM9.5 4C5.91015 4 3 6.91015 3 10.5C3 14.0899 5.91015 17 9.5 17C13.0899 17 16 14.0899 16 10.5C16 6.91015 13.0899 4 9.5 4ZM7 9H6V8H7V9ZM13 9H12V8H13V9ZM6.6 11.3L6.9 11.7C8.2 13.4333 10.8 13.4333 12.1 11.7L12.4 11.3L13.2 11.9L12.9 12.3C11.2 14.5667 7.8 14.5667 6.1 12.3L5.8 11.9L6.6 11.3Z" fill="black"/>
</svg>
