<svg width="15" height="13" viewBox="0 0 15 13" fill="none" xmlns="http://www.w3.org/2000/svg">
<path fill-rule="evenodd" clip-rule="evenodd" d="M1 1.16057L1 9.83966C5.25649 8.68614 9.74351 8.68614 14 9.83966V1.16057C9.74351 2.31409 5.25649 2.31409 1 1.16057ZM4.17233e-07 0.822937C4.17233e-07 0.328967 0.472799 -0.0276646 0.947762 0.108039C5.23024 1.3316 9.76976 1.3316 14.0522 0.10804C14.5272 -0.0276639 15 0.328968 15 0.822938V10.1773C15 10.6713 14.5272 11.0279 14.0522 10.8922C12.0728 10.3266 10.0385 10.0225 8 9.97976V12.0001H13V13.0001H2V12.0001H7V9.97976C4.96152 10.0225 2.92718 10.3266 0.947762 10.8922C0.472801 11.0279 0 10.6713 0 10.1773L4.17233e-07 0.822937Z" fill="black"/>
</svg>
