<svg width="15" height="15" viewBox="0 0 15 15" fill="none" xmlns="http://www.w3.org/2000/svg">
<path fill-rule="evenodd" clip-rule="evenodd" d="M1 8.5V10.5C1 11.3284 1.67157 12 2.5 12C2.77614 12 3 11.7761 3 11.5V7.5C3 7.22386 2.77614 7 2.5 7C1.67157 7 1 7.67157 1 8.5ZM0 7.5C0 3.35786 3.35786 0 7.5 0C11.6421 0 15 3.35786 15 7.5V10.5C15 11.7242 14.12 12.7429 12.9581 12.9581C12.7429 14.12 11.7242 15 10.5 15H8V14H10.5C11.1917 14 11.7741 13.5318 11.9475 12.895C11.3925 12.6749 11 12.1333 11 11.5V7.5C11 6.67157 11.6716 6 12.5 6C13.0246 6 13.5115 6.16161 13.9136 6.43777C13.4066 3.3532 10.7281 1 7.5 1C4.27189 1 1.5934 3.3532 1.08637 6.43776C1.48846 6.16161 1.97535 6 2.5 6C3.32843 6 4 6.67157 4 7.5V11.5C4 12.3284 3.32843 13 2.5 13C1.11929 13 0 11.8807 0 10.5V7.5ZM14 8.5C14 7.67157 13.3284 7 12.5 7C12.2239 7 12 7.22386 12 7.5V11.5C12 11.7761 12.2239 12 12.5 12C13.3284 12 14 11.3284 14 10.5V8.5Z" fill="black"/>
</svg>
