<svg width="15" height="15" viewBox="0 0 15 15" fill="none" xmlns="http://www.w3.org/2000/svg">
<path fill-rule="evenodd" clip-rule="evenodd" d="M7.5 1C4.46243 1 2 3.46243 2 6.5V9H2.5C3.32843 9 4 9.67157 4 10.5V13.5C4 14.3284 3.32843 15 2.5 15H1.5C0.671573 15 0 14.3284 0 13.5V10.5C0 9.84689 0.417404 9.29127 1 9.08535V6.5C1 2.91015 3.91015 0 7.5 0C11.0899 0 14 2.91015 14 6.5V9.08535C14.5826 9.29127 15 9.84689 15 10.5V13.5C15 14.3284 14.3284 15 13.5 15H12.5C11.6716 15 11 14.3284 11 13.5V10.5C11 9.67157 11.6716 9 12.5 9H13V6.5C13 3.46243 10.5376 1 7.5 1ZM1.5 10C1.22386 10 1 10.2239 1 10.5V13.5C1 13.7761 1.22386 14 1.5 14H2.5C2.77614 14 3 13.7761 3 13.5V10.5C3 10.2239 2.77614 10 2.5 10H1.5ZM12.5 10C12.2239 10 12 10.2239 12 10.5V13.5C12 13.7761 12.2239 14 12.5 14H13.5C13.7761 14 14 13.7761 14 13.5V10.5C14 10.2239 13.7761 10 13.5 10H12.5Z" fill="black"/>
</svg>
