<svg width="20" height="20" viewBox="0 0 20 20" fill="none" xmlns="http://www.w3.org/2000/svg">
<path fill-rule="evenodd" clip-rule="evenodd" d="M6.03553 6C4.35905 6 3 7.35905 3 9.03553C3 9.84061 3.31981 10.6127 3.88909 11.182L9.5 16.7929L15.1109 11.182C15.6802 10.6127 16 9.84061 16 9.03553C16 7.35905 14.6409 6 12.9645 6C12.1594 6 11.3873 6.31981 10.818 6.88909L9.85355 7.85355C9.65829 8.04882 9.34171 8.04882 9.14645 7.85355L8.18198 6.88909C7.61271 6.31981 6.84061 6 6.03553 6ZM2 9.03553C2 6.80677 3.80677 5 6.03553 5C7.10582 5 8.13228 5.42517 8.88909 6.18198L9.5 6.79289L10.1109 6.18198C10.8677 5.42517 11.8942 5 12.9645 5C15.1932 5 17 6.80677 17 9.03553C17 10.1058 16.5748 11.1323 15.818 11.8891L9.85355 17.8536C9.65829 18.0488 9.34171 18.0488 9.14645 17.8536L3.18198 11.8891C2.42517 11.1323 2 10.1058 2 9.03553Z" fill="black"/>
</svg>
