<svg width="15" height="15" viewBox="0 0 15 15" fill="none" xmlns="http://www.w3.org/2000/svg">
<path fill-rule="evenodd" clip-rule="evenodd" d="M0 7.5C0 3.35786 3.35786 0 7.5 0C11.6421 0 15 3.35786 15 7.5C15 11.6421 11.6421 15 7.5 15C3.35786 15 0 11.6421 0 7.5ZM7.5 1C3.91015 1 1 3.91015 1 7.5C1 11.0899 3.91015 14 7.5 14C11.0899 14 14 11.0899 14 7.5C14 3.91015 11.0899 1 7.5 1ZM4.14645 5.14645C4.89399 4.3989 6.10601 4.3989 6.85355 5.14645L7.5 5.79289L8.14645 5.14645C8.89399 4.3989 10.106 4.3989 10.8536 5.14645C11.6011 5.89399 11.6011 7.10601 10.8536 7.85355L7.5 11.2071L4.14645 7.85355C3.3989 7.10601 3.3989 5.89399 4.14645 5.14645ZM6.14645 5.85355C5.78942 5.49653 5.21058 5.49653 4.85355 5.85355C4.49653 6.21058 4.49653 6.78942 4.85355 7.14645L7.5 9.79289L10.1464 7.14645C10.5035 6.78942 10.5035 6.21058 10.1464 5.85355C9.78942 5.49653 9.21058 5.49653 8.85355 5.85355L7.5 7.20711L6.14645 5.85355Z" fill="black"/>
</svg>
