<svg width="15" height="13" viewBox="0 0 15 13" fill="none" xmlns="http://www.w3.org/2000/svg">
<path fill-rule="evenodd" clip-rule="evenodd" d="M4.03553 1C2.35905 1 1 2.35905 1 4.03553C1 4.84061 1.31981 5.61271 1.88909 6.18198L7.5 11.7929L13.1109 6.18198C13.6802 5.61271 14 4.84061 14 4.03553C14 2.35905 12.6409 1 10.9645 1C10.1594 1 9.38729 1.31981 8.81802 1.88909L7.85355 2.85355C7.65829 3.04882 7.34171 3.04882 7.14645 2.85355L6.18198 1.88909C5.61271 1.31981 4.84061 1 4.03553 1ZM0 4.03553C0 1.80677 1.80677 0 4.03553 0C5.10582 0 6.13228 0.425171 6.88909 1.18198L7.5 1.79289L8.11091 1.18198C8.86772 0.425171 9.89418 0 10.9645 0C13.1932 0 15 1.80677 15 4.03553C15 5.10582 14.5748 6.13228 13.818 6.88909L7.85355 12.8536C7.65829 13.0488 7.34171 13.0488 7.14645 12.8536L1.18198 6.88909C0.42517 6.13228 0 5.10582 0 4.03553Z" fill="black"/>
</svg>
