<svg width="9" height="8" viewBox="0 0 9 8" fill="none" xmlns="http://www.w3.org/2000/svg">
<path fill-rule="evenodd" clip-rule="evenodd" d="M1.14645 1.14645C1.89399 0.398899 3.106 0.398898 3.85355 1.14645L4.5 1.79289L5.14644 1.14645C5.89399 0.398899 7.10601 0.398898 7.85355 1.14645C8.6011 1.89399 8.6011 3.106 7.85355 3.85355L4.5 7.20711L1.14645 3.85355C0.398898 3.10601 0.398898 1.89399 1.14645 1.14645ZM3.14644 1.85355C2.78942 1.49653 2.21057 1.49653 1.85355 1.85355C1.49653 2.21057 1.49653 2.78942 1.85355 3.14645L4.5 5.79289L7.14645 3.14644C7.50347 2.78942 7.50347 2.21058 7.14645 1.85355C6.78942 1.49653 6.21057 1.49653 5.85355 1.85355L4.5 3.20711L3.14644 1.85355Z" fill="black"/>
</svg>
