<svg width="20" height="20" viewBox="0 0 20 20" fill="none" xmlns="http://www.w3.org/2000/svg">
<path fill-rule="evenodd" clip-rule="evenodd" d="M2 9.5C2 5.35786 5.35786 2 9.5 2C13.6421 2 17 5.35786 17 9.5C17 13.6421 13.6421 17 9.5 17C9.32013 17 9.14166 16.9937 8.9648 16.9812L9.01757 15.9827L9.50862 16C13.0945 15.9953 16 13.087 16 9.5C16 5.91015 13.0899 3 9.5 3C5.91015 3 3 5.91015 3 9.5C3 11.2712 3.7078 12.8762 4.85712 14.049L4.86375 14.0558L5 14.2058V12H6V16H2V15H4.37043L4.13613 14.742C2.81505 13.3904 2 11.5399 2 9.5ZM9 9.5V5H10V9.29289L12.8536 12.1464L12.1464 12.8536L9.14645 9.85355C9.05268 9.75979 9 9.63261 9 9.5Z" fill="black"/>
</svg>
