<svg width="20" height="20" viewBox="0 0 20 20" fill="none" xmlns="http://www.w3.org/2000/svg">
<path fill-rule="evenodd" clip-rule="evenodd" d="M9.60952 1.14444C9.83422 0.951853 10.1658 0.951853 10.3905 1.14444L19 8.52403V17.2C19 18.1941 18.1941 19 17.2 19H12.4C12.0687 19 11.8 18.7313 11.8 18.4V14.8C11.8 13.8059 10.9941 13 10 13C9.00588 13 8.2 13.8059 8.2 14.8V18.4C8.2 18.7313 7.93137 19 7.6 19H2.8C1.80588 19 1 18.1941 1 17.2V8.52403L9.60952 1.14444ZM2.2 9.07596V17.2C2.2 17.5313 2.46863 17.8 2.8 17.8H7V14.8C7 13.1432 8.34315 11.8 10 11.8C11.6568 11.8 13 13.1432 13 14.8V17.8H17.2C17.5313 17.8 17.8 17.5313 17.8 17.2V9.07596L10 2.39025L2.2 9.07596Z" fill="black"/>
</svg>
