<svg width="20" height="20" viewBox="0 0 20 20" fill="none" xmlns="http://www.w3.org/2000/svg">
<path fill-rule="evenodd" clip-rule="evenodd" d="M9.1746 2.12037C9.36185 1.95988 9.63815 1.95988 9.8254 2.12037L17 8.27003V15.5C17 16.3284 16.3284 17 15.5 17H11.5C11.2239 17 11 16.7761 11 16.5V13.5C11 12.6716 10.3284 12 9.5 12C8.67157 12 8 12.6716 8 13.5V16.5C8 16.7761 7.77614 17 7.5 17H3.5C2.67157 17 2 16.3284 2 15.5V8.27003L9.1746 2.12037ZM3 8.72997V15.5C3 15.7761 3.22386 16 3.5 16H7V13.5C7 12.1193 8.11929 11 9.5 11C10.8807 11 12 12.1193 12 13.5V16H15.5C15.7761 16 16 15.7761 16 15.5V8.72997L9.5 3.15854L3 8.72997Z" fill="black"/>
</svg>
