<svg width="15" height="11" viewBox="0 0 15 11" fill="none" xmlns="http://www.w3.org/2000/svg">
<path fill-rule="evenodd" clip-rule="evenodd" d="M0 1.5C0 0.671573 0.671573 0 1.5 0H13.5C14.3284 0 15 0.671573 15 1.5V9.5C15 10.3284 14.3284 11 13.5 11H1.5C0.671574 11 0 10.3284 0 9.5V1.5ZM3 10H7C7 8.89552 6.10466 8 5 8C3.8954 8 3 8.89546 3 10ZM8 10C8 8.34306 6.65677 7 5 7C3.34318 7 2 8.343 2 9.99988L1.5 10C1.22386 10 1 9.77614 1 9.5V1.5C1 1.22386 1.22386 1 1.5 1H13.5C13.7761 1 14 1.22386 14 1.5V9.5C14 9.77614 13.7761 10 13.5 10H8ZM3 4C3 2.89543 3.89543 2 5 2C6.10457 2 7 2.89543 7 4C7 5.10457 6.10457 6 5 6C3.89543 6 3 5.10457 3 4ZM5 3C4.44772 3 4 3.44772 4 4C4 4.55228 4.44772 5 5 5C5.55228 5 6 4.55228 6 4C6 3.44772 5.55228 3 5 3ZM12 4H9V3H12V4ZM12 7H9V6H12V7Z" fill="black"/>
</svg>
