<svg width="20" height="20" viewBox="0 0 20 20" fill="none" xmlns="http://www.w3.org/2000/svg">
<path fill-rule="evenodd" clip-rule="evenodd" d="M3 4.5C3 3.67157 3.67157 3 4.5 3H16.5C17.3284 3 18 3.67157 18 4.5V16.5C18 17.3284 17.3284 18 16.5 18H4.5C3.67157 18 3 17.3284 3 16.5V4.5ZM4.5 4C4.22386 4 4 4.22386 4 4.5V11.0739L7.49975 6.69634L11.5414 11.7452L14.5 8.78855L17 11.2869V4.5C17 4.22386 16.7761 4 16.5 4H4.5ZM17 12.7007L14.5 10.2023L11.4586 13.2418L7.50025 8.29712L4 12.6753V16.5C4 16.7761 4.22386 17 4.5 17H16.5C16.7761 17 17 16.7761 17 16.5V12.7007ZM14 7H13V6H14V7Z" fill="black"/>
</svg>
