<svg width="13" height="15" viewBox="0 0 13 15" fill="none" xmlns="http://www.w3.org/2000/svg">
<path fill-rule="evenodd" clip-rule="evenodd" d="M1.5 1C1.22386 1 1 1.22386 1 1.5V9L3.48699 5.68401L7.54132 10.7453L10.5005 7.78804L12 9.29094V3.70711L9.29289 1H1.5ZM12 10.7068L10.4995 9.20283L7.45868 12.2416L3.51301 7.31599L1 10.6667V13.5C1 13.7761 1.22386 14 1.5 14H11.5C11.7761 14 12 13.7761 12 13.5V10.7068ZM0 1.5C0 0.671574 0.671573 0 1.5 0H9.70711L13 3.29289V13.5C13 14.3284 12.3284 15 11.5 15H1.5C0.671572 15 0 14.3284 0 13.5V1.5ZM10 5V6H9V5H10Z" fill="black"/>
</svg>
