<svg width="15" height="15" viewBox="0 0 15 15" fill="none" xmlns="http://www.w3.org/2000/svg">
<path fill-rule="evenodd" clip-rule="evenodd" d="M3.5 1C2.11929 1 1 2.11929 1 3.5V12H2V4H3V6H4C4.55228 6 5 5.55228 5 5V1.65385C5 1.29274 4.70726 1 4.34615 1H3.5ZM3 7H4C5.10457 7 6 6.10457 6 5V1.65385C6 0.740452 5.25955 0 4.34615 0H3.5C1.567 0 0 1.567 0 3.5V13H1V15H2V13H3V7ZM10.6538 1C10.2927 1 10 1.29274 10 1.65385V5C10 5.55228 10.4477 6 11 6H12V4H13V12H14V3.5C14 2.11929 12.8807 1 11.5 1H10.6538ZM13 13H12V7H11C9.89543 7 9 6.10457 9 5V1.65385C9 0.740453 9.74045 0 10.6538 0H11.5C13.433 0 15 1.567 15 3.5V13H14V15H13V13Z" fill="black"/>
</svg>
