<svg width="20" height="20" viewBox="0 0 20 20" fill="none" xmlns="http://www.w3.org/2000/svg">
<path fill-rule="evenodd" clip-rule="evenodd" d="M2 6.5C2 4.01472 4.01472 2 6.5 2H12.5C14.9853 2 17 4.01472 17 6.5V12.5C17 14.9853 14.9853 17 12.5 17H6.5C4.01472 17 2 14.9853 2 12.5V6.5ZM6.5 3C4.567 3 3 4.567 3 6.5V12.5C3 14.433 4.567 16 6.5 16H12.5C14.433 16 16 14.433 16 12.5V6.5C16 4.567 14.433 3 12.5 3H6.5ZM14 6H13V5H14V6ZM6 9.5C6 7.567 7.567 6 9.5 6C11.433 6 13 7.567 13 9.5C13 11.433 11.433 13 9.5 13C7.567 13 6 11.433 6 9.5ZM9.5 7C8.11929 7 7 8.11929 7 9.5C7 10.8807 8.11929 12 9.5 12C10.8807 12 12 10.8807 12 9.5C12 8.11929 10.8807 7 9.5 7Z" fill="black"/>
</svg>
