<svg width="13" height="15" viewBox="0 0 13 15" fill="none" xmlns="http://www.w3.org/2000/svg">
<path fill-rule="evenodd" clip-rule="evenodd" d="M1.5 1C1.22386 1 1 1.22386 1 1.5V13.5C1 13.7761 1.22386 14 1.5 14H11.5C11.7761 14 12 13.7761 12 13.5V3.70711L9.29289 1H1.5ZM0 1.5C0 0.671574 0.671573 0 1.5 0H9.70711L13 3.29289V13.5C13 14.3284 12.3284 15 11.5 15H1.5C0.671572 15 0 14.3284 0 13.5V1.5ZM6 4H3V3H6V4ZM3 5H10V10H3V5ZM4 7.99542V9H6V7.99542H4ZM6 6.99542H4V6H6V6.99542ZM7 7.99542V9H9V7.99542H7ZM9 6.99542H7V6H9V6.99542ZM10 12H7V11H10V12Z" fill="black"/>
</svg>
