<svg width="15" height="15" viewBox="0 0 15 15" fill="none" xmlns="http://www.w3.org/2000/svg">
<path fill-rule="evenodd" clip-rule="evenodd" d="M0 0H15V15H0V0ZM1 1V14H14V1H1ZM6 11V6H7V11C7 12.1046 6.10457 13 5 13C3.89543 13 3 12.1046 3 11H4C4 11.5523 4.44772 12 5 12C5.55228 12 6 11.5523 6 11ZM8 8C8 6.89543 8.89543 6 10 6H11.1667C12.1792 6 13 6.82081 13 7.83333V8H12V7.83333C12 7.3731 11.6269 7 11.1667 7H10C9.44772 7 9 7.44772 9 8C9 8.55228 9.44772 9 10 9H11C12.1046 9 13 9.89543 13 11C13 12.1046 12.1046 13 11 13H10C8.89543 13 8 12.1046 8 11H9C9 11.5523 9.44771 12 10 12H11C11.5523 12 12 11.5523 12 11C12 10.4477 11.5523 10 11 10H10C8.89543 10 8 9.10457 8 8Z" fill="black"/>
</svg>
