<svg width="20" height="20" viewBox="0 0 20 20" fill="none" xmlns="http://www.w3.org/2000/svg">
<path fill-rule="evenodd" clip-rule="evenodd" d="M9.30535 5.84732C9.30535 3.17022 11.4756 1 14.1527 1C16.8298 1 19 3.17022 19 5.84732C19 8.52443 16.8298 10.6946 14.1527 10.6946C13.0325 10.6946 12.0011 10.3147 11.1803 9.67663L7.13267 13.7242L9.12788 15.7194L8.27099 16.5763L6.27577 14.5811L4.709 16.1479L6.70422 18.1431L5.84732 19L3.85211 17.0048L1.85689 19L1 18.1431L10.3234 8.81973C9.68531 7.99891 9.30535 6.96749 9.30535 5.84732ZM14.1527 2.21183C12.1448 2.21183 10.5172 3.8395 10.5172 5.84732C10.5172 7.85515 12.1448 9.48282 14.1527 9.48282C16.1605 9.48282 17.7882 7.85515 17.7882 5.84732C17.7882 3.8395 16.1605 2.21183 14.1527 2.21183Z" fill="black"/>
</svg>
