<svg width="15" height="15" viewBox="0 0 15 15" fill="none" xmlns="http://www.w3.org/2000/svg">
<path fill-rule="evenodd" clip-rule="evenodd" d="M0 2.5C0 1.11929 1.11929 0 2.5 0H12.5C13.8807 0 15 1.11929 15 2.5V12.5C15 13.8807 13.8807 15 12.5 15H2.5C1.11929 15 0 13.8807 0 12.5V2.5ZM2.5 1C1.67157 1 1 1.67157 1 2.5V12.5C1 13.3284 1.67157 14 2.5 14H12.5C13.3284 14 14 13.3284 14 12.5V2.5C14 1.67157 13.3284 1 12.5 1H2.5ZM4.19903 2.31142C4.43509 2.23274 4.69308 2.3396 4.80436 2.56216L7.52879 8.01103L10.5844 6.99251L9.82817 5.8042C9.74188 5.66861 9.72604 5.4998 9.78558 5.35052C9.84513 5.20123 9.97281 5.08968 10.1287 5.0507L11.7002 4.65784C11.8953 4.60905 12.1007 4.68197 12.2214 4.84291L13.4 6.41434C13.4964 6.54292 13.5252 6.71001 13.4773 6.86342C13.4293 7.01683 13.3106 7.13786 13.1581 7.18868L12.1156 7.53617L13.4218 9.58876C13.4942 9.70256 13.5176 9.84079 13.4866 9.97207C13.4556 10.1034 13.3729 10.2165 13.2572 10.2859L9.32868 12.6431C9.20925 12.7147 9.06535 12.7333 8.93163 12.6944C8.79792 12.6555 8.6865 12.5625 8.62422 12.4379L7.02223 9.23397L3.72954 10.3315C3.59742 10.3756 3.45291 10.3625 3.33082 10.2955C3.20874 10.2285 3.12014 10.1136 3.08636 9.97846L1.51493 3.69275C1.45156 3.43928 1.59403 3.17976 1.84189 3.09714L4.19903 2.31142ZM6.57048 8.33047L4.10386 3.39724L2.59737 3.8994L3.92555 9.21211L6.57048 8.33047ZM7.98054 8.91454L9.27717 11.5078L12.3026 9.69256L11.1378 7.86213L7.98054 8.91454ZM11.5622 6.66654L12.1838 6.45937L11.6206 5.7085L11.0443 5.85259L11.5622 6.66654Z" fill="black"/>
</svg>
