<svg width="15" height="14" viewBox="0 0 15 14" fill="none" xmlns="http://www.w3.org/2000/svg">
<path fill-rule="evenodd" clip-rule="evenodd" d="M7.30304 0.0404275C7.42881 -0.0134758 7.57119 -0.0134758 7.69696 0.0404275L14.697 3.04043C14.8808 3.11922 15 3.29999 15 3.5C15 3.70001 14.8808 3.88078 14.697 3.95957L7.69696 6.95957C7.57119 7.01348 7.42881 7.01348 7.30304 6.95957L0.30304 3.95957C0.119198 3.88078 0 3.70001 0 3.5C0 3.29999 0.119198 3.11922 0.30304 3.04043L7.30304 0.0404275ZM1.7693 3.5L7.5 5.95602L13.2307 3.5L7.5 1.04398L1.7693 3.5ZM0.30304 6.95957L0.69696 6.04043L7.5 8.95602L14.303 6.04043L14.697 6.95957L7.5 10.044L0.30304 6.95957ZM0.30304 9.95957L0.69696 9.04043L7.5 11.956L14.303 9.04043L14.697 9.95957L7.5 13.044L0.30304 9.95957Z" fill="black"/>
</svg>
