<svg width="15" height="15" viewBox="0 0 15 15" fill="none" xmlns="http://www.w3.org/2000/svg">
<path fill-rule="evenodd" clip-rule="evenodd" d="M5.5 1C5.22386 1 5 1.22386 5 1.5V9.5C5 9.77614 5.22386 10 5.5 10H13.5C13.7761 10 14 9.77614 14 9.5V1.5C14 1.22386 13.7761 1 13.5 1H5.5ZM4 1.5C4 0.671573 4.67157 0 5.5 0H13.5C14.3284 0 15 0.671573 15 1.5V9.5C15 10.3284 14.3284 11 13.5 11H11V13.5C11 14.3284 10.3284 15 9.5 15H1.5C0.671573 15 0 14.3284 0 13.5V5.5C0 4.67157 0.671573 4 1.5 4H4V1.5ZM4 5H1.5C1.22386 5 1 5.22386 1 5.5V13.5C1 13.7761 1.22386 14 1.5 14H9.5C9.77614 14 10 13.7761 10 13.5V11H5.5C4.67157 11 4 10.3284 4 9.5V5Z" fill="black"/>
</svg>
