<svg width="13" height="15" viewBox="0 0 13 15" fill="none" xmlns="http://www.w3.org/2000/svg">
<path fill-rule="evenodd" clip-rule="evenodd" d="M4.5 1C4.22386 1 4 1.22386 4 1.5V2H9V1.5C9 1.22386 8.77614 1 8.5 1H4.5ZM10 2V1.5C10 0.671573 9.32843 0 8.5 0H4.5C3.67157 0 3 0.671573 3 1.5V2H2.5C1.11929 2 0 3.11929 0 4.5V12.5C0 13.8807 1.11929 15 2.5 15H10.5C11.8807 15 13 13.8807 13 12.5V4.5C13 3.11929 11.8807 2 10.5 2H10ZM2.5 3C1.67157 3 1 3.67157 1 4.5V12.5C1 13.3284 1.67157 14 2.5 14H10.5C11.3284 14 12 13.3284 12 12.5V4.5C12 3.67157 11.3284 3 10.5 3H2.5ZM5 7V8H4V7H5ZM9 7V8H8V7H9ZM3.9 9.7C5.2 11.4333 7.8 11.4333 9.1 9.7L9.9 10.3C8.2 12.5667 4.8 12.5667 3.1 10.3L3.9 9.7Z" fill="black"/>
</svg>
