<svg width="20" height="20" viewBox="0 0 20 20" fill="none" xmlns="http://www.w3.org/2000/svg">
<path d="M10 2C5.58737 2 2 5.58737 2 10C2 14.4126 5.58737 18 10 18C14.4126 18 18 14.4126 18 10C18 5.58737 14.4126 2 10 2ZM10 2.84211C11.2547 2.84211 12.4337 3.16211 13.4611 3.73474L11.5579 5.63789C11.0695 5.46105 10.5474 5.36842 10 5.36842C9.33474 5.36842 8.71158 5.51158 8.13895 5.75579L6.27789 3.89474C7.36421 3.22105 8.63579 2.84211 10 2.84211ZM5.75579 8.14737C5.51158 8.72 5.36842 9.33474 5.36842 10C5.36842 10.5474 5.46105 11.0695 5.64632 11.5579L3.73474 13.4611C3.16211 12.4337 2.84211 11.2547 2.84211 10C2.84211 8.63579 3.22105 7.36421 3.89474 6.27789L5.75579 8.13895V8.14737ZM10 17.1579C8.52632 17.1579 7.15368 16.7116 6.01684 15.9453L7.86105 14.1011C8.50105 14.4379 9.22526 14.6316 10 14.6316C10.6653 14.6316 11.2884 14.4884 11.8611 14.2442L13.7221 16.1053C12.6358 16.7789 11.3642 17.1579 10 17.1579ZM10 13.7895C7.91158 13.7895 6.21053 12.0884 6.21053 10C6.21053 7.91158 7.91158 6.21053 10 6.21053C12.0884 6.21053 13.7895 7.91158 13.7895 10C13.7895 12.0884 12.0884 13.7895 10 13.7895ZM14.2442 11.8611C14.4884 11.2884 14.6316 10.6653 14.6316 10C14.6316 9.22526 14.4379 8.50105 14.1011 7.86105L15.9453 6.01684C16.7116 7.15368 17.1579 8.52632 17.1579 10C17.1579 11.3642 16.7789 12.6358 16.1053 13.7221L14.2442 11.8611Z" fill="black"/>
</svg>
