<svg width="20" height="20" viewBox="0 0 20 20" fill="none" xmlns="http://www.w3.org/2000/svg">
<path fill-rule="evenodd" clip-rule="evenodd" d="M2 3.5C2 2.67157 2.67157 2 3.5 2H15.5C16.3284 2 17 2.67157 17 3.5V15.5C17 16.3284 16.3284 17 15.5 17H3.5C2.67157 17 2 16.3284 2 15.5V3.5ZM3.5 3C3.22386 3 3 3.22386 3 3.5V15.5C3 15.7761 3.22386 16 3.5 16H15.5C15.7761 16 16 15.7761 16 15.5V3.5C16 3.22386 15.7761 3 15.5 3H3.5ZM7 7H6V6H7V7ZM6 13V8H7V13H6ZM10.5 9C9.67157 9 9 9.67157 9 10.5V13H8V8H9V8.49982C9.41783 8.18597 9.9372 8 10.5 8C11.8807 8 13 9.11929 13 10.5V13H12V10.5C12 9.67157 11.3284 9 10.5 9Z" fill="black"/>
</svg>
