<svg width="20" height="20" viewBox="0 0 20 20" fill="none" xmlns="http://www.w3.org/2000/svg">
<path fill-rule="evenodd" clip-rule="evenodd" d="M11.318 2.97487C11.9422 2.35067 12.7888 2 13.6716 2C15.5098 2 17 3.49019 17 5.32843C17 6.21118 16.6493 7.05778 16.0251 7.68198L12.8536 10.8536L12.1464 10.1464L15.318 6.97487C15.7547 6.53821 16 5.94596 16 5.32843C16 4.04247 14.9575 3 13.6716 3C13.054 3 12.4618 3.24532 12.0251 3.68198L8.85355 6.85355L8.14645 6.14645L11.318 2.97487ZM12.8536 6.85355L6.85355 12.8536L6.14645 12.1464L12.1464 6.14645L12.8536 6.85355ZM6.85355 8.85355L3.68198 12.0251C3.24532 12.4618 3 13.054 3 13.6716C3 14.9575 4.04247 16 5.32843 16C5.94596 16 6.53821 15.7547 6.97487 15.318L10.1464 12.1464L10.8536 12.8536L7.68198 16.0251C7.05778 16.6493 6.21118 17 5.32843 17C3.49019 17 2 15.5098 2 13.6716C2 12.7888 2.35067 11.9422 2.97487 11.318L6.14645 8.14645L6.85355 8.85355Z" fill="black"/>
</svg>
