<svg width="15" height="15" viewBox="0 0 15 15" fill="none" xmlns="http://www.w3.org/2000/svg">
<path fill-rule="evenodd" clip-rule="evenodd" d="M7.50001 1C4.46245 1 2.00001 3.46243 2.00001 6.5V13.014C2.00001 13.3706 1.88619 13.7155 1.67867 14H13.3214C13.1138 13.7155 13 13.3706 13 13.014V6.5C13 3.46243 10.5376 1 7.50001 1ZM1.00001 6.5C1.00001 2.91015 3.91016 0 7.50001 0C11.0899 0 14 2.91015 14 6.5V13.014C14 13.1926 14.0709 13.3638 14.1972 13.4901L14.8536 14.1464C14.9966 14.2894 15.0393 14.5045 14.962 14.6913C14.8846 14.8782 14.7022 15 14.5 15H0.500015C0.297783 15 0.115465 14.8782 0.0380749 14.6913C-0.0393156 14.5045 0.00346218 14.2894 0.146461 14.1464L0.802841 13.4901L1.1433 13.8305L1.14972 13.8369M3.00001 6.5C3.00001 5.11929 4.1193 4 5.50001 4C6.31782 4 7.0439 4.39267 7.50002 4.99976C7.95613 4.39267 8.68221 4 9.50001 4C10.8807 4 12 5.11929 12 6.5V7.5C12 8.38772 11.5373 9.16738 10.8399 9.61097C10.8447 9.61332 10.8494 9.61567 10.8541 9.61803L11.7236 10.0528C11.8674 10.1247 11.9678 10.2613 11.9936 10.4199C12.0193 10.5786 11.9672 10.7399 11.8536 10.8536L11.2678 11.4393C10.2685 12.4386 8.9132 13 7.50001 13C6.08683 13 4.73152 12.4386 3.73225 11.4393L3.14646 10.8536C3.03281 10.7399 2.98073 10.5786 3.00647 10.4199C3.03222 10.2613 3.13265 10.1247 3.27641 10.0528L4.14591 9.61803C4.15064 9.61567 4.15536 9.61332 4.16009 9.61097C3.46271 9.16738 3.00001 8.38773 3.00001 7.5V6.5ZM8.00001 7.5C8.00001 8.32843 8.67159 9 9.50001 9C10.3284 9 11 8.32843 11 7.5V6.5C11 5.67157 10.3284 5 9.50001 5C8.67159 5 8.00001 5.67157 8.00001 6.5V7.5ZM7.00001 6.5C7.00001 5.67157 6.32844 5 5.50001 5C4.67159 5 4.00001 5.67157 4.00001 6.5V7.5C4.00001 8.32843 4.67159 9 5.50001 9C6.32844 9 7.00001 8.32843 7.00001 7.5V6.5ZM1.00001 6.5V13.014V6.5ZM4.3441 10.637L4.43935 10.7322C5.25109 11.544 6.35204 12 7.50001 12C8.64799 12 9.74894 11.544 10.5607 10.7322L10.6559 10.637L10.4069 10.5125C8.57697 9.5975 6.42306 9.5975 4.59313 10.5125L4.3441 10.637ZM1.00001 13.014C1.00001 13.1926 0.929089 13.3638 0.802842 13.4901L1.00001 13.014ZM5.00001 8V7H6.00001V8H5.00001ZM9.00001 8V7H10V8H9.00001ZM0.802842 13.4901L1.1433 13.8305L0.802842 13.4901Z" fill="black"/>
</svg>
