<svg width="15" height="12" viewBox="0 0 15 12" fill="none" xmlns="http://www.w3.org/2000/svg">
<path fill-rule="evenodd" clip-rule="evenodd" d="M1.4616e-05 0H2.00001V3H3.00001V4H1.4616e-05V3H1.00001V1H1.4616e-05V0ZM15 2H5.00001V1H15V2ZM15 6H5.00001V5H15V6ZM1.4616e-05 9.5C1.4616e-05 8.67157 0.671587 8 1.50001 8H1.79291C2.45957 8 3.00001 8.54044 3.00001 9.20711C3.00001 9.52725 2.87284 9.83428 2.64646 10.0607L1.70712 11H3.00001V12H0.500015C0.297783 12 0.115465 11.8782 0.0380748 11.6913C-0.0393157 11.5045 0.00346223 11.2894 0.146461 11.1464L1.93935 9.35355C1.97819 9.31471 2.00001 9.26204 2.00001 9.20711C2.00001 9.09272 1.90729 9 1.79291 9H1.50001C1.22387 9 1.00001 9.22386 1.00001 9.5H1.4616e-05ZM15 10H5.00001V9H15V10Z" fill="black"/>
</svg>
