<svg width="20" height="20" viewBox="0 0 20 20" fill="none" xmlns="http://www.w3.org/2000/svg">
<path fill-rule="evenodd" clip-rule="evenodd" d="M2 4.5C2 3.67157 2.67157 3 3.5 3H5.5C6.32843 3 7 3.67157 7 4.5V6.5C7 7.32843 6.32843 8 5.5 8H3.5C2.67157 8 2 7.32843 2 6.5V4.5ZM3.5 4C3.22386 4 3 4.22386 3 4.5V6.5C3 6.77614 3.22386 7 3.5 7H5.5C5.77614 7 6 6.77614 6 6.5V4.5C6 4.22386 5.77614 4 5.5 4H3.5ZM17 6H9V5H17V6ZM2 12.5C2 11.6716 2.67157 11 3.5 11H5.5C6.32843 11 7 11.6716 7 12.5V14.5C7 15.3284 6.32843 16 5.5 16H3.5C2.67157 16 2 15.3284 2 14.5V12.5ZM3.5 12C3.22386 12 3 12.2239 3 12.5V14.5C3 14.7761 3.22386 15 3.5 15H5.5C5.77614 15 6 14.7761 6 14.5V12.5C6 12.2239 5.77614 12 5.5 12H3.5ZM17 14H9V13H17V14Z" fill="black"/>
</svg>
