<svg width="20" height="20" viewBox="0 0 20 20" fill="none" xmlns="http://www.w3.org/2000/svg">
<path fill-rule="evenodd" clip-rule="evenodd" d="M3 9.5C3 5.91015 5.91015 3 9.5 3C13.0899 3 16 5.91015 16 9.5C16 11.1149 15.411 12.5923 14.4362 13.7291L17.8536 17.1464L17.1464 17.8536L13.7291 14.4362C12.5923 15.411 11.1149 16 9.5 16C5.91015 16 3 13.0899 3 9.5ZM9.5 4C6.46243 4 4 6.46243 4 9.5C4 12.5376 6.46243 15 9.5 15C12.5376 15 15 12.5376 15 9.5C15 6.46243 12.5376 4 9.5 4ZM7.14645 8.64645L9.14645 6.64645C9.34171 6.45118 9.65829 6.45118 9.85355 6.64645L11.8536 8.64645C11.9473 8.74021 12 8.86739 12 9V11.5C12 11.7761 11.7761 12 11.5 12H7.5C7.22386 12 7 11.7761 7 11.5V9C7 8.86739 7.05268 8.74021 7.14645 8.64645ZM8 9.20711V11H11V9.20711L9.5 7.70711L8 9.20711Z" fill="black"/>
</svg>
