<svg width="20" height="20" viewBox="0 0 20 20" fill="none" xmlns="http://www.w3.org/2000/svg">
<path fill-rule="evenodd" clip-rule="evenodd" d="M10.5 3C9.11929 3 8 4.11929 8 5.5V8H13V5.5C13 4.11929 11.8807 3 10.5 3ZM14 8V5.5C14 3.567 12.433 2 10.5 2C8.567 2 7 3.567 7 5.5V8H5.5C4.67157 8 4 8.67157 4 9.5V15.5C4 16.3284 4.67157 17 5.5 17H15.5C16.3284 17 17 16.3284 17 15.5V9.5C17 8.67157 16.3284 8 15.5 8H14ZM5.5 9C5.22386 9 5 9.22386 5 9.5V15.5C5 15.7761 5.22386 16 5.5 16H15.5C15.7761 16 16 15.7761 16 15.5V9.5C16 9.22386 15.7761 9 15.5 9H5.5Z" fill="black"/>
</svg>
