<svg width="7" height="9" viewBox="0 0 7 9" fill="none" xmlns="http://www.w3.org/2000/svg">
<path fill-rule="evenodd" clip-rule="evenodd" d="M3.5 1C2.67157 1 2 1.67157 2 2.5V3H5V2.5C5 1.67157 4.32843 1 3.5 1ZM6 3.08535V2.5C6 1.11929 4.88071 0 3.5 0C2.11929 0 1 1.11929 1 2.5V3.08535C0.417404 3.29127 0 3.84689 0 4.5V7.5C0 8.32843 0.671573 9 1.5 9H5.5C6.32843 9 7 8.32843 7 7.5V4.5C7 3.84689 6.5826 3.29127 6 3.08535ZM1.5 4C1.22386 4 1 4.22386 1 4.5V7.5C1 7.77614 1.22386 8 1.5 8H5.5C5.77614 8 6 7.77614 6 7.5V4.5C6 4.22386 5.77614 4 5.5 4H1.5Z" fill="black"/>
</svg>
