<svg width="15" height="15" viewBox="0 0 15 15" fill="none" xmlns="http://www.w3.org/2000/svg">
<path fill-rule="evenodd" clip-rule="evenodd" d="M13.2929 3.00004L11.1464 0.853591L11.8536 0.146484L14.8536 3.14648C15.0488 3.34175 15.0488 3.65833 14.8536 3.85359L11.8536 6.85359L11.1464 6.14648L13.2929 4.00004H3.5C2.11929 4.00004 1 5.11933 1 6.50004V8.00004H0V6.50004C0 4.56704 1.567 3.00004 3.5 3.00004H13.2929ZM15 7.00004V8.50004C15 10.433 13.433 12 11.5 12H1.70711L3.85355 14.1465L3.14644 14.8536L0.146446 11.8536C-0.0488155 11.6583 -0.0488155 11.3417 0.146447 11.1465L3.14645 8.14648L3.85355 8.85359L1.70711 11H11.5C12.8807 11 14 9.88075 14 8.50004V7.00004H15Z" fill="black"/>
</svg>
