<svg width="20" height="20" viewBox="0 0 20 20" fill="none" xmlns="http://www.w3.org/2000/svg">
<path fill-rule="evenodd" clip-rule="evenodd" d="M3 4.5C3 3.67157 3.67157 3 4.5 3H16.5C17.3284 3 18 3.67157 18 4.5V14.5C18 15.3284 17.3284 16 16.5 16H4.5C3.67157 16 3 15.3284 3 14.5V4.5ZM4.5 4C4.22386 4 4 4.22386 4 4.5V6.20984L10.5 9.92412L17 6.20984V4.5C17 4.22386 16.7761 4 16.5 4H4.5ZM17 7.36159L10.5 11.0759L4 7.36159V14.5C4 14.7761 4.22386 15 4.5 15H16.5C16.7761 15 17 14.7761 17 14.5V7.36159Z" fill="black"/>
</svg>
