<svg width="15" height="15" viewBox="0 0 15 15" fill="none" xmlns="http://www.w3.org/2000/svg">
<path fill-rule="evenodd" clip-rule="evenodd" d="M0 7.19565C0 3.20099 3.37858 0 7.5 0C11.6214 0 15 3.20099 15 7.19565C15 11.1903 11.6214 14.3913 7.5 14.3913C6.54087 14.3913 5.62342 14.2175 4.77908 13.9024L2.5383 14.9527C2.36187 15.0354 2.15345 15.0081 2.00431 14.8827C1.85516 14.7573 1.79246 14.5567 1.84365 14.3687L2.36957 12.437C0.917685 11.1288 0 9.26893 0 7.19565ZM7.5 1C3.88855 1 1 3.79466 1 7.19565C1 9.06224 1.87049 10.7381 3.25296 11.8786C3.40458 12.0036 3.46886 12.206 3.41722 12.3956L3.09243 13.5886L4.54865 12.906C4.67484 12.8468 4.81999 12.843 4.9491 12.8955C5.73232 13.2137 6.59369 13.3913 7.5 13.3913C11.1114 13.3913 14 10.5966 14 7.19565C14 3.79466 11.1114 1 7.5 1ZM11.8201 5.88411L8.51633 8.63725L6.4928 7.1196L3.29062 9.40687L2.70938 8.59313L6.5072 5.8804L8.48367 7.36275L11.1799 5.11589L11.8201 5.88411Z" fill="black"/>
</svg>
