<svg width="15" height="15" viewBox="0 0 15 15" fill="none" xmlns="http://www.w3.org/2000/svg">
<path fill-rule="evenodd" clip-rule="evenodd" d="M0 1.49935C0 0.670259 0.671165 0 1.5 0H13.5C14.3288 0 15 0.670259 15 1.49935V10.4935C15 11.3226 14.3288 11.9928 13.5 11.9928H9.7675L7.91594 14.7683C7.8232 14.9074 7.66712 14.9909 7.5 14.9909C7.33288 14.9909 7.1768 14.9074 7.08406 14.7683L5.2325 11.9928H1.5C0.671165 11.9928 0 11.3226 0 10.4935V1.49935ZM1.5 1C1.22283 1 1 1.22316 1 1.49935V10.4935C1 10.7697 1.22284 10.9928 1.5 10.9928H5.5C5.66712 10.9928 5.8232 11.0763 5.91594 11.2154L7.5 13.5899L9.08406 11.2154C9.1768 11.0763 9.33288 10.9928 9.5 10.9928H13.5C13.7772 10.9928 14 10.7697 14 10.4935V1.49935C14 1.22316 13.7772 1 13.5 1H1.5ZM4 6.5C4 4.567 5.567 3 7.5 3C9.433 3 11 4.567 11 6.5C11 8.433 9.433 10 7.5 10C5.567 10 4 8.433 4 6.5ZM7.5 4C6.11929 4 5 5.11929 5 6.5C5 7.00954 5.15244 7.48348 5.4142 7.8787L8.87869 4.4142C8.48348 4.15244 8.00954 4 7.5 4ZM9.5858 5.12131L6.12131 8.5858C6.51652 8.84756 6.99046 9 7.5 9C8.88071 9 10 7.88071 10 6.5C10 5.99046 9.84756 5.51652 9.5858 5.12131Z" fill="black"/>
</svg>
