<svg width="13" height="15" viewBox="0 0 13 15" fill="none" xmlns="http://www.w3.org/2000/svg">
<path fill-rule="evenodd" clip-rule="evenodd" d="M2 1.5C2 0.671573 2.67157 0 3.5 0H11.5C12.3284 0 13 0.671574 13 1.5V13.5C13 14.3284 12.3284 15 11.5 15H1.5C0.671573 15 0 14.3284 0 13.5V8.29289L2 6.29289V1.5ZM3.5 1C3.22386 1 3 1.22386 3 1.5V6.70711L1 8.70711V13.5C1 13.7761 1.22386 14 1.5 14H11.5C11.7761 14 12 13.7761 12 13.5V1.5C12 1.22386 11.7761 1 11.5 1H3.5ZM5 6V3H6V6H5ZM7 6V3H8V6H7ZM9 6V3H10V6H9Z" fill="black"/>
</svg>
