<svg width="20" height="20" viewBox="0 0 20 20" fill="none" xmlns="http://www.w3.org/2000/svg">
<path fill-rule="evenodd" clip-rule="evenodd" d="M8 4.5C8 3.11929 9.11929 2 10.5 2C11.8807 2 13 3.11929 13 4.5V8.5C13 9.88071 11.8807 11 10.5 11C9.11929 11 8 9.88071 8 8.5V4.5ZM10.5 3C9.67157 3 9 3.67157 9 4.5V8.5C9 9.32843 9.67157 10 10.5 10C11.3284 10 12 9.32843 12 8.5V4.5C12 3.67157 11.3284 3 10.5 3ZM5 8.5V6H6V8.5C6 10.9853 8.01472 13 10.5 13C12.9853 13 15 10.9853 15 8.5V6H16V8.5C16 11.369 13.8033 13.725 11 13.9776V16H13V17H8V16H10V13.9776C7.19675 13.725 5 11.369 5 8.5Z" fill="black"/>
</svg>
