<svg width="13" height="13" viewBox="0 0 13 13" fill="none" xmlns="http://www.w3.org/2000/svg">
<path fill-rule="evenodd" clip-rule="evenodd" d="M12.8536 0.853591L9.70711 4.00004L12 4.00004V5.00004L8.00001 5.00004V1.00004H9.00001V3.29293L12.1465 0.146484L12.8536 0.853591ZM3.2929 4.00004L0.146454 0.853591L0.853561 0.146485L4.00001 3.29293L4.00001 1.00004L5.00001 1.00004V5.00004L1.00001 5.00004L1.00001 4.00004L3.2929 4.00004ZM1.00001 8.00004L5.00001 8.00004L5.00001 12H4.00001L4.00001 9.70715L0.853561 12.8536L0.146454 12.1465L3.2929 9.00004L1.00001 9.00004L1.00001 8.00004ZM8 8.00004L12 8.00004V9.00004L9.70711 9.00004L12.8536 12.1465L12.1465 12.8536L9 9.70714L9 12L8 12L8 8.00004Z" fill="black"/>
</svg>
