<svg width="15" height="15" viewBox="0 0 15 15" fill="none" xmlns="http://www.w3.org/2000/svg">
<path fill-rule="evenodd" clip-rule="evenodd" d="M0 1.5C0 0.671573 0.671573 0 1.5 0H13.5C14.3284 0 15 0.671573 15 1.5V9.5C15 10.3284 14.3284 11 13.5 11H1.5C0.671574 11 0 10.3284 0 9.5V1.5ZM1.5 1C1.22386 1 1 1.22386 1 1.5V9.5C1 9.77614 1.22386 10 1.5 10H13.5C13.7761 10 14 9.77614 14 9.5V1.5C14 1.22386 13.7761 1 13.5 1H1.5ZM2 2H4V3H3V4H2V2ZM12 3H11V2H13V4H12V3ZM5 5.5C5 4.11929 6.11929 3 7.5 3C8.88071 3 10 4.11929 10 5.5C10 6.88071 8.88071 8 7.5 8C6.11929 8 5 6.88071 5 5.5ZM7.5 4C6.67157 4 6 4.67157 6 5.5C6 6.32843 6.67157 7 7.5 7C8.32843 7 9 6.32843 9 5.5C9 4.67157 8.32843 4 7.5 4ZM2 7H3V8H4V9H2V7ZM13 7V9H11V8H12V7H13ZM15 12V13H0V12H15ZM15 14V15H0V14H15Z" fill="black"/>
</svg>
