<svg width="9" height="15" viewBox="0 0 9 15" fill="none" xmlns="http://www.w3.org/2000/svg">
<path fill-rule="evenodd" clip-rule="evenodd" d="M4.50001 0C4.64016 0 4.77388 0.0588232 4.86858 0.162138L7.49987 3.03263C9.31982 5.01803 9.43427 8.02932 7.77028 10.1471L5.00001 13.6729V15H4.00001V13.6729L1.22974 10.1471C-0.434262 8.02932 -0.31981 5.01804 1.50014 3.03263L4.13143 0.162138C4.22614 0.0588232 4.35985 0 4.50001 0ZM5.00001 12.0543L6.98396 9.52932C8.34541 7.79655 8.25177 5.33278 6.76272 3.70836L5.00001 1.7854V12.0543ZM4.00001 1.7854V12.0543L2.01606 9.52931C0.654602 7.79655 0.748244 5.33278 2.2373 3.70836L4.00001 1.7854Z" fill="black"/>
</svg>
