<svg width="15" height="15" viewBox="0 0 15 15" fill="none" xmlns="http://www.w3.org/2000/svg">
<path fill-rule="evenodd" clip-rule="evenodd" d="M0 7.5C0 3.35786 3.35786 0 7.5 0C11.6421 0 15 3.35786 15 7.5C15 11.6421 11.6421 15 7.5 15C3.35786 15 0 11.6421 0 7.5ZM7.5 1C3.91015 1 1 3.91015 1 7.5C1 11.0899 3.91015 14 7.5 14C11.0899 14 14 11.0899 14 7.5C14 3.91015 11.0899 1 7.5 1ZM5 6H4V5H5V6ZM11 6H10V5H11V6ZM5 9H4V8H11V9H10V10.5C10 11.8807 8.88071 13 7.5 13C6.11929 13 5 11.8807 5 10.5V9ZM6 9V10.5C6 11.3284 6.67157 12 7.5 12C8.32843 12 9 11.3284 9 10.5V9H6Z" fill="black"/>
</svg>
