<svg width="15" height="15" viewBox="0 0 15 15" fill="none" xmlns="http://www.w3.org/2000/svg">
<path fill-rule="evenodd" clip-rule="evenodd" d="M0 7.5C0 3.35786 3.35786 0 7.5 0C11.6421 0 15 3.35786 15 7.5C15 11.6421 11.6421 15 7.5 15C3.35786 15 0 11.6421 0 7.5ZM7.5 1C3.91015 1 1 3.91015 1 7.5C1 11.0899 3.91015 14 7.5 14C11.0899 14 14 11.0899 14 7.5C14 3.91015 11.0899 1 7.5 1ZM5 6H4V5H5V6ZM11 6H10V5H11V6ZM4.14645 7.14645C4.24021 7.05268 4.36739 7 4.5 7H10.5C10.6326 7 10.7598 7.05268 10.8536 7.14645C10.9473 7.24021 11 7.36739 11 7.5C11 9.47066 9.47066 11 7.5 11C5.52934 11 4 9.47066 4 7.5C4 7.36739 4.05268 7.24021 4.14645 7.14645ZM5.04642 8C5.26738 9.16489 6.25369 10 7.5 10C8.74631 10 9.73262 9.16489 9.95358 8H5.04642Z" fill="black"/>
</svg>
