<svg width="15" height="15" viewBox="0 0 15 15" fill="none" xmlns="http://www.w3.org/2000/svg">
<path fill-rule="evenodd" clip-rule="evenodd" d="M0 7.5C0 3.35786 3.35786 0 7.5 0C11.6421 0 15 3.35786 15 7.5C15 11.6421 11.6421 15 7.5 15C3.35786 15 0 11.6421 0 7.5ZM7.5 1C3.91015 1 1 3.91015 1 7.5C1 11.0899 3.91015 14 7.5 14C11.0899 14 14 11.0899 14 7.5C14 3.91015 11.0899 1 7.5 1ZM5 6H4V5H5V6ZM11 6H10V5H11V6ZM4.6 8.3L4.9 8.7C6.2 10.4333 8.8 10.4333 10.1 8.7L10.4 8.3L11.2 8.9L10.9 9.3C9.2 11.5667 5.8 11.5667 4.1 9.3L3.8 8.9L4.6 8.3Z" fill="black"/>
</svg>
