<svg width="20" height="20" viewBox="0 0 20 20" fill="none" xmlns="http://www.w3.org/2000/svg">
<path fill-rule="evenodd" clip-rule="evenodd" d="M8.91435 3.2949C8.99644 3.10949 9.18237 2.99201 9.38507 2.9975C13.4319 3.10702 16.6786 6.42163 16.6786 10.4947C16.6786 14.6368 13.3207 17.9947 9.17858 17.9947C6.56529 17.9947 4.26449 16.6577 2.92257 14.6328C2.81054 14.4637 2.81172 14.2438 2.92556 14.0759C3.03941 13.9081 3.24336 13.8256 3.44186 13.8672C3.84054 13.9507 4.25417 13.9947 4.67861 13.9947C7.99232 13.9947 10.6786 11.3084 10.6786 7.99471C10.6786 6.38355 10.0442 4.92161 9.01059 3.84332C8.87028 3.69694 8.83226 3.48031 8.91435 3.2949ZM10.5177 4.13277C11.2511 5.23964 11.6786 6.56755 11.6786 7.99471C11.6786 11.8607 8.54461 14.9947 4.67861 14.9947C4.61407 14.9947 4.54973 14.9938 4.48559 14.9921C5.66911 16.2268 7.33425 16.9947 9.17858 16.9947C12.7684 16.9947 15.6786 14.0846 15.6786 10.4947C15.6786 7.36391 13.465 4.74999 10.5177 4.13277Z" fill="black"/>
</svg>
