<svg width="20" height="20" viewBox="0 0 20 20" fill="none" xmlns="http://www.w3.org/2000/svg">
<path fill-rule="evenodd" clip-rule="evenodd" d="M8.90143 1.35716C9.0082 1.13463 9.25003 0.993632 9.51368 1.00022C14.7772 1.13167 19 5.10989 19 9.99843C19 14.9698 14.6325 19 9.24511 19C5.84613 19 2.8536 17.3953 1.10823 14.965C0.96252 14.7621 0.964055 14.4981 1.11212 14.2966C1.2602 14.0952 1.52547 13.9962 1.78365 14.0461C2.30219 14.1464 2.84018 14.1992 3.39222 14.1992C7.7022 14.1992 11.1961 10.975 11.1961 6.99792C11.1961 5.06419 10.371 3.30956 9.02661 2.01538C8.84411 1.8397 8.79466 1.57969 8.90143 1.35716ZM10.9868 2.36278C11.9407 3.69126 12.4968 5.28503 12.4968 6.99792C12.4968 11.6379 8.42053 15.3994 3.39222 15.3994C3.30828 15.3994 3.2246 15.3983 3.14117 15.3963C4.68052 16.8781 6.84628 17.7998 9.24511 17.7998C13.9142 17.7998 17.6994 14.3071 17.6994 9.99843C17.6994 6.24083 14.8202 3.10358 10.9868 2.36278Z" fill="black"/>
</svg>
