<svg width="14" height="15" viewBox="0 0 14 15" fill="none" xmlns="http://www.w3.org/2000/svg">
<path fill-rule="evenodd" clip-rule="evenodd" d="M6.23579 0.300208C6.31788 0.114798 6.50382 -0.00267706 6.70651 0.00280868C10.7533 0.112332 14 3.42694 14 7.50002C14 11.6422 10.6422 15 6.50002 15C3.88673 15 1.58593 13.663 0.24401 11.6381C0.131978 11.469 0.133162 11.2491 0.247006 11.0812C0.36085 10.9134 0.564801 10.8309 0.7633 10.8725C1.16198 10.956 1.57561 11 2.00005 11C5.31376 11 8.00005 8.31372 8.00005 5.00002C8.00005 3.38886 7.36568 1.92692 6.33204 0.848626C6.19172 0.702247 6.1537 0.485619 6.23579 0.300208ZM7.83915 1.13808C8.57258 2.24495 9.00005 3.57286 9.00005 5.00002C9.00005 8.86601 5.86605 12 2.00005 12C1.93551 12 1.87117 11.9991 1.80703 11.9974C2.99055 13.2321 4.65569 14 6.50002 14C10.0899 14 13 11.0899 13 7.50002C13 4.36922 10.7865 1.7553 7.83915 1.13808Z" fill="black"/>
</svg>
