<svg width="3" height="13" viewBox="0 0 3 13" fill="none" xmlns="http://www.w3.org/2000/svg">
<path fill-rule="evenodd" clip-rule="evenodd" d="M0.5 1.5C0.5 0.947715 0.947716 0.5 1.5 0.5C2.05229 0.5 2.5 0.947715 2.5 1.5C2.5 2.05228 2.05229 2.5 1.5 2.5C0.947716 2.5 0.5 2.05228 0.5 1.5ZM0.5 6.5C0.5 5.94772 0.947715 5.5 1.5 5.5C2.05228 5.5 2.5 5.94772 2.5 6.5C2.5 7.05228 2.05228 7.5 1.5 7.5C0.947715 7.5 0.5 7.05228 0.5 6.5ZM0.5 11.5C0.5 10.9477 0.947715 10.5 1.5 10.5C2.05228 10.5 2.5 10.9477 2.5 11.5C2.5 12.0523 2.05228 12.5 1.5 12.5C0.947715 12.5 0.5 12.0523 0.5 11.5Z" fill="black"/>
</svg>
