<svg width="20" height="20" viewBox="0 0 20 20" fill="none" xmlns="http://www.w3.org/2000/svg">
<path fill-rule="evenodd" clip-rule="evenodd" d="M2 10.3333C2 9.59695 2.59695 9 3.33333 9C4.06971 9 4.66667 9.59695 4.66667 10.3333C4.66667 11.0697 4.06971 11.6667 3.33333 11.6667C2.59695 11.6667 2 11.0697 2 10.3333ZM8.66667 10.3333C8.66667 9.59695 9.26362 9 10 9C10.7364 9 11.3333 9.59695 11.3333 10.3333C11.3333 11.0697 10.7364 11.6667 10 11.6667C9.26362 11.6667 8.66667 11.0697 8.66667 10.3333ZM15.3333 10.3333C15.3333 9.59695 15.9303 9 16.6667 9C17.403 9 18 9.59695 18 10.3333C18 11.0697 17.403 11.6667 16.6667 11.6667C15.9303 11.6667 15.3333 11.0697 15.3333 10.3333Z" fill="black"/>
</svg>
