<svg width="20" height="20" viewBox="0 0 20 20" fill="none" xmlns="http://www.w3.org/2000/svg">
<path fill-rule="evenodd" clip-rule="evenodd" d="M9 3.33333C9 2.59695 9.59695 2 10.3333 2C11.0697 2 11.6667 2.59695 11.6667 3.33333C11.6667 4.06971 11.0697 4.66667 10.3333 4.66667C9.59695 4.66667 9 4.06971 9 3.33333ZM9 10C9 9.26362 9.59695 8.66667 10.3333 8.66667C11.0697 8.66667 11.6667 9.26362 11.6667 10C11.6667 10.7364 11.0697 11.3333 10.3333 11.3333C9.59695 11.3333 9 10.7364 9 10ZM9 16.6667C9 15.9303 9.59695 15.3333 10.3333 15.3333C11.0697 15.3333 11.6667 15.9303 11.6667 16.6667C11.6667 17.403 11.0697 18 10.3333 18C9.59695 18 9 17.403 9 16.6667Z" fill="black"/>
</svg>
