<svg width="13" height="15" viewBox="0 0 13 15" fill="none" xmlns="http://www.w3.org/2000/svg">
<path fill-rule="evenodd" clip-rule="evenodd" d="M1.5 1C1.22386 1 1 1.22386 1 1.5V5H0V1.5C0 0.671573 0.671573 0 1.5 0H9.70711L13 3.29289V5H12V3.70711L9.29289 1H1.5ZM1.30866 6.03806C1.4955 5.96067 1.71055 6.00345 1.85355 6.14645L2.5 6.79289L3.14645 6.14645C3.28945 6.00345 3.5045 5.96067 3.69134 6.03806C3.87818 6.11545 4 6.29777 4 6.5V11H3V7.70711L2.5 8.20711L2 7.70711V11H1V6.5C1 6.29777 1.12182 6.11545 1.30866 6.03806ZM5 7.5C5 6.67157 5.67157 6 6.5 6C7.32843 6 8 6.67157 8 7.5V9.5C8 10.3284 7.32843 11 6.5 11C5.67157 11 5 10.3284 5 9.5V7.5ZM6.5 7C6.22386 7 6 7.22386 6 7.5V9.5C6 9.77614 6.22386 10 6.5 10C6.77614 10 7 9.77614 7 9.5V7.5C7 7.22386 6.77614 7 6.5 7ZM9 6H10V9.29289L10.5 9.79289L11 9.29289V6H12V9.70711L10.8536 10.8536C10.6583 11.0488 10.3417 11.0488 10.1464 10.8536L9 9.70711V6ZM0 13.5V12H1V13.5C1 13.7761 1.22386 14 1.5 14H11.5C11.7761 14 12 13.7761 12 13.5V12H13V13.5C13 14.3284 12.3284 15 11.5 15H1.5C0.671573 15 0 14.3284 0 13.5Z" fill="black"/>
</svg>
