<svg width="20" height="20" viewBox="0 0 20 20" fill="none" xmlns="http://www.w3.org/2000/svg">
<path fill-rule="evenodd" clip-rule="evenodd" d="M2.2 2.2H1V1H2.2V2.2ZM7 2.2H5.8V1H7V2.2ZM11.8 2.2H10.6V1H11.8V2.2ZM4.6 4.6H17.8V9.4H16.6V5.8H5.8V16.6H9.4V17.8H4.6V4.6ZM2.2 7H1V5.8H2.2V7ZM9.57573 9.57573C9.72981 9.42165 9.95531 9.36322 10.1648 9.42308L18.5648 11.8231C18.8089 11.8928 18.9827 12.1087 18.9988 12.362C19.0149 12.6154 18.8697 12.8515 18.6363 12.9515L14.6569 14.6569L12.9515 18.6363C12.8515 18.8697 12.6154 19.0149 12.362 18.9988C12.1087 18.9827 11.8928 18.8089 11.8231 18.5648L9.42308 10.1648C9.36322 9.95531 9.42165 9.72981 9.57573 9.57573ZM10.8736 10.8736L12.5133 16.6125L13.6485 13.9636C13.7092 13.822 13.822 13.7092 13.9636 13.6485L16.6125 12.5133L10.8736 10.8736ZM2.2 11.8H1V10.6H2.2V11.8Z" fill="black"/>
</svg>
