<svg width="13" height="15" viewBox="0 0 13 15" fill="none" xmlns="http://www.w3.org/2000/svg">
<path fill-rule="evenodd" clip-rule="evenodd" d="M1.5 1C1.22386 1 1 1.22386 1 1.5V5H0V1.5C0 0.671573 0.671573 0 1.5 0H9.70711L13 3.29289V5H12V3.70711L9.29289 1H1.5ZM1.30866 6.03806C1.4955 5.96067 1.71055 6.00345 1.85355 6.14645L2.5 6.79289L3.14645 6.14645C3.28945 6.00345 3.5045 5.96067 3.69134 6.03806C3.87818 6.11545 4 6.29777 4 6.5V11H3V7.70711L2.5 8.20711L2 7.70711V11H1V6.5C1 6.29777 1.12182 6.11545 1.30866 6.03806ZM5 6H6.5C7.32843 6 8 6.67157 8 7.5C8 8.32843 7.32843 9 6.5 9H6V11H5V6ZM6 8H6.5C6.77614 8 7 7.77614 7 7.5C7 7.22386 6.77614 7 6.5 7H6V8ZM10.5 7H9V6H11.5C11.6894 6 11.8625 6.107 11.9472 6.27639C12.0319 6.44579 12.0136 6.64849 11.9 6.8L10.9488 8.06829C11.558 8.25905 12 8.82791 12 9.5C12 10.3284 11.3284 11 10.5 11H9V10H10.5C10.7761 10 11 9.77614 11 9.5C11 9.22386 10.7761 9 10.5 9H10C9.81061 9 9.63748 8.893 9.55279 8.72361C9.46809 8.55421 9.48637 8.35151 9.6 8.2L10.5 7ZM0 13.5V12H1V13.5C1 13.7761 1.22386 14 1.5 14H11.5C11.7761 14 12 13.7761 12 13.5V12H13V13.5C13 14.3284 12.3284 15 11.5 15H1.5C0.671573 15 0 14.3284 0 13.5Z" fill="black"/>
</svg>
