<svg width="15" height="15" viewBox="0 0 15 15" fill="none" xmlns="http://www.w3.org/2000/svg">
<path fill-rule="evenodd" clip-rule="evenodd" d="M3.5 1C3.22386 1 3 1.22386 3 1.5V3H7.5C8.32843 3 9 3.67157 9 4.5V10.5C9 11.3284 8.32843 12 7.5 12H3V13.5C3 13.7761 3.22386 14 3.5 14H13.5C13.7761 14 14 13.7761 14 13.5V1.5C14 1.22386 13.7761 1 13.5 1H3.5ZM2 12V13.5C2 14.3284 2.67157 15 3.5 15H13.5C14.3284 15 15 14.3284 15 13.5V1.5C15 0.671573 14.3284 0 13.5 0H3.5C2.67157 0 2 0.671573 2 1.5V3H1.5C0.671573 3 0 3.67157 0 4.5V10.5C0 11.3284 0.671573 12 1.5 12H2ZM1.5 4C1.22386 4 1 4.22386 1 4.5V10.5C1 10.7761 1.22386 11 1.5 11H7.5C7.77614 11 8 10.7761 8 10.5V4.5C8 4.22386 7.77614 4 7.5 4H1.5ZM3.01493 9.62127L2.01493 5.62127L2.98507 5.37873L3.71094 8.2822L4.08397 7.72265C4.17671 7.58355 4.33282 7.5 4.5 7.5C4.66718 7.5 4.82329 7.58355 4.91603 7.72265L5.28906 8.2822L6.01493 5.37873L6.98507 5.62127L5.98507 9.62127C5.93707 9.81327 5.78034 9.95889 5.58534 9.99266C5.39033 10.0264 5.19375 9.94202 5.08397 9.77735L4.5 8.90139L3.91603 9.77735C3.80625 9.94202 3.60967 10.0264 3.41466 9.99266C3.21966 9.95889 3.06293 9.81327 3.01493 9.62127Z" fill="black"/>
</svg>
