<svg width="15" height="13" viewBox="0 0 15 13" fill="none" xmlns="http://www.w3.org/2000/svg">
<path fill-rule="evenodd" clip-rule="evenodd" d="M5.29289 0H9.70711L10.7071 1H11.5C13.433 1 15 2.567 15 4.5V9.33772C15 10.2558 14.2558 11 13.3377 11C12.6222 11 11.987 10.5422 11.7607 9.86338L11.1396 8H10.405C10.1481 8 9.93303 8.19465 9.90747 8.45025L9.64677 11.0572C9.53648 12.1601 8.60841 13 7.5 13C6.39159 13 5.46352 12.1601 5.35323 11.0572L5.09253 8.45025C5.06697 8.19465 4.85189 8 4.59501 8H3.86038L3.23925 9.86338C3.01299 10.5422 2.37777 11 1.66228 11C0.744227 11 0 10.2558 0 9.33772V4.5C0 2.567 1.567 1 3.5 1H4.29289L5.29289 0ZM5.70711 1L4.70711 2H3.5C2.11929 2 1 3.11929 1 4.5V9.33772C1 9.70349 1.29651 10 1.66228 10C1.94734 10 2.20042 9.81759 2.29057 9.54715L3.13962 7H4.59501C5.36564 7 6.01089 7.58394 6.08757 8.35074L6.34826 10.9577C6.40743 11.5494 6.90534 12 7.5 12C8.09466 12 8.59257 11.5494 8.65174 10.9577L8.91243 8.35075C8.98911 7.58394 9.63436 7 10.405 7H11.8604L12.7094 9.54715C12.7996 9.81759 13.0527 10 13.3377 10C13.7035 10 14 9.70349 14 9.33772V4.5C14 3.11929 12.8807 2 11.5 2H10.2929L9.29289 1H5.70711ZM4 4V3H5V4H6V5H5V6H4V5H3V4H4ZM12 5V6H11V5H12ZM10 5H9V4H10V5Z" fill="black"/>
</svg>
