<svg width="15" height="15" viewBox="0 0 15 15" fill="none" xmlns="http://www.w3.org/2000/svg">
<path fill-rule="evenodd" clip-rule="evenodd" d="M7.14645 0.146447C7.34171 -0.0488155 7.65829 -0.0488155 7.85355 0.146447L14.8536 7.14645C15.0488 7.34171 15.0488 7.65829 14.8536 7.85355L7.85355 14.8536C7.65829 15.0488 7.34171 15.0488 7.14645 14.8536L0.146447 7.85355C-0.0488155 7.65829 -0.0488155 7.34171 0.146447 7.14645L7.14645 0.146447ZM2.05734 8.35023L3.22392 8.60383L2.6044 8.89729L2.05734 8.35023ZM3.35525 9.64814L3.41621 9.70911L3.50004 9.57956L3.35525 9.64814ZM4.80392 9.40523L4.13937 10.4323L7.5 13.7929L7.83981 13.4531L4.80392 9.40523ZM9.73369 11.5592L10.9989 10.294L9.96881 10.0701L9.73369 11.5592ZM10.125 9.08072L11.8395 9.45342L13.6103 7.68262L10.5397 6.4544L10.125 9.08072ZM11.5328 5.77459L12.424 6.13107L11.8956 5.60271L11.5328 5.77459ZM11.1448 4.85186L10.8407 4.54785L10.7643 5.03208L11.1448 4.85186ZM9.74742 5.06045L9.96641 3.67352L9.08379 2.79089L8.05364 4.38294L9.74742 5.06045ZM7.10745 4.00446L8.36063 2.06773L7.5 1.20711L5.38973 3.31738L7.10745 4.00446ZM4.62042 4.08669L6.55384 4.86005L4.74345 7.65793L3.16019 5.54692L4.62042 4.08669ZM2.4459 6.2612L1.50115 7.20596L3.47655 7.6354L2.4459 6.2612ZM5.88709 9.18279L8.99002 9.85733L8.53836 12.7178L5.88709 9.18279ZM6.30588 8.25047L9.14624 8.86794L9.48122 6.74636L6.30588 8.25047ZM6.24996 7.17044L7.50003 5.23853L9.03351 5.85192L6.24996 7.17044Z" fill="black"/>
</svg>
