<svg width="15" height="15" viewBox="0 0 15 15" fill="none" xmlns="http://www.w3.org/2000/svg">
<path fill-rule="evenodd" clip-rule="evenodd" d="M0 7.5C0 3.35786 3.35786 0 7.5 0C11.6421 0 15 3.35786 15 7.5C15 11.6421 11.6421 15 7.5 15C3.35786 15 0 11.6421 0 7.5ZM7.5 1C3.91015 1 1 3.91015 1 7.5C1 11.0899 3.91015 14 7.5 14C11.0899 14 14 11.0899 14 7.5C14 3.91015 11.0899 1 7.5 1ZM4.24904 5.06754C4.40319 4.97808 4.59332 4.97745 4.74807 5.06588L8.24807 7.06588C8.40386 7.1549 8.5 7.32057 8.5 7.5C8.5 7.67943 8.40386 7.8451 8.24807 7.93412L4.74807 9.93412C4.59332 10.0226 4.40319 10.0219 4.24904 9.93246C4.09488 9.84299 4 9.67824 4 9.5V5.5C4 5.32176 4.09488 5.15701 4.24904 5.06754ZM11 10H10V5H11V10ZM5 6.36159V8.63841L6.99222 7.5L5 6.36159Z" fill="black"/>
</svg>
