<svg width="15" height="15" viewBox="0 0 15 15" fill="none" xmlns="http://www.w3.org/2000/svg">
<path fill-rule="evenodd" clip-rule="evenodd" d="M3.5 1C2.11929 0.999999 1 2.11929 1 3.5L1 9.5C1 10.8807 2.11929 12 3.5 12H6L6 1L3.5 1ZM2.68221e-07 3.5C3.57628e-07 1.567 1.56701 -1.37091e-06 3.5 0L6.5 2.14577e-06C6.77614 2.32458e-06 7 0.22386 7 0.500002L7 12.5C7 12.7761 6.77614 13 6.5 13H3.5C1.567 13 -5.96046e-08 11.433 0 9.5L2.68221e-07 3.5ZM8.14645 2.14645C8.24022 2.05268 8.36739 2 8.5 2L11.5 2C13.433 2.00001 15 3.56701 15 5.5V11.5C15 13.433 13.433 15 11.5 15H8.5C8.36739 15 8.24021 14.9473 8.14645 14.8536C8.05268 14.7598 8 14.6326 8 14.5L8 2.5C8 2.36739 8.05268 2.24022 8.14645 2.14645ZM9 3V14H11.5C12.8807 14 14 12.8807 14 11.5V5.5C14 4.11929 12.8807 3.00001 11.5 3L9 3ZM2 4.5C2 3.67157 2.67157 3 3.5 3C4.32843 3 5 3.67157 5 4.5C5 5.32843 4.32843 6 3.5 6C2.67157 6 2 5.32843 2 4.5ZM3.5 4C3.22386 4 3 4.22386 3 4.5C3 4.77614 3.22386 5 3.5 5C3.77614 5 4 4.77614 4 4.5C4 4.22386 3.77614 4 3.5 4ZM11.5 10C11.2239 10 11 10.2239 11 10.5C11 10.7761 11.2239 11 11.5 11C11.7761 11 12 10.7761 12 10.5C12 10.2239 11.7761 10 11.5 10ZM10 10.5C10 9.67157 10.6716 9 11.5 9C12.3284 9 13 9.67157 13 10.5C13 11.3284 12.3284 12 11.5 12C10.6716 12 10 11.3284 10 10.5Z" fill="black"/>
</svg>
