<svg width="13" height="15" viewBox="0 0 13 15" fill="none" xmlns="http://www.w3.org/2000/svg">
<path fill-rule="evenodd" clip-rule="evenodd" d="M6.5 0.421143L13 4.21281V10.7872L6.5 14.5788L0 10.7872V4.21281L6.5 0.421143ZM1 4.78718V10.2128L2.36446 11.0087L3.17082 10.6056C3.679 10.3515 4 9.83208 4 9.26393V3.99999H5V9.26393C5 10.2109 4.46499 11.0765 3.61803 11.5L3.39649 11.6108L6.5 13.4211L12 10.2128V4.78718L6.5 1.57885L1 4.78718ZM6 5.99999C6 4.89542 6.89543 3.99999 8 3.99999H9.16667C10.1792 3.99999 11 4.82081 11 5.83333V5.99999H10V5.83333C10 5.37309 9.6269 4.99999 9.16667 4.99999H8C7.44772 4.99999 7 5.44771 7 5.99999C7 6.55228 7.44772 6.99999 8 6.99999H9C10.1046 6.99999 11 7.89542 11 8.99999C11 10.1046 10.1046 11 9 11H8C6.89543 11 6 10.1046 6 8.99999H7C7 9.55228 7.44772 9.99999 8 9.99999H9C9.55229 9.99999 10 9.55228 10 8.99999C10 8.44771 9.55228 7.99999 9 7.99999H8C6.89543 7.99999 6 7.10456 6 5.99999Z" fill="black"/>
</svg>
