<svg width="15" height="15" viewBox="0 0 15 15" fill="none" xmlns="http://www.w3.org/2000/svg">
<path fill-rule="evenodd" clip-rule="evenodd" d="M0 1.5C0 0.671574 0.671573 0 1.5 0H13.5C14.3284 0 15 0.671573 15 1.5V10.0858C15 10.1747 14.9921 10.2628 14.9767 10.3491C15.0327 10.5259 14.9863 10.7208 14.8536 10.8536L10.8536 14.8536C10.7208 14.9863 10.5259 15.0327 10.3491 14.9767C10.2628 14.9921 10.1747 15 10.0858 15H1.5C0.671573 15 0 14.3284 0 13.5V1.5ZM10 14H1.5C1.22386 14 1 13.7761 1 13.5V1.5C1 1.22386 1.22386 1 1.5 1H13.5C13.7761 1 14 1.22386 14 1.5V10H10.5C10.2239 10 10 10.2239 10 10.5V14ZM12 4H3V3H12V4ZM11 11V13.2929L13.2929 11H11Z" fill="black"/>
</svg>
