<svg width="20" height="20" viewBox="0 0 20 20" fill="none" xmlns="http://www.w3.org/2000/svg">
<path fill-rule="evenodd" clip-rule="evenodd" d="M6.05279 3.27639C6.13748 3.107 6.31061 3 6.5 3H14.5C14.6894 3 14.8625 3.107 14.9472 3.27639L17.9472 9.27639C18.0176 9.41716 18.0176 9.58284 17.9472 9.72361L14.9472 15.7236C14.8625 15.893 14.6894 16 14.5 16H6.5C6.31061 16 6.13748 15.893 6.05279 15.7236L3.05279 9.72361C2.9824 9.58284 2.9824 9.41716 3.05279 9.27639L6.05279 3.27639ZM6.80902 4L4.05902 9.5L6.80902 15H14.191L16.941 9.5L14.191 4H6.80902ZM10.5 5.39907L14 7.73241V11.2676L10.5 13.6009L7 11.2676V7.73241L10.5 5.39907ZM8 8.26759V10.7324L10.5 12.3991L13 10.7324V8.26759L10.5 6.60093L8 8.26759Z" fill="black"/>
</svg>
