<svg width="15" height="11" viewBox="0 0 15 11" fill="none" xmlns="http://www.w3.org/2000/svg">
<path fill-rule="evenodd" clip-rule="evenodd" d="M6.5 0C6.67563 0 6.83838 0.0921494 6.92875 0.242752L8.45614 2.78841L9.06903 1.74649C9.15887 1.59377 9.32282 1.5 9.5 1.5C9.67718 1.5 9.84113 1.59377 9.93097 1.74649L14.931 10.2465C15.0219 10.4011 15.0231 10.5925 14.934 10.7482C14.845 10.9039 14.6794 11 14.5 11H0.5C0.319864 11 0.153653 10.9031 0.0649001 10.7463C-0.0238527 10.5896 -0.0214256 10.3972 0.0712536 10.2428L6.07125 0.242752C6.16162 0.0921494 6.32437 0 6.5 0ZM5.37421 10H11.6169L8.46465 4.74625L5.37421 10ZM7.87882 3.76986L4.21403 10H1.3831L6.5 1.47183L7.87882 3.76986ZM9.04197 3.7648L12.7831 10H13.6258L9.5 2.98615L9.04197 3.7648Z" fill="black"/>
</svg>
