<svg width="15" height="15" viewBox="0 0 15 15" fill="none" xmlns="http://www.w3.org/2000/svg">
<path fill-rule="evenodd" clip-rule="evenodd" d="M1 6.5C1 2.91015 3.91015 0 7.5 0C11.0899 0 14 2.91015 14 6.5C14 9.20465 12.3484 11.5224 10 12.5017V14H15V15H9V12H9.44395L9.33338 11.6872C11.4702 10.9319 13 8.89395 13 6.5C13 3.46243 10.5376 1 7.5 1C4.46243 1 2 3.46243 2 6.5C2 8.89395 3.52976 10.9319 5.66662 11.6872L5.55605 12L6 12V15H0V14H5L5 12.5017C2.65164 11.5224 1 9.20465 1 6.5Z" fill="black"/>
</svg>
