<svg width="20" height="20" viewBox="0 0 20 20" fill="none" xmlns="http://www.w3.org/2000/svg">
<path fill-rule="evenodd" clip-rule="evenodd" d="M4.17157 5.5C4.17157 4.11929 5.29086 3 6.67157 3C7.84359 3 8.82724 3.8065 9.09782 4.8948C9.91237 4.70358 10.8042 4.92553 11.4393 5.56066L14.6109 8.73223C15.5872 9.70854 15.5872 11.2915 14.6109 12.2678L10.4393 16.4393C9.46303 17.4157 7.88012 17.4157 6.90381 16.4393L3.73223 13.2678C2.75592 12.2915 2.75592 10.7085 3.73223 9.73223L4.17157 9.29289V5.5ZM5.17157 8.29289L7.90381 5.56066C7.98601 5.47846 8.07251 5.40318 8.16258 5.33482C8.08035 4.58411 7.44418 4 6.67157 4C5.84315 4 5.17157 4.67157 5.17157 5.5V8.29289ZM8.17157 6.70711L4.43934 10.4393C4.0173 10.8614 3.89933 11.4723 4.08542 12H13.4645L13.9038 11.5607C14.4896 10.9749 14.4896 10.0251 13.9038 9.43934L10.7322 6.26777C10.3102 5.84573 9.69923 5.72775 9.17157 5.91384V10H8.17157V6.70711ZM12.4645 13H4.87868L7.61091 15.7322C8.1967 16.318 9.14645 16.318 9.73223 15.7322L12.4645 13ZM14.8523 12.7929L16.3867 14.3272C16.83 14.7706 17.0535 15.3313 17.0187 15.9015C16.984 16.471 16.695 17.0007 16.2078 17.3904C15.4154 18.0244 14.2893 18.0244 13.4968 17.3904C13.0097 17.0007 12.7207 16.471 12.686 15.9015C12.6512 15.3313 12.8747 14.7706 13.318 14.3272L14.8523 12.7929ZM14.8523 14.2071L14.0251 15.0343C13.7647 15.2947 13.6684 15.5828 13.6841 15.8407C13.6999 16.0995 13.8315 16.3776 14.1215 16.6096C14.5488 16.9514 15.1559 16.9514 15.5831 16.6096C15.8731 16.3776 16.0048 16.0995 16.0206 15.8407C16.0363 15.5828 15.94 15.2947 15.6796 15.0343L14.8523 14.2071Z" fill="black"/>
</svg>
