<svg width="15" height="15" viewBox="0 0 15 15" fill="none" xmlns="http://www.w3.org/2000/svg">
<path fill-rule="evenodd" clip-rule="evenodd" d="M6.5 1C5.11929 1 4 2.11929 4 3.5V6H9V3.5C9 2.11929 7.88071 1 6.5 1ZM10 6V3.5C10 1.567 8.433 0 6.5 0C4.567 0 3 1.567 3 3.5V6H1.5C0.671573 6 0 6.67157 0 7.5V13.5C0 14.3284 0.671573 15 1.5 15H11.5C12.3284 15 13 14.3284 13 13.5V12.95C14.1411 12.7184 15 11.7095 15 10.5C15 9.29052 14.1411 8.28164 13 8.05001V7.5C13 6.67157 12.3284 6 11.5 6H10ZM12 8V7.5C12 7.22386 11.7761 7 11.5 7H1.5C1.22386 7 1 7.22386 1 7.5V13.5C1 13.7761 1.22386 14 1.5 14H11.5C11.7761 14 12 13.7761 12 13.5V13H8.5C7.11929 13 6 11.8807 6 10.5C6 9.11929 7.11929 8 8.5 8H12ZM8.5 9C7.67157 9 7 9.67157 7 10.5C7 11.3284 7.67157 12 8.5 12H12.5C13.3284 12 14 11.3284 14 10.5C14 9.67157 13.3284 9 12.5 9H8.5ZM11 11H10V10H11V11ZM9 11H8V10H9V11ZM13 11H12V10H13V11Z" fill="black"/>
</svg>
