<svg width="15" height="15" viewBox="0 0 15 15" fill="none" xmlns="http://www.w3.org/2000/svg">
<path fill-rule="evenodd" clip-rule="evenodd" d="M3 2C3 0.895431 3.89543 0 5 0C6.10457 0 7 0.895431 7 2V3C7 4.10457 6.10457 5 5 5C3.89543 5 3 4.10457 3 3V2ZM5 1C4.44772 1 4 1.44772 4 2V3C4 3.55228 4.44772 4 5 4C5.55228 4 6 3.55228 6 3V2C6 1.44772 5.55228 1 5 1ZM8 2C8 0.895431 8.89543 0 10 0C11.1046 0 12 0.895431 12 2V3C12 4.10457 11.1046 5 10 5C8.89543 5 8 4.10457 8 3V2ZM10 1C9.44772 1 9 1.44772 9 2V3C9 3.55228 9.44772 4 10 4C10.5523 4 11 3.55228 11 3V2C11 1.44772 10.5523 1 10 1ZM0 7C0 5.89543 0.895431 5 2 5C3.10457 5 4 5.89543 4 7V7.5C4 8.60457 3.10457 9.5 2 9.5C0.895431 9.5 0 8.60457 0 7.5V7ZM2 6C1.44772 6 1 6.44772 1 7V7.5C1 8.05228 1.44772 8.5 2 8.5C2.55228 8.5 3 8.05228 3 7.5V7C3 6.44772 2.55228 6 2 6ZM11 7C11 5.89543 11.8954 5 13 5C14.1046 5 15 5.89543 15 7V7.5C15 8.60457 14.1046 9.5 13 9.5C11.8954 9.5 11 8.60457 11 7.5V7ZM13 6C12.4477 6 12 6.44772 12 7V7.5C12 8.05228 12.4477 8.5 13 8.5C13.5523 8.5 14 8.05228 14 7.5V7C14 6.44772 13.5523 6 13 6ZM8.8408 8.41464C8.14601 7.57096 6.85399 7.57096 6.1592 8.41464L3.24136 11.9577C2.57058 12.7723 3.14998 14 4.20516 14C4.32143 14 4.43611 13.9729 4.54011 13.9209L4.89978 13.7411C6.53665 12.9227 8.46335 12.9227 10.1002 13.7411L10.4599 13.9209C10.5639 13.9729 10.6786 14 10.7948 14C11.85 14 12.4294 12.7723 11.7586 11.9577L8.8408 8.41464ZM5.38727 7.77893C6.48207 6.44953 8.51793 6.44953 9.61273 7.77893L12.5306 11.322C13.7386 12.7889 12.6951 15 10.7948 15C10.5233 15 10.2555 14.9368 10.0127 14.8154L9.65301 14.6355C8.29766 13.9578 6.70234 13.9578 5.34699 14.6355L4.98732 14.8154C4.74447 14.9368 4.47668 15 4.20516 15C2.30486 15 1.2614 12.7889 2.46943 11.322L5.38727 7.77893Z" fill="black"/>
</svg>
