<svg width="15" height="15" viewBox="0 0 15 15" fill="none" xmlns="http://www.w3.org/2000/svg">
<path fill-rule="evenodd" clip-rule="evenodd" d="M4.1171 0.333984L4.85236 1.88461L3.9488 2.31306L3.21353 0.762432L4.1171 0.333984ZM1.66257 1.45163L2.39784 3.00226L1.49427 3.4307L0.759003 1.88008L1.66257 1.45163ZM6.59334 1.45977L7.29879 3.08276L6.38168 3.48139L5.67623 1.8584L6.59334 1.45977ZM5.05072 4.73263C4.76859 4.57809 4.43742 4.57186 4.13093 4.69778C3.87571 4.80263 3.65946 5.06675 3.56661 5.35988L3.20312 7.10211C3.14795 7.36654 3.38535 7.67646 3.69547 7.67646C3.88803 7.67646 4.03203 7.60154 4.09941 7.51542L4.10487 7.50844L4.53201 6.98212C4.83293 6.60045 5.30082 6.44117 5.72047 6.44117H6.45684C6.64939 6.44117 6.7934 6.36624 6.86077 6.28013C6.86857 6.27016 6.87674 6.26049 6.88528 6.25115C7.05713 6.06287 7.02715 5.73003 6.71805 5.56183L5.06838 4.74185C5.06243 4.73889 5.05654 4.73582 5.05072 4.73263ZM5.52178 3.85049C4.94715 3.53962 4.30054 3.547 3.75092 3.7728C3.15234 4.01871 2.7586 4.5693 2.60267 5.09247C2.59867 5.10589 2.59524 5.11946 2.59238 5.13317L2.2242 6.89787C2.03391 7.80991 2.77833 8.67646 3.69547 8.67646C4.11513 8.67646 4.58301 8.51718 4.88393 8.13553L5.31102 7.60914L5.31654 7.60221C5.38392 7.5161 5.52792 7.44117 5.72047 7.44117H6.45684C6.87231 7.44117 7.33506 7.28504 7.63626 6.91156C8.306 6.16042 7.96844 5.09473 7.18278 4.67632L5.52178 3.85049ZM0.987551 3.98104L1.72282 5.53167L0.81925 5.96012L0.0839844 4.40949L0.987551 3.98104ZM11.7864 6.52714L11.0512 8.07777L10.1476 7.64932L10.8829 6.09869L11.7864 6.52714ZM14.241 7.64478L13.5057 9.19541L12.6022 8.76696L13.3374 7.21634L14.241 7.64478ZM9.32375 7.6231L8.6183 9.2461L7.70119 8.84747L8.40664 7.22447L9.32375 7.6231ZM10.8189 10.4385C10.5705 10.3024 10.2356 10.337 10.0212 10.5083C9.99343 10.5304 9.96342 10.5496 9.93164 10.5654L8.28219 11.3852C8.02121 11.5282 7.95488 11.868 8.13925 12.1037C8.20662 12.1898 8.35063 12.2647 8.54318 12.2647H9.27954C9.6992 12.2647 10.1671 12.424 10.468 12.8056L10.9007 13.3389C10.968 13.425 11.112 13.5 11.3045 13.5C11.6539 13.5 11.8566 13.2116 11.7969 12.9256L11.4314 11.174C11.3373 10.825 11.1194 10.5653 10.8691 10.4625C10.8519 10.4554 10.8352 10.4474 10.8189 10.4385ZM11.2746 9.54821C10.6859 9.23865 9.95642 9.31088 9.44318 9.69145L7.82972 10.4934L7.81724 10.4998C6.97792 10.9468 6.80086 12.0159 7.35166 12.7199C7.65246 13.1043 8.1221 13.2647 8.54318 13.2647H9.27954C9.4721 13.2647 9.6161 13.3396 9.68348 13.4257L10.1161 13.9591C10.417 14.3407 10.8849 14.5 11.3045 14.5C12.3051 14.5 12.9616 13.6119 12.7758 12.7214L12.4076 10.9567C12.406 10.9486 12.4041 10.9406 12.402 10.9326C12.2512 10.3543 11.8663 9.80231 11.2746 9.54821ZM14.916 10.1742L14.1807 11.7248L13.2772 11.2964L14.0124 9.74575L14.916 10.1742Z" fill="black"/>
</svg>
