<svg width="13" height="15" viewBox="0 0 13 15" fill="none" xmlns="http://www.w3.org/2000/svg">
<path fill-rule="evenodd" clip-rule="evenodd" d="M0.999977 0H12V0.5C12 2.148 11.2748 3.62617 10.126 4.63347L12.0941 8.56356L6.88447 14.8111C6.78948 14.925 6.6488 14.9908 6.50047 14.9908C6.35213 14.9908 6.21145 14.925 6.11646 14.8111L0.90686 8.56361L2.87401 4.63352C1.72517 3.62622 0.999977 2.14803 0.999977 0.5V0ZM3.69424 5.22896L2.09407 8.42589L6.00033 13.1103L5.99993 8.99419L6.99993 8.99409L7.00033 13.1107L10.9068 8.42594L9.30581 5.2289C8.48437 5.71666 7.52494 5.9967 6.49998 5.9967C5.47506 5.9967 4.51566 5.71668 3.69424 5.22896ZM2.02746 1C2.27623 3.24837 4.18298 4.9967 6.49998 4.9967C8.81697 4.9967 10.7237 3.24837 10.9725 1H2.02746Z" fill="black"/>
</svg>
