<svg width="15" height="15" viewBox="0 0 15 15" fill="none" xmlns="http://www.w3.org/2000/svg">
<path fill-rule="evenodd" clip-rule="evenodd" d="M0 2.5C0 1.11929 1.11929 0 2.5 0H4.71922C5.40752 0 6.0075 0.468446 6.17444 1.1362L6.76048 3.48035C6.95058 4.24075 6.52319 5.01932 5.7796 5.26718L4.67097 5.63672C4.33156 5.74986 4.12951 6.09803 4.19967 6.44886C4.63885 8.64472 6.35528 10.3612 8.55114 10.8003C8.90197 10.8705 9.25014 10.6684 9.36328 10.329L9.66105 9.43573C9.94971 8.56975 10.9384 8.1602 11.7549 8.56843L14.1708 9.77639C14.679 10.0305 15 10.5499 15 11.118V12.5C15 13.8807 13.8807 15 12.5 15H10.5C4.70101 15 0 10.299 0 4.5V2.5ZM2.5 1C1.67157 1 1 1.67157 1 2.5V4.5C1 9.74671 5.25329 14 10.5 14H12.5C13.3284 14 14 13.3284 14 12.5V11.118C14 10.9286 13.893 10.7555 13.7236 10.6708L11.3077 9.46286C11.0355 9.32678 10.7059 9.46329 10.6097 9.75196L10.312 10.6453C10.0393 11.4631 9.20038 11.95 8.35503 11.7809C5.7633 11.2626 3.73744 9.2367 3.21909 6.64497C3.05002 5.79962 3.53689 4.96066 4.35474 4.68804L5.46338 4.31849C5.71124 4.23587 5.8537 3.97635 5.79033 3.72289L5.20429 1.37873C5.14865 1.15615 4.94866 1 4.71922 1H2.5ZM9 5.29289L14.1464 0.146447L14.8536 0.853553L9.70711 6H12V7H8V3H9V5.29289Z" fill="black"/>
</svg>
