<svg width="20" height="20" viewBox="0 0 20 20" fill="none" xmlns="http://www.w3.org/2000/svg">
<path d="M1.5158 7.22461H4.3566C5.1904 7.23161 5.7946 7.47201 6.1692 7.94541C6.5438 8.41881 6.6674 9.06541 6.5402 9.88521C6.4908 10.2598 6.3812 10.6272 6.2116 10.9876C6.049 11.348 5.823 11.673 5.5332 11.9628C5.1798 12.3302 4.8018 12.5634 4.399 12.6624C3.9962 12.7614 3.5792 12.8108 3.1482 12.8108H1.8762L1.4734 14.8248H0L1.5158 7.22461V7.22461ZM2.756 8.43301L2.12 11.613C2.1624 11.62 2.2048 11.6236 2.2472 11.6236C2.2966 11.6236 2.3462 11.6236 2.3956 11.6236C3.074 11.6306 3.6394 11.5636 4.0916 11.4222C4.5438 11.2738 4.8478 10.758 5.0032 9.87461C5.1304 9.13261 5.0032 8.70501 4.6216 8.59201C4.247 8.47901 3.7772 8.42601 3.2118 8.43301C3.127 8.44001 3.0458 8.44361 2.968 8.44361C2.8974 8.44361 2.8232 8.44361 2.7454 8.44361L2.756 8.43301" fill="black"/>
<path d="M8.2186 5.19995H9.6814L9.268 7.22455H10.5824C11.3032 7.23875 11.8402 7.38715 12.1936 7.66975C12.554 7.95235 12.66 8.48955 12.5116 9.28095L11.8014 12.8108H10.3174L10.9958 9.43995C11.0664 9.08655 11.0452 8.83575 10.9322 8.68735C10.8192 8.53895 10.5754 8.46475 10.2008 8.46475L9.0242 8.45415L8.155 12.8108H6.6922L8.2186 5.19995Z" fill="black"/>
<path d="M14.0824 7.22461H16.9232C17.757 7.23161 18.3612 7.47201 18.7358 7.94541C19.1104 8.41881 19.234 9.06541 19.1068 9.88521C19.0574 10.2598 18.9478 10.6272 18.7782 10.9876C18.6156 11.348 18.3896 11.673 18.0998 11.9628C17.7464 12.3302 17.3684 12.5634 16.9656 12.6624C16.5628 12.7614 16.1458 12.8108 15.7148 12.8108H14.4428L14.04 14.8248H12.5666L14.0824 7.22461V7.22461ZM15.3226 8.43301L14.6866 11.613C14.729 11.62 14.7714 11.6236 14.8138 11.6236C14.8632 11.6236 14.9128 11.6236 14.9622 11.6236C15.6406 11.6306 16.206 11.5636 16.6582 11.4222C17.1104 11.2738 17.4144 10.758 17.5698 9.87461C17.697 9.13261 17.5698 8.70501 17.1882 8.59201C16.8136 8.47901 16.3438 8.42601 15.7784 8.43301C15.6936 8.44001 15.6124 8.44361 15.5346 8.44361C15.464 8.44361 15.3898 8.44361 15.312 8.44361L15.3226 8.43301" fill="black"/>
</svg>
