<svg width="20" height="20" viewBox="0 0 20 20" fill="none" xmlns="http://www.w3.org/2000/svg">
<path d="M1.58267 7.10358H4.54879C5.41937 7.11085 6.05023 7.36062 6.44135 7.85247C6.83248 8.34432 6.96153 9.01612 6.82872 9.86788C6.77714 10.2571 6.66271 10.6388 6.48562 11.0132C6.31585 11.3877 6.07988 11.7254 5.7773 12.0264C5.40831 12.4082 5.01363 12.6505 4.59306 12.7533C4.17249 12.8562 3.7371 12.9075 3.28708 12.9075H1.95897L1.5384 15H0L1.58267 7.10358ZM2.87758 8.35908L2.21352 11.663C2.25779 11.6703 2.30206 11.674 2.34633 11.674C2.39791 11.674 2.4497 11.674 2.50128 11.674C3.20961 11.6813 3.79995 11.6117 4.2721 11.4648C4.74425 11.3106 5.06166 10.7747 5.22392 9.85687C5.35673 9.08594 5.22392 8.64168 4.82548 8.52427C4.43436 8.40687 3.94383 8.3518 3.35349 8.35908C3.26495 8.36635 3.18016 8.37009 3.09893 8.37009C3.02522 8.37009 2.94774 8.37009 2.86651 8.37009L2.87758 8.35908Z" fill="black"/>
<path d="M8.58135 5H10.1087L9.67704 7.10351H11.0494C11.802 7.11827 12.3627 7.27245 12.7317 7.56607C13.108 7.85968 13.2187 8.41782 13.0638 9.24007L12.3222 12.9075H10.7728L11.4811 9.40526C11.5548 9.03809 11.5327 8.77751 11.4147 8.62333C11.2967 8.46915 11.0421 8.39205 10.651 8.39205L9.42249 8.38104L8.51494 12.9075H6.98761L8.58135 5Z" fill="black"/>
<path d="M14.7034 7.10358H17.6696C18.5401 7.11085 19.171 7.36062 19.5621 7.85247C19.9532 8.34432 20.0823 9.01612 19.9495 9.86788C19.8979 10.2571 19.7835 10.6388 19.6064 11.0132C19.4366 11.3877 19.2006 11.7254 18.8981 12.0264C18.5291 12.4082 18.1344 12.6505 17.7138 12.7533C17.2933 12.8562 16.8579 12.9075 16.4078 12.9075H15.0797L14.6592 15H13.1208L14.7034 7.10358ZM15.9983 8.35908L15.3343 11.663C15.3786 11.6703 15.4228 11.674 15.4671 11.674C15.5187 11.674 15.5705 11.674 15.622 11.674C16.3304 11.6813 16.9207 11.6117 17.3929 11.4648C17.865 11.3106 18.1824 10.7747 18.3447 9.85687C18.4775 9.08594 18.3447 8.64168 17.9462 8.52427C17.5551 8.40687 17.0646 8.3518 16.4743 8.35908C16.3857 8.36635 16.3009 8.37009 16.2197 8.37009C16.146 8.37009 16.0685 8.37009 15.9873 8.37009L15.9983 8.35908Z" fill="black"/>
</svg>
