<svg width="20" height="20" viewBox="0 0 20 20" fill="none" xmlns="http://www.w3.org/2000/svg">
<path d="M1.5158 7.22461H4.3566C5.1904 7.23161 5.7946 7.47201 6.1692 7.94541C6.5438 8.41881 6.6674 9.06541 6.5402 9.88521C6.4908 10.2598 6.3812 10.6272 6.2116 10.9876C6.049 11.348 5.823 11.673 5.5332 11.9628C5.1798 12.3302 4.8018 12.5634 4.399 12.6624C3.9962 12.7614 3.5792 12.8108 3.1482 12.8108H1.8762L1.4734 14.8248H0L1.5158 7.22461ZM2.756 8.43301L2.12 11.613C2.1624 11.62 2.2048 11.6236 2.2472 11.6236C2.2966 11.6236 2.3462 11.6236 2.3956 11.6236C3.074 11.6306 3.6394 11.5636 4.0916 11.4222C4.5438 11.2738 4.8478 10.758 5.0032 9.87461C5.1304 9.13261 5.0032 8.70501 4.6216 8.59201C4.247 8.47901 3.7772 8.42601 3.2118 8.43301C3.127 8.44001 3.0458 8.44361 2.968 8.44361C2.8974 8.44361 2.8232 8.44361 2.7454 8.44361L2.756 8.43301Z" fill="black"/>
<path d="M8.21878 5.19995H9.68158L9.26818 7.22455H10.5826C11.3034 7.23875 11.8404 7.38715 12.1938 7.66975C12.5542 7.95235 12.6602 8.48955 12.5118 9.28095L11.8016 12.8108H10.3176L10.996 9.43995C11.0666 9.08655 11.0454 8.83575 10.9324 8.68735C10.8194 8.53895 10.5756 8.46475 10.201 8.46475L9.02438 8.45415L8.15518 12.8108H6.69238L8.21878 5.19995Z" fill="black"/>
<path d="M14.0822 7.22461H16.923C17.7568 7.23161 18.361 7.47201 18.7356 7.94541C19.1102 8.41881 19.2338 9.06541 19.1066 9.88521C19.0572 10.2598 18.9476 10.6272 18.778 10.9876C18.6154 11.348 18.3894 11.673 18.0996 11.9628C17.7462 12.3302 17.3682 12.5634 16.9654 12.6624C16.5626 12.7614 16.1456 12.8108 15.7146 12.8108H14.4426L14.0398 14.8248H12.5664L14.0822 7.22461ZM15.3224 8.43301L14.6864 11.613C14.7288 11.62 14.7712 11.6236 14.8136 11.6236C14.863 11.6236 14.9126 11.6236 14.962 11.6236C15.6404 11.6306 16.2058 11.5636 16.658 11.4222C17.1102 11.2738 17.4142 10.758 17.5696 9.87461C17.6968 9.13261 17.5696 8.70501 17.188 8.59201C16.8134 8.47901 16.3436 8.42601 15.7782 8.43301C15.6934 8.44001 15.6122 8.44361 15.5344 8.44361C15.4638 8.44361 15.3896 8.44361 15.3118 8.44361L15.3224 8.43301Z" fill="black"/>
</svg>
