<svg width="15" height="15" viewBox="0 0 15 15" fill="none" xmlns="http://www.w3.org/2000/svg">
<path fill-rule="evenodd" clip-rule="evenodd" d="M6 0.5C6 0.223858 6.22386 0 6.5 0C11.1944 0 15 3.80558 15 8.5C15 8.77614 14.7761 9 14.5 9H12.9811C12.7257 12.3562 9.92161 15 6.5 15C2.91015 15 0 12.0899 0 8.5C0 5.07838 2.64378 2.27426 6 2.01894V0.5ZM6 3.02242C3.19675 3.27504 1 5.63098 1 8.5C1 11.5376 3.46243 14 6.5 14C9.36902 14 11.725 11.8033 11.9776 9H6V3.02242ZM7 1.0164V8H13.9836C13.7372 4.25625 10.7438 1.26282 7 1.0164Z" fill="black"/>
</svg>
