<svg width="20" height="20" viewBox="0 0 20 20" fill="none" xmlns="http://www.w3.org/2000/svg">
<path fill-rule="evenodd" clip-rule="evenodd" d="M2 9.5C2 5.35786 5.35786 2 9.5 2C13.6421 2 17 5.35786 17 9.5C17 13.6421 13.6421 17 9.5 17C5.35786 17 2 13.6421 2 9.5ZM9.5 3C5.91015 3 3 5.91015 3 9.5C3 11.861 4.25878 13.928 6.14183 15.0664L9.04043 8.30304L9.95957 8.69696L9.00323 10.9284C9.2212 11.5688 9.8228 12 10.5 12C11.8807 12 13 10.8807 13 9.5V9C13 7.34315 11.6569 6 10 6H9C7.34315 6 6 7.34315 6 9V9.5C6 10.1406 6.2403 10.7239 6.63646 11.1665L5.89133 11.8335C5.33741 11.2146 5 10.3961 5 9.5V9C5 6.79086 6.79086 5 9 5H10C12.2091 5 14 6.79086 14 9V9.5C14 11.433 12.433 13 10.5 13C9.71658 13 8.99514 12.6465 8.51463 12.0685L7.0367 15.517C7.79641 15.8284 8.62816 16 9.5 16C13.0899 16 16 13.0899 16 9.5C16 5.91015 13.0899 3 9.5 3Z" fill="black"/>
</svg>
