<svg width="15" height="15" viewBox="0 0 15 15" fill="none" xmlns="http://www.w3.org/2000/svg">
<path fill-rule="evenodd" clip-rule="evenodd" d="M0 7.5C0 3.35786 3.35786 0 7.5 0C11.6421 0 15 3.35786 15 7.5C15 11.6421 11.6421 15 7.5 15C3.35786 15 0 11.6421 0 7.5ZM7.5 1C3.91015 1 1 3.91015 1 7.5C1 9.86099 2.25878 11.928 4.14183 13.0664L7.04043 6.30304L7.95957 6.69696L7.00323 8.92844C7.2212 9.56881 7.8228 10 8.5 10C9.88071 10 11 8.88071 11 7.5V7C11 5.34315 9.65685 4 8 4H7C5.34315 4 4 5.34315 4 7V7.5C4 8.14062 4.2403 8.72391 4.63646 9.16654L3.89133 9.83346C3.33741 9.21457 3 8.39609 3 7.5V7C3 4.79086 4.79086 3 7 3H8C10.2091 3 12 4.79086 12 7V7.5C12 9.433 10.433 11 8.5 11C7.71658 11 6.99514 10.6465 6.51463 10.0685L5.0367 13.517C5.79641 13.8284 6.62816 14 7.5 14C11.0899 14 14 11.0899 14 7.5C14 3.91015 11.0899 1 7.5 1Z" fill="black"/>
</svg>
