<svg width="15" height="15" viewBox="0 0 15 15" fill="none" xmlns="http://www.w3.org/2000/svg">
<path fill-rule="evenodd" clip-rule="evenodd" d="M7 4.5C7 2.01472 9.01472 0 11.5 0H15V3.5C15 5.98528 12.9853 8 10.5 8H8V15H7V11H4.5C2.01472 11 0 8.98528 0 6.5V3H3.5C4.91363 3 6.17502 3.65183 7 4.67133V4.5ZM7 7.5C7 5.567 5.433 4 3.5 4H1V6.5C1 8.433 2.567 10 4.5 10H6.29289L3.14645 6.85355L3.85355 6.14645L7 9.29289V7.5ZM8.70711 7L11.8536 3.85355L11.1464 3.14645L8 6.29289V4.5C8 2.567 9.567 1 11.5 1H14V3.5C14 5.433 12.433 7 10.5 7H8.70711Z" fill="black"/>
</svg>
