<svg width="20" height="20" viewBox="0 0 20 20" fill="none" xmlns="http://www.w3.org/2000/svg">
<path fill-rule="evenodd" clip-rule="evenodd" d="M2 9.5C2 5.35786 5.35786 2 9.5 2C13.6421 2 17 5.35786 17 9.5C17 13.6421 13.6421 17 9.5 17C5.35786 17 2 13.6421 2 9.5ZM9.5 3C5.91015 3 3 5.91015 3 9.5C3 13.0899 5.91015 16 9.5 16C13.0899 16 16 13.0899 16 9.5C16 5.91015 13.0899 3 9.5 3ZM8.24904 7.06754C8.40319 6.97808 8.59332 6.97745 8.74807 7.06588L12.2481 9.06588C12.4039 9.1549 12.5 9.32057 12.5 9.5C12.5 9.67943 12.4039 9.8451 12.2481 9.93412L8.74807 11.9341C8.59332 12.0226 8.40319 12.0219 8.24904 11.9325C8.09488 11.843 8 11.6782 8 11.5V7.5C8 7.32176 8.09488 7.15701 8.24904 7.06754ZM9 8.36159V10.6384L10.9922 9.5L9 8.36159Z" fill="black"/>
</svg>
