<svg width="13" height="15" viewBox="0 0 13 15" fill="none" xmlns="http://www.w3.org/2000/svg">
<path fill-rule="evenodd" clip-rule="evenodd" d="M1.5 1C1.22386 1 1 1.22386 1 1.5V5H0V1.5C0 0.671573 0.671573 0 1.5 0H9.70711L13 3.29289V5H12V3.70711L9.29289 1H1.5ZM1 6H2.5C3.32843 6 4 6.67157 4 7.5C4 8.32843 3.32843 9 2.5 9H2V11H1V6ZM2 8H2.5C2.77614 8 3 7.77614 3 7.5C3 7.22386 2.77614 7 2.5 7H2V8ZM8 6V10.5C8 10.7319 7.84056 10.9333 7.61488 10.9866C7.38919 11.0399 7.15649 10.931 7.05279 10.7236L6 8.61803V11H5V6.5L5.94721 6.27639L7 8.38197V6H8ZM9 6H12V7H10V10H11V8.5H12V11H9V6ZM0 13.5V12H1V13.5C1 13.7761 1.22386 14 1.5 14H11.5C11.7761 14 12 13.7761 12 13.5V12H13V13.5C13 14.3284 12.3284 15 11.5 15H1.5C0.671573 15 0 14.3284 0 13.5Z" fill="black"/>
</svg>
