<svg width="20" height="20" viewBox="0 0 20 20" fill="none" xmlns="http://www.w3.org/2000/svg">
<path fill-rule="evenodd" clip-rule="evenodd" d="M8.01057 4C6.5234 4 5.37417 5.20269 5.37417 6.72724V7H11.3742V6.63639C11.3742 4.56904 13.0075 3 15.056 3V4C13.5408 4 12.3742 5.14011 12.3742 6.63639V13H11.3742V12H5.37417V15H4.37417V6.72724C4.37417 4.68816 5.9341 3 8.01057 3V4ZM5.37417 11H11.3742V8H5.37417V11ZM9.81348 16.4416C8.91916 16.9461 7.93735 17.5 6.32872 17.5C4.84581 17.5 3.7148 16.7381 3 15.9317L3.74835 15.2683C4.33354 15.9286 5.21163 16.5 6.32872 16.5C7.6681 16.5 8.45758 16.0584 9.33306 15.5645L9.34395 15.5584C10.2383 15.0539 11.2201 14.5 12.8287 14.5C14.3593 14.5 15.7119 15.3202 16.6806 16.0716L16.0677 16.8618C15.1455 16.1465 14.0163 15.5 12.8287 15.5C11.4893 15.5 10.6999 15.9416 9.82438 16.4355L9.81348 16.4416Z" fill="black"/>
</svg>
