<svg width="20" height="20" viewBox="0 0 20 20" fill="none" xmlns="http://www.w3.org/2000/svg">
<path fill-rule="evenodd" clip-rule="evenodd" d="M6.5 3C6.22386 3 6 3.22386 6 3.5V8H13V3.5C13 3.22386 12.7761 3 12.5 3H6.5ZM14 8V3.5C14 2.67157 13.3284 2 12.5 2H6.5C5.67157 2 5 2.67157 5 3.5V8H3.5C2.67157 8 2 8.67157 2 9.5V13.5C2 14.3284 2.67157 15 3.5 15H5V17H14V15H15.5C16.3284 15 17 14.3284 17 13.5V9.5C17 8.67157 16.3284 8 15.5 8H14ZM14 14H15.5C15.7761 14 16 13.7761 16 13.5V9.5C16 9.22386 15.7761 9 15.5 9H3.5C3.22386 9 3 9.22386 3 9.5V13.5C3 13.7761 3.22386 14 3.5 14H5V12H14V14ZM6 13V16H13V13H6Z" fill="black"/>
</svg>
