<svg width="15" height="15" viewBox="0 0 15 15" fill="none" xmlns="http://www.w3.org/2000/svg">
<path fill-rule="evenodd" clip-rule="evenodd" d="M4.5 1C4.22386 1 4 1.22386 4 1.5V6H11V1.5C11 1.22386 10.7761 1 10.5 1H4.5ZM12 6V1.5C12 0.671573 11.3284 0 10.5 0H4.5C3.67157 0 3 0.671573 3 1.5V6H1.5C0.671573 6 0 6.67157 0 7.5V11.5C0 12.3284 0.671573 13 1.5 13H3V15H12V13H13.5C14.3284 13 15 12.3284 15 11.5V7.5C15 6.67157 14.3284 6 13.5 6H12ZM12 12H13.5C13.7761 12 14 11.7761 14 11.5V7.5C14 7.22386 13.7761 7 13.5 7H1.5C1.22386 7 1 7.22386 1 7.5V11.5C1 11.7761 1.22386 12 1.5 12H3V10H12V12ZM4 11V14H11V11H4Z" fill="black"/>
</svg>
