<svg width="15" height="15" viewBox="0 0 15 15" fill="none" xmlns="http://www.w3.org/2000/svg">
<path fill-rule="evenodd" clip-rule="evenodd" d="M5.5 1C5.22386 1 5 1.22386 5 1.5V4H8V5H1.5C1.22386 5 1 5.22386 1 5.5V10.5C1 10.7761 1.22386 11 1.5 11H4V8.5C4 7.67157 4.67157 7 5.5 7H9.5C9.77614 7 10 6.77614 10 6.5V1.5C10 1.22386 9.77614 1 9.5 1H5.5ZM4 12H1.5C0.671573 12 0 11.3284 0 10.5V5.5C0 4.67157 0.671573 4 1.5 4H4V1.5C4 0.671573 4.67157 0 5.5 0H9.5C10.3284 0 11 0.671573 11 1.5V3H13.5C14.3284 3 15 3.67157 15 4.5V9.5C15 10.3284 14.3284 11 13.5 11H11V13.5C11 14.3284 10.3284 15 9.5 15H5.5C4.67157 15 4 14.3284 4 13.5V12ZM11 4V6.5C11 7.32843 10.3284 8 9.5 8H5.5C5.22386 8 5 8.22386 5 8.5V13.5C5 13.7761 5.22386 14 5.5 14H9.5C9.77614 14 10 13.7761 10 13.5V11H7V10H13.5C13.7761 10 14 9.77614 14 9.5V4.5C14 4.22386 13.7761 4 13.5 4H11ZM7 3H6V2H7V3ZM9 13H8V12H9V13Z" fill="black"/>
</svg>
