<svg width="9" height="15" viewBox="0 0 9 15" fill="none" xmlns="http://www.w3.org/2000/svg">
<path fill-rule="evenodd" clip-rule="evenodd" d="M0.672148 1.62075C1.7099 0.583002 3.11739 0 4.58499 0H4.7918C7.12198 0 9.00001 1.92493 9.00001 4.24297C9.00001 5.7995 8.12164 7.2482 6.72361 7.94721C5.66727 8.47538 5.00001 9.55504 5.00001 10.7361V12H4.00001V10.7361C4.00001 9.17627 4.88128 7.75035 6.2764 7.05279C7.32984 6.52607 8.00001 5.42726 8.00001 4.24297C8.00001 2.46504 6.5576 1 4.7918 1H4.58499C3.38261 1 2.22947 1.47765 1.37925 2.32786L0.853561 2.85355L0.146454 2.14645L0.672148 1.62075ZM5.00001 15H4.00001V14H5.00001V15Z" fill="black"/>
</svg>
