<svg width="20" height="20" viewBox="0 0 20 20" fill="none" xmlns="http://www.w3.org/2000/svg">
<path fill-rule="evenodd" clip-rule="evenodd" d="M2 9.5C2 5.35786 5.35786 2 9.5 2C13.6421 2 17 5.35786 17 9.5C17 13.6421 13.6421 17 9.5 17C5.35786 17 2 13.6421 2 9.5ZM9.5 3C5.91015 3 3 5.91015 3 9.5C3 13.0899 5.91015 16 9.5 16C13.0899 16 16 13.0899 16 9.5C16 5.91015 13.0899 3 9.5 3ZM7.5 8C7.5 6.89543 8.39543 6 9.5 6H10.1C11.1493 6 12 6.85066 12 7.9V8C12 9.10457 11.1046 10 10 10V11H9V9H10C10.5523 9 11 8.55228 11 8V7.9C11 7.40294 10.5971 7 10.1 7H9.5C8.94772 7 8.5 7.44772 8.5 8H7.5ZM10 12V13H9V12H10Z" fill="black"/>
</svg>
