<svg width="20" height="20" viewBox="0 0 20 20" fill="none" xmlns="http://www.w3.org/2000/svg">
<path fill-rule="evenodd" clip-rule="evenodd" d="M3 4.5C3 3.67157 3.67157 3 4.5 3H7.5C8.32843 3 9 3.67157 9 4.5V7.5C9 8.32843 8.32843 9 7.5 9H4V12C4 13.6569 5.34315 15 7 15V16C4.79086 16 3 14.2091 3 12V4.5ZM4 8H7.5C7.77614 8 8 7.77614 8 7.5V4.5C8 4.22386 7.77614 4 7.5 4H4.5C4.22386 4 4 4.22386 4 4.5V8ZM10 4.5C10 3.67157 10.6716 3 11.5 3H14.5C15.3284 3 16 3.67157 16 4.5V7.5C16 8.32843 15.3284 9 14.5 9H11V12C11 13.6569 12.3431 15 14 15V16C11.7909 16 10 14.2091 10 12V4.5ZM11 8H14.5C14.7761 8 15 7.77614 15 7.5V4.5C15 4.22386 14.7761 4 14.5 4H11.5C11.2239 4 11 4.22386 11 4.5V8Z" fill="black"/>
</svg>
