<svg width="15" height="15" viewBox="0 0 15 15" fill="none" xmlns="http://www.w3.org/2000/svg">
<path fill-rule="evenodd" clip-rule="evenodd" d="M5.31537 1.8364C4.91591 1.7205 4.6196 1.75158 4.40406 1.86834C4.18851 1.98509 4.00061 2.2163 3.87946 2.6142C3.75743 3.01499 3.71578 3.55005 3.77508 4.19612C3.78469 4.3008 3.79689 4.40775 3.81168 4.51679C4.33487 4.38383 4.89711 4.27881 5.48788 4.20551C5.89742 3.63171 6.327 3.11427 6.76281 2.66557C6.74097 2.64786 6.71917 2.6304 6.69739 2.61316C6.18865 2.21055 5.71773 1.95314 5.31537 1.8364ZM7.49994 1.97732C7.43924 1.92642 7.37857 1.87698 7.31796 1.82901C6.746 1.37637 6.16025 1.04029 5.59401 0.876006C5.02487 0.710879 4.44065 0.711232 3.92776 0.98905C3.41488 1.26687 3.09543 1.75602 2.92282 2.32293C2.75109 2.88696 2.71259 3.56118 2.77927 4.28753C2.7949 4.45778 2.81643 4.63227 2.84379 4.81047C2.67409 4.87128 2.51042 4.93545 2.35329 5.00279C1.68286 5.29012 1.10837 5.64509 0.694221 6.06473C0.277951 6.48652 0 7.00039 0 7.58368C0 8.16698 0.27795 8.68085 0.694221 9.10264C1.10837 9.52227 1.68286 9.87725 2.35329 10.1646C2.51042 10.2319 2.67408 10.2961 2.84378 10.3569C2.81642 10.5351 2.79488 10.7096 2.77925 10.8799C2.71257 11.6062 2.75107 12.2805 2.9228 12.8445C3.09541 13.4114 3.41486 13.9005 3.92774 14.1784C4.44063 14.4562 5.02485 14.4565 5.59399 14.2914C6.16023 14.1271 6.74598 13.791 7.31794 13.3384C7.37856 13.2904 7.43923 13.241 7.49994 13.1901C7.56065 13.241 7.62132 13.2904 7.68193 13.3384C8.2539 13.791 8.83965 14.1271 9.40589 14.2914C9.97503 14.4565 10.5592 14.4562 11.0721 14.1784C11.585 13.9005 11.9045 13.4114 12.0771 12.8445C12.2488 12.2805 12.2873 11.6062 12.2206 10.8799C12.205 10.7096 12.1835 10.5351 12.1561 10.3569C12.3258 10.2961 12.4895 10.2319 12.6467 10.1646C13.3171 9.87725 13.8916 9.52227 14.3058 9.10264C14.722 8.68085 15 8.16698 15 7.58368C15 7.00039 14.722 6.48652 14.3058 6.06473C13.8916 5.64509 13.3171 5.29012 12.6467 5.00279C12.4895 4.93543 12.3258 4.87125 12.1561 4.81043C12.1834 4.63224 12.205 4.45777 12.2206 4.28753C12.2873 3.56118 12.2488 2.88696 12.0771 2.32293C11.9045 1.75602 11.585 1.26687 11.0721 0.98905C10.5592 0.711232 9.97501 0.710879 9.40587 0.876006C8.83963 1.04029 8.25388 1.37637 7.68191 1.82901C7.62131 1.87698 7.56064 1.92642 7.49994 1.97732ZM7.49994 3.34198C7.27514 3.57215 7.05016 3.82443 6.82771 4.09694C7.04936 4.08816 7.27361 4.08368 7.5 4.08368C7.72635 4.08368 7.95056 4.08816 8.17216 4.09694C7.94972 3.82442 7.72474 3.57215 7.49994 3.34198ZM9.51199 4.20549C9.10245 3.6317 8.67287 3.11426 8.23707 2.66557C8.25891 2.64786 8.28071 2.6304 8.30249 2.61316C8.81123 2.21055 9.28215 1.95314 9.68451 1.8364C10.084 1.7205 10.3803 1.75158 10.5958 1.86834C10.8114 1.98509 10.9993 2.2163 11.1204 2.6142C11.2424 3.01499 11.2841 3.55005 11.2248 4.19612C11.2152 4.3008 11.203 4.40773 11.1882 4.51676C10.665 4.38381 10.1028 4.27879 9.51199 4.20549ZM8.94935 5.15016C8.484 5.10675 7.9991 5.08368 7.5 5.08368C7.00085 5.08368 6.51591 5.10675 6.05052 5.15017C5.79069 5.53869 5.53944 5.9541 5.30171 6.39298C5.08522 6.79264 4.89116 7.19105 4.71966 7.58368C4.89117 7.97633 5.08524 8.37476 5.30173 8.77444C5.53945 9.2133 5.7907 9.62869 6.05051 10.0172C6.5159 10.0606 7.00085 10.0837 7.5 10.0837C7.99911 10.0837 8.48401 10.0606 8.94936 10.0172C9.20918 9.6287 9.46042 9.2133 9.69815 8.77444C9.91464 8.37476 10.1087 7.97633 10.2802 7.58369C10.1087 7.19105 9.91465 6.79264 9.69817 6.39298C9.46043 5.95409 9.20918 5.53868 8.94935 5.15016ZM10.7728 6.28819C10.7096 6.16434 10.6445 6.04046 10.5775 5.91669C10.4696 5.71763 10.3589 5.52258 10.2456 5.33187C10.5062 5.38149 10.7573 5.43785 10.9978 5.50032C10.9346 5.7562 10.8596 6.01939 10.7728 6.28819ZM10.7728 8.87918C10.7096 9.00305 10.6445 9.12694 10.5774 9.25073C10.4696 9.44977 10.3589 9.6448 10.2456 9.83549C10.5062 9.78588 10.7573 9.72951 10.9978 9.66704C10.9346 9.41116 10.8596 9.14798 10.7728 8.87918ZM11.9533 9.36601C11.8083 8.79231 11.6114 8.19335 11.3649 7.58368C11.6114 6.97401 11.8083 6.37505 11.9533 5.80136C12.0563 5.8403 12.1561 5.88051 12.2528 5.92193C12.8491 6.1775 13.2997 6.46897 13.594 6.76716C13.8862 7.06321 14 7.33855 14 7.58368C14 7.82881 13.8862 8.10416 13.594 8.4002C13.2997 8.69839 12.8491 8.98986 12.2528 9.24543C12.1561 9.28685 12.0563 9.32707 11.9533 9.36601ZM11.1882 10.6506C10.665 10.7836 10.1028 10.8886 9.51201 10.9619C9.10247 11.5357 8.67288 12.0531 8.23707 12.5018C8.25891 12.5195 8.28072 12.537 8.30251 12.5542C8.81125 12.9569 9.28217 13.2143 9.68453 13.331C10.084 13.4469 10.3803 13.4158 10.5958 13.2991C10.8114 13.1823 10.9993 12.9511 11.1204 12.5532C11.2425 12.1524 11.2841 11.6174 11.2248 10.9713C11.2152 10.8666 11.203 10.7596 11.1882 10.6506ZM7.49994 11.8254C7.72475 11.5952 7.94973 11.343 8.17218 11.0704C7.95057 11.0792 7.72635 11.0837 7.5 11.0837C7.27361 11.0837 7.04935 11.0792 6.82769 11.0704C7.05015 11.3429 7.27513 11.5952 7.49994 11.8254ZM4.75426 9.83547C4.64098 9.64478 4.53025 9.44976 4.42244 9.25073C4.35539 9.12694 4.29025 9.00305 4.22704 8.87918C4.14031 9.14797 4.06531 9.41114 4.00208 9.66701C4.24253 9.72948 4.49368 9.78585 4.75426 9.83547ZM3.81167 10.6506C4.33485 10.7835 4.8971 10.8885 5.48786 10.9619C5.8974 11.5357 6.327 12.0531 6.76282 12.5018C6.74097 12.5195 6.71915 12.537 6.69737 12.5542C6.18863 12.9569 5.71771 13.2143 5.31535 13.331C4.91589 13.4469 4.61958 13.4158 4.40404 13.2991C4.18849 13.1823 4.00059 12.9511 3.87944 12.5532C3.75741 12.1524 3.71576 11.6174 3.77506 10.9713C3.78468 10.8666 3.79688 10.7596 3.81167 10.6506ZM3.04656 9.36596C3.19156 8.79228 3.38844 8.19334 3.63494 7.58368C3.38844 6.97402 3.19157 6.37508 3.04656 5.8014C2.94366 5.84032 2.84383 5.88053 2.74721 5.92193C2.15089 6.1775 1.70026 6.46897 1.40597 6.76716C1.1138 7.06321 1 7.33855 1 7.58368C1 7.82881 1.1138 8.10416 1.40597 8.4002C1.70026 8.69839 2.15089 8.98986 2.74721 9.24543C2.84383 9.28684 2.94366 9.32704 3.04656 9.36596ZM4.00208 5.50035C4.06531 5.75622 4.14031 6.01939 4.22704 6.28819C4.29024 6.16434 4.35538 6.04046 4.42242 5.91669C4.53024 5.71764 4.64098 5.5226 4.75427 5.3319C4.49369 5.38152 4.24254 5.43788 4.00208 5.50035ZM6 7.58368C6 6.75525 6.67157 6.08368 7.5 6.08368C8.32843 6.08368 9 6.75525 9 7.58368C9 8.41211 8.32843 9.08368 7.5 9.08368C6.67157 9.08368 6 8.41211 6 7.58368ZM7.5 7.08368C7.22386 7.08368 7 7.30754 7 7.58368C7 7.85982 7.22386 8.08368 7.5 8.08368C7.77614 8.08368 8 7.85982 8 7.58368C8 7.30754 7.77614 7.08368 7.5 7.08368Z" fill="black"/>
</svg>
