<svg width="13" height="15" viewBox="0 0 13 15" fill="none" xmlns="http://www.w3.org/2000/svg">
<path fill-rule="evenodd" clip-rule="evenodd" d="M0 0.5C0 0.223858 0.223858 0 0.5 0H12.5C12.7761 0 13 0.223858 13 0.5V14.5C13 14.6733 12.9103 14.8342 12.7629 14.9253C12.6155 15.0164 12.4314 15.0247 12.2764 14.9472L10.5 14.059L8.72361 14.9472C8.58284 15.0176 8.41716 15.0176 8.27639 14.9472L6.5 14.059L4.72361 14.9472C4.58284 15.0176 4.41716 15.0176 4.27639 14.9472L2.5 14.059L0.723607 14.9472C0.568613 15.0247 0.384543 15.0164 0.237134 14.9253C0.0897262 14.8342 0 14.6733 0 14.5V0.5ZM1 1V13.691L2.27639 13.0528C2.41716 12.9824 2.58284 12.9824 2.72361 13.0528L4.5 13.941L6.27639 13.0528C6.41716 12.9824 6.58284 12.9824 6.72361 13.0528L8.5 13.941L10.2764 13.0528C10.4172 12.9824 10.5828 12.9824 10.7236 13.0528L12 13.691V1H1ZM5 5H3V4H5V5ZM10 5H7V4H10V5ZM5 8H3V7H5V8ZM10 8H7V7H10V8ZM10 11H7V10H10V11Z" fill="black"/>
</svg>
