<svg width="20" height="20" viewBox="0 0 20 20" fill="none" xmlns="http://www.w3.org/2000/svg">
<path fill-rule="evenodd" clip-rule="evenodd" d="M2 4.5C2 3.11929 3.11929 2 4.5 2H6.71922C7.40752 2 8.0075 2.46845 8.17444 3.1362L8.76048 5.48035C8.95058 6.24075 8.52319 7.01932 7.7796 7.26718L6.67097 7.63672C6.33156 7.74986 6.12951 8.09803 6.19967 8.44886C6.63885 10.6447 8.35528 12.3612 10.5511 12.8003C10.902 12.8705 11.2501 12.6684 11.3633 12.329L11.661 11.4357C11.9497 10.5697 12.9384 10.1602 13.7549 10.5684L16.1708 11.7764C16.679 12.0305 17 12.5499 17 13.118V14.5C17 15.8807 15.8807 17 14.5 17H12.5C6.70101 17 2 12.299 2 6.5V4.5ZM4.5 3C3.67157 3 3 3.67157 3 4.5V6.5C3 11.7467 7.25329 16 12.5 16H14.5C15.3284 16 16 15.3284 16 14.5V13.118C16 12.9286 15.893 12.7555 15.7236 12.6708L13.3077 11.4629C13.0355 11.3268 12.7059 11.4633 12.6097 11.752L12.312 12.6453C12.0393 13.4631 11.2004 13.95 10.355 13.7809C7.7633 13.2626 5.73744 11.2367 5.21909 8.64497C5.05002 7.79962 5.53689 6.96066 6.35474 6.68804L7.46338 6.31849C7.71124 6.23587 7.8537 5.97635 7.79033 5.72289L7.20429 3.37873C7.14865 3.15615 6.94866 3 6.71922 3H4.5Z" fill="black"/>
</svg>
