<svg width="20" height="20" viewBox="0 0 20 20" fill="none" xmlns="http://www.w3.org/2000/svg">
<path fill-rule="evenodd" clip-rule="evenodd" d="M9.19229 3.1059C9.31365 3.01115 9.4719 2.97759 9.62127 3.01493L13.1285 3.89173C13.3618 3.36638 13.8881 3 14.5 3C15.3284 3 16 3.67158 16 4.5C16 5.32843 15.3284 6 14.5 6C13.8116 6 13.2315 5.53628 13.0551 4.90416L10 4.14039L9.99999 7.01518C11.3116 7.09472 12.544 7.48199 13.5453 8.0589C13.9332 7.71787 14.4561 7.54383 14.9782 7.54383C16.095 7.54383 17 8.44883 17 9.56561C17 10.3135 16.5939 10.9603 15.9932 11.308C15.9977 11.3717 16 11.4357 16 11.5C16 12.7427 15.1476 13.8756 13.9787 14.6698C12.7939 15.4749 11.1957 16 9.49999 16C7.80427 16 6.20612 15.4749 5.02128 14.6698C3.8524 13.8756 3 12.7427 3 11.5C3 11.4357 3.00228 11.3717 3.00678 11.308C2.40607 10.9603 2 10.3134 2 9.56561C2 8.44883 2.90501 7.54383 4.02178 7.54383C4.5439 7.54383 5.06685 7.71786 5.4547 8.05889C6.45597 7.48199 7.68842 7.09472 8.99999 7.01518L9 3.5C9 3.34604 9.07094 3.20065 9.19229 3.1059ZM4.57346 8.66409C4.41796 8.58781 4.23127 8.54383 4.02178 8.54383C3.45729 8.54383 3 9.00112 3 9.56561C3 9.83668 3.10669 10.0829 3.28118 10.265C3.55485 9.66887 4.01115 9.12433 4.57346 8.66409ZM15.7188 10.265C15.8933 10.083 16 9.83669 16 9.56561C16 9.00112 15.5427 8.54383 14.9782 8.54383C14.7687 8.54383 14.582 8.58782 14.4265 8.6641C14.9888 9.12434 15.4452 9.66888 15.7188 10.265ZM14.5 4C14.2239 4 14 4.22386 14 4.5C14 4.77615 14.2239 5 14.5 5C14.7761 5 15 4.77615 15 4.5C15 4.22386 14.7761 4 14.5 4ZM5.58328 9.15732C4.55064 9.85896 4 10.7261 4 11.5C4 12.274 4.55064 13.141 5.58328 13.8427C6.59995 14.5335 8.00179 15 9.49999 15C10.9982 15 12.4 14.5335 13.4167 13.8427C14.4494 13.141 15 12.274 15 11.5C15 10.7261 14.4494 9.85896 13.4167 9.15732C12.4 8.46654 10.9982 8 9.49999 8C8.00179 8 6.59995 8.46654 5.58328 9.15732ZM8 11H7V10H8V11ZM12 11H11V10H12V11ZM7.19413 12.5392C7.88333 12.8296 8.51327 13 9.5 13C10.4867 13 11.1167 12.8296 11.8059 12.5392L12.1941 13.4608C11.3981 13.7962 10.6365 14 9.5 14C8.36354 14 7.60193 13.7962 6.80587 13.4608L7.19413 12.5392Z" fill="black"/>
</svg>
