<svg width="15" height="13" viewBox="0 0 15 13" fill="none" xmlns="http://www.w3.org/2000/svg">
<path fill-rule="evenodd" clip-rule="evenodd" d="M7.19229 0.105901C7.31365 0.0111481 7.4719 -0.0224093 7.62127 0.0149333L11.1285 0.891731C11.3618 0.366382 11.8881 4.51413e-06 12.5 4.51413e-06C13.3284 4.51413e-06 14 0.671577 14 1.5C14 2.32843 13.3284 3 12.5 3C11.8116 3 11.2315 2.53628 11.0551 1.90416L8 1.14039L7.99999 4.01518C9.31157 4.09472 10.544 4.48199 11.5453 5.0589C11.9332 4.71787 12.4561 4.54383 12.9782 4.54383C14.095 4.54383 15 5.44883 15 6.56561C15 7.31345 14.5939 7.96028 13.9932 8.30798C13.9977 8.37167 14 8.43569 14 8.5C14 9.74272 13.1476 10.8756 11.9787 11.6698C10.7939 12.4749 9.1957 13 7.49999 13C5.80427 13 4.20612 12.4749 3.02128 11.6698C1.8524 10.8756 1 9.74272 1 8.5C1 8.43569 1.00228 8.37167 1.00678 8.30797C0.406066 7.96027 0 7.31344 0 6.56561C0 5.44883 0.905006 4.54383 2.02178 4.54383C2.5439 4.54383 3.06685 4.71786 3.4547 5.05889C4.45597 4.48199 5.68842 4.09472 6.99999 4.01518L7 0.500005C7 0.346035 7.07094 0.200654 7.19229 0.105901ZM2.57346 5.66409C2.41796 5.58781 2.23127 5.54383 2.02178 5.54383C1.45729 5.54383 1 6.00112 1 6.56561C1 6.83668 1.10669 7.08295 1.28118 7.26499C1.55485 6.66887 2.01115 6.12433 2.57346 5.66409ZM13.7188 7.265C13.8933 7.08296 14 6.83669 14 6.56561C14 6.00112 13.5427 5.54383 12.9782 5.54383C12.7687 5.54383 12.582 5.58782 12.4265 5.6641C12.9888 6.12434 13.4452 6.66888 13.7188 7.265ZM12.5 1C12.2239 1 12 1.22386 12 1.5C12 1.77615 12.2239 2 12.5 2C12.7761 2 13 1.77615 13 1.5C13 1.22386 12.7761 1 12.5 1ZM3.58328 6.15732C2.55064 6.85896 2 7.72606 2 8.5C2 9.27395 2.55064 10.141 3.58328 10.8427C4.59995 11.5335 6.00179 12 7.49999 12C8.99818 12 10.4 11.5335 11.4167 10.8427C12.4494 10.141 13 9.27395 13 8.5C13 7.72606 12.4494 6.85896 11.4167 6.15732C10.4 5.46654 8.99818 5 7.49999 5C6.00179 5 4.59995 5.46654 3.58328 6.15732ZM6 8H5V7H6V8ZM10 8H9V7H10V8ZM5.19413 9.53923C5.88333 9.8296 6.51327 10 7.5 10C8.48673 10 9.11667 9.8296 9.80587 9.53923L10.1941 10.4608C9.39807 10.7962 8.63646 11 7.5 11C6.36354 11 5.60193 10.7962 4.80587 10.4608L5.19413 9.53923Z" fill="black"/>
</svg>
