<svg width="15" height="15" viewBox="0 0 15 15" fill="none" xmlns="http://www.w3.org/2000/svg">
<path fill-rule="evenodd" clip-rule="evenodd" d="M7.25193 0.0658784C7.40565 -0.0219595 7.59435 -0.0219595 7.74807 0.0658784L11.2481 2.06588C11.3028 2.09714 11.3511 2.13845 11.3904 2.18765L13.3904 4.68765C13.4318 4.73942 13.4626 4.7989 13.4808 4.86264L14.4808 8.36264C14.5151 8.48292 14.5032 8.61172 14.4472 8.72361L12.4472 12.7236C12.3954 12.8273 12.309 12.9098 12.2031 12.9569L7.70307 14.9569C7.57379 15.0144 7.42621 15.0144 7.29693 14.9569L2.79693 12.9569C2.69096 12.9098 2.60465 12.8273 2.55279 12.7236L0.552787 8.72361C0.496842 8.61172 0.484872 8.48292 0.519239 8.36264L1.51924 4.86264C1.53745 4.7989 1.56815 4.73942 1.60957 4.68765L3.60957 2.18765C3.64892 2.13845 3.69723 2.09714 3.75193 2.06588L7.25193 0.0658784ZM4.7177 2.66576L7.5 4.38814L10.2823 2.66576L7.5 1.07588L4.7177 2.66576ZM11.052 3.36539L12.33 4.96289L10.8382 6.45466L8.44993 4.97619L11.052 3.36539ZM6.55007 4.97619L3.948 3.36539L2.67 4.96289L4.16177 6.45466L6.55007 4.97619ZM4.88819 7.18108L7.5 5.56424L10.1118 7.18108L7.5 9.79289L4.88819 7.18108ZM3.28828 6.99539L2.24732 5.95442L1.66231 8.00195L3.28828 6.99539ZM1.84232 9.06661L4.0147 7.72181L6.65592 10.363L3.32361 12.0292L1.84232 9.06661ZM4.43595 12.591L7.5 13.9528L10.5641 12.591L7.5 11.059L4.43595 12.591ZM8.34408 10.363L11.6764 12.0292L13.1577 9.06661L10.9853 7.72181L8.34408 10.363ZM11.7117 6.99539L13.3377 8.00195L12.7527 5.95442L11.7117 6.99539Z" fill="black"/>
</svg>
