<svg width="20" height="20" viewBox="0 0 20 20" fill="none" xmlns="http://www.w3.org/2000/svg">
<path fill-rule="evenodd" clip-rule="evenodd" d="M2 4.49933C2 3.67023 2.67118 3 3.5 3H15.5C16.3288 3 17 3.67023 17 4.49933V13.4935C17 14.3226 16.3288 14.9928 15.5 14.9928H9.66658L5.79988 17.8909C5.64835 18.0045 5.44568 18.0227 5.27632 17.938C5.10697 17.8533 5 17.6802 5 17.4908V14.9928H3.5C2.67118 14.9928 2 14.3226 2 13.4935V4.49933ZM3.5 4C3.22282 4 3 4.22315 3 4.49933V13.4935C3 13.7696 3.22282 13.9928 3.5 13.9928H6V16.4912L9.33342 13.9928H15.5C15.7772 13.9928 16 13.7696 16 13.4935V4.49933C16 4.22315 15.7772 4 15.5 4H3.5ZM6 6.99738H13V7.99738H6V6.99738ZM6 9.99542H11V10.9954H6V9.99542Z" fill="black"/>
</svg>
