<svg width="15" height="11" viewBox="0 0 15 11" fill="none" xmlns="http://www.w3.org/2000/svg">
<path fill-rule="evenodd" clip-rule="evenodd" d="M7.72879 0.055418C7.89533 0.14112 8 0.312708 8 0.500002V4.52841L14.2094 0.0931351C14.3618 -0.0157272 14.5623 -0.0302842 14.7288 0.055418C14.8953 0.14112 15 0.312708 15 0.500002V10.5C15 10.6873 14.8953 10.8589 14.7288 10.9446C14.5623 11.0303 14.3618 11.0157 14.2094 10.9069L8 6.4716V10.5C8 10.6873 7.89533 10.8589 7.72879 10.9446C7.56226 11.0303 7.36179 11.0157 7.20938 10.9069L0.209381 5.90687C0.0779828 5.81301 0 5.66148 0 5.5C0 5.33853 0.0779828 5.18699 0.209381 5.09314L7.20938 0.0931351C7.36179 -0.0157272 7.56226 -0.0302842 7.72879 0.055418ZM7 1.4716L1.36023 5.5L7 9.52841V1.4716ZM8.36023 5.5L14 9.52841V1.4716L8.36023 5.5Z" fill="black"/>
</svg>
