<svg width="15" height="15" viewBox="0 0 15 15" fill="none" xmlns="http://www.w3.org/2000/svg">
<path fill-rule="evenodd" clip-rule="evenodd" d="M0 7.5C0 3.35786 3.35786 0 7.5 0C11.6421 0 15 3.35786 15 7.5C15 11.6421 11.6421 15 7.5 15C3.35786 15 0 11.6421 0 7.5ZM7.5 1C3.91015 1 1 3.91015 1 7.5C1 11.0899 3.91015 14 7.5 14C11.0899 14 14 11.0899 14 7.5C14 3.91015 11.0899 1 7.5 1ZM6.75096 5.06754C6.90512 5.15701 7 5.32176 7 5.5V6.92412L10.2519 5.06588C10.4067 4.97745 10.5968 4.97808 10.751 5.06754C10.9051 5.15701 11 5.32176 11 5.5V9.5C11 9.67824 10.9051 9.84299 10.751 9.93246C10.5968 10.0219 10.4067 10.0226 10.2519 9.93412L7 8.07588V9.5C7 9.67824 6.90512 9.84299 6.75096 9.93246C6.59681 10.0219 6.40668 10.0226 6.25193 9.93412L2.75193 7.93412C2.59614 7.8451 2.5 7.67943 2.5 7.5C2.5 7.32057 2.59614 7.1549 2.75193 7.06588L6.25193 5.06588C6.40668 4.97745 6.59681 4.97808 6.75096 5.06754ZM8.00778 7.5L10 8.63841V6.36159L8.00778 7.5ZM4.00778 7.5L6 8.63841V6.36159L4.00778 7.5Z" fill="black"/>
</svg>
