<svg width="20" height="20" viewBox="0 0 20 20" fill="none" xmlns="http://www.w3.org/2000/svg">
<path fill-rule="evenodd" clip-rule="evenodd" d="M10 4.02242V2H11V4.02242C13.8033 4.27504 16 6.63098 16 9.5V15.5C16 16.3284 15.3284 17 14.5 17H6.5C5.67157 17 5 16.3284 5 15.5V9.5C5 6.63098 7.19675 4.27504 10 4.02242ZM10.5 5C8.01472 5 6 7.01472 6 9.5V15.5C6 15.7761 6.22386 16 6.5 16H14.5C14.7761 16 15 15.7761 15 15.5V9.5C15 7.01472 12.9853 5 10.5 5ZM7 10.5C7 9.67157 7.67157 9 8.5 9C9.32843 9 10 9.67157 10 10.5C10 11.3284 9.32843 12 8.5 12C7.67157 12 7 11.3284 7 10.5ZM8.5 10C8.22386 10 8 10.2239 8 10.5C8 10.7761 8.22386 11 8.5 11C8.77614 11 9 10.7761 9 10.5C9 10.2239 8.77614 10 8.5 10ZM11 10.5C11 9.67157 11.6716 9 12.5 9C13.3284 9 14 9.67157 14 10.5C14 11.3284 13.3284 12 12.5 12C11.6716 12 11 11.3284 11 10.5ZM12.5 10C12.2239 10 12 10.2239 12 10.5C12 10.7761 12.2239 11 12.5 11C12.7761 11 13 10.7761 13 10.5C13 10.2239 12.7761 10 12.5 10ZM3 14V10H4V14H3ZM18 14H17V10H18V14ZM14 13V14H7V13H14Z" fill="black"/>
</svg>
