<svg width="13" height="15" viewBox="0 0 13 15" fill="none" xmlns="http://www.w3.org/2000/svg">
<path fill-rule="evenodd" clip-rule="evenodd" d="M0 0.5C0 0.223858 0.223858 0 0.5 0H8C10.7614 0 13 2.23858 13 5C13 6.78593 12.0636 8.35239 10.6567 9.23646L12.9552 14.2931C13.0255 14.4479 13.0124 14.6278 12.9204 14.7707C12.8284 14.9136 12.67 15 12.5 15H2.5C1.11929 15 0 13.8807 0 12.5V0.5ZM1 1V12.382L5.91261 2.55674C6.24264 1.89669 6.74355 1.36571 7.34117 1H1ZM7.21024 2.40323C7.0534 2.58235 6.91731 2.78342 6.80704 3.00396L1.49999 13.618C1.76537 13.8556 2.11582 14 2.5 14H3.2169L3.33667 13.8004C4.97353 11.0723 6.82473 8.4794 8.87249 6.04614C8.34951 5.82951 7.93799 5.39511 7.75507 4.84636L7.29787 3.47476C7.18138 3.12529 7.15356 2.75776 7.21024 2.40323ZM9.61534 5.18032C9.55876 5.19011 9.49875 5.18985 9.43711 5.17752C9.0942 5.10894 8.81434 4.86188 8.70376 4.53013L8.24656 3.15853C8.12359 2.78964 8.17783 2.38464 8.39352 2.06111C8.62722 1.71056 9.02065 1.5 9.44196 1.5C9.50833 1.5 9.63995 1.47929 9.75809 1.40607C11.0858 2.05681 12 3.42165 12 5C12 6.56559 11.1006 7.92203 9.7881 8.57919C9.54771 8.69955 9.44552 8.98844 9.55676 9.23318L11.7235 14H4.38443C6.09762 11.1847 8.04402 8.51799 10.2032 6.02801C10.8192 5.71276 11.1861 4.97717 10.9387 4.23496L10.4743 2.84189L9.52566 3.15811L9.99002 4.55119C10.0855 4.83775 9.89987 5.12129 9.6312 5.1773L9.62371 5.17075C9.62092 5.17394 9.61813 5.17713 9.61534 5.18032Z" fill="black"/>
</svg>
