<svg width="15" height="15" viewBox="0 0 15 15" fill="none" xmlns="http://www.w3.org/2000/svg">
<path fill-rule="evenodd" clip-rule="evenodd" d="M7.50001 1C5.03984 1 2.65797 2.16988 0.885708 4.31818L0.114319 3.68182C2.05509 1.32925 4.70917 0 7.50001 0C10.2909 0 12.9449 1.32925 14.8857 3.68182L14.1143 4.31818C12.3421 2.16988 9.96019 1 7.50001 1ZM7.50005 4C5.91678 4 4.37372 4.76169 3.21908 6.16133L2.44769 5.52496C3.76841 3.92402 5.58265 3 7.50005 3C9.41746 3 11.2317 3.92402 12.5524 5.52496L11.781 6.16133C10.6264 4.76169 9.08333 4 7.50005 4ZM7.00001 9V6H8.00001V9H14V15H1.00001V9H7.00001ZM2.00001 10V14H13V10H2.00001Z" fill="black"/>
</svg>
