<svg width="15" height="15" viewBox="0 0 15 15" fill="none" xmlns="http://www.w3.org/2000/svg">
<path fill-rule="evenodd" clip-rule="evenodd" d="M14 15C14 7.26801 7.73199 1 0 1V0C8.28427 0 15 6.71573 15 15H14ZM0 6C4.97056 6 9 10.0294 9 15H8C8 10.5817 4.41828 7 0 7V6ZM0 13.5C0 12.6716 0.671573 12 1.5 12C2.32843 12 3 12.6716 3 13.5C3 14.3284 2.32843 15 1.5 15C0.671573 15 0 14.3284 0 13.5ZM1.5 13C1.22386 13 1 13.2239 1 13.5C1 13.7761 1.22386 14 1.5 14C1.77614 14 2 13.7761 2 13.5C2 13.2239 1.77614 13 1.5 13Z" fill="black"/>
</svg>
