<svg width="20" height="20" viewBox="0 0 20 20" fill="none" xmlns="http://www.w3.org/2000/svg">
<path fill-rule="evenodd" clip-rule="evenodd" d="M15.1333 16C15.1333 9.29894 9.70106 3.86667 3 3.86667V3C10.1797 3 16 8.8203 16 16H15.1333ZM3 8.2C7.30782 8.2 10.8 11.6922 10.8 16H9.93333C9.93333 12.1708 6.82917 9.06667 3 9.06667V8.2ZM3 14.7C3 13.982 3.58203 13.4 4.3 13.4C5.01797 13.4 5.6 13.982 5.6 14.7C5.6 15.418 5.01797 16 4.3 16C3.58203 16 3 15.418 3 14.7ZM4.3 14.2667C4.06068 14.2667 3.86667 14.4607 3.86667 14.7C3.86667 14.9393 4.06068 15.1333 4.3 15.1333C4.53932 15.1333 4.73333 14.9393 4.73333 14.7C4.73333 14.4607 4.53932 14.2667 4.3 14.2667Z" fill="black"/>
</svg>
