<svg width="11" height="15" viewBox="0 0 11 15" fill="none" xmlns="http://www.w3.org/2000/svg">
<path fill-rule="evenodd" clip-rule="evenodd" d="M3.49999 1H-6.64797e-06V0H11V1H6.32866C7.22627 1.72635 7.83888 2.791 7.97253 4H11V5H7.97253C7.72381 7.24998 5.81627 9 3.49999 9H1.85162L7.82539 14.1204L7.1746 14.8796L0.174598 8.87963C0.0157323 8.74346 -0.0415435 8.52277 0.0310508 8.32653C0.103645 8.13029 0.290755 8 0.499993 8H3.49999C5.26323 8 6.72193 6.69615 6.96455 5H-6.64797e-06V4H6.96455C6.72193 2.30385 5.26323 1 3.49999 1Z" fill="black"/>
</svg>
