<svg width="15" height="15" viewBox="0 0 15 15" fill="none" xmlns="http://www.w3.org/2000/svg">
<path fill-rule="evenodd" clip-rule="evenodd" d="M7.18151 0.114518C7.36634 -0.0381728 7.63355 -0.0381728 7.81839 0.114518L8.96874 1.0648L10.4175 0.707745C10.6503 0.650373 10.891 0.766309 10.9913 0.984076L11.6154 2.33937L13.0756 2.64626C13.3102 2.69557 13.4768 2.90448 13.4727 3.14419L13.447 4.63607L14.6294 5.54612C14.8194 5.69235 14.8789 5.95285 14.7711 6.16703L14.1006 7.5L14.7711 8.83297C14.8789 9.04715 14.8194 9.30765 14.6294 9.45388L13.447 10.3639L13.4727 11.8558C13.4768 12.0955 13.3102 12.3044 13.0756 12.3537L11.6154 12.6606L10.9913 14.0159C10.891 14.2337 10.6503 14.3496 10.4175 14.2923L8.96874 13.9352L7.81839 14.8855C7.63355 15.0382 7.36634 15.0382 7.18151 14.8855L6.03116 13.9352L4.58241 14.2923C4.34963 14.3496 4.10889 14.2337 4.0086 14.0159L3.38448 12.6606L1.92429 12.3537C1.68967 12.3044 1.52307 12.0955 1.5272 11.8558L1.55293 10.3639L0.370494 9.45388C0.180501 9.30765 0.121043 9.04715 0.228775 8.83297L0.899258 7.5L0.228775 6.16703C0.121043 5.95285 0.180501 5.69235 0.370494 5.54612L1.55293 4.63607L1.5272 3.14419C1.52307 2.90448 1.68967 2.69557 1.92429 2.64626L3.38448 2.33937L4.0086 0.984076C4.10889 0.766309 4.34963 0.650373 4.58241 0.707745L6.03116 1.0648L7.18151 0.114518ZM2.54211 11L2.53418 11.4601L3.83628 11.7337C3.99112 11.7663 4.12142 11.8702 4.1876 12.0139L4.74415 13.2225L6.03605 12.9041C6.18967 12.8662 6.35215 12.9033 6.47414 13.0041L7.49995 13.8515L8.52576 13.0041C8.64774 12.9033 8.81022 12.8662 8.96385 12.9041L10.2557 13.2225L10.8123 12.0139C10.8785 11.8702 11.0088 11.7663 11.1636 11.7337L12.4657 11.4601L12.4578 11H11.4999C10.6715 11 9.99995 10.3284 9.99995 9.5C9.99995 8.67157 9.32837 8 8.49995 8H4.99995V10H6.99995V11H2.54211ZM3.99995 10V5H2.54231C2.5153 5.1082 2.45251 5.2056 2.36215 5.27514L1.30773 6.08667L1.90562 7.27532C1.97672 7.41667 1.97672 7.58333 1.90562 7.72468L1.30773 8.91333L2.36215 9.72486C2.45251 9.7944 2.5153 9.8918 2.54231 10H3.99995ZM2.54211 4H8.99995C10.1045 4 10.9999 4.89543 10.9999 6C10.9999 6.67245 10.6681 7.26739 10.1592 7.62996C10.675 8.08792 10.9999 8.75601 10.9999 9.5C10.9999 9.77614 11.2238 10 11.4999 10H12.4576C12.4846 9.8918 12.5474 9.7944 12.6377 9.72486L13.6922 8.91333L13.0943 7.72468C13.0232 7.58333 13.0232 7.41667 13.0943 7.27532L13.6922 6.08667L12.6377 5.27514C12.5124 5.17864 12.44 5.02848 12.4428 4.87029L12.4657 3.53993L11.1636 3.26627C11.0088 3.23372 10.8785 3.12981 10.8123 2.9861L10.2557 1.77753L8.96385 2.09593C8.81022 2.1338 8.64774 2.09671 8.52576 1.99594L7.49995 1.14854L6.47414 1.99594C6.35215 2.09671 6.18967 2.1338 6.03605 2.09593L4.74415 1.77753L4.1876 2.9861C4.12142 3.12981 3.99112 3.23372 3.83628 3.26627L2.53418 3.53993L2.54211 4ZM8.99995 7C9.55223 7 9.99995 6.55228 9.99995 6C9.99995 5.44772 9.55223 5 8.99995 5H4.99995V7H8.99995Z" fill="black"/>
</svg>
