<svg width="15" height="15" viewBox="0 0 15 15" fill="none" xmlns="http://www.w3.org/2000/svg">
<path fill-rule="evenodd" clip-rule="evenodd" d="M0 1.5C0 0.671573 0.671573 0 1.5 0H13.5C14.3284 0 15 0.671573 15 1.5V12.5C15 13.3284 14.3284 14 13.5 14H13V15H12V14H3V15H2V14H1.5C0.671573 14 0 13.3284 0 12.5V1.5ZM1.5 1C1.22386 1 1 1.22386 1 1.5V12.5C1 12.7761 1.22386 13 1.5 13H13.5C13.7761 13 14 12.7761 14 12.5V1.5C14 1.22386 13.7761 1 13.5 1H1.5ZM2 6V3H3V6H2ZM7 7.5C7 6.11929 8.11929 5 9.5 5C10.8807 5 12 6.11929 12 7.5C12 8.88071 10.8807 10 9.5 10C8.11929 10 7 8.88071 7 7.5ZM9.5 6C8.67157 6 8 6.67157 8 7.5C8 8.32843 8.67157 9 9.5 9C10.3284 9 11 8.32843 11 7.5C11 6.67157 10.3284 6 9.5 6ZM2 11V8H3V11H2Z" fill="black"/>
</svg>
