<svg width="15" height="15" viewBox="0 0 15 15" fill="none" xmlns="http://www.w3.org/2000/svg">
<path fill-rule="evenodd" clip-rule="evenodd" d="M1.5 1C1.22386 1 1 1.22386 1 1.5V13.5C1 13.7761 1.22386 14 1.5 14H4V11.5C4 10.6716 4.67157 10 5.5 10H9.5C10.3284 10 11 10.6716 11 11.5V14H13.5C13.7761 14 14 13.7761 14 13.5V4.91421C14 4.7816 13.9473 4.65443 13.8536 4.56066L10.4393 1.14645C10.3456 1.05268 10.2184 1 10.0858 1H1.5ZM10 14V11.5C10 11.2239 9.77614 11 9.5 11H5.5C5.22386 11 5 11.2239 5 11.5V14H10ZM0 1.5C0 0.671574 0.671573 0 1.5 0H10.0858C10.4836 0 10.8651 0.158035 11.1464 0.43934L14.5607 3.85355C14.842 4.13486 15 4.51639 15 4.91421V13.5C15 14.3284 14.3284 15 13.5 15H1.5C0.671573 15 0 14.3284 0 13.5V1.5Z" fill="black"/>
</svg>
