<svg width="15" height="15" viewBox="0 0 15 15" fill="none" xmlns="http://www.w3.org/2000/svg">
<path fill-rule="evenodd" clip-rule="evenodd" d="M1.5 1C1.22386 1 1 1.22386 1 1.5L1 9.5C1 9.77614 1.22386 10 1.5 10L13.5 10C13.7761 10 14 9.77614 14 9.5V1.5C14 1.22386 13.7761 1 13.5 1L1.5 1ZM3.57628e-07 1.5C3.8743e-07 0.671573 0.671573 -5.96046e-08 1.5 0L13.5 5.36442e-07C14.3284 5.66244e-07 15 0.671574 15 1.5V9.5C15 10.3284 14.3284 11 13.5 11H10V14H13V15H2V14H5V11H1.5C0.671574 11 -5.96046e-08 10.3284 0 9.5L3.57628e-07 1.5ZM6 11V14H9V11L6 11Z" fill="black"/>
</svg>
