<svg width="13" height="13" viewBox="0 0 13 13" fill="none" xmlns="http://www.w3.org/2000/svg">
<path fill-rule="evenodd" clip-rule="evenodd" d="M4.06007 1.33422C2.98333 1.79734 1.63436 2.84926 0.947222 4.22353L0.0527954 3.77631C0.865659 2.15059 2.41669 0.952489 3.66495 0.415591C3.9813 0.279522 4.29108 0.180157 4.57666 0.128866C4.85464 0.0789397 5.14805 0.0675266 5.41021 0.145779C5.69333 0.23029 5.95239 0.427951 6.05475 0.764588C6.1463 1.06569 6.08316 1.3883 5.96425 1.68558C5.68148 2.39251 5.06817 3.19927 4.4269 3.98734C4.231 4.22808 4.03083 4.46899 3.83096 4.70953C3.35346 5.28421 2.87769 5.8568 2.4662 6.41989C1.8734 7.2311 1.49382 7.92105 1.42566 8.45395C1.39408 8.70079 1.43302 8.88809 1.52901 9.04235C1.62843 9.20212 1.82248 9.37982 2.19697 9.54032C3.30103 10.0135 4.74013 9.96547 6.17774 9.56837C6.22757 9.04117 6.34665 8.46668 6.51925 7.86258C7.05503 5.98734 8.27642 4.72166 9.44944 4.28177C10.0322 4.06323 10.672 4.02788 11.1919 4.33507C11.7336 4.65519 12 5.25861 12 5.99989C12 6.48001 11.8036 6.94666 11.517 7.36698C11.2279 7.79096 10.8246 8.20137 10.3528 8.57998C9.49312 9.26995 8.36373 9.88815 7.15766 10.3092C7.17736 10.6364 7.24372 10.8913 7.34367 11.0806C7.46694 11.3141 7.65367 11.4742 7.94722 11.5563C8.25986 11.6437 8.71756 11.6479 9.36483 11.4936C10.008 11.3402 10.8052 11.0383 11.7764 10.5527L12.2236 11.4472C11.2109 11.9535 10.339 12.2893 9.59677 12.4663C8.85862 12.6423 8.21455 12.6695 7.67784 12.5193C7.12204 12.3639 6.71183 12.0258 6.45933 11.5475C6.30991 11.2644 6.22167 10.9442 6.18031 10.6015C4.69653 10.9708 3.116 11.0222 1.80305 10.4595C1.30254 10.245 0.918458 9.95391 0.679988 9.57071C0.438093 9.182 0.379371 8.75211 0.433737 8.32708C0.53745 7.51622 1.06412 6.64367 1.65881 5.82988C2.08969 5.24026 2.59793 4.62854 3.08372 4.04384C3.27866 3.80921 3.46998 3.57893 3.65125 3.35618C4.30685 2.5505 4.81854 1.85726 5.03577 1.31419C5.07865 1.207 5.09255 1.13747 5.09668 1.09752C5.03541 1.08617 4.92425 1.08244 4.75344 1.11312C4.5605 1.14777 4.32496 1.22028 4.06007 1.33422ZM7.2324 9.21467C8.18421 8.83876 9.05702 8.33772 9.72694 7.80008C10.1457 7.46401 10.4725 7.1238 10.6908 6.80362C10.9116 6.47978 11 6.2087 11 5.99989C11 5.49119 10.8289 5.28213 10.6832 5.19601C10.5155 5.09697 10.2178 5.06163 9.80057 5.2181C8.9736 5.52822 7.94499 6.51254 7.48077 8.1373C7.37067 8.52265 7.28757 8.88286 7.2324 9.21467Z" fill="black"/>
</svg>
