<svg width="15" height="15" viewBox="0 0 15 15" fill="none" xmlns="http://www.w3.org/2000/svg">
<path fill-rule="evenodd" clip-rule="evenodd" d="M0 6.5C0 2.91015 2.91015 0 6.5 0C10.0899 0 13 2.91015 13 6.5C13 8.11495 12.411 9.59234 11.4362 10.7291L14.8536 14.1464L14.1464 14.8536L10.7291 11.4362C9.59234 12.411 8.11495 13 6.5 13C2.91015 13 0 10.0899 0 6.5ZM6.5 1C3.46243 1 1 3.46243 1 6.5C1 9.53757 3.46243 12 6.5 12C9.53757 12 12 9.53757 12 6.5C12 3.46243 9.53757 1 6.5 1ZM4.14645 5.64645L6.14645 3.64645C6.34171 3.45118 6.65829 3.45118 6.85355 3.64645L8.85355 5.64645C8.94732 5.74021 9 5.86739 9 6V8.5C9 8.77614 8.77614 9 8.5 9H4.5C4.22386 9 4 8.77614 4 8.5V6C4 5.86739 4.05268 5.74021 4.14645 5.64645ZM5 6.20711V8H8V6.20711L6.5 4.70711L5 6.20711Z" fill="black"/>
</svg>
