<svg width="20" height="20" viewBox="0 0 20 20" fill="none" xmlns="http://www.w3.org/2000/svg">
<path fill-rule="evenodd" clip-rule="evenodd" d="M2 8.56409C2 4.93884 4.93884 2 8.56409 2C12.1893 2 15.1282 4.93884 15.1282 8.56409C15.1282 10.195 14.5334 11.6869 13.549 12.8349L17 16.2859L16.2859 17L12.8349 13.549C11.6869 14.5334 10.195 15.1282 8.56409 15.1282C4.93884 15.1282 2 12.1893 2 8.56409ZM8.56409 3.00986C5.49657 3.00986 3.00986 5.49657 3.00986 8.56409C3.00986 11.6316 5.49657 14.1183 8.56409 14.1183C11.6316 14.1183 14.1183 11.6316 14.1183 8.56409C14.1183 5.49657 11.6316 3.00986 8.56409 3.00986Z" fill="black"/>
</svg>
