<svg width="15" height="15" viewBox="0 0 15 15" fill="none" xmlns="http://www.w3.org/2000/svg">
<path fill-rule="evenodd" clip-rule="evenodd" d="M0 7.5C0 3.35786 3.35786 0 7.5 0C11.6421 0 15 3.35786 15 7.5C15 11.6421 11.6421 15 7.5 15C3.35786 15 0 11.6421 0 7.5ZM7.5 1C3.91015 1 1 3.91015 1 7.5C1 11.0899 3.91015 14 7.5 14C11.0899 14 14 11.0899 14 7.5C14 3.91015 11.0899 1 7.5 1ZM4 7C4 5.34315 5.34315 4 7 4C8.65685 4 10 5.34315 10 7C10 7.64792 9.79461 8.24786 9.44537 8.73827L10.8536 10.1464L10.1464 10.8536L8.73827 9.44537C8.24786 9.79461 7.64792 10 7 10C5.34315 10 4 8.65685 4 7ZM7 5C5.89543 5 5 5.89543 5 7C5 8.10457 5.89543 9 7 9C8.10457 9 9 8.10457 9 7C9 5.89543 8.10457 5 7 5Z" fill="black"/>
</svg>
