<svg width="15" height="15" viewBox="0 0 15 15" fill="none" xmlns="http://www.w3.org/2000/svg">
<path fill-rule="evenodd" clip-rule="evenodd" d="M14.8536 0.146461C14.9981 0.291031 15.0401 0.509053 14.9596 0.696974L8.95958 14.697C8.88561 14.8696 8.72119 14.9862 8.53386 14.9989C8.34653 15.0116 8.16786 14.9183 8.07126 14.7573L5.13557 9.86445L0.242756 6.92876C0.0817496 6.83216 -0.0115621 6.65349 0.00115182 6.46616C0.0138657 6.27883 0.130462 6.11441 0.303045 6.04044L14.303 0.0404421C14.491 -0.0400956 14.709 0.00189163 14.8536 0.146461ZM6.1296 9.57752L8.42564 13.4042L13.0177 2.68942L6.1296 9.57752ZM12.3106 1.98232L1.59578 6.57438L5.4225 8.87041L12.3106 1.98232Z" fill="black"/>
</svg>
