<svg width="20" height="20" viewBox="0 0 20 20" fill="none" xmlns="http://www.w3.org/2000/svg">
<path fill-rule="evenodd" clip-rule="evenodd" d="M10.3857 3C7.92552 3 5.54365 4.16988 3.77139 6.31818L3 5.68182C4.94077 3.32925 7.59485 2 10.3857 2C13.1765 2 15.8306 3.32925 17.7714 5.68182L17 6.31818C15.2277 4.16988 12.8459 3 10.3857 3ZM10.3857 6C8.80246 6 7.2594 6.76169 6.10476 8.16133L5.33337 7.52496C6.65409 5.92402 8.46833 5 10.3857 5C12.3031 5 14.1174 5.92402 15.4381 7.52496L14.6667 8.16133C13.5121 6.76169 11.969 6 10.3857 6ZM9.88569 11V8H10.8857V11H16.8857V17H3.88569V11H9.88569ZM4.88569 12V16H15.8857V12H4.88569Z" fill="black"/>
</svg>
