<svg width="15" height="13" viewBox="0 0 15 13" fill="none" xmlns="http://www.w3.org/2000/svg">
<path fill-rule="evenodd" clip-rule="evenodd" d="M0 1.5C0 0.671573 0.671573 0 1.5 0H13.5C14.3284 0 15 0.671573 15 1.5V3.5C15 3.88418 14.8556 4.23462 14.6181 4.5C14.8556 4.76538 15 5.11582 15 5.5V7.5C15 7.88418 14.8556 8.23462 14.6181 8.5C14.8556 8.76538 15 9.11582 15 9.5V11.5C15 12.3284 14.3284 13 13.5 13H1.5C0.671574 13 0 12.3284 0 11.5V9.5C0 9.11582 0.144427 8.76538 0.381947 8.5C0.144427 8.23462 0 7.88418 0 7.5V5.5C0 5.11582 0.144427 4.76538 0.381947 4.5C0.144427 4.23462 0 3.88418 0 3.5V1.5ZM1.5 5C1.22386 5 1 5.22386 1 5.5V7.5C1 7.77614 1.22386 8 1.5 8H13.5C13.7761 8 14 7.77614 14 7.5V5.5C14 5.22386 13.7761 5 13.5 5H1.5ZM13.5 4C13.7761 4 14 3.77614 14 3.5V1.5C14 1.22386 13.7761 1 13.5 1H1.5C1.22386 1 1 1.22386 1 1.5V3.5C1 3.77614 1.22386 4 1.5 4H13.5ZM13.5 9H1.5C1.22386 9 1 9.22386 1 9.5V11.5C1 11.7761 1.22386 12 1.5 12H13.5C13.7761 12 14 11.7761 14 11.5V9.5C14 9.22386 13.7761 9 13.5 9ZM5 3H2V2H5V3ZM5 7H2V6H5V7ZM5 11H2V10H5V11Z" fill="black"/>
</svg>
