<svg width="20" height="20" viewBox="0 0 20 20" fill="none" xmlns="http://www.w3.org/2000/svg">
<path fill-rule="evenodd" clip-rule="evenodd" d="M6.5 4C5.67157 4 5 4.67157 5 5.5C5 6.32843 5.67157 7 6.5 7C7.32843 7 8 6.32843 8 5.5C8 4.67157 7.32843 4 6.5 4ZM4.05001 5C4.28164 3.85888 5.29052 3 6.5 3C7.70948 3 8.71836 3.85888 8.94999 5L17 5V6L8.94999 6C8.71836 7.14112 7.70948 8 6.5 8C5.29052 8 4.28164 7.14112 4.05001 6H2V5L4.05001 5ZM12.5 12C11.6716 12 11 12.6716 11 13.5C11 14.3284 11.6716 15 12.5 15C13.3284 15 14 14.3284 14 13.5C14 12.6716 13.3284 12 12.5 12ZM10.05 13C10.2816 11.8589 11.2905 11 12.5 11C13.7095 11 14.7184 11.8589 14.95 13L17 13L17 14L14.95 14C14.7184 15.1411 13.7095 16 12.5 16C11.2905 16 10.2816 15.1411 10.05 14H2V13H10.05Z" fill="black"/>
</svg>
