<svg width="15" height="15" viewBox="0 0 15 15" fill="none" xmlns="http://www.w3.org/2000/svg">
<path fill-rule="evenodd" clip-rule="evenodd" d="M7.25193 0.0658784C7.40565 -0.0219595 7.59435 -0.0219595 7.74807 0.0658784L14.7481 4.06588C14.9039 4.1549 15 4.32057 15 4.5V5.21989C15 9.75232 11.9954 13.7356 7.63736 14.9808C7.54758 15.0064 7.45242 15.0064 7.36264 14.9808C3.0046 13.7356 0 9.75232 0 5.21989V4.5C0 4.32057 0.096143 4.1549 0.251931 4.06588L7.25193 0.0658784ZM1 4.79016V5.21989C1 9.25805 3.64563 12.8127 7.5 13.9788C11.3544 12.8127 14 9.25805 14 5.21989V4.79016L7.5 1.07588L1 4.79016ZM6.79289 7.5L4.14645 4.85355L4.85355 4.14645L7.5 6.79289L10.1464 4.14645L10.8536 4.85355L8.20711 7.5L10.8536 10.1464L10.1464 10.8536L7.5 8.20711L4.85355 10.8536L4.14645 10.1464L6.79289 7.5Z" fill="black"/>
</svg>
