<svg width="15" height="15" viewBox="0 0 15 15" fill="none" xmlns="http://www.w3.org/2000/svg">
<path fill-rule="evenodd" clip-rule="evenodd" d="M14 1H1V0H14V1ZM1.00971 2.40194C1.05646 2.16823 1.26166 2 1.5 2H13.5C13.7383 2 13.9436 2.16823 13.9903 2.40194L14.9903 7.40194C15.0197 7.54883 14.9816 7.70115 14.8867 7.81699C14.7917 7.93284 14.6498 8 14.5 8H14V14H15V15H4.30251e-06V14H1V8H0.500004C0.350208 8 0.208303 7.93284 0.113333 7.81699C0.0183639 7.70115 -0.0196636 7.54883 0.00971396 7.40194L1.00971 2.40194ZM2 8V14H13V8H12V11H3V8H2ZM4 8V10H11V8H4ZM13.8901 7L13.0901 3H1.90991L1.10991 7H13.8901Z" fill="black"/>
</svg>
