<svg width="15" height="15" viewBox="0 0 15 15" fill="none" xmlns="http://www.w3.org/2000/svg">
<path fill-rule="evenodd" clip-rule="evenodd" d="M2.00001 5.5C2.00001 2.46243 4.46244 0 7.50001 0C10.5376 0 13 2.46243 13 5.5V6.06051C14.0737 6.32643 14.7833 7.42855 14.5 8.56155L14.3489 9.16606C14.1228 10.0703 13.4049 10.7481 12.5235 10.943C12.3142 11.4589 12.0383 11.949 11.7 12.4L11.1 13.2C10.2502 14.3331 8.91641 15 7.50001 15C6.0836 15 4.74985 14.3331 3.90001 13.2L3.30001 12.4C2.96176 11.949 2.68581 11.4589 2.47655 10.943C1.59516 10.7481 0.877185 10.0703 0.651133 9.16605L0.500007 8.56155C0.216757 7.42855 0.926346 6.32643 2.00001 6.06051V5.5ZM3.00001 7H6.00001V6H3.00001V5.70711L3.97488 4.73223C4.44372 4.26339 5.07961 4 5.74265 4H9.25737C9.92041 4 10.5563 4.26339 11.0251 4.73223L12 5.70711V6H9.00001V7H12V8.5C12 9.25789 11.8435 10.0028 11.5453 10.6897L10.9053 11.0737C10.555 11.2839 10.1871 11.4597 9.80685 11.5997L8.70711 10.5H6.2929L5.19317 11.5997C4.81291 11.4597 4.44503 11.2839 4.09467 11.0737L3.4547 10.6897C3.15656 10.0028 3.00001 9.25789 3.00001 8.5V7ZM2.00001 7.12441C1.58863 7.34454 1.34692 7.8261 1.47015 8.31902L1.62128 8.92352C1.69859 9.23276 1.87392 9.49688 2.10914 9.68611C2.03691 9.29696 2.00001 8.90001 2.00001 8.5V7.12441ZM4.57321 12.4309L4.70001 12.6C5.361 13.4813 6.39836 14 7.50001 14C8.60166 14 9.63902 13.4813 10.3 12.6L10.4268 12.4309C9.52143 12.8053 8.54801 13 7.56112 13H7.43889C6.45201 13 5.47859 12.8053 4.57321 12.4309ZM6.30651 11.9006C6.67886 11.9665 7.05772 12 7.43889 12H7.56112C7.9423 12 8.32115 11.9665 8.6935 11.9006L8.2929 11.5H6.70711L6.30651 11.9006ZM12.8909 9.68611C13.1261 9.49688 13.3014 9.23276 13.3787 8.92352L13.5299 8.31902C13.6531 7.8261 13.4114 7.34454 13 7.12441V8.5C13 8.90001 12.9631 9.29696 12.8909 9.68611ZM11.7634 4.05632C11.1619 2.27917 9.48032 1 7.50001 1C5.5197 1 3.83815 2.27917 3.23658 4.05632L3.26777 4.02513C3.92415 3.36875 4.81439 3 5.74265 3H9.25737C10.1856 3 11.0759 3.36875 11.7322 4.02513L11.7634 4.05632ZM6.00001 9H5.00001V8H6.00001V9ZM10 9H9.00001V8H10V9Z" fill="black"/>
</svg>
