<svg width="15" height="15" viewBox="0 0 15 15" fill="none" xmlns="http://www.w3.org/2000/svg">
<path fill-rule="evenodd" clip-rule="evenodd" d="M7.1123 1.33759C7.38566 0.558572 8.1276 0 9 0C10.1046 0 11 0.895431 11 2V4.26756C11.2942 4.09739 11.6357 4 12 4C13.1046 4 14 4.89543 14 6C14 6.41166 13.8756 6.79427 13.6624 7.11231C14.4414 7.38566 15 8.1276 15 9C15 10.1046 14.1046 11 13 11H10.7324C10.9026 11.2942 11 11.6357 11 12C11 13.1046 10.1046 14 9 14C8.58834 14 8.20573 13.8756 7.88769 13.6624C7.61434 14.4414 6.8724 15 6 15C4.89543 15 4 14.1046 4 13V10.7324C3.70583 10.9026 3.36429 11 3 11C1.89543 11 1 10.1046 1 9C1 8.58834 1.12437 8.20573 1.33759 7.8877C0.558572 7.61434 0 6.8724 0 6C0 4.89543 0.895431 4 2 4H4.26756C4.09739 3.70583 4 3.36429 4 3C4 1.89543 4.89543 1 6 1C6.41166 1 6.79427 1.12437 7.1123 1.33759ZM8 7H10V2C10 1.44772 9.55228 1 9 1C8.44772 1 8 1.44772 8 2V7ZM11 7H12C12.5523 7 13 6.55228 13 6C13 5.44772 12.5523 5 12 5C11.4477 5 11 5.44772 11 6V7ZM8 8H13C13.5523 8 14 8.44772 14 9C14 9.55229 13.5523 10 13 10H8V8ZM8 11V12C8 12.5523 8.44772 13 9 13C9.55228 13 10 12.5523 10 12C10 11.4477 9.55228 11 9 11H8ZM7 7V5H2C1.44772 5 1 5.44772 1 6C1 6.55228 1.44772 7 2 7H7ZM7 4V3C7 2.44772 6.55228 2 6 2C5.44772 2 5 2.44772 5 3C5 3.55228 5.44772 4 6 4H7ZM3 8C2.44772 8 2 8.44772 2 9C2 9.55228 2.44772 10 3 10C3.55228 10 4 9.55228 4 9V8H3ZM5 8V13C5 13.5523 5.44772 14 6 14C6.55228 14 7 13.5523 7 13V8H5Z" fill="black"/>
</svg>
