<svg width="20" height="20" viewBox="0 0 20 20" fill="none" xmlns="http://www.w3.org/2000/svg">
<path fill-rule="evenodd" clip-rule="evenodd" d="M9.53477 2.60511C9.86279 1.67029 10.7531 1 11.8 1C13.1255 1 14.2 2.07452 14.2 3.4V6.12108C14.553 5.91687 14.9629 5.8 15.4 5.8C16.7255 5.8 17.8 6.87452 17.8 8.2C17.8 8.69399 17.6508 9.15312 17.3949 9.53477C18.3297 9.86279 19 10.7531 19 11.8C19 13.1255 17.9255 14.2 16.6 14.2H13.8789C14.0831 14.553 14.2 14.9629 14.2 15.4C14.2 16.7255 13.1255 17.8 11.8 17.8C11.306 17.8 10.8469 17.6508 10.4652 17.3949C10.1372 18.3297 9.24688 19 8.2 19C6.87452 19 5.8 17.9255 5.8 16.6V13.8789C5.44699 14.0831 5.03714 14.2 4.6 14.2C3.27452 14.2 2.2 13.1255 2.2 11.8C2.2 11.306 2.34925 10.8469 2.60511 10.4652C1.67029 10.1372 1 9.24688 1 8.2C1 6.87452 2.07452 5.8 3.4 5.8H6.12108C5.91687 5.44699 5.8 5.03714 5.8 4.6C5.8 3.27452 6.87452 2.2 8.2 2.2C8.69399 2.2 9.15312 2.34925 9.53477 2.60511ZM10.6 9.4H13V3.4C13 2.73726 12.4627 2.2 11.8 2.2C11.1373 2.2 10.6 2.73726 10.6 3.4V9.4ZM14.2 9.4H15.4C16.0627 9.4 16.6 8.86274 16.6 8.2C16.6 7.53726 16.0627 7 15.4 7C14.7373 7 14.2 7.53726 14.2 8.2V9.4ZM10.6 10.6H16.6C17.2627 10.6 17.8 11.1373 17.8 11.8C17.8 12.4627 17.2627 13 16.6 13H10.6V10.6ZM10.6 14.2V15.4C10.6 16.0627 11.1373 16.6 11.8 16.6C12.4627 16.6 13 16.0627 13 15.4C13 14.7373 12.4627 14.2 11.8 14.2H10.6ZM9.4 9.4V7H3.4C2.73726 7 2.2 7.53726 2.2 8.2C2.2 8.86274 2.73726 9.4 3.4 9.4H9.4ZM9.4 5.8V4.6C9.4 3.93726 8.86274 3.4 8.2 3.4C7.53726 3.4 7 3.93726 7 4.6C7 5.26274 7.53726 5.8 8.2 5.8H9.4ZM4.6 10.6C3.93726 10.6 3.4 11.1373 3.4 11.8C3.4 12.4627 3.93726 13 4.6 13C5.26274 13 5.8 12.4627 5.8 11.8V10.6H4.6ZM7 10.6V16.6C7 17.2627 7.53726 17.8 8.2 17.8C8.86274 17.8 9.4 17.2627 9.4 16.6V10.6H7Z" fill="black"/>
</svg>
