<svg width="13" height="15" viewBox="0 0 13 15" fill="none" xmlns="http://www.w3.org/2000/svg">
<path fill-rule="evenodd" clip-rule="evenodd" d="M6.50002 1.5C5.47048 1.5 4.6016 1.86297 3.9908 2.60037C3.73607 2.90767 3.50805 3.41605 3.33707 4.04302C3.16886 4.65983 3.06795 5.34601 3.03934 5.97019L3.0204 6.38327L2.51737 6.45572C2.4093 6.47123 2.29008 6.48853 2.17005 6.51099C1.7039 6.60041 1.14983 6.78832 1.02318 7.39897C0.960292 7.70091 1.03072 7.93886 1.17418 8.12218C1.31286 8.29826 1.51362 8.4179 1.7022 8.5078C1.78329 8.54552 1.86537 8.58099 1.94832 8.61415L2.39684 8.79348L2.23309 9.24792C1.9995 9.89618 1.59935 10.5417 1.17586 11.1058C0.95181 11.4044 0.986706 11.8291 1.14518 12.1667C1.16713 12.2135 1.18309 12.2264 1.18666 12.2293C1.19149 12.2331 1.20771 12.245 1.25619 12.2577C1.30894 12.2716 1.38359 12.2823 1.49808 12.2902C1.57819 12.2957 1.66147 12.299 1.75936 12.3028C1.80487 12.3046 1.85354 12.3065 1.90652 12.3088C2.27775 12.3251 2.67107 12.3637 3.06588 12.4368C3.28562 12.4777 3.52165 12.5626 3.77421 12.6685L3.77606 12.6693C3.92214 12.7312 4.06737 12.7952 4.2117 12.8613M3.2208 1.96233C4.04983 0.961556 5.22006 0.5 6.50002 0.5C7.82925 0.5 8.9882 1.05112 9.7923 2.05792C10.1687 2.52958 10.4339 3.19347 10.6136 3.86304C10.7589 4.40439 10.8563 4.98014 10.9071 5.51998C10.9241 5.52315 10.9412 5.52643 10.9584 5.52983L10.9231 5.70852C10.9286 5.78154 10.9332 5.85372 10.9369 5.92489L10.8798 5.92788L10.508 5.94734L10.4955 5.94799L10.4376 5.95102L10.5141 5.4569L10.5688 5.46537L10.5701 5.46557L10.5789 5.46691M10.923 5.70739L10.9584 5.52983C10.9586 5.52986 10.9582 5.52979 10.9584 5.52983C11.4554 5.62754 12.5353 5.91278 12.9055 7.08567C13.0901 7.67216 13.0028 8.25482 12.653 8.72061C12.653 8.72067 12.6531 8.72056 12.653 8.72061C12.4169 9.03522 12.1083 9.22989 11.8743 9.34933C11.8026 9.20418 11.7402 9.06036 11.6889 8.91928L11.5299 8.97709L11.219 9.09017L11.4013 9.55577C11.4901 9.521 11.6099 9.47412 11.732 9.41777C11.7748 9.39828 11.8227 9.37563 11.8743 9.34933C12.064 9.73405 12.3184 10.1281 12.6018 10.5052C13.1414 11.2243 12.9743 12.0886 12.7381 12.5916C12.5536 12.984 12.2246 13.1553 11.905 13.2287C11.6681 13.2831 11.3864 13.2935 11.139 13.3026M3.2208 1.96233C2.83365 2.42944 2.55867 3.09649 2.3723 3.77992C2.22001 4.33836 2.11834 4.9395 2.06796 5.51335C2.04061 5.51807 2.01287 5.52304 1.98491 5.52828L1.98291 5.52866C1.51868 5.61759 0.312211 5.90398 0.0441074 7.19547M6.50002 1.5C7.53389 1.5 8.40186 1.91949 9.01079 2.68181L6.50002 1.5ZM9.01079 2.68181C9.26171 2.99635 9.48245 3.50638 9.64774 4.12225C9.81041 4.72837 9.90768 5.39219 9.93829 5.97715L9.95953 6.383L10.4172 6.45381L10.4185 6.45401L10.4306 6.45586L10.4348 6.45647C10.5364 6.47105 10.6495 6.48813 10.7646 6.51088C11.2192 6.60019 11.7628 6.78813 11.9518 7.38641C12.0473 7.69003 11.9945 7.93225 11.8534 8.12012C11.7194 8.29877 11.512 8.41916 11.3164 8.50821L11.3139 8.50938C11.222 8.55181 11.1279 8.5889 11.0368 8.62457L10.5823 8.80245L10.7491 9.26107C10.9833 9.90481 11.3812 10.5455 11.8022 11.1057C12.0262 11.4042 11.9914 11.8289 11.833 12.1664C11.8331 12.1663 11.833 12.1665 11.833 12.1664L11.8322 12.1682C11.819 12.1963 11.8053 12.2256 11.6811 12.2541C11.5448 12.2854 11.3793 12.292 11.1307 12.3018C11.0779 12.3039 11.0213 12.3062 10.9604 12.3088C10.5891 12.3251 10.1959 12.3644 9.80162 12.4374C9.58261 12.4782 9.34716 12.5621 9.09364 12.6684C8.95002 12.7282 8.81828 12.7878 8.68619 12.8476L8.6833 12.8489L8.65786 12.8604C8.54395 12.9121 8.4256 12.9656 8.2899 13.0246C7.72884 13.2697 7.10443 13.5 6.43374 13.5C5.76304 13.5 5.13935 13.27 4.5783 13.0249C4.44243 12.9658 4.32344 12.9123 4.2117 12.8613M0.0441074 7.19547C-0.078078 7.78223 0.0595627 8.32096 0.387296 8.73927L0.0441074 7.19547ZM0.387296 8.73927C0.611596 9.0244 0.891063 9.21033 1.11274 9.32996L0.387296 8.73927ZM1.11274 9.32996C0.92205 9.72084 0.664129 10.1218 0.376169 10.5054C-0.163476 11.2244 0.00379078 12.0886 0.239976 12.5916C0.316687 12.7552 0.421414 12.8979 0.562617 13.0107C0.70264 13.1225 0.855499 13.1865 1.00264 13.2251C1.22681 13.2838 1.49763 13.294 1.74075 13.3031C1.78234 13.3046 1.82312 13.3061 1.86272 13.3079M1.86272 13.3079C2.19677 13.3225 2.54294 13.357 2.88387 13.4201L1.86272 13.3079ZM2.88387 13.4201C2.99648 13.4411 3.1528 13.4923 3.38663 13.5903C3.52372 13.6485 3.66 13.7086 3.79542 13.7706C3.91118 13.8234 4.03557 13.8793 4.17825 13.9414C4.7622 14.1965 5.54536 14.5 6.43374 14.5C7.32209 14.5 8.10522 14.1965 8.68917 13.9414C8.83225 13.8792 8.95565 13.8234 9.07064 13.7712L9.09538 13.76C9.23041 13.6989 9.34996 13.6449 9.47893 13.5911L9.47991 13.5907C9.71316 13.4929 9.87024 13.4419 9.98363 13.4207C10.325 13.3575 10.6712 13.3225 11.0041 13.3079" fill="black"/>
</svg>
