<svg width="20" height="20" viewBox="0 0 20 20" fill="none" xmlns="http://www.w3.org/2000/svg">
<path fill-rule="evenodd" clip-rule="evenodd" d="M14.5 4C13.6718 4 13 4.67187 13 5.4987C13 6.32553 13.6718 6.99739 14.5 6.99739C15.3282 6.99739 16 6.32553 16 5.4987C16 4.67187 15.3282 4 14.5 4ZM12 5.4987C12 4.11897 13.1202 3 14.5 3C15.8798 3 17 4.11897 17 5.4987C17 6.87843 15.8798 7.99739 14.5 7.99739C14.0129 7.99739 13.5581 7.85794 13.1736 7.61679L11.1145 10.4958L13.1695 13.3766C13.5549 13.1339 14.0112 12.9935 14.5 12.9935C15.8798 12.9935 17 14.1124 17 15.4922C17 16.8719 15.8798 17.9909 14.5 17.9909C13.1202 17.9909 12 16.8719 12 15.4922C12 14.9665 12.1626 14.4787 12.4402 14.0762L10.2458 11H6.94895C6.71527 12.138 5.70698 12.9941 4.5 12.9941C3.12017 12.9941 2 11.8752 2 10.4954C2 9.1157 3.12017 7.99673 4.5 7.99673C5.71021 7.99673 6.72066 8.85749 6.95081 10L10.2396 10L12.4432 6.91901C12.1638 6.51568 12 6.02625 12 5.4987ZM6 10.4954C6 9.6686 5.32817 8.99673 4.5 8.99673C3.67183 8.99673 3 9.6686 3 10.4954C3 11.3223 3.67183 11.9941 4.5 11.9941C5.32817 11.9941 6 11.3223 6 10.4954ZM14.5 13.9935C13.6718 13.9935 13 14.6653 13 15.4922C13 16.319 13.6718 16.9909 14.5 16.9909C15.3282 16.9909 16 16.319 16 15.4922C16 14.6653 15.3282 13.9935 14.5 13.9935Z" fill="black"/>
</svg>
