<svg width="13" height="15" viewBox="0 0 13 15" fill="none" xmlns="http://www.w3.org/2000/svg">
<path fill-rule="evenodd" clip-rule="evenodd" d="M3.00001 13.2929V0H4.00001V13.2929L6.14645 11.1464L6.85356 11.8536L3.85356 14.8536C3.75979 14.9473 3.63262 15 3.50001 15C3.3674 15 3.24022 14.9473 3.14645 14.8536L0.146454 11.8536L0.853561 11.1464L3.00001 13.2929ZM10 1H9.00001V0H10.5C10.7761 0 11 0.223858 11 0.5V6H12V7H9.00001V6H10V1ZM8.00001 10C8.00001 8.89543 8.89544 8 10 8H10.8617C12.009 8 12.8191 9.12397 12.4563 10.2124L10.9743 14.6581L10.0257 14.3419L10.8063 12H10C8.89544 12 8.00001 11.1046 8.00001 10ZM11.1396 11L11.5076 9.89614C11.6545 9.45527 11.3264 9 10.8617 9H10C9.44772 9 9.00001 9.44772 9.00001 10C9.00001 10.5523 9.44772 11 10 11H11.1396Z" fill="black"/>
</svg>
