<svg width="15" height="13" viewBox="0 0 15 13" fill="none" xmlns="http://www.w3.org/2000/svg">
<path fill-rule="evenodd" clip-rule="evenodd" d="M8.74641 0.0649355C8.90313 0.153698 9 0.31989 9 0.5V12.4922C9 12.6723 8.90313 12.8385 8.74641 12.9273C8.58969 13.016 8.39734 13.0136 8.24288 12.921L3.36158 9.99414H1.5C0.671138 9.99414 0 9.32381 0 8.49475V4.49731C0 3.66817 0.671218 2.99805 1.5 2.99805H3.36159L8.24288 0.0711797C8.39734 -0.021442 8.58969 -0.0238272 8.74641 0.0649355ZM8 1.3828L3.63841 3.99805H1.5C1.22278 3.99805 1 4.22118 1 4.49731V8.49475C1 8.77097 1.22286 8.99414 1.5 8.99414H3.63841L8 11.6094V1.3828ZM11.0857 4.3759L12.5001 5.78934L13.9144 4.3759L14.6213 5.08324L13.2074 6.49622L14.621 7.90895L13.9142 8.61629L12.5001 7.20309L11.086 8.61629L10.3791 7.90895L11.7927 6.49622L10.3788 5.08324L11.0857 4.3759Z" fill="black"/>
</svg>
