<svg width="20" height="20" viewBox="0 0 20 20" fill="none" xmlns="http://www.w3.org/2000/svg">
<path fill-rule="evenodd" clip-rule="evenodd" d="M10.5 4C6.90974 4 4 6.91029 4 10.5C4 14.0897 6.90974 17 10.5 17C14.0903 17 17 14.0897 17 10.5C17 6.91029 14.0903 4 10.5 4ZM3 10.5C3 6.35806 6.35739 3 10.5 3C14.6426 3 18 6.35806 18 10.5C18 14.6419 14.6426 18 10.5 18C6.35739 18 3 14.6419 3 10.5ZM10.7255 8.29726C9.10442 8.1645 7.45435 8.36298 6.10135 8.84102L5.76821 7.89814C7.26817 7.36818 9.06118 7.15761 10.8071 7.30059C12.5512 7.44343 14.2863 7.94241 15.6505 8.86901L15.0886 9.69623C13.9042 8.8917 12.3484 8.43016 10.7255 8.29726ZM14.1649 12.1236C12.1743 10.6946 9.772 10.3827 6.32624 10.9924L6.15202 10.0077C9.73182 9.37433 12.4498 9.66142 14.7481 11.3112L14.1649 12.1236ZM10.0542 12.8879C8.86144 12.7707 7.64825 12.8758 6.6619 13.1162L6.42506 12.1447C7.51862 11.8781 8.84491 11.7643 10.1519 11.8927C11.4558 12.0208 12.7777 12.3938 13.8311 13.1345L13.2559 13.9525C12.3882 13.3424 11.2501 13.0054 10.0542 12.8879Z" fill="black"/>
</svg>
