<svg width="15" height="15" viewBox="0 0 15 15" fill="none" xmlns="http://www.w3.org/2000/svg">
<path fill-rule="evenodd" clip-rule="evenodd" d="M4 3.5C4 1.567 5.567 0 7.5 0C9.433 0 11 1.567 11 3.5C11 4.8962 10.1825 6.10145 9 6.66318V9H12.5C13.8807 9 15 10.1193 15 11.5V13H0V11.5C0 10.1193 1.11929 9 2.5 9H6V6.66318C4.81753 6.10145 4 4.8962 4 3.5ZM7 6.96456V9H8V6.96456C7.8367 6.98791 7.66976 7 7.5 7C7.33024 7 7.1633 6.98791 7 6.96456ZM7.5 1C6.11929 1 5 2.11929 5 3.5C5 4.88071 6.11929 6 7.5 6C8.88071 6 10 4.88071 10 3.5C10 2.11929 8.88071 1 7.5 1ZM2.5 10C1.67157 10 1 10.6716 1 11.5V12H14V11.5C14 10.6716 13.3284 10 12.5 10H2.5ZM15 14V15H0V14H15Z" fill="black"/>
</svg>
