<svg width="15" height="15" viewBox="0 0 15 15" fill="none" xmlns="http://www.w3.org/2000/svg">
<path fill-rule="evenodd" clip-rule="evenodd" d="M0 7.5C0 3.35786 3.35786 0 7.5 0C11.6421 0 15 3.35786 15 7.5C15 11.6421 11.6421 15 7.5 15C3.35786 15 0 11.6421 0 7.5ZM7.5 1C3.91015 1 1 3.91015 1 7.5C1 11.0899 3.91015 14 7.5 14C11.0899 14 14 11.0899 14 7.5C14 3.91015 11.0899 1 7.5 1ZM7.5 3.5C7.69386 3.5 7.87025 3.61206 7.95262 3.78755L8.92086 5.85035L11.0755 6.17933C11.2607 6.20761 11.4146 6.33713 11.4741 6.51485C11.5336 6.69257 11.4888 6.88864 11.3579 7.02278L9.78411 8.63573L10.1567 10.9195C10.1875 11.1085 10.1077 11.2985 9.9512 11.4087C9.79467 11.519 9.58891 11.5302 9.42133 11.4376L7.5 10.3755L5.57867 11.4376C5.41109 11.5302 5.20533 11.519 5.0488 11.4087C4.89227 11.2985 4.81246 11.1085 4.8433 10.9195L5.21589 8.63573L3.64213 7.02278C3.51124 6.88864 3.46637 6.69257 3.52587 6.51485C3.58537 6.33713 3.73926 6.20761 3.92453 6.17933L6.07914 5.85035L7.04738 3.78755C7.12975 3.61206 7.30614 3.5 7.5 3.5ZM7.5 5.17674L6.87101 6.51679C6.80015 6.66775 6.6587 6.77345 6.49385 6.79861L5.03751 7.02098L6.10787 8.118C6.21871 8.23159 6.26903 8.39105 6.24348 8.54769L5.99605 10.0642L7.2581 9.36657C7.40863 9.28336 7.59137 9.28336 7.7419 9.36657L9.00395 10.0642L8.75652 8.54769C8.73097 8.39105 8.78129 8.23159 8.89213 8.118L9.96249 7.02098L8.50615 6.79861C8.3413 6.77345 8.19985 6.66775 8.12899 6.51679L7.5 5.17674Z" fill="black"/>
</svg>
