<svg width="15" height="15" viewBox="0 0 15 15" fill="none" xmlns="http://www.w3.org/2000/svg">
<path fill-rule="evenodd" clip-rule="evenodd" d="M7.5 0.5C7.69032 0.5 7.86414 0.60805 7.94837 0.778719L9.99525 4.92621L14.5719 5.59081C14.7602 5.61816 14.9167 5.75008 14.9755 5.93109C15.0343 6.1121 14.9853 6.31081 14.849 6.44366L11.5372 9.67185L12.3193 14.2306C12.3514 14.4182 12.2743 14.6078 12.1203 14.7196C11.9664 14.8315 11.7622 14.8463 11.5938 14.7577L7.5 12.6054L3.40622 14.7577C3.23776 14.8463 3.03363 14.8315 2.87965 14.7196C2.72567 14.6078 2.64856 14.4182 2.68074 14.2306L3.46275 9.67185L0.150992 6.44366C0.0147009 6.31081 -0.0343451 6.1121 0.0244782 5.93109C0.0833014 5.75008 0.239791 5.61816 0.428144 5.59081L5.00475 4.92621L7.05163 0.778719C7.13586 0.60805 7.30968 0.5 7.5 0.5ZM7.5 2.12979L5.78514 5.60452C5.7123 5.7521 5.5715 5.85439 5.40863 5.87805L1.57456 6.43482L4.34901 9.13925C4.46685 9.25413 4.52063 9.41963 4.4928 9.58183L3.83764 13.4011L7.26732 11.5979C7.41299 11.5213 7.58701 11.5213 7.73268 11.5979L11.1624 13.4011L10.5072 9.58183C10.4794 9.41963 10.5331 9.25413 10.651 9.13925L13.4254 6.43482L9.59137 5.87805C9.4285 5.85439 9.2877 5.7521 9.21486 5.60452L7.5 2.12979Z" fill="black"/>
</svg>
