<svg width="9" height="9" viewBox="0 0 9 9" fill="none" xmlns="http://www.w3.org/2000/svg">
<path fill-rule="evenodd" clip-rule="evenodd" d="M4.50001 0.5C4.69387 0.5 4.87026 0.61206 4.95263 0.787549L5.92087 2.85035L8.07548 3.17933C8.26075 3.20761 8.41464 3.33713 8.47414 3.51485C8.53365 3.69257 8.48877 3.88864 8.35789 4.02278L6.78412 5.63573L7.15672 7.91949C7.18755 8.10847 7.10775 8.29846 6.95122 8.40874C6.79468 8.51902 6.58892 8.53023 6.42134 8.43759L4.50001 7.37547L2.57868 8.43759C2.41111 8.53023 2.20534 8.51902 2.04881 8.40874C1.89228 8.29846 1.81248 8.10847 1.84331 7.91949L2.2159 5.63573L0.642138 4.02278C0.511256 3.88864 0.46638 3.69257 0.525883 3.51485C0.585386 3.33713 0.739277 3.20761 0.924544 3.17933L3.07916 2.85035L4.04739 0.787549C4.12976 0.61206 4.30615 0.5 4.50001 0.5ZM4.50001 2.17674L3.87102 3.51679C3.80016 3.66775 3.65871 3.77344 3.49387 3.79861L2.03752 4.02098L3.10789 5.118C3.21872 5.23159 3.26904 5.39105 3.24349 5.54769L2.99606 7.06423L4.25811 6.36657C4.40864 6.28335 4.59138 6.28335 4.74191 6.36657L6.00396 7.06424L5.75654 5.54769C5.73098 5.39105 5.78131 5.23159 5.89214 5.118L6.9625 4.02098L5.50616 3.79861C5.34131 3.77344 5.19986 3.66775 5.12901 3.51679L4.50001 2.17674Z" fill="black"/>
</svg>
