<svg width="20" height="20" viewBox="0 0 20 20" fill="none" xmlns="http://www.w3.org/2000/svg">
<path fill-rule="evenodd" clip-rule="evenodd" d="M9.50001 3C9.69034 3 9.86415 3.10805 9.94838 3.27872L11.9953 7.42621L16.5719 8.09081C16.7602 8.11816 16.9167 8.25008 16.9755 8.43109C17.0344 8.6121 16.9853 8.81081 16.849 8.94366L13.5373 12.1718L14.3193 16.7306C14.3515 16.9182 14.2743 17.1078 14.1204 17.2196C13.9664 17.3315 13.7623 17.3463 13.5938 17.2577L9.50001 15.1054L5.40624 17.2577C5.23778 17.3463 5.03364 17.3315 4.87966 17.2196C4.72569 17.1078 4.64858 16.9182 4.68076 16.7306L5.46277 12.1718L2.15101 8.94366C2.01472 8.81081 1.96567 8.6121 2.02449 8.43109C2.08332 8.25008 2.23981 8.11816 2.42816 8.09081L7.00476 7.42621L9.05165 3.27872C9.13587 3.10805 9.30969 3 9.50001 3ZM9.50001 4.62979L7.78515 8.10452C7.71232 8.2521 7.57151 8.35439 7.40864 8.37805L3.57457 8.93482L6.34902 11.6393C6.46687 11.7541 6.52064 11.9196 6.49282 12.0818L5.83766 15.9011L9.26733 14.0979C9.413 14.0213 9.58703 14.0213 9.7327 14.0979L13.1624 15.9011L12.5072 12.0818C12.4794 11.9196 12.5332 11.7541 12.651 11.6393L15.4255 8.93482L11.5914 8.37805C11.4285 8.35439 11.2877 8.2521 11.2149 8.10452L9.50001 4.62979Z" fill="black"/>
</svg>
