<svg width="20" height="20" viewBox="0 0 20 20" fill="none" xmlns="http://www.w3.org/2000/svg">
<path fill-rule="evenodd" clip-rule="evenodd" d="M7 5.78103C7 4.24511 8.24511 3 9.78103 3H11C12.6569 3 14 4.34315 14 6H13C13 4.89543 12.1046 4 11 4H9.78103C8.79739 4 8 4.79739 8 5.78103C8 6.62384 8.50228 7.38556 9.27694 7.71756L8.88303 8.63671C7.74067 8.14713 7 7.02387 7 5.78103ZM12.3916 10H5V9H16V10H13.9901C14.1132 10.1395 14.227 10.2871 14.3302 10.4401C14.7355 11.042 15 11.7655 15 12.4869C15 14.4271 13.4271 16 11.4869 16H10C7.79086 16 6 14.2091 6 12H7C7 13.6569 8.34315 15 10 15H11.4869C12.8748 15 14 13.8748 14 12.4869C14 12.0028 13.8184 11.4704 13.5008 10.9988C13.2041 10.5584 12.8098 10.2024 12.3916 10Z" fill="black"/>
</svg>
