<svg width="15" height="15" viewBox="0 0 15 15" fill="none" xmlns="http://www.w3.org/2000/svg">
<path fill-rule="evenodd" clip-rule="evenodd" d="M7.1746 0.120372C7.36185 -0.0401239 7.63815 -0.0401239 7.8254 0.120372L15 6.27003V13.5C15 14.3284 14.3284 15 13.5 15H9.5C9.22386 15 9 14.7761 9 14.5V11.5C9 10.6716 8.32843 10 7.5 10C6.67157 10 6 10.6716 6 11.5V14.5C6 14.7761 5.77614 15 5.5 15H1.5C0.671573 15 0 14.3284 0 13.5V6.27003L7.1746 0.120372ZM1 6.72997V13.5C1 13.7761 1.22386 14 1.5 14H5V11.5C5 10.1193 6.11929 9 7.5 9C8.88071 9 10 10.1193 10 11.5V14H13.5C13.7761 14 14 13.7761 14 13.5V6.72997L7.5 1.15854L1 6.72997Z" fill="black"/>
</svg>
