<svg width="14" height="14" viewBox="0 0 14 14" fill="none" xmlns="http://www.w3.org/2000/svg">
<path fill-rule="evenodd" clip-rule="evenodd" d="M4.37501 6.49995L0.100006 0.799951L0.900006 0.199951L5.00001 5.66662L9.10001 0.199951L9.90001 0.799951L5.62501 6.49995L9.90001 12.2L9.10001 12.8L5.00001 7.33328L0.900006 12.8L0.100006 12.2L4.37501 6.49995ZM11 11.5C11 10.6715 11.6716 9.99995 12.5 9.99995H12.7929C13.4596 9.99995 14 10.5404 14 11.2071C14 11.5272 13.8728 11.8342 13.6465 12.0606L12.7071 13H14V14H11.5C11.2978 14 11.1155 13.8781 11.0381 13.6913C10.9607 13.5045 11.0035 13.2894 11.1465 13.1464L12.9393 11.3535C12.9782 11.3147 13 11.262 13 11.2071C13 11.0927 12.9073 11 12.7929 11H12.5C12.2239 11 12 11.2238 12 11.5H11Z" fill="black"/>
</svg>
