<svg width="20" height="20" viewBox="0 0 20 20" fill="none" xmlns="http://www.w3.org/2000/svg">
<path fill-rule="evenodd" clip-rule="evenodd" d="M11 3V4.99933H10V3H11ZM4.49976 3.79222L6.20711 5.49842L5.50024 6.20576L3.79289 4.49957L4.49976 3.79222ZM17.2071 4.49957L15.4998 6.20576L14.7929 5.49842L16.5002 3.79222L17.2071 4.49957ZM10.5 7.99738C9.11884 7.99738 8 9.11595 8 10.4954C8 11.8749 9.11884 12.9935 10.5 12.9935C11.8812 12.9935 13 11.8749 13 10.4954C13 9.11595 11.8812 7.99738 10.5 7.99738ZM7 10.4954C7 8.56305 8.56716 6.99738 10.5 6.99738C12.4328 6.99738 14 8.56305 14 10.4954C14 12.4278 12.4328 13.9935 10.5 13.9935C8.56716 13.9935 7 12.4278 7 10.4954ZM3 9.99542H5V10.9954H3V9.99542ZM16 9.99542H18V10.9954H16V9.99542ZM6.20711 15.4923L4.49978 17.1986L3.79289 16.4913L5.50022 14.785L6.20711 15.4923ZM15.4998 14.785L17.2071 16.4913L16.5002 17.1986L14.7929 15.4923L15.4998 14.785ZM11 15.9915V17.9908H10V15.9915H11Z" fill="black"/>
</svg>
