<svg width="20" height="20" viewBox="0 0 20 20" fill="none" xmlns="http://www.w3.org/2000/svg">
<path fill-rule="evenodd" clip-rule="evenodd" d="M10.6 1V3.40067H9.4V1H10.6ZM2.79971 1.95125L4.84853 3.99994L4.00029 4.84927L1.95147 2.80059L2.79971 1.95125ZM18.0485 2.80059L15.9998 4.84927L15.1515 3.99994L17.2002 1.95125L18.0485 2.80059ZM10 7.00054C8.34261 7.00054 7 8.34364 7 10C7 11.6564 8.34261 12.9996 10 12.9996C11.6574 12.9996 13 11.6564 13 10C13 8.34364 11.6574 7.00054 10 7.00054ZM5.8 10C5.8 7.67976 7.68059 5.7998 10 5.7998C12.3194 5.7998 14.2 7.67976 14.2 10C14.2 12.3203 12.3194 14.2003 10 14.2003C7.68059 14.2003 5.8 12.3203 5.8 10ZM1 9.39966H3.4V10.6004H1V9.39966ZM16.6 9.39966H19V10.6004H16.6V9.39966ZM4.84853 16L2.79974 18.0488L1.95147 17.1995L4.00026 15.1507L4.84853 16ZM15.9998 15.1507L18.0485 17.1995L17.2002 18.0488L15.1515 16L15.9998 15.1507ZM10.6 16.5994V19H9.4V16.5994H10.6Z" fill="black"/>
</svg>
