<svg width="13" height="15" viewBox="0 0 13 15" fill="none" xmlns="http://www.w3.org/2000/svg">
<path fill-rule="evenodd" clip-rule="evenodd" d="M11.4349 2.47401C10.5569 1.06892 8.70608 0.641625 7.30099 1.51962L3.06075 4.16922C1.65566 5.04722 1.22836 6.89803 2.10636 8.30312C2.98327 9.70648 4.83061 10.1345 6.23504 9.26076C6.23511 9.26072 6.23498 9.2608 6.23504 9.26076L8.36045 7.93266L8.89037 8.78071L3.80208 11.9602L3.27216 11.1122L3.99647 10.6596C3.08885 10.5088 2.23657 10.0473 1.61109 9.31457C1.01821 10.2578 0.976711 11.4955 1.60636 12.5032C2.48436 13.9083 4.33517 14.3356 5.74026 13.4576L9.9805 10.808C11.3614 9.94514 11.7979 8.14257 10.9792 6.74722C10.9648 6.72271 10.95 6.69833 10.9349 6.67408C10.0569 5.26899 8.20608 4.8417 6.80099 5.7197L4.68087 7.04445L4.15095 6.1964L9.23924 3.01689L9.76915 3.86494L9.04472 4.31761C9.95236 4.46839 10.8047 4.92992 11.4302 5.66263C12.023 4.71944 12.0646 3.48168 11.4349 2.47401ZM11.4104 6.49419L11.8417 6.24116C11.8417 6.24116 11.8417 6.24116 11.8417 6.24116C11.9042 6.3477 11.9612 6.45603 12.0128 6.56579C11.9366 6.6609 11.8557 6.75295 11.7701 6.84157C11.7701 6.84158 11.7701 6.84157 11.7701 6.84157L11.4104 6.49419ZM1.02839 8.41144C-0.00474727 9.7007 -0.167142 11.5521 0.758314 13.0331C1.92898 14.9066 4.39673 15.4763 6.27018 14.3056L10.5104 11.656C12.2463 10.5713 12.8629 8.37324 12.0128 6.56579C13.046 5.2765 13.2084 3.42512 12.2829 1.94409C11.1123 0.070635 8.64453 -0.499089 6.77107 0.671576L2.53083 3.32117C0.794951 4.40587 0.178355 6.60414 1.02839 8.41144Z" fill="black"/>
</svg>
