<svg width="13" height="15" viewBox="0 0 13 15" fill="none" xmlns="http://www.w3.org/2000/svg">
<path fill-rule="evenodd" clip-rule="evenodd" d="M1.5 1C1.22386 1 1 1.22386 1 1.5V5H0V1.5C0 0.671573 0.671573 0 1.5 0H9.70711L13 3.29289V5H12V3.70711L9.29289 1H1.5ZM1 6H4V7H2V8H4V11H1V10H3V9H1V6ZM5 6H6V9.29289L6.5 9.79289L7 9.29289V6H8V9.70711L6.5 11.2071L5 9.70711V6ZM9 6H12V7H10V10H11V8.5H12V11H9V6ZM0 13.5V12H1V13.5C1 13.7761 1.22386 14 1.5 14H11.5C11.7761 14 12 13.7761 12 13.5V12H13V13.5C13 14.3284 12.3284 15 11.5 15H1.5C0.671573 15 0 14.3284 0 13.5Z" fill="black"/>
</svg>
