<svg width="20" height="20" viewBox="0 0 20 20" fill="none" xmlns="http://www.w3.org/2000/svg">
<path d="M17.5 3.71V7.72C17.5 7.96 17.4 8.2 17.21 8.39L8.39 17.2C7.99 17.6 7.33 17.6 6.93 17.2L2.8 13.07C2.4 12.67 2.4 12.01 2.8 11.61L11.61 2.8C11.81 2.6 12.08 2.5 12.34 2.5H16.19C16.52 2.5 16.86 2.63 17.11 2.88C17.35 3.11 17.48 3.4 17.5 3.71Z" stroke="black" stroke-width="1.1"/>
<path d="M14 7C14.5523 7 15 6.55228 15 6C15 5.44772 14.5523 5 14 5C13.4477 5 13 5.44772 13 6C13 6.55228 13.4477 7 14 7Z" fill="black"/>
</svg>
