<svg width="15" height="11" viewBox="0 0 15 11" fill="none" xmlns="http://www.w3.org/2000/svg">
<path fill-rule="evenodd" clip-rule="evenodd" d="M4.8996 1.37037C5.59197 0.776913 6.47403 0.5 7.5 0.5C8.45877 0.5 9.18221 0.741009 9.76356 1.09971C10.3238 1.44538 10.7334 1.89093 11.0692 2.25616L11.0836 2.27181L11.0836 2.27182C11.5291 2.7563 11.8128 3.04384 12.1794 3.14202C12.5426 3.23931 12.8597 3.21194 13.1538 3.07686C13.4576 2.93737 13.7738 2.66559 14.0904 2.21326C14.2278 2.01698 14.4851 1.94576 14.7039 2.04345C14.9226 2.14114 15.0414 2.38029 14.9869 2.61361C14.7375 3.6827 14.2878 4.54043 13.6004 5.12962C12.908 5.72307 12.026 5.99999 11 5.99999C10.0412 5.99999 9.31779 5.75898 8.73643 5.40028C8.17617 5.0546 7.76654 4.60905 7.43076 4.24382L7.41637 4.22817L7.41637 4.22816C6.97091 3.74369 6.68717 3.45615 6.32063 3.35797C5.95741 3.26068 5.64031 3.28805 5.34614 3.42313C5.04238 3.56261 4.72624 3.8344 4.40961 4.28672C4.27221 4.483 4.01489 4.55423 3.79612 4.45654C3.57736 4.35885 3.45863 4.1197 3.51308 3.88638C3.76253 2.81729 4.21221 1.95956 4.8996 1.37037ZM5.29736 2.38039C5.71047 2.26824 6.14131 2.27468 6.57936 2.39202C7.2542 2.57278 7.72275 3.0832 8.11184 3.50706C8.12549 3.52192 8.13903 3.53668 8.15249 3.55132L7.78443 3.88974L8.15249 3.55132C8.50034 3.92962 8.82734 4.28134 9.26153 4.54924C9.68264 4.80907 10.2238 4.99999 11 4.99999C11.8407 4.99999 12.4753 4.7769 12.9496 4.37036C13.0378 4.29474 13.1222 4.21127 13.2026 4.1196C12.7895 4.23174 12.3587 4.2253 11.9206 4.10797C11.2458 3.92721 10.7772 3.41679 10.3882 2.99293C10.3745 2.97807 10.361 2.96331 10.3475 2.94868C9.99966 2.57038 9.67265 2.21864 9.23847 1.95075C8.81735 1.69092 8.27616 1.5 7.5 1.5C6.6593 1.5 6.02469 1.72309 5.55039 2.12963C5.46216 2.20525 5.37774 2.28872 5.29736 2.38039ZM1.3996 5.87036C2.09197 5.2769 2.97403 4.99999 4 4.99999C4.95877 4.99999 5.68221 5.241 6.26356 5.59969C6.82382 5.94537 7.23345 6.39092 7.56923 6.75615L7.58362 6.7718L7.58362 6.77181C8.02909 7.25628 8.31283 7.54383 8.67936 7.64201C9.04258 7.7393 9.35968 7.71192 9.65385 7.57684C9.95762 7.43736 10.2738 7.16558 10.5904 6.71325C10.7278 6.51697 10.9851 6.44574 11.2039 6.54343C11.4226 6.64113 11.5414 6.88027 11.4869 7.1136C11.2375 8.18269 10.7878 9.04041 10.1004 9.62961C9.40802 10.2231 8.52596 10.5 7.5 10.5C6.54122 10.5 5.81778 10.259 5.23643 9.90027C4.67617 9.55459 4.26654 9.10903 3.93076 8.7438L3.91637 8.72816L3.91637 8.72815C3.47091 8.24368 3.18717 7.95614 2.82063 7.85796C2.45741 7.76067 2.14031 7.78804 1.84614 7.92312C1.54238 8.0626 1.22624 8.33438 0.909612 8.78671C0.772215 8.98299 0.514895 9.05422 0.296125 8.95653C0.0773552 8.85884 -0.0413668 8.61969 0.0130755 8.38636C0.26253 7.31727 0.71221 6.45955 1.3996 5.87036ZM1.79736 6.88037C2.21047 6.76823 2.64131 6.77467 3.07936 6.89201C3.7542 7.07277 4.22275 7.58319 4.61184 8.00705C4.62549 8.02191 4.63904 8.03667 4.65249 8.05131C5.00034 8.4296 5.32734 8.78133 5.76153 9.04923C6.18264 9.30906 6.72383 9.49998 7.5 9.49998C8.3407 9.49998 8.9753 9.27689 9.4496 8.87035C9.53783 8.79472 9.62225 8.71126 9.70263 8.61959C9.28953 8.73173 8.85868 8.72529 8.42063 8.60795C7.7458 8.4272 7.27725 7.91678 6.88815 7.49292C6.87451 7.47805 6.86096 7.4633 6.84751 7.44866M1.79736 6.88037C1.87774 6.78871 1.96216 6.70524 2.05039 6.62961C2.52469 6.22307 3.1593 5.99999 4 5.99999C4.77616 5.99999 5.31735 6.19091 5.73847 6.45074C6.17265 6.71863 6.49965 7.07036 6.8475 7.44866" fill="black"/>
</svg>
