<svg width="20" height="20" viewBox="0 0 20 20" fill="none" xmlns="http://www.w3.org/2000/svg">
<path fill-rule="evenodd" clip-rule="evenodd" d="M3 5.38462C3 4.61991 3.6268 4 4.4 4H15.6C16.3732 4 17 4.61991 17 5.38462V14.6154C17 15.3801 16.3732 16 15.6 16H4.4C3.6268 16 3 15.3801 3 14.6154V5.38462ZM4.4 4.92308C4.14227 4.92308 3.93333 5.12971 3.93333 5.38462V14.6154C3.93333 14.8703 4.14227 15.0769 4.4 15.0769H15.6C15.8577 15.0769 16.0667 14.8703 16.0667 14.6154V5.38462C16.0667 5.12971 15.8577 4.92308 15.6 4.92308H4.4ZM8.4067 10L5.93668 7.55713L6.59665 6.90441L9.72663 10L6.59665 13.0956L5.93668 12.4429L8.4067 10ZM14.2 13.2308H10.4667V12.3077H14.2V13.2308Z" fill="black"/>
</svg>
