<svg width="20" height="20" viewBox="0 0 20 20" fill="none" xmlns="http://www.w3.org/2000/svg">
<path fill-rule="evenodd" clip-rule="evenodd" d="M2 3.5C2 2.67157 2.67157 2 3.5 2H7.5C8.32843 2 9 2.67157 9 3.5V7.5C9 8.32843 8.32843 9 7.5 9H3.5C2.67157 9 2 8.32843 2 7.5V3.5ZM3.5 3C3.22386 3 3 3.22386 3 3.5V7.5C3 7.77614 3.22386 8 3.5 8H7.5C7.77614 8 8 7.77614 8 7.5V3.5C8 3.22386 7.77614 3 7.5 3H3.5ZM10 3.5C10 2.67157 10.6716 2 11.5 2H15.5C16.3284 2 17 2.67157 17 3.5V7.5C17 8.32843 16.3284 9 15.5 9H11.5C10.6716 9 10 8.32843 10 7.5V3.5ZM11.5 3C11.2239 3 11 3.22386 11 3.5V7.5C11 7.77614 11.2239 8 11.5 8H15.5C15.7761 8 16 7.77614 16 7.5V3.5C16 3.22386 15.7761 3 15.5 3H11.5ZM2 11.5C2 10.6716 2.67157 10 3.5 10H7.5C8.32843 10 9 10.6716 9 11.5V15.5C9 16.3284 8.32843 17 7.5 17H3.5C2.67157 17 2 16.3284 2 15.5V11.5ZM3.5 11C3.22386 11 3 11.2239 3 11.5V15.5C3 15.7761 3.22386 16 3.5 16H7.5C7.77614 16 8 15.7761 8 15.5V11.5C8 11.2239 7.77614 11 7.5 11H3.5ZM10 11.5C10 10.6716 10.6716 10 11.5 10H15.5C16.3284 10 17 10.6716 17 11.5V15.5C17 16.3284 16.3284 17 15.5 17H11.5C10.6716 17 10 16.3284 10 15.5V11.5ZM11.5 11C11.2239 11 11 11.2239 11 11.5V15.5C11 15.7761 11.2239 16 11.5 16H15.5C15.7761 16 16 15.7761 16 15.5V11.5C16 11.2239 15.7761 11 15.5 11H11.5Z" fill="black"/>
</svg>
