<svg width="15" height="15" viewBox="0 0 15 15" fill="none" xmlns="http://www.w3.org/2000/svg">
<path fill-rule="evenodd" clip-rule="evenodd" d="M8.02433 1.1976C7.54354 0.909126 6.92046 1.05622 6.61944 1.52925L4 5.64551V12.4999C4 13.3283 4.67157 13.9999 5.5 13.9999H10.5C10.9721 13.9999 11.4167 13.7776 11.7 13.3999L14 10.3332V7.49991C14 6.67148 13.3284 5.99991 12.5 5.99991H7.5C7.32671 5.99991 7.16578 5.91018 7.07467 5.76277C6.98357 5.61536 6.97529 5.43129 7.05279 5.2763L8.41734 2.5472C8.65906 2.06375 8.48782 1.47569 8.02433 1.1976ZM8.53883 0.340106C9.45039 0.887042 9.78718 2.04359 9.31176 2.99442L8.30902 4.99991H12.5C13.8807 4.99991 15 6.11919 15 7.49991V10.6666L12.5 13.9999C12.0279 14.6294 11.2869 14.9999 10.5 14.9999H5.5C4.11929 14.9999 3 13.8806 3 12.4999V5.35431L5.77577 0.992375C6.3678 0.0620459 7.59324 -0.227243 8.53883 0.340106ZM0 14.9999V4.99991H1V14.9999H0Z" fill="black"/>
</svg>
