<svg width="20" height="20" viewBox="0 0 20 20" fill="none" xmlns="http://www.w3.org/2000/svg">
<path fill-rule="evenodd" clip-rule="evenodd" d="M8.5 3.13333C8.22386 3.13333 8 3.38704 8 3.7V5.4H13V3.7C13 3.38704 12.7761 3.13333 12.5 3.13333H8.5ZM7 3.7C7 2.76112 7.67157 2 8.5 2H12.5C13.3284 2 14 2.76112 14 3.7V5.4H18V6.53333H17V17.3C17 18.2389 16.3284 19 15.5 19H5.5C4.67157 19 4 18.2389 4 17.3V6.53333H3V5.4H7V3.7ZM5 6.53333V17.3C5 17.613 5.22386 17.8667 5.5 17.8667H15.5C15.7761 17.8667 16 17.613 16 17.3V6.53333H5ZM10 15.6V9.93333H11V15.6H10ZM7 15.6V12.2H8V15.6H7ZM13 15.6V12.2H14V15.6H13Z" fill="black"/>
</svg>
