<svg width="20" height="20" viewBox="0 0 20 20" fill="none" xmlns="http://www.w3.org/2000/svg">
<path d="M19.021 7.866C19.256 6.862 20 5.854 20 5.854H16.654C14.781 4.641 12.504 4 9.98 4C7.363 4 4.999 4.651 3.135 5.876H0C0 5.876 0.738 6.863 0.976 7.864C0.365 8.701 0.003 9.716 0.003 10.828C0.003 13.591 2.252 15.837 5.014 15.837C6.59 15.837 7.99 15.1 8.915 13.958L9.978 15.557L11.053 13.942C11.528 14.553 12.153 15.053 12.891 15.393C14.104 15.94 15.465 16.005 16.716 15.543C19.305 14.58 20.629 11.691 19.68 9.104C19.505 8.641 19.28 8.228 19.005 7.866H19.021ZM16.38 14.594C15.378 14.965 14.292 14.922 13.32 14.475C12.632 14.158 12.068 13.658 11.663 13.037C11.499 12.787 11.35 12.517 11.246 12.226C11.122 11.898 11.06 11.558 11.029 11.212C10.966 10.523 11.066 9.816 11.368 9.169C11.816 8.198 12.619 7.459 13.618 7.09C15.693 6.325 17.993 7.39 18.758 9.456C19.52 11.522 18.457 13.826 16.395 14.59L16.38 14.594ZM8.322 13.066C7.602 14.125 6.387 14.826 5.013 14.826C2.806 14.826 1.012 13.029 1.012 10.83C1.012 8.627 2.807 6.828 5.013 6.828C7.217 6.828 9.012 8.628 9.012 10.83C9.012 10.967 8.988 11.091 8.972 11.226C8.905 11.904 8.688 12.539 8.324 13.079V13.066H8.322ZM2.472 10.775C2.472 12.142 3.584 13.254 4.948 13.254C6.311 13.254 7.42 12.144 7.42 10.775C7.42 9.416 6.31 8.307 4.948 8.307C3.584 8.306 2.473 9.416 2.472 10.775ZM12.514 10.775C12.514 12.142 13.618 13.254 14.985 13.254C16.348 13.254 17.459 12.146 17.459 10.775C17.459 9.416 16.349 8.307 14.985 8.307C13.621 8.307 12.508 9.416 12.508 10.775H12.514ZM3.324 10.775C3.324 9.882 4.05 9.157 4.938 9.157C5.827 9.157 6.563 9.884 6.563 10.775C6.563 11.673 5.838 12.402 4.938 12.402C4.037 12.402 3.313 11.673 3.313 10.775H3.324ZM13.354 10.775C13.354 9.882 14.08 9.157 14.981 9.157C15.867 9.157 16.591 9.884 16.591 10.775C16.591 11.673 15.865 12.402 14.965 12.402C14.065 12.402 13.34 11.673 13.34 10.775H13.354ZM9.977 4.875C11.775 4.875 13.402 5.199 14.826 5.843C14.291 5.858 13.765 5.951 13.24 6.143C11.976 6.606 10.976 7.531 10.425 8.747C10.163 9.298 10.027 9.88 9.977 10.467C9.79 7.905 7.677 5.873 5.076 5.82C6.501 5.208 8.153 4.875 9.94 4.875H9.977Z" fill="black"/>
</svg>
