<svg width="20" height="20" viewBox="0 0 20 20" fill="none" xmlns="http://www.w3.org/2000/svg">
<path d="M6.885 8.598C6.885 8.598 6.885 11.991 6.885 13.594C6.885 13.876 6.885 14.254 6.979 14.536C7.356 16.045 8.11 17.081 9.524 17.646C10.843 18.118 11.88 18.118 13.2 17.646C13.765 17.458 14.332 16.987 14.332 16.987L13.483 14.724C13.483 14.724 12.447 15.102 11.88 15.007C11.315 14.913 10.654 14.347 10.654 13.499C10.654 11.896 10.654 8.597 10.654 8.597H13.482V5.771H10.654V2H8.205C8.205 2 8.111 2.66 8.017 2.942C7.828 3.791 7.262 4.733 6.603 5.394C5.848 6.147 5 6.43 5 6.43V8.598H6.885Z" fill="black"/>
</svg>
