<svg width="20" height="20" viewBox="0 0 20 20" fill="none" xmlns="http://www.w3.org/2000/svg">
<path fill-rule="evenodd" clip-rule="evenodd" d="M3.06667 4.1537L3.06667 13.4114C7.60693 12.181 12.3931 12.181 16.9333 13.4114V4.1537C12.3931 5.38412 7.60693 5.38412 3.06667 4.1537ZM2 3.79355C2 3.26665 2.50432 2.88625 3.01095 3.031C7.57892 4.33613 12.4211 4.33613 16.9891 3.031C17.4957 2.88625 18 3.26665 18 3.79356V13.7715C18 14.2984 17.4957 14.6788 16.9891 14.5341C14.8777 13.9308 12.7077 13.6064 10.5333 13.5608V15.7159H15.8667V16.7825H4.13333V15.7159H9.46667V13.5608C7.29228 13.6064 5.12233 13.9308 3.01095 14.5341C2.50432 14.6788 2 14.2984 2 13.7715L2 3.79355Z" fill="black"/>
</svg>
