<svg width="15" height="15" viewBox="0 0 15 15" fill="none" xmlns="http://www.w3.org/2000/svg">
<path fill-rule="evenodd" clip-rule="evenodd" d="M0 0.5C0 0.223858 0.223858 0 0.5 0H14.5C14.7761 0 15 0.223858 15 0.5V8.5C15 8.63261 14.9473 8.75979 14.8536 8.85355L11.8536 11.8536C11.7598 11.9473 11.6326 12 11.5 12H6.68496L3.3254 14.8796C3.17714 15.0067 2.96847 15.0358 2.79107 14.9543C2.61367 14.8727 2.5 14.6953 2.5 14.5V12H0.5C0.223858 12 0 11.7761 0 11.5V0.5ZM1 1V11H3C3.27614 11 3.5 11.2239 3.5 11.5V13.4129L6.1746 11.1204C6.26523 11.0427 6.38064 11 6.5 11H11.2929L14 8.29289V1H1ZM7 8V3H8V8H7ZM10 8V3H11V8H10Z" fill="black"/>
</svg>
