<svg width="20" height="20" viewBox="0 0 20 20" fill="none" xmlns="http://www.w3.org/2000/svg">
<path fill-rule="evenodd" clip-rule="evenodd" d="M17.642 4.02752C17.8319 4.09326 17.964 4.26637 17.9773 4.46694C18.0322 5.295 17.9932 5.92746 17.7998 6.4729C17.6264 6.96173 17.3434 7.33984 16.98 7.70922V8.18751C16.98 13.0538 13.041 17 8.1803 17L8.13184 17C6.54865 17.0001 4.8465 17.0003 3.22239 15.9158C3.03921 15.7935 2.95764 15.5658 3.02154 15.355C3.08545 15.1442 3.27977 15 3.50004 15C5.19379 15 6.64679 14.2763 7.51008 13.6645C5.61055 12.8639 4.27032 11.6556 3.6039 10.1386C2.84314 8.40696 3.00442 6.37338 4.05114 4.27669C4.14002 4.09867 4.32598 3.99029 4.52468 4.00071C4.72337 4.01112 4.89698 4.13836 4.96675 4.3247C5.39838 5.47748 6.99799 7.74976 9.98923 7.98092V7.54112C9.98923 5.58615 11.5718 4.00002 13.5256 4.00002C14.436 4.00002 15.2644 4.35315 15.881 4.92878C16.3243 4.81009 16.7611 4.54977 17.1067 4.16562C17.2412 4.01618 17.452 3.96177 17.642 4.02752ZM9.98923 8.98375V9.00002L10.9892 9.00002V7.54112C10.9892 6.13698 12.1255 5.00002 13.5256 5.00002C14.247 5.00002 14.8954 5.31122 15.3452 5.80874L15.5254 6.00799L15.791 5.96776C16.2017 5.90555 16.6071 5.76044 16.9808 5.54263C16.9582 5.77986 16.9164 5.97204 16.8573 6.13857C16.75 6.44092 16.5727 6.69669 16.2699 7.00509C16.0987 7.08447 15.98 7.25783 15.98 7.45892V8.18751C15.98 12.503 12.4872 16 8.1803 16C7.1545 16 6.21265 15.9955 5.3177 15.7667C7.01026 15.3339 8.29952 14.4008 8.84615 13.8533C8.96851 13.7307 9.01874 13.5536 8.97893 13.3851C8.93911 13.2165 8.81492 13.0806 8.65066 13.0258C6.49557 12.3063 5.1333 11.1337 4.51944 9.73641C4.01136 8.57989 3.98587 7.20078 4.53525 5.67696C5.40792 7.07539 7.17719 8.79893 9.98923 8.98375Z" fill="black"/>
</svg>
