<svg width="20" height="20" viewBox="0 0 20 20" fill="none" xmlns="http://www.w3.org/2000/svg">
<path fill-rule="evenodd" clip-rule="evenodd" d="M2 2.5C2 2.22386 2.22386 2 2.5 2H16.5C16.7761 2 17 2.22386 17 2.5V10.5C17 10.6326 16.9473 10.7598 16.8536 10.8536L13.8536 13.8536C13.7598 13.9473 13.6326 14 13.5 14H8.68496L5.3254 16.8796C5.17714 17.0067 4.96847 17.0358 4.79107 16.9543C4.61367 16.8727 4.5 16.6953 4.5 16.5V14H2.5C2.22386 14 2 13.7761 2 13.5V2.5ZM3 3V13H5C5.27614 13 5.5 13.2239 5.5 13.5V15.4129L8.1746 13.1204C8.26523 13.0427 8.38064 13 8.5 13H13.2929L16 10.2929V3H3ZM9 10V5H10V10H9ZM12 10V5H13V10H12Z" fill="black"/>
</svg>
