<svg width="7" height="9" viewBox="0 0 7 9" fill="none" xmlns="http://www.w3.org/2000/svg">
<path fill-rule="evenodd" clip-rule="evenodd" d="M3.62132 1C2.72589 1 2 1.72589 2 2.62132V3H5.5C6.32843 3 7 3.67157 7 4.5V7.5C7 8.32843 6.32843 9 5.5 9H1.5C0.671573 9 0 8.32843 0 7.5V4.5C0 3.84689 0.417404 3.29127 1 3.08535V2.62132C1 1.1736 2.17361 0 3.62132 0C4.31654 0 4.98328 0.276174 5.47487 0.767767L5.85355 1.14645L5.14645 1.85355L4.76777 1.47487C4.46371 1.17082 4.05132 1 3.62132 1ZM1.5 4C1.22386 4 1 4.22386 1 4.5V7.5C1 7.77614 1.22386 8 1.5 8H5.5C5.77614 8 6 7.77614 6 7.5V4.5C6 4.22386 5.77614 4 5.5 4H1.5Z" fill="black"/>
</svg>
