<svg width="15" height="15" viewBox="0 0 15 15" fill="none" xmlns="http://www.w3.org/2000/svg">
<path fill-rule="evenodd" clip-rule="evenodd" d="M0 7.5C0 3.35786 3.35786 0 7.5 0C11.6421 0 15 3.35786 15 7.5C15 11.6421 11.6421 15 7.5 15C3.35786 15 0 11.6421 0 7.5ZM7.5 1C3.91015 1 1 3.91015 1 7.5C1 11.0899 3.91015 14 7.5 14C11.0899 14 14 11.0899 14 7.5C14 3.91015 11.0899 1 7.5 1ZM7.62132 4C6.72589 4 6 4.72589 6 5.62132V6H9.5C10.3284 6 11 6.67157 11 7.5V10.5C11 11.3284 10.3284 12 9.5 12H5.5C4.67157 12 4 11.3284 4 10.5V7.5C4 6.84689 4.4174 6.29127 5 6.08535V5.62132C5 4.1736 6.17361 3 7.62132 3C8.31654 3 8.98328 3.27617 9.47487 3.76777L9.85355 4.14645L9.14645 4.85355L8.76777 4.47487C8.46371 4.17082 8.05132 4 7.62132 4ZM5.5 7C5.22386 7 5 7.22386 5 7.5V10.5C5 10.7761 5.22386 11 5.5 11H9.5C9.77614 11 10 10.7761 10 10.5V7.5C10 7.22386 9.77614 7 9.5 7H5.5Z" fill="black"/>
</svg>
