<svg width="20" height="20" viewBox="0 0 20 20" fill="none" xmlns="http://www.w3.org/2000/svg">
<path fill-rule="evenodd" clip-rule="evenodd" d="M9.69065 4.55556C8.28354 4.55556 7.14286 5.68472 7.14286 7.07761V7.66667H12.6429C13.9447 7.66667 15 8.71134 15 10V14.6667C15 15.9553 13.9447 17 12.6429 17H6.35714C5.05533 17 4 15.9553 4 14.6667V10C4 8.98405 4.65592 8.11976 5.57143 7.79944V7.07761C5.57143 4.82561 7.41567 3 9.69065 3C10.7831 3 11.8309 3.4296 12.6034 4.1943L13.1984 4.78336L12.0873 5.88331L11.4922 5.29425C11.0144 4.82127 10.3664 4.55556 9.69065 4.55556ZM6.35714 9.22222C5.9232 9.22222 5.57143 9.57045 5.57143 10V14.6667C5.57143 15.0962 5.9232 15.4444 6.35714 15.4444H12.6429C13.0768 15.4444 13.4286 15.0962 13.4286 14.6667V10C13.4286 9.57045 13.0768 9.22222 12.6429 9.22222H6.35714Z" fill="black"/>
</svg>
