<svg width="9" height="15" viewBox="0 0 9 15" fill="none" xmlns="http://www.w3.org/2000/svg">
<path fill-rule="evenodd" clip-rule="evenodd" d="M1 0H8V5.08535C8.5826 5.29127 9 5.84689 9 6.5V10.5C9 11.3284 8.32843 12 7.5 12H7V14H6V15H5V14H4V15H3V14H2V12H1.5C0.671573 12 0 11.3284 0 10.5V6.5C0 5.84689 0.417404 5.29127 1 5.08535V0ZM2 5H7V1H2V5ZM3 12V13H6V12H3ZM3 4V2H4V4H3ZM5 4V2H6V4H5ZM1.5 6C1.22386 6 1 6.22386 1 6.5V10.5C1 10.7761 1.22386 11 1.5 11H7.5C7.77614 11 8 10.7761 8 10.5V6.5C8 6.22386 7.77614 6 7.5 6H1.5Z" fill="black"/>
</svg>
