<svg width="20" height="20" viewBox="0 0 20 20" fill="none" xmlns="http://www.w3.org/2000/svg">
<path fill-rule="evenodd" clip-rule="evenodd" d="M8.13333 3.93333C6.84425 3.93333 5.8 4.97734 5.8 6.26484C5.8 7.55235 6.84425 8.59635 8.13333 8.59635C9.42242 8.59635 10.4667 7.55235 10.4667 6.26484C10.4667 4.97734 9.42242 3.93333 8.13333 3.93333ZM4.86667 6.26484C4.86667 4.4613 6.32935 3 8.13333 3C9.93731 3 11.4 4.4613 11.4 6.26484C11.4 8.06839 9.93731 9.52968 8.13333 9.52968C6.32935 9.52968 4.86667 8.06839 4.86667 6.26484ZM11.4 9.06667C11.4 7.778 12.4447 6.73333 13.7333 6.73333C15.022 6.73333 16.0667 7.778 16.0667 9.06667C16.0667 10.3553 15.022 11.4 13.7333 11.4C12.4447 11.4 11.4 10.3553 11.4 9.06667ZM13.7333 7.66667C12.9601 7.66667 12.3333 8.29347 12.3333 9.06667C12.3333 9.83987 12.9601 10.4667 13.7333 10.4667C14.5065 10.4667 15.1333 9.83987 15.1333 9.06667C15.1333 8.29347 14.5065 7.66667 13.7333 7.66667ZM6.26667 12.3279C4.9779 12.3279 3.93333 13.3722 3.93333 14.6607V16.0582H12.3333V14.6607C12.3333 13.3722 11.2888 12.3279 10 12.3279H6.26667ZM3 14.6607C3 12.8565 4.46264 11.3945 6.26667 11.3945H10C11.804 11.3945 13.2667 12.8565 13.2667 14.6607V16.9915H3V14.6607ZM16.0667 15.1333C16.0667 14.1024 15.2309 13.2667 14.2 13.2667V12.3333C15.7464 12.3333 17 13.5869 17 15.1333V17H14.2V16.0667H16.0667V15.1333Z" fill="black"/>
</svg>
