<svg width="20" height="20" viewBox="0 0 20 20" fill="none" xmlns="http://www.w3.org/2000/svg">
<path fill-rule="evenodd" clip-rule="evenodd" d="M10 2.20073C8.24215 2.20073 6.81818 3.54383 6.81818 5.2002C6.81818 6.85657 8.24215 8.19968 10 8.19968C11.7579 8.19968 13.1818 6.85657 13.1818 5.2002C13.1818 3.54383 11.7579 2.20073 10 2.20073ZM5.54545 5.2002C5.54545 2.87994 7.54003 1 10 1C12.4599 1 14.4545 2.87994 14.4545 5.2002C14.4545 7.52045 12.4599 9.4004 10 9.4004C7.54003 9.4004 5.54545 7.52045 5.54545 5.2002ZM7.45455 13.0002C5.69714 13.0002 4.27273 14.3437 4.27273 16.0014V17.7993H15.7273V16.0014C15.7273 14.3437 14.3028 13.0002 12.5455 13.0002H7.45455ZM3 16.0014C3 13.6803 4.9945 11.7995 7.45455 11.7995H12.5455C15.0055 11.7995 17 13.6803 17 16.0014V19H3V16.0014Z" fill="black"/>
</svg>
