<svg width="20" height="20" viewBox="0 0 20 20" fill="none" xmlns="http://www.w3.org/2000/svg">
<path fill-rule="evenodd" clip-rule="evenodd" d="M9.5 4C8.11883 4 7 5.11857 7 6.49804C7 7.87751 8.11883 8.99609 9.5 8.99609C10.8812 8.99609 12 7.87751 12 6.49804C12 5.11857 10.8812 4 9.5 4ZM6 6.49804C6 4.56567 7.56717 3 9.5 3C11.4328 3 13 4.56567 13 6.49804C13 8.43041 11.4328 9.99609 9.5 9.99609C7.56717 9.99609 6 8.43041 6 6.49804ZM7.5 12.9941C6.11918 12.9941 5 14.113 5 15.4936V16.9909H14V15.4936C14 14.113 12.8808 12.9941 11.5 12.9941H7.5ZM4 15.4936C4 13.5605 5.56711 11.9941 7.5 11.9941H11.5C13.4329 11.9941 15 13.5605 15 15.4936V17.9909H4V15.4936Z" fill="black"/>
</svg>
