<svg width="15" height="15" viewBox="0 0 15 15" fill="none" xmlns="http://www.w3.org/2000/svg">
<path fill-rule="evenodd" clip-rule="evenodd" d="M0 1.5C0 0.671574 0.671573 0 1.5 0H13.5C14.3284 0 15 0.671573 15 1.5V13.5C15 14.3284 14.3284 15 13.5 15H1.5C0.671573 15 0 14.3284 0 13.5V1.5ZM4 14H11V12.4995C11 11.1189 9.88083 10 8.5 10H6.5C5.11917 10 4 11.1189 4 12.4995V14ZM12 14V12.4995C12 10.5664 10.4329 9 8.5 9H6.5C4.56712 9 3 10.5664 3 12.4995V14H1.5C1.22386 14 1 13.7761 1 13.5V1.5C1 1.22386 1.22386 1 1.5 1H13.5C13.7761 1 14 1.22386 14 1.5V13.5C14 13.7761 13.7761 14 13.5 14H12ZM5 5.5C5 4.11929 6.11929 3 7.5 3C8.88071 3 10 4.11929 10 5.5C10 6.88071 8.88071 8 7.5 8C6.11929 8 5 6.88071 5 5.5ZM7.5 4C6.67157 4 6 4.67157 6 5.5C6 6.32843 6.67157 7 7.5 7C8.32843 7 9 6.32843 9 5.5C9 4.67157 8.32843 4 7.5 4Z" fill="black"/>
</svg>
