<svg width="15" height="15" viewBox="0 0 15 15" fill="none" xmlns="http://www.w3.org/2000/svg">
<path fill-rule="evenodd" clip-rule="evenodd" d="M5.5 1C4.11883 1 3 2.11857 3 3.49804C3 4.87751 4.11883 5.99609 5.5 5.99609C6.88117 5.99609 8 4.87751 8 3.49804C8 2.11857 6.88117 1 5.5 1ZM2 3.49804C2 1.56567 3.56717 0 5.5 0C7.43283 0 9 1.56567 9 3.49804C9 5.43041 7.43283 6.99609 5.5 6.99609C3.56717 6.99609 2 5.43041 2 3.49804ZM15 8H10V7H15V8ZM7.5 9.99414L3.5 9.99414C2.11918 9.99414 1 11.113 1 12.4936V13.9909L10 13.9909V12.4936C10 11.113 8.88082 9.99414 7.5 9.99414ZM3.5 8.99414L7.5 8.99414C9.43288 8.99414 11 10.5605 11 12.4936V14.9909L0 14.9909V12.4936C0 10.5605 1.56711 8.99414 3.5 8.99414Z" fill="black"/>
</svg>
