<svg width="15" height="15" viewBox="0 0 15 15" fill="none" xmlns="http://www.w3.org/2000/svg">
<path fill-rule="evenodd" clip-rule="evenodd" d="M7.5 1C3.90974 1 1 3.91029 1 7.5C1 11.0897 3.90974 14 7.5 14C11.0903 14 14 11.0897 14 7.5C14 3.91029 11.0903 1 7.5 1ZM0 7.5C0 3.35806 3.35739 0 7.5 0C11.6426 0 15 3.35806 15 7.5C15 11.6419 11.6426 15 7.5 15C3.35739 15 0 11.6419 0 7.5ZM7.72549 5.29726C6.10442 5.1645 4.45435 5.36298 3.10135 5.84102L2.76821 4.89814C4.26817 4.36818 6.06118 4.15761 7.80712 4.30059C9.55125 4.44343 11.2863 4.94241 12.6505 5.86901L12.0886 6.69623C10.9042 5.8917 9.34836 5.43016 7.72549 5.29726ZM11.1649 9.12359C9.17433 7.69462 6.772 7.38275 3.32624 7.99237L3.15202 7.00766C6.73182 6.37433 9.44985 6.66142 11.7481 8.31123L11.1649 9.12359ZM7.05416 9.88791C5.86144 9.77072 4.64825 9.87576 3.6619 10.1162L3.42506 9.14466C4.51862 8.87807 5.84491 8.76428 7.15195 8.8927C8.45578 9.02081 9.77768 9.39382 10.8311 10.1345L10.2559 10.9525C9.38823 10.3424 8.25009 10.0054 7.05416 9.88791Z" fill="black"/>
</svg>
