<svg width="12" height="15" viewBox="0 0 12 15" fill="none" xmlns="http://www.w3.org/2000/svg">
<path fill-rule="evenodd" clip-rule="evenodd" d="M6.2691 0.0565121C6.43447 -0.0295868 6.634 -0.0165295 6.78674 0.0903855L11.7867 3.59039C11.9213 3.68457 12.001 3.83884 12 4.00308C11.999 4.16732 11.9174 4.32059 11.7817 4.41312L7.25424 7.5L11.7817 10.5869C11.9174 10.6794 11.999 10.8327 12 10.9969C12.001 11.1612 11.9213 11.3154 11.7867 11.4096L6.78674 14.9096C6.634 15.0165 6.43447 15.0296 6.2691 14.9435C6.10373 14.8574 6.00001 14.6864 6.00001 14.5V8.35516L0.781675 11.9131L0.218338 11.0869L5.4791 7.5L0.218338 3.91312L0.781675 3.08689L6.00001 6.64484V0.500001C6.00001 0.313564 6.10373 0.142611 6.2691 0.0565121ZM7.00001 8.53698L10.6204 11.0054L7.00001 13.5397V8.53698ZM7.00001 6.46302V1.46033L10.6204 3.99459L7.00001 6.46302Z" fill="black"/>
</svg>
