<svg width="15" height="15" viewBox="0 0 15 15" fill="none" xmlns="http://www.w3.org/2000/svg">
<path fill-rule="evenodd" clip-rule="evenodd" d="M0 7.50001C5.96046e-08 3.35787 3.35786 7.56979e-06 7.5 7.62939e-06C11.6421 7.689e-06 15 3.35787 15 7.50001C15 11.6421 11.6421 15 7.5 15C3.35786 15 -5.96046e-08 11.6421 0 7.50001ZM7.5 1.00001C3.91015 1.00001 1 3.91016 1 7.50001C1 11.0899 3.91015 14 7.5 14C11.0899 14 14 11.0899 14 7.50001C14 3.91016 11.0899 1.00001 7.5 1.00001ZM7.5 3.7929L10.2071 6.50001L9.5 7.20711L7.5 5.20711L5.5 7.20711L4.79289 6.50001L7.5 3.7929ZM7.5 6.7929L10.2071 9.50001L9.5 10.2071L7.5 8.20711L5.5 10.2071L4.79289 9.50001L7.5 6.7929Z" fill="black"/>
</svg>
