<svg width="15" height="15" viewBox="0 0 15 15" fill="none" xmlns="http://www.w3.org/2000/svg">
<path fill-rule="evenodd" clip-rule="evenodd" d="M2.23356 2.15915C3.63701 0.775442 5.52875 -0.000194841 7.49962 3.6713e-08C10.3691 3.6713e-08 13.0644 1.37732 14.3248 3.84273L14.3257 3.84455C14.3353 3.86355 14.3458 3.88403 14.357 3.90597C14.5613 4.30511 15.014 5.18934 14.9997 6.47496C14.9979 7.14653 14.8207 7.80602 14.4857 8.38812C14.1507 8.9704 13.6693 9.45504 13.0893 9.79405C12.5118 10.1366 11.8531 10.3182 11.1816 10.3198L11.1804 10.3198C11.1993 10.3198 10.7881 10.3387 10.2842 10.2847C9.79756 10.2325 9.12364 10.1043 8.62222 9.75565L8.62131 9.75502C8.3914 9.59439 8.14957 9.32505 8.14957 8.94978C8.14957 8.71582 8.24689 8.54482 8.33548 8.43603C8.37621 8.38602 8.41675 8.34716 8.43702 8.32773C8.44072 8.32418 8.44392 8.32109 8.44644 8.31865C8.66211 8.03065 8.75657 7.70924 8.75657 7.55151C8.75657 7.5374 8.7564 7.52219 8.75603 7.50598C8.75583 7.5013 8.75572 7.49681 8.75565 7.49256L8.7554 7.48381C8.75492 7.4687 8.7543 7.45283 8.75348 7.43626C8.73904 7.19361 8.6537 6.96004 8.50749 6.76481C8.39028 6.60777 8.2378 6.47933 8.06296 6.39086C7.88812 6.30238 7.69516 6.2556 7.49921 6.25417L7.49369 6.25413C7.24652 6.2496 7.05455 6.33615 6.88705 6.41537C6.88705 6.41537 6.88705 6.41537 6.88705 6.41537L6.87596 6.42061C6.6921 6.52427 6.53815 6.67387 6.42923 6.85491C6.31761 7.04045 6.25732 7.25232 6.25453 7.46881C6.25643 9.3892 8.19077 11.0301 10.5963 11.0301C11.2064 11.0313 11.8127 10.9224 12.3842 10.7085C12.5607 10.6424 12.7331 10.5654 12.9002 10.4782C13.0382 10.4036 13.1969 10.3762 13.3521 10.4002C13.51 10.4247 13.6552 10.5011 13.7649 10.6173C13.8745 10.7335 13.9423 10.883 13.9575 11.0421C13.9727 11.2007 13.9347 11.3599 13.8495 11.4945C12.9381 12.9387 11.5621 14.0296 9.94811 14.5876L9.94395 14.589L9.87646 14.6117L9.87786 14.616C8.13416 15.1972 6.23772 15.1179 4.54866 14.393C2.8596 13.6682 1.49554 12.3483 0.715508 10.684L0.714793 10.6824C0.238334 9.65683 -0.00377598 8.538 0.00602615 7.40718C0.00602886 7.403 0.00603893 7.39882 0.00605646 7.39464L4.57764e-05 7.39456C0.000102282 7.39026 0.000165612 7.38596 0.000237226 7.38167C0.0177911 6.3286 0.489348 5.39648 1.23365 4.68886C1.44694 4.48554 1.68268 4.30078 1.9367 4.13701C1.93634 4.13761 1.93598 4.1382 1.93562 4.13879C2.76984 3.60127 3.80005 3.28925 4.87473 3.28925V4.28925C3.6629 4.28925 2.60669 4.74594 1.90438 5.4342C1.43958 5.88812 1.12924 6.44255 1.03287 7.03245C1.0314 7.04301 1.02998 7.05356 1.02863 7.0641C1.01141 7.17593 1.00175 7.28902 1.00003 7.40293C1 7.40467 0.999978 7.40642 0.999953 7.40816M1.02863 7.0641C1.12135 6.4619 1.43322 5.89594 1.90438 5.4342C2.60876 4.74633 3.66788 4.28925 4.87473 4.28925C5.04463 4.28925 6.03557 4.3085 6.93901 4.7826M1.02863 7.0641C1.01359 7.18105 1.00603 7.29639 1.00603 7.40947V7.41395C0.997224 8.39667 1.20741 9.36901 1.62134 10.2603C2.29742 11.7024 3.47944 12.846 4.94302 13.4741C5.08051 13.5331 5.21959 13.5871 5.35999 13.6363C5.08852 13.3955 4.84439 13.1243 4.63267 12.8274C4.21097 12.249 3.92074 11.5853 3.7823 10.883C3.64367 10.1796 3.6606 9.4545 3.8319 8.75841C4.00319 8.06232 4.32471 7.41214 4.77389 6.85347C4.80881 6.81004 4.84443 6.76725 4.88074 6.72511C5.31073 6.22598 5.8371 5.81771 6.42907 5.52561C6.43005 5.52513 6.43114 5.52487 6.43211 5.52439L6.43992 5.52054L6.45949 5.51138L6.46839 5.50717C6.64986 5.42128 7.0203 5.24594 7.50925 5.25422M9.29113 5.68664C8.92673 5.05766 8.39442 4.41734 7.40391 3.89723C6.27969 3.30723 5.08762 3.28925 4.87473 3.28925C3.79738 3.28925 2.76896 3.60044 1.9367 4.13701C2.21357 3.67899 2.54818 3.25327 2.93565 2.87125C4.15196 1.67204 5.79144 0.999831 7.49952 1C10.0697 1 12.3766 2.22968 13.4339 4.29705C13.4431 4.31511 13.4528 4.33409 13.4629 4.354C13.654 4.72806 14.0117 5.42853 13.9997 6.4657L13.9997 6.47048C13.9987 6.96853 13.8674 7.45767 13.619 7.88936C13.3706 8.32104 13.0136 8.68027 12.5835 8.93141L12.5803 8.93329C12.1562 9.18515 11.6724 9.31863 11.1792 9.31981C11.1765 9.31985 11.1716 9.32001 11.1648 9.32023C11.091 9.32258 10.7826 9.3324 10.3907 9.29039C9.95265 9.24344 9.50674 9.13953 9.22026 8.9529C9.22214 8.95053 9.22403 8.94812 9.22592 8.94567C9.55461 8.51825 9.75657 7.97802 9.75657 7.55151C9.75657 7.52878 9.75626 7.50357 9.75557 7.47609C9.75554 7.47463 9.7555 7.47311 9.75546 7.47152C9.75546 7.47155 9.75546 7.4715 9.75546 7.47152C9.75544 7.47063 9.75541 7.46963 9.75538 7.46869L9.75522 7.4632C9.7552 7.46249 9.75518 7.46177 9.75515 7.46106L9.75488 7.45154C9.75415 7.42931 9.75317 7.40577 9.7519 7.38102C9.74775 7.29989 9.74032 7.20365 9.72777 7.09659C9.7155 6.9918 9.69843 6.87752 9.67501 6.75742C9.60904 6.41908 9.49268 6.03463 9.29113 5.68664ZM6.93901 4.7826C7.2261 4.93335 7.46228 5.09384 7.66023 5.26053ZM8.75581 7.49796C8.75585 7.49928 8.75589 7.50064 8.75594 7.50204C8.75606 7.50563 8.75623 7.50948 8.75647 7.51356C8.75698 7.52245 8.75797 7.53557 8.76012 7.55151C8.76066 7.55551 8.76127 7.55968 8.76196 7.56401C8.76374 7.57511 8.76642 7.58938 8.77052 7.60581C8.77452 7.62186 8.78081 7.6437 8.79075 7.6688C8.80039 7.69315 8.81641 7.7281 8.84249 7.76635C8.86841 7.80438 8.91099 7.85551 8.97664 7.89966C8.99643 7.91297 9.01758 7.92512 9.03995 7.93581C9.08236 7.95609 9.12913 7.97113 9.17922 7.97887C9.1413 7.97123 9.07506 7.95068 9.03995 7.93581M8.75594 7.50204C8.75589 7.50064 8.75585 7.49928 8.75581 7.49796ZM5.27511 7.87326C5.06048 8.22016 4.90087 8.59934 4.80293 8.99737C4.66649 9.5518 4.65301 10.1294 4.76342 10.6896C4.87384 11.2498 5.10548 11.779 5.44211 12.2402L5.4455 12.2449C5.73368 12.6494 6.09768 12.994 6.51721 13.2595L6.52195 13.2616L6.55182 13.2802C6.99707 13.5587 7.49744 13.7373 8.0184 13.8037C8.05526 13.8084 8.09217 13.8125 8.1291 13.8161C8.46422 13.8483 8.80174 13.8337 9.13212 13.7731C9.29506 13.7382 9.44292 13.6998 9.55842 13.6636L9.62339 13.6418C10.7082 13.2663 11.6688 12.6132 12.4139 11.755C11.8259 11.9383 11.2129 12.0313 10.5958 12.0301C7.97146 12.0299 5.52297 10.307 5.27511 7.87326ZM0.00605646 7.39464L4.57764e-05 7.39456C0.000102282 7.39026 0.000165612 7.38596 0.000237226 7.38167C0.0311446 5.41552 0.833067 3.53996 2.23356 2.15915M9.32586 7.97979C9.29062 7.98327 9.22488 7.98355 9.1875 7.98008C9.20104 7.98194 9.21481 7.98326 9.2288 7.98401C9.2633 7.98587 9.29577 7.98407 9.32586 7.97979Z" fill="black"/>
</svg>
