<svg width="15" height="15" viewBox="0 0 15 15" fill="none" xmlns="http://www.w3.org/2000/svg">
<path fill-rule="evenodd" clip-rule="evenodd" d="M0 7.5C0 3.35786 3.35786 0 7.5 0C11.6421 0 15 3.35786 15 7.5C15 11.6421 11.6421 15 7.5 15C3.35786 15 0 11.6421 0 7.5ZM7.5 1C3.91015 1 1 3.91015 1 7.5C1 11.0899 3.91015 14 7.5 14C11.0899 14 14 11.0899 14 7.5C14 3.91015 11.0899 1 7.5 1ZM7.5 3.35969L10.7028 5.92191L10.0781 6.70278L7.5 4.64031L4.92191 6.70278L4.29722 5.92191L7.5 3.35969ZM4.92191 8.29722L7.5 10.3597L10.0781 8.29722L10.7028 9.07809L7.5 11.6403L4.29722 9.07809L4.92191 8.29722Z" fill="black"/>
</svg>
