<svg width="11" height="15" viewBox="0 0 11 15" fill="none" xmlns="http://www.w3.org/2000/svg">
<path fill-rule="evenodd" clip-rule="evenodd" d="M2.5 1C2.22386 1 2 1.22386 2 1.5V3H7V1.5C7 1.22386 6.77614 1 6.5 1H2.5ZM8 3.08535V1.5C8 0.671573 7.32843 0 6.5 0H2.5C1.67157 0 1 0.671573 1 1.5V3.08535C0.417404 3.29127 0 3.84689 0 4.5V10.5C0 11.1531 0.417404 11.7087 1 11.9146V13.5C1 14.3284 1.67157 15 2.5 15H6.5C7.32843 15 8 14.3284 8 13.5V11.9146C8.5826 11.7087 9 11.1531 9 10.5V4.5C9 3.84689 8.5826 3.29127 8 3.08535ZM7 12H2V13.5C2 13.7761 2.22386 14 2.5 14H6.5C6.77614 14 7 13.7761 7 13.5V12ZM1.5 4C1.22386 4 1 4.22386 1 4.5V10.5C1 10.7761 1.22386 11 1.5 11H7.5C7.77614 11 8 10.7761 8 10.5V4.5C8 4.22386 7.77614 4 7.5 4H1.5ZM10 9V6H11V9H10Z" fill="black"/>
</svg>
