<svg width="15" height="15" viewBox="0 0 15 15" fill="none" xmlns="http://www.w3.org/2000/svg">
<path fill-rule="evenodd" clip-rule="evenodd" d="M0.146446 0.146446C0.291016 0.00187637 0.509038 -0.0401109 0.696959 0.0404268L14.697 6.04043C14.8878 6.1222 15.0082 6.31337 14.9996 6.52078C14.9909 6.72819 14.8551 6.9087 14.6581 6.97434L8.89528 8.89528L6.97434 14.6581C6.9087 14.8551 6.72819 14.9909 6.52078 14.9996C6.31337 15.0082 6.1222 14.8878 6.04043 14.697L0.0404268 0.696959C-0.0401109 0.509038 0.00187637 0.291016 0.146446 0.146446ZM1.45197 1.45197L6.44153 13.0943L8.02566 8.34189C8.07543 8.19258 8.19258 8.07543 8.34189 8.02566L13.0943 6.44153L1.45197 1.45197Z" fill="black"/>
</svg>
