<svg width="15" height="15" viewBox="0 0 15 15" fill="none" xmlns="http://www.w3.org/2000/svg">
<path fill-rule="evenodd" clip-rule="evenodd" d="M0.122276 0.172399C0.217245 0.0628994 0.355058 0 0.500003 0H14.5C14.6449 0 14.7828 0.0628994 14.8777 0.172399C14.9727 0.281899 15.0155 0.427222 14.995 0.570711L12.995 14.5707C12.9598 14.817 12.7488 15 12.5 15H2.5C2.25118 15 2.04022 14.817 2.00503 14.5707L0.00502854 0.570711C-0.0154699 0.427222 0.0273076 0.281899 0.122276 0.172399ZM1.07651 1L2.93365 14H12.0664L13.3521 5H10.4601L9.99828 10.5415C9.97668 10.8007 9.76005 11 9.5 11H5.5C5.23996 11 5.02333 10.8007 5.00173 10.5415L4.50173 4.54152C4.49012 4.40218 4.53738 4.26434 4.63206 4.16145C4.72674 4.05855 4.86018 4 5 4H13.4949L13.9235 1H1.07651ZM9.4566 5H5.5434L5.96007 10H9.03994L9.4566 5Z" fill="black"/>
</svg>
