<svg width="15" height="15" viewBox="0 0 15 15" fill="none" xmlns="http://www.w3.org/2000/svg">
<path fill-rule="evenodd" clip-rule="evenodd" d="M0 1.5C0 0.671574 0.671573 0 1.5 0H13.5C14.3284 0 15 0.671573 15 1.5V13.5C15 14.3284 14.3284 15 13.5 15H1.5C0.671573 15 0 14.3284 0 13.5V1.5ZM1.5 1C1.22386 1 1 1.22386 1 1.5V13.5C1 13.7761 1.22386 14 1.5 14H13.5C13.7761 14 14 13.7761 14 13.5V1.5C14 1.22386 13.7761 1 13.5 1H1.5ZM4 5H3V4H4.75L7.5 7.66667L10.25 4H12V5H11V10H12V11H9V10H10V6L7.5 9.33333L5 6V10H6V11H3V10H4V5Z" fill="black"/>
</svg>
