<svg width="12" height="15" viewBox="0 0 12 15" fill="none" xmlns="http://www.w3.org/2000/svg">
<path fill-rule="evenodd" clip-rule="evenodd" d="M10.5904 5.78684L7.09038 0.786841L7.90962 0.213379L11.4096 5.21338L10.5904 5.78684ZM9.66554 6.87178L4.66552 2.37176L5.33448 1.62846L10.3345 6.12849L9.66554 6.87178ZM9.17348 8.04585L3.07346 4.94585L3.52651 4.05437L9.62652 7.15437L9.17348 8.04585ZM8.89076 9.48803L2.19075 7.98803L2.40922 7.01219L9.10924 8.51219L8.89076 9.48803ZM0 9.00011H1V14.0001H10V9.00011H11V15.0001H0V9.00011ZM8.95025 11.1976L1.95025 10.4976L2.04975 9.50259L9.04975 10.2026L8.95025 11.1976ZM9 13.0001H2V12.0001H9V13.0001Z" fill="black"/>
</svg>
