<svg width="15" height="15" viewBox="0 0 15 15" fill="none" xmlns="http://www.w3.org/2000/svg">
<path fill-rule="evenodd" clip-rule="evenodd" d="M8 0V1.99933H7V0H8ZM1.49976 0.792222L3.20711 2.49842L2.50024 3.20576L0.792893 1.49957L1.49976 0.792222ZM14.2071 1.49957L12.4998 3.20576L11.7929 2.49842L13.5002 0.792222L14.2071 1.49957ZM7.5 4.99738C6.11884 4.99738 5 6.11595 5 7.49542C5 8.87489 6.11884 9.99347 7.5 9.99347C8.88116 9.99347 10 8.87489 10 7.49542C10 6.11595 8.88116 4.99738 7.5 4.99738ZM4 7.49542C4 5.56305 5.56716 3.99738 7.5 3.99738C9.43284 3.99738 11 5.56305 11 7.49542C11 9.42779 9.43284 10.9935 7.5 10.9935C5.56716 10.9935 4 9.42779 4 7.49542ZM0 6.99542H2V7.99542H0V6.99542ZM13 6.99542H15V7.99542H13V6.99542ZM3.20711 12.4923L1.49978 14.1986L0.792893 13.4913L2.50022 11.785L3.20711 12.4923ZM12.4998 11.785L14.2071 13.4913L13.5002 14.1986L11.7929 12.4923L12.4998 11.785ZM8 12.9915V14.9908H7V12.9915H8Z" fill="black"/>
</svg>
