<svg width="15" height="13" viewBox="0 0 15 13" fill="none" xmlns="http://www.w3.org/2000/svg">
<path fill-rule="evenodd" clip-rule="evenodd" d="M8.74641 0.0649355C8.90313 0.153698 9 0.31989 9 0.5V12.4922C9 12.6723 8.90313 12.8385 8.74641 12.9272C8.58969 13.016 8.39735 13.0136 8.24288 12.921L3.36159 9.99413H1.5C0.672491 9.99413 0 9.3242 0 8.49479V4.49739C0 3.66798 0.672491 2.99804 1.5 2.99804H3.36159L8.24288 0.0711796C8.39735 -0.0214419 8.58969 -0.0238271 8.74641 0.0649355ZM8 1.3828L3.63841 3.99804H1.5C1.22351 3.99804 1 4.22153 1 4.49739V8.49479C1 8.77065 1.22351 8.99413 1.5 8.99413H3.63841L8 11.6094V1.3828ZM14 12V1H15V12H14ZM12 10V3H13V10H12ZM10 8V5H11V8H10Z" fill="black"/>
</svg>
