<svg width="15" height="14" viewBox="0 0 15 14" fill="none" xmlns="http://www.w3.org/2000/svg">
<path fill-rule="evenodd" clip-rule="evenodd" d="M7 4L1.5 4C0.671574 4 6.85453e-07 4.67157 6.25849e-07 5.5L0 12.5C-5.96046e-08 13.3284 0.671573 14 1.5 14L13.5 14C14.3284 14 15 13.3284 15 12.5V5.5C15 4.67157 14.3284 4 13.5 4L8 4V0H7V4ZM1.5 5C1.22386 5 1 5.22386 1 5.5L1 12.5C1 12.7761 1.22386 13 1.5 13L13.5 13C13.7761 13 14 12.7761 14 12.5V5.5C14 5.22386 13.7761 5 13.5 5L1.5 5ZM4 6H5V7H4V6ZM7 6H8V7H7V6ZM10 6H11V7H10V6ZM4 8H5V9H4V8ZM7 8H8V9H7V8ZM10 8H11V9H10V8ZM4 11L11 11V12L4 12V11Z" fill="black"/>
</svg>
