<svg width="11" height="15" viewBox="0 0 11 15" fill="none" xmlns="http://www.w3.org/2000/svg">
<path fill-rule="evenodd" clip-rule="evenodd" d="M8.79961 0.625137C10.1482 1.81544 11 3.55856 11 5.50001C11 9.08986 8.08986 12 4.50001 12C2.83556 12 1.31619 11.3737 0.16655 10.3448L0.833463 9.59965C1.80685 10.4709 3.09104 11 4.50001 11C7.53757 11 10 8.53757 10 5.50001C10 3.85737 9.28053 2.38341 8.13788 1.37488L8.79961 0.625137ZM5.00001 14V12H4.50001H4.00001V14H1.00001V15H8.00001V14H5.00001ZM1.00001 5.50001C1.00001 3.56701 2.56701 2.00001 4.50001 2.00001C6.433 2.00001 8.00001 3.56701 8.00001 5.50001C8.00001 7.433 6.433 9.00001 4.50001 9.00001C2.56701 9.00001 1.00001 7.433 1.00001 5.50001ZM4.50001 3.00001C3.11929 3.00001 2.00001 4.11929 2.00001 5.50001C2.00001 6.88072 3.11929 8.00001 4.50001 8.00001C5.88072 8.00001 7.00001 6.88072 7.00001 5.50001C7.00001 4.11929 5.88072 3.00001 4.50001 3.00001Z" fill="black"/>
</svg>
