<svg width="15" height="15" viewBox="0 0 15 15" fill="none" xmlns="http://www.w3.org/2000/svg">
<path fill-rule="evenodd" clip-rule="evenodd" d="M3 2V0H4V2H11V0H12V2H13.5C14.3284 2 15 2.67157 15 3.5V11.5C15 12.3284 14.3284 13 13.5 13H1.5C0.671574 13 0 12.3284 0 11.5V3.5C0 2.67157 0.671573 2 1.5 2H3ZM3 12H7C7 10.8955 6.10466 10 5 10C3.8954 10 3 10.8955 3 12ZM8 12C8 10.3431 6.65677 9 5 9C3.34318 9 2 10.343 2 11.9999L1.5 12C1.22386 12 1 11.7761 1 11.5V3.5C1 3.22386 1.22386 3 1.5 3H13.5C13.7761 3 14 3.22386 14 3.5V11.5C14 11.7761 13.7761 12 13.5 12H8ZM3 6C3 4.89543 3.89543 4 5 4C6.10457 4 7 4.89543 7 6C7 7.10457 6.10457 8 5 8C3.89543 8 3 7.10457 3 6ZM5 5C4.44772 5 4 5.44772 4 6C4 6.55228 4.44772 7 5 7C5.55228 7 6 6.55228 6 6C6 5.44772 5.55228 5 5 5ZM12 6H9V5H12V6ZM12 9H9V8H12V9ZM15 15H0V14H15V15Z" fill="black"/>
</svg>
