<svg width="15" height="13" viewBox="0 0 15 13" fill="none" xmlns="http://www.w3.org/2000/svg">
<path fill-rule="evenodd" clip-rule="evenodd" d="M14.6419 0.0275194C14.8319 0.0932641 14.964 0.266371 14.9773 0.466943C15.0322 1.295 14.9932 1.92746 14.7997 2.4729C14.6263 2.96173 14.3434 3.33984 13.9799 3.70922V4.18751C13.9799 9.0538 10.0409 13 5.18025 13L5.1318 13C3.5486 13.0001 1.84645 13.0003 0.222346 11.9158C0.0391597 11.7935 -0.0424066 11.5658 0.0214987 11.355C0.085404 11.1442 0.279725 11 0.499993 11C2.19374 11 3.64674 10.2763 4.51004 9.66447C2.61051 8.86392 1.27027 7.65556 0.603853 6.13863C-0.156903 4.40696 0.00437236 2.37338 1.0511 0.276689C1.13997 0.0986709 1.32593 -0.00971238 1.52463 0.000705529C1.72333 0.0111235 1.89694 0.13836 1.9667 0.324696C2.39833 1.47748 3.99794 3.74976 6.98919 3.98092V3.54112C6.98919 1.58615 8.57176 1.96884e-05 10.5256 1.96884e-05C11.436 1.96884e-05 12.2644 0.353153 12.8809 0.928776C13.3243 0.810085 13.7611 0.549773 14.1067 0.165616C14.2411 0.0161769 14.452 -0.0382252 14.6419 0.0275194ZM6.98919 4.98375V5.00002L7.98919 5.00002V3.54112C7.98919 2.13698 9.1255 1.00002 10.5256 1.00002C11.247 1.00002 11.8953 1.31122 12.3452 1.80874L12.5253 2.00799L12.7909 1.96776C13.2017 1.90555 13.607 1.76044 13.9807 1.54263C13.9582 1.77986 13.9163 1.97204 13.8573 2.13857C13.75 2.44092 13.5727 2.69668 13.2698 3.00509C13.0986 3.08447 12.9799 3.25783 12.9799 3.45892V4.18751C12.9799 8.50297 9.48717 12 5.18025 12C4.15445 12 3.21261 11.9955 2.31765 11.7667C4.01022 11.3339 5.29947 10.4008 5.84611 9.8533C5.96846 9.73075 6.0187 9.55361 5.97888 9.38507C5.93907 9.21653 5.81488 9.08059 5.65061 9.02575C3.49553 8.30628 2.13326 7.1337 1.5194 5.73641C1.01131 4.57989 0.98582 3.20078 1.53521 1.67696C2.40788 3.07539 4.17714 4.79893 6.98919 4.98375Z" fill="black"/>
</svg>
