<svg width="15" height="15" viewBox="0 0 15 15" fill="none" xmlns="http://www.w3.org/2000/svg">
<path fill-rule="evenodd" clip-rule="evenodd" d="M0 3.5C0 1.567 1.567 0 3.5 0H11.5C13.433 0 15 1.567 15 3.5C15 5.433 13.433 7 11.5 7H3.5C1.567 7 0 5.433 0 3.5ZM3.5 1C2.11929 1 1 2.11929 1 3.5C1 4.88071 2.11929 6 3.5 6H11.5C12.8807 6 14 4.88071 14 3.5C14 2.11929 12.8807 1 11.5 1H3.5ZM3.5 3C3.22386 3 3 3.22386 3 3.5C3 3.77614 3.22386 4 3.5 4C3.77614 4 4 3.77614 4 3.5C4 3.22386 3.77614 3 3.5 3ZM2 3.5C2 2.67157 2.67157 2 3.5 2C4.32843 2 5 2.67157 5 3.5C5 4.32843 4.32843 5 3.5 5C2.67157 5 2 4.32843 2 3.5ZM3.5 9C2.11929 9 1 10.1193 1 11.5C1 12.8807 2.11929 14 3.5 14H11.5C12.8807 14 14 12.8807 14 11.5C14 10.1193 12.8807 9 11.5 9L3.5 9ZM2.68221e-07 11.5C4.17233e-07 9.567 1.567 8 3.5 8L11.5 8C13.433 8 15 9.567 15 11.5C15 13.433 13.433 15 11.5 15H3.5C1.567 15 8.9407e-08 13.433 2.68221e-07 11.5ZM10 11.5C10 10.6716 10.6716 10 11.5 10C12.3284 10 13 10.6716 13 11.5C13 12.3284 12.3284 13 11.5 13C10.6716 13 10 12.3284 10 11.5ZM11.5 11C11.2239 11 11 11.2239 11 11.5C11 11.7761 11.2239 12 11.5 12C11.7761 12 12 11.7761 12 11.5C12 11.2239 11.7761 11 11.5 11Z" fill="black"/>
</svg>
