<svg width="15" height="15" viewBox="0 0 15 15" fill="none" xmlns="http://www.w3.org/2000/svg">
<path fill-rule="evenodd" clip-rule="evenodd" d="M7.18155 0.114518C7.36639 -0.0381728 7.63359 -0.0381728 7.81843 0.114518L8.96878 1.0648L10.4175 0.707745C10.6503 0.650373 10.8911 0.766309 10.9913 0.984076L11.6155 2.33937L13.0757 2.64626C13.3103 2.69557 13.4769 2.90448 13.4727 3.14419L13.447 4.63607L14.6294 5.54612C14.8194 5.69235 14.8789 5.95285 14.7712 6.16703L14.1007 7.5L14.7712 8.83297C14.8789 9.04715 14.8194 9.30765 14.6294 9.45388L13.447 10.3639L13.4727 11.8558C13.4769 12.0955 13.3103 12.3044 13.0757 12.3537L11.6155 12.6606L10.9913 14.0159C10.8911 14.2337 10.6503 14.3496 10.4175 14.2923L8.96879 13.9352L7.81843 14.8855C7.63359 15.0382 7.36639 15.0382 7.18155 14.8855L6.0312 13.9352L4.58246 14.2923C4.34967 14.3496 4.10893 14.2337 4.00865 14.0159L3.38453 12.6606L1.92434 12.3537C1.68971 12.3044 1.52311 12.0955 1.52725 11.8558L1.55298 10.3639L0.37054 9.45388C0.180547 9.30765 0.121089 9.04715 0.228821 8.83297L0.899304 7.5L0.228821 6.16703C0.121089 5.95285 0.180547 5.69235 0.37054 5.54612L1.55298 4.63607L1.52725 3.14419C1.52311 2.90448 1.68971 2.69557 1.92433 2.64626L3.38453 2.33937L4.00865 0.984076C4.10893 0.766309 4.34967 0.650373 4.58246 0.707745L6.0312 1.0648L7.18155 0.114518ZM2.54216 11L2.53422 11.4601L3.83633 11.7337C3.99117 11.7663 4.12147 11.8702 4.18765 12.0139L4.7442 13.2225L6.03609 12.9041C6.18972 12.8662 6.3522 12.9033 6.47418 13.0041L7.49999 13.8515L8.5258 13.0041C8.64779 12.9033 8.81027 12.8662 8.96389 12.9041L10.2558 13.2225L10.8123 12.0139C10.8785 11.8702 11.0088 11.7663 11.1637 11.7337L12.4658 11.4601L12.4578 11H11.5C10.6716 11 9.99999 10.3284 9.99999 9.5C9.99999 8.67157 9.32842 8 8.49999 8H4.99999V10H6.99999V11H2.54216ZM3.99999 10V5H2.54236C2.51535 5.1082 2.45255 5.2056 2.3622 5.27514L1.30778 6.08667L1.90567 7.27532C1.97677 7.41667 1.97677 7.58333 1.90567 7.72468L1.30778 8.91333L2.3622 9.72486C2.45255 9.7944 2.51535 9.8918 2.54236 10H3.99999ZM2.54216 4H8.99999C10.1046 4 11 4.89543 11 6C11 6.67245 10.6681 7.26739 10.1592 7.62996C10.675 8.08792 11 8.75601 11 9.5C11 9.77614 11.2239 10 11.5 10H12.4576C12.4846 9.8918 12.5474 9.7944 12.6378 9.72486L13.6922 8.91333L13.0943 7.72468C13.0232 7.58333 13.0232 7.41667 13.0943 7.27532L13.6922 6.08667L12.6378 5.27514C12.5124 5.17864 12.4401 5.02848 12.4428 4.87029L12.4658 3.53993L11.1637 3.26627C11.0088 3.23372 10.8785 3.12981 10.8123 2.9861L10.2558 1.77753L8.96389 2.09593C8.81027 2.1338 8.64779 2.09671 8.5258 1.99594L7.49999 1.14854L6.47418 1.99594C6.3522 2.09671 6.18972 2.1338 6.03609 2.09593L4.7442 1.77753L4.18765 2.9861C4.12147 3.12981 3.99117 3.23372 3.83633 3.26627L2.53422 3.53993L2.54216 4ZM8.99999 7C9.55228 7 9.99999 6.55228 9.99999 6C9.99999 5.44772 9.55228 5 8.99999 5H4.99999V7H8.99999Z" fill="black"/>
</svg>
