<svg width="15" height="15" viewBox="0 0 15 15" fill="none" xmlns="http://www.w3.org/2000/svg">
<path fill-rule="evenodd" clip-rule="evenodd" d="M0 7.5C0 3.35786 3.35786 0 7.5 0C11.6421 0 15 3.35786 15 7.5C15 11.6421 11.6421 15 7.5 15C3.35786 15 0 11.6421 0 7.5ZM7.5 1C3.91015 1 1 3.91015 1 7.5C1 11.0899 3.91015 14 7.5 14C11.0899 14 14 11.0899 14 7.5C14 3.91015 11.0899 1 7.5 1ZM3.30464 5.86865C3.95807 4.18936 5.59072 3 7.49998 3C8.75891 3 9.89635 3.51632 10.7136 4.35002L11.4277 3.64998C10.4301 2.63232 9.03844 2 7.49998 2C5.03652 2 2.95256 3.61922 2.25186 5.85018L2.16105 6.13928L8.8607 12.8389L9.14981 12.7481C11.2129 12.1002 12.7524 10.2699 12.9728 8.0494L13.0274 7.5H8.99998V8.5H11.8885C11.5562 9.96491 10.5083 11.1595 9.13132 11.6953L3.30464 5.86865ZM6.14645 12.8536L2.14645 8.85355L2.85355 8.14645L6.85355 12.1464L6.14645 12.8536Z" fill="black"/>
</svg>
