<svg width="15" height="15" viewBox="0 0 15 15" fill="none" xmlns="http://www.w3.org/2000/svg">
<path fill-rule="evenodd" clip-rule="evenodd" d="M12.5 1C11.6718 1 11 1.67187 11 2.4987C11 3.32553 11.6718 3.99739 12.5 3.99739C13.3282 3.99739 14 3.32553 14 2.4987C14 1.67187 13.3282 1 12.5 1ZM10 2.4987C10 1.11897 11.1202 0 12.5 0C13.8798 0 15 1.11897 15 2.4987C15 3.87843 13.8798 4.99739 12.5 4.99739C12.0129 4.99739 11.5581 4.85794 11.1736 4.61679L9.11445 7.4958L11.1695 10.3766C11.5549 10.1339 12.0112 9.99347 12.5 9.99347C13.8798 9.99347 15 11.1124 15 12.4922C15 13.8719 13.8798 14.9909 12.5 14.9909C11.1202 14.9909 10 13.8719 10 12.4922C10 11.9665 10.1626 11.4787 10.4402 11.0762L8.24576 8H4.94895C4.71527 9.13796 3.70698 9.99413 2.5 9.99413C1.12017 9.99413 0 8.87516 0 7.49543C0 6.1157 1.12017 4.99673 2.5 4.99673C3.71021 4.99673 4.72066 5.85749 4.95081 7L8.23961 7L10.4432 3.91901C10.1638 3.51568 10 3.02625 10 2.4987ZM4 7.49543C4 6.6686 3.32817 5.99673 2.5 5.99673C1.67183 5.99673 1 6.6686 1 7.49543C1 8.32226 1.67183 8.99413 2.5 8.99413C3.32817 8.99413 4 8.32226 4 7.49543ZM12.5 10.9935C11.6718 10.9935 11 11.6653 11 12.4922C11 13.319 11.6718 13.9909 12.5 13.9909C13.3282 13.9909 14 13.319 14 12.4922C14 11.6653 13.3282 10.9935 12.5 10.9935Z" fill="black"/>
</svg>
