<svg width="13" height="15" viewBox="0 0 13 15" fill="none" xmlns="http://www.w3.org/2000/svg">
<path fill-rule="evenodd" clip-rule="evenodd" d="M3 0H10V1H13V13.5C13 14.3284 12.3284 15 11.5 15H1.5C0.671573 15 0 14.3284 0 13.5V1H3V0ZM4 1V2.5C4 2.77614 4.22386 3 4.5 3H8.5C8.77614 3 9 2.77614 9 2.5V1H4ZM3 2.5V2H1V13.5C1 13.7761 1.22386 14 1.5 14H11.5C11.7761 14 12 13.7761 12 13.5V2H10V2.5C10 3.32843 9.32843 4 8.5 4H4.5C3.67157 4 3 3.32843 3 2.5ZM3 8.5C3 6.567 4.567 5 6.5 5C8.433 5 10 6.567 10 8.5C10 10.433 8.433 12 6.5 12C4.567 12 3 10.433 3 8.5ZM6.5 6C5.11929 6 4 7.11929 4 8.5C4 9.00954 4.15244 9.48348 4.4142 9.87869L7.8787 6.4142C7.48348 6.15244 7.00954 6 6.5 6ZM8.5858 7.12131L5.12131 10.5858C5.51652 10.8476 5.99046 11 6.5 11C7.88071 11 9 9.88071 9 8.5C9 7.99046 8.84756 7.51652 8.5858 7.12131Z" fill="black"/>
</svg>
