<svg width="15" height="15" viewBox="0 0 15 15" fill="none" xmlns="http://www.w3.org/2000/svg">
<path fill-rule="evenodd" clip-rule="evenodd" d="M1.49944 3C0.67127 3.0003 0 3.67176 0 4.5V10.5C0 11.3282 0.671271 11.9997 1.49944 12C2.86699 13.8208 5.04572 15 7.49995 15C11.6421 15 14.9999 11.6421 14.9999 7.5C14.9999 3.35786 11.6421 0 7.49995 0C5.04572 0 2.86699 1.17924 1.49944 3ZM2.80947 3H7.5C8.32843 3 9 3.67157 9 4.5V10.5C9 11.3284 8.32843 12 7.5 12H2.80947C3.99286 13.2332 5.65689 14 7.49995 14C11.0898 14 13.9999 11.0899 13.9999 7.5C13.9999 3.91015 11.0898 1 7.49995 1C5.65689 1 3.99286 1.76676 2.80947 3ZM1.5 4C1.22386 4 1 4.22386 1 4.5V10.5C1 10.7761 1.22386 11 1.5 11H7.5C7.77614 11 8 10.7761 8 10.5V4.5C8 4.22386 7.77614 4 7.5 4H1.5ZM2 5H5C6.10457 5 7 5.89543 7 7C7 8.10457 6.10457 9 5 9H3V10H2V5ZM3 8H5C5.55228 8 6 7.55228 6 7C6 6.44772 5.55228 6 5 6H3V8Z" fill="black"/>
</svg>
