<svg width="15" height="13" viewBox="0 0 15 13" fill="none" xmlns="http://www.w3.org/2000/svg">
<path fill-rule="evenodd" clip-rule="evenodd" d="M14.8208 0.116448C14.9567 0.230159 15.0223 0.407363 14.9932 0.582207L12.9932 12.5822C12.9653 12.7496 12.8544 12.8914 12.6988 12.9588C12.5431 13.0262 12.3638 13.0101 12.2226 12.916L6.22265 8.91603C6.10604 8.8383 6.02742 8.7152 6.00592 8.57672C5.98442 8.43824 6.02202 8.29709 6.10956 8.18766L8.09774 5.70244L4.77735 7.91603C4.62805 8.01556 4.43688 8.02746 4.27639 7.94722L0.27639 5.94722C0.0972393 5.85765 -0.0111668 5.6698 0.000906074 5.46987C0.012979 5.26994 0.143201 5.0965 0.331829 5.02914L14.3318 0.0291361C14.4988 -0.0304814 14.6848 0.00273758 14.8208 0.116448ZM1.7716 5.57679L4.46408 6.92303L10.2226 3.08398C10.4278 2.94723 10.7019 2.9804 10.8685 3.16211C11.0351 3.34383 11.0444 3.61985 10.8904 3.81235L7.23112 8.3865L12.1339 11.655L13.8669 1.25703L1.7716 5.57679Z" fill="black"/>
</svg>
