<svg width="15" height="15" viewBox="0 0 15 15" fill="none" xmlns="http://www.w3.org/2000/svg">
<path fill-rule="evenodd" clip-rule="evenodd" d="M8 0V1.01834C11.1903 1.26103 13.738 3.80671 13.981 6.99548H15V7.99548H13.981C13.7381 11.1843 11.191 13.7376 8 13.981V15H7V13.981C3.80902 13.7376 1.26193 11.1843 1.01898 7.99548H0V6.99548H1.01898C1.26197 3.80671 3.80973 1.26103 7 1.01834V0H8ZM7 2.02181C4.36191 2.25952 2.2605 4.35976 2.02247 6.99548H7V2.02181ZM7 7.99548H2.02246C2.26048 10.6327 4.36254 12.739 7 12.9775V7.99548ZM8 12.9775V7.99548H12.9775C12.7395 10.6327 10.6375 12.739 8 12.9775ZM12.9775 6.99548H8V2.02181C10.6381 2.25952 12.7395 4.35976 12.9775 6.99548Z" fill="black"/>
</svg>
