<svg width="13" height="15" viewBox="0 0 13 15" fill="none" xmlns="http://www.w3.org/2000/svg">
<path fill-rule="evenodd" clip-rule="evenodd" d="M6.5 1C3.46283 1 1 3.46168 1 6.49606C1 8.81877 2.16171 10.6977 3.47844 12.0136C4.13516 12.6699 4.82023 13.1751 5.3945 13.5136C5.6818 13.6829 5.93548 13.807 6.13865 13.8872C6.35644 13.9732 6.47211 13.9909 6.5 13.9909C6.52789 13.9909 6.64356 13.9732 6.86135 13.8872C7.06452 13.807 7.3182 13.6829 7.6055 13.5136C8.17977 13.1751 8.86484 12.6699 9.52156 12.0136C10.8383 10.6977 12 8.81877 12 6.49606C12 3.46168 9.53717 1 6.5 1ZM0 6.49606C0 2.90877 2.91117 0 6.5 0C10.0888 0 13 2.90877 13 6.49606C13 9.1701 11.6617 11.2886 10.2284 12.7209C9.51016 13.4387 8.75773 13.9953 8.11325 14.3751C7.79117 14.5649 7.49017 14.7141 7.22849 14.8174C6.98144 14.9149 6.72211 14.9909 6.5 14.9909C6.27789 14.9909 6.01856 14.9149 5.77151 14.8174C5.50983 14.7141 5.20883 14.5649 4.88675 14.3751C4.24227 13.9953 3.48984 13.4387 2.77156 12.7209C1.33829 11.2886 0 9.1701 0 6.49606ZM4 6.49606C4 5.11633 5.12017 3.99738 6.5 3.99738C7.87983 3.99738 9 5.11633 9 6.49606C9 7.87579 7.87984 8.99478 6.5 8.99478C5.12016 8.99478 4 7.87579 4 6.49606ZM6.5 4.99738C5.67183 4.99738 5 5.66924 5 6.49606C5 7.3229 5.67184 7.99478 6.5 7.99478C7.32816 7.99478 8 7.3229 8 6.49606C8 5.66924 7.32817 4.99738 6.5 4.99738Z" fill="black"/>
</svg>
