<svg width="15" height="15" viewBox="0 0 15 15" fill="none" xmlns="http://www.w3.org/2000/svg">
<path fill-rule="evenodd" clip-rule="evenodd" d="M7.5 1C3.91015 1 1 3.91015 1 7.5C1 11.0899 3.91015 14 7.5 14C11.0899 14 14 11.0899 14 7.5C14 3.91015 11.0899 1 7.5 1ZM0 7.5C3.57628e-07 3.35786 3.35786 -3.57628e-07 7.5 0C11.6421 3.57628e-07 15 3.35786 15 7.5C15 11.6421 11.6421 15 7.5 15C3.35786 15 -3.57628e-07 11.6421 0 7.5ZM6.5 3.79289L10.2071 7.5L6.5 11.2071L5.79289 10.5L8.79289 7.5L5.79289 4.5L6.5 3.79289Z" fill="black"/>
</svg>
