<svg width="15" height="15" viewBox="0 0 15 15" fill="none" xmlns="http://www.w3.org/2000/svg">
<path fill-rule="evenodd" clip-rule="evenodd" d="M0 4.45652C0 1.99516 1.99516 0 4.45652 0C5.30581 0 6.10158 0.23862 6.77772 0.652189C7.01002 0.626299 7.2512 0.608696 7.5 0.608696C11.3053 0.608696 14.3913 3.694 14.3913 7.5C14.3913 7.74838 14.3742 7.98953 14.3477 8.223C14.7609 8.8987 15 9.69368 15 10.5435C15 13.0049 13.0042 15 10.5435 15C9.69362 15 8.89846 14.7614 8.22209 14.348C7.989 14.3741 7.74799 14.3913 7.5 14.3913C3.69403 14.3913 0.608696 11.306 0.608696 7.5C0.608696 7.25158 0.625863 7.0105 0.651994 6.77741C0.238568 6.10144 0 5.30627 0 4.45652ZM4.45652 1C2.54745 1 1 2.54745 1 4.45652C1 5.16966 1.21575 5.83088 1.58515 6.38047C1.65316 6.48165 1.68186 6.60419 1.66585 6.72504C1.63115 6.98706 1.6087 7.24332 1.6087 7.5C1.6087 10.7537 4.24632 13.3913 7.5 13.3913C7.75605 13.3913 8.01231 13.3689 8.27435 13.3342C8.39513 13.3182 8.51759 13.3468 8.61874 13.4147C9.16907 13.7843 9.83037 14 10.5435 14C12.452 14 14 12.4525 14 10.5435C14 9.83059 13.7838 9.16933 13.4143 8.61953C13.346 8.51804 13.3174 8.39507 13.3337 8.27388C13.3689 8.01267 13.3913 7.75662 13.3913 7.5C13.3913 4.24635 10.7531 1.6087 7.5 1.6087C7.24382 1.6087 6.98761 1.63165 6.72396 1.66599C6.60344 1.68168 6.48133 1.65295 6.38046 1.58515C5.83091 1.21577 5.1691 1 4.45652 1ZM7 5C6.44772 5 6 5.44772 6 6C6 6.55228 6.44772 7 7 7H8C9.10457 7 10 7.89543 10 9C10 10.1046 9.10457 11 8 11H7.11803C6.24344 11 5.44392 10.5059 5.05279 9.72361L5.94721 9.27639C6.16895 9.71987 6.62221 10 7.11803 10H8C8.55229 10 9 9.55229 9 9C9 8.44772 8.55228 8 8 8H7C5.89543 8 5 7.10457 5 6C5 4.89543 5.89543 4 7 4H7.88197C8.75656 4 9.55608 4.49413 9.94721 5.27639L9.05279 5.72361C8.83105 5.28013 8.37778 5 7.88197 5H7Z" fill="black"/>
</svg>
