<svg width="15" height="15" viewBox="0 0 15 15" fill="none" xmlns="http://www.w3.org/2000/svg">
<path fill-rule="evenodd" clip-rule="evenodd" d="M2 2.5C2 1.11929 3.11929 0 4.5 0C5.67202 0 6.65567 0.806502 6.92625 1.8948C7.7408 1.70358 8.63264 1.92553 9.26777 2.56066L12.4393 5.73223C13.4157 6.70854 13.4157 8.29145 12.4393 9.26777L8.26777 13.4393C7.29146 14.4157 5.70855 14.4157 4.73224 13.4393L1.56066 10.2678C0.584354 9.29146 0.584351 7.70855 1.56066 6.73223L2 6.29289V2.5ZM3 5.29289L5.73224 2.56066C5.81444 2.47846 5.90094 2.40318 5.99101 2.33482C5.90878 1.58411 5.27261 1 4.5 1C3.67158 1 3 1.67157 3 2.5V5.29289ZM6 3.70711L2.26777 7.43934C1.84573 7.86138 1.72776 8.47234 1.91385 9H11.2929L11.7322 8.56066C12.318 7.97487 12.318 7.02513 11.7322 6.43934L8.56066 3.26777C8.13863 2.84573 7.52766 2.72775 7 2.91384V7H6V3.70711ZM10.2929 10H2.70711L5.43934 12.7322C6.02513 13.318 6.97488 13.318 7.56066 12.7322L10.2929 10ZM12.6808 9.79289L14.2151 11.3272C14.6585 11.7706 14.8819 12.3313 14.8472 12.9015C14.8125 13.471 14.5234 14.0007 14.0363 14.3904C13.2438 15.0244 12.1177 15.0244 11.3253 14.3904C10.8381 14.0007 10.5491 13.471 10.5144 12.9015C10.4797 12.3313 10.7031 11.7706 11.1465 11.3272L12.6808 9.79289ZM12.6808 11.2071L11.8536 12.0343C11.5932 12.2947 11.4968 12.5828 11.5125 12.8407C11.5283 13.0995 11.66 13.3776 11.95 13.6096C12.3772 13.9514 12.9843 13.9514 13.4116 13.6096C13.7016 13.3776 13.8332 13.0995 13.849 12.8407C13.8647 12.5828 13.7684 12.2947 13.508 12.0343L12.6808 11.2071Z" fill="black"/>
</svg>
