<svg width="15" height="15" viewBox="0 0 15 15" fill="none" xmlns="http://www.w3.org/2000/svg">
<path fill-rule="evenodd" clip-rule="evenodd" d="M5.99999 0L8.99998 1.19209e-07V2.00001L15 2L15 3L8.99998 3.00001V5H5.99998V3L-1.52588e-05 3V2L5.99999 2V0ZM6.99999 1L6.99998 4H7.99998V1H6.99999ZM1.99998 5H4.99998V7L15 7V8L4.99998 8V10H1.99998V8H-1.52588e-05V7H1.99998V5ZM2.99998 6V9H3.99998V6H2.99998ZM9.99998 10L13 10V12L15 12V13L13 13V15L9.99998 15V13H-1.52588e-05V12H9.99998V10ZM11 11V14L12 14V11L11 11Z" fill="black"/>
</svg>
