<svg width="13" height="15" viewBox="0 0 13 15" fill="none" xmlns="http://www.w3.org/2000/svg">
<path fill-rule="evenodd" clip-rule="evenodd" d="M6.5 1.5C5.47045 1.5 4.60157 1.86297 3.99078 2.60037C3.73604 2.90767 3.50802 3.41605 3.33704 4.04302C3.16883 4.65983 3.06792 5.34601 3.03931 5.97019L3.02038 6.38326L2.53866 6.45262L2.51734 6.45572C2.4093 6.47123 2.29012 6.48852 2.17011 6.51097C1.70394 6.60039 1.14981 6.78828 1.02316 7.39897C0.960265 7.70091 1.03069 7.93885 1.17415 8.12217C1.31283 8.29826 1.5136 8.41791 1.70219 8.50781C1.78328 8.54553 1.86535 8.58099 1.94829 8.61415L2.39681 8.79348L2.23306 9.24792C1.99948 9.89615 1.59936 10.5417 1.1759 11.1057C0.951775 11.4043 0.986664 11.8291 1.14515 12.1667C1.1671 12.2135 1.18307 12.2264 1.18664 12.2293C1.19146 12.2331 1.20769 12.245 1.25616 12.2577C1.30892 12.2716 1.38356 12.2823 1.49805 12.2902C1.57816 12.2957 1.66144 12.299 1.75933 12.3028C1.80484 12.3046 1.85351 12.3065 1.90649 12.3088C2.27773 12.3251 2.67104 12.3637 3.06585 12.4368C3.28559 12.4777 3.52162 12.5626 3.77418 12.6685L3.77603 12.6693C3.92213 12.7312 4.06737 12.7952 4.21171 12.8613C4.21188 12.8614 4.21154 12.8613 4.21171 12.8613C4.32346 12.9124 4.44168 12.9655 4.57755 13.0246C5.13861 13.2697 5.76302 13.5 6.43371 13.5C7.1044 13.5 7.72809 13.27 8.28915 13.0249C8.42485 12.9659 8.54322 12.9124 8.65713 12.8607L8.68465 12.8482C8.81735 12.7882 8.94976 12.7283 9.09367 12.6683C9.34717 12.5621 9.5821 12.4783 9.80109 12.4375C10.1954 12.3645 10.589 12.3252 10.9602 12.3088C11.0211 12.3062 11.0778 12.3039 11.1307 12.3018C11.3793 12.292 11.5448 12.2854 11.6811 12.2541C11.8053 12.2256 11.819 12.1963 11.8321 12.1682L11.8329 12.1667C11.9914 11.8291 12.0263 11.4043 11.8021 11.1057C11.8021 11.1056 11.8022 11.1058 11.8021 11.1057C11.3812 10.5455 10.9832 9.90481 10.7491 9.26107L10.5823 8.80246L11.0367 8.62457C11.1279 8.58889 11.222 8.55181 11.3138 8.50938L11.3164 8.5082C11.512 8.41916 11.7192 8.29892 11.8533 8.12028C11.9943 7.93245 12.0472 7.69014 11.9518 7.38662C11.9518 7.3865 11.9518 7.38674 11.9518 7.38662C11.7629 6.78817 11.2197 6.60029 10.7651 6.51097C10.6499 6.48822 10.5364 6.47105 10.4348 6.45647L10.4306 6.45587L10.4184 6.454L10.4172 6.45381L9.9595 6.38299L9.93826 5.97715C9.90765 5.39219 9.81039 4.72837 9.64771 4.12225C9.48242 3.50638 9.26182 2.99652 9.0109 2.68198C8.40197 1.91966 7.53386 1.5 6.5 1.5ZM3.22078 1.96233C4.0498 0.961556 5.22003 0.5 6.5 0.5C7.82923 0.5 8.98817 1.05112 9.79227 2.05792C10.1686 2.52958 10.4338 3.19347 10.6135 3.86304C10.7588 4.40439 10.8563 4.98014 10.9071 5.51998C10.9239 5.52312 10.9409 5.52637 10.9579 5.52973C11.4547 5.62736 12.5352 5.91242 12.9054 7.08567C13.09 7.67215 13.0028 8.25482 12.653 8.72061C12.4169 9.03523 12.1083 9.22989 11.8742 9.34933C12.064 9.73405 12.3184 10.1281 12.6018 10.5052C13.1414 11.2243 12.9743 12.0886 12.7381 12.5916C12.5536 12.984 12.2246 13.1553 11.9049 13.2287C11.6681 13.2831 11.3864 13.2935 11.1389 13.3026M11.0041 13.3079C10.6713 13.3225 10.3252 13.3575 9.9838 13.4207C9.87039 13.4418 9.71327 13.4929 9.47989 13.5907L9.4789 13.5911C9.34905 13.6453 9.22921 13.6995 9.09346 13.7609L9.07061 13.7712C8.95562 13.8234 8.83222 13.8792 8.68914 13.9414C8.10519 14.1965 7.32206 14.5 6.43371 14.5C5.54536 14.5 4.76223 14.1965 4.17828 13.9414C4.03557 13.8794 3.91168 13.8237 3.79589 13.7708C3.66052 13.7088 3.5238 13.6485 3.38677 13.5904C3.1525 13.4922 2.99602 13.441 2.88334 13.42C2.54241 13.3569 2.19678 13.3225 1.86273 13.3079M3.22078 1.96233C2.83362 2.42944 2.55865 3.09649 2.37227 3.77992C2.21998 4.33836 2.11831 4.9395 2.06793 5.51335C2.04059 5.51807 2.01284 5.52304 1.98489 5.52828L1.98289 5.52866C1.51862 5.6176 0.312032 5.90402 0.0440287 7.19572C0.0440456 7.19564 0.0440119 7.1958 0.0440287 7.19572M0.0440287 7.19572C-0.0780418 7.78235 0.0595934 8.32103 0.387268 8.73927ZM0.387268 8.73927C0.611568 9.0244 0.891035 9.21033 1.11272 9.32996ZM1.11272 9.32996C0.922022 9.72084 0.664101 10.1218 0.376141 10.5054C-0.163504 11.2244 0.00376271 12.0886 0.239948 12.5916C0.316659 12.7552 0.421386 12.8979 0.562589 13.0107C0.702612 13.1225 0.855471 13.1865 1.00261 13.2251C1.22678 13.2838 1.4976 13.294 1.74073 13.3031C1.78232 13.3046 1.82314 13.3061 1.86273 13.3079" fill="black"/>
</svg>
