<svg width="13" height="15" viewBox="0 0 13 15" fill="none" xmlns="http://www.w3.org/2000/svg">
<path fill-rule="evenodd" clip-rule="evenodd" d="M1.00001 0H12V0.5C12 2.148 11.2748 3.62617 10.126 4.63347L12.0941 8.56356L6.8845 14.8111C6.78951 14.925 6.64883 14.9908 6.5005 14.9908C6.35216 14.9908 6.21149 14.925 6.11649 14.8111L0.906891 8.56361L2.87404 4.63352C1.7252 3.62622 1.00001 2.14802 1.00001 0.5V0ZM3.69427 5.22896L2.0941 8.42589L6.00036 13.1103L5.99996 8.99419L6.99996 8.99409L7.00036 13.1107L10.9068 8.42594L9.30584 5.2289C8.4844 5.71666 7.52497 5.9967 6.50001 5.9967C5.47509 5.9967 4.51569 5.71668 3.69427 5.22896ZM2.0275 1C2.27626 3.24837 4.18301 4.9967 6.50001 4.9967C8.817 4.9967 10.7238 3.24837 10.9725 1H2.0275Z" fill="black"/>
</svg>
