<svg width="13" height="15" viewBox="0 0 13 15" fill="none" xmlns="http://www.w3.org/2000/svg">
<path fill-rule="evenodd" clip-rule="evenodd" d="M3.14645 0.146447C3.34172 -0.0488155 3.6583 -0.0488155 3.85356 0.146447L6.85356 3.14645L6.14645 3.85355L4.00001 1.70711V15H3.00001V1.70711L0.853561 3.85355L0.146454 3.14645L3.14645 0.146447ZM10 1H9.00001V1.49012e-08H10.5C10.7761 1.49012e-08 11 0.223858 11 0.5V6H12V7H9.00001V6H10V1ZM8.00001 10C8.00001 8.89543 8.89544 8 10 8H10.578C11.8648 8 12.7735 9.26071 12.3666 10.4815L10.9743 14.6581L10.0257 14.3419L10.8063 12H10C8.89544 12 8.00001 11.1046 8.00001 10ZM11.1396 11L11.4179 10.1653C11.609 9.59201 11.1823 9 10.578 9H10C9.44772 9 9.00001 9.44772 9.00001 10C9.00001 10.5523 9.44772 11 10 11H11.1396Z" fill="black"/>
</svg>
