<svg width="9" height="15" viewBox="0 0 9 15" fill="none" xmlns="http://www.w3.org/2000/svg">
<path fill-rule="evenodd" clip-rule="evenodd" d="M4.5 0C4.64015 0 4.77387 0.0588232 4.86858 0.162138L7.49986 3.03263C9.31981 5.01803 9.43427 8.02932 7.77027 10.1471L5 13.6729V15H4V13.6729L1.22973 10.1471C-0.43427 8.02932 -0.319818 5.01804 1.50013 3.03263L4.13142 0.162138C4.22613 0.0588232 4.35985 0 4.5 0ZM5 12.0543L6.98395 9.52932C8.3454 7.79655 8.25176 5.33278 6.76271 3.70836L5 1.7854V12.0543ZM4 1.7854V12.0543L2.01605 9.52931C0.654594 7.79655 0.748237 5.33278 2.23729 3.70836L4 1.7854Z" fill="black"/>
</svg>
