<svg width="15" height="15" viewBox="0 0 15 15" fill="none" xmlns="http://www.w3.org/2000/svg">
<path fill-rule="evenodd" clip-rule="evenodd" d="M7.50002 1.00002C3.91017 1.00002 1.00002 3.91016 1.00002 7.50001C1.00002 11.0899 3.91016 14 7.50001 14C11.0899 14 14 11.0899 14 7.50002C14 3.91017 11.0899 1.00002 7.50002 1.00002ZM1.52588e-05 7.50001C1.54376e-05 3.35788 3.35788 1.508e-05 7.50002 1.52588e-05C11.6422 1.54376e-05 15 3.35788 15 7.50002C15 11.6422 11.6422 15 7.50001 15C3.35788 15 1.508e-05 11.6422 1.52588e-05 7.50001ZM5.50002 4.79291L7.50002 6.79291L9.50002 4.79291L10.2071 5.50002L7.50002 8.20712L4.79291 5.50002L5.50002 4.79291ZM5.50002 7.79291L7.50002 9.79291L9.50002 7.79291L10.2071 8.50002L7.50002 11.2071L4.79291 8.50002L5.50002 7.79291Z" fill="black"/>
</svg>
