<svg width="13" height="15" viewBox="0 0 13 15" fill="none" xmlns="http://www.w3.org/2000/svg">
<path fill-rule="evenodd" clip-rule="evenodd" d="M6.5 1C5.11929 1 4 2.11929 4 3.5V4H3V3.5C3 1.567 4.567 0 6.5 0C8.433 0 10 1.567 10 3.5V4H9V3.5C9 2.11929 7.88071 1 6.5 1ZM2.39504 6C2.14027 6 1.92624 6.19157 1.8981 6.44478L1.12032 13.4448C1.08742 13.741 1.31926 14 1.61727 14H11.3827C11.6807 14 11.9126 13.741 11.8797 13.4448L11.1019 6.44478C11.0738 6.19157 10.8597 6 10.605 6H2.39504ZM0.904218 6.33435C0.988624 5.5747 1.63072 5 2.39504 5H10.605C11.3693 5 12.0114 5.5747 12.0958 6.33435L12.8736 13.3344C12.9723 14.2229 12.2768 15 11.3827 15H1.61727C0.723249 15 0.0277129 14.2229 0.126441 13.3344L0.904218 6.33435ZM9 9V10H4V9H9Z" fill="black"/>
</svg>
