<svg width="15" height="15" viewBox="0 0 15 15" fill="none" xmlns="http://www.w3.org/2000/svg">
<path fill-rule="evenodd" clip-rule="evenodd" d="M2 2.5C2 1.11929 3.11929 0 4.5 0C5.77316 0 6.88755 0.679792 7.5 1.69621C8.11245 0.679792 9.22684 0 10.5 0C11.8807 0 13 1.11929 13 2.5V2.78571C13 3.23408 12.8667 3.65133 12.6377 4H13.5C14.3284 4 15 4.67157 15 5.5V6.5C15 7.15311 14.5826 7.70873 14 7.91465V12.5C14 13.8807 12.8807 15 11.5 15H3.5C2.11929 15 1 13.8807 1 12.5L1 7.91465C0.417404 7.70873 0 7.15311 0 6.5V5.5C0 4.67157 0.671573 4 1.5 4H2.36235C2.13327 3.65133 2 3.23408 2 2.78571V2.5ZM4.21429 4H7V3.5C7 2.11929 5.88071 1 4.5 1C3.67157 1 3 1.67157 3 2.5V2.78571C3 3.45635 3.54365 4 4.21429 4ZM7 5H1.5C1.22386 5 1 5.22386 1 5.5V6.5C1 6.77614 1.22386 7 1.5 7H7V5ZM8 7V5H13.5C13.7761 5 14 5.22386 14 5.5V6.5C14 6.77614 13.7761 7 13.5 7H8ZM7 8H2L2 12.5C2 13.3284 2.67157 14 3.5 14H7V8ZM8 14V8H13V12.5C13 13.3284 12.3284 14 11.5 14H8ZM8 4V3.5C8 2.11929 9.11929 1 10.5 1C11.3284 1 12 1.67157 12 2.5V2.78571C12 3.45635 11.4563 4 10.7857 4H8Z" fill="black"/>
</svg>
