<svg width="13" height="15" viewBox="0 0 13 15" fill="none" xmlns="http://www.w3.org/2000/svg">
<path fill-rule="evenodd" clip-rule="evenodd" d="M6.5 1C5.11929 1 4 2.11929 4 3.5V6H11.5C12.3284 6 13 6.67157 13 7.5V13.5C13 14.3284 12.3284 15 11.5 15H1.5C0.671573 15 0 14.3284 0 13.5V7.5C0 6.67157 0.671573 6 1.5 6H3V3.5C3 1.567 4.567 0 6.5 0C8.433 0 10 1.567 10 3.5V4H9V3.5C9 2.11929 7.88071 1 6.5 1ZM1.5 7C1.22386 7 1 7.22386 1 7.5V13.5C1 13.7761 1.22386 14 1.5 14H11.5C11.7761 14 12 13.7761 12 13.5V7.5C12 7.22386 11.7761 7 11.5 7H1.5Z" fill="black"/>
</svg>
