<svg width="13" height="15" viewBox="0 0 13 15" fill="none" xmlns="http://www.w3.org/2000/svg">
<path fill-rule="evenodd" clip-rule="evenodd" d="M0 1.5C0 0.671573 0.671573 0 1.5 0H9.70711L13 3.29289V13.5C13 14.3284 12.3284 15 11.5 15H1.5C0.671572 15 0 14.3284 0 13.5V1.5ZM1.5 1C1.22386 1 1 1.22386 1 1.5V13.5C1 13.7761 1.22386 14 1.5 14H11.5C11.7761 14 12 13.7761 12 13.5V3.70711L9.29289 1H1.5ZM8 10.5C8 9.67157 8.67157 9 9.5 9H9.79289C10.4596 9 11 9.54044 11 10.2071C11 10.5273 10.8728 10.8343 10.6464 11.0607L9.70711 12H11V13H8.5C8.29777 13 8.11545 12.8782 8.03806 12.6913C7.96067 12.5045 8.00345 12.2894 8.14645 12.1464L9.93934 10.3536C9.97818 10.3147 10 10.262 10 10.2071C10 10.0927 9.90728 10 9.79289 10H9.5C9.22386 10 9 10.2239 9 10.5H8Z" fill="black"/>
</svg>
