<svg width="15" height="15" viewBox="0 0 15 15" fill="none" xmlns="http://www.w3.org/2000/svg">
<path fill-rule="evenodd" clip-rule="evenodd" d="M0 2.5C0 1.11929 1.11929 0 2.5 0C3.88071 0 5 1.11929 5 2.5C5 3.70948 4.14112 4.71836 3 4.94999V10.05C3.97957 10.2488 4.75115 11.0204 4.94999 12H9.5C10.8807 12 12 10.8807 12 9.5V7.94999C10.8589 7.71836 10 6.70948 10 5.5C10 4.11929 11.1193 3 12.5 3C13.8807 3 15 4.11929 15 5.5C15 6.70948 14.1411 7.71836 13 7.94999V9.5C13 11.433 11.433 13 9.5 13H4.94999C4.71836 14.1411 3.70948 15 2.5 15C1.11929 15 0 13.8807 0 12.5C0 11.2905 0.85888 10.2816 2 10.05V4.94999C0.85888 4.71836 0 3.70948 0 2.5ZM2.5 1C1.67157 1 1 1.67157 1 2.5C1 3.32843 1.67157 4 2.5 4C3.32843 4 4 3.32843 4 2.5C4 1.67157 3.32843 1 2.5 1ZM12.5 4C11.6716 4 11 4.67157 11 5.5C11 6.32843 11.6716 7 12.5 7C13.3284 7 14 6.32843 14 5.5C14 4.67157 13.3284 4 12.5 4ZM2.5 11C1.67157 11 1 11.6716 1 12.5C1 13.3284 1.67157 14 2.5 14C3.32843 14 4 13.3284 4 12.5C4 11.6716 3.32843 11 2.5 11Z" fill="black"/>
</svg>
