<svg width="15" height="15" viewBox="0 0 15 15" fill="none" xmlns="http://www.w3.org/2000/svg">
<path fill-rule="evenodd" clip-rule="evenodd" d="M7.5 1C3.90971 1 1 3.90971 1 7.5C1 11.0903 3.90971 14 7.5 14C11.0903 14 14 11.0903 14 7.5C14 3.90971 11.0903 1 7.5 1ZM0 7.5C0 3.35742 3.35742 0 7.5 0C11.6426 0 15 3.35742 15 7.5C15 11.6426 11.6426 15 7.5 15C3.35742 15 0 11.6426 0 7.5ZM11.8536 3.14645C12.0158 3.30868 12.0468 3.56051 11.9287 3.75725L8.86443 8.86443L3.75725 11.9287C3.56051 12.0468 3.30868 12.0158 3.14645 11.8536C2.98421 11.6913 2.95321 11.4395 3.07125 11.2428L6.13557 6.13557L11.2428 3.07125C11.4395 2.95321 11.6913 2.98421 11.8536 3.14645ZM6.86443 6.86443L4.95774 10.0423L8.13556 8.13556L10.0423 4.95774L6.86443 6.86443Z" fill="black"/>
</svg>
