<svg width="12" height="14" viewBox="0 0 12 14" fill="none" xmlns="http://www.w3.org/2000/svg">
<path fill-rule="evenodd" clip-rule="evenodd" d="M4.64231 1.14497C5.86445 0.861021 7.1355 0.861017 8.35764 1.14496C9.06327 0.711677 9.60265 0.512855 9.99475 0.429082C10.2079 0.383536 10.3769 0.372165 10.504 0.375558C10.5674 0.377252 10.6199 0.382611 10.6617 0.389037C10.6826 0.392247 10.7007 0.395711 10.7161 0.399093C10.7239 0.400783 10.7309 0.402451 10.7372 0.404052L10.7462 0.406399L10.7504 0.407524L10.7523 0.408073C10.7528 0.408208 10.7542 0.408612 10.6169 0.889374L10.7542 0.408612C10.8963 0.449207 11.0132 0.550567 11.0734 0.685488C11.2416 1.06202 11.3334 1.46816 11.3436 1.88041C11.3512 2.18678 11.3136 2.492 11.2326 2.78635C11.7242 3.38197 11.9975 4.13212 12 4.91089L12 4.9125C12 6.47445 11.5429 7.52773 10.7626 8.20319C10.2193 8.67353 9.55971 8.92381 8.89736 9.06364C8.98625 9.33299 9 9.62169 9 9.9375V14H8V9.9375C8 9.62989 7.98232 9.48085 7.94726 9.37557C7.91802 9.28778 7.8651 9.19617 7.71013 9.04224C7.57333 8.90634 7.52685 8.70389 7.5907 8.52194C7.65455 8.33999 7.81734 8.21097 8.00906 8.19036C8.85049 8.09992 9.58409 7.90076 10.1081 7.44712C10.6104 7.01235 10.9999 6.27207 11 4.91326C10.9978 4.29295 10.7508 3.69857 10.3128 3.2593C10.1731 3.11914 10.1291 2.90974 10.2008 2.72524C10.3022 2.46404 10.3509 2.18532 10.3439 1.9052C10.3397 1.73209 10.3142 1.56056 10.2684 1.39439C10.2481 1.39794 10.2266 1.40212 10.2037 1.40701C9.9221 1.46717 9.43499 1.63663 8.71566 2.10125C8.59799 2.17726 8.45382 2.20042 8.31826 2.16508C7.126 1.85431 5.87399 1.85431 4.68174 2.16508C4.54621 2.20041 4.40208 2.17727 4.28441 2.1013C3.56473 1.63664 3.07758 1.46717 2.79605 1.40701C2.77324 1.40213 2.75177 1.39797 2.73161 1.39443C2.68582 1.56059 2.66035 1.7321 2.65605 1.9052C2.64911 2.18532 2.69777 2.46404 2.79921 2.72524C2.87087 2.90975 2.82693 3.11917 2.68715 3.25933C2.46854 3.47853 2.29532 3.7387 2.1774 4.02495C2.05949 4.31119 1.9992 4.61789 2 4.92747L2 4.92875C2 6.27584 2.3885 7.00677 2.89048 7.43812C3.41586 7.88958 4.15121 8.08984 4.99691 8.19104C5.18715 8.21381 5.34764 8.34328 5.41015 8.52439C5.47265 8.7055 5.42616 8.9064 5.29045 9.04165C5.05125 9.28004 4.96867 9.5551 4.99866 9.96338C4.99955 9.97557 5 9.98778 5 10V10.9886C5.00018 10.9963 5.00018 11.004 5 11.0117V14H4V11.6319C3.54604 11.7016 3.14884 11.6738 2.79744 11.5578C2.28599 11.389 1.9412 11.0563 1.68797 10.7262C1.56254 10.5627 1.45489 10.3936 1.36104 10.2417C1.33753 10.2036 1.31522 10.1672 1.29374 10.1321C1.22541 10.0206 1.16555 9.92295 1.10281 9.83042C0.932056 9.57861 0.827474 9.50447 0.74803 9.48361L0.26442 9.35664L0.518357 8.38942L1.00197 8.51639C1.45815 8.63616 1.73966 8.9878 1.93047 9.26919C2.00748 9.38275 2.08378 9.50734 2.15449 9.62279C2.17406 9.65474 2.1932 9.68599 2.21181 9.71611C2.30209 9.86227 2.38808 9.99589 2.4814 10.1175C2.66567 10.3578 2.85886 10.525 3.11084 10.6082C3.31137 10.6744 3.59265 10.7015 4 10.6158V10.0176C3.97775 9.68831 4.00627 9.36521 4.1162 9.05975C3.4505 8.91658 2.78565 8.66653 2.23874 8.19657C1.45817 7.52582 1.00012 6.48194 0.999999 4.92939C0.998954 4.4885 1.08485 4.05173 1.25278 3.64407C1.38072 3.33349 1.55435 3.04445 1.76744 2.78633C1.68636 2.49199 1.64877 2.18677 1.65636 1.88041C1.66658 1.46816 1.75842 1.06202 1.92658 0.685488C1.98682 0.550607 2.10362 0.449265 2.24564 0.408647L2.38312 0.889374C2.24564 0.408647 2.24517 0.408782 2.24564 0.408647L2.24754 0.408107L2.24951 0.407557L2.25364 0.406429L2.26266 0.404078C2.26901 0.402474 2.27604 0.400804 2.28376 0.399112C2.2992 0.395726 2.31734 0.392258 2.33822 0.389046C2.38003 0.382614 2.4325 0.377253 2.49591 0.375559C2.62298 0.372164 2.79191 0.383541 3.00504 0.429087C3.39706 0.512862 3.93643 0.711686 4.64231 1.14497Z" fill="black"/>
</svg>
