<svg width="15" height="15" viewBox="0 0 15 15" fill="none" xmlns="http://www.w3.org/2000/svg">
<path fill-rule="evenodd" clip-rule="evenodd" d="M8.29289 0H15V15H0V8.29289L4.14627 4.14663C4.14639 4.14651 4.14615 4.14674 4.14627 4.14663L8.29289 0ZM4 5.70711L1.34408 8.36302L4 9.69098V5.70711ZM3.65592 10.637L1 9.30902V13.2929L3.65592 10.637ZM1.70711 14H11.9037L4.62042 11.0867L1.70711 14ZM5.38973 10.3174L13.6025 13.6025L10.3174 5.38973L5.38973 10.3174ZM11.0867 4.62042L14 11.9037V1.70711L11.0867 4.62042ZM13.2929 1L10.637 3.65592L9.30902 1H13.2929ZM8.36302 1.34408L5.70711 4H9.69098L8.36302 1.34408ZM9.29289 5H5V9.29289L9.29289 5Z" fill="black"/>
</svg>
