<svg width="15" height="15" viewBox="0 0 15 15" fill="none" xmlns="http://www.w3.org/2000/svg">
<path fill-rule="evenodd" clip-rule="evenodd" d="M13.0607 1.76771C12.4749 1.18192 11.5251 1.18192 10.9393 1.76771L8.20711 4.49994L10.3536 6.64639L10.5 6.79284L13.2322 4.0606C13.818 3.47482 13.818 2.52507 13.2322 1.93928L13.0607 1.76771ZM7.5 3.79284L10.2322 1.0606C11.2085 0.0842904 12.7915 0.0842924 13.7678 1.0606L13.9393 1.23217C14.9156 2.20848 14.9157 3.7914 13.9393 4.76771L11.2071 7.49994L11.8536 8.14639L11.1464 8.8535L10 7.70705L2.70711 14.9999H0.5C0.223858 14.9999 0 14.7761 0 14.4999V12.2928L7.29289 4.99994L6.14645 3.8535L6.85355 3.14639L7.5 3.79284ZM8 5.70705L1 12.7071V13.9999H2.29289L9.29289 6.99994L8 5.70705Z" fill="black"/>
</svg>
