<svg width="15" height="15" viewBox="0 0 15 15" fill="none" xmlns="http://www.w3.org/2000/svg">
<path fill-rule="evenodd" clip-rule="evenodd" d="M0 7.5C0 3.35803 3.35803 0 7.5 0C9.59708 0 11.4932 0.860802 12.8543 2.24832C12.8589 2.25286 12.8634 2.25747 12.8678 2.26215C14.1871 3.61392 15 5.46207 15 7.5C15 10.4677 13.2761 13.033 10.775 14.249C10.7659 14.2538 10.7566 14.2582 10.7472 14.2625C9.76464 14.7351 8.66324 15 7.5 15C3.35803 15 0 11.642 0 7.5ZM10.939 13.0167C12.4636 12.0642 13.5649 10.4974 13.8963 8.66287C12.4148 8.26424 11.027 8.10933 9.72681 8.25606C10.2856 9.76192 10.6837 11.3331 10.939 13.0167ZM8.72534 8.43391C9.33284 10.029 9.74851 11.6969 9.99904 13.5022C9.22969 13.8229 8.38552 14 7.5 14C5.92693 14 4.48432 13.4411 3.35992 12.5111C4.85776 10.3548 6.48413 9.13406 8.21925 8.57707C8.38637 8.52342 8.55506 8.47575 8.72534 8.43391ZM9.34529 7.29669C10.8336 7.08399 12.3894 7.23878 13.9982 7.65553C13.9994 7.60383 14 7.55199 14 7.5C14 5.92738 13.4414 4.48514 12.5119 3.36088C11.4317 4.55614 10.2075 5.41056 8.75205 6.01304C8.96414 6.43699 9.16174 6.86448 9.34529 7.29669ZM7.80673 6.35914C7.99777 6.7362 8.17666 7.11591 8.34378 7.4992C8.19969 7.53724 8.05629 7.57912 7.9136 7.62492C5.96281 8.25114 4.20216 9.59311 2.63212 11.8074C1.61655 10.6605 1 9.15223 1 7.5C1 7.43553 1.00094 7.37127 1.0028 7.30725C3.72712 7.22362 5.94539 6.9583 7.80673 6.35914ZM8.28332 5.12417C9.68287 4.55867 10.8193 3.75633 11.8157 2.63947C10.6678 1.61953 9.15622 1 7.5 1C6.86614 1 6.25346 1.09074 5.67424 1.25995C6.69565 2.54511 7.56086 3.82151 8.28332 5.12417ZM4.69348 1.63551C5.72924 2.91419 6.60162 4.17685 7.32648 5.46188C5.6578 5.97293 3.63983 6.21918 1.10994 6.30331C1.49419 4.23885 2.8543 2.51732 4.69348 1.63551Z" fill="black"/>
</svg>
