<svg width="15" height="15" viewBox="0 0 15 15" fill="none" xmlns="http://www.w3.org/2000/svg">
<path fill-rule="evenodd" clip-rule="evenodd" d="M7.50003 0.999985C3.91018 0.999984 1.00003 3.91013 1.00003 7.49998C1.00003 11.0898 3.91018 14 7.50003 14C11.0899 14 14 11.0898 14 7.49999C14 3.91013 11.0899 0.999985 7.50003 0.999985ZM3.05176e-05 7.49998C3.08752e-05 3.35785 3.3579 -1.56164e-05 7.50003 -1.52588e-05C11.6422 -1.49012e-05 15 3.35785 15 7.49999C15 11.6421 11.6422 15 7.50003 15C3.35789 15 3.016e-05 11.6421 3.05176e-05 7.49998ZM7.20714 5.49998L5.70714 6.99998L11 6.99999V7.99999L5.70714 7.99998L7.20714 9.49998L6.50003 10.2071L3.79292 7.49998L6.50003 4.79288L7.20714 5.49998Z" fill="black"/>
</svg>
