<svg width="15" height="15" viewBox="0 0 15 15" fill="none" xmlns="http://www.w3.org/2000/svg">
<path fill-rule="evenodd" clip-rule="evenodd" d="M0 1.5C0 0.671574 0.671573 0 1.5 0H13.5C14.3284 0 15 0.671573 15 1.5V13.5C15 14.3284 14.3284 15 13.5 15H1.5C0.671573 15 0 14.3284 0 13.5V1.5ZM14 8.12555V1.5C14 1.22386 13.7761 1 13.5 1H1.5C1.22386 1 1 1.22386 1 1.5V8.03466C2.07491 8.18193 3.05925 8.77436 3.94125 9.34386C4.06959 9.42673 4.19593 9.50918 4.32057 9.59052C5.2353 10.1875 6.05838 10.7246 6.91111 10.9304C7.09945 10.9758 7.29657 11 7.5 11C7.55982 11 7.61907 10.9979 7.67769 10.9938C8.75579 10.9183 9.82791 10.2699 11.0441 9.53429L11.0953 9.50334C11.9863 8.96451 12.9645 8.37699 14 8.12555ZM1 9.04668C1.7694 9.18734 2.54333 9.63158 3.39881 10.184C3.51966 10.262 3.64238 10.3424 3.76686 10.424C4.65939 11.0089 5.64222 11.6529 6.67656 11.9025C6.94113 11.9663 7.21696 12 7.5 12C7.58314 12 7.66569 11.9971 7.74753 11.9914C9.07248 11.8986 10.3316 11.1355 11.4579 10.4529C11.5098 10.4214 11.5614 10.3901 11.6128 10.359C12.4638 9.84438 13.2432 9.39096 14 9.16065V13.5C14 13.7761 13.7761 14 13.5 14H1.5C1.22386 14 1 13.7761 1 13.5V9.04668Z" fill="black"/>
</svg>
