<svg width="13" height="15" viewBox="0 0 13 15" fill="none" xmlns="http://www.w3.org/2000/svg">
<path fill-rule="evenodd" clip-rule="evenodd" d="M3 1C1.89543 1 1 1.89543 1 3C1 4.10457 1.89543 5 3 5V6C1.34315 6 0 4.65685 0 3C0 1.34315 1.34315 0 3 0H10C11.6569 0 13 1.34315 13 3C13 4.65685 11.6569 6 10 6H8V5H10C11.1046 5 12 4.10457 12 3C12 1.89543 11.1046 1 10 1H3ZM4 3.5C4 2.67157 4.67157 2 5.5 2C6.32843 2 7 2.67157 7 3.5V7H9.85294C11.0387 7 12 7.96127 12 9.14706V10C12 12.7614 9.76142 15 7 15H6.5C4.01472 15 2 12.9853 2 10.5C2 9.29052 2.85888 8.28164 4 8.05001V3.5ZM4 9.08535C3.4174 9.29127 3 9.84689 3 10.5C3 12.433 4.567 14 6.5 14H7C9.20914 14 11 12.2091 11 10V9.14706C11 8.51356 10.4864 8 9.85294 8H6V3.5C6 3.22386 5.77614 3 5.5 3C5.22386 3 5 3.22386 5 3.5V10H4V9.08535Z" fill="black"/>
</svg>
