<svg width="9" height="9" viewBox="0 0 9 9" fill="none" xmlns="http://www.w3.org/2000/svg">
<path fill-rule="evenodd" clip-rule="evenodd" d="M4.5 0.5C4.69386 0.5 4.87025 0.61206 4.95262 0.787549L5.92085 2.85035L8.07547 3.17933C8.26073 3.20761 8.41462 3.33713 8.47413 3.51485C8.53363 3.69257 8.48875 3.88864 8.35787 4.02278L6.78411 5.63573L7.1567 7.91949C7.18753 8.10847 7.10773 8.29846 6.9512 8.40874C6.79467 8.51902 6.5889 8.53023 6.42133 8.43759L4.5 7.37547L2.57867 8.43759C2.41109 8.53023 2.20533 8.51902 2.04879 8.40874C1.89226 8.29846 1.81246 8.10847 1.84329 7.91949L2.21589 5.63573L0.642123 4.02278C0.511241 3.88864 0.466364 3.69257 0.525868 3.51485C0.585371 3.33713 0.739262 3.20761 0.924529 3.17933L3.07914 2.85035L4.04738 0.787549C4.12975 0.61206 4.30614 0.5 4.5 0.5ZM4.5 2.17674L3.871 3.51679C3.80015 3.66775 3.6587 3.77344 3.49385 3.79861L2.03751 4.02098L3.10787 5.118C3.2187 5.23159 3.26903 5.39105 3.24347 5.54769L2.99605 7.06423L4.2581 6.36657C4.40863 6.28335 4.59137 6.28335 4.7419 6.36657L6.00395 7.06424L5.75652 5.54769C5.73097 5.39105 5.78129 5.23159 5.89212 5.118L6.96249 4.02098L5.50614 3.79861C5.3413 3.77344 5.19985 3.66775 5.12899 3.51679L4.5 2.17674Z" fill="black"/>
</svg>
