<svg width="15" height="15" viewBox="0 0 15 15" fill="none" xmlns="http://www.w3.org/2000/svg">
<path fill-rule="evenodd" clip-rule="evenodd" d="M7 4.19098V0H11V3H8V4.19098L12 6.19098V8H14V14H15V15H0V14H1V8H3V6.19098L7 4.19098ZM7.5 5.05902L4 6.80902V14H6V11H9V14H11V6.80902L7.5 5.05902ZM12 14H13V9H12V14ZM8 14V12H7V14H8ZM3 14V9H2V14H3ZM8 2H10V1H8V2ZM6 8.5C6 7.67157 6.67157 7 7.5 7C8.32843 7 9 7.67157 9 8.5C9 9.32843 8.32843 10 7.5 10C6.67157 10 6 9.32843 6 8.5ZM7.5 8C7.22386 8 7 8.22386 7 8.5C7 8.77614 7.22386 9 7.5 9C7.77614 9 8 8.77614 8 8.5C8 8.22386 7.77614 8 7.5 8Z" fill="black"/>
</svg>
