<svg width="15" height="12" viewBox="0 0 15 12" fill="none" xmlns="http://www.w3.org/2000/svg">
<path fill-rule="evenodd" clip-rule="evenodd" d="M7.5 1.98529C5.04155 1.98529 2.65917 3.16841 0.885693 5.31819L0.114304 4.68183C2.05386 2.33073 4.70742 0.985291 7.5 0.985291C10.2926 0.985291 12.9461 2.33073 14.8857 4.68183L14.1143 5.31819C12.3408 3.16841 9.95844 1.98529 7.5 1.98529ZM7.50001 6.15689C5.91674 6.15689 4.37368 6.91859 3.21904 8.31822L2.44765 7.68186C3.76836 6.08091 5.5826 5.15689 7.50001 5.15689C9.41741 5.15689 11.2317 6.08091 12.5524 7.68186L11.781 8.31822C10.6263 6.91859 9.08328 6.15689 7.50001 6.15689ZM6 10.5C6 9.67158 6.67157 9.00001 7.5 9.00001C8.32843 9.00001 9 9.67158 9 10.5C9 11.3284 8.32843 12 7.5 12C6.67157 12 6 11.3284 6 10.5ZM7.5 10C7.22386 10 7 10.2239 7 10.5C7 10.7762 7.22386 11 7.5 11C7.77614 11 8 10.7762 8 10.5C8 10.2239 7.77614 10 7.5 10Z" fill="black"/>
</svg>
