<svg width="15" height="15" viewBox="0 0 15 15" fill="none" xmlns="http://www.w3.org/2000/svg">
<path fill-rule="evenodd" clip-rule="evenodd" d="M8 0.0164023V0H7V0.0164023C3.09098 0.273695 0 3.52588 0 7.5C0 11.6421 3.35786 15 7.5 15C11.6421 15 15 11.6421 15 7.5C15 3.52588 11.909 0.273695 8 0.0164023ZM7 1.01894C3.64378 1.27426 1 4.07839 1 7.5C1 11.0899 3.91015 14 7.5 14C9.11495 14 10.5923 13.411 11.7291 12.4362L7.14645 7.85355C7.05268 7.75979 7 7.63261 7 7.5V1.01894ZM12.4362 11.7291C13.411 10.5923 14 9.11495 14 7.5C14 6.63254 13.8301 5.80478 13.5217 5.04817L8.34408 7.63698L12.4362 11.7291ZM8 6.69098V1.01894C10.1559 1.18294 12.0178 2.39861 13.0738 4.15407L8 6.69098Z" fill="black"/>
</svg>
