<svg width="11" height="15" viewBox="0 0 11 15" fill="none" xmlns="http://www.w3.org/2000/svg">
<path fill-rule="evenodd" clip-rule="evenodd" d="M1.32979 0.0298784C1.51221 -0.0361671 1.71637 0.00927578 1.85355 0.146461L4.67055 2.96346L5.06292 2.25719C5.1476 2.10477 5.30556 2.00747 5.47978 2.00042C5.654 1.99337 5.81931 2.07759 5.91602 2.22266L7.50426 4.60502L9.16782 3.12631C9.30752 3.00213 9.50481 2.96624 9.67929 3.03326C9.85377 3.10029 9.9763 3.25903 9.99694 3.4448L10.9969 12.4448C11.0218 12.6682 10.8944 12.8808 10.6857 12.9643L5.68569 14.9643C5.54061 15.0223 5.37674 15.0092 5.24275 14.9288L0.242752 11.9288C0.0782075 11.83 -0.0153198 11.6458 0.0020531 11.4547L1.00205 0.454746C1.01962 0.261534 1.14737 0.0959239 1.32979 0.0298784ZM6.74961 5.27582L5.53884 3.45966L2.36425 9.17392L6.74961 5.27582ZM1.2122 9.18849L4.21305 3.78697L4.14645 3.85357L1.9013 1.60842L1.2122 9.18849ZM1.34094 11.4215L5.54458 13.9437L9.96104 12.1771L9.10979 4.51584L1.34094 11.4215Z" fill="black"/>
</svg>
