<svg width="15" height="15" viewBox="0 0 15 15" fill="none" xmlns="http://www.w3.org/2000/svg">
<path fill-rule="evenodd" clip-rule="evenodd" d="M7.5 1C3.91015 0.999999 1 3.91015 1 7.5C0.999999 11.0898 3.91015 14 7.5 14C11.0898 14 14 11.0899 14 7.5C14 3.91015 11.0899 1 7.5 1ZM0 7.5C8.9407e-07 3.35786 3.35787 -8.94069e-07 7.5 0C11.6421 8.9407e-07 15 3.35787 15 7.5C15 11.6421 11.6421 15 7.5 15C3.35786 15 -8.94069e-07 11.6421 0 7.5ZM7.5 4C6.67157 4 6 4.67157 6 5.5V6H9V5.5C9 4.67157 8.32843 4 7.5 4ZM10 6.08535V5.5C10 4.11929 8.88071 3 7.5 3C6.11929 3 5 4.11929 5 5.5V6.08535C4.41741 6.29127 4 6.84689 4 7.5V10.5C4 11.3284 4.67157 12 5.5 12H9.5C10.3284 12 11 11.3284 11 10.5V7.5C11 6.84689 10.5826 6.29127 10 6.08535ZM5.5 7C5.22386 7 5 7.22386 5 7.5V10.5C5 10.7761 5.22386 11 5.5 11H9.5C9.77614 11 10 10.7761 10 10.5V7.5C10 7.22386 9.77614 7 9.5 7H5.5Z" fill="black"/>
</svg>
