<svg width="15" height="13" viewBox="0 0 15 13" fill="none" xmlns="http://www.w3.org/2000/svg">
<path fill-rule="evenodd" clip-rule="evenodd" d="M8.74641 0.0649355C8.90313 0.153698 9 0.31989 9 0.5V12.4922C9 12.6723 8.90313 12.8385 8.74641 12.9272C8.58969 13.016 8.39735 13.0136 8.24288 12.921L3.36159 9.99413H1.5C0.672491 9.99413 0 9.3242 0 8.49479V4.49739C0 3.66798 0.672491 2.99804 1.5 2.99804H3.36159L8.24288 0.0711796C8.39735 -0.0214419 8.58969 -0.0238271 8.74641 0.0649355ZM8 1.3828L3.63841 3.99804H1.5C1.22351 3.99804 1 4.22153 1 4.49739V8.49479C1 8.77065 1.22351 8.99413 1.5 8.99413H3.63841L8 11.6094V1.3828ZM13.4998 2.79094L13.8534 3.14438L13.5 3.49804C13.8534 3.14438 13.8533 3.14419 13.8534 3.14438L13.8542 3.14511L13.855 3.14595L13.8569 3.1479L13.8619 3.15296L13.8759 3.16767C13.887 3.17951 13.9016 3.19546 13.9192 3.21551C13.9543 3.25561 14.0013 3.31219 14.0562 3.3853C14.1658 3.53144 14.3073 3.74423 14.4472 4.02383C14.7278 4.58467 15 5.4103 15 6.49609C15 7.58188 14.7278 8.40751 14.4472 8.96834C14.3073 9.24794 14.1658 9.46073 14.0562 9.60688C14.0013 9.67999 13.9543 9.73657 13.9192 9.77666C13.9016 9.79671 13.887 9.81266 13.8759 9.82451L13.8619 9.83922L13.8569 9.84428L13.855 9.84623L13.8542 9.84706C13.854 9.84724 13.8534 9.8478 13.5 9.49413L13.8534 9.8478L13.4998 10.2012L12.7929 9.4939L13.1444 9.14266L13.1466 9.14033C13.1501 9.13657 13.157 9.12909 13.1668 9.11792C13.1864 9.09555 13.2175 9.05844 13.2563 9.00663C13.3342 8.90294 13.4427 8.74097 13.5528 8.5209C13.7722 8.08238 14 7.40899 14 6.49609C14 5.58318 13.7722 4.90979 13.5528 4.47128C13.4427 4.2512 13.3342 4.08924 13.2563 3.98555C13.2175 3.93374 13.1864 3.89663 13.1668 3.87426C13.157 3.86308 13.1501 3.85561 13.1466 3.85184L13.1444 3.84953L12.7929 3.49827L13.4998 2.79094Z" fill="black"/>
</svg>
