<svg width="15" height="13" viewBox="0 0 15 13" fill="none" xmlns="http://www.w3.org/2000/svg">
<path fill-rule="evenodd" clip-rule="evenodd" d="M3.05279 0.276393C3.13748 0.107001 3.31061 0 3.5 0H11.5C11.6894 0 11.8625 0.107001 11.9472 0.276393L14.9472 6.27639C15.0176 6.41716 15.0176 6.58284 14.9472 6.72361L11.9472 12.7236C11.8625 12.893 11.6894 13 11.5 13H3.5C3.31061 13 3.13748 12.893 3.05279 12.7236L0.0527864 6.72361C-0.0175955 6.58284 -0.0175955 6.41716 0.0527864 6.27639L3.05279 0.276393ZM3.80902 1L1.05902 6.5L3.80902 12H11.191L13.941 6.5L11.191 1H3.80902ZM7.5 2.39907L11 4.73241V8.26759L7.5 10.6009L4 8.26759V4.73241L7.5 2.39907ZM5 5.26759V7.73241L7.5 9.39907L10 7.73241V5.26759L7.5 3.60093L5 5.26759Z" fill="black"/>
</svg>
