<svg width="5" height="15" viewBox="0 0 5 15" fill="none" xmlns="http://www.w3.org/2000/svg">
<path fill-rule="evenodd" clip-rule="evenodd" d="M2.14645 0.146447C2.34171 -0.0488155 2.65829 -0.0488155 2.85355 0.146447L3.85355 1.14645C3.94732 1.24021 4 1.36739 4 1.5V8.08535C4.5826 8.29127 5 8.84689 5 9.5V12.5C5 13.3284 4.32843 14 3.5 14H3V15H2V14H1.5C0.671573 14 0 13.3284 0 12.5V9.5C0 8.84689 0.417404 8.29127 1 8.08535V1.5C1 1.36739 1.05268 1.24021 1.14645 1.14645L2.14645 0.146447ZM2 8H3V4H2V8ZM2 3H3V1.70711L2.5 1.20711L2 1.70711V3ZM3.5 13C3.77614 13 4 12.7761 4 12.5V9.5C4 9.22386 3.77614 9 3.5 9H1.5C1.22386 9 1 9.22386 1 9.5V12.5C1 12.7761 1.22386 13 1.5 13H3.5Z" fill="black"/>
</svg>
