<svg width="13" height="13" viewBox="0 0 13 13" fill="none" xmlns="http://www.w3.org/2000/svg">
<path fill-rule="evenodd" clip-rule="evenodd" d="M0 1.5C0 0.671573 0.671573 0 1.5 0H4.5C5.32843 0 6 0.671573 6 1.5V4.5C6 5.32843 5.32843 6 4.5 6H1V9C1 10.6569 2.34315 12 4 12V13C1.79086 13 0 11.2091 0 9V1.5ZM1 5H4.5C4.77614 5 5 4.77614 5 4.5V1.5C5 1.22386 4.77614 1 4.5 1H1.5C1.22386 1 1 1.22386 1 1.5V5ZM7 1.5C7 0.671573 7.67157 0 8.5 0H11.5C12.3284 0 13 0.671573 13 1.5V4.5C13 5.32843 12.3284 6 11.5 6H8V9C8 10.6569 9.34315 12 11 12V13C8.79086 13 7 11.2091 7 9V1.5ZM8 5H11.5C11.7761 5 12 4.77614 12 4.5V1.5C12 1.22386 11.7761 1 11.5 1H8.5C8.22386 1 8 1.22386 8 1.5V5Z" fill="black"/>
</svg>
