<svg width="7" height="13" viewBox="0 0 7 13" fill="none" xmlns="http://www.w3.org/2000/svg">
<path fill-rule="evenodd" clip-rule="evenodd" d="M0.499985 1.5C0.499985 0.947715 0.947701 0.5 1.49999 0.5C2.05227 0.5 2.49999 0.947715 2.49999 1.5C2.49999 2.05228 2.05227 2.5 1.49999 2.5C0.9477 2.5 0.499985 2.05228 0.499985 1.5ZM4.49999 1.5C4.49999 0.947716 4.9477 0.5 5.49999 0.5C6.05227 0.5 6.49999 0.947715 6.49999 1.5C6.49999 2.05229 6.05227 2.5 5.49999 2.5C4.9477 2.5 4.49999 2.05229 4.49999 1.5ZM0.499985 6.5C0.499985 5.94772 0.9477 5.5 1.49998 5.5C2.05227 5.5 2.49998 5.94772 2.49998 6.5C2.49998 7.05228 2.05227 7.5 1.49998 7.5C0.9477 7.5 0.499985 7.05228 0.499985 6.5ZM4.49998 6.5C4.49998 5.94771 4.9477 5.5 5.49999 5.5C6.05227 5.5 6.49998 5.94772 6.49998 6.5C6.49998 7.05228 6.05227 7.5 5.49998 7.5C4.9477 7.5 4.49998 7.05228 4.49998 6.5ZM0.499985 11.5C0.499985 10.9477 0.9477 10.5 1.49998 10.5C2.05227 10.5 2.49998 10.9477 2.49998 11.5C2.49998 12.0523 2.05227 12.5 1.49998 12.5C0.9477 12.5 0.499985 12.0523 0.499985 11.5ZM4.49998 11.5C4.49998 10.9477 4.9477 10.5 5.49998 10.5C6.05227 10.5 6.49998 10.9477 6.49998 11.5C6.49998 12.0523 6.05227 12.5 5.49998 12.5C4.9477 12.5 4.49998 12.0523 4.49998 11.5Z" fill="black"/>
</svg>
