<svg width="15" height="15" viewBox="0 0 15 15" fill="none" xmlns="http://www.w3.org/2000/svg">
<path fill-rule="evenodd" clip-rule="evenodd" d="M7.00001 4C7.00001 1.79086 8.79087 0 11 0C13.2091 0 15 1.79086 15 4C15 6.20914 13.2091 8 11 8C10.0757 8 9.22453 7.68646 8.54719 7.15993L5.20711 10.5L6.85356 12.1464L6.14645 12.8536L4.50001 11.2071L3.20711 12.5L4.85356 14.1464L4.14645 14.8536L2.50001 13.2071L0.853561 14.8536L0.146454 14.1464L7.84008 6.45282C7.31355 5.77548 7.00001 4.92436 7.00001 4ZM11 1C9.34315 1 8.00001 2.34315 8.00001 4C8.00001 5.65685 9.34315 7 11 7C12.6569 7 14 5.65685 14 4C14 2.34315 12.6569 1 11 1Z" fill="black"/>
</svg>
