<svg width="15" height="9" viewBox="0 0 15 9" fill="none" xmlns="http://www.w3.org/2000/svg">
<path fill-rule="evenodd" clip-rule="evenodd" d="M0 1.5C0 0.671573 0.671573 0 1.5 0H13.5C14.3284 0 15 0.671573 15 1.5V7.5C15 8.32843 14.3284 9 13.5 9H1.5C0.671574 9 0 8.32843 0 7.5V1.5ZM1.5 1C1.22386 1 1 1.22386 1 1.5V7.5C1 7.77614 1.22386 8 1.5 8H13.5C13.7761 8 14 7.77614 14 7.5V1.5C14 1.22386 13.7761 1 13.5 1H1.5ZM10 4H9V3H10V4ZM12 4H11V3H12V4ZM3 5V4H4V5H5V6H4V7H3V6H2V5H3ZM10 6H9V5H10V6ZM12 6H11V5H12V6Z" fill="black"/>
</svg>
