<svg width="13" height="15" viewBox="0 0 13 15" fill="none" xmlns="http://www.w3.org/2000/svg">
<path fill-rule="evenodd" clip-rule="evenodd" d="M2.03897 1.4032C3.12743 0.513857 4.62923 0 6.50145 0C8.37362 0 9.87542 0.513637 10.9639 1.40289C12.0528 2.2925 12.691 3.52825 12.885 4.90146C13.2542 7.3536 12.7336 9.67724 11.3312 11.717C10.6626 12.7066 9.7734 13.6863 8.73109 14.3436L8.72398 14.3481C7.29275 15.2174 5.71018 15.2173 4.27894 14.348L4.27176 14.3437C3.22962 13.6865 2.3406 12.7069 1.67201 11.7175C0.263785 9.6799 -0.257373 7.35351 0.117954 4.90075C0.312101 3.52819 0.950265 2.29273 2.03897 1.4032ZM2.67169 2.17758C1.79579 2.89324 1.26983 3.8934 1.10774 5.04335L1.10689 5.04934C0.768553 7.25624 1.23403 9.32596 2.49607 11.151L2.4992 11.1555C3.11612 12.069 3.9117 12.9333 4.80165 13.4955C5.91168 14.1682 7.09121 14.1682 8.20124 13.4955C9.09119 12.9333 9.88679 12.069 10.5037 11.1555L10.5061 11.152C11.7635 9.32401 12.2287 7.25558 11.8958 5.04811L11.8951 5.04333C11.733 3.89299 11.2071 2.89285 10.3312 2.17731C9.45431 1.4609 8.18956 1 6.50145 1C4.81338 1 3.54863 1.46107 2.67169 2.17758ZM3.56156 5.75766L5.73633 7.96046L5.02471 8.66303L2.84994 6.46022L3.56156 5.75766ZM10.1529 6.46022L7.97818 8.66303L7.26655 7.96046L9.44132 5.75766L10.1529 6.46022ZM5.26482 10.7759L5.72213 10.9781C5.81866 11.0207 5.92119 11.083 6.00242 11.1336C6.04105 11.1577 6.07598 11.1798 6.10983 11.2013C6.16018 11.2333 6.20814 11.2637 6.26231 11.2966C6.34789 11.3487 6.4187 11.388 6.47542 11.4134C6.48559 11.4179 6.49424 11.4215 6.50144 11.4244C6.50864 11.4215 6.51729 11.4179 6.52746 11.4134C6.58418 11.388 6.65499 11.3487 6.74057 11.2966C6.79474 11.2637 6.8427 11.2333 6.89305 11.2013C6.9269 11.1798 6.96183 11.1577 7.00046 11.1336C7.08169 11.083 7.18422 11.0207 7.28075 10.9781L7.73806 10.7759L8.14238 11.6905L7.68507 11.8927C7.66122 11.9032 7.61371 11.9297 7.52938 11.9823C7.50469 11.9977 7.47514 12.0164 7.44319 12.0366C7.38526 12.0733 7.31943 12.115 7.26023 12.151C7.16338 12.2099 7.05038 12.2749 6.93607 12.3261C6.83199 12.3727 6.67457 12.4324 6.50144 12.4324C6.32831 12.4324 6.17089 12.3727 6.06681 12.3261C5.9525 12.2749 5.8395 12.2099 5.74265 12.151C5.68345 12.115 5.61762 12.0733 5.55969 12.0366C5.52774 12.0164 5.49819 11.9977 5.4735 11.9823C5.38917 11.9297 5.34166 11.9032 5.31781 11.8927L4.8605 11.6905L5.26482 10.7759Z" fill="black"/>
</svg>
