<svg width="15" height="15" viewBox="0 0 15 15" fill="none" xmlns="http://www.w3.org/2000/svg">
<path fill-rule="evenodd" clip-rule="evenodd" d="M7.74807 1.21763C7.59435 1.12979 7.40565 1.12979 7.25193 1.21763L1.25193 4.6462C1.20241 4.67449 1.15892 4.71053 1.12263 4.7523L7.5 7.94098L13.8774 4.7523C13.8411 4.71053 13.7976 4.67449 13.7481 4.6462L7.74807 1.21763ZM14 5.80901L7.5 9.05901L1 5.80901V13.5C1 13.7761 1.22386 14 1.5 14H13.5C13.7761 14 14 13.7761 14 13.5V5.80901ZM6.75579 0.349384C7.21694 0.0858701 7.78306 0.0858704 8.24421 0.349384L14.2442 3.77796C14.7116 4.04502 15 4.54204 15 5.08032V13.5C15 14.3284 14.3284 15 13.5 15H1.5C0.671574 15 0 14.3284 0 13.5V5.08032C0 4.54203 0.288429 4.04502 0.755792 3.77796L6.75579 0.349384Z" fill="black"/>
</svg>
