<svg width="13" height="13" viewBox="0 0 13 13" fill="none" xmlns="http://www.w3.org/2000/svg">
<path fill-rule="evenodd" clip-rule="evenodd" d="M6 13V0H7V13H6ZM2.5 4C1.67157 4 1 4.67157 1 5.5V7H4V5.5C4 4.67157 3.32843 4 2.5 4ZM4 8V10H5V5.5C5 4.11929 3.88071 3 2.5 3C1.11929 3 0 4.11929 0 5.5V10H1V8H4ZM8 3H11C12.1046 3 13 3.89543 13 5C13 5.59735 12.7381 6.13353 12.3229 6.5C12.7381 6.86647 13 7.40265 13 8C13 9.10457 12.1046 10 11 10H8V3ZM11 6C11.5523 6 12 5.55228 12 5C12 4.44772 11.5523 4 11 4H9V6H11ZM9 7H11C11.5523 7 12 7.44772 12 8C12 8.55228 11.5523 9 11 9H9V7Z" fill="black"/>
</svg>
