<svg width="15" height="15" viewBox="0 0 15 15" fill="none" xmlns="http://www.w3.org/2000/svg">
<path fill-rule="evenodd" clip-rule="evenodd" d="M0 7.5C0 3.35786 3.35786 0 7.5 0C11.6421 0 15 3.35786 15 7.5C15 11.6421 11.6421 15 7.5 15C3.35786 15 0 11.6421 0 7.5ZM7.5 1C3.91015 1 1 3.91015 1 7.5C1 11.0899 3.91015 14 7.5 14C8.49892 14 9.44522 13.7747 10.2908 13.3721L5 6.04629V12H4V4.5C4 4.28313 4.13981 4.09098 4.34617 4.02425C4.55252 3.95753 4.77836 4.03144 4.90534 4.20725L11.1623 12.8708C12.8755 11.7003 14 9.73147 14 7.5C14 3.91015 11.0899 1 7.5 1ZM10 10V4H11V10H10Z" fill="black"/>
</svg>
