<svg width="9" height="15" viewBox="0 0 9 15" fill="none" xmlns="http://www.w3.org/2000/svg">
<path fill-rule="evenodd" clip-rule="evenodd" d="M2.5 1C2.22386 1 2 1.22386 2 1.5V5H7V1.5C7 1.22386 6.77614 1 6.5 1H2.5ZM8 5.08535V1.5C8 0.671573 7.32843 0 6.5 0H2.5C1.67157 0 1 0.671573 1 1.5V5.08535C0.417404 5.29127 0 5.84689 0 6.5V11.5C0 12.3284 0.671573 13 1.5 13H2V15H3V13L6 13V15H7V13L7.5 13C8.32843 13 9 12.3284 9 11.5V6.5C9 5.84689 8.5826 5.29127 8 5.08535ZM3 2H6V3H3V2ZM1.5 6C1.22386 6 1 6.22386 1 6.5V11.5C1 11.7761 1.22386 12 1.5 12H7.5C7.77614 12 8 11.7761 8 11.5V6.5C8 6.22386 7.77614 6 7.5 6H1.5Z" fill="black"/>
</svg>
