<svg width="13" height="15" viewBox="0 0 13 15" fill="none" xmlns="http://www.w3.org/2000/svg">
<path fill-rule="evenodd" clip-rule="evenodd" d="M1.5 1C1.22386 1 1 1.22386 1 1.5V13.5C1 13.7761 1.22386 14 1.5 14H11.5C11.7761 14 12 13.7761 12 13.5V3.70711L9.29289 1H1.5ZM0 1.5C0 0.671574 0.671573 0 1.5 0H9.70711L13 3.29289V13.5C13 14.3284 12.3284 15 11.5 15H1.5C0.671572 15 0 14.3284 0 13.5V1.5ZM2 4H5V5H8V4H11V7H10V10H11V13H8V12H5V13H2V10H3V7H2V4ZM4 7V10H5V11H8V10H9V7H8V6H5V7H4ZM4 5V6H3V5H4ZM10 6V5H9V6H10ZM9 12H10V11H9V12ZM3 11V12H4V11H3Z" fill="black"/>
</svg>
