<svg width="15" height="15" viewBox="0 0 15 15" fill="none" xmlns="http://www.w3.org/2000/svg">
<path fill-rule="evenodd" clip-rule="evenodd" d="M0 2.5C0 1.11929 1.11929 0 2.5 0C3.70948 0 4.71836 0.85888 4.94999 2H9.5C11.433 2 13 3.567 13 5.5V7.05001C14.1411 7.28164 15 8.29052 15 9.5C15 10.8807 13.8807 12 12.5 12C11.1193 12 10 10.8807 10 9.5C10 8.29052 10.8589 7.28164 12 7.05001V5.5C12 4.11929 10.8807 3 9.5 3H4.94999C4.75115 3.97957 3.97957 4.75115 3 4.94999V10.05C4.14112 10.2816 5 11.2905 5 12.5C5 13.8807 3.88071 15 2.5 15C1.11929 15 0 13.8807 0 12.5C0 11.2905 0.85888 10.2816 2 10.05V4.94999C0.85888 4.71836 0 3.70948 0 2.5ZM2.5 1C1.67157 1 1 1.67157 1 2.5C1 3.32843 1.67157 4 2.5 4C3.32843 4 4 3.32843 4 2.5C4 1.67157 3.32843 1 2.5 1ZM12.5 8C11.6716 8 11 8.67157 11 9.5C11 10.3284 11.6716 11 12.5 11C13.3284 11 14 10.3284 14 9.5C14 8.67157 13.3284 8 12.5 8ZM2.5 11C1.67157 11 1 11.6716 1 12.5C1 13.3284 1.67157 14 2.5 14C3.32843 14 4 13.3284 4 12.5C4 11.6716 3.32843 11 2.5 11Z" fill="black"/>
</svg>
