<svg width="15" height="13" viewBox="0 0 15 13" fill="none" xmlns="http://www.w3.org/2000/svg">
<path fill-rule="evenodd" clip-rule="evenodd" d="M1 1.16045L1 9.83954C5.25649 8.68602 9.74351 8.68602 14 9.83954V1.16045C9.74351 2.31397 5.25649 2.31397 1 1.16045ZM4.17233e-07 0.822815C4.17233e-07 0.328845 0.472799 -0.0277867 0.947762 0.107917C5.23024 1.33148 9.76976 1.33148 14.0522 0.107918C14.5272 -0.027786 15 0.328846 15 0.822815V10.1772C15 10.6711 14.5272 11.0278 14.0522 10.8921C12.0728 10.3265 10.0385 10.0224 8 9.97964V12H13V13H2V12H7V9.97964C4.96152 10.0224 2.92718 10.3265 0.947762 10.8921C0.472801 11.0278 0 10.6711 0 10.1772L4.17233e-07 0.822815Z" fill="black"/>
</svg>
