<svg width="15" height="15" viewBox="0 0 15 15" fill="none" xmlns="http://www.w3.org/2000/svg">
<path fill-rule="evenodd" clip-rule="evenodd" d="M0 1.5C0 0.671573 0.671573 0 1.5 0C2.15311 0 2.70873 0.417404 2.91465 1H4.5C6.433 1 8 2.567 8 4.5V10.5C8 11.8807 9.11929 13 10.5 13H12.0854C12.2913 12.4174 12.8469 12 13.5 12C14.3284 12 15 12.6716 15 13.5C15 14.3284 14.3284 15 13.5 15C12.8469 15 12.2913 14.5826 12.0854 14H10.5C8.567 14 7 12.433 7 10.5V4.5C7 3.11929 5.88071 2 4.5 2H2.91465C2.70873 2.5826 2.15311 3 1.5 3C0.671573 3 0 2.32843 0 1.5ZM1.5 1C1.22386 1 1 1.22386 1 1.5C1 1.77614 1.22386 2 1.5 2C1.77614 2 2 1.77614 2 1.5C2 1.22386 1.77614 1 1.5 1ZM13.5 13C13.2239 13 13 13.2239 13 13.5C13 13.7761 13.2239 14 13.5 14C13.7761 14 14 13.7761 14 13.5C14 13.2239 13.7761 13 13.5 13Z" fill="black"/>
</svg>
