<svg width="15" height="15" viewBox="0 0 15 15" fill="none" xmlns="http://www.w3.org/2000/svg">
<path fill-rule="evenodd" clip-rule="evenodd" d="M0 7.5C0 3.35786 3.35786 0 7.5 0C11.6421 0 15 3.35786 15 7.5C15 11.6421 11.6421 15 7.5 15C3.35786 15 0 11.6421 0 7.5ZM7.5 1C3.91015 1 1 3.91015 1 7.5C1 9.34956 1.77251 11.0187 3.01247 12.2024C3.16345 10.4086 4.66724 9 6.5 9H8.5C10.3328 9 11.8366 10.4086 11.9875 12.2024C13.2275 11.0187 14 9.34957 14 7.5C14 3.91015 11.0899 1 7.5 1ZM11 12.9782V12.4999C11 11.1192 9.88074 10 8.5 10H6.5C5.11926 10 4 11.1192 4 12.4999V12.9782C5.0103 13.625 6.21136 14 7.5 14C8.78864 14 9.9897 13.625 11 12.9782ZM5 5.5C5 4.11929 6.11929 3 7.5 3C8.88071 3 10 4.11929 10 5.5C10 6.88071 8.88071 8 7.5 8C6.11929 8 5 6.88071 5 5.5ZM7.5 4C6.67157 4 6 4.67157 6 5.5C6 6.32843 6.67157 7 7.5 7C8.32843 7 9 6.32843 9 5.5C9 4.67157 8.32843 4 7.5 4Z" fill="black"/>
</svg>
