<svg width="15" height="15" viewBox="0 0 15 15" fill="none" xmlns="http://www.w3.org/2000/svg">
<path fill-rule="evenodd" clip-rule="evenodd" d="M5.31537 1.83664C4.91591 1.72075 4.6196 1.75183 4.40406 1.86858C4.18851 1.98534 4.00061 2.21654 3.87946 2.61445C3.75743 3.01524 3.71578 3.5503 3.77508 4.19636C3.78469 4.30105 3.79689 4.408 3.81168 4.51703C4.33487 4.38407 4.89711 4.27906 5.48788 4.20575C5.89742 3.63195 6.327 3.11451 6.76281 2.66581C6.74097 2.64811 6.71917 2.63064 6.69739 2.61341C6.18865 2.21079 5.71773 1.95338 5.31537 1.83664ZM7.49994 1.97756C7.43924 1.92667 7.37857 1.87722 7.31796 1.82926C6.746 1.37661 6.16025 1.04054 5.59401 0.87625C5.02487 0.711123 4.44065 0.711476 3.92776 0.989295C3.41488 1.26711 3.09543 1.75626 2.92282 2.32318C2.75109 2.88721 2.71259 3.56142 2.77927 4.28777C2.7949 4.45802 2.81643 4.63251 2.84379 4.81071C2.67409 4.87153 2.51042 4.93569 2.35329 5.00303C1.68286 5.29036 1.10837 5.64533 0.694221 6.06497C0.277951 6.48676 0 7.00063 0 7.58393C0 8.16722 0.27795 8.68109 0.694221 9.10288C1.10837 9.52252 1.68286 9.87749 2.35329 10.1648C2.51042 10.2322 2.67408 10.2963 2.84378 10.3571C2.81642 10.5354 2.79488 10.7099 2.77925 10.8801C2.71257 11.6065 2.75107 12.2807 2.9228 12.8447C3.09541 13.4116 3.41486 13.9008 3.92774 14.1786C4.44063 14.4564 5.02485 14.4568 5.59399 14.2917C6.16023 14.1274 6.74598 13.7913 7.31794 13.3386C7.37856 13.2907 7.43923 13.2412 7.49994 13.1903C7.56065 13.2412 7.62132 13.2907 7.68193 13.3386C8.2539 13.7913 8.83965 14.1274 9.40589 14.2917C9.97503 14.4568 10.5592 14.4564 11.0721 14.1786C11.585 13.9008 11.9045 13.4116 12.0771 12.8447C12.2488 12.2807 12.2873 11.6065 12.2206 10.8801C12.205 10.7099 12.1835 10.5354 12.1561 10.3572C12.3258 10.2964 12.4895 10.2322 12.6467 10.1648C13.3171 9.87749 13.8916 9.52252 14.3058 9.10288C14.722 8.68109 15 8.16722 15 7.58393C15 7.00063 14.722 6.48676 14.3058 6.06497C13.8916 5.64533 13.3171 5.29036 12.6467 5.00303C12.4895 4.93568 12.3258 4.8715 12.1561 4.81067C12.1834 4.63249 12.205 4.45801 12.2206 4.28777C12.2873 3.56142 12.2488 2.88721 12.0771 2.32318C11.9045 1.75626 11.585 1.26711 11.0721 0.989295C10.5592 0.711476 9.97501 0.711123 9.40587 0.87625C8.83963 1.04054 8.25388 1.37661 7.68191 1.82926C7.62131 1.87722 7.56064 1.92667 7.49994 1.97756ZM7.49994 3.34222C7.27514 3.57239 7.05016 3.82467 6.82771 4.09718C7.04936 4.0884 7.27361 4.08393 7.5 4.08393C7.72635 4.08393 7.95056 4.0884 8.17216 4.09718C7.94972 3.82467 7.72474 3.57239 7.49994 3.34222ZM9.51199 4.20573C9.10245 3.63195 8.67287 3.11451 8.23707 2.66581C8.25891 2.64811 8.28071 2.63064 8.30249 2.61341C8.81123 2.21079 9.28215 1.95338 9.68451 1.83664C10.084 1.72075 10.3803 1.75183 10.5958 1.86858C10.8114 1.98534 10.9993 2.21654 11.1204 2.61445C11.2424 3.01524 11.2841 3.5503 11.2248 4.19636C11.2152 4.30104 11.203 4.40798 11.1882 4.51701C10.665 4.38405 10.1028 4.27904 9.51199 4.20573ZM8.94935 5.1504C8.484 5.10699 7.9991 5.08393 7.5 5.08393C7.00085 5.08393 6.51591 5.10699 6.05052 5.15041C5.79069 5.53893 5.53944 5.95434 5.30171 6.39322C5.08522 6.79288 4.89116 7.19129 4.71966 7.58393C4.89117 7.97658 5.08524 8.37501 5.30173 8.77468C5.53945 9.21354 5.7907 9.62894 6.05051 10.0174C6.5159 10.0609 7.00085 10.0839 7.5 10.0839C7.99911 10.0839 8.48401 10.0609 8.94936 10.0175C9.20918 9.62895 9.46042 9.21355 9.69815 8.77468C9.91464 8.37501 10.1087 7.97658 10.2802 7.58393C10.1087 7.1913 9.91465 6.79288 9.69817 6.39322C9.46043 5.95433 9.20918 5.53892 8.94935 5.1504ZM10.7728 6.28844C10.7096 6.16458 10.6445 6.04071 10.5775 5.91693C10.4696 5.71787 10.3589 5.52283 10.2456 5.33212C10.5062 5.38173 10.7573 5.4381 10.9978 5.50057C10.9346 5.75645 10.8596 6.01963 10.7728 6.28844ZM10.7728 8.87942C10.7096 9.00329 10.6445 9.12718 10.5774 9.25097C10.4696 9.45001 10.3589 9.64504 10.2456 9.83574C10.5062 9.78612 10.7573 9.72976 10.9978 9.66728C10.9346 9.41141 10.8596 9.14822 10.7728 8.87942ZM11.9533 9.36625C11.8083 8.79256 11.6114 8.1936 11.3649 7.58393C11.6114 6.97425 11.8083 6.37529 11.9533 5.8016C12.0563 5.84054 12.1561 5.88076 12.2528 5.92218C12.8491 6.17774 13.2997 6.46922 13.594 6.76741C13.8862 7.06345 14 7.33879 14 7.58393C14 7.82906 13.8862 8.1044 13.594 8.40044C13.2997 8.69863 12.8491 8.99011 12.2528 9.24567C12.1561 9.2871 12.0563 9.32731 11.9533 9.36625ZM11.1882 10.6508C10.665 10.7838 10.1028 10.8888 9.51201 10.9621C9.10247 11.5359 8.67288 12.0534 8.23707 12.5021C8.25891 12.5198 8.28072 12.5373 8.30251 12.5545C8.81125 12.9571 9.28217 13.2145 9.68453 13.3313C10.084 13.4472 10.3803 13.4161 10.5958 13.2993C10.8114 13.1826 10.9993 12.9514 11.1204 12.5535C11.2425 12.1527 11.2841 11.6176 11.2248 10.9715C11.2152 10.8668 11.203 10.7599 11.1882 10.6508ZM7.49994 11.8257C7.72475 11.5955 7.94973 11.3432 8.17218 11.0707C7.95057 11.0795 7.72635 11.0839 7.5 11.0839C7.27361 11.0839 7.04935 11.0795 6.82769 11.0707C7.05015 11.3432 7.27513 11.5955 7.49994 11.8257ZM4.75426 9.83571C4.64098 9.64503 4.53025 9.45 4.42244 9.25097C4.35539 9.12718 4.29025 9.00329 4.22704 8.87942C4.14031 9.14821 4.06531 9.41139 4.00208 9.66726C4.24253 9.72973 4.49368 9.78609 4.75426 9.83571ZM3.81167 10.6508C4.33485 10.7838 4.8971 10.8888 5.48786 10.9621C5.8974 11.5359 6.327 12.0534 6.76282 12.5021C6.74097 12.5198 6.71915 12.5373 6.69737 12.5545C6.18863 12.9571 5.71771 13.2145 5.31535 13.3313C4.91589 13.4472 4.61958 13.4161 4.40404 13.2993C4.18849 13.1826 4.00059 12.9514 3.87944 12.5535C3.75741 12.1527 3.71576 11.6176 3.77506 10.9715C3.78468 10.8668 3.79688 10.7599 3.81167 10.6508ZM3.04656 9.36621C3.19156 8.79253 3.38844 8.19358 3.63494 7.58393C3.38844 6.97427 3.19157 6.37532 3.04656 5.80164C2.94366 5.84057 2.84383 5.88077 2.74721 5.92218C2.15089 6.17774 1.70026 6.46922 1.40597 6.76741C1.1138 7.06345 1 7.33879 1 7.58393C1 7.82906 1.1138 8.1044 1.40597 8.40044C1.70026 8.69863 2.15089 8.99011 2.74721 9.24567C2.84383 9.28708 2.94366 9.32728 3.04656 9.36621ZM4.00208 5.50059C4.06531 5.75646 4.14031 6.01964 4.22704 6.28843C4.29024 6.16458 4.35538 6.04071 4.42242 5.91693C4.53024 5.71788 4.64098 5.52284 4.75427 5.33214C4.49369 5.38176 4.24254 5.43812 4.00208 5.50059ZM6 7.58393C6 6.7555 6.67157 6.08393 7.5 6.08393C8.32843 6.08393 9 6.7555 9 7.58393C9 8.41235 8.32843 9.08393 7.5 9.08393C6.67157 9.08393 6 8.41235 6 7.58393ZM7.5 7.08393C7.22386 7.08393 7 7.30778 7 7.58393C7 7.86007 7.22386 8.08393 7.5 8.08393C7.77614 8.08393 8 7.86007 8 7.58393C8 7.30778 7.77614 7.08393 7.5 7.08393Z" fill="black"/>
</svg>
