<svg width="15" height="15" viewBox="0 0 15 15" fill="none" xmlns="http://www.w3.org/2000/svg">
<path fill-rule="evenodd" clip-rule="evenodd" d="M7 15V0H8V15H7ZM4.61488 3.01338C4.84056 3.06665 5 3.26811 5 3.5V11.5C5 11.7761 4.77614 12 4.5 12H0.500001C0.326712 12 0.165778 11.9103 0.0746751 11.7629C-0.0164282 11.6155 -0.0247102 11.4314 0.0527869 11.2764L4.05279 3.27639C4.15649 3.06899 4.38919 2.9601 4.61488 3.01338ZM10.3851 3.01338C10.6108 2.9601 10.8435 3.06899 10.9472 3.27639L14.9472 11.2764C15.0247 11.4314 15.0164 11.6155 14.9253 11.7629C14.8342 11.9103 14.6733 12 14.5 12H10.5C10.2239 12 10 11.7761 10 11.5V3.5C10 3.26811 10.1594 3.06665 10.3851 3.01338ZM1.30902 11L4 5.61803V11H1.30902ZM11 5.61803V11H13.691L11 5.61803Z" fill="black"/>
</svg>
