<svg width="13" height="15" viewBox="0 0 13 15" fill="none" xmlns="http://www.w3.org/2000/svg">
<path fill-rule="evenodd" clip-rule="evenodd" d="M11.4349 2.47401C10.5569 1.06892 8.70607 0.641625 7.30097 1.51962L3.06073 4.16922C1.65564 5.04722 1.22835 6.89803 2.10635 8.30312C2.98321 9.70639 4.83035 10.1344 6.23477 9.26092C6.2366 9.25979 6.23843 9.25865 6.24025 9.25751L8.36044 7.93266L8.89036 8.78071L6.77017 10.1056C6.76812 10.1068 6.76607 10.1081 6.76402 10.1094L3.80207 11.9602L3.27215 11.1122L3.99645 10.6596C3.08883 10.5088 2.23655 10.0473 1.61107 9.31457C1.01819 10.2578 0.976696 11.4955 1.60635 12.5032C2.48435 13.9083 4.33516 14.3356 5.74025 13.4576L9.98049 10.808C11.3856 9.92999 11.8129 8.07918 10.9349 6.67408C10.0569 5.26899 8.20607 4.8417 6.80097 5.7197L6.80095 5.71967L4.68085 7.04445L4.15093 6.1964L9.23922 3.01689L9.76914 3.86494L9.0447 4.31761C9.95235 4.46839 10.8047 4.92992 11.4301 5.66263C12.023 4.71945 12.0645 3.48168 11.4349 2.47401ZM12.0128 6.56577C13.046 5.27648 13.2084 3.42511 12.2829 1.94409C11.1123 0.070635 8.64451 -0.499089 6.77105 0.671576L2.53081 3.32117C0.794936 4.40587 0.17834 6.60414 1.02838 8.41144C-0.00476253 9.7007 -0.167158 11.5521 0.758299 13.0331C1.92896 14.9066 4.39671 15.4763 6.27017 14.3056L10.5104 11.656C12.2463 10.5713 12.8629 8.37307 12.0128 6.56577Z" fill="black"/>
</svg>
