<svg width="15" height="15" viewBox="0 0 15 15" fill="none" xmlns="http://www.w3.org/2000/svg">
<path fill-rule="evenodd" clip-rule="evenodd" d="M14.8536 0.146446C14.9981 0.291016 15.0401 0.509038 14.9596 0.696959L8.95957 14.697C8.88561 14.8695 8.72119 14.9861 8.53386 14.9989C8.34652 15.0116 8.16786 14.9183 8.07125 14.7572L5.13557 9.86443L0.242753 6.92875C0.0817458 6.83214 -0.0115659 6.65348 0.00114801 6.46614C0.0138619 6.27881 0.130458 6.11439 0.303041 6.04043L14.303 0.0404268C14.491 -0.0401109 14.709 0.00187637 14.8536 0.146446ZM6.1296 9.57751L8.42563 13.4042L13.0177 2.68941L6.1296 9.57751ZM12.3106 1.9823L1.59577 6.57437L5.42249 8.8704L12.3106 1.9823Z" fill="black"/>
</svg>
