<svg width="15" height="11" viewBox="0 0 15 11" fill="none" xmlns="http://www.w3.org/2000/svg">
<path fill-rule="evenodd" clip-rule="evenodd" d="M0 1.5C0 0.671573 0.671573 0 1.5 0H13.5C14.3284 0 15 0.671573 15 1.5V9.5C15 10.3284 14.3284 11 13.5 11H1.5C0.671574 11 0 10.3284 0 9.5V1.5ZM1.5 1C1.22386 1 1 1.22386 1 1.5V9.5C1 9.77614 1.22386 10 1.5 10H13.5C13.7761 10 14 9.77614 14 9.5V1.5C14 1.22386 13.7761 1 13.5 1H1.5ZM2.30866 3.03806C2.4955 2.96067 2.71055 3.00345 2.85355 3.14645L4.5 4.79289L6.14645 3.14645C6.28945 3.00345 6.5045 2.96067 6.69134 3.03806C6.87818 3.11545 7 3.29777 7 3.5V8H6V4.70711L4.5 6.20711L3 4.70711V8H2V3.5C2 3.29777 2.12182 3.11545 2.30866 3.03806ZM10 6.29289V3H11V6.29289L12.1464 5.14645L12.8536 5.85355L10.5 8.20711L8.14645 5.85355L8.85355 5.14645L10 6.29289Z" fill="black"/>
</svg>
