<svg width="15" height="15" viewBox="0 0 15 15" fill="none" xmlns="http://www.w3.org/2000/svg">
<path fill-rule="evenodd" clip-rule="evenodd" d="M3.85355 0.853553L0.853553 3.85355L0.146446 3.14645L3.14645 0.146446L3.85355 0.853553ZM14.1464 3.85355L11.1464 0.853553L11.8536 0.146446L14.8536 3.14645L14.1464 3.85355ZM1 8.5C1 4.91015 3.91015 2 7.5 2C11.0898 2 14 4.91015 14 8.5C14 12.0899 11.0898 15 7.5 15C3.91015 15 1 12.0899 1 8.5ZM7.5 3C4.46243 3 2 5.46243 2 8.5C2 11.5376 4.46243 14 7.5 14C10.5376 14 13 11.5376 13 8.5C13 5.46243 10.5376 3 7.5 3ZM7 5H8V8H10V9H7V5Z" fill="black"/>
</svg>
