<svg width="13" height="15" viewBox="0 0 13 15" fill="none" xmlns="http://www.w3.org/2000/svg">
<path fill-rule="evenodd" clip-rule="evenodd" d="M6.15252 0.140481C6.34631 -0.046827 6.65369 -0.046827 6.84749 0.140481L11.1369 4.28629C12.0339 5.17118 12.6426 6.29444 12.884 7.51612C13.1254 8.73792 12.9881 10.0012 12.49 11.1467C11.9921 12.2921 11.1566 13.2671 10.0909 13.9516C9.02537 14.6359 7.77624 15 6.5 15C5.22377 15 3.97463 14.6359 2.90912 13.9516C1.84344 13.2671 1.00793 12.2921 0.509975 11.1467C0.011932 10.0012 -0.125416 8.73792 0.115989 7.51612C0.357369 6.29444 0.966118 5.1712 1.86315 4.28631L1.86679 4.28272L6.15252 0.140481ZM2.56365 4.99996C1.80795 5.74613 1.29872 6.68911 1.09702 7.70995C0.895191 8.73147 1.00971 9.78808 1.42705 10.748C1.84449 11.7082 2.54714 12.5306 3.44952 13.1102C4.35207 13.6898 5.41329 14 6.5 14C7.58671 14 8.64793 13.6898 9.55048 13.1102C10.4529 12.5306 11.1555 11.7082 11.5729 10.748C11.9903 9.78808 12.1048 8.73147 11.903 7.70995C11.7013 6.68912 11.1921 5.74613 10.4364 4.99998L6.5 1.19537L2.56365 4.99996Z" fill="black"/>
</svg>
