<svg width="15" height="15" viewBox="0 0 15 15" fill="none" xmlns="http://www.w3.org/2000/svg">
<path fill-rule="evenodd" clip-rule="evenodd" d="M0 1.5C0 0.671573 0.671574 0 1.5 0H13.5C14.3284 0 15 0.671573 15 1.5V5H14V1.5C14 1.22386 13.7761 1 13.5 1H1.5C1.22386 1 1 1.22386 1 1.5V13.5C1 13.7761 1.22386 14 1.5 14H8V15H1.5C0.671573 15 0 14.3284 0 13.5V1.5ZM8 5H3V4H8V5ZM8 8.5C8 6.567 9.567 5 11.5 5C13.433 5 15 6.567 15 8.5C15 9.45365 14.6186 10.3182 14 10.9495V14.5C14 14.6894 13.893 14.8625 13.7236 14.9472C13.5542 15.0319 13.3515 15.0136 13.2 14.9L11.5 13.625L9.8 14.9C9.64849 15.0136 9.44579 15.0319 9.27639 14.9472C9.107 14.8625 9 14.6894 9 14.5V10.9495C8.38141 10.3182 8 9.45365 8 8.5ZM10 10.5002V10.5H9.99976C9.39267 10.0439 9 9.3178 9 8.5C9 7.11929 10.1193 6 11.5 6C12.8807 6 14 7.11929 14 8.5C14 9.3178 13.6073 10.0439 13.0002 10.5H13V10.5002C12.5822 10.814 12.0628 11 11.5 11C10.9372 11 10.4178 10.814 10 10.5002ZM10 11.6632V13.5L11.2 12.6C11.3778 12.4667 11.6222 12.4667 11.8 12.6L13 13.5V11.6632C12.5454 11.8792 12.0368 12 11.5 12C10.9632 12 10.4546 11.8792 10 11.6632ZM6 8H3V7H6V8Z" fill="black"/>
</svg>
