<svg width="15" height="15" viewBox="0 0 15 15" fill="none" xmlns="http://www.w3.org/2000/svg">
<path fill-rule="evenodd" clip-rule="evenodd" d="M0 7.5C0 3.35786 3.35786 0 7.5 0C11.6421 0 15 3.35786 15 7.5C15 11.6421 11.6421 15 7.5 15C3.35786 15 0 11.6421 0 7.5ZM7.5 1C3.91015 1 1 3.91015 1 7.5C1 11.0899 3.91015 14 7.5 14C9.16637 14 10.6863 13.3729 11.8366 12.3419C10.6386 12.7755 9.36933 13 8.08452 13H7.5C5.567 13 4 11.433 4 9.5V5.5C4 3.567 5.567 2 7.5 2H8.08452C9.36933 2 10.6386 2.2245 11.8366 2.65807C10.6863 1.62705 9.16637 1 7.5 1ZM13.2241 4.41756C12.2693 3.8475 11.2306 3.44275 10.1516 3.21541C10.6803 3.82849 11 4.62691 11 5.5V9.5C11 10.3731 10.6803 11.1715 10.1516 11.7846C11.2305 11.5573 12.2693 11.1525 13.2241 10.5824C13.7191 9.66518 14 8.6154 14 7.5C14 6.3846 13.7191 5.33482 13.2241 4.41756ZM7.5 12C8.88071 12 10 10.8807 10 9.5V5.5C10 4.11929 8.88071 3 7.5 3C6.11929 3 5 4.11929 5 5.5V9.5C5 10.8807 6.11929 12 7.5 12Z" fill="black"/>
</svg>
