<svg width="10" height="13" viewBox="0 0 10 13" fill="none" xmlns="http://www.w3.org/2000/svg">
<path fill-rule="evenodd" clip-rule="evenodd" d="M0 0.579208C0 0.259319 0.259321 0 0.579208 0H5.5C7.433 0 9 1.567 9 3.5C9 4.59515 8.49702 5.57282 7.70946 6.2146C9.04645 6.70695 10 7.99212 10 9.5C10 11.433 8.433 13 6.5 13H0.589108C0.263744 13 0 12.7362 0 12.4109V0.579208ZM1 7V12H6.5C7.88071 12 9 10.8807 9 9.5C9 8.11929 7.88071 7 6.5 7H1ZM1 6H5.5C6.88071 6 8 4.88071 8 3.5C8 2.11929 6.88071 1 5.5 1H1V6Z" fill="black"/>
</svg>
