<svg width="9" height="12" viewBox="0 0 9 12" fill="none" xmlns="http://www.w3.org/2000/svg">
<path fill-rule="evenodd" clip-rule="evenodd" d="M0.580747 3.39913C0.859377 1.44872 2.52977 0 4.49999 0C6.4702 0 8.14059 1.44873 8.41922 3.39914L8.42928 3.46949C8.58849 4.58397 8.26956 5.64541 7.6399 6.45893C7.25654 6.95423 7 7.42699 7 7.9013V9.5C7 9.77614 6.77614 10 6.5 10H2.5C2.22386 10 2 9.77614 2 9.5V7.90133C2 7.42702 1.74345 6.95426 1.36009 6.45895C0.730418 5.64543 0.411483 4.58398 0.570696 3.46949L0.580747 3.39913ZM4.49999 1C3.02742 1 1.77895 2.08279 1.5707 3.54056L1.56065 3.61091C1.44143 4.44544 1.67907 5.2373 2.15088 5.84687C2.56209 6.37814 3 7.07749 3 7.90133V9H6V7.9013C6 7.07747 6.4379 6.37813 6.8491 5.84686C7.3209 5.23729 7.55854 4.44543 7.43933 3.61092L7.42927 3.54056C7.22102 2.0828 5.97255 1 4.49999 1ZM6 12H3V11H6V12Z" fill="black"/>
</svg>
