<svg width="15" height="15" viewBox="0 0 15 15" fill="none" xmlns="http://www.w3.org/2000/svg">
<path fill-rule="evenodd" clip-rule="evenodd" d="M0 5.5C0 2.46243 2.46243 0 5.5 0C6.20558 0 6.88013 0.132865 7.5 0.374941C8.11986 0.132865 8.79442 0 9.5 0C12.5376 0 15 2.46243 15 5.5C15 7.21048 14.2192 8.73859 12.9945 9.74734C12.8652 12.6701 10.4547 15 7.5 15C4.54532 15 2.13482 12.6701 2.00546 9.74734C0.780818 8.73859 0 7.21048 0 5.5ZM3.10055 10.4504C3.53675 12.4793 5.34078 14 7.5 14C9.65922 14 11.4632 12.4793 11.8994 10.4504C11.1743 10.8025 10.3602 11 9.5 11C8.79442 11 8.11986 10.8671 7.5 10.6251C6.88013 10.8671 6.20558 11 5.5 11C4.63977 11 3.82566 10.8025 3.10055 10.4504ZM6.25029 9.93773C6.00629 9.97868 5.75564 10 5.5 10C4.57794 10 3.72066 9.72268 3.007 9.2469C3.06403 8.21826 3.46653 7.28177 4.10041 6.55154C4.36836 7.93551 5.15516 9.13442 6.25029 9.93773ZM8.74971 9.93773C8.99371 9.97868 9.24436 10 9.5 10C10.4221 10 11.2793 9.72268 11.993 9.2469C11.936 8.21826 11.5335 7.28177 10.8996 6.55154C10.6316 7.93551 9.84483 9.13442 8.74971 9.93773ZM9.993 5.7531C9.90103 7.41204 8.91049 8.83129 7.5 9.53224C6.08951 8.83129 5.09897 7.41204 5.007 5.7531C5.72066 5.27732 6.57794 5 7.5 5C8.42206 5 9.27934 5.27732 9.993 5.7531ZM10.9945 5.25266C11.9617 6.04932 12.6521 7.16992 12.8996 8.44845C13.5851 7.65875 14 6.62783 14 5.5C14 3.01472 11.9853 1 9.5 1C9.24436 1 8.99371 1.02132 8.74971 1.06227C10.0521 2.0176 10.9184 3.53244 10.9945 5.25266ZM7.5 1.46776C8.70828 2.06822 9.60838 3.19579 9.89945 4.5496C9.17434 4.19749 8.36023 4 7.5 4C6.63977 4 5.82566 4.19749 5.10055 4.5496C5.39162 3.19579 6.29172 2.06822 7.5 1.46776ZM6.25029 1.06227C6.00629 1.02132 5.75564 1 5.5 1C3.01472 1 1 3.01472 1 5.5C1 6.62783 1.41491 7.65875 2.10041 8.44846C2.34794 7.16992 3.03829 6.04933 4.00546 5.25266C4.08159 3.53244 4.94791 2.0176 6.25029 1.06227Z" fill="black"/>
</svg>
