<svg width="14" height="14" viewBox="0 0 14 14" fill="none" xmlns="http://www.w3.org/2000/svg">
<path fill-rule="evenodd" clip-rule="evenodd" d="M5 7.33328L0.899998 12.8L0.0999985 12.2L4.375 6.49995L0.0999985 0.799951L0.899998 0.199951L5 5.66662L9.1 0.199951L9.9 0.799951L5.625 6.49995L9.9 12.2L9.1 12.8L5 7.33328ZM11 11.5C11 10.6715 11.6716 9.99995 12.5 9.99995H12.7929C13.4596 9.99995 14 10.5404 14 11.2071C14 11.5272 13.8728 11.8342 13.6464 12.0606L12.7071 13H14V14H11.5C11.2978 14 11.1154 13.8781 11.0381 13.6913C10.9607 13.5045 11.0034 13.2894 11.1464 13.1464L12.9393 11.3535C12.9782 11.3147 13 11.262 13 11.2071C13 11.0927 12.9073 11 12.7929 11H12.5C12.2239 11 12 11.2238 12 11.5H11Z" fill="black"/>
</svg>
