<svg width="15" height="15" viewBox="0 0 15 15" fill="none" xmlns="http://www.w3.org/2000/svg">
<path fill-rule="evenodd" clip-rule="evenodd" d="M0.952935 5.00003L0.0110988 0.604793L0.988901 0.395264L1.97564 5.00003H5.89994L7.02211 1.35299C7.08666 1.14319 7.2805 1.00003 7.5 1.00003C7.7195 1.00003 7.91334 1.14319 7.97789 1.35299L9.10006 5.00003H13.0244L14.0111 0.395264L14.9889 0.604793L14.0471 5.00003H15V6.00003H13.8328L13.1899 9.00003H15V10H12.9756L11.9889 14.6048C11.9412 14.8273 11.7492 14.9896 11.5218 14.9996C11.2945 15.0095 11.089 14.8646 11.0221 14.6471L9.59225 10H5.40775L3.97789 14.6471C3.91095 14.8646 3.70554 15.0095 3.47816 14.9996C3.25077 14.9896 3.05879 14.8273 3.0111 14.6048L2.02436 10H0V9.00003H1.81008L1.16722 6.00003H0V5.00003H0.952935ZM2.18992 6.00003L2.83278 9.00003H4.66917L5.59225 6.00003H2.18992ZM6.63852 6.00003L5.71544 9.00003H9.28456L8.36148 6.00003H6.63852ZM8.05379 5.00003L7.5 3.20021L6.94621 5.00003H8.05379ZM9.40775 6.00003L10.3308 9.00003H12.1672L12.8101 6.00003H9.40775ZM11.9529 10H10.6385L11.4133 12.5182L11.9529 10ZM4.36148 10H3.04707L3.58667 12.5182L4.36148 10Z" fill="black"/>
</svg>
