<svg width="13" height="15" viewBox="0 0 13 15" fill="none" xmlns="http://www.w3.org/2000/svg">
<path fill-rule="evenodd" clip-rule="evenodd" d="M8.71644 1.00702C8.63777 1.92447 7.90666 2.65557 6.98922 2.73424C7.06794 1.8169 7.79946 1.08574 8.71644 1.00702ZM5.98219 2.8986C5.98219 1.29765 7.28072 0 8.8808 0C9.34742 0 9.72345 0.37802 9.72345 0.842657C9.72345 2.44351 8.42571 3.74126 6.82485 3.74126C6.35956 3.74126 5.98219 3.36389 5.98219 2.8986ZM2.24784 5.69652C1.78501 6.32953 1.5 7.24759 1.5 8.33216C1.5 9.30329 1.9891 10.7581 2.66686 11.9954C3.00169 12.6067 3.36635 13.1345 3.71045 13.5017C3.88255 13.6854 4.03858 13.817 4.17196 13.8999C4.30834 13.9847 4.39104 14 4.42657 14C4.74054 14 5.10434 13.8928 5.52661 13.64L5.52684 13.6398C6.27811 13.1905 7.22151 13.2106 7.95286 13.6926C8.27742 13.9058 8.58557 14 8.88112 14C9.0872 14 9.41898 13.853 9.89802 13.2774C10.3469 12.7381 10.8498 11.9128 11.4235 10.7762C10.5689 10.102 10.0944 9.2919 10.0944 8.33216C10.0944 7.38062 10.5609 6.57621 11.4016 5.90539C10.7495 5.08968 10.0206 4.72027 9.22378 4.72027C8.42016 4.72027 7.82421 4.83568 7.40204 5.03835C7.01117 5.22608 6.55895 5.23802 6.15901 5.07316L6.15889 5.07311C5.59968 4.84242 4.91199 4.72027 4.08392 4.72027C3.33166 4.72027 2.7036 5.07318 2.24784 5.69652ZM1.4406 5.1063C2.06165 4.25689 2.97554 3.72027 4.08392 3.72027C5.00608 3.72027 5.83015 3.85577 6.54012 4.14863M1.4406 5.1063C0.826631 5.94602 0.5 7.08391 0.5 8.33216ZM6.96927 4.13684C7.5778 3.84472 8.34015 3.72027 9.22378 3.72027C10.4468 3.72027 11.4799 4.33916 12.2965 5.42796L12.2972 5.42883C12.5743 5.80003 12.5011 6.32739 12.1283 6.60746L12.1279 6.60772C11.3829 7.16635 11.0944 7.73358 11.0944 8.33216C11.0944 8.93073 11.3829 9.49797 12.1279 10.0566L12.1283 10.0569C12.4518 10.2999 12.5598 10.742 12.3757 11.1083M6.04015 14.498C5.51265 14.8139 4.97191 15 4.42657 15C4.13881 15 3.87195 14.8909 3.64414 14.7493C3.41333 14.6058 3.19052 14.4093 2.98076 14.1855C2.56114 13.7377 2.14999 13.1333 1.78982 12.4758C1.07759 11.1756 0.5 9.54649 0.5 8.33216M6.96927 4.13684L6.96913 4.13691ZM6.96913 4.13691C6.83512 4.20129 6.67889 4.20579 6.54024 4.14868Z" fill="black"/>
</svg>
