<svg width="15" height="11" viewBox="0 0 15 11" fill="none" xmlns="http://www.w3.org/2000/svg">
<path fill-rule="evenodd" clip-rule="evenodd" d="M0.271209 0.055418C0.437745 -0.0302842 0.638212 -0.0157272 0.790619 0.0931351L7 4.52841V0.500002C7 0.312708 7.10467 0.14112 7.27121 0.055418C7.43774 -0.0302842 7.63821 -0.0157272 7.79062 0.0931351L14.7906 5.09314C14.922 5.18699 15 5.33853 15 5.5C15 5.66148 14.922 5.81301 14.7906 5.90687L7.79062 10.9069C7.63821 11.0157 7.43774 11.0303 7.27121 10.9446C7.10467 10.8589 7 10.6873 7 10.5V6.4716L0.790619 10.9069C0.638212 11.0157 0.437745 11.0303 0.271209 10.9446C0.104674 10.8589 0 10.6873 0 10.5V0.500002C0 0.312708 0.104674 0.14112 0.271209 0.055418ZM6.63977 5.5L1 1.4716V9.52841L6.63977 5.5ZM8 9.52841L13.6398 5.5L8 1.4716V9.52841Z" fill="black"/>
</svg>
