<svg width="15" height="15" viewBox="0 0 15 15" fill="none" xmlns="http://www.w3.org/2000/svg">
<path fill-rule="evenodd" clip-rule="evenodd" d="M7.49998 0.999992C3.91013 0.999993 0.999985 3.91014 0.999985 7.49999C0.999985 11.0898 3.91013 14 7.49999 14C11.0898 14 14 11.0898 14 7.49999C14 3.91014 11.0898 0.999992 7.49998 0.999992ZM-1.52588e-05 7.49999C-1.54376e-05 3.35786 3.35785 -7.45058e-06 7.49998 -7.62939e-06C11.6421 -7.80821e-06 15 3.35786 15 7.49999C15 11.6421 11.6421 15 7.49999 15C3.35785 15 -1.508e-05 11.6421 -1.52588e-05 7.49999ZM7.49998 3.79289L10.2071 6.49999L9.49998 7.2071L7.99998 5.7071V11H6.99998V5.7071L5.49998 7.2071L4.79288 6.49999L7.49998 3.79289Z" fill="black"/>
</svg>
