<svg width="15" height="12" viewBox="0 0 15 12" fill="none" xmlns="http://www.w3.org/2000/svg">
<path fill-rule="evenodd" clip-rule="evenodd" d="M-6.42119e-07 0H2V3H3V4H-6.42119e-07V3H0.999999V1H-6.42119e-07V0ZM15 2H5V1H15V2ZM15 6H5V5H15V6ZM-6.42119e-07 9.5C-6.42119e-07 8.67157 0.671572 8 1.5 8H1.79289C2.45956 8 3 8.54044 3 9.20711C3 9.52725 2.87282 9.83428 2.64645 10.0607L1.70711 11H3V12H0.499999C0.297768 12 0.11545 11.8782 0.0380596 11.6913C-0.0393309 11.5045 0.00344697 11.2894 0.146446 11.1464L1.93934 9.35355C1.97818 9.31471 2 9.26204 2 9.20711C2 9.09272 1.90727 9 1.79289 9H1.5C1.22386 9 0.999999 9.22386 0.999999 9.5H-6.42119e-07ZM15 10H5V9H15V10Z" fill="black"/>
</svg>
