<svg width="15" height="13" viewBox="0 0 15 13" fill="none" xmlns="http://www.w3.org/2000/svg">
<path fill-rule="evenodd" clip-rule="evenodd" d="M1.5 1C1.22386 1 1 1.22386 1 1.5L1 11.5C1 11.7761 1.22386 12 1.5 12L12.5 12C12.7761 12 13 11.7761 13 11.5V9H9.5C8.11929 9 7 7.88071 7 6.5C7 5.11929 8.11929 4 9.5 4H13V1.5C13 1.22386 12.7761 1 12.5 1L1.5 1ZM14 4V1.5C14 0.671574 13.3284 5.06639e-07 12.5 4.76837e-07L1.5 0C0.671574 -5.96046e-08 4.76837e-07 0.671572 4.47035e-07 1.5L0 11.5C-5.96046e-08 12.3284 0.671572 13 1.5 13L12.5 13C13.3284 13 14 12.3284 14 11.5V9H14.4307C14.7451 9 15 8.74511 15 8.43069V4.56931C15 4.25488 14.7451 4 14.4307 4H14ZM9.5 5C8.67157 5 8 5.67157 8 6.5C8 7.32843 8.67157 8 9.5 8H14V5H9.5Z" fill="black"/>
</svg>
