<svg width="15" height="15" viewBox="0 0 15 15" fill="none" xmlns="http://www.w3.org/2000/svg">
<path fill-rule="evenodd" clip-rule="evenodd" d="M0 0H1V14H15V15H0V0ZM15 2V2.5C15 4.8191 14.4853 6.66802 13.6727 7.9545C12.8626 9.23726 11.7232 10 10.5 10C9.82076 10 9.26691 9.65761 8.81711 9.2424C8.37716 8.83629 7.97933 8.30581 7.61572 7.82096L7.6 7.8C7.21786 7.29048 6.87081 6.83043 6.50461 6.4924C6.14191 6.15761 5.82076 6 5.5 6C4.79814 6 4.17757 6.51908 3.70691 7.57807C3.24378 8.6201 3 10.0456 3 11.5V12H2V11.5C2 9.95441 2.25622 8.3799 2.79309 7.17193C3.32243 5.98092 4.20186 5 5.5 5C6.17924 5 6.73309 5.34239 7.18289 5.7576C7.62284 6.1637 8.02067 6.69418 8.38428 7.17904L8.4 7.2C8.78214 7.70952 9.12919 8.16957 9.49539 8.5076C9.85809 8.84239 10.1792 9 10.5 9C11.2768 9 12.1374 8.51274 12.8273 7.4205C13.5147 6.33198 14 4.6809 14 2.5V2H15Z" fill="black"/>
</svg>
