<svg width="11" height="15" viewBox="0 0 11 15" fill="none" xmlns="http://www.w3.org/2000/svg">
<path fill-rule="evenodd" clip-rule="evenodd" d="M3 2.5C3 1.11929 4.11929 0 5.5 0C6.88071 0 8 1.11929 8 2.5V6.5C8 7.88071 6.88071 9 5.5 9C4.11929 9 3 7.88071 3 6.5V2.5ZM5.5 1C4.67157 1 4 1.67157 4 2.5V6.5C4 7.32843 4.67157 8 5.5 8C6.32843 8 7 7.32843 7 6.5V2.5C7 1.67157 6.32843 1 5.5 1ZM0 6.5V4H1V6.5C1 8.98528 3.01472 11 5.5 11C7.98528 11 10 8.98528 10 6.5V4H11V6.5C11 9.36902 8.80325 11.725 6 11.9776V14H8V15H3V14H5V11.9776C2.19675 11.725 0 9.36902 0 6.5Z" fill="black"/>
</svg>
