<svg width="15" height="15" viewBox="0 0 15 15" fill="none" xmlns="http://www.w3.org/2000/svg">
<path fill-rule="evenodd" clip-rule="evenodd" d="M5.45341 0.403393C5.49957 0.168998 5.70509 0 5.94399 0H9.055C9.29348 0 9.49878 0.16843 9.54537 0.402321L9.63178 0.836171L9.63236 0.839027L9.90631 2.17365C10.297 2.34594 10.6593 2.55926 10.9944 2.80071L12.3639 2.3428L12.7959 2.209C13.0182 2.1401 13.2586 2.23365 13.3759 2.43466L13.5995 2.81809L14.7069 4.6712L14.9319 5.05701C15.0528 5.26426 15.0094 5.52814 14.8286 5.68579L14.495 5.97657L13.4678 6.85034C13.5001 7.04647 13.53 7.26787 13.53 7.49542C13.53 7.72298 13.5001 7.94441 13.4678 8.14057L14.4996 9.01828L14.8286 9.30511C15.0094 9.46277 15.0528 9.72667 14.9319 9.93392L14.7042 10.3242L13.5997 12.1726L13.3762 12.5567C13.2588 12.7584 13.0177 12.8521 12.795 12.7826L12.3534 12.6447L10.9944 12.1902C10.6593 12.4316 10.297 12.6449 9.90631 12.8172L9.63236 14.1518L9.63178 14.1547L9.54537 14.5886C9.49878 14.8225 9.29349 14.9909 9.055 14.9909H5.94399C5.70509 14.9909 5.49956 14.8219 5.45341 14.5875L5.36783 14.1528L5.09286 12.8173C4.70211 12.645 4.33973 12.4317 4.00456 12.1902L2.63605 12.6478L2.20403 12.7826C1.98099 12.8522 1.73945 12.7581 1.62234 12.5559L1.4001 12.1722L0.291569 10.3189L0.0676062 9.93309C-0.0525543 9.72617 -0.00926518 9.46311 0.170868 9.30561L0.503983 9.01433L1.53152 8.14026C1.49938 7.94465 1.469 7.72239 1.469 7.49542C1.469 7.26847 1.49938 7.04623 1.53151 6.85065L0.49884 5.97214L0.170868 5.6853C-0.00925541 5.5278 -0.0525508 5.26477 0.067589 5.05784L0.294855 4.66641L1.40024 2.81845L1.62261 2.4355C1.73965 2.23395 1.98042 2.14 2.20304 2.209L2.64558 2.34619L4.00456 2.80071C4.33971 2.55922 4.70209 2.34588 5.09286 2.17357L5.36783 0.837966L5.45341 0.403393ZM6.35513 1L6.34774 1.03754L6.01873 2.6355C5.98429 2.80274 5.86689 2.94085 5.70737 3.00177C5.23472 3.18226 4.80093 3.44016 4.40342 3.7517C4.27119 3.85532 4.09576 3.88562 3.93644 3.83235L2.33367 3.29644L2.28738 3.28209L2.26014 3.32901L1.15477 5.17695L1.13925 5.20368L1.15455 5.21705L2.39598 6.27316C2.5293 6.38657 2.5936 6.56145 2.56552 6.73422C2.55575 6.79431 2.54612 6.85087 2.53694 6.90476C2.4991 7.12691 2.469 7.30365 2.469 7.49542C2.469 7.68722 2.49911 7.86404 2.53696 8.08624C2.54613 8.1401 2.55576 8.19663 2.56552 8.25669C2.5936 8.42946 2.5293 8.60433 2.39598 8.71775L1.15457 9.77383L1.13927 9.78721L1.15476 9.81388L2.2637 11.6679L2.28738 11.7089L2.33321 11.6946L3.93644 11.1586C4.09576 11.1053 4.27119 11.1356 4.40342 11.2392C4.8009 11.5507 5.23469 11.8086 5.70737 11.9891C5.86689 12.05 5.98429 12.1881 6.01873 12.3553L6.34859 13.9575L6.35514 13.9909H8.64476L8.65219 13.9536L8.9802 12.3556C9.01456 12.1883 9.132 12.05 9.29162 11.9891C9.7643 11.8086 10.1981 11.5507 10.5956 11.2392C10.7278 11.1356 10.9032 11.1053 11.0626 11.1586L12.6658 11.6946L12.7124 11.7092L12.7398 11.6621L13.8445 9.81352L13.8598 9.78722L13.8447 9.77406L12.603 8.71775C12.4692 8.60393 12.405 8.42824 12.4338 8.25495C12.4423 8.20353 12.4507 8.15456 12.4588 8.10755C12.4984 7.87678 12.53 7.69298 12.53 7.49542C12.53 7.2979 12.4984 7.11417 12.4588 6.88345C12.4507 6.83641 12.4423 6.78742 12.4338 6.73595C12.405 6.56267 12.4692 6.38698 12.603 6.27316L13.8447 5.21683L13.8598 5.20367L13.8444 5.17731L12.7371 3.32427L12.7124 3.28185L12.6653 3.29644L11.0626 3.83235C10.9032 3.88562 10.7278 3.85532 10.5956 3.7517C10.1981 3.44016 9.76427 3.18226 9.29162 3.00177C9.132 2.94081 9.01456 2.80257 8.9802 2.6352L8.65162 1.03439L8.64477 1H6.35513ZM7.49962 5.99677C6.67145 5.99677 5.99962 6.6686 5.99962 7.49542C5.99962 8.32226 6.67147 8.99414 7.49962 8.99414C8.32778 8.99414 8.99963 8.32226 8.99963 7.49542C8.99963 6.6686 8.3278 5.99677 7.49962 5.99677ZM4.99962 7.49542C4.99962 6.11568 6.1198 4.99677 7.49962 4.99677C8.87945 4.99677 9.99963 6.11568 9.99963 7.49542C9.99963 8.87514 8.87947 9.99414 7.49962 9.99414C6.11978 9.99414 4.99962 8.87514 4.99962 7.49542Z" fill="black"/>
</svg>
