<svg width="15" height="15" viewBox="0 0 15 15" fill="none" xmlns="http://www.w3.org/2000/svg">
<path fill-rule="evenodd" clip-rule="evenodd" d="M7.25193 0.0658784C7.40565 -0.0219595 7.59435 -0.0219595 7.74807 0.0658784L14.7481 4.06588C14.9039 4.1549 15 4.32057 15 4.5V5.21989C15 9.75232 11.9954 13.7356 7.63736 14.9808C7.54758 15.0064 7.45242 15.0064 7.36264 14.9808C3.0046 13.7356 0 9.75232 0 5.21989V4.5C0 4.32057 0.096143 4.1549 0.251931 4.06588L7.25193 0.0658784ZM1 4.79016V5.21989C1 9.25805 3.64563 12.8127 7.5 13.9788C11.3544 12.8127 14 9.25805 14 5.21989V4.79016L7.5 1.07588L1 4.79016ZM11.3904 5.31235L7.39043 10.3123C7.30651 10.4173 7.18391 10.484 7.05024 10.4975C6.91658 10.511 6.78311 10.4701 6.67991 10.3841L3.67991 7.88411L4.32009 7.11589L6.92822 9.28933L10.6096 4.68765L11.3904 5.31235Z" fill="black"/>
</svg>
