<svg width="13" height="15" viewBox="0 0 13 15" fill="none" xmlns="http://www.w3.org/2000/svg">
<path fill-rule="evenodd" clip-rule="evenodd" d="M6.5 1C3.46243 1 1 3.46243 1 6.5V9.88197C1 10.0714 1.107 10.2445 1.27639 10.3292L3 11.191V12.5C3 13.3284 3.67157 14 4.5 14H8.5C9.32843 14 10 13.3284 10 12.5V11.191L11.7236 10.3292C11.893 10.2445 12 10.0714 12 9.88197V6.5C12 3.46243 9.53757 1 6.5 1ZM0 6.5C0 2.91015 2.91015 0 6.5 0C10.0899 0 13 2.91015 13 6.5V9.88197C13 10.4501 12.679 10.9695 12.1708 11.2236L11 11.809V12.5C11 13.8807 9.88071 15 8.5 15H4.5C3.11929 15 2 13.8807 2 12.5V11.809L0.82918 11.2236C0.321003 10.9695 0 10.4501 0 9.88197V6.5ZM2 7.5C2 6.67157 2.67157 6 3.5 6C4.32843 6 5 6.67157 5 7.5C5 8.32843 4.32843 9 3.5 9C2.67157 9 2 8.32843 2 7.5ZM3.5 7C3.22386 7 3 7.22386 3 7.5C3 7.77614 3.22386 8 3.5 8C3.77614 8 4 7.77614 4 7.5C4 7.22386 3.77614 7 3.5 7ZM8 7.5C8 6.67157 8.67157 6 9.5 6C10.3284 6 11 6.67157 11 7.5C11 8.32843 10.3284 9 9.5 9C8.67157 9 8 8.32843 8 7.5ZM9.5 7C9.22386 7 9 7.22386 9 7.5C9 7.77614 9.22386 8 9.5 8C9.77614 8 10 7.77614 10 7.5C10 7.22386 9.77614 7 9.5 7ZM6.5 10.2071L5.85355 10.8536L5.14645 10.1464L6.14645 9.14645C6.34171 8.95118 6.65829 8.95118 6.85355 9.14645L7.85355 10.1464L7.14645 10.8536L6.5 10.2071Z" fill="black"/>
</svg>
