<svg width="15" height="15" viewBox="0 0 15 15" fill="none" xmlns="http://www.w3.org/2000/svg">
<path fill-rule="evenodd" clip-rule="evenodd" d="M1.5 1C1.22386 1 1 1.22386 1 1.5L1 7H14V1.5C14 1.22386 13.7761 1 13.5 1L1.5 1ZM15 1.5C15 0.671574 14.3284 5.66244e-07 13.5 5.36442e-07L1.5 0C0.671573 -5.96046e-08 0 0.671573 0 1.5V9.5C0 10.3284 0.671573 11 1.5 11H7V14H2V15H13V14H8V11H13.5C14.3284 11 15 10.3284 15 9.5V1.5ZM14 8H1L1 9.5C1 9.77614 1.22386 10 1.5 10L13.5 10C13.7761 10 14 9.77614 14 9.5V8Z" fill="black"/>
</svg>
