<svg width="13" height="15" viewBox="0 0 13 15" fill="none" xmlns="http://www.w3.org/2000/svg">
<path fill-rule="evenodd" clip-rule="evenodd" d="M5.14644 1.85355C4.78942 1.49653 4.21057 1.49653 3.85355 1.85355C3.49653 2.21057 3.49653 2.78942 3.85355 3.14645L5.5 4.79289L6.00919 4.28369C6.00949 4.2834 6.00979 4.2831 6.01008 4.28281L6.79289 3.5L5.14644 1.85355ZM7.73822 3.03112L5.85355 1.14645C5.106 0.398898 3.89399 0.398898 3.14644 1.14645C2.3989 1.89399 2.3989 3.10601 3.14644 3.85355L3.33433 4.04144L0.10532 8.19303C-0.0494917 8.39207 -0.0318619 8.67525 0.146443 8.85355L5.29289 14H0.999997V15H12V14H6.7071L1.16566 8.45856L4.04694 4.75405L5.03112 5.73823C4.3377 7.39148 4.66402 9.37113 6.01008 10.7172C6.28065 10.9878 6.71934 10.9878 6.98991 10.7172L12.7172 4.98992C12.9878 4.71934 12.9878 4.28065 12.7172 4.01008C11.3711 2.66402 9.39148 2.3377 7.73822 3.03112ZM6.71641 4.9907C5.40405 6.30385 5.335 8.38921 6.50926 9.78362L11.7836 4.50926C10.3889 3.33477 8.30302 3.40408 6.98991 4.71719L6.71719 4.98991C6.71693 4.99018 6.71667 4.99044 6.71641 4.9907Z" fill="black"/>
</svg>
