<svg width="13" height="13" viewBox="0 0 13 13" fill="none" xmlns="http://www.w3.org/2000/svg">
<path fill-rule="evenodd" clip-rule="evenodd" d="M4.06005 1.33422C2.98331 1.79734 1.63434 2.84926 0.947206 4.22353L0.0527802 3.77631C0.865644 2.15059 2.41667 0.952489 3.66493 0.415591C3.98129 0.279522 4.29107 0.180157 4.57665 0.128866C4.85463 0.0789397 5.14803 0.0675266 5.41019 0.145779C5.69332 0.23029 5.95238 0.427951 6.05474 0.764588C6.14629 1.06569 6.08314 1.3883 5.96423 1.68558C5.68146 2.39251 5.06816 3.19927 4.42688 3.98734C4.23099 4.22808 4.03082 4.46899 3.83095 4.70953C3.35344 5.28421 2.87768 5.8568 2.46619 6.41989C1.87338 7.2311 1.4938 7.92105 1.42564 8.45395C1.39407 8.70079 1.433 8.88809 1.529 9.04235C1.62842 9.20212 1.82247 9.37982 2.19695 9.54032C3.30102 10.0135 4.74012 9.96547 6.17773 9.56837C6.22756 9.04117 6.34663 8.46668 6.51923 7.86258C7.05501 5.98734 8.2764 4.72166 9.44943 4.28177C10.0322 4.06323 10.672 4.02788 11.1919 4.33507C11.7336 4.65519 12 5.25861 12 5.99989C12 6.48001 11.8036 6.94666 11.517 7.36698C11.2279 7.79096 10.8246 8.20137 10.3528 8.57998C9.49311 9.26995 8.36371 9.88815 7.15765 10.3092C7.17734 10.6364 7.2437 10.8913 7.34365 11.0806C7.46692 11.3141 7.65365 11.4742 7.94721 11.5563C8.25985 11.6437 8.71755 11.6479 9.36482 11.4936C10.008 11.3402 10.8052 11.0383 11.7764 10.5527L12.2236 11.4472C11.2109 11.9535 10.339 12.2893 9.59675 12.4663C8.85861 12.6423 8.21454 12.6695 7.67782 12.5193C7.12203 12.3639 6.71181 12.0258 6.45931 11.5475C6.30989 11.2644 6.22166 10.9442 6.18029 10.6015C4.69652 10.9708 3.11598 11.0222 1.80303 10.4595C1.30252 10.245 0.918443 9.95391 0.679972 9.57071C0.438078 9.182 0.379356 8.75211 0.433721 8.32708C0.537435 7.51622 1.0641 6.64367 1.6588 5.82988C2.08967 5.24026 2.59791 4.62854 3.08371 4.04384C3.27864 3.80921 3.46997 3.57893 3.65123 3.35618C4.30683 2.5505 4.81853 1.85726 5.03576 1.31419C5.07863 1.207 5.09254 1.13747 5.09667 1.09752C5.0354 1.08617 4.92424 1.08244 4.75342 1.11312C4.56048 1.14777 4.32495 1.22028 4.06005 1.33422ZM7.23239 9.21467C8.18419 8.83876 9.05701 8.33772 9.72693 7.80008C10.1457 7.46401 10.4725 7.1238 10.6908 6.80362C10.9116 6.47978 11 6.2087 11 5.99989C11 5.49119 10.8289 5.28213 10.6831 5.19601C10.5155 5.09697 10.2178 5.06163 9.80056 5.2181C8.97358 5.52822 7.94497 6.51254 7.48076 8.1373C7.37065 8.52265 7.28756 8.88286 7.23239 9.21467Z" fill="black"/>
</svg>
