<svg width="3" height="13" viewBox="0 0 3 13" fill="none" xmlns="http://www.w3.org/2000/svg">
<path fill-rule="evenodd" clip-rule="evenodd" d="M0.499989 1.5C0.499989 0.947715 0.947704 0.5 1.49999 0.5C2.05227 0.5 2.49999 0.947715 2.49999 1.5C2.49999 2.05228 2.05227 2.5 1.49999 2.5C0.947704 2.5 0.499989 2.05228 0.499989 1.5ZM0.499989 6.5C0.499989 5.94772 0.947704 5.5 1.49999 5.5C2.05227 5.5 2.49999 5.94772 2.49999 6.5C2.49999 7.05228 2.05227 7.5 1.49999 7.5C0.947704 7.5 0.499989 7.05228 0.499989 6.5ZM0.499989 11.5C0.499989 10.9477 0.947704 10.5 1.49999 10.5C2.05227 10.5 2.49999 10.9477 2.49999 11.5C2.49999 12.0523 2.05227 12.5 1.49999 12.5C0.947704 12.5 0.499989 12.0523 0.499989 11.5Z" fill="black"/>
</svg>
