<svg width="15" height="15" viewBox="0 0 15 15" fill="none" xmlns="http://www.w3.org/2000/svg">
<path fill-rule="evenodd" clip-rule="evenodd" d="M-1.46992e-06 7.5C-1.46992e-06 3.35786 3.35786 0 7.5 0C11.6421 0 15 3.35786 15 7.5C15 11.6421 11.6421 15 7.5 15C5.92408 15 4.46056 14.5134 3.25305 13.6825L0.723605 14.9472C0.531111 15.0435 0.298625 15.0057 0.146445 14.8536C-0.00573501 14.7014 -0.0434623 14.4689 0.0527849 14.2764L1.31751 11.7469C0.486569 10.5394 -1.46992e-06 9.07592 -1.46992e-06 7.5ZM7.5 1C3.91015 1 0.999999 3.91015 0.999999 7.5C0.999999 8.96403 1.48342 10.3137 2.29956 11.4001L2.48533 11.6474L1.61803 13.382L3.35262 12.5147L3.59991 12.7004C4.68628 13.5166 6.03597 14 7.5 14C11.0898 14 14 11.0899 14 7.5C14 3.91015 11.0898 1 7.5 1ZM5 4.76774V5.5C5 5.94345 5.06414 6.37192 5.18366 6.77664L5.68466 6.44264C5.84837 6.3335 5.93285 6.13849 5.9005 5.94441L5.76106 5.10774C5.70203 4.75358 5.3009 4.57637 5 4.76774ZM5.58113 7.7135L6.23936 7.27469C6.73049 6.94727 6.98394 6.36225 6.8869 5.78001L6.74745 4.94334C6.56851 3.86967 5.34149 3.33808 4.43581 3.94187L4.22265 4.08397C4.08355 4.17671 4 4.33282 4 4.5V5.5C4 8.53757 6.46243 11 9.5 11H10.5C10.6672 11 10.8233 10.9164 10.916 10.7774L11.0581 10.5642C11.6619 9.65851 11.1303 8.43149 10.0567 8.25255L9.21999 8.1131C8.63775 8.01606 8.05273 8.26951 7.72531 8.76064L7.2865 9.41887C6.57492 9.01608 5.98392 8.42508 5.58113 7.7135ZM8.22336 9.81634C8.62808 9.93586 9.05655 10 9.5 10H10.2323C10.4236 9.6991 10.2464 9.29797 9.89226 9.23894L9.05559 9.09949C8.86151 9.06715 8.6665 9.15163 8.55736 9.31534L8.22336 9.81634Z" fill="black"/>
</svg>
