<svg width="15" height="14" viewBox="0 0 15 14" fill="none" xmlns="http://www.w3.org/2000/svg">
<path fill-rule="evenodd" clip-rule="evenodd" d="M7.76859 0.0782743C7.96631 0.204197 8.05001 0.450579 7.9699 0.670881L3.9699 11.6709C3.89805 11.8685 3.71025 12 3.5 12H0.500002C0.33193 12 0.175103 11.9156 0.0825812 11.7753C-0.00994065 11.6349 -0.0257774 11.4575 0.0404292 11.3031L3.04043 4.30305C3.06549 4.24458 3.10147 4.19144 3.14645 4.14646L7.14645 0.146456C7.31221 -0.0193008 7.57087 -0.0476482 7.76859 0.0782743ZM3.92164 4.78547L1.25827 11H3.14979L6.25989 2.44723L3.92164 4.78547ZM9.48847 2.00014C9.68867 1.99553 9.87232 2.1108 9.95518 2.29311L14.9552 13.2931C15.0255 13.4479 15.0124 13.6278 14.9204 13.7707C14.8284 13.9136 14.67 14 14.5 14H4.5C4.25477 14 4.04574 13.8222 4.00646 13.5801C3.96718 13.338 4.10924 13.1032 4.34189 13.0257L9.68377 11.245L7.1 7.80001C6.9953 7.66041 6.97096 7.47633 7.03576 7.31431L9.03576 2.31431C9.11014 2.12838 9.28827 2.00476 9.48847 2.00014ZM9.52936 3.7729L8.0686 7.42481L10.9 11.2C10.9964 11.3286 11.0252 11.4957 10.9773 11.6491C10.9293 11.8025 10.8106 11.9235 10.6581 11.9744L7.58114 13H13.7235L9.52936 3.7729Z" fill="black"/>
</svg>
