<svg width="14" height="15" viewBox="0 0 14 15" fill="none" xmlns="http://www.w3.org/2000/svg">
<path fill-rule="evenodd" clip-rule="evenodd" d="M0 4.5V0H1V4.5C1 5.32843 1.67157 6 2.5 6C3.32843 6 4 5.32843 4 4.5V1.5C4 1.22386 3.77614 1 3.5 1C3.22386 1 3 1.22386 3 1.5V5H2V1.5C2 0.671573 2.67157 0 3.5 0C4.32843 0 5 0.671573 5 1.5V4.5C5 5.88071 3.88071 7 2.5 7C1.11929 7 0 5.88071 0 4.5ZM12.5 1H6V0H12.5C13.3284 0 14 0.671573 14 1.5V13.5C14 14.3284 13.3284 15 12.5 15H2.5C1.67157 15 1 14.3284 1 13.5V8H2V13.5C2 13.7761 2.22386 14 2.5 14H12.5C12.7761 14 13 13.7761 13 13.5V1.5C13 1.22386 12.7761 1 12.5 1ZM7 4H11V5H7V4ZM7 7H11V8H7V7ZM4 10H11V11H4V10Z" fill="black"/>
</svg>
