<svg width="15" height="13" viewBox="0 0 15 13" fill="none" xmlns="http://www.w3.org/2000/svg">
<path fill-rule="evenodd" clip-rule="evenodd" d="M0 0.5C0 0.223858 0.223858 0 0.5 0H14.5C14.7761 0 15 0.223858 15 0.5V10.5C15 10.7761 14.7761 11 14.5 11H12V10H14V1H1V10H3V11H0.5C0.223858 11 0 10.7761 0 10.5V0.5ZM7.14645 8.14645C7.34171 7.95118 7.65829 7.95118 7.85355 8.14645L11.8536 12.1464C11.9966 12.2894 12.0393 12.5045 11.9619 12.6913C11.8845 12.8782 11.7022 13 11.5 13H3.5C3.29777 13 3.11545 12.8782 3.03806 12.6913C2.96067 12.5045 3.00345 12.2894 3.14645 12.1464L7.14645 8.14645ZM4.70711 12H10.2929L7.5 9.20711L4.70711 12Z" fill="black"/>
</svg>
