<svg width="11" height="15" viewBox="0 0 11 15" fill="none" xmlns="http://www.w3.org/2000/svg">
<path fill-rule="evenodd" clip-rule="evenodd" d="M9.80868e-07 1V0H11V1H6.32867C7.22628 1.72635 7.83889 2.791 7.97254 4H11V5H7.97254C7.72381 7.24998 5.81628 9 3.5 9H1.85163L7.8254 14.1204L7.17461 14.8796L0.174605 8.87963C0.0157399 8.74346 -0.0415359 8.52277 0.0310585 8.32653C0.103653 8.13029 0.290763 8 0.500001 8H3.5C5.26324 8 6.72194 6.69615 6.96456 5H9.80868e-07V4H6.96456C6.72194 2.30385 5.26324 1 3.5 1H9.80868e-07Z" fill="black"/>
</svg>
