<svg width="15" height="13" viewBox="0 0 15 13" fill="none" xmlns="http://www.w3.org/2000/svg">
<path fill-rule="evenodd" clip-rule="evenodd" d="M0 1.5C0 0.671573 0.671573 0 1.5 0H3.5C4.32843 0 5 0.671573 5 1.5V3.5C5 4.32843 4.32843 5 3.5 5H1.5C0.671573 5 0 4.32843 0 3.5V1.5ZM1.5 1C1.22386 1 1 1.22386 1 1.5V3.5C1 3.77614 1.22386 4 1.5 4H3.5C3.77614 4 4 3.77614 4 3.5V1.5C4 1.22386 3.77614 1 3.5 1H1.5ZM15 3H7V2H15V3ZM0 9.5C0 8.67157 0.671573 8 1.5 8H3.5C4.32843 8 5 8.67157 5 9.5V11.5C5 12.3284 4.32843 13 3.5 13H1.5C0.671573 13 0 12.3284 0 11.5V9.5ZM1.5 9C1.22386 9 1 9.22386 1 9.5V11.5C1 11.7761 1.22386 12 1.5 12H3.5C3.77614 12 4 11.7761 4 11.5V9.5C4 9.22386 3.77614 9 3.5 9H1.5ZM15 11H7V10H15V11Z" fill="black"/>
</svg>
