<svg width="15" height="12" viewBox="0 0 15 12" fill="none" xmlns="http://www.w3.org/2000/svg">
<path fill-rule="evenodd" clip-rule="evenodd" d="M3.7188 0.419874C4.12947 0.146095 4.61198 0 5.10555 0H9.89444C10.388 0 10.8705 0.146095 11.2812 0.419874L12.1514 1.00004C13.4569 1.00706 14.5383 2.01817 14.6314 3.32188L14.9511 7.79764C14.9943 8.40298 14.6686 8.97474 14.1257 9.24615L12.0357 10.2912C11.7956 10.4112 11.5432 10.5046 11.2828 10.5697C8.79915 11.1906 6.20084 11.1906 3.7172 10.5697C3.45684 10.5046 3.20438 10.4112 2.96433 10.2912L0.874258 9.24615C0.331439 8.97474 0.005651 8.40298 0.0488901 7.79764L0.368587 3.32188C0.461709 2.01817 1.54307 1.00706 2.84855 1.00004L3.7188 0.419874ZM5.10555 1C4.80941 1 4.5199 1.08766 4.2735 1.25192L3.15138 2H2.86223C2.07528 2 1.42211 2.60817 1.36605 3.39313L1.04635 7.86888C1.03194 8.07067 1.14053 8.26125 1.32147 8.35172L3.41155 9.39676C3.58633 9.48415 3.77015 9.55215 3.95973 9.59955C6.28414 10.1806 8.71585 10.1806 11.0403 9.59955C11.2298 9.55215 11.4137 9.48415 11.5884 9.39676L13.6785 8.35172C13.8595 8.26125 13.9681 8.07067 13.9536 7.86888L13.6339 3.39313C13.5779 2.60817 12.9247 2 12.1378 2H11.8486L10.7265 1.25192C10.4801 1.08766 10.1906 1 9.89444 1H5.10555ZM3 4V3H4V4H5V5H4V6H3V5H2V4H3ZM13 5H12V4H13V5ZM12 7H11V6H12V7Z" fill="black"/>
</svg>
