<svg width="15" height="8" viewBox="0 0 15 8" fill="none" xmlns="http://www.w3.org/2000/svg">
<path fill-rule="evenodd" clip-rule="evenodd" d="M2.49665 2.66549C3.56112 3.84824 5.18599 4.99997 7.5 4.99997C9.81401 4.99997 11.4389 3.84824 12.5034 2.66549C13.0359 2.07372 13.4219 1.48026 13.6744 1.03471C13.8003 0.812435 13.8923 0.628352 13.952 0.501603C13.9819 0.438268 14.0037 0.389371 14.0176 0.357317C14.0245 0.341295 14.0295 0.329494 14.0325 0.322216L14.0356 0.314734L14.0359 0.313939C14.0358 0.314097 14.0358 0.314273 14.5 0.49997C14.9642 0.685666 14.9642 0.685881 14.9641 0.686115L14.9638 0.686679L14.9633 0.68815L14.9615 0.692454L14.9557 0.706411C14.9509 0.718054 14.944 0.734329 14.9351 0.754927C14.9173 0.796116 14.8912 0.854641 14.8566 0.928024C14.7874 1.07471 14.6841 1.28126 14.5444 1.52773C14.2656 2.01968 13.8391 2.67622 13.2467 3.33445C13.0638 3.53765 12.8645 3.74158 12.6483 3.94119L14.3536 5.64642L13.6465 6.35352L11.8716 4.57869C10.8638 5.30894 9.58254 5.88305 8 5.98414L8.00001 7.99997L7.00001 7.99997L7 5.98414C5.41747 5.88305 4.13622 5.30894 3.12839 4.5787L1.35356 6.35352L0.646458 5.64642L2.35167 3.9412C2.13553 3.74159 1.93624 3.53765 1.75336 3.33445C1.16095 2.67622 0.734393 2.01968 0.455623 1.52773C0.315956 1.28125 0.212603 1.07471 0.143451 0.928022C0.108856 0.854638 0.0827632 0.796114 0.0649147 0.754925C0.0559888 0.734326 0.0491194 0.718051 0.0442744 0.706408L0.0385192 0.692451L0.0367715 0.688147L0.0361787 0.686676L0.0359524 0.686113C0.0358587 0.685879 0.0357727 0.685664 0.500012 0.49997C0.96425 0.314276 0.96418 0.314099 0.964117 0.313942L0.964028 0.31372L0.964441 0.314737L0.967528 0.322218C0.970557 0.329496 0.975528 0.341297 0.982471 0.35732C0.996361 0.389373 1.01812 0.43827 1.04798 0.501605C1.10773 0.628354 1.19969 0.812437 1.32565 1.03471C1.57812 1.48026 1.96407 2.07372 2.49665 2.66549ZM0.963985 0.313614C0.963969 0.313575 0.963983 0.31361 0.964028 0.31372Z" fill="black"/>
</svg>
