<svg width="13" height="15" viewBox="0 0 13 15" fill="none" xmlns="http://www.w3.org/2000/svg">
<path fill-rule="evenodd" clip-rule="evenodd" d="M2 1H0V0H13V1H11V5.08579C11 5.48361 10.842 5.86514 10.5607 6.14645L9.56066 7.14645C9.3654 7.34171 9.3654 7.65829 9.56066 7.85355L10.5607 8.85355C10.842 9.13486 11 9.51639 11 9.91421V14H13V15H0V14H2V9.91421C2 9.51639 2.15804 9.13486 2.43934 8.85355L3.43934 7.85355C3.6346 7.65829 3.6346 7.34171 3.43934 7.14645L2.73223 6.43934C2.26339 5.9705 2 5.33461 2 4.67157V1ZM3 1V4.67157C3 5.0694 3.15804 5.45093 3.43934 5.73223L4.14645 6.43934C4.73223 7.02513 4.73223 7.97487 4.14645 8.56066L3.14645 9.56066C3.05268 9.65443 3 9.78161 3 9.91421V14H10V9.91421C10 9.7816 9.94732 9.65443 9.85355 9.56066L8.85355 8.56066C8.26777 7.97487 8.26777 7.02513 8.85355 6.43934L9.85355 5.43934C9.94732 5.34557 10 5.21839 10 5.08579V1H3Z" fill="black"/>
</svg>
