<svg width="15" height="15" viewBox="0 0 15 15" fill="none" xmlns="http://www.w3.org/2000/svg">
<path fill-rule="evenodd" clip-rule="evenodd" d="M7 2.02242V0H8V2.02242C10.8033 2.27504 13 4.63098 13 7.5V13.5C13 14.3284 12.3284 15 11.5 15H3.5C2.67157 15 2 14.3284 2 13.5V7.5C2 4.63098 4.19675 2.27504 7 2.02242ZM7.5 3C5.01472 3 3 5.01472 3 7.5V13.5C3 13.7761 3.22386 14 3.5 14H11.5C11.7761 14 12 13.7761 12 13.5V7.5C12 5.01472 9.98528 3 7.5 3ZM4 8.5C4 7.67157 4.67157 7 5.5 7C6.32843 7 7 7.67157 7 8.5C7 9.32843 6.32843 10 5.5 10C4.67157 10 4 9.32843 4 8.5ZM5.5 8C5.22386 8 5 8.22386 5 8.5C5 8.77614 5.22386 9 5.5 9C5.77614 9 6 8.77614 6 8.5C6 8.22386 5.77614 8 5.5 8ZM8 8.5C8 7.67157 8.67157 7 9.5 7C10.3284 7 11 7.67157 11 8.5C11 9.32843 10.3284 10 9.5 10C8.67157 10 8 9.32843 8 8.5ZM9.5 8C9.22386 8 9 8.22386 9 8.5C9 8.77614 9.22386 9 9.5 9C9.77614 9 10 8.77614 10 8.5C10 8.22386 9.77614 8 9.5 8ZM0 12V8H1V12H0ZM15 12H14V8H15V12ZM11 11V12H4V11H11Z" fill="black"/>
</svg>
