<svg width="14" height="15" viewBox="0 0 14 15" fill="none" xmlns="http://www.w3.org/2000/svg">
<path fill-rule="evenodd" clip-rule="evenodd" d="M6.23578 0.300193C6.31787 0.114782 6.5038 -0.00269232 6.7065 0.00279342C10.7533 0.112316 14 3.42692 14 7.5C14 11.6421 10.6421 15 6.50001 15C3.88672 15 1.58592 13.663 0.243999 11.6381C0.131967 11.469 0.13315 11.2491 0.246994 11.0812C0.360838 10.9134 0.564789 10.8309 0.763289 10.8725C1.16197 10.956 1.5756 11 2.00004 11C5.31375 11 8.00004 8.31371 8.00004 5C8.00004 3.38885 7.36567 1.92691 6.33202 0.848611C6.19171 0.702232 6.15369 0.485603 6.23578 0.300193ZM7.83914 1.13806C8.57257 2.24493 9.00004 3.57285 9.00004 5C9.00004 8.86599 5.86604 12 2.00004 12C1.9355 12 1.87116 11.9991 1.80702 11.9974C2.99054 13.2321 4.65568 14 6.50001 14C10.0899 14 13 11.0899 13 7.5C13 4.3692 10.7864 1.75528 7.83914 1.13806Z" fill="black"/>
</svg>
