<svg width="15" height="13" viewBox="0 0 15 13" fill="none" xmlns="http://www.w3.org/2000/svg">
<path fill-rule="evenodd" clip-rule="evenodd" d="M1.5 1H0V0H1.5C5.08985 0 8 2.91015 8 6.5C8 10.0899 5.08985 13 1.5 13H0V12H1.5C4.53757 12 7 9.53757 7 6.5C7 3.46243 4.53757 1 1.5 1ZM11.5 1H7V0H11.5C13.433 0 15 1.567 15 3.5C15 4.77316 14.3202 5.88755 13.3038 6.5C14.3202 7.11245 15 8.22684 15 9.5C15 11.433 13.433 13 11.5 13H7V12H11.5C12.8807 12 14 10.8807 14 9.5C14 8.11929 12.8807 7 11.5 7H9V6H11.5C12.8807 6 14 4.88071 14 3.5C14 2.11929 12.8807 1 11.5 1Z" fill="black"/>
</svg>
