<svg width="11" height="13" viewBox="0 0 11 13" fill="none" xmlns="http://www.w3.org/2000/svg">
<path fill-rule="evenodd" clip-rule="evenodd" d="M2 2.78103C2 1.24511 3.24511 0 4.78103 0H6C7.65685 0 9 1.34315 9 3H8C8 1.89543 7.10457 1 6 1H4.78103C3.79739 1 3 1.79739 3 2.78103C3 3.62384 3.50228 4.38556 4.27694 4.71756L3.88303 5.63671C2.74067 5.14713 2 4.02387 2 2.78103ZM7.39164 7H0V6H11V7H8.99007C9.11324 7.13953 9.22703 7.28706 9.33015 7.44014C9.73554 8.04196 10 8.76555 10 9.48686C10 11.4271 8.42711 13 6.48686 13H5C2.79086 13 1 11.2091 1 9H2C2 10.6569 3.34315 12 5 12H6.48686C7.87483 12 9 10.8748 9 9.48686C9 9.00282 8.81841 8.47038 8.50076 7.99881C8.20413 7.55844 7.80981 7.20245 7.39164 7Z" fill="black"/>
</svg>
