<svg width="13" height="15" viewBox="0 0 13 15" fill="none" xmlns="http://www.w3.org/2000/svg">
<path fill-rule="evenodd" clip-rule="evenodd" d="M6.5 0.421143L13 4.21281V10.7872L6.5 14.5788L0 10.7872V4.21281L6.5 0.421143ZM1 5.30901L3.5 6.55901V8.6703L1 9.74172V5.30901ZM1.60963 10.5684L6 13.1295V10.7831L3.96198 9.56027L1.60963 10.5684ZM4.5 8.7169L6 9.6169V7.80901L4.5 7.05901V8.7169ZM4.81101 6.09648L6.5 6.94098L8.18899 6.09648L6.5 5.08309L4.81101 6.09648ZM7 4.2169L9.24916 5.5664L11.4497 4.46615L7 1.87051V4.2169ZM6 1.87051V4.2169L3.75084 5.5664L1.55034 4.46615L6 1.87051ZM12 5.30901L9.5 6.55901V8.6703L12 9.74172V5.30901ZM11.3904 10.5684L9.03802 9.56027L7 10.7831V13.1295L11.3904 10.5684ZM7 9.6169L8.5 8.7169V7.05901L7 7.80901V9.6169Z" fill="black"/>
</svg>
