<svg width="11" height="7" viewBox="0 0 11 7" fill="none" xmlns="http://www.w3.org/2000/svg">
<path fill-rule="evenodd" clip-rule="evenodd" d="M5.50004 1.15686C3.91677 1.15686 2.37371 1.91855 1.21907 3.31819L0.447678 2.68182C1.76839 1.08088 3.58263 0.15686 5.50004 0.15686C7.41745 0.15686 9.23169 1.08088 10.5524 2.68182L9.78101 3.31819C8.62637 1.91855 7.08331 1.15686 5.50004 1.15686ZM4 5.50001C4 4.67158 4.67157 4.00001 5.5 4.00001C6.32843 4.00001 7 4.67158 7 5.50001C7 6.32843 6.32843 7.00001 5.5 7.00001C4.67157 7.00001 4 6.32843 4 5.50001ZM5.5 5.00001C5.22386 5.00001 5 5.22386 5 5.50001C5 5.77615 5.22386 6.00001 5.5 6.00001C5.77614 6.00001 6 5.77615 6 5.50001C6 5.22386 5.77614 5.00001 5.5 5.00001Z" fill="black"/>
</svg>
