<svg width="15" height="15" viewBox="0 0 15 15" fill="none" xmlns="http://www.w3.org/2000/svg">
<path fill-rule="evenodd" clip-rule="evenodd" d="M3.27081 2.56365L4.69103 3.98388C6.32896 2.67204 8.67111 2.67204 10.309 3.98389L11.7293 2.56365C9.30112 0.478783 5.69899 0.478785 3.27081 2.56365ZM12.4364 3.27075L11.0161 4.691C12.328 6.32892 12.328 8.67107 11.0161 10.309L12.4364 11.7292C14.5213 9.30107 14.5213 5.69893 12.4364 3.27075ZM11.7293 12.4364L10.309 11.0161C8.67111 12.328 6.32896 12.328 4.69103 11.0161L3.27081 12.4363C5.69899 14.5212 9.30112 14.5212 11.7293 12.4364ZM2.56371 11.7292L3.98392 10.309C2.67207 8.67108 2.67207 6.32892 3.98392 4.69099L2.56371 3.27076C0.478846 5.69893 0.478846 9.30106 2.56371 11.7292ZM2.19676 2.1967C5.12569 -0.732233 9.87443 -0.732233 12.8034 2.1967C15.7323 5.12563 15.7323 9.87437 12.8034 12.8033C9.87443 15.7322 5.12569 15.7322 2.19676 12.8033C-0.732172 9.87437 -0.732172 5.12563 2.19676 2.1967ZM9.9749 5.02513C8.60807 3.65829 6.39199 3.65829 5.02516 5.02513C3.65832 6.39196 3.65832 8.60804 5.02516 9.97487C6.39199 11.3417 8.60807 11.3417 9.9749 9.97487C11.3417 8.60804 11.3417 6.39196 9.9749 5.02513Z" fill="black"/>
</svg>
