<svg width="15" height="15" viewBox="0 0 15 15" fill="none" xmlns="http://www.w3.org/2000/svg">
<path fill-rule="evenodd" clip-rule="evenodd" d="M7 2V0H8V2H7ZM1.85355 2.14645L3.35355 3.64645L2.64645 4.35355L1.14645 2.85355L1.85355 2.14645ZM13.8536 2.85355L12.3536 4.35355L11.6464 3.64645L13.1464 2.14645L13.8536 2.85355ZM3.58075 6.39913C3.85938 4.44872 5.52977 3 7.49998 3C9.4702 3 11.1406 4.44873 11.4192 6.39914L11.4293 6.4695C11.5885 7.58397 11.2696 8.64541 10.6399 9.45893C10.2565 9.95423 10 10.427 10 10.9013V12.5C10 12.7761 9.77614 13 9.5 13H5.5C5.22386 13 5 12.7761 5 12.5V10.9013C5 10.427 4.74345 9.95426 4.36009 9.45895C3.73042 8.64543 3.41148 7.58398 3.5707 6.46949L4.06567 6.5402L3.5707 6.46949L3.58075 6.39913ZM7.49998 4C6.02742 4 4.77895 5.08279 4.5707 6.54056L4.56064 6.61091C4.44143 7.44544 4.67907 8.2373 5.15088 8.84687C5.56209 9.37814 6 10.0775 6 10.9013V12H9V10.9013C9 10.0775 9.4379 9.37813 9.8491 8.84686C10.3209 8.23729 10.5585 7.44543 10.4393 6.61091L10.4293 6.54056C10.221 5.0828 8.97255 4 7.49998 4ZM2 8H0V7H2V8ZM15 8H13V7H15V8ZM9 15H6V14H9V15Z" fill="black"/>
</svg>
