<svg width="13" height="13" viewBox="0 0 13 13" fill="none" xmlns="http://www.w3.org/2000/svg">
<path fill-rule="evenodd" clip-rule="evenodd" d="M12.8536 0.853591L9.70711 4.00004L12 4.00004V5.00004L8 5.00004V1.00004H9V3.29293L12.1464 0.146484L12.8536 0.853591ZM3.29289 4.00004L0.146446 0.853591L0.853553 0.146485L4 3.29293L4 1.00004L5 1.00004V5.00004L0.999998 5.00004L0.999998 4.00004L3.29289 4.00004ZM0.999999 8.00004L5 8.00004L5 12H4L4 9.70715L0.853553 12.8536L0.146446 12.1465L3.29289 9.00004L0.999999 9.00004L0.999999 8.00004ZM8 8.00004L12 8.00004V9.00004L9.7071 9.00004L12.8536 12.1465L12.1464 12.8536L8.99999 9.70714L8.99999 12L7.99999 12L8 8.00004Z" fill="black"/>
</svg>
