<svg width="15" height="15" viewBox="0 0 15 15" fill="none" xmlns="http://www.w3.org/2000/svg">
<path fill-rule="evenodd" clip-rule="evenodd" d="M7.5 1C4.46243 1 2 3.46243 2 6.5V13.014C2 13.3706 1.88618 13.7155 1.67866 14H13.3213C13.1138 13.7155 13 13.3706 13 13.014V6.5C13 3.46243 10.5376 1 7.5 1ZM0.999999 6.5C0.999999 2.91015 3.91015 0 7.5 0C11.0898 0 14 2.91015 14 6.5V13.014C14 13.1926 14.0709 13.3638 14.1972 13.4901L14.8536 14.1464C14.9966 14.2894 15.0393 14.5045 14.9619 14.6913C14.8845 14.8782 14.7022 15 14.5 15H0.499999C0.297768 15 0.11545 14.8782 0.0380596 14.6913C-0.0393309 14.5045 0.00344692 14.2894 0.146446 14.1464L0.802826 13.4901L1.14329 13.8305L1.14971 13.8369M3 6.5C3 5.11929 4.11929 4 5.5 4C6.3178 4 7.04389 4.39267 7.5 4.99976C7.95612 4.39267 8.6822 4 9.5 4C10.8807 4 12 5.11929 12 6.5V7.5C12 8.38772 11.5373 9.16738 10.8399 9.61097C10.8447 9.61332 10.8494 9.61567 10.8541 9.61803L11.7236 10.0528C11.8674 10.1247 11.9678 10.2613 11.9935 10.4199C12.0193 10.5786 11.9672 10.7399 11.8536 10.8536L11.2678 11.4393C10.2685 12.4386 8.91319 13 7.5 13C6.08681 13 4.73151 12.4386 3.73223 11.4393L3.14645 10.8536C3.0328 10.7399 2.98071 10.5786 3.00646 10.4199C3.0322 10.2613 3.13264 10.1247 3.27639 10.0528L4.1459 9.61803C4.15062 9.61567 4.15535 9.61332 4.16007 9.61097C3.46269 9.16738 3 8.38773 3 7.5V6.5ZM8 7.5C8 8.32843 8.67157 9 9.5 9C10.3284 9 11 8.32843 11 7.5V6.5C11 5.67157 10.3284 5 9.5 5C8.67157 5 8 5.67157 8 6.5V7.5ZM7 6.5C7 5.67157 6.32843 5 5.5 5C4.67157 5 4 5.67157 4 6.5V7.5C4 8.32843 4.67157 9 5.5 9C6.32843 9 7 8.32843 7 7.5V6.5ZM0.999999 6.5V13.014ZM4.34408 10.637L4.43934 10.7322C5.25108 11.544 6.35203 12 7.5 12C8.64797 12 9.74892 11.544 10.5607 10.7322L10.6559 10.637L10.4069 10.5125C8.57696 9.5975 6.42304 9.5975 4.59311 10.5125L4.34408 10.637ZM0.999999 13.014C0.999999 13.1926 0.929074 13.3638 0.802827 13.4901ZM5 8V7H6V8H5ZM9 8V7H10V8H9ZM0.802827 13.4901L1.14329 13.8305Z" fill="black"/>
</svg>
