<svg width="9" height="5" viewBox="0 0 9 5" fill="none" xmlns="http://www.w3.org/2000/svg">
<path fill-rule="evenodd" clip-rule="evenodd" d="M4.75096 0.067545C4.90512 0.157006 5 0.321765 5 0.5V1.92412L8.25193 0.0658784C8.40668 -0.022551 8.59681 -0.021916 8.75096 0.067545C8.90512 0.157006 9 0.321765 9 0.5V4.5C9 4.67824 8.90512 4.84299 8.75096 4.93246C8.59681 5.02192 8.40668 5.02255 8.25193 4.93412L5 3.07588V4.5C5 4.67824 4.90512 4.84299 4.75096 4.93246C4.59681 5.02192 4.40668 5.02255 4.25193 4.93412L0.751931 2.93412C0.596143 2.8451 0.5 2.67943 0.5 2.5C0.5 2.32057 0.596143 2.1549 0.751931 2.06588L4.25193 0.0658784C4.40668 -0.022551 4.59681 -0.021916 4.75096 0.067545ZM6.00778 2.5L8 3.63841V1.36159L6.00778 2.5ZM2.00778 2.5L4 3.63841V1.36159L2.00778 2.5Z" fill="black"/>
</svg>
