<svg width="15" height="15" viewBox="0 0 15 15" fill="none" xmlns="http://www.w3.org/2000/svg">
<path fill-rule="evenodd" clip-rule="evenodd" d="M5.5 1C5.22386 1 5 1.22386 5 1.5V3H4V1.5C4 0.671573 4.67157 0 5.5 0H7V1H5.5ZM11 1H8V0H11V1ZM13.5 1H12V0H13.5C14.3284 0 15 0.671573 15 1.5V3H14V1.5C14 1.22386 13.7761 1 13.5 1ZM0 5.5C0 4.67157 0.671573 4 1.5 4H3V5H1.5C1.22386 5 1 5.22386 1 5.5V7H0V5.5ZM4 4H11V11H4V4ZM5 5V10H10V5H5ZM15 7H14V4H15V7ZM0 11V8H1V11H0ZM15 8V9.5C15 10.3284 14.3284 11 13.5 11H12V10H13.5C13.7761 10 14 9.77614 14 9.5V8H15ZM0 13.5V12H1V13.5C1 13.7761 1.22386 14 1.5 14H3V15H1.5C0.671573 15 0 14.3284 0 13.5ZM11 12V13.5C11 14.3284 10.3284 15 9.5 15H8V14H9.5C9.77614 14 10 13.7761 10 13.5V12H11ZM7 14V15H4V14H7Z" fill="black"/>
</svg>
