<svg width="13" height="15" viewBox="0 0 13 15" fill="none" xmlns="http://www.w3.org/2000/svg">
<path fill-rule="evenodd" clip-rule="evenodd" d="M3 3.5C3 1.567 4.567 0 6.5 0C8.433 0 10 1.567 10 3.5C10 5.26324 8.69615 6.72194 7 6.96456V10H12.5C12.7761 10 13 10.2239 13 10.5V14.5C13 14.7761 12.7761 15 12.5 15H0.5C0.223858 15 0 14.7761 0 14.5V10.5C0 10.2239 0.223858 10 0.5 10H6V6.96456C4.30385 6.72194 3 5.26324 3 3.5ZM6.5 1C5.11929 1 4 2.11929 4 3.5C4 4.88071 5.11929 6 6.5 6C7.88071 6 9 4.88071 9 3.5C9 2.11929 7.88071 1 6.5 1ZM4 8V9H2V8H4ZM1 11V14H12V11H1Z" fill="black"/>
</svg>
