<svg width="15" height="15" viewBox="0 0 15 15" fill="none" xmlns="http://www.w3.org/2000/svg">
<path fill-rule="evenodd" clip-rule="evenodd" d="M1 0V10H0V0H1ZM3 2.5C3 1.11929 4.11929 0 5.5 0H10.5C11.2869 0 12.0279 0.370486 12.5 1L15 4.33333V7.5C15 8.88071 13.8807 10 12.5 10H8.30902L9.31176 12.0055C9.78718 12.9563 9.45039 14.1129 8.53883 14.6598C7.59324 15.2271 6.3678 14.9379 5.77577 14.0075L3 9.6456V2.5ZM5.5 1C4.67157 1 4 1.67157 4 2.5V9.3544L6.61944 13.4707C6.92046 13.9437 7.54354 14.0908 8.02433 13.8023C8.48782 13.5242 8.65906 12.9362 8.41734 12.4527L7.05279 9.72361C6.97529 9.56861 6.98357 9.38454 7.07467 9.23713C7.16578 9.08973 7.32671 9 7.5 9H12.5C13.3284 9 14 8.32843 14 7.5V4.66667L11.7 1.6C11.4167 1.22229 10.9721 1 10.5 1H5.5Z" fill="black"/>
</svg>
