<svg width="15" height="15" viewBox="0 0 15 15" fill="none" xmlns="http://www.w3.org/2000/svg">
<path fill-rule="evenodd" clip-rule="evenodd" d="M1 1.5C1 0.671573 1.67157 0 2.5 0H10.7071L14 3.29289V8H13V3.70711L10.2929 1H2.5C2.22386 1 2 1.22386 2 1.5V8H1V1.5ZM0 8.99347H3V9.99347H0V8.99347ZM4 8.99347H7V9.99347H4V8.99347ZM8 8.99347H11V9.99347H8V8.99347ZM12 8.99347H15V9.99347H12V8.99347ZM2 11V13.5C2 13.7761 2.22386 14 2.5 14H12.5C12.7761 14 13 13.7761 13 13.5V11.75H14V13.5C14 14.3284 13.3284 15 12.5 15H2.5C1.67157 15 1 14.3284 1 13.5V11H2Z" fill="black"/>
</svg>
