<svg width="9" height="15" viewBox="0 0 9 15" fill="none" xmlns="http://www.w3.org/2000/svg">
<path fill-rule="evenodd" clip-rule="evenodd" d="M0.672141 1.62075C1.70989 0.583002 3.11738 0 4.58498 0H4.7918C7.12197 0 9 1.92493 9 4.24297C9 5.7995 8.12163 7.2482 6.72361 7.94721C5.66727 8.47538 5 9.55504 5 10.7361V12H4V10.7361C4 9.17627 4.88127 7.75035 6.27639 7.05279C7.32983 6.52607 8 5.42726 8 4.24297C8 2.46504 6.55759 1 4.7918 1H4.58498C3.3826 1 2.22946 1.47765 1.37925 2.32786L0.853553 2.85355L0.146446 2.14645L0.672141 1.62075ZM5 15H4V14H5V15Z" fill="black"/>
</svg>
