<svg width="15" height="15" viewBox="0 0 15 15" fill="none" xmlns="http://www.w3.org/2000/svg">
<path fill-rule="evenodd" clip-rule="evenodd" d="M7.5 1C3.91015 0.999999 1 3.91015 1 7.5C0.999999 11.0898 3.91015 14 7.5 14C11.0898 14 14 11.0899 14 7.5C14 3.91015 11.0899 1 7.5 1ZM0 7.5C8.9407e-07 3.35786 3.35787 -8.94069e-07 7.5 0C11.6421 8.9407e-07 15 3.35787 15 7.5C15 11.6421 11.6421 15 7.5 15C3.35786 15 -8.94069e-07 11.6421 0 7.5ZM7.5 4.79289L11.2071 8.5L10.5 9.20711L7.5 6.20711L4.5 9.20711L3.79289 8.5L7.5 4.79289Z" fill="black"/>
</svg>
