<svg width="15" height="15" viewBox="0 0 15 15" fill="none" xmlns="http://www.w3.org/2000/svg">
<path fill-rule="evenodd" clip-rule="evenodd" d="M7 1.9999V0H8V1.99989L8.99996 1.99988C12.3137 1.99985 15 4.68615 15 7.99988C15 9.57074 14.3958 11.0013 13.4081 12.0704L13.9851 14.3786C14.0277 14.549 13.9778 14.7293 13.8536 14.8534C13.7294 14.9776 13.5492 15.0276 13.3788 14.985L9.38864 13.9875C9.26009 13.9957 9.13051 13.9999 9.00001 13.9999H5.99999C2.68628 13.9999 -9.17909e-06 11.3136 0 7.99988C9.17914e-06 4.6862 2.68626 1.99993 5.99994 1.9999L7 1.9999ZM9.80442 13.0607L12.8129 13.8127L12.3012 11.7661L12.5051 11.5656C13.4284 10.6579 14 9.39612 14 7.99988C14 5.23844 11.7614 2.99985 8.99997 2.99988L5.99995 2.9999C3.23855 2.99993 1.00001 5.23849 1 7.99988C0.999992 10.7613 3.23857 12.9999 5.99999 12.9999H9.00001C9.16127 12.9999 9.32061 12.9923 9.4777 12.9774C9.59572 12.9662 9.71054 12.9974 9.80442 13.0607ZM5 6.5C5 5.11929 6.11929 4 7.5 4C8.88071 4 10 5.11929 10 6.5C10 7.88071 8.88071 9 7.5 9C6.11929 9 5 7.88071 5 6.5ZM7.5 5C6.67157 5 6 5.67157 6 6.5C6 7.32843 6.67157 8 7.5 8C8.32843 8 9 7.32843 9 6.5C9 5.67157 8.32843 5 7.5 5ZM7.49999 12C6.43629 12 5.45757 11.6303 4.68727 11.0128L5.31273 10.2326C5.91202 10.713 6.6718 11 7.49999 11C8.32817 11 9.08795 10.713 9.68724 10.2326L10.3127 11.0128C9.54241 11.6303 8.56368 12 7.49999 12Z" fill="black"/>
</svg>
