<svg width="15" height="15" viewBox="0 0 15 15" fill="none" xmlns="http://www.w3.org/2000/svg">
<path fill-rule="evenodd" clip-rule="evenodd" d="M3.5 1C3.22386 1 3 1.22386 3 1.5V3H7.5C8.32843 3 9 3.67157 9 4.5V10.5C9 11.3284 8.32843 12 7.5 12H3V13.5C3 13.7761 3.22386 14 3.5 14H13.5C13.7761 14 14 13.7761 14 13.5V1.5C14 1.22386 13.7761 1 13.5 1H3.5ZM2 12V13.5C2 14.3284 2.67157 15 3.5 15H13.5C14.3284 15 15 14.3284 15 13.5V1.5C15 0.671573 14.3284 0 13.5 0H3.5C2.67157 0 2 0.671573 2 1.5V3H1.5C0.671573 3 0 3.67157 0 4.5V10.5C0 11.3284 0.671573 12 1.5 12H2ZM1.5 4C1.22386 4 1 4.22386 1 4.5V10.5C1 10.7761 1.22386 11 1.5 11H7.5C7.77614 11 8 10.7761 8 10.5V4.5C8 4.22386 7.77614 4 7.5 4H1.5ZM3.79289 7.5L2.14645 5.85355L2.85355 5.14645L4.5 6.79289L6.14645 5.14645L6.85355 5.85355L5.20711 7.5L6.85355 9.14645L6.14645 9.85355L4.5 8.20711L2.85355 9.85355L2.14645 9.14645L3.79289 7.5Z" fill="black"/>
</svg>
