<svg width="15" height="15" viewBox="0 0 15 15" fill="none" xmlns="http://www.w3.org/2000/svg">
<path fill-rule="evenodd" clip-rule="evenodd" d="M8 1.5C8 0.671574 8.67157 0 9.5 0H13.5C14.3284 0 15 0.671573 15 1.5V13.5C15 14.3284 14.3284 15 13.5 15H4V14H6V12H1.5C0.671573 12 0 11.3284 0 10.5V4.5C0 3.67157 0.671573 3 1.5 3H8V1.5ZM9 5H14V1.5C14 1.22386 13.7761 1 13.5 1H9.5C9.22386 1 9 1.22386 9 1.5V5ZM14 6H9V13.5C9 13.7761 9.22386 14 9.5 14H13.5C13.7761 14 14 13.7761 14 13.5V6ZM8.08535 14C8.03008 13.8436 8 13.6753 8 13.5V12H7V14H8.08535ZM8 11V4H1.5C1.22386 4 1 4.22386 1 4.5V10.5C1 10.7761 1.22386 11 1.5 11H8ZM13 12H10V11H13V12Z" fill="black"/>
</svg>
