<svg width="13" height="15" viewBox="0 0 13 15" fill="none" xmlns="http://www.w3.org/2000/svg">
<path fill-rule="evenodd" clip-rule="evenodd" d="M6.5 0.421143L13 4.21281V10.7872L6.5 14.5788L0 10.7872V4.21281L6.5 0.421143ZM1 4.78718V10.2128L6.5 13.4211L12 10.2128V8.99999H11V9.99999H10V8.99999H9V9.99999H8V8.99999H7V7.99999H8V6.99999H7V5.99999H8V4.99999H9V5.99999H10V4.99999H11V5.99999H12V4.78718L6.5 1.57885L1 4.78718ZM10 6.99999H9V7.99999H10V6.99999ZM11 7.99999V6.99999H12V7.99999H11ZM2 7.33155C2 5.49158 3.49159 3.99999 5.33156 3.99999C5.84877 3.99999 6.35887 4.12041 6.82148 4.35172L7.22361 4.55278L6.77639 5.44721L6.37426 5.24614C6.05052 5.08427 5.69352 4.99999 5.33156 4.99999C4.04387 4.99999 3 6.04387 3 7.33155V7.66844C3 8.95612 4.04387 9.99999 5.33156 9.99999C5.69352 9.99999 6.05052 9.91572 6.37426 9.75384L6.77639 9.55278L7.22361 10.4472L6.82148 10.6483C6.35887 10.8796 5.84877 11 5.33156 11C3.49159 11 2 9.5084 2 7.66844V7.33155Z" fill="black"/>
</svg>
