<svg width="15" height="15" viewBox="0 0 15 15" fill="none" xmlns="http://www.w3.org/2000/svg">
<path fill-rule="evenodd" clip-rule="evenodd" d="M7.5 1C3.90984 1 1 3.90845 1 7.49548C1 11.0825 3.90983 13.9908 7.5 13.9908C8.75657 13.9908 10.2859 13.6474 11.2421 13.0716L11.4388 12.9532L13.7094 13.7032L12.95 11.4319L13.0788 11.2305C13.7043 10.2529 14 8.82628 14 7.49548C14 3.90845 11.0902 1 7.5 1ZM0 7.49548C0 3.35556 3.35816 0 7.5 0C11.6418 0 15 3.35556 15 7.49548C15 8.85469 14.7205 10.3884 14.0476 11.5609L14.9742 14.3323C15.0342 14.5118 14.9878 14.7097 14.8542 14.8437C14.7206 14.9778 14.5229 15.025 14.3432 14.9656L11.5542 14.0445C10.4098 14.6629 8.80596 14.9908 7.5 14.9908C3.35817 14.9908 0 11.6354 0 7.49548Z" fill="black"/>
</svg>
