<svg width="13" height="15" viewBox="0 0 13 15" fill="none" xmlns="http://www.w3.org/2000/svg">
<path fill-rule="evenodd" clip-rule="evenodd" d="M1.5 1C1.22386 1 1 1.22386 1 1.5V13.5C1 13.7761 1.22386 14 1.5 14H11.5C11.7761 14 12 13.7761 12 13.5V3.70711L9.29289 1H1.5ZM0 1.5C0 0.671574 0.671573 0 1.5 0H9.70711L13 3.29289V13.5C13 14.3284 12.3284 15 11.5 15H1.5C0.671573 15 0 14.3284 0 13.5V1.5ZM5.79289 7.5L4.14645 5.85355L4.85355 5.14645L6.5 6.79289L8.14645 5.14645L8.85355 5.85355L7.20711 7.5L8.85355 9.14645L8.14645 9.85355L6.5 8.20711L4.85355 9.85355L4.14645 9.14645L5.79289 7.5Z" fill="black"/>
</svg>
