<svg width="15" height="15" viewBox="0 0 15 15" fill="none" xmlns="http://www.w3.org/2000/svg">
<path fill-rule="evenodd" clip-rule="evenodd" d="M0 4.5C0 2.01472 2.01472 0 4.5 0H10.5C12.9853 0 15 2.01472 15 4.5V10.5C15 12.9853 12.9853 15 10.5 15H4.5C2.01472 15 0 12.9853 0 10.5V4.5ZM4.5 1C2.567 1 1 2.567 1 4.5V10.5C1 12.433 2.567 14 4.5 14H10.5C12.433 14 14 12.433 14 10.5V4.5C14 2.567 12.433 1 10.5 1H4.5ZM12 4H11V3H12V4ZM4 7.5C4 5.567 5.567 4 7.5 4C9.433 4 11 5.567 11 7.5C11 9.433 9.433 11 7.5 11C5.567 11 4 9.433 4 7.5ZM7.5 5C6.11929 5 5 6.11929 5 7.5C5 8.88071 6.11929 10 7.5 10C8.88071 10 10 8.88071 10 7.5C10 6.11929 8.88071 5 7.5 5Z" fill="black"/>
</svg>
