<svg width="15" height="15" viewBox="0 0 15 15" fill="none" xmlns="http://www.w3.org/2000/svg">
<path fill-rule="evenodd" clip-rule="evenodd" d="M0 7.5C0 3.35786 3.35786 0 7.5 0C11.6421 0 15 3.35786 15 7.5C15 11.6421 11.6421 15 7.5 15C3.35786 15 0 11.6421 0 7.5ZM7.5 1C3.91015 1 1 3.91015 1 7.5C1 11.0899 3.91015 14 7.5 14C11.0899 14 14 11.0899 14 7.5C14 3.91015 11.0899 1 7.5 1ZM6.79289 7.5L4.14645 4.85355L4.85355 4.14645L7.5 6.79289L10.1464 4.14645L10.8536 4.85355L8.20711 7.5L10.8536 10.1464L10.1464 10.8536L7.5 8.20711L4.85355 10.8536L4.14645 10.1464L6.79289 7.5Z" fill="black"/>
</svg>
