<svg width="15" height="15" viewBox="0 0 15 15" fill="none" xmlns="http://www.w3.org/2000/svg">
<path fill-rule="evenodd" clip-rule="evenodd" d="M1.32982 2.13535C1.01961 2.34474 1 2.47682 1 2.49866C1 2.5205 1.01961 2.65257 1.32982 2.86197C1.62247 3.05949 2.07879 3.25709 2.68755 3.43094C3.89827 3.77669 5.59989 3.99731 7.5 3.99731C9.40011 3.99731 11.1017 3.77669 12.3125 3.43094C12.9212 3.25709 13.3775 3.05949 13.6702 2.86197C13.9804 2.65257 14 2.5205 14 2.49866C14 2.47682 13.9804 2.34474 13.6702 2.13535C13.3775 1.93782 12.9212 1.74023 12.3125 1.56638C11.1017 1.22063 9.40011 1 7.5 1C5.59989 1 3.89827 1.22063 2.68755 1.56638C2.07879 1.74023 1.62247 1.93782 1.32982 2.13535ZM14 3.83247C13.614 4.05092 13.131 4.23716 12.587 4.3925C11.2643 4.77025 9.46589 4.99731 7.5 4.99731C5.53411 4.99731 3.73573 4.77025 2.41295 4.3925C1.869 4.23716 1.38599 4.05092 1 3.83247V7.49536C1 7.51721 1.01961 7.64929 1.32983 7.85869C1.62248 8.05623 2.0788 8.25384 2.68756 8.4277C3.89828 8.77349 5.5999 8.99414 7.5 8.99414C9.4001 8.99414 11.1017 8.77349 12.3124 8.4277C12.9212 8.25384 13.3775 8.05623 13.6702 7.85869C13.9804 7.64929 14 7.51721 14 7.49536V3.83247ZM15 2.49866C15 1.96886 14.6279 1.57528 14.2296 1.30649C13.8138 1.02584 13.245 0.792725 12.587 0.604819C11.2643 0.227063 9.46589 0 7.5 0C5.53411 0 3.73573 0.227063 2.41295 0.604819C1.75496 0.792725 1.18616 1.02584 0.770363 1.30649C0.372144 1.57528 0 1.96886 0 2.49866V12.4923C0 13.0221 0.37215 13.4157 0.770372 13.6845C1.18617 13.9651 1.75498 14.1982 2.41296 14.3861C3.73574 14.7638 5.53411 14.9908 7.5 14.9908C9.46589 14.9908 11.2643 14.7638 12.587 14.386C13.245 14.1981 13.8138 13.965 14.2296 13.6844C14.6279 13.4156 15 13.022 15 12.4922V2.49866ZM14 8.8292C13.614 9.04766 13.131 9.23391 12.5871 9.38926C11.2643 9.76705 9.4659 9.99414 7.5 9.99414C5.5341 9.99414 3.73572 9.76705 2.41294 9.38926C1.86899 9.23391 1.38599 9.04766 1 8.8292V12.4923C1 12.5141 1.0196 12.6462 1.32982 12.8556C1.62246 13.0531 2.07877 13.2507 2.68754 13.4245C3.89826 13.7702 5.59989 13.9908 7.5 13.9908C9.40011 13.9908 11.1017 13.7702 12.3125 13.4245C12.9212 13.2506 13.3775 13.053 13.6702 12.8555C13.9804 12.6461 14 12.514 14 12.4922V8.8292Z" fill="black"/>
</svg>
