<svg width="15" height="15" viewBox="0 0 15 15" fill="none" xmlns="http://www.w3.org/2000/svg">
<path fill-rule="evenodd" clip-rule="evenodd" d="M7.50001 1.00001C3.91016 1.00001 1.00001 3.91016 1.00001 7.50001C1.00001 11.0899 3.91016 14 7.50001 14C11.0899 14 14 11.0899 14 7.50001C14 3.91016 11.0899 1.00001 7.50001 1.00001ZM1.33514e-05 7.50001C1.35303e-05 3.35787 3.35788 7.45058e-06 7.50001 7.62939e-06C11.6421 7.80821e-06 15 3.35787 15 7.50001C15 11.6421 11.6421 15 7.50001 15C3.35788 15 1.31726e-05 11.6421 1.33514e-05 7.50001ZM8.00001 4.00001V9.2929L9.50001 7.7929L10.2071 8.50001L7.50001 11.2071L4.79291 8.50001L5.50001 7.7929L7.00001 9.2929V4.00001H8.00001Z" fill="black"/>
</svg>
