<svg width="14" height="14" viewBox="0 0 14 14" fill="none" xmlns="http://www.w3.org/2000/svg">
<path fill-rule="evenodd" clip-rule="evenodd" d="M11 1.5C11 0.671573 11.6716 0 12.5 0H12.7929C13.4596 0 14 0.54044 14 1.20711C14 1.52725 13.8728 1.83428 13.6465 2.06066L12.7071 3H14V4H11.5C11.2978 4 11.1155 3.87818 11.0381 3.69134C10.9607 3.5045 11.0035 3.28945 11.1465 3.14645L12.9393 1.35355C12.9782 1.31471 13 1.26204 13 1.20711C13 1.09272 12.9073 1 12.7929 1H12.5C12.2239 1 12 1.22386 12 1.5H11ZM4.37501 7.5L0.100006 1.8L0.900006 1.2L5.00001 6.66667L9.10001 1.2L9.90001 1.8L5.62501 7.5L9.90001 13.2L9.10001 13.8L5.00001 8.33333L0.900006 13.8L0.100006 13.2L4.37501 7.5Z" fill="black"/>
</svg>
