<svg width="15" height="15" viewBox="0 0 15 15" fill="none" xmlns="http://www.w3.org/2000/svg">
<path fill-rule="evenodd" clip-rule="evenodd" d="M7.84499 1.1429C7.65446 0.952367 7.34554 0.952366 7.15501 1.1429L6.02599 2.27192C5.74695 2.55096 5.3685 2.70772 4.97389 2.70772H3.19561C2.92615 2.70772 2.70772 2.92615 2.70772 3.19561V4.97389C2.70772 5.3685 2.55096 5.74695 2.27192 6.02599L1.1429 7.15501L0.789347 6.80145L1.1429 7.15501C0.952367 7.34554 0.952366 7.65446 1.1429 7.84499L2.27192 8.97401C2.55096 9.25305 2.70772 9.6315 2.70772 10.0261V11.8044C2.70772 12.0738 2.92615 12.2923 3.19561 12.2923H4.97389C5.3685 12.2923 5.74695 12.449 6.02599 12.7281L7.15501 13.8571C7.34554 14.0476 7.65446 14.0476 7.84499 13.8571L8.97401 12.7281C9.25305 12.449 9.6315 12.2923 10.0261 12.2923H11.8044C12.0738 12.2923 12.2923 12.0738 12.2923 11.8044V10.0261C12.2923 9.6315 12.449 9.25305 12.7281 8.97401L13.8571 7.84499C14.0476 7.65446 14.0476 7.34554 13.8571 7.15501L12.7281 6.02599C12.449 5.74695 12.2923 5.3685 12.2923 4.97389V3.19561C12.2923 2.92615 12.0738 2.70772 11.8044 2.70772H10.0261C9.6315 2.70772 9.25305 2.55096 8.97401 2.27192L7.84499 1.1429L8.19855 0.789347L7.84499 1.1429ZM6.4479 0.435794C7.02896 -0.145265 7.97104 -0.145264 8.5521 0.435794L9.68112 1.56481C9.77262 1.65631 9.89672 1.70772 10.0261 1.70772H11.8044C12.6261 1.70772 13.2923 2.37387 13.2923 3.19561V4.97389C13.2923 5.10329 13.3437 5.22738 13.4352 5.31888L14.5642 6.4479C15.1453 7.02896 15.1453 7.97104 14.5642 8.5521L13.4352 9.68112C13.3437 9.77262 13.2923 9.89672 13.2923 10.0261V11.8044C13.2923 12.6261 12.6261 13.2923 11.8044 13.2923H10.0261C9.89671 13.2923 9.77262 13.3437 9.68112 13.4352L8.5521 14.5642C7.97104 15.1453 7.02896 15.1453 6.4479 14.5642L5.31888 13.4352C5.22738 13.3437 5.10329 13.2923 4.97389 13.2923H3.19561C2.37387 13.2923 1.70772 12.6261 1.70772 11.8044V10.0261C1.70772 9.89672 1.65631 9.77262 1.56481 9.68112L0.435794 8.5521C-0.145265 7.97104 -0.145264 7.02896 0.435794 6.4479L1.56481 5.31888C1.65631 5.22738 1.70772 5.10328 1.70772 4.97389V3.19561C1.70772 2.37387 2.37387 1.70772 3.19561 1.70772H4.97389C5.10328 1.70772 5.22738 1.65631 5.31888 1.56481L5.67243 1.91837L5.31888 1.56481L6.4479 0.435794ZM4.64645 9.64645L9.64645 4.64645L10.3536 5.35355L5.35355 10.3536L4.64645 9.64645ZM6 5V6H5V5H6ZM10 10H9V9H10V10Z" fill="black"/>
</svg>
