<svg width="15" height="15" viewBox="0 0 15 15" fill="none" xmlns="http://www.w3.org/2000/svg">
<path fill-rule="evenodd" clip-rule="evenodd" d="M14.8536 0.146458C15.0137 0.306636 15.0462 0.554489 14.9327 0.75053L9.43271 10.2505C9.35488 10.385 9.21899 10.4756 9.06497 10.4958C8.91094 10.516 8.75629 10.4634 8.64645 10.3536L4.64645 6.35356C4.5366 6.24372 4.48405 6.08907 4.50424 5.93505C4.52442 5.78102 4.61505 5.64513 4.74948 5.5673L14.2495 0.0672985C14.4455 -0.0461989 14.6934 -0.0137194 14.8536 0.146458ZM5.81374 6.10665L8.89336 9.18627L9.84149 7.5486L7.45141 5.15853L5.81374 6.10665ZM8.34707 4.63998L10.36 6.65294L13.1278 1.87217L8.34707 4.63998ZM3.93693 9.21424C3.01444 9.21424 2.20406 9.82665 1.95222 10.7141L1.31695 12.9527C1.95422 12.73 2.66289 12.7619 3.28784 13.0594C3.50189 13.1614 3.73598 13.2142 3.97305 13.2142H4.05287C5.12824 13.2142 6 12.3425 6 11.2671V11.2142C6 10.1097 5.10457 9.21424 4 9.21424H3.93693ZM0.990208 10.4411C1.36412 9.12349 2.56729 8.21424 3.93693 8.21424H4C5.65685 8.21424 7 9.55739 7 11.2142V11.2671C7 12.8948 5.68052 14.2142 4.05287 14.2142H3.97305C3.58724 14.2142 3.20628 14.1282 2.85794 13.9623C2.35142 13.7211 1.7554 13.764 1.28862 14.0752L0.777349 14.416C0.603074 14.5322 0.374853 14.5275 0.205567 14.4041C0.0362805 14.2808 -0.0381889 14.065 0.018992 13.8635L0.990208 10.4411Z" fill="black"/>
</svg>
