<svg width="13" height="7" viewBox="0 0 13 7" fill="none" xmlns="http://www.w3.org/2000/svg">
<path fill-rule="evenodd" clip-rule="evenodd" d="M0.5 1.5C0.5 0.947715 0.947715 0.5 1.5 0.5C2.05228 0.5 2.5 0.947715 2.5 1.5C2.5 2.05228 2.05228 2.5 1.5 2.5C0.947715 2.5 0.5 2.05228 0.5 1.5ZM5.5 1.5C5.5 0.947715 5.94772 0.5 6.5 0.5C7.05228 0.5 7.5 0.947715 7.5 1.5C7.5 2.05228 7.05228 2.5 6.5 2.5C5.94772 2.5 5.5 2.05228 5.5 1.5ZM10.5 1.5C10.5 0.947715 10.9477 0.5 11.5 0.5C12.0523 0.5 12.5 0.947715 12.5 1.5C12.5 2.05228 12.0523 2.5 11.5 2.5C10.9477 2.5 10.5 2.05228 10.5 1.5ZM0.5 5.5C0.5 4.94772 0.947715 4.5 1.5 4.5C2.05228 4.5 2.5 4.94772 2.5 5.5C2.5 6.05228 2.05228 6.5 1.5 6.5C0.947715 6.5 0.5 6.05228 0.5 5.5ZM5.5 5.5C5.5 4.94772 5.94772 4.5 6.5 4.5C7.05228 4.5 7.5 4.94772 7.5 5.5C7.5 6.05228 7.05228 6.5 6.5 6.5C5.94772 6.5 5.5 6.05228 5.5 5.5ZM10.5 5.5C10.5 4.94772 10.9477 4.5 11.5 4.5C12.0523 4.5 12.5 4.94772 12.5 5.5C12.5 6.05228 12.0523 6.5 11.5 6.5C10.9477 6.5 10.5 6.05228 10.5 5.5Z" fill="black"/>
</svg>
