<svg width="13" height="15" viewBox="0 0 13 15" fill="none" xmlns="http://www.w3.org/2000/svg">
<path fill-rule="evenodd" clip-rule="evenodd" d="M6.5 1C3.46243 1 1 3.46243 1 6.5V15H0V6H0.0189448C0.274257 2.64378 3.07839 0 6.5 0C10.0899 0 13 2.91015 13 6.5V15H12V6.5C12 3.46243 9.53757 1 6.5 1ZM10 4.29762C10.5789 4.9147 11.4429 6.0768 11.8169 8.00545C12.085 9.38793 11.7043 10.7715 11.1753 11.9616C10.3541 13.8093 8.5219 15 6.5 15C4.4781 15 2.64585 13.8093 1.82468 11.9616C1.29491 10.7696 0.923477 9.30312 1.49374 7.94437C2.55895 5.40634 5.14682 3.70868 8.04072 3.9016L9 3.96556V3H10V4.29762ZM9.27475 4.98609L7.9742 4.89939C6.06894 4.77237 4.31862 5.61087 3.20723 7H10.5016C10.1319 6.01019 9.63203 5.36762 9.27475 4.98609ZM10.7947 8H8.08535C8.29127 8.5826 8.84689 9 9.5 9H10.9046C10.9082 8.72901 10.8865 8.46039 10.8352 8.19581C10.8223 8.12948 10.8088 8.06421 10.7947 8ZM10.7859 10H9.5C8.29052 10 7.28164 9.14112 7.05001 8H5.94999C5.71836 9.14112 4.70948 10 3.5 10H2.25433C2.33324 10.5106 2.50742 11.0356 2.73849 11.5555C3.39916 13.042 4.87329 14 6.5 14C8.12671 14 9.60084 13.042 10.2615 11.5555C10.4892 11.0432 10.6738 10.521 10.7859 10ZM2.23539 9H3.5C4.15311 9 4.70873 8.5826 4.91465 8H2.56781C2.51373 8.10842 2.46302 8.21892 2.41582 8.33136C2.32549 8.5466 2.26673 8.77018 2.23539 9ZM9 11C9 12.1046 8.10457 13 7 13H5.5V12H7C7.55228 12 8 11.5523 8 11H9Z" fill="black"/>
</svg>
