<svg width="13" height="15" viewBox="0 0 13 15" fill="none" xmlns="http://www.w3.org/2000/svg">
<path fill-rule="evenodd" clip-rule="evenodd" d="M1 1.5C1 0.671574 1.67157 0 2.5 0H11.5C12.3284 0 13 0.671573 13 1.5V13.5C13 14.3284 12.3284 15 11.5 15H2.5C1.67157 15 1 14.3284 1 13.5V11H0V10H1V5H0V4H1V1.5ZM2 5H3V4H2V1.5C2 1.22386 2.22386 1 2.5 1H11.5C11.7761 1 12 1.22386 12 1.5V13.5C12 13.7761 11.7761 14 11.5 14H2.5C2.22386 14 2 13.7761 2 13.5V11H3V10H2V5ZM5 5C5 3.89543 5.89543 3 7 3C8.10457 3 9 3.89543 9 5C9 6.10457 8.10457 7 7 7C5.89543 7 5 6.10457 5 5ZM7 4C6.44772 4 6 4.44772 6 5C6 5.55228 6.44772 6 7 6C7.55228 6 8 5.55228 8 5C8 4.44772 7.55228 4 7 4ZM7 9C5.8954 9 5 9.89534 5 10.9999L9 11C9 9.89543 8.10457 9 7 9ZM4 10.9999C4 9.343 5.34318 8 7 8C8.65685 8 10 9.34315 10 11V12H4V10.9999Z" fill="black"/>
</svg>
