<svg width="15" height="15" viewBox="0 0 15 15" fill="none" xmlns="http://www.w3.org/2000/svg">
<path fill-rule="evenodd" clip-rule="evenodd" d="M0 7.5C0 3.35786 3.35786 0 7.5 0C11.6421 0 15 3.35786 15 7.5C15 11.6421 11.6421 15 7.5 15C3.35786 15 0 11.6421 0 7.5ZM7.5 1C3.91015 1 1 3.91015 1 7.5C1 11.0899 3.91015 14 7.5 14C11.0899 14 14 11.0899 14 7.5C14 3.91015 11.0899 1 7.5 1ZM5.5 4.79289L8.20711 7.5L5.5 10.2071L4.79289 9.5L6.79289 7.5L4.79289 5.5L5.5 4.79289ZM8.5 4.79289L11.2071 7.5L8.5 10.2071L7.79289 9.5L9.79289 7.5L7.79289 5.5L8.5 4.79289Z" fill="black"/>
</svg>
