<svg width="15" height="12" viewBox="0 0 15 12" fill="none" xmlns="http://www.w3.org/2000/svg">
<path fill-rule="evenodd" clip-rule="evenodd" d="M4.64384 1.4378C5.29351 1.82841 5.79325 2.45637 6.01231 3.22308L6.52001 5.00001H8.47999L8.98769 3.22308C9.20675 2.45637 9.70649 1.82841 10.3562 1.4378C8.48852 0.914127 6.51148 0.914127 4.64384 1.4378ZM12.1172 1.00534C9.17232 -0.275055 5.82768 -0.275055 2.88283 1.00534C1.27487 1.09965 0 2.43351 0 4.06513V4.46126C0 4.47418 7.23004e-05 4.4871 0.000216752 4.50001H0V10.2639C0 11.2227 0.777264 12 1.73607 12C2.39364 12 2.99478 11.6285 3.28885 11.0403L3.8054 10.0072C4.60793 10.3678 5.57917 10.277 6.31342 9.68958C7.07589 9.07961 7.39757 8.07148 7.12932 7.13262L6.80572 6.00001H8.19428L7.87068 7.13262C7.60243 8.07148 7.92411 9.07961 8.68658 9.68958C9.42083 10.277 10.3921 10.3678 11.1946 10.0072L11.7111 11.0403C12.0052 11.6285 12.6064 12 13.2639 12C14.2227 12 15 11.2227 15 10.2639V4.50001H14.9998C14.9999 4.4871 15 4.47418 15 4.46126V4.06513C15 2.43351 13.7251 1.09965 12.1172 1.00534ZM14 6.9254L12.0913 9.31128C12.0655 9.34358 12.039 9.37504 12.0118 9.40566L12.6056 10.5931C12.7303 10.8425 12.9851 11 13.2639 11C13.6705 11 14 10.6705 14 10.2639V6.9254ZM2.98816 9.40566C2.96104 9.37504 2.93454 9.34358 2.90871 9.31128L1 6.9254V10.2639C1 10.6705 1.32955 11 1.73607 11C2.01487 11 2.26974 10.8425 2.39443 10.5931L2.98816 9.40566ZM3.06512 2.00001C1.92459 2.00001 1 2.9246 1 4.06513V4.46126C1 5.02014 1.19021 5.56238 1.53934 5.99879L3.68958 8.68659C4.18029 9.29998 5.07534 9.39943 5.68873 8.90872C6.13642 8.55056 6.32531 7.95861 6.1678 7.40734L5.05079 3.4978C4.79749 2.61124 3.98716 2.00001 3.06512 2.00001ZM11.9349 2.00001C11.0128 2.00001 10.2025 2.61124 9.94921 3.4978L8.8322 7.40734C8.67469 7.95861 8.86358 8.55056 9.31127 8.90872C9.92466 9.39943 10.8197 9.29998 11.3104 8.68659L13.4607 5.99879C13.8098 5.56238 14 5.02014 14 4.46126V4.06513C14 2.9246 13.0754 2.00001 11.9349 2.00001Z" fill="black"/>
</svg>
