<svg width="15" height="15" viewBox="0 0 15 15" fill="none" xmlns="http://www.w3.org/2000/svg">
<path fill-rule="evenodd" clip-rule="evenodd" d="M7.5 1C6.57543 1 5.77938 1.6526 5.59806 2.55922L5.26972 4.2009C5.24281 4.33548 5.21233 4.46916 5.17835 4.60181L6 4.19098V3H7V3.78655C7.32986 3.71924 7.67014 3.71924 8 3.78655V3H9V4.19098L9.82165 4.60181C9.78767 4.46916 9.75719 4.33548 9.73028 4.2009L9.40194 2.55922C9.22062 1.6526 8.42457 1 7.5 1ZM10.0026 5.20452L9.27505 5.93206L10.5 8.38197C10.6457 8.67333 10.7311 8.98606 10.7561 9.30246C11.0111 9.11015 11.3264 9 11.6594 9H11.9337C11.8481 8.57721 11.681 8.17289 11.4394 7.81047L10.8743 6.96288C10.5092 6.41514 10.2165 5.82407 10.0026 5.20452ZM12.95 9.00537C12.8546 8.38225 12.624 7.78467 12.2714 7.25577L11.7064 6.40818C11.2208 5.67975 10.8826 4.86324 10.7109 4.00478L10.3825 2.3631C10.1077 0.98906 8.90126 0 7.5 0C6.09874 0 4.89229 0.98906 4.61748 2.3631L4.28914 4.00479C4.11745 4.86324 3.77924 5.67975 3.29362 6.40818L2.72856 7.25577C2.37596 7.78467 2.14542 8.38225 2.04999 9.00537C1.48849 9.05292 0.996263 9.41305 0.784318 9.94291L0.305572 11.1398C0.0642431 11.7431 0.238821 12.4332 0.738011 12.8492L2.57238 14.3778C3.10649 14.8229 3.87645 14.8427 4.43266 14.4255L5.17127 13.8715C5.18108 13.8642 5.19078 13.8567 5.20036 13.8492C5.56337 13.9476 5.94488 14 6.33796 14H8.66204C9.05512 14 9.43663 13.9476 9.79964 13.8492C9.80923 13.8567 9.81892 13.8642 9.82873 13.8715L10.5673 14.4255C11.1235 14.8427 11.8935 14.8229 12.4276 14.3778L14.262 12.8492C14.7612 12.4332 14.9358 11.7431 14.6944 11.1398L14.2157 9.94291C14.0037 9.41305 13.5115 9.05292 12.95 9.00537ZM9.25436 12.9477C9.20098 12.6631 9.22957 12.3617 9.35001 12.0807L9.53286 11.654C9.15537 11.8764 8.71904 12 8.26393 12H6.73607C6.28096 12 5.84463 11.8764 5.46714 11.654L5.64999 12.0807C5.77043 12.3617 5.79902 12.6631 5.74564 12.9477C5.93765 12.982 6.13556 13 6.33796 13H8.66204C8.86444 13 9.06235 12.982 9.25436 12.9477ZM4.24388 9.30246C4.26894 8.98606 4.35432 8.67333 4.5 8.38197L5.72495 5.93206L4.99741 5.20452C4.78346 5.82407 4.49083 6.41514 4.12567 6.96288L3.56061 7.81047C3.319 8.17289 3.15187 8.57721 3.06631 9H3.3406C3.67362 9 3.98886 9.11015 4.24388 9.30246ZM6.56383 6.49037L5.39443 8.82918C5.18328 9.25147 5.18328 9.74853 5.39443 10.1708C5.64852 10.679 6.16791 11 6.73607 11H8.26393C8.83209 11 9.35148 10.679 9.60557 10.1708C9.81672 9.74853 9.81672 9.25147 9.60557 8.82918L8.43617 6.49037C7.83695 6.73197 7.16305 6.73197 6.56383 6.49037ZM8.65592 5.13698L8.17082 4.89443C7.74853 4.68328 7.25147 4.68328 6.82918 4.89443L6.34408 5.13698L6.43934 5.23223C7.02513 5.81802 7.97487 5.81802 8.56066 5.23223L8.65592 5.13698ZM2.17703 10C1.97258 10 1.78873 10.1245 1.71279 10.3143L1.23405 11.5112C1.15361 11.7123 1.2118 11.9423 1.37819 12.081L3.21257 13.6096C3.3906 13.758 3.64726 13.7646 3.83266 13.6255L4.57127 13.0715C4.75577 12.9332 4.82169 12.6866 4.73084 12.4746L3.80018 10.303C3.72139 10.1192 3.54062 10 3.3406 10H2.17703ZM11.6594 10C11.4594 10 11.2786 10.1192 11.1998 10.303L10.2692 12.4746C10.1783 12.6866 10.2442 12.9332 10.4287 13.0715L11.1673 13.6255C11.3527 13.7646 11.6094 13.758 11.7874 13.6096L13.6218 12.081C13.7882 11.9423 13.8464 11.7123 13.766 11.5112L13.2872 10.3143C13.2113 10.1245 13.0274 10 12.823 10H11.6594Z" fill="black"/>
</svg>
