<svg width="15" height="15" viewBox="0 0 15 15" fill="none" xmlns="http://www.w3.org/2000/svg">
<path fill-rule="evenodd" clip-rule="evenodd" d="M5.5 1C4.11883 1 3 2.11857 3 3.49804C3 4.87751 4.11883 5.99609 5.5 5.99609C6.88117 5.99609 8 4.87751 8 3.49804C8 2.11857 6.88117 1 5.5 1ZM2 3.49804C2 1.56567 3.56717 0 5.5 0C7.43283 0 9 1.56567 9 3.49804C9 5.43041 7.43283 6.99609 5.5 6.99609C3.56717 6.99609 2 5.43041 2 3.49804ZM9 6.5C9 5.11929 10.1193 4 11.5 4C12.8807 4 14 5.11929 14 6.5C14 7.88071 12.8807 9 11.5 9C10.1193 9 9 7.88071 9 6.5ZM11.5 5C10.6716 5 10 5.67157 10 6.5C10 7.32843 10.6716 8 11.5 8C12.3284 8 13 7.32843 13 6.5C13 5.67157 12.3284 5 11.5 5ZM3.5 9.99414C2.11918 9.99414 1 11.113 1 12.4936V13.9909H10V12.4936C10 11.113 8.88082 9.99414 7.5 9.99414H3.5ZM0 12.4936C0 10.5605 1.56711 8.99414 3.5 8.99414H7.5C9.43289 8.99414 11 10.5605 11 12.4936V14.9909H0V12.4936ZM14 13C14 11.8954 13.1046 11 12 11V10C13.6569 10 15 11.3431 15 13V15H12V14H14V13Z" fill="black"/>
</svg>
