<svg width="15" height="15" viewBox="0 0 15 15" fill="none" xmlns="http://www.w3.org/2000/svg">
<path fill-rule="evenodd" clip-rule="evenodd" d="M4.5 1C4.22386 1 4 1.22386 4 1.5V8.5C4 8.77614 4.22386 9 4.5 9H13.5C13.7761 9 14 8.77614 14 8.5V3.5C14 3.22386 13.7761 3 13.5 3H9.29289L7.29289 1H4.5ZM11 10H4.5C3.67157 10 3 9.32843 3 8.5V6H1.5C1.22386 6 1 6.22386 1 6.5V13.5C1 13.7761 1.22386 14 1.5 14H10.5C10.7761 14 11 13.7761 11 13.5V10ZM3 5H1.5C0.671573 5 0 5.67157 0 6.5V13.5C0 14.3284 0.671573 15 1.5 15H10.5C11.3284 15 12 14.3284 12 13.5V10H13.5C14.3284 10 15 9.32843 15 8.5V3.5C15 2.67157 14.3284 2 13.5 2H9.70711L7.70711 0H4.5C3.67157 0 3 0.671573 3 1.5V5Z" fill="black"/>
</svg>
