<svg width="15" height="13" viewBox="0 0 15 13" fill="none" xmlns="http://www.w3.org/2000/svg">
<path fill-rule="evenodd" clip-rule="evenodd" d="M1.5 1C1.22386 1 1 1.22386 1 1.5V2L10 2V1.5C10 1.22386 9.77614 1 9.5 1H1.5ZM11 2V1.5C11 0.671573 10.3284 0 9.5 0H1.5C0.671573 0 3.8743e-07 0.671573 3.8743e-07 1.5L0 11.5C-5.96046e-08 12.3284 0.671574 13 1.5 13L13.5 13C14.3284 13 15 12.3284 15 11.5V3.5C15 2.67157 14.3284 2 13.5 2L11 2ZM1 3L1 11.5C1 11.7761 1.22386 12 1.5 12L13.5 12C13.7761 12 14 11.7761 14 11.5V3.5C14 3.22386 13.7761 3 13.5 3L1 3ZM12 8V9H9V8H12Z" fill="black"/>
</svg>
