<svg width="15" height="15" viewBox="0 0 15 15" fill="none" xmlns="http://www.w3.org/2000/svg">
<path fill-rule="evenodd" clip-rule="evenodd" d="M14.8143 0.111171C14.9318 0.206099 15 0.349008 15 0.500004V14.5C15 14.645 14.9371 14.7828 14.8276 14.8777C14.7181 14.9727 14.5728 15.0155 14.4293 14.995L0.429289 12.995C0.182965 12.9598 0 12.7488 0 12.5V3.5C0 3.26424 0.1647 3.0605 0.395235 3.0111L14.3952 0.0111032C14.5429 -0.0205349 14.6969 0.0162435 14.8143 0.111171ZM1 3.90421V7H6V2.83278L1 3.90421ZM7 2.6185V7H14V1.1185L7 2.6185ZM14 8H7V12.9235L14 13.9235V8ZM6 12.7806V8H1V12.0664L6 12.7806Z" fill="black"/>
</svg>
