<svg width="15" height="15" viewBox="0 0 15 15" fill="none" xmlns="http://www.w3.org/2000/svg">
<path fill-rule="evenodd" clip-rule="evenodd" d="M8.02433 1.19772C7.54354 0.909248 6.92046 1.05634 6.61944 1.52937L4 5.64563V12.5C4 13.3285 4.67157 14 5.5 14H10.5C10.9721 14 11.4167 13.7777 11.7 13.4L14 10.3334V7.50003C14 6.6716 13.3284 6.00003 12.5 6.00003H7.5C7.32671 6.00003 7.16578 5.9103 7.07467 5.76289C6.98357 5.61549 6.97529 5.43142 7.05279 5.27642L8.41734 2.54732C8.65906 2.06387 8.48782 1.47581 8.02433 1.19772ZM8.53883 0.340228C9.45039 0.887164 9.78718 2.04371 9.31176 2.99454L8.30902 5.00003H12.5C13.8807 5.00003 15 6.11932 15 7.50003V10.6667L12.5 14C12.0279 14.6295 11.2869 15 10.5 15H5.5C4.11929 15 3 13.8807 3 12.5V5.35443L5.77577 0.992497C6.3678 0.0621679 7.59324 -0.227121 8.53883 0.340228ZM0 15V5.00003H1V15H0Z" fill="black"/>
</svg>
