<svg width="15" height="13" viewBox="0 0 15 13" fill="none" xmlns="http://www.w3.org/2000/svg">
<path fill-rule="evenodd" clip-rule="evenodd" d="M0 1.5C0 0.671573 0.671573 0 1.5 0H13.5C14.3284 0 15 0.671573 15 1.5V11.5C15 12.3284 14.3284 13 13.5 13H1.5C0.671573 13 0 12.3284 0 11.5V1.5ZM1.5 1C1.22386 1 1 1.22386 1 1.5V3.20984L7.5 6.92412L14 3.20984V1.5C14 1.22386 13.7761 1 13.5 1H1.5ZM14 4.36159L7.5 8.07588L1 4.36159V11.5C1 11.7761 1.22386 12 1.5 12H13.5C13.7761 12 14 11.7761 14 11.5V4.36159Z" fill="black"/>
</svg>
