<svg width="15" height="15" viewBox="0 0 15 15" fill="none" xmlns="http://www.w3.org/2000/svg">
<path fill-rule="evenodd" clip-rule="evenodd" d="M8 0.0164023V0H7V0.0164023C3.09098 0.273695 0 3.52588 0 7.5C0 11.6421 3.35786 15 7.5 15C11.6421 15 15 11.6421 15 7.5C15 3.52588 11.909 0.273695 8 0.0164023ZM7 1.01894C3.64378 1.27426 1 4.07839 1 7.5C1 11.0899 3.91015 14 7.5 14C9.11495 14 10.5923 13.411 11.7291 12.4362L9.59609 10.3032C9.0118 10.7408 8.28617 11 7.5 11C5.567 11 4 9.433 4 7.5C4 5.73676 5.30385 4.27806 7 4.03544V1.01894ZM8 4.03544V1.01894C10.1508 1.18256 12.0091 2.39296 13.0664 4.14183L10.2583 5.3453C9.71478 4.65047 8.9144 4.16624 8 4.03544ZM10.7582 6.21905C10.9143 6.61576 11 7.04787 11 7.5C11 8.28617 10.7408 9.0118 10.3032 9.59609L12.4362 11.7291C13.411 10.5923 14 9.11495 14 7.5C14 6.62816 13.8284 5.79641 13.517 5.0367L10.7582 6.21905ZM7.5 5C6.11929 5 5 6.11929 5 7.5C5 8.88071 6.11929 10 7.5 10C8.88071 10 10 8.88071 10 7.5C10 6.11929 8.88071 5 7.5 5Z" fill="black"/>
</svg>
