<svg width="15" height="13" viewBox="0 0 15 13" fill="none" xmlns="http://www.w3.org/2000/svg">
<path fill-rule="evenodd" clip-rule="evenodd" d="M1.5 1C1.22386 1 1 1.22386 1 1.5L1 9.5C1 9.77614 1.22386 10 1.5 10L13.5 10C13.7761 10 14 9.77614 14 9.5V1.5C14 1.22386 13.7761 1 13.5 1L1.5 1ZM3.57628e-07 1.5C3.8743e-07 0.671574 0.671573 0 1.5 0L13.5 5.36442e-07C14.3284 5.96046e-07 15 0.671573 15 1.5V9.5C15 10.3284 14.3284 11 13.5 11H13V12H14V13H11V12H12V11L3 11V12H4V13H1V12H2V11H1.5C0.671573 11 -5.96046e-08 10.3284 0 9.5L3.57628e-07 1.5Z" fill="black"/>
</svg>
