<svg width="15" height="15" viewBox="0 0 15 15" fill="none" xmlns="http://www.w3.org/2000/svg">
<path fill-rule="evenodd" clip-rule="evenodd" d="M4.11711 0.333984L4.85237 1.88461L3.94881 2.31306L3.21354 0.762432L4.11711 0.333984ZM1.66258 1.45163L2.39784 3.00226L1.49428 3.4307L0.759011 1.88008L1.66258 1.45163ZM6.59335 1.45977L7.2988 3.08276L6.38168 3.48139L5.67624 1.8584L6.59335 1.45977ZM5.05073 4.73263C4.7686 4.57809 4.43743 4.57186 4.13094 4.69778C3.87571 4.80263 3.65947 5.06675 3.56662 5.35988L3.20313 7.10211C3.14796 7.36654 3.38536 7.67646 3.69548 7.67646C3.88804 7.67646 4.03204 7.60154 4.09942 7.51542L4.10488 7.50844L4.53202 6.98212C4.83294 6.60045 5.30083 6.44117 5.72048 6.44117H6.45685C6.6494 6.44117 6.7934 6.36624 6.86078 6.28013C6.86858 6.27016 6.87675 6.26049 6.88528 6.25115C7.05714 6.06287 7.02716 5.73003 6.71806 5.56183L5.06839 4.74185C5.06244 4.73889 5.05655 4.73582 5.05073 4.73263ZM5.52179 3.85049C4.94716 3.53962 4.30055 3.547 3.75093 3.7728C3.15235 4.01871 2.75861 4.5693 2.60268 5.09247C2.59868 5.10589 2.59525 5.11946 2.59239 5.13317L2.2242 6.89787C2.03392 7.80991 2.77833 8.67646 3.69548 8.67646C4.11514 8.67646 4.58301 8.51718 4.88394 8.13553L5.31103 7.60914L5.31655 7.60221C5.38393 7.5161 5.52793 7.44117 5.72048 7.44117H6.45685C6.87232 7.44117 7.33507 7.28504 7.63627 6.91156C8.30601 6.16042 7.96844 5.09473 7.18278 4.67632L5.52179 3.85049ZM0.98756 3.98104L1.72283 5.53167L0.819259 5.96012L0.083993 4.40949L0.98756 3.98104ZM11.7865 6.52714L11.0512 8.07777L10.1476 7.64932L10.8829 6.09869L11.7865 6.52714ZM14.241 7.64478L13.5057 9.19541L12.6022 8.76696L13.3374 7.21634L14.241 7.64478ZM9.32376 7.6231L8.61831 9.2461L7.7012 8.84747L8.40665 7.22447L9.32376 7.6231ZM10.8189 10.4385C10.5705 10.3024 10.2356 10.337 10.0212 10.5083C9.99344 10.5304 9.96343 10.5496 9.93165 10.5654L8.2822 11.3852C8.02121 11.5282 7.95489 11.868 8.13926 12.1037C8.20663 12.1898 8.35064 12.2647 8.54319 12.2647H9.27955C9.69921 12.2647 10.1671 12.424 10.468 12.8056L10.9007 13.3389C10.9681 13.425 11.112 13.5 11.3046 13.5C11.654 13.5 11.8566 13.2116 11.7969 12.9256L11.4314 11.174C11.3373 10.825 11.1194 10.5653 10.8691 10.4625C10.8519 10.4554 10.8352 10.4474 10.8189 10.4385ZM11.2746 9.54821C10.6859 9.23865 9.95643 9.31088 9.44319 9.69145L7.82973 10.4934L7.81725 10.4998C6.97793 10.9468 6.80087 12.0159 7.35167 12.7199C7.65247 13.1043 8.12211 13.2647 8.54319 13.2647H9.27955C9.47211 13.2647 9.61611 13.3396 9.68349 13.4257L10.1161 13.9591C10.417 14.3407 10.8849 14.5 11.3046 14.5C12.3051 14.5 12.9616 13.6119 12.7758 12.7214L12.4076 10.9567C12.406 10.9486 12.4041 10.9406 12.402 10.9326C12.2512 10.3543 11.8663 9.80231 11.2746 9.54821ZM14.916 10.1742L14.1807 11.7248L13.2772 11.2964L14.0124 9.74575L14.916 10.1742Z" fill="black"/>
</svg>
