<svg width="15" height="15" viewBox="0 0 15 15" fill="none" xmlns="http://www.w3.org/2000/svg">
<path fill-rule="evenodd" clip-rule="evenodd" d="M0 7.5C0 3.35786 3.35786 0 7.5 0C11.6421 0 15 3.35786 15 7.5C15 11.6421 11.6421 15 7.5 15C3.35786 15 0 11.6421 0 7.5ZM7.5 1C3.91015 1 1 3.91015 1 7.5C1 11.0899 3.91015 14 7.5 14C11.0899 14 14 11.0899 14 7.5C14 3.91015 11.0899 1 7.5 1ZM5 6H4V5H5V6ZM11 6H10V5H11V6ZM3.8 10.1L4.1 9.7C5.8 7.43333 9.2 7.43333 10.9 9.7L11.2 10.1L10.4 10.7L10.1 10.3C8.8 8.56667 6.2 8.56667 4.9 10.3L4.6 10.7L3.8 10.1Z" fill="black"/>
</svg>
