<svg width="15" height="11" viewBox="0 0 15 11" fill="none" xmlns="http://www.w3.org/2000/svg">
<path fill-rule="evenodd" clip-rule="evenodd" d="M11.5 1L1.5 1C1.22386 1 1 1.22386 1 1.5L1 9.5C1 9.77614 1.22386 10 1.5 10H11.5C11.7761 10 12 9.77614 12 9.5V1.5C12 1.22386 11.7761 1 11.5 1ZM1.5 4.47035e-07L11.5 0C12.3284 -5.96046e-08 13 0.671573 13 1.5V9.5C13 10.3284 12.3284 11 11.5 11H1.5C0.671573 11 3.8743e-07 10.3284 3.57628e-07 9.5L0 1.5C-5.96046e-08 0.671574 0.671573 4.76837e-07 1.5 4.47035e-07ZM9 2L9 9H8L8 2L9 2ZM11 2L11 9H10L10 2L11 2ZM3 2L3 9H2L2 2H3ZM5 2V9H4V2H5ZM7 2V9H6V2H7ZM15 3L15 8H14L14 3H15Z" fill="black"/>
</svg>
