<svg width="20" height="20" viewBox="0 0 20 20" fill="none" xmlns="http://www.w3.org/2000/svg">
<path fill-rule="evenodd" clip-rule="evenodd" d="M4.5 3C4.22386 3 4 3.22386 4 3.5V7H3V3.5C3 2.67157 3.67157 2 4.5 2H12.7071L16 5.29289V7H15V5.70711L12.2929 3H4.5ZM4.30866 8.03806C4.4955 7.96067 4.71055 8.00345 4.85355 8.14645L5.5 8.79289L6.14645 8.14645C6.28945 8.00345 6.5045 7.96067 6.69134 8.03806C6.87818 8.11545 7 8.29777 7 8.5V13H6V9.70711L5.5 10.2071L5 9.70711V13H4V8.5C4 8.29777 4.12182 8.11545 4.30866 8.03806ZM8 8H9.5C10.3284 8 11 8.67157 11 9.5C11 10.3284 10.3284 11 9.5 11H9V13H8V8ZM9 10H9.5C9.77614 10 10 9.77614 10 9.5C10 9.22386 9.77614 9 9.5 9H9V10ZM12 8H13V10H14V8H15V13H14V11H12V8ZM3 15.5V14H4V15.5C4 15.7761 4.22386 16 4.5 16H14.5C14.7761 16 15 15.7761 15 15.5V14H16V15.5C16 16.3284 15.3284 17 14.5 17H4.5C3.67157 17 3 16.3284 3 15.5Z" fill="black"/>
</svg>
