<svg width="20" height="20" viewBox="0 0 20 20" fill="none" xmlns="http://www.w3.org/2000/svg">
<path d="M2.06507 7.59011C1.84007 7.36711 1.65407 7.08211 1.46807 6.83811C1.13607 6.41811 1.33107 6.42711 1.74207 6.06611C2.76807 5.15611 3.74607 4.17011 4.86907 3.37811C5.88607 2.66511 7.23407 2.20511 8.15507 3.33911C9.00407 4.38411 9.02407 5.96811 9.23907 7.23011C9.45407 8.53911 9.66007 9.87811 10.1191 11.1311C10.2461 11.4831 10.4891 12.1491 10.9291 12.2051C11.4961 12.2831 12.0741 11.2881 12.3371 10.9161C13.0211 9.92911 13.9481 8.59911 13.8311 7.32911C13.7161 5.98011 12.2591 6.23411 11.3491 6.55611C11.4951 5.04211 12.9041 3.34011 14.2611 2.76411C15.7001 2.16711 17.8401 2.17711 18.5631 3.80011C19.3351 5.55911 18.6411 7.60211 17.8001 9.19611C16.8821 10.9271 15.7001 12.5291 14.4371 14.0251C13.3231 15.3541 12.0051 16.8121 10.3441 17.4471C8.44707 18.1701 7.32307 16.7611 6.67707 15.1291C5.97207 13.3521 5.62107 11.3581 5.11207 9.50811C4.89807 8.72611 4.64407 7.83611 4.13607 7.19111C3.47307 6.35811 2.72007 7.14111 2.06507 7.59011C1.97707 7.50211 2.11507 7.55111 2.06507 7.59011Z" fill="black"/>
</svg>
