<svg width="15" height="11" viewBox="0 0 15 11" fill="none" xmlns="http://www.w3.org/2000/svg">
<path fill-rule="evenodd" clip-rule="evenodd" d="M4.85407 1C4.24071 1 3.68915 1.37343 3.46135 1.94291L3.3078 2.32679C6.08206 1.84904 8.91794 1.84904 11.6922 2.32679L11.5386 1.94291C11.3109 1.37343 10.7593 1 10.1459 1H4.85407ZM12.8614 2.55731L12.4671 1.57152C12.0875 0.622377 11.1682 0 10.1459 0H4.85407C3.8318 0 2.91253 0.622377 2.53287 1.57152L2.13856 2.55731C1.66102 2.66349 1.18586 2.78403 0.71371 2.91893C0.291256 3.03963 0 3.42576 0 3.86512V7.21017C0 9.30323 1.69677 11 3.78983 11H4.33198C4.61853 11 4.88219 10.8435 5.0194 10.5919C6.09036 8.62851 8.90964 8.62851 9.9806 10.5919C10.1178 10.8435 10.3815 11 10.668 11H11.2102C13.3032 11 15 9.30323 15 7.21017V3.86512C15 3.42576 14.7087 3.03963 14.2863 2.91893C13.8141 2.78403 13.339 2.66349 12.8614 2.55731ZM12.306 3.46082C12.3644 3.48541 12.4274 3.49897 12.4917 3.50006C12.9975 3.60901 13.5005 3.73471 14 3.87715V7.21017C14 8.75095 12.7509 10 11.2102 10H10.7945C9.32101 7.49248 5.67899 7.49248 4.20554 10H3.78983C2.24905 10 1 8.75095 1 7.21017V3.87715C1.49952 3.73471 2.00254 3.60901 2.50826 3.50006C2.57258 3.49897 2.63564 3.48541 2.69403 3.46082C5.86423 2.80437 9.13577 2.80437 12.306 3.46082Z" fill="black"/>
</svg>
