<svg width="15" height="13" viewBox="0 0 15 13" fill="none" xmlns="http://www.w3.org/2000/svg">
<path fill-rule="evenodd" clip-rule="evenodd" d="M3.06755 0.249037C3.15701 0.0948792 3.32177 0 3.5 0H6.80902L7.5 1.38197L8.19099 0H11.5C11.6782 0 11.843 0.0948792 11.9325 0.249037C12.0219 0.403194 12.0226 0.593318 11.9341 0.748069L7.93413 7.74807C7.8451 7.90386 7.67943 8 7.5 8C7.32058 8 7.1549 7.90386 7.06588 7.74807L3.06588 0.748069C2.97745 0.593318 2.97809 0.403194 3.06755 0.249037ZM4.36159 1L7.5 6.49222L10.6384 1H8.80902L7.94722 2.72361C7.86252 2.893 7.68939 3 7.5 3C7.31062 3 7.13749 2.893 7.05279 2.72361L6.19099 1H4.36159ZM7.06812 12.7519L0.0681152 0.751935L0.931894 0.248064L7.5 11.5077L14.0681 0.248064L14.9319 0.751935L7.93189 12.7519C7.84229 12.9055 7.67784 13 7.5 13C7.32217 13 7.15772 12.9055 7.06812 12.7519Z" fill="black"/>
</svg>
