<svg width="15" height="15" viewBox="0 0 15 15" fill="none" xmlns="http://www.w3.org/2000/svg">
<path fill-rule="evenodd" clip-rule="evenodd" d="M1.37911e-05 7.5C1.37911e-05 3.35786 3.35788 0 7.50001 0C11.6421 0 15 3.35786 15 7.5C15 11.6421 11.6421 15 7.50001 15C5.9241 15 4.46057 14.5134 3.25306 13.6825L0.723621 14.9472C0.531126 15.0435 0.298641 15.0057 0.14646 14.8536C-0.00571975 14.7014 -0.043447 14.4689 0.0528002 14.2764L1.31752 11.7469C0.486584 10.5394 1.37911e-05 9.07592 1.37911e-05 7.5ZM7.50001 1C3.91016 1 1.00001 3.91015 1.00001 7.5C1.00001 8.96403 1.48344 10.3137 2.29957 11.4001L2.48534 11.6474L1.61805 13.382L3.35264 12.5147L3.59992 12.7004C4.6863 13.5166 6.03598 14 7.50001 14C11.0899 14 14 11.0899 14 7.5C14 3.91015 11.0899 1 7.50001 1ZM5.00001 4.76774V5.5C5.00001 5.94345 5.06416 6.37192 5.18367 6.77664L5.68467 6.44264C5.84838 6.3335 5.93287 6.13849 5.90052 5.94441L5.76107 5.10774C5.70205 4.75358 5.30092 4.57637 5.00001 4.76774ZM5.58115 7.7135L6.23937 7.27469C6.7305 6.94727 6.98395 6.36225 6.88691 5.78001L6.74747 4.94334C6.56852 3.86967 5.3415 3.33808 4.43583 3.94187L4.22266 4.08397C4.08356 4.17671 4.00001 4.33282 4.00001 4.5V5.5C4.00001 8.53757 6.46245 11 9.50001 11H10.5C10.6672 11 10.8233 10.9164 10.916 10.7774L11.0581 10.5642C11.6619 9.65851 11.1303 8.43149 10.0567 8.25255L9.22 8.1131C8.63777 8.01606 8.05275 8.26951 7.72533 8.76064L7.28651 9.41887C6.57493 9.01608 5.98394 8.42508 5.58115 7.7135ZM8.22338 9.81634C8.62809 9.93586 9.05656 10 9.50001 10H10.2323C10.4236 9.6991 10.2464 9.29797 9.89227 9.23894L9.0556 9.09949C8.86152 9.06715 8.66652 9.15163 8.55738 9.31534L8.22338 9.81634Z" fill="black"/>
</svg>
