<svg width="20" height="20" viewBox="0 0 20 20" fill="none" xmlns="http://www.w3.org/2000/svg">
<path fill-rule="evenodd" clip-rule="evenodd" d="M2.00001 9.5C2.00001 5.35786 5.35788 2 9.50001 2C13.6421 2 17 5.35786 17 9.5C17 13.6421 13.6421 17 9.50001 17C7.9241 17 6.46057 16.5134 5.25306 15.6825L2.72362 16.9472C2.53113 17.0435 2.29864 17.0057 2.14646 16.8536C1.99428 16.7014 1.95655 16.4689 2.0528 16.2764L3.31752 13.7469C2.48658 12.5394 2.00001 11.0759 2.00001 9.5ZM9.50001 3C5.91016 3 3.00001 5.91015 3.00001 9.5C3.00001 10.964 3.48344 12.3137 4.29957 13.4001L4.48534 13.6474L3.61805 15.382L5.35264 14.5147L5.59992 14.7004C6.6863 15.5166 8.03598 16 9.50001 16C13.0899 16 16 13.0899 16 9.5C16 5.91015 13.0899 3 9.50001 3ZM7.00001 6.76774V7.5C7.00001 7.94345 7.06416 8.37192 7.18367 8.77664L7.68467 8.44264C7.84838 8.3335 7.93287 8.13849 7.90052 7.94441L7.76107 7.10774C7.70205 6.75358 7.30092 6.57637 7.00001 6.76774ZM7.58115 9.7135L8.23937 9.27469C8.7305 8.94727 8.98395 8.36225 8.88691 7.78001L8.74747 6.94334C8.56852 5.86967 7.3415 5.33808 6.43583 5.94187L6.22266 6.08397C6.08356 6.17671 6.00001 6.33282 6.00001 6.5V7.5C6.00001 10.5376 8.46245 13 11.5 13H12.5C12.6672 13 12.8233 12.9164 12.916 12.7774L13.0581 12.5642C13.6619 11.6585 13.1303 10.4315 12.0567 10.2525L11.22 10.1131C10.6378 10.0161 10.0527 10.2695 9.72533 10.7606L9.28651 11.4189C8.57493 11.0161 7.98394 10.4251 7.58115 9.7135ZM10.2234 11.8163C10.6281 11.9359 11.0566 12 11.5 12H12.2323C12.4236 11.6991 12.2464 11.298 11.8923 11.2389L11.0556 11.0995C10.8615 11.0671 10.6665 11.1516 10.5574 11.3153L10.2234 11.8163Z" fill="black"/>
</svg>
