<svg width="15" height="12" viewBox="0 0 15 12" fill="none" xmlns="http://www.w3.org/2000/svg">
<path fill-rule="evenodd" clip-rule="evenodd" d="M7.50001 1.98529C5.04157 1.98529 2.65919 3.16841 0.885708 5.31819L0.114319 4.68183C2.05387 2.33073 4.70744 0.985291 7.50001 0.985291C10.2926 0.985291 12.9462 2.33073 14.8857 4.68183L14.1143 5.31819C12.3408 3.16841 9.95846 1.98529 7.50001 1.98529ZM7.50002 6.15689C5.91675 6.15689 4.37369 6.91859 3.21905 8.31822L2.44766 7.68186C3.76838 6.08091 5.58262 5.15689 7.50002 5.15689C9.41743 5.15689 11.2317 6.08091 12.5524 7.68186L11.781 8.31822C10.6264 6.91859 9.0833 6.15689 7.50002 6.15689ZM6.00001 10.5C6.00001 9.67158 6.67159 9.00001 7.50001 9.00001C8.32844 9.00001 9.00001 9.67158 9.00001 10.5C9.00001 11.3284 8.32844 12 7.50001 12C6.67159 12 6.00001 11.3284 6.00001 10.5ZM7.50001 10C7.22387 10 7.00001 10.2239 7.00001 10.5C7.00001 10.7762 7.22387 11 7.50001 11C7.77616 11 8.00001 10.7762 8.00001 10.5C8.00001 10.2239 7.77616 10 7.50001 10Z" fill="black"/>
</svg>
