<svg width="11" height="7" viewBox="0 0 11 7" fill="none" xmlns="http://www.w3.org/2000/svg">
<path fill-rule="evenodd" clip-rule="evenodd" d="M5.50005 1.15686C3.91678 1.15686 2.37372 1.91855 1.21908 3.31819L0.447693 2.68182C1.76841 1.08088 3.58265 0.15686 5.50005 0.15686C7.41746 0.15686 9.2317 1.08088 10.5524 2.68182L9.78103 3.31819C8.62639 1.91855 7.08333 1.15686 5.50005 1.15686ZM4.00001 5.50001C4.00001 4.67158 4.67159 4.00001 5.50001 4.00001C6.32844 4.00001 7.00001 4.67158 7.00001 5.50001C7.00001 6.32843 6.32844 7.00001 5.50001 7.00001C4.67159 7.00001 4.00001 6.32843 4.00001 5.50001ZM5.50001 5.00001C5.22387 5.00001 5.00001 5.22386 5.00001 5.50001C5.00001 5.77615 5.22387 6.00001 5.50001 6.00001C5.77616 6.00001 6.00001 5.77615 6.00001 5.50001C6.00001 5.22386 5.77616 5.00001 5.50001 5.00001Z" fill="black"/>
</svg>
