<svg width="15" height="15" viewBox="0 0 15 15" fill="none" xmlns="http://www.w3.org/2000/svg">
<path fill-rule="evenodd" clip-rule="evenodd" d="M0 7.5C0 3.35786 3.35786 0 7.5 0C11.6421 0 15 3.35786 15 7.5C15 11.6421 11.6421 15 7.5 15C3.35786 15 0 11.6421 0 7.5ZM2.02182 4C1.375 5.0103 1 6.21136 1 7.5C1 10.1945 2.63955 12.5061 4.97545 13.4915L2.12798 4H2.02182ZM3.17202 4H4V3H2.80957C3.9925 1.76733 5.65664 1 7.5 1C8.74355 1 9.90553 1.34921 10.8932 1.95492C10.6992 2.0192 10.5131 2.11518 10.3429 2.24286C9.49076 2.88193 9.31807 4.09076 9.95714 4.94286L10.6 5.8L11.4 5.2L10.7571 4.34286L10.3571 4.64286L10.7571 4.34286C10.4494 3.93259 10.5326 3.35056 10.9429 3.04286C11.273 2.79524 11.727 2.79524 12.0571 3.04286L12.1892 3.1419L12.2491 3.06198L12.1892 3.1419C12.6047 3.45353 12.7594 4.0052 12.5665 4.48744L9.5675 11.985L7.17202 4H8V3H5V4H6.12798L7.00275 6.91588L5.50606 11.7801L3.17202 4ZM7.51926 8.63759L5.97789 13.647C5.9604 13.7039 5.93342 13.7558 5.89902 13.8014C6.41116 13.9311 6.94753 14 7.5 14C8.05247 14 8.58885 13.9311 9.10099 13.8014C9.06587 13.7549 9.03851 13.7017 9.02109 13.6437L7.51926 8.63759ZM10.0454 13.4827C12.3702 12.4923 14 10.1865 14 7.5C14 6.58454 13.8107 5.71328 13.4692 4.92321L10.0454 13.4827Z" fill="black"/>
</svg>
