<svg width="20" height="20" viewBox="0 0 20 20" fill="none" xmlns="http://www.w3.org/2000/svg">
<path fill-rule="evenodd" clip-rule="evenodd" d="M2 10.5C2 6.35786 5.35786 3 9.5 3C13.6421 3 17 6.35786 17 10.5C17 14.6421 13.6421 18 9.5 18C5.35786 18 2 14.6421 2 10.5ZM4.02182 7C3.375 8.0103 3 9.21136 3 10.5C3 13.1945 4.63955 15.5061 6.97545 16.4915L4.12798 7H4.02182ZM5.17202 7H6V6H4.80957C5.9925 4.76733 7.65664 4 9.5 4C10.7435 4 11.9055 4.34921 12.8932 4.95492C12.6992 5.0192 12.5131 5.11518 12.3429 5.24286C11.4908 5.88193 11.3181 7.09076 11.9571 7.94286L12.6 8.8L13.4 8.2L12.7571 7.34286L12.3571 7.64286L12.7571 7.34286C12.4494 6.93259 12.5326 6.35056 12.9429 6.04286C13.273 5.79524 13.727 5.79524 14.0571 6.04286L14.1892 6.1419L14.2491 6.06198L14.1892 6.1419C14.6047 6.45353 14.7594 7.0052 14.5665 7.48744L11.5675 14.985L9.17202 7H10V6H7V7H8.12798L9.00275 9.91588L7.50606 14.7801L5.17202 7ZM9.51926 11.6376L7.97789 16.647C7.9604 16.7039 7.93342 16.7558 7.89902 16.8014C8.41116 16.9311 8.94753 17 9.5 17C10.0525 17 10.5888 16.9311 11.101 16.8014C11.0659 16.7549 11.0385 16.7017 11.0211 16.6437L9.51926 11.6376ZM12.0454 16.4827C14.3702 15.4923 16 13.1865 16 10.5C16 9.58454 15.8107 8.71328 15.4692 7.92321L12.0454 16.4827Z" fill="black"/>
</svg>
