<svg width="20" height="20" viewBox="0 0 20 20" fill="none" xmlns="http://www.w3.org/2000/svg">
<path fill-rule="evenodd" clip-rule="evenodd" d="M3 9.5C3 5.35786 6.35786 2 10.5 2C14.6421 2 18 5.35786 18 9.5C18 13.6421 14.6421 17 10.5 17C6.35786 17 3 13.6421 3 9.5ZM4.19729 7.90439C4.06844 8.41491 4 8.94946 4 9.5C4 12.5736 6.1333 15.1489 9 15.8261V15.2071L8 14.2071V12.7071L7 11.7071V10.5C7 10.2239 7.22386 10 7.5 10H11.5C12.3284 10 13 10.6716 13 11.5V12.0118C13.5109 12.0849 13.9151 12.4891 13.9882 13H15.9782C16.625 11.9897 17 10.7886 17 9.5C17 6.79605 15.349 4.47772 13 3.49816V4.5C13 5.32843 12.3284 6 11.5 6H10.5C10.2239 6 10 6.22386 10 6.5C10 7.32843 9.32843 8 8.5 8H8V8.70711L7.56066 9.14645C6.97487 9.73223 6.02513 9.73223 5.43934 9.14645L4.19729 7.90439ZM4.56115 6.85404L6.14645 8.43934C6.34171 8.6346 6.65829 8.6346 6.85355 8.43934L7 8.29289V7.5C7 7.22386 7.22386 7 7.5 7H8.5C8.77614 7 9 6.77614 9 6.5C9 5.67157 9.67157 5 10.5 5H11.5C11.7761 5 12 4.77614 12 4.5V3.17393C11.5185 3.06019 11.0163 3 10.5 3C7.85241 3 5.57453 4.58294 4.56115 6.85404ZM15.1904 14H13.8333C13.3731 14 13 13.6269 13 13.1667C13 13.0746 12.9254 13 12.8333 13C12.3731 13 12 12.6269 12 12.1667V11.5C12 11.2239 11.7761 11 11.5 11H8V11.2929L9 12.2929V13.7929L10 14.7929V15.9811C10.165 15.9936 10.3318 16 10.5 16C12.3434 16 14.0075 15.2327 15.1904 14Z" fill="black"/>
</svg>
