<svg width="20" height="20" viewBox="0 0 20 20" fill="none" xmlns="http://www.w3.org/2000/svg">
<path d="M4.40007 4.56006C4.24007 4.56006 4.11007 4.61006 4.05007 4.72006C3.98007 4.83006 3.99007 4.97006 4.07007 5.12006L5.82007 8.16006V8.17006L3.06007 13.0401C2.99007 13.1801 2.99007 13.3301 3.06007 13.4401C3.12007 13.5501 3.24007 13.6201 3.40007 13.6201H6.00007C6.39007 13.6201 6.57007 13.3601 6.71007 13.1201C6.71007 13.1201 9.41007 8.35006 9.51007 8.16006C9.49007 8.14006 7.72007 5.04006 7.72007 5.04006C7.58007 4.81006 7.39007 4.56006 6.99007 4.56006H4.40007Z" fill="black"/>
<path d="M15.3001 1C14.9101 1 14.7401 1.25 14.6001 1.5C14.6001 1.5 9.01007 11.42 8.82007 11.74C8.83007 11.76 12.5101 18.51 12.5101 18.51C12.6401 18.74 12.8401 19 13.2301 19H15.8201C15.9801 19 16.1001 18.94 16.1601 18.83C16.2301 18.72 16.2301 18.57 16.1601 18.43L12.5001 11.74V11.72L18.2501 1.56C18.3201 1.42 18.3201 1.27 18.2501 1.16C18.2101 1.06 18.0801 1 17.9301 1H15.3001Z" fill="black"/>
</svg>
