<svg width="20" height="20" viewBox="0 0 20 20" fill="none" xmlns="http://www.w3.org/2000/svg">
<path d="M17.175 14.9709C17.063 15.7409 15.489 17.7379 14.769 18.0249C14.523 18.1249 14.282 18.1009 14.094 17.9559C13.972 17.8599 11.648 14.0969 11.648 14.0969C11.454 13.8039 11.491 13.4149 11.731 13.1189C11.965 12.8349 12.312 12.7259 12.612 12.8429C12.628 12.8529 16.822 14.2369 16.944 14.3249C17.122 14.4729 17.207 14.7039 17.169 14.9709H17.175ZM11.464 10.7889C11.261 10.4819 11.265 10.1229 11.473 9.8729C11.473 9.8729 14.098 6.2989 14.218 6.2159C14.421 6.0809 14.67 6.0749 14.908 6.1909C15.599 6.5259 16.993 8.5959 17.075 9.3899V9.4169C17.099 9.6879 16.993 9.9079 16.802 10.0399C16.67 10.1229 12.372 11.1949 12.372 11.1949C12.05 11.2909 11.692 11.1349 11.49 10.8139L11.464 10.7889ZM9.47499 9.5629C9.31999 9.6089 8.84799 9.7569 8.26899 8.8169C8.26899 8.8169 4.35299 2.6569 4.26199 2.4659C4.20499 2.2539 4.27299 2.0109 4.46399 1.8159C5.04699 1.2109 8.20999 0.326899 9.03699 0.528899C9.30699 0.597899 9.49399 0.766899 9.55899 1.0079C9.60599 1.2739 9.99199 6.9899 10.047 8.2719C10.098 9.3679 9.62899 9.5169 9.47499 9.5629ZM9.92699 19.0659C9.84399 19.2909 9.65399 19.4389 9.38699 19.4869C8.62499 19.6169 6.23699 18.7359 5.73999 18.1449C5.64399 18.0139 5.58499 17.8829 5.57299 17.7509C5.56199 17.6559 5.57299 17.5619 5.60899 17.4789C5.66999 17.3239 8.52599 13.9409 8.52599 13.9409C8.73999 13.6689 9.12099 13.5859 9.47799 13.7279C9.82299 13.8579 10.038 14.1559 10.014 14.4769C10.014 14.4789 9.97699 18.9229 9.92699 19.0659ZM3.49499 13.9119C3.25999 13.9029 3.05099 13.7639 2.92699 13.5299C2.83799 13.3599 2.77599 13.0769 2.73699 12.7359C2.62999 11.7009 2.76099 10.1439 3.06999 9.6479C3.21499 9.4219 3.42699 9.3029 3.66199 9.3119C3.81599 9.3119 7.91699 10.9789 7.91699 10.9789C8.23799 11.0969 8.43799 11.4319 8.41699 11.8119C8.39399 12.1819 8.18099 12.4669 7.86599 12.5499L3.49499 13.9119Z" fill="black"/>
</svg>
