<svg width="20" height="20" viewBox="0 0 20 20" fill="none" xmlns="http://www.w3.org/2000/svg">
<path fill-rule="evenodd" clip-rule="evenodd" d="M3.5061 4.635C7.45719 3.78833 11.5428 3.78833 15.4939 4.635C16.3724 4.82324 17 5.59959 17 6.49803V14.2259C17 15.1243 16.3724 15.9006 15.4939 16.0889C11.5428 16.9355 7.45719 16.9355 3.5061 16.0889C2.62761 15.9006 2 15.1243 2 14.2259V6.49803C2 5.59959 2.62761 4.82324 3.5061 4.635ZM15.2844 5.6128C11.4714 4.79573 7.5286 4.79573 3.71563 5.6128C3.29821 5.70224 3 6.07113 3 6.49803V14.2259C3 14.6527 3.29821 15.0216 3.71563 15.1111C7.5286 15.9281 11.4714 15.9281 15.2844 15.1111C15.7018 15.0216 16 14.6527 16 14.2259V6.49803C16 6.07113 15.7018 5.70224 15.2844 5.6128ZM8.26407 7.9211C8.42665 7.83409 8.62392 7.84363 8.77735 7.94591L11.7774 9.94591C11.9164 10.0386 12 10.1948 12 10.3619C12 10.5291 11.9164 10.6852 11.7774 10.778L8.77735 12.778C8.62392 12.8803 8.42665 12.8898 8.26407 12.8028C8.10149 12.7158 8 12.5463 8 12.3619V8.36194C8 8.17754 8.10149 8.00811 8.26407 7.9211ZM9 9.2962V11.4277L10.5986 10.3619L9 9.2962Z" fill="black"/>
</svg>
