<svg width="15" height="13" viewBox="0 0 15 13" fill="none" xmlns="http://www.w3.org/2000/svg">
<path fill-rule="evenodd" clip-rule="evenodd" d="M1.5061 0.772935C5.45719 -0.0737257 9.54281 -0.0737257 13.4939 0.772935C14.3724 0.961183 15 1.73753 15 2.63597V10.3638C15 11.2622 14.3724 12.0386 13.4939 12.2268C9.54281 13.0735 5.45719 13.0735 1.5061 12.2268C0.627614 12.0386 0 11.2622 0 10.3638V2.63597C0 1.73753 0.627614 0.961183 1.5061 0.772935ZM13.2844 1.75074C9.4714 0.933674 5.5286 0.933674 1.71563 1.75074C1.29821 1.84018 1 2.20907 1 2.63597V10.3638C1 10.7907 1.29821 11.1596 1.71563 11.249C5.5286 12.0661 9.4714 12.0661 13.2844 11.249C13.7018 11.1596 14 10.7907 14 10.3638V2.63597C14 2.20907 13.7018 1.84018 13.2844 1.75074ZM6.26407 4.05904C6.42665 3.97203 6.62392 3.98157 6.77735 4.08385L9.77735 6.08385C9.91645 6.17659 10 6.3327 10 6.49988C10 6.66706 9.91645 6.82317 9.77735 6.9159L6.77735 8.9159C6.62392 9.01819 6.42665 9.02773 6.26407 8.94072C6.10149 8.85371 6 8.68428 6 8.49988V4.49988C6 4.31548 6.10149 4.14605 6.26407 4.05904ZM7 5.43414V7.56562L8.59861 6.49988L7 5.43414Z" fill="black"/>
</svg>
