<svg width="15" height="15" viewBox="0 0 15 15" fill="none" xmlns="http://www.w3.org/2000/svg">
<path fill-rule="evenodd" clip-rule="evenodd" d="M0 1.5C0 0.671574 0.671573 0 1.5 0H13.5C14.3284 0 15 0.671573 15 1.5V13.5C15 14.3284 14.3284 15 13.5 15H1.5C0.671573 15 0 14.3284 0 13.5V1.5ZM1.5 1C1.22386 1 1 1.22386 1 1.5V13.5C1 13.7761 1.22386 14 1.5 14H13.5C13.7761 14 14 13.7761 14 13.5V1.5C14 1.22386 13.7761 1 13.5 1H1.5ZM6 3H3V2H6V3ZM10.5 3C10.2239 3 10 3.22386 10 3.5V4H11V3.5C11 3.22386 10.7761 3 10.5 3ZM12 4V3.5C12 2.67157 11.3284 2 10.5 2C9.67157 2 9 2.67157 9 3.5V5H13V4H12ZM6 5H3V4H6V5ZM6 7H3V6H6V7ZM9 9V6H10V7H12V6H13V9H12V8H10V9H9ZM3.10961 8H5.89039L6.67444 11.1362C6.91112 12.0829 6.19508 13 5.21922 13H3.78078C2.80492 13 2.08888 12.0829 2.32556 11.1362L3.10961 8ZM3.89039 9L3.29571 11.3787C3.21681 11.6943 3.45549 12 3.78078 12H5.21922C5.54451 12 5.78319 11.6943 5.7043 11.3787L5.10961 9H3.89039ZM9.26407 10.0592C9.42665 9.97215 9.62392 9.98169 9.77735 10.084L12 11.5657V10H13V12.5C13 12.6844 12.8985 12.8538 12.7359 12.9408C12.5733 13.0278 12.3761 13.0183 12.2226 12.916L10 11.4343V13H9V10.5C9 10.3156 9.10149 10.1462 9.26407 10.0592Z" fill="black"/>
</svg>
