<svg width="15" height="15" viewBox="0 0 15 15" fill="none" xmlns="http://www.w3.org/2000/svg">
<path fill-rule="evenodd" clip-rule="evenodd" d="M0 6.5C0 2.91015 2.91015 0 6.5 0C10.0899 0 13 2.91015 13 6.5C13 8.11495 12.411 9.59234 11.4362 10.7291L14.8536 14.1464L14.1464 14.8536L10.7291 11.4362C9.59234 12.411 8.11495 13 6.5 13C2.91015 13 0 10.0899 0 6.5ZM6.5 1C3.46243 1 1 3.46243 1 6.5C1 9.53757 3.46243 12 6.5 12C9.53757 12 12 9.53757 12 6.5C12 3.46243 9.53757 1 6.5 1ZM9 7H4V6H9V7Z" fill="black"/>
</svg>
