<?xml version='1.0' encoding='iso-8859-1'?>
<svg version="1.1" xmlns="http://www.w3.org/2000/svg" viewBox="0 0 511 511" xmlns:xlink="http://www.w3.org/1999/xlink" enable-background="new 0 0 511 511">
  <g>
    <path d="m487.5,208h-21.792c-5.402-24.064-14.791-46.742-27.971-67.562l15.399-15.4c9.163-9.163 9.163-24.071 0-33.234l-33.941-33.941c-4.438-4.439-10.34-6.883-16.617-6.883s-12.179,2.445-16.617,6.883l-15.399,15.399c-20.82-13.18-43.498-22.569-67.562-27.971v-21.791c1.13687e-13-12.958-10.542-23.5-23.5-23.5h-48c-12.958,0-23.5,10.542-23.5,23.5v21.792c-24.064,5.402-46.742,14.791-67.562,27.971l-15.399-15.399c-4.438-4.439-10.34-6.884-16.617-6.884s-12.179,2.445-16.617,6.883l-33.941,33.942c-9.163,9.163-9.163,24.071 0,33.234l15.4,15.4c-13.18,20.82-22.569,43.498-27.971,67.561h-21.793c-12.958-2.84217e-14-23.5,10.542-23.5,23.5v48c0,12.958 10.542,23.5 23.5,23.5h21.793c5.402,24.064 14.791,46.741 27.971,67.561l-15.4,15.4c-4.438,4.438-6.883,10.34-6.883,16.617s2.445,12.178 6.883,16.617l33.941,33.941c4.438,4.438 10.34,6.883 16.617,6.883s12.179-2.445 16.617-6.883l15.4-15.4c20.82,13.18 43.497,22.568 67.562,27.971v21.793c0,12.958 10.542,23.5 23.5,23.5h48c12.958,0 23.5-10.542 23.5-23.5v-21.792c24.064-5.402 46.741-14.791 67.562-27.971l15.399,15.4c4.438,4.438 10.34,6.883 16.617,6.883s12.179-2.445 16.617-6.883l33.941-33.941c4.438-4.438 6.883-10.34 6.883-16.617s-2.445-12.179-6.883-16.617l-15.399-15.399c13.18-20.82 22.568-43.497 27.971-67.562h21.791c12.958,0 23.5-10.542 23.5-23.5v-48c0-12.959-10.542-23.501-23.5-23.501zm8.5,71.5c0,4.687-3.813,8.5-8.5,8.5h-27.883c-3.589,0-6.675,2.543-7.361,6.065-5.14,26.378-15.351,51.041-30.348,73.303-2.005,2.976-1.621,6.956 0.917,9.493l19.705,19.705c1.605,1.606 2.49,3.74 2.49,6.011 0,2.27-0.884,4.405-2.49,6.01l-33.941,33.941c-1.605,1.605-3.74,2.49-6.011,2.49s-4.405-0.884-6.01-2.49l-19.706-19.706c-2.537-2.538-6.518-2.923-9.493-0.917-22.264,14.998-46.927,25.208-73.304,30.348-3.523,0.686-6.065,3.772-6.065,7.361v27.886c0,4.687-3.813,8.5-8.5,8.5h-48c-4.687,0-8.5-3.813-8.5-8.5v-27.883c0-3.589-2.542-6.675-6.065-7.361-26.377-5.14-51.041-15.351-73.303-30.348-1.276-0.859-2.736-1.28-4.188-1.28-1.935,0-3.856,0.747-5.306,2.197l-19.706,19.706c-1.605,1.605-3.739,2.49-6.01,2.49s-4.405-0.884-6.011-2.49l-33.941-33.942c-1.605-1.605-2.49-3.74-2.49-6.01 0-2.271 0.884-4.405 2.49-6.011l19.706-19.706c2.538-2.538 2.922-6.517 0.917-9.493-14.998-22.263-25.208-46.926-30.348-73.303-0.687-3.523-3.772-6.065-7.361-6.065h-27.884c-4.687,0-8.5-3.813-8.5-8.5v-48c0-4.687 3.813-8.5 8.5-8.5h27.883c3.589,0 6.675-2.543 7.361-6.065 5.14-26.377 15.351-51.04 30.348-73.303 2.005-2.976 1.621-6.956-0.917-9.493l-19.705-19.708c-3.314-3.314-3.314-8.707 0-12.021l33.941-33.941c1.605-1.605 3.74-2.49 6.011-2.49s4.405,0.884 6.01,2.49l19.705,19.705c2.538,2.537 6.516,2.922 9.494,0.917 22.263-14.997 46.926-25.208 73.304-30.348 3.522-0.687 6.065-3.772 6.065-7.362v-27.882c0-4.687 3.813-8.5 8.5-8.5h48c4.687,0 8.5,3.813 8.5,8.5v27.883c0,3.589 2.543,6.675 6.065,7.362 26.377,5.14 51.04,15.35 73.304,30.348 2.977,2.005 6.957,1.621 9.494-0.917l19.706-19.705c1.605-1.605 3.739-2.49 6.01-2.49s4.405,0.884 6.011,2.49l33.941,33.941c3.314,3.314 3.314,8.707 0,12.021l-19.705,19.705c-2.538,2.537-2.922,6.517-0.917,9.493 14.998,22.264 25.208,46.927 30.348,73.304 0.686,3.523 3.772,6.065 7.361,6.065h27.882c4.687,0 8.5,3.813 8.5,8.5v48z"/>
    <path d="m119,255.5c0-75.266 61.234-136.5 136.5-136.5 18.423,0 36.292,3.605 53.108,10.715 3.815,1.613 8.216-0.172 9.829-3.987 1.613-3.815-0.172-8.216-3.988-9.829-18.675-7.895-38.508-11.899-58.949-11.899-83.538,0-151.5,67.963-151.5,151.5 0,34.6 11.969,68.436 33.702,95.275 1.482,1.831 3.648,2.781 5.833,2.781 1.658,0 3.327-0.547 4.715-1.672 3.219-2.607 3.716-7.329 1.109-10.548-19.577-24.177-30.359-54.661-30.359-85.836z"/>
    <path d="m385.298,192.614c-3.816,1.611-5.603,6.011-3.992,9.827 7.096,16.804 10.694,34.656 10.694,53.059 0,75.266-61.233,136.5-136.5,136.5-31.162,0-61.636-10.774-85.808-30.337-3.219-2.606-7.941-2.109-10.548,1.112-2.605,3.22-2.108,7.942 1.112,10.548 26.833,21.717 60.658,33.677 95.244,33.677 83.538,0 151.5-67.963 151.5-151.5 0-20.419-3.996-40.234-11.875-58.894-1.612-3.816-6.013-5.603-9.827-3.992z"/>
    <path d="m341.292,149.324c7.479,6.052 14.341,12.914 20.394,20.396 1.482,1.832 3.649,2.783 5.835,2.783 1.657,0 3.324-0.546 4.712-1.669 3.221-2.605 3.719-7.328 1.114-10.548-6.713-8.299-14.324-15.91-22.621-22.623-3.219-2.605-7.942-2.107-10.548,1.113-2.605,3.22-2.106,7.943 1.114,10.548z"/>
    <path d="M255.5,136C189.607,136,136,189.608,136,255.5S189.607,375,255.5,375S375,321.393,375,255.5S321.393,136,255.5,136z    M255.5,360C197.878,360,151,313.122,151,255.5S197.878,151,255.5,151S360,197.879,360,255.5S313.122,360,255.5,360z"/>
  </g>
</svg>
