<?xml version="1.0" encoding="iso-8859-1"?>
<!-- Generator: Adobe Illustrator 18.1.1, SVG Export Plug-In . SVG Version: 6.00 Build 0)  -->
<svg version="1.1" id="Capa_1" xmlns="http://www.w3.org/2000/svg" xmlns:xlink="http://www.w3.org/1999/xlink" x="0px" y="0px"
	 viewBox="0 0 48.977 48.977" style="enable-background:new 0 0 48.977 48.977;" xml:space="preserve">
<g>
	<g>
		<path style="fill:#fff;" d="M1.429,23.434c-1.563,2.191-1.855,5.049-0.822,8.045l2.189,6.351
			c2.021,5.869,8.469,10.466,14.676,10.466h5.088c4.679,0,9.347-2.643,12.11-6.494l4.164-0.007c3.058-0.006,6.677-3.16,8.239-7.182
			c2.727-7.015,1.814-8.175,1.515-8.556c-1.023-1.301-4.544-1.441-6.011-1.441h-4.149c-0.166,0-0.323,0.033-0.473,0.083
			c-0.219-0.434-0.463-0.855-0.76-1.249c-1.663-2.201-4.315-3.413-7.468-3.413H8.767C5.598,20.037,2.991,21.244,1.429,23.434z
			 M36.733,37.585l1.708-6.019c0.388-1.364,0.496-2.694,0.363-3.95h3.772c1.516,0,2.723,0.177,3.38,0.338
			c-0.147,0.952-0.654,2.932-1.681,5.573c-1.204,3.1-3.838,5.265-5.447,5.267l-2.513,0.004C36.474,38.4,36.615,37.996,36.733,37.585
			z M3.871,25.176c0.984-1.38,2.723-2.14,4.896-2.14h20.961c2.189,0,3.991,0.789,5.074,2.222c1.083,1.433,1.35,3.382,0.752,5.489
			l-1.708,6.019c-1.334,4.703-6.398,8.529-11.287,8.529h-5.088c-4.841,0-10.263-3.866-11.84-8.442l-2.188-6.351
			C2.736,28.448,2.887,26.556,3.871,25.176z"/>
		<path style="fill:#fff;" d="M14.46,1.296C10.956-0.796,8.771,2.891,8.552,5.71c-0.209,2.709,1.49,5.441,2.916,6.977
			c0.875,0.941,0.821,1.883,0.436,2.679c-0.702,1.446,0.235,2.77,1.723,1.092c0.957-1.08,1.293-2.672,0.743-3.771
			c-1.024-2.048-1.194-3.072,0.512-8.192C15.509,2.611,15.152,1.708,14.46,1.296z"/>
		<path style="fill:#fff;" d="M25.361,1.296c-3.504-2.092-5.689,1.595-5.908,4.414c-0.209,2.709,1.49,5.441,2.916,6.977
			c0.875,0.941,0.821,1.883,0.436,2.679c-0.702,1.446,0.235,2.77,1.723,1.092c0.957-1.08,1.293-2.672,0.743-3.771
			c-1.024-2.048-1.194-3.072,0.512-8.192C26.409,2.611,26.052,1.708,25.361,1.296z"/>
	</g>
</g>
<g>
</g>
<g>
</g>
<g>
</g>
<g>
</g>
<g>
</g>
<g>
</g>
<g>
</g>
<g>
</g>
<g>
</g>
<g>
</g>
<g>
</g>
<g>
</g>
<g>
</g>
<g>
</g>
<g>
</g>
</svg>
