<svg width="40" height="40" viewBox="0 0 40 40" fill="none" xmlns="http://www.w3.org/2000/svg">
<g clip-path="url(#clip0)">
<path d="M36.942 31.2297L30.3545 27.9359C29.5034 27.5103 28.9655 26.64 28.9655 25.6883V23.1034C29.1503 22.8931 29.3627 22.6221 29.5889 22.3021C30.4869 21.0345 31.1655 19.6393 31.6365 18.1752C32.4814 17.9152 33.1034 17.1345 33.1034 16.2069V13.4483C33.1034 12.8414 32.8338 12.2986 32.4138 11.9193V7.93103C32.4138 7.93103 33.2324 1.72414 24.8276 1.72414C16.422 1.72414 17.2414 7.93103 17.2414 7.93103V11.9193C16.8214 12.2986 16.5517 12.8414 16.5517 13.4483V16.2069C16.5517 16.9338 16.9338 17.5731 17.5055 17.9428C18.1945 20.9441 20 23.1034 20 23.1034V25.6241C20 26.5434 19.4979 27.3897 18.6903 27.8297L12.5379 31.1862C10.7607 32.1552 9.65515 34.0179 9.65515 36.0421V38.2759H40V36.1772C40 34.0821 38.8158 32.1669 36.942 31.2297Z" fill="#7383BF"/>
<path d="M12.5379 31.1862L16.6386 28.9497C16.6152 28.9269 16.6352 28.92 16.6834 28.9248L18.6903 27.8303C19.4979 27.3897 20 26.5441 20 25.6241V23.1035C20 23.1035 19.2676 22.2241 18.5572 20.8117C18.5572 20.811 18.5566 20.8103 18.5566 20.8097C18.4634 20.6248 18.3717 20.4297 18.2814 20.2276C18.269 20.1993 18.2566 20.1724 18.2441 20.1441C18.1524 19.9352 18.0628 19.7193 17.9779 19.4931C17.9724 19.4786 17.9676 19.4628 17.9621 19.4483C17.8876 19.2483 17.8179 19.0421 17.751 18.8303C17.7331 18.7724 17.7152 18.7152 17.6979 18.6572C17.6283 18.4241 17.5628 18.1869 17.5062 17.9414C16.9338 17.5731 16.5517 16.9338 16.5517 16.2069V13.4483C16.5517 12.8414 16.8214 12.2986 17.2414 11.9193V8.02414C16.2669 7.26828 14.7566 6.55173 12.4138 6.55173C5.81862 6.55173 5.51724 12.069 5.51724 12.069V15.5138C5.15448 15.8414 4.82759 16.3097 4.82759 16.8338V19.2166C4.82759 19.8448 5.15793 20.3966 5.65103 20.7159C6.24621 23.3076 8.24414 25.1731 8.24414 25.1731V27.3503C8.24414 28.1441 7.81035 28.8752 7.1131 29.2552L2.48966 32.1531C0.955172 32.9903 0 34.5986 0 36.3469V38.2759H9.65517V36.0421C9.65517 34.0179 10.7607 32.1552 12.5379 31.1862Z" fill="#556080"/>
</g>
<defs>
<clipPath id="clip0">
<rect width="40" height="40" fill="white"/>
</clipPath>
</defs>
</svg>
