<?xml version="1.0" encoding="iso-8859-1"?>
<!-- Generator: Adobe Illustrator 16.0.0, SVG Export Plug-In . SVG Version: 6.00 Build 0)  -->
<!DOCTYPE svg PUBLIC "-//W3C//DTD SVG 1.1//EN" "http://www.w3.org/Graphics/SVG/1.1/DTD/svg11.dtd">
<svg version="1.1" id="Capa_1" xmlns="http://www.w3.org/2000/svg" xmlns:xlink="http://www.w3.org/1999/xlink" x="0px" y="0px"
	 width="792px" height="792px" viewBox="0 0 792 792" style="enable-background:new 0 0 792 792;" xml:space="preserve">
<g>
	<g id="_x36__17_">
		<g>
			<path d="M568.037,404.712c31.68-42.743,50.713-97.515,50.713-157.212C618.75,110.806,519.032,0,396,0
				S173.25,110.806,173.25,247.5c0,59.697,19.033,114.469,50.713,157.212C165.8,424.834,123.75,479.481,123.75,544.5v99
				c0,82.021,66.479,148.5,148.5,148.5h247.5c82.021,0,148.5-66.479,148.5-148.5v-99C668.25,479.481,626.2,424.834,568.037,404.712z
				 M222.75,247.5c0-109.346,77.566-198,173.25-198s173.25,88.654,173.25,198s-77.566,198-173.25,198S222.75,356.846,222.75,247.5z
				 M618.75,631.125c0,61.504-54.4,111.375-121.498,111.375H294.748c-67.097,0-121.498-49.871-121.498-111.375v-74.25
				c0-52.618,39.922-96.451,93.456-108.108C303.188,477.774,347.737,495,396,495s92.812-17.226,129.294-46.233
				c53.534,11.657,93.456,55.49,93.456,108.108V631.125z"/>
		</g>
	</g>
</g>
<g>
</g>
<g>
</g>
<g>
</g>
<g>
</g>
<g>
</g>
<g>
</g>
<g>
</g>
<g>
</g>
<g>
</g>
<g>
</g>
<g>
</g>
<g>
</g>
<g>
</g>
<g>
</g>
<g>
</g>
</svg>
